<svg width="1617" height="639" viewBox="0 0 1617 639" fill="none" xmlns="http://www.w3.org/2000/svg">
<path d="M838.653 30.3258L868.566 60.2391V151.087L838.653 181H761.986L732.073 151.087V60.2391L761.986 30.3258H838.653ZM819.376 145.547L828.682 136.241V75.0849L819.376 65.7786H781.264L771.958 75.0849V136.241L781.264 145.547H819.376ZM1020.65 30.3258H1058.76V151.087L1028.85 181H959.94L930.027 151.087V30.3258H969.911V136.241L979.218 145.547H1009.57L1020.65 134.468V30.3258ZM1247.28 30.3258V65.7786H1200.97V181H1161.09V65.7786H1114.78V30.3258H1247.28ZM1428.53 30.3258V65.7786H1382.22V181H1342.33V65.7786H1296.02V30.3258H1428.53ZM1568.36 181L1559.5 154.41H1504.99L1496.13 181H1455.8L1512.97 30.3258H1553.52L1610.68 181H1568.36ZM1516.07 121.617H1548.42L1532.25 73.0907L1516.07 121.617ZM859.26 243.326V278.779H812.95V394H773.065V278.779H726.755V243.326H859.26ZM1009.93 243.326H1049.81V394H1009.93V335.281H957.191V394H917.307V243.326H957.191V299.829H1009.93V243.326ZM1241.69 278.779H1157.05V301.823H1230.61V335.503H1157.05V358.547H1241.69V394H1117.16V243.326H1241.69V278.779ZM849.954 528.004L867.902 546.173V580.518L842.42 606H736.062V455.326H837.988L863.47 480.807V514.488L849.954 528.004ZM775.946 489.892V514.931H817.16L823.586 508.505V494.767L818.711 489.892H775.946ZM823.142 571.434L828.017 566.559V554.372L819.819 546.173H775.946V571.434H823.142ZM1031.37 455.326L1061.28 485.239V576.087L1031.37 606H954.7L924.787 576.087V485.239L954.7 455.326H1031.37ZM1012.09 570.547L1021.4 561.241V500.085L1012.09 490.779H973.978L964.671 500.085V561.241L973.978 570.547H1012.09ZM1256.68 606H1210.37L1181.12 557.252L1152.54 606H1109.11L1158.3 528.89L1111.32 455.326H1157.63L1184.67 500.307L1211.03 455.326H1254.46L1207.49 528.89L1256.68 606Z" fill="white"></path>
<path d="M319 84.5459L235.453 1H402.547L319 84.5459ZM278.836 18L307.836 47H307.865L336.785 18H278.836ZM346.672 18L317.752 47H330.162L359.163 18H346.672Z" fill="#F9D916"></path>
<path d="M319 555.001L402.547 638.547L235.453 638.547L319 555.001ZM359.164 621.547L330.164 592.547L330.135 592.547L301.215 621.547L359.164 621.547ZM291.328 621.547L320.248 592.547L307.838 592.547L278.837 621.547L291.328 621.547Z" fill="#F9D916"></path>
<path d="M83.5459 319.547L0 403.094L-7.3039e-06 236L83.5459 319.547ZM17 359.711L46 330.711L46 330.682L17 301.762L17 359.711ZM17 291.875L46 320.795L46 308.385L17 279.384L17 291.875Z" fill="#F9D916"></path>
<path d="M554.001 319.547L637.547 236L637.547 403.094L554.001 319.547ZM620.547 279.383L591.547 308.383L591.547 308.412L620.547 337.332L620.547 279.383ZM620.547 347.219L591.547 318.299L591.547 330.709L620.547 359.71L620.547 347.219Z" fill="#F9D916"></path>
<path d="M293.629 374.628L230.5 437.758V487.258L181.258 536.5H96.7578L81.3789 551.879L85.6211 556.121L99.2422 542.5H183.742L236.5 489.742V440.242L297.871 378.87L315 395.999V516L283 548H230.258L139.258 639H34.3379L0 604.662V501.242L73.7422 427.5H98.2422L167 358.742V323H242L293.629 374.628ZM192 639H147.742L232.742 554H277L192 639ZM495.258 639H446L361 554H410.258L495.258 639ZM471 358.742L539.758 427.5H564.258L638 501.242V604.338L603.338 639H503.742L412.742 548H355L321 514V397.999L339.378 379.62L400 440.242V489.742L452.758 542.5H537.258L550.879 556.121L555.121 551.879L539.742 536.5H455.242L406 487.258V437.758L343.62 375.378L396 323H471V358.742ZM34 604H78V560H34V604ZM565 604H609V560H565V604ZM154 525.318H174.741L174.744 525.315H154.003L154 525.318ZM461.759 525.318H482.5L482.497 525.315H461.756L461.759 525.318ZM156.318 523H177.06L186.322 513.737H165.581L156.318 523ZM459.44 523H480.182L470.919 513.737H450.178L459.44 523ZM167.896 511.422H188.638L197.9 502.159H177.159L167.896 511.422ZM447.862 511.422H468.604L459.341 502.159H438.6L447.862 511.422ZM179.475 499.844H200.216L209.48 490.579H188.739L179.475 499.844ZM436.284 499.844H457.025L447.761 490.579H427.02L436.284 499.844ZM161 356.258L95.7578 421.5H71.2578L0 492.758V447L124 323H161V356.258ZM637.999 447.001L638 447V492.758L566.742 421.5H542.242L477 356.258V323H513.999L637.999 447.001ZM191.055 488.264H211.796L221.059 479.001H200.317L191.055 488.264ZM424.704 488.264H445.445L436.183 479.001H415.441L424.704 488.264ZM94 386.5H103.115L120.115 369.5H111L94 386.5ZM534.885 386.5H544L527 369.5H517.885L534.885 386.5ZM71.2578 218H95.7578L161 283.242V317H124L0 193V146.742L71.2578 218ZM136.379 1.62109L227.758 93H283.999L315 124.001V243.998L298.37 260.628L236.5 198.758V149.258L183.742 96.5H99.2422L85.6211 82.8789L81.3789 87.1211L96.7578 102.5H181.258L230.5 151.742V201.242L294.128 264.87L241.998 317H167V280.758L98.2422 212H73.7422L0 138.258V35.0137L34.0137 1H137L136.379 1.62109ZM638 35.3379V138.258L564.258 212H539.758L471 280.758V317H396.002L343.122 264.12L406 201.242V151.742L455.242 102.5H539.742L555.121 87.1211L550.879 82.8789L537.258 96.5H452.758L400 149.258V198.758L338.88 259.878L321 241.998V126.001L354.001 93H410.242L501.621 1.62109L501 1H603.662L638 35.3379ZM638 193L637.999 192.999L513.999 317H477V283.242L542.242 218H566.742L638 146.742V193ZM111 270H120.115L103.115 253H94L111 270ZM517.885 270H527L544 253H534.885L517.885 270ZM200.317 159.999H221.059L211.796 150.736H191.055L200.317 159.999ZM415.441 159.999H436.183L445.445 150.736H424.704L415.441 159.999ZM188.739 148.421H209.48L200.216 139.156H179.475L188.739 148.421ZM427.02 148.421H447.761L457.025 139.156H436.284L427.02 148.421ZM177.159 136.841H197.9L188.638 127.578H167.896L177.159 136.841ZM438.6 136.841H459.341L468.604 127.578H447.862L438.6 136.841ZM165.581 125.263H186.322L177.06 116H156.318L165.581 125.263ZM450.178 125.263H470.919L480.182 116H459.44L450.178 125.263ZM154.003 113.685H174.744L174.741 113.682H154L154.003 113.685ZM461.756 113.685H482.497L482.5 113.682H461.759L461.756 113.685ZM191.999 1.00098L277.999 87H230.242L144.242 1H192L191.999 1.00098ZM407.758 87H360.001L446.001 1.00098L446 1H493.758L407.758 87ZM34 74H78V30H34V74ZM565 74H609V30H565V74Z" fill="#F1F1F1"></path>
</svg>