<svg width="281" height="281" viewBox="0 0 281 281" fill="none" xmlns="http://www.w3.org/2000/svg">
<path d="M140.958 202.729C175.988 202.729 204.386 174.332 204.386 139.302C204.386 104.272 175.988 75.875 140.958 75.875C105.929 75.875 77.5312 104.272 77.5312 139.302C77.5312 174.332 105.929 202.729 140.958 202.729Z" fill="#FFFFFF"></path>
<path d="M140.345 280.339L157.219 233.672L140.269 222.062L123.344 233.723L140.345 280.339Z" fill="#FFFFFF"></path>
<path d="M41.1562 239.439L86.0778 218.385L82.2854 198.183L62.0773 194.453L41.1562 239.439Z" fill="#FFFFFF"></path>
<path d="M0 140.366L46.6399 157.246L58.2585 140.29L46.589 123.359L0 140.366Z" fill="#FFFFFF"></path>
<path d="M40.9062 41.1875L61.9546 86.123L82.1631 82.3423L85.8791 62.1277L40.9062 41.1875Z" fill="#FFFFFF"></path>
<path d="M139.937 0L123.062 46.654L140.026 58.2761L156.951 46.6158L139.937 0Z" fill="#FFFFFF"></path>
<path d="M239.065 40.9375L194.156 61.9922L197.936 82.1941L218.144 85.9239L239.065 40.9375Z" fill="#FFFFFF"></path>
<path d="M280.277 139.958L233.637 123.078L222.031 140.047L233.688 156.977L280.277 139.958Z" fill="#FFFFFF"></path>
<path d="M239.347 239.141L218.299 194.219L198.091 197.999L194.375 218.214L239.347 239.141Z" fill="#FFFFFF"></path>
</svg>