<svg width="375" height="193" viewBox="0 0 375 193" fill="none" xmlns="http://www.w3.org/2000/svg">
<path d="M274.683 12.3196C280.699 12.3196 286.138 15.6427 288.497 20.742C290.244 24.5176 291.95 28.2729 293.622 32.0012C294.622 34.2234 296.831 35.6552 299.285 35.6552C303.772 35.6552 306.77 31.0624 304.941 26.9829C303.215 23.133 301.488 19.3304 299.761 15.5954C295.376 6.11928 285.54 0 274.683 0H253.262C249.843 0 247.062 2.7557 247.062 6.1598C247.062 9.5639 249.836 12.3196 253.262 12.3196H274.683Z" fill="#BDBDBD"></path>
<path d="M99.3344 12.3128C93.3181 12.3128 87.8796 15.6359 85.5207 20.7353C83.7736 24.5109 82.0673 28.2662 80.3949 31.9945C79.3956 34.2166 77.1862 35.6485 74.7321 35.6485C70.2454 35.6485 67.2475 31.0557 69.0761 26.9761C70.8029 23.1263 72.5296 19.3237 74.2563 15.5886C78.6342 6.11927 88.4778 0 99.3344 0H120.755C124.174 0 126.955 2.7557 126.955 6.1598C126.955 9.5639 124.181 12.3196 120.755 12.3196H99.3344V12.3128Z" fill="#BDBDBD"></path>
<path d="M371.992 143.414C371.72 142.617 371.448 141.827 371.176 141.043C367.423 130.19 363.433 119.167 359.334 108.279L351.122 86.4968L350.918 86.6049C347.124 77.0882 343.249 67.7067 339.327 58.5413C335.037 48.5249 330.639 38.6435 326.261 29.1742C320.537 16.7938 307.743 8.79688 293.678 8.79688H80.3612C66.2892 8.79688 53.5021 16.7938 47.7781 29.1809C43.3933 38.657 38.995 48.5384 34.7122 58.5481C30.7013 67.9161 26.7449 77.4935 22.8904 87.1857L22.7068 87.0979L14.7123 108.293C10.6063 119.18 6.62259 130.203 2.87005 141.043C2.59813 141.827 2.32621 142.624 2.05428 143.421C-1.8682 154.896 -0.121099 167.02 6.84692 176.685C13.9305 186.506 25.3649 192.368 37.445 192.368C47.3294 192.368 56.6904 188.404 63.8012 181.197L85.0451 159.678C119.776 173.639 154.542 180.711 188.512 180.711C222.482 180.711 256.193 173.68 289.137 159.807L310.252 181.19C317.362 188.397 326.723 192.362 336.608 192.362C348.681 192.362 360.122 186.499 367.206 176.678C374.174 167.013 375.921 154.889 371.998 143.414H371.992Z" fill="#FFFFFF"></path>
<path d="M245.693 103.123C256.949 103.123 266.074 94.0572 266.074 82.874C266.074 71.6908 256.949 62.625 245.693 62.625C234.437 62.625 225.312 71.6908 225.312 82.874C225.312 94.0572 234.437 103.123 245.693 103.123Z" fill="#141414"></path>
<path d="M104.5 85.5643C120.074 90.5894 136.845 90.5894 152.42 85.5643C151.257 82.0116 150.095 78.4589 148.932 74.9062C135.628 79.2019 121.291 79.2019 107.987 74.9062C106.825 78.4589 105.662 82.0116 104.5 85.5643Z" fill="#141414"></path>
<path opacity="0.2" d="M134.125 103.305V62.625H122.847V103.305H134.125Z" fill="#141414"></path>
</svg>