<svg width="459" height="358" viewBox="0 0 459 358" fill="none" xmlns="http://www.w3.org/2000/svg">
<path d="M249.399 196.682L229.031 176.5L208.664 196.682L229.031 216.864L249.399 196.682Z" fill="#BDBDBD"></path>
<path d="M106.867 196.682L86.5 176.5L66.1325 196.682L86.5 216.864L106.867 196.682Z" fill="#BDBDBD"></path>
<path d="M190.31 16.0269C189.895 18.9055 188.572 21.6941 186.341 23.9173C180.829 29.3788 171.894 29.3788 166.382 23.9173C160.87 18.4557 160.87 9.60152 166.382 4.13995C168.626 1.91677 171.427 0.61884 174.345 0.207615C168.587 -0.640535 162.517 1.10717 158.095 5.50213C150.677 12.8528 150.677 24.7783 158.095 32.1418C165.513 39.4924 177.548 39.4924 184.979 32.1418C189.415 27.7468 191.179 21.7455 190.323 16.0398L190.31 16.0269Z" fill="#BDBDBD"></path>
<path d="M351.805 317.412L331.438 337.594L351.805 357.776L372.172 337.594L351.805 317.412Z" fill="#BDBDBD"></path>
<path d="M97.202 233.609V288.199H54.8844L74.9474 233.609H34.0434L0 326.289H40.904H97.202H135.642V288.199V233.609H116.422H97.202Z" fill="#FFFFFF"></path>
<path d="M424.027 233.595H351.751H322.428H288.514L302.508 271.672H397.116L403.186 288.185H279.099H273.107L271.577 284.009L253.057 233.595H212.153L232.203 288.185H190.69V196.649L175.335 181.434L190.69 166.232V65.0448L171.47 46L152.263 65.0448H152.25V166.232L167.605 181.434L152.25 196.649V288.185V326.275H190.69H246.197H287.101H329.95L345.331 311.021L351.751 304.66L358.17 311.021L373.565 326.275H417.166H458.07L424.027 233.595Z" fill="#FFFFFF"></path>
</svg>