<svg width="186" height="359" viewBox="0 0 186 359" fill="none" xmlns="http://www.w3.org/2000/svg">
<path d="M145.153 177.464C145.153 177.464 142.877 187 139.906 201.011L178.528 203.646L185.292 115.688L154.445 116.984C156.615 128.507 155.519 146.952 145.153 177.464Z" fill="#BDBDBD"></path>
<path d="M31.7321 122.109L0 123.427L9.88205 192.104L45.5544 194.551C43.2788 184.157 41.6985 177.465 41.6985 177.465C32.7646 151.115 30.7208 133.779 31.7321 122.109Z" fill="#BDBDBD"></path>
<path d="M185.26 283.833L175.378 215.156L137.472 212.562C132.794 235.629 127.442 265.283 126.094 286.301L185.26 283.833Z" fill="white"></path>
<path d="M6.76362 203.656L0 291.615L60.8937 289.064C59.777 266.102 53.2451 231.136 48.1039 206.479L6.76362 203.656Z" fill="white"></path>
<path d="M149.242 326.379H37.5476C37.5476 326.379 52.5919 322.573 58.7234 310.318C59.9877 308.122 60.683 304.462 60.9358 299.715L0 301.932V358.396L185.231 343.423V295.219L125.77 297.373C125.896 303.27 126.591 307.787 128.066 310.339C134.198 322.593 149.242 326.4 149.242 326.4V326.379Z" fill="#BDBDBD"></path>
<path d="M185.23 104.312H149.527C147.192 100.767 144.732 98.7416 143.428 97.1963H143.449C138.898 91.7381 123.579 84.7325 123.579 67.626C124.989 39.4998 155.408 35.9542 155.501 35.9434V26.2188H155.458V26.2031H31.3525V35.9277C31.3525 35.9277 31.3603 35.9289 31.375 35.9307V35.9434C31.392 35.9453 40.7922 37.0336 49.3945 42.8174C56.2792 47.4535 62.6473 55.0992 63.2744 67.6104C63.2744 84.7169 47.9565 91.7234 43.4053 97.1816C42.0989 98.7291 39.6336 100.758 37.2949 104.312H0L7.7959 15.4961L174.822 0L185.23 104.312Z" fill="white"></path>
</svg>