<svg width="196" height="288" viewBox="0 0 196 288" fill="none" xmlns="http://www.w3.org/2000/svg">
<path d="M85.6372 209.597C67.1818 198.952 47.1863 192.051 26.1406 187.66L85.6372 209.597Z" fill="white"></path>
<path d="M85.6372 218.245C67.1818 207.6 47.1863 200.699 26.1406 196.309L85.6372 218.245Z" fill="white"></path>
<path d="M169.309 187.66C148.272 192.051 128.268 198.952 109.812 209.597L169.309 187.66Z" fill="white"></path>
<path d="M149.462 275.736H134.262C130.324 274.109 126.544 272.378 122.781 270.488C114.862 266.544 107.021 261.969 98.0078 256.468C88.9945 261.969 81.1538 266.544 73.2343 270.488C69.4715 272.378 65.6911 274.109 61.7533 275.736H46.5619C51.6024 274.101 56.249 272.369 60.7032 270.488C71.5804 265.905 81.3288 260.456 92.9761 253.397C90.1846 251.709 87.5068 250.1 84.8991 248.596C67.7388 258.366 52.9325 264.698 28.6753 270.488C24.5887 271.459 20.2396 272.421 15.5579 273.375L14.5078 268.241C15.5229 268.031 16.5205 267.829 17.5006 267.619C45.8444 261.637 61.762 255.462 79.5786 245.578C61.762 235.694 45.8444 229.519 17.5006 223.528C16.5205 223.318 15.5229 223.117 14.5078 222.907L15.5579 217.781C16.2142 217.912 16.8618 218.052 17.5006 218.184C48.6971 224.682 65.2536 231.365 84.8991 242.56L90.1058 245.578C92.661 247.082 95.2775 248.657 98.0078 250.327L103.048 253.397C114.687 260.456 124.444 265.905 135.321 270.488C139.775 272.369 144.422 274.101 149.462 275.736Z" fill="white"></path>
<path d="M182.81 173.689C182.215 173.19 181.418 172.98 180.648 173.129C179.931 173.26 179.213 173.4 178.496 173.54C145.584 179.925 119.218 189.8 98.0059 203.672C76.7853 189.8 50.4192 179.916 17.4988 173.54C16.7899 173.4 16.0811 173.26 15.3636 173.129C14.5935 172.98 13.8059 173.19 13.2021 173.689C12.6071 174.196 12.257 174.931 12.2658 175.709L12.4145 204.722C12.4233 205.955 13.2984 207.022 14.506 207.267C15.5211 207.477 16.5187 207.678 17.4988 207.888C52.6594 215.314 68.6996 223.037 92.9742 237.749L98.0059 240.819C100.736 242.498 103.361 244.064 105.908 245.577L111.115 248.595C128.275 258.365 143.09 264.697 167.347 270.488C171.425 271.458 175.783 272.421 180.456 273.374L181.506 268.24C180.482 268.03 179.484 267.82 178.496 267.619C150.169 261.636 134.252 255.461 116.435 245.577C134.252 235.693 150.169 229.518 178.496 223.527C179.484 223.326 180.482 223.116 181.506 222.906L180.456 217.78C179.799 217.912 179.143 218.052 178.496 218.192C147.325 224.69 130.751 231.373 111.115 242.56C108.507 241.038 105.829 239.446 103.046 237.749C127.312 223.037 143.352 215.314 178.496 207.897C179.484 207.687 180.482 207.477 181.506 207.267C182.713 207.022 183.589 205.955 183.597 204.722L183.746 175.709V175.683C183.746 174.913 183.396 174.187 182.81 173.689ZM95.3895 233.087C70.5285 218.043 54.0945 210.18 17.6388 202.57L17.5163 178.867C49.4041 185.156 74.9214 194.768 95.3895 208.194V233.087ZM178.373 202.57C141.917 210.18 125.483 218.043 100.622 233.087V208.194C121.09 194.768 146.608 185.156 178.496 178.867L178.373 202.57Z" fill="white"></path>
<path d="M101.71 0.962128L97.9913 0L94.2722 0.962128C38.766 15.2803 0 65.311 0 122.619V288H196V122.619C196 65.311 157.225 15.2803 101.71 0.962128ZM190.75 282.752H5.25047V122.619C5.25047 67.6989 42.3975 19.7674 95.5848 6.04392L97.9913 5.42291L100.398 6.04392C153.594 19.7674 190.75 67.6989 190.75 122.619V282.752Z" fill="white"></path>
<path d="M97.4191 38.2945C87.592 31.4372 75.9185 30.3613 64.1137 45.3443C34.2122 83.2784 58.1106 132.487 58.5832 133.44C58.4431 132.426 53.919 97.6579 81.869 69.485C93.9538 57.3009 97.4191 46.5776 97.4191 38.2858V38.2945Z" fill="white"></path>
<path d="M107.573 32.6771C86.0027 45.281 64.3795 62.5556 58.2277 87.9295C54.4912 102.843 55.76 118.481 58.5778 133.456C56.5301 123.502 55.1737 113.225 55.5237 102.982C55.9788 81.457 65.7097 63.2291 81.6623 49.0946C89.293 42.176 97.7988 36.3332 106.532 30.9453L107.565 32.6684L107.573 32.6771Z" fill="#BDBDBD"></path>
<path d="M115.242 52.6624C125.376 47.5456 138.992 51.4029 148.058 67.0331C171.011 106.594 134.791 156.17 134.214 157.001C139.683 141.222 153.956 112.087 131.064 83.2668C120.956 70.5405 115.706 68.8086 115.242 52.6624Z" fill="white"></path>
<path d="M134.127 156.956C149.388 126.544 157.089 97.899 132.595 69.8574C125.857 61.8717 117.772 55.1018 109.555 48.6818L109.668 48.5156C111.891 49.9151 114.105 51.3495 116.258 52.8714C122.742 57.4547 128.833 62.5627 134.127 68.5279C144.812 80.3533 150.727 95.4937 149.677 111.5C148.601 127.725 141.88 142.927 134.302 157.052L134.118 156.956H134.127Z" fill="#BDBDBD"></path>
<path d="M100.739 13.8633L109.752 35.9223L109.892 36.2546L109.927 36.4908L112.675 53.4505C113.349 58.3486 114.189 65.5121 114.828 70.4977C114.6 69.5093 116.884 78.9556 116.84 78.7457L116.893 78.9731V79.1131L116.683 93.3788V93.5275C116.665 93.5975 113.34 106.997 113.323 107.076L113.288 106.761L117.523 117.406V117.432L117.532 117.458L117.47 121.368L117.269 117.467C117.348 117.712 112.316 107.129 112.334 107.19L112.273 107.059L112.308 106.875L114.731 93.2039C114.705 94.3759 113.961 78.9032 113.953 79.1831L114.005 79.5504C113.988 79.5067 111.389 71.2586 111.371 71.2236C110.391 66.2468 109.061 59.197 108.055 54.2902L104.187 37.6366L104.362 38.2051L94.4297 16.4348L100.503 13.872H100.739V13.8633Z" fill="white"></path>
<path d="M118.4 119.584C121.87 119.584 124.683 116.772 124.683 113.304C124.683 109.835 121.87 107.023 118.4 107.023C114.93 107.023 112.117 109.835 112.117 113.304C112.117 116.772 114.93 119.584 118.4 119.584Z" fill="black"></path>
<path d="M126.002 113.303C125.66 112.07 124.995 111.038 124.225 110.102C123.831 109.621 123.411 109.166 122.991 108.72C122.388 108.046 121.723 107.452 121.005 106.97C119.517 105.93 117.855 105.335 116.183 105.484C115.439 105.545 114.687 105.763 113.969 106.148C113.803 106.236 113.637 106.332 113.479 106.446C113.112 106.691 112.753 106.97 112.394 107.312C111.72 107.95 111.195 108.702 110.819 109.524C110.697 109.804 110.574 110.084 110.487 110.382C110.487 110.399 110.487 110.417 110.469 110.443C110.224 111.221 110.11 112.044 110.137 112.857C110.137 114.073 110.452 115.289 111.055 116.338C111.064 116.356 111.073 116.364 111.082 116.382C111.292 116.74 111.528 117.073 111.799 117.361C113.208 118.962 115.361 119.819 117.4 120.134C117.426 120.134 117.452 120.143 117.478 120.143C117.785 120.195 118.082 120.222 118.38 120.248C122.65 120.851 127.122 118.052 125.984 113.294L126.002 113.303ZM117.513 118.901C117.461 118.901 117.408 118.892 117.356 118.875C117.006 118.805 116.638 118.673 116.262 118.464C114.004 117.099 113.514 114.029 114.556 111.799C114.669 111.527 114.818 111.274 114.993 111.038C115.142 110.81 115.317 110.6 115.509 110.417C117.015 108.807 119.745 107.259 121.871 108.387C122.16 108.536 122.44 108.746 122.703 109C122.895 109.175 123.07 109.376 123.201 109.577C124.295 111.221 123.481 113.487 122.51 115C121.513 117.064 119.841 119.294 117.505 118.892L117.513 118.901Z" fill="white"></path>
<path d="M113.456 107.033C115.373 104.142 115.157 100.626 112.973 99.1798C110.789 97.7335 107.465 98.905 105.549 101.796C103.632 104.687 103.848 108.204 106.032 109.65C108.215 111.096 111.539 109.925 113.456 107.033Z" fill="black"></path>
<path d="M114.9 100.7C114.532 100.219 114.095 99.7728 113.622 99.3966C113.456 99.2567 113.272 99.1255 113.097 99.0118C111.513 97.9447 109.877 97.5861 108.372 97.761C104.801 98.1634 101.975 101.592 102.299 105.878C102.342 107.33 102.946 108.633 103.891 109.543C103.988 109.648 104.093 109.744 104.206 109.849H104.215C105.02 110.522 106.018 110.942 107.12 110.995C107.435 111.021 107.759 111.012 108.083 110.968C108.162 110.96 108.241 110.942 108.328 110.925C109.063 110.82 109.772 110.662 110.481 110.452C110.507 110.452 110.533 110.444 110.551 110.435C111.522 110.155 112.458 109.77 113.325 109.237C113.578 109.079 113.824 108.904 114.069 108.721C114.357 108.502 114.637 108.266 114.909 107.995C115.626 107.234 116.037 106.376 116.195 105.493C116.51 103.849 115.959 102.099 114.909 100.709L114.9 100.7ZM108.109 109.578C107.742 109.534 107.418 109.403 107.155 109.202C107.077 109.14 106.998 109.079 106.919 109C106.473 108.572 106.219 107.942 106.175 107.33C105.948 105.633 106.718 104.015 107.672 102.58C107.882 102.266 108.083 101.977 108.302 101.68C109.221 100.228 110.936 98.1546 112.878 99.3529C113.167 99.5366 113.377 99.7553 113.535 99.9914C114.401 101.286 113.43 103.149 112.747 104.417C112.721 104.461 112.703 104.496 112.686 104.531C111.925 106.271 111.268 109.009 109.282 109.534C108.941 109.621 108.556 109.648 108.118 109.586L108.109 109.578Z" fill="white"></path>
<path d="M107.643 121.774C110.676 120.377 111.957 116.691 110.504 113.541C109.051 110.391 105.415 108.971 102.382 110.368C99.3492 111.766 98.0683 115.452 99.5211 118.602C100.974 121.751 104.61 123.172 107.643 121.774Z" fill="black"></path>
<path d="M112.126 113.077V113.059C111.837 112.062 111.294 111.126 110.55 110.427C110.533 110.409 110.515 110.392 110.498 110.383C110.332 110.217 110.148 110.068 109.964 109.937H109.955C109.745 109.779 109.518 109.639 109.273 109.526C108.756 109.263 108.179 109.097 107.575 109.045C107.435 109.027 107.295 109.018 107.164 109.01C107.085 109.01 107.006 109.001 106.919 109.001C106.42 108.992 105.921 109.045 105.422 109.132C104.906 109.22 104.39 109.377 103.882 109.543C103.34 109.727 102.797 109.946 102.281 110.164C100.338 110.943 98.6756 112.211 97.7305 113.82C97.6867 113.899 97.643 113.978 97.608 114.065V114.083C97.3192 114.616 97.1179 115.176 97.0129 115.771C96.9079 116.366 96.8904 117.004 96.9779 117.66C97.0567 118.255 97.2404 118.876 97.5205 119.514C97.6955 119.952 97.9317 120.363 98.203 120.748V120.756C98.588 121.325 99.0693 121.841 99.6119 122.278C101.975 124.194 105.484 124.727 107.995 122.864C108.03 122.847 108.065 122.821 108.1 122.794C110.017 121.325 111.128 119.488 111.802 117.371C111.959 116.864 112.099 116.339 112.213 115.797C112.274 115.508 112.318 115.229 112.327 114.94C112.362 114.293 112.292 113.689 112.117 113.086L112.126 113.077ZM100.925 116.129C100.251 114.266 100.286 111.485 102.465 110.54C104.215 109.639 105.921 110.698 107.111 111.992C107.391 112.281 107.628 112.578 107.846 112.876C109.605 114.809 111.513 117.59 109.054 119.864C108.66 120.232 108.188 120.468 107.689 120.616C106.332 121.001 104.722 120.643 103.664 120.057C102.22 119.165 101.371 117.713 100.925 116.138V116.129Z" fill="white"></path>
<path d="M116.897 78.9805L127.896 88.0157L127.573 87.867L141.679 92.9926L126.986 89.8962L126.881 89.8788L126.671 89.7388L114.508 82.3392L116.897 78.9805Z" fill="white"></path>
<path d="M128.486 88.6562L130.105 103.805L126.062 89.1111L128.486 88.6562Z" fill="white"></path>
<path d="M133.002 106.057C135.191 102.755 134.944 98.7395 132.45 97.0878C129.957 95.4362 126.16 96.774 123.971 100.076C121.782 103.378 122.029 107.394 124.523 109.045C127.017 110.697 130.813 109.359 133.002 106.057Z" fill="black"></path>
<path d="M135.67 101.077C135.18 99.4504 134.104 97.9634 132.66 96.9838C132.634 96.9576 132.599 96.9401 132.573 96.9226C131.295 96.0829 130.009 95.6631 128.757 95.5756H128.749C128.136 95.5406 127.532 95.5756 126.955 95.6806C123.166 96.4066 120.217 100.194 120.549 104.742C120.567 105.538 120.724 106.29 121.013 106.972C121.144 107.279 121.302 107.558 121.477 107.838C121.599 108.031 121.739 108.223 121.879 108.389C122.255 108.862 122.71 109.264 123.209 109.588C123.349 109.684 123.498 109.771 123.656 109.85C123.656 109.859 123.656 109.859 123.656 109.859C123.831 109.955 124.023 110.043 124.216 110.113C125.021 110.436 125.913 110.559 126.85 110.454C129.641 110.078 132.345 109.142 134.428 107.016C136.003 105.319 136.274 103.098 135.662 101.086L135.67 101.077ZM126.885 109.054C125.502 108.914 124.636 107.725 124.469 106.491C124.023 104.025 125.423 101.628 126.92 99.7303C127.165 99.3804 127.445 99.0043 127.76 98.6457C128.127 98.2433 128.53 97.8585 128.959 97.5436C129.956 96.8176 131.137 96.494 132.336 97.255C132.643 97.4824 132.87 97.7185 133.054 97.9722C133.238 98.2259 133.369 98.4795 133.439 98.7506C134.025 100.745 132.17 103.238 131.575 105.109C130.892 107.095 129.3 109.413 126.893 109.045L126.885 109.054Z" fill="white"></path>
<path d="M143.82 99.6459C146.017 97.6165 145.618 93.6131 142.928 90.7039C140.238 87.7947 136.277 87.0814 134.08 89.1107C131.883 91.1401 132.282 95.1435 134.971 98.0527C137.661 100.962 141.623 101.675 143.82 99.6459Z" fill="black"></path>
<path d="M144.74 89.4519C143.453 87.8513 141.537 86.6705 139.227 86.2769C137.363 85.8658 135.499 86.3556 134.151 87.4752C133.11 88.3324 132.375 89.5744 132.191 91.0613C132.147 91.4374 132.121 91.8135 132.112 92.1896C132.077 92.6707 132.077 93.1517 132.112 93.6241C132.156 94.7611 132.331 95.8894 132.681 96.9828C132.725 97.1052 132.768 97.2364 132.821 97.3589C132.891 97.56 132.97 97.77 133.075 97.9711C133.18 98.2423 133.311 98.4872 133.46 98.7496C133.539 98.907 133.626 99.0732 133.731 99.2306C133.932 99.5368 134.151 99.7992 134.396 100.053C134.799 100.473 135.236 100.805 135.7 101.067C137.31 101.977 139.279 102.065 141.073 101.487C142.149 101.155 143.147 100.586 143.987 99.8079C145.588 98.3123 146.385 96.5629 146.507 94.8224V94.8049C146.656 92.8893 146.017 90.9738 144.766 89.4432L144.74 89.4519ZM140.513 99.9216C138.973 99.2569 137.52 97.6825 136.243 96.904C135.192 96.1431 133.985 95.2072 133.512 93.9214C133.477 93.8165 133.442 93.7028 133.416 93.5978C133.329 93.2829 133.285 92.9506 133.294 92.6269C133.311 91.5161 133.862 90.4141 134.86 89.9592C135.114 89.8718 135.35 89.8018 135.604 89.7581C138.404 89.242 140.942 91.5599 142.596 93.6765C143.917 95.181 145.553 97.735 143.698 99.5193C142.622 100.42 141.554 100.385 140.522 99.9304L140.513 99.9216Z" fill="white"></path>
<path d="M85.7845 94.622C95.3053 98.8904 101.326 107.121 95.4103 122.637C80.4377 161.927 32.9823 166.099 32.0547 166.169C32.8773 165.828 60.871 153.644 69.4293 120.18C73.1308 105.704 79.5889 98.3218 85.7845 94.6133V94.622Z" fill="white"></path>
<path d="M32 166.098C68.552 152.419 82.2382 133.631 85.5285 94.4985C85.8261 91.2098 86.0098 87.8248 86.2198 84.5273H86.3949C86.5086 86.749 86.5699 88.9794 86.5786 91.2098C86.5786 92.0582 86.5786 93.7113 86.5349 94.5597C86.2198 119.295 77.9154 141.389 56.2922 155.008C48.8365 159.766 40.2082 163.527 32.1313 166.203C32.1313 166.238 32.0525 166.282 32.0175 166.256C32.0175 166.256 32.105 166.256 32.0788 166.256L32 166.098Z" fill="#BDBDBD"></path>
<path d="M105.31 57.668C93.2511 57.9654 81.9977 68.0415 81.3676 87.2228C79.7487 135.784 128.464 161.447 129.418 161.936C128.701 161.202 102.098 140 107.952 100.518C110.481 83.4443 112.984 73.0358 105.318 57.6767L105.31 57.668Z" fill="white"></path>
<path d="M107.996 54.029C95.631 82.3855 88.8404 111.267 107.445 138.994C113.229 147.933 120.982 155.472 129.435 161.945C120.868 155.621 112.958 148.213 106.963 139.309C87.6415 111.582 95.1934 79.4466 107.191 50.5391L108.005 54.0202L107.996 54.029Z" fill="#BDBDBD"></path>
<path d="M98.6465 12.7951L97.9902 12.6289L97.3338 12.7951C47.2356 25.7226 12.25 70.8727 12.25 122.6V275.736H183.748V122.6C183.748 70.8727 148.753 25.7226 98.6465 12.7951ZM17.5005 270.488V122.6C17.5005 74.3626 49.4058 32.1251 95.4874 18.7515C96.31 18.5066 97.1413 18.2705 97.9814 18.0518C99.6265 18.4891 101.263 18.9615 102.873 19.4775C102.934 19.495 102.987 19.5125 103.048 19.53C147.756 33.6908 178.489 75.2547 178.489 122.6V270.488H17.5005Z" fill="white"></path>
<path d="M169.31 196.301L111.992 217.004C129.835 207.059 149.095 200.517 169.31 196.301Z" fill="white"></path>
</svg>