<svg width="433" height="328" viewBox="0 0 433 328" fill="none" xmlns="http://www.w3.org/2000/svg">
<path d="M155.094 61.0938L156.966 65.6207L155.094 61.0938Z" fill="#BDBDBD"></path>
<path d="M32.9764 66.7808L146.865 70.4664L142.839 60.7014L33.2849 57.1569C32.9277 57.1461 32.5705 57.1406 32.2188 57.1406V66.7699C32.4731 66.7699 32.7221 66.7699 32.9764 66.7808Z" fill="#BDBDBD"></path>
<path d="M409.474 69.3265L324.734 66.5854L320.973 76.0952L409.166 78.9504C412.705 79.0643 416.293 81.0076 419.01 84.2861C422.328 88.2865 423.854 93.6277 423.102 98.5672L401.075 243.066C399.874 250.964 394.629 256.739 388.33 257.119L60.5876 276.79C60.1546 276.817 59.7163 276.828 59.2833 276.828C50.0938 276.828 42.8201 270.787 41.1749 261.793L9.88302 90.474C8.90346 85.1274 10.4459 79.6831 14.2126 75.1507C18.5746 69.9019 25.2854 66.7699 32.1748 66.7699V57.1406C12.8379 57.1406 -2.87294 74.0489 0.444582 92.211L31.7419 263.53C34.2422 277.219 45.4991 286.458 59.2941 286.458C59.9165 286.458 60.5389 286.441 61.1721 286.403L388.914 266.732C399.809 266.081 408.69 256.897 410.573 244.526L432.6 100.027C434.916 84.818 423.583 69.7879 409.485 69.3319L409.474 69.3265Z" fill="#BDBDBD"></path>
<path d="M257.263 73.7571L264.32 8.53416C264.51 6.79177 263.389 5.10366 261.717 4.60972C253.734 2.23768 245.357 0.723263 236.681 0.202174C227.941 -0.324343 219.374 0.18589 211.088 1.63517C209.34 1.93914 208.166 3.52954 208.366 5.3425L215.732 72.5846C215.926 74.3867 217.431 75.7872 219.217 75.836L253.891 76.7696C255.623 76.8185 257.074 75.5212 257.263 73.7625V73.7571Z" fill="#BDBDBD"></path>
<path d="M304.596 87.0239L321.492 44.2947C322.044 42.8997 321.492 41.2496 320.226 40.4571C315.306 37.3902 309.992 34.8174 304.315 32.8361C298.61 30.8495 292.847 29.5631 287.105 28.9388C285.611 28.776 284.29 29.8019 284.036 31.3217L276.324 77.8452C276.07 79.3759 276.973 80.8849 278.418 81.3517L301.132 88.6958C302.545 89.1517 304.033 88.4298 304.596 87.0185V87.0239Z" fill="#BDBDBD"></path>
<path d="M164.453 83.8092L145.062 36.8136C144.418 35.2557 145.062 33.5296 146.539 32.7968C152.232 29.9851 158.332 27.7705 164.772 26.2507C171.174 24.7362 177.582 23.9817 183.898 23.922C185.527 23.9058 186.972 25.1108 187.242 26.7283L195.571 75.6889C195.842 77.2902 194.873 78.8046 193.325 79.2117L168.349 85.7579C166.764 86.1758 165.08 85.3345 164.453 83.8092Z" fill="#BDBDBD"></path>
<path d="M111.595 161.197L100.208 161.306C98.5795 159.401 92.5343 151.693 82.0081 138.101V147.291C82.0081 148.957 82.1164 151.4 82.3274 154.619C82.5385 157.837 82.7874 159.965 83.0689 160.996V161.469L73.625 161.561V161.089C74.3394 158.462 74.6912 153.875 74.6912 147.323V128.418C74.6912 121.823 74.334 117.209 73.625 114.582V114.109L83.0689 114.202V114.674C82.7874 115.705 82.5385 117.844 82.3274 121.084C82.1164 124.325 82.0081 126.778 82.0081 128.445V136.554L93.4923 122.371C96.4797 118.674 97.9734 115.998 97.9734 114.343L106.746 114.43V115.097C104.803 115.39 102.092 117.714 98.6011 122.067L87.7285 135.474L96.8531 146.764C100.485 151.221 103.445 154.521 105.74 156.67C108.029 158.814 109.977 160.101 111.59 160.53V161.197H111.595Z" fill="#FFFFFF"></path>
<path d="M158.08 127.943V140.384C158.08 148.33 156.77 153.845 154.151 156.944C151.526 160.049 147.093 161.634 140.837 161.699C134.549 161.759 129.986 160.293 127.172 157.292C124.347 154.285 122.935 149.454 122.935 142.81V128.789C122.935 122.189 122.594 117.602 121.906 115.029V114.562L130.782 114.649V115.111C130.192 118.861 129.9 124.11 129.9 130.868V139.743C129.9 147.163 130.895 151.951 132.893 154.1C134.792 156.157 137.725 157.172 141.687 157.14C145.632 157.107 148.56 156.429 150.481 155.099C151.64 153.253 152.376 150.735 152.684 147.538C152.998 144.346 153.149 139.097 153.149 131.791C153.149 124.485 152.814 118.997 152.148 115.317V114.856L159.076 114.921V115.377C158.81 116.419 158.578 118.395 158.377 121.293C158.177 124.197 158.08 126.406 158.08 127.937V127.943Z" fill="#FFFFFF"></path>
<path d="M183.123 160.509L176.531 160.574V160.118C177.186 157.258 177.511 152.232 177.511 145.045V130.498C177.511 123.832 177.229 118.849 176.661 115.555V115.099L184.552 114.594L207.082 149.697V128.859C207.082 126.595 206.957 124.125 206.703 121.449C206.449 118.773 206.129 116.901 205.745 115.831V115.381L212.429 115.446V115.896C211.796 118.708 211.476 123.653 211.476 130.737V146.798C211.476 149.36 211.568 152.101 211.763 155.022C211.952 157.942 212.131 159.679 212.304 160.232L206.324 160.933L181.959 123.257V146.912C181.959 152.66 182.349 157.041 183.128 160.059V160.515L183.123 160.509Z" fill="#FFFFFF"></path>
<path d="M241.15 144.445C238.13 144.456 235.835 144.483 234.26 144.526C233.097 149.265 232.382 152.408 232.112 153.949C231.841 155.496 231.706 157.157 231.706 158.932V160.012L223.188 160.094V159.459C225.071 157.955 227.593 152.055 230.737 141.774C233.876 131.526 235.911 124.828 236.842 121.669C237.773 118.51 238.281 116.491 238.363 115.606L245.598 114.922C245.598 116.393 246.892 120.996 249.479 128.714C252.055 136.417 254.128 142.355 255.697 146.54C257.261 150.714 258.473 153.613 259.328 155.241C260.178 156.864 261.136 158.151 262.186 159.1V159.725L251.93 159.822V158.753C251.93 157.244 251.736 155.844 251.346 154.546C250.956 153.249 250.702 152.413 250.577 152.033L248.12 144.488C246.481 144.45 244.153 144.439 241.144 144.445H241.15ZM240.966 120.372C240.138 122.597 238.157 129.436 235.007 140.917L247.076 140.9C246.334 138.588 245.247 134.957 243.807 129.985C242.367 125.013 241.415 121.805 240.96 120.372H240.966Z" fill="#FFFFFF"></path>
<path d="M292.569 139.674C290.437 139.348 288.332 139.18 286.253 139.185C284.17 139.185 282.411 139.229 280.977 139.31V146.448C280.977 152.326 281.296 156.544 281.935 159.101V159.535L273.844 159.611V159.177C274.482 156.598 274.807 152.381 274.807 146.529V129.16C274.807 123.308 274.488 119.096 273.844 116.512V116.078L297.943 116.127L296.471 120.8H296.06C293.581 120.122 290.718 119.769 287.476 119.742C284.224 119.715 282.135 119.742 281.22 119.813C281.063 121.056 280.982 126.288 280.982 135.516L294.88 135.223L292.991 139.668H292.575L292.569 139.674Z" fill="#FFFFFF"></path>
<path d="M318.365 144.253C315.551 144.259 313.403 144.286 311.931 144.335C310.843 148.91 310.177 151.95 309.923 153.443C309.668 154.935 309.544 156.542 309.544 158.257V159.3L301.594 159.376V158.762C303.353 157.313 305.701 151.613 308.64 141.68C311.573 131.774 313.468 125.304 314.339 122.253C315.21 119.203 315.681 117.249 315.757 116.397L322.516 115.734C322.516 117.157 323.723 121.602 326.137 129.066C328.545 136.513 330.483 142.25 331.949 146.289C333.411 150.327 334.542 153.128 335.343 154.697C336.144 156.265 337.031 157.508 338.016 158.426V159.028L328.437 159.12V158.089C328.437 156.629 328.253 155.277 327.89 154.024C327.528 152.77 327.29 151.961 327.176 151.597L324.881 144.307C323.35 144.269 321.18 144.259 318.371 144.264L318.365 144.253ZM318.192 120.989C317.418 123.144 315.567 129.749 312.629 140.839L323.902 140.823C323.209 138.592 322.192 135.074 320.849 130.276C319.502 125.472 318.62 122.373 318.192 120.989Z" fill="#FFFFFF"></path>
<path d="M372.989 138.673L364.265 138.619C360.601 138.619 357.684 138.64 355.525 138.678V146.305C355.525 147.787 355.612 149.947 355.774 152.786C355.942 155.625 356.137 157.503 356.359 158.42V158.838L348.906 158.909V158.485C349.469 156.151 349.751 152.08 349.751 146.261V129.413C349.751 123.594 349.469 119.518 348.906 117.189V116.766L356.359 116.836V117.254C356.137 118.171 355.942 120.06 355.774 122.921C355.606 125.782 355.525 127.953 355.525 129.435V134.895L372.984 134.922V129.505C372.984 128.034 372.903 125.885 372.735 123.04C372.573 120.202 372.378 118.323 372.156 117.406V116.988L379.451 117.059V117.477C378.905 119.767 378.629 123.784 378.629 129.527V146.153C378.629 151.896 378.905 155.912 379.451 158.203V158.621L372.156 158.692V158.274C372.378 157.356 372.567 155.489 372.735 152.672C372.897 149.855 372.984 147.711 372.984 146.24V138.678L372.989 138.673Z" fill="#FFFFFF"></path>
<path d="M168.849 209.461C168.849 215.72 170.375 220.529 173.417 223.894C176.453 227.249 180.209 228.834 184.679 228.666C187.926 228.541 192.218 226.912 197.543 223.791L199.28 226.364C197.31 227.9 195.779 229.008 194.68 229.697C193.582 230.386 192.348 231.103 190.968 231.841C188.164 233.29 185.155 234.083 181.946 234.213C176.285 234.446 171.447 232.536 167.426 228.481C163.394 224.41 161.375 218.819 161.375 211.714C161.375 204.609 163.713 198.763 168.378 194.187C173.027 189.633 178.764 187.288 185.583 187.147C190.118 187.055 194.361 187.994 198.306 189.969C197.792 192.683 196.894 194.985 195.606 196.858C191.173 193.4 186.362 191.723 181.161 191.842C179.597 191.88 178.071 192.065 176.588 192.401C174.358 194.1 172.513 196.38 171.046 199.235C169.574 202.096 168.844 205.504 168.844 209.461H168.849Z" fill="#FFFFFF"></path>
<path d="M222.728 201.151V218.347C222.728 219.921 222.826 222.217 223.01 225.246C223.199 228.275 223.415 230.272 223.67 231.238V231.684L215.281 232.025V231.58C215.914 229.083 216.228 224.54 216.228 217.94V200.695C216.228 194.523 215.909 190.208 215.281 187.749V187.304L223.67 187.125V187.57C223.421 188.553 223.199 190.659 223.01 193.888C222.82 197.118 222.728 199.544 222.728 201.156V201.151Z" fill="#FFFFFF"></path>
<path d="M237.058 192.281C237.058 190.381 236.956 188.508 236.75 186.652C245.047 186.603 250.35 186.554 252.699 186.505C255.048 186.457 260.303 186.283 268.432 185.984C268.15 188.53 268.009 190.386 268.009 191.553L267.587 191.564C263.101 190.5 259.269 189.963 256.098 189.952C255.892 192.134 255.795 195.505 255.795 200.065V217.326C255.795 222.976 256.098 227.172 256.709 229.908V230.347L248.683 230.673V230.233C249.214 227.487 249.484 223.34 249.484 217.803V200.493C249.484 195.749 249.382 192.292 249.176 190.115C246.059 190.272 242.167 190.989 237.497 192.281L237.064 192.292L237.058 192.281Z" fill="#FFFFFF"></path>
<path d="M293.087 207.403C298.082 195.955 300.572 189.018 300.572 186.554V185.506L307.364 185.359V185.973C305.767 187.237 301.686 195.526 295.095 210.914V215.848C295.095 217.287 295.181 219.485 295.36 222.438C295.539 225.391 295.723 227.361 295.917 228.338V228.773L288.341 229.082V228.648C288.893 226.113 289.174 222.471 289.174 217.727V210.92L283.464 199.385C279.519 191.667 276.927 187.417 275.688 186.651V186.027L284.541 185.837V186.89C284.541 188.502 285.185 190.739 286.479 193.599C287.767 196.454 288.725 198.577 289.358 199.961C289.991 201.345 290.386 202.181 290.543 202.463C291.057 203.272 291.907 204.916 293.087 207.392V207.403Z" fill="#FFFFFF"></path>
<path d="M335.941 202.464C335.941 201.188 335.41 200.564 334.355 200.597C333.565 200.618 332.569 201.194 331.378 202.317C330.983 201.818 330.756 201.194 330.697 200.439C332.028 199.804 333.256 199.473 334.382 199.44C335.502 199.408 336.352 199.647 336.931 200.146C337.505 200.651 337.792 201.362 337.792 202.274C337.792 203.625 337.169 205.189 335.925 206.975C335.297 207.876 334.756 208.608 334.301 209.184C333.846 209.759 333.224 210.503 332.428 211.42C333.316 211.393 333.933 211.366 334.285 211.339C336.347 211.198 337.667 210.845 338.263 210.28L338.419 210.405L337.705 212.565L330.924 212.793L330.594 211.892C332.694 209.428 334.09 207.555 334.777 206.269C335.557 204.82 335.946 203.549 335.946 202.464H335.941Z" fill="#FFFFFF"></path>
<path d="M342.989 210.75C342.161 209.529 341.75 207.9 341.75 205.854C341.75 203.808 342.205 202.179 343.119 200.963C344.034 199.748 345.208 199.118 346.648 199.08C348.087 199.042 349.17 199.612 349.9 200.795C350.631 201.978 350.994 203.547 350.994 205.496C350.994 207.444 350.582 209.089 349.754 210.424C348.926 211.765 347.86 212.455 346.545 212.498C345.003 212.552 343.812 211.966 342.989 210.75ZM349.17 206.022C349.17 202.217 348.185 200.345 346.22 200.404C345.863 200.415 345.522 200.486 345.192 200.611C344.862 200.735 344.629 200.877 344.494 201.029C344.24 201.419 344.028 202.027 343.855 202.863C343.682 203.694 343.595 204.508 343.595 205.295C343.595 206.082 343.644 206.815 343.742 207.482C343.839 208.15 344.007 208.78 344.234 209.366C344.467 209.952 344.797 210.408 345.23 210.728C345.663 211.054 346.177 211.206 346.778 211.184C346.983 211.179 347.249 211.114 347.562 210.994C347.876 210.875 348.114 210.718 348.261 210.528C348.547 210.175 348.769 209.556 348.932 208.677C349.094 207.797 349.175 206.918 349.175 206.028L349.17 206.022Z" fill="#FFFFFF"></path>
<path d="M359.176 201.795C359.176 200.536 358.657 199.917 357.623 199.95C356.849 199.972 355.875 200.542 354.711 201.654C354.322 201.16 354.1 200.542 354.04 199.798C355.345 199.174 356.546 198.843 357.645 198.815C358.743 198.783 359.577 199.016 360.14 199.516C360.702 200.015 360.984 200.715 360.984 201.622C360.984 202.957 360.378 204.504 359.16 206.268C358.543 207.158 358.013 207.886 357.569 208.45C357.125 209.015 356.514 209.753 355.74 210.665C356.606 210.638 357.212 210.611 357.553 210.583C359.571 210.442 360.865 210.095 361.444 209.536L361.595 209.661L360.897 211.794L354.262 212.022L353.938 211.132C355.994 208.694 357.358 206.844 358.029 205.573C358.792 204.14 359.176 202.886 359.176 201.806V201.795Z" fill="#FFFFFF"></path>
<path d="M366.056 209.974C365.244 208.769 364.844 207.152 364.844 205.127C364.844 203.103 365.293 201.49 366.186 200.285C367.079 199.08 368.232 198.462 369.644 198.424C371.051 198.386 372.112 198.95 372.826 200.123C373.541 201.295 373.898 202.848 373.898 204.774C373.898 206.701 373.492 208.33 372.686 209.649C371.874 210.973 370.829 211.657 369.541 211.701C368.031 211.749 366.868 211.174 366.061 209.969L366.056 209.974ZM372.107 205.296C372.107 201.534 371.143 199.678 369.217 199.732C368.865 199.743 368.529 199.808 368.21 199.933C367.885 200.058 367.658 200.193 367.523 200.345C367.274 200.731 367.063 201.333 366.895 202.158C366.727 202.983 366.641 203.787 366.641 204.563C366.641 205.339 366.689 206.066 366.787 206.729C366.884 207.391 367.046 208.01 367.268 208.59C367.496 209.171 367.82 209.622 368.242 209.942C368.665 210.262 369.168 210.414 369.758 210.392C369.958 210.387 370.218 210.322 370.526 210.202C370.835 210.083 371.062 209.931 371.208 209.741C371.49 209.388 371.706 208.78 371.868 207.912C372.025 207.043 372.107 206.169 372.107 205.29V205.296Z" fill="#FFFFFF"></path>
<path d="M88.9388 208.069C88.0891 207.884 87.0609 207.814 85.8594 207.846C84.6525 207.879 83.884 207.917 83.5539 207.955C83.5214 208.481 83.5106 210.18 83.5106 213.052L88.6574 212.791L88.0296 214.235H87.8781C86.8985 214.159 86.1192 214.132 85.5401 214.148C84.961 214.164 84.2845 214.208 83.5052 214.273C83.5052 217.627 83.5323 219.511 83.5918 219.923C83.9219 219.956 84.4739 219.956 85.237 219.929C87.4992 219.853 89.1499 219.576 90.1836 219.104H90.3351L89.9454 221.009L80.875 221.318V221.172C81.1077 220.309 81.2214 218.903 81.2214 216.954V211.152C81.2214 209.203 81.1077 207.803 80.875 206.956V206.809L89.6207 206.5L89.0795 208.063H88.928L88.9388 208.069Z" fill="#FFFFFF"></path>
<path d="M97.1223 207.719C96.8193 208.099 96.6732 208.549 96.6732 209.081C96.6732 209.613 96.8085 210.042 97.0791 210.378C97.3497 210.715 97.7068 210.986 98.1506 211.198C98.5944 211.41 99.0815 211.616 99.6064 211.811C100.131 212.007 100.662 212.224 101.187 212.463C101.712 212.702 102.199 212.978 102.637 213.304C103.075 213.624 103.433 214.059 103.703 214.607C103.974 215.15 104.109 215.79 104.109 216.512C104.109 217.896 103.649 218.955 102.724 219.698C101.798 220.442 100.532 220.844 98.9191 220.898C97.3064 220.952 95.856 220.561 94.5625 219.725C94.6058 218.819 94.8656 218.021 95.3364 217.332C95.9101 217.972 96.6028 218.493 97.42 218.89C98.2372 219.286 99.0111 219.476 99.7526 219.449C100.494 219.421 101.127 219.248 101.658 218.911C102.015 218.488 102.193 217.94 102.193 217.272C102.193 216.604 102.015 216.062 101.652 215.644C101.29 215.231 100.84 214.911 100.305 214.688C99.7688 214.466 99.1843 214.216 98.5511 213.939C97.9179 213.662 97.328 213.386 96.7922 213.098C96.2564 212.81 95.8073 212.392 95.4392 211.844C95.0766 211.29 94.8926 210.639 94.8926 209.884C94.8926 208.62 95.3418 207.664 96.2348 207.024C97.1278 206.378 98.248 206.041 99.601 206.003C100.949 205.965 102.329 206.242 103.736 206.834C103.579 207.648 103.324 208.419 102.967 209.157C102.383 208.614 101.712 208.169 100.949 207.827C100.186 207.485 99.4603 207.322 98.7784 207.344C98.0911 207.366 97.5445 207.491 97.1278 207.719H97.1223Z" fill="#FFFFFF"></path>
<path d="M107.702 207.784C107.702 207.171 107.664 206.563 107.594 205.96C110.44 205.922 112.264 205.89 113.076 205.868C113.888 205.846 115.706 205.776 118.537 205.656C118.439 206.487 118.391 207.095 118.391 207.475H118.244C116.686 207.144 115.354 206.975 114.256 206.981C114.186 207.692 114.148 208.788 114.148 210.275V215.899C114.148 217.739 114.256 219.107 114.467 219.997V220.138L111.696 220.23V220.089C111.88 219.194 111.972 217.848 111.972 216.051V210.422C111.972 208.88 111.934 207.757 111.864 207.051C110.792 207.111 109.455 207.35 107.854 207.779H107.707L107.702 207.784Z" fill="#FFFFFF"></path>
<path d="M124.132 217.645C124.354 217.857 124.468 218.307 124.468 218.997C124.468 219.176 124.451 219.339 124.424 219.485L124.213 219.654C123.526 219.882 122.757 220.034 121.902 220.12L121.67 220.028C121.432 219.599 121.312 219.057 121.312 218.389V218.183L121.524 217.993C122.265 217.71 122.985 217.558 123.688 217.531H123.899L124.132 217.64V217.645Z" fill="#FFFFFF"></path>
<path d="M235.662 269.281H232.556C229.363 269.281 226.781 271.876 226.781 275.073V321.444C226.781 324.647 229.368 327.236 232.556 327.236H235.662C238.855 327.236 241.437 324.641 241.437 321.444V275.073C241.437 271.87 238.85 269.281 235.662 269.281Z" fill="#BDBDBD"></path>
</svg>