<svg width="445" height="261" viewBox="0 0 445 261" fill="none" xmlns="http://www.w3.org/2000/svg">
<path d="M39.618 168.484C24.5076 177.944 6.22051 192.115 0 208.126C0 208.126 20.1351 186.785 51.286 174.855C47.0947 173.075 43.2054 170.955 39.6301 168.484H39.618Z" fill="#FFFFFF"></path>
<path d="M244.881 100.909C227.053 116.57 203.705 140.806 199.743 163.176C197.822 174.028 194.259 186.867 189.5 199.681C202.823 200.408 217.16 199.597 232.114 196.387C234.384 188.018 235.749 178.607 235.93 168.009C236.474 135.876 260.486 104.216 277.916 85.4062C267.335 90.251 256.198 95.4833 244.881 100.897V100.909Z" fill="#FFFFFF"></path>
<path d="M265.814 84.0829C265.814 84.0829 206.291 126.159 199.744 163.137C194.502 192.75 177.097 237.213 156.213 255.356C153.712 257.524 155.741 261.557 158.966 260.867C186.554 254.92 234.784 234.96 235.932 167.982C236.789 117.427 295.733 68.0469 295.733 68.0469L265.802 84.095L265.814 84.0829Z" fill="#FFFFFF"></path>
<path d="M335.593 140.856C329.747 150.219 321.8 159 311.605 167.369C310.748 183.853 307.414 201.282 300.879 211.698C299.684 213.6 301.797 215.828 303.754 214.726C320.338 205.485 347.31 183.308 335.811 140.469C335.726 140.602 335.654 140.723 335.581 140.856H335.593Z" fill="#FFFFFF"></path>
<path d="M432.091 65.6688C432.091 65.6688 422.247 82.2257 409.444 67.9095C396.64 53.5933 382.859 38.4535 269.633 110.361C200.302 154.4 118.01 170.097 118.01 170.097C2.47721 189.524 21.5132 92.7629 21.5132 92.7629C21.5132 107.903 33.3261 221.766 331.669 47.6706C374.452 22.7082 406.122 19.5228 428.975 32.3734C428.975 32.3734 453.519 46.0234 441.694 65.4387C441.694 65.4387 434.93 74.9465 420.894 52.8545L432.091 65.6688Z" fill="#FFFFFF"></path>
<path d="M33.0625 105.849C34.2221 109.07 35.9131 112.546 38.4133 115.889C47.5086 128.062 63.694 134.227 86.5348 134.227C109.376 134.227 139.959 127.589 175.506 114.508C214.242 100.241 259.984 78.1488 311.609 48.7776C255.793 68.0596 250.346 5.69586 279.805 0.172872C230.476 -3.77558 266.253 61.2286 220.391 60.732C222.577 41.232 207.321 35.5273 207.321 35.5273C217.045 48.3053 208.831 66.5093 185.495 67.2845C162.159 68.0596 149.972 38.3493 167.86 26.6009C185.749 14.8524 195.665 37.9981 195.665 37.9981C195.665 37.9981 194.965 3.63685 165.469 13.1567C121.66 29.2776 157.424 73.9581 145.43 91.7261C133.424 109.494 103.65 109.87 95.2555 88.9768C86.8609 68.0839 106.767 59.763 106.767 59.763C106.767 59.763 88.7693 53.2227 80.2055 72.868C71.6418 92.5134 88.564 114.908 88.564 114.908C88.564 114.908 69.6729 130.581 33.0746 105.849H33.0625Z" fill="#BDBDBD"></path>
<path d="M274.475 118.063C268.785 121.672 263.024 125.1 257.226 128.334C250.257 140.882 245.208 154.556 244.978 168.133C244.821 177.253 243.819 185.829 242.031 193.883C253.917 190.528 266.128 185.611 278.485 178.683C349.217 139.029 334.566 103.081 346.512 77.125C327.621 85.894 303.717 99.4955 274.475 118.063Z" fill="#FFFFFF"></path>
<path d="M119.734 179.05L119.638 179.074H119.541C118.357 179.292 117.222 179.437 116.062 179.607C129.434 186.414 152.154 195.812 180.14 198.889C185.056 186.086 188.836 172.921 190.842 161.56C191.035 160.47 191.276 159.368 191.554 158.266C152.311 172.703 121.812 178.65 119.746 179.05H119.734Z" fill="#FFFFFF"></path>
</svg>