<svg width="265" height="304" viewBox="0 0 265 304" fill="none" xmlns="http://www.w3.org/2000/svg">
<path d="M69.4864 249.525C67.4013 247.459 61.2399 242.537 54.3083 235.192C49.3116 229.914 43.9204 223.358 39.3369 215.656L12.625 229.407C26.0936 252.888 46.1369 268.197 50.6641 272.687C50.6641 272.687 71.346 291.021 100.8 299.455V268.028C81.997 260.589 69.4864 249.506 69.4864 249.506V249.525Z" fill="#FFFFFF"></path>
<path d="M205.708 133.419C200.655 131.259 195.789 129.456 191.375 127.953L205.708 133.419Z" fill="#FFFFFF"></path>
<path d="M250.781 27.4259L250.801 27.4062L250.781 27.4259Z" fill="#FFFFFF"></path>
<path d="M215.911 69.8594C215.874 69.878 215.837 69.9151 215.781 69.9709L215.911 69.8594Z" fill="#FFFFFF"></path>
<path d="M250.675 27.5156C250.619 27.5531 250.562 27.6092 250.469 27.7028L250.675 27.5343V27.5156Z" fill="#FFFFFF"></path>
<path d="M264.473 87.8474C264.473 87.8474 264.473 87.7723 264.473 87.7347C256.133 83.2264 247.585 79.6573 240.034 76.9147C240.034 76.9523 240.034 76.9711 240.053 77.0087C227.035 72.2937 216.985 70.0583 216.046 69.8705C216.046 69.8705 216.046 69.8329 216.027 69.8329H216.008V69.8141C215.651 69.7202 204.925 66.8837 187.812 67.6914C193.542 74.0782 197.844 81.3667 199.778 89.6508C199.778 89.6508 199.778 89.7071 199.816 89.7259C200.849 89.9513 210.786 92.1491 223.635 96.8078C229.721 99.0056 236.465 101.767 243.227 105.111C250.478 108.698 257.767 112.981 264.285 118.016C265.074 107.139 265.055 97.052 264.492 87.8474H264.473ZM215.971 69.8705L215.839 69.9832C215.839 69.9832 215.952 69.8892 215.971 69.8705Z" fill="#FFFFFF"></path>
<path d="M260.785 59.6355C260.785 59.6355 260.785 59.5792 260.766 59.5416C245.438 53.5493 232.889 50.7691 231.875 50.5625C231.875 50.5813 231.894 50.6001 231.913 50.6564C232.495 51.8774 236.872 61.2698 240.028 76.9175C247.579 79.6413 256.107 83.2291 264.466 87.7375C263.809 77.1241 262.438 67.713 260.785 59.6543V59.6355Z" fill="#FFFFFF"></path>
<path d="M250.759 27.4562V27.4186H250.778H250.74V27.381V27.3998C250.252 27.2683 237.009 23.7744 215.406 23.9434C223.352 31.3634 229.476 40.1547 231.88 50.505V50.5614C232.895 50.7868 245.443 53.5482 260.771 59.5405C256.695 39.5535 251.041 27.9822 250.778 27.4374L250.759 27.4562ZM250.665 27.5125L250.459 27.6816C250.552 27.5877 250.628 27.5313 250.665 27.4938V27.5125Z" fill="#FFFFFF"></path>
<path d="M160.946 132.188C160.946 132.188 160.926 132.187 160.906 132.227L160.946 132.188Z" fill="#FFFFFF"></path>
<path d="M215.387 23.9563C215.387 23.9563 215.293 23.9563 215.237 23.9563C204.511 24.0502 191.737 25.027 177.461 27.7696C166.021 29.9674 153.623 33.2735 140.492 38.1388C131.945 41.3134 123.079 45.1642 114.006 49.7853C106.21 53.7676 98.2454 58.3136 90.1492 63.5169C76.3236 72.4209 62.1599 83.2409 47.9023 96.3714C0.809016 139.727 -5.23967 177.822 3.21346 207.521L30.1695 193.639C24.5529 170.008 30.564 140.196 67.2318 106.459C83.4994 91.5062 99.5791 80.2353 114.964 71.7822C123.624 67.0297 132.058 63.16 140.173 60.0417C150.016 56.2472 159.39 53.5422 168.106 51.6638C181.819 48.6958 193.972 47.719 203.891 47.7002C220.609 47.6626 230.941 50.2925 231.748 50.4991C231.748 50.4991 231.786 50.4991 231.805 50.4991H231.842C229.438 40.1675 223.314 31.3575 215.368 23.9375L215.387 23.9563Z" fill="#FFFFFF"></path>
<path d="M185.688 105.774L185.727 105.734C185.727 105.734 185.707 105.734 185.688 105.774Z" fill="#FFFFFF"></path>
<path d="M206.702 111.788C206.364 111.675 206.026 111.543 205.707 111.431C202.006 110.172 198.662 109.139 195.788 108.312L189.251 116.165L181.906 124.975C182.564 125.162 183.24 125.369 183.954 125.576C183.973 125.576 184.01 125.576 184.029 125.594C184.649 125.782 185.269 125.97 185.926 126.177C186.114 126.233 186.302 126.289 186.49 126.346C187.016 126.515 187.542 126.684 188.086 126.853C188.293 126.928 188.5 126.985 188.706 127.06C189.42 127.285 190.153 127.529 190.904 127.792C190.904 127.792 190.923 127.792 190.942 127.792C195.657 129.389 200.935 131.343 206.42 133.709H206.439C207.792 122.288 206.721 111.788 206.721 111.788H206.702Z" fill="#FFFFFF"></path>
<path d="M185.763 105.719C185.763 105.719 185.725 105.757 185.688 105.795L185.725 105.757H185.763V105.719Z" fill="#FFFFFF"></path>
<path d="M183.938 125.547C183.938 125.547 183.994 125.547 184.013 125.566C183.994 125.566 183.956 125.566 183.938 125.547Z" fill="#FFFFFF"></path>
<path d="M185.763 105.734C185.763 105.734 185.725 105.772 185.688 105.81C185.688 105.81 185.744 105.753 185.763 105.734Z" fill="#FFFFFF"></path>
<path d="M185.763 105.734C185.763 105.734 185.725 105.772 185.688 105.81L185.725 105.772H185.763V105.734Z" fill="#FFFFFF"></path>
<path d="M184.938 125.906C185.257 126 185.557 126.094 185.877 126.188C185.557 126.094 185.238 126 184.938 125.906Z" fill="#FFFFFF"></path>
<path d="M185.744 105.753L185.763 105.734L185.744 105.753L185.688 105.791L185.744 105.753Z" fill="#FFFFFF"></path>
<path d="M139.576 161.203C139.576 161.203 139.538 161.241 139.5 161.279L139.538 161.241H139.576V161.203Z" fill="#FFFFFF"></path>
<path d="M76.4828 165.467C76.4828 165.223 76.5016 164.979 76.5204 164.716C76.5392 164.396 76.558 164.077 76.5768 163.739C76.5956 163.495 76.6143 163.232 76.6519 162.969C76.6895 162.649 76.727 162.311 76.7646 161.992C76.8022 161.729 76.8398 161.466 76.8773 161.203C76.9337 160.884 76.9712 160.545 77.0276 160.226C77.0652 159.963 77.1215 159.7 77.1779 159.418C77.2342 159.08 77.3094 158.761 77.3845 158.423C77.4409 158.16 77.4972 157.878 77.5724 157.596C77.6475 157.258 77.7414 156.939 77.8166 156.601C77.8917 156.319 77.9668 156.056 78.042 155.774C78.1359 155.436 78.2298 155.098 78.3425 154.76C78.4365 154.478 78.5116 154.196 78.6055 153.914C78.7182 153.576 78.8309 153.238 78.9436 152.9C79.0376 152.618 79.1503 152.318 79.263 152.036C79.3945 151.698 79.526 151.36 79.6575 151.003C79.7702 150.721 79.8829 150.42 80.0144 150.139C80.1646 149.801 80.3149 149.444 80.4652 149.105C80.5967 148.805 80.7282 148.523 80.8597 148.223C81.0287 147.866 81.1978 147.528 81.3669 147.171C81.5171 146.87 81.6674 146.57 81.8177 146.269C82.0056 145.912 82.1934 145.555 82.3812 145.217C82.5503 144.916 82.7006 144.616 82.8696 144.315C83.0763 143.958 83.2829 143.602 83.4895 143.245C83.6774 142.944 83.8465 142.644 84.0343 142.324C84.2597 141.967 84.4851 141.592 84.7293 141.235C84.9172 140.934 85.1238 140.615 85.3304 140.314C85.5747 139.957 85.8376 139.582 86.0818 139.225C86.2885 138.905 86.5139 138.605 86.7205 138.285C86.9835 137.91 87.2653 137.534 87.547 137.177C87.7725 136.858 87.9979 136.557 88.2421 136.238C88.5239 135.862 88.8432 135.487 89.1437 135.092C89.3879 134.773 89.6321 134.472 89.8763 134.153C90.1957 133.758 90.5338 133.383 90.8532 132.988C91.1161 132.688 91.3603 132.368 91.6421 132.068C91.999 131.673 92.3559 131.26 92.7128 130.866C92.9758 130.565 93.2388 130.264 93.5206 129.964C93.9151 129.532 94.3283 129.1 94.7416 128.686C95.0046 128.405 95.2676 128.123 95.5493 127.841C96.019 127.372 96.5074 126.883 96.9958 126.395C97.24 126.151 97.4654 125.925 97.7096 125.681C98.4422 124.967 99.2124 124.235 100.001 123.521C100.941 122.657 101.899 121.811 102.838 120.985C103.176 120.684 103.533 120.384 103.871 120.083C104.585 119.463 105.28 118.881 105.994 118.28C106.632 117.754 107.271 117.228 107.91 116.721C123.445 104.172 138.491 96.884 151.772 92.7889C161.427 89.8021 170.143 88.506 177.413 88.0927C172.811 81.8938 166.856 76.465 160.263 71.75C152.091 73.7788 143.319 76.7092 134.114 80.823C121.003 86.7026 107.064 95.0055 92.8256 106.671C91.999 107.347 91.1725 108.042 90.346 108.737C89.9515 109.075 89.5382 109.413 89.1437 109.77C88.5239 110.296 87.9227 110.822 87.3028 111.367C86.9647 111.668 86.6078 111.968 86.2697 112.287C85.3117 113.133 84.3724 113.978 83.4144 114.861C83.4144 114.861 83.4144 114.861 83.3956 114.88C60.0274 136.388 52.1191 155.906 52.0627 172.568C52.0251 186.187 57.2661 197.889 63.6341 207.15C63.8032 207.413 63.991 207.657 64.1601 207.92C65.7568 210.212 67.4286 212.335 69.1004 214.307C69.664 214.965 70.2087 215.603 70.7535 216.223C71.4861 217.05 72.2187 217.858 72.9325 218.609C73.2894 218.985 73.6464 219.36 74.0033 219.736C74.548 220.3 75.0928 220.844 75.6187 221.37L92.1305 201.571C92.1305 201.571 91.9615 201.402 91.8863 201.308C91.7924 201.196 91.6797 201.083 91.5858 200.97C91.4167 200.782 91.2476 200.613 91.0786 200.425C90.9659 200.313 90.8719 200.2 90.7592 200.068C90.5902 199.881 90.4211 199.693 90.252 199.505C90.1393 199.392 90.0454 199.261 89.9327 199.129C89.7636 198.941 89.5946 198.735 89.4255 198.528C89.3128 198.397 89.2189 198.284 89.1062 198.152C88.9371 197.946 88.7681 197.739 88.599 197.533C88.5051 197.401 88.3924 197.288 88.2984 197.157C88.1294 196.95 87.9603 196.725 87.7913 196.518C87.6973 196.387 87.5846 196.255 87.4907 196.124C87.3216 195.898 87.1526 195.673 86.9835 195.447C86.8896 195.316 86.7769 195.184 86.683 195.053C86.5139 194.827 86.3448 194.583 86.157 194.339C86.0631 194.208 85.9691 194.076 85.8752 193.945C85.7061 193.7 85.5371 193.456 85.368 193.212C85.2741 193.081 85.1802 192.949 85.0862 192.818C84.9172 192.555 84.7481 192.31 84.5603 192.047C84.4664 191.916 84.3912 191.784 84.2973 191.653C84.1282 191.39 83.9592 191.108 83.7713 190.845C83.6962 190.714 83.6023 190.582 83.5271 190.469C83.3581 190.188 83.1702 189.887 83.0011 189.605C82.926 189.493 82.8509 189.361 82.7945 189.248C82.6067 188.929 82.4376 188.61 82.2498 188.29C82.1934 188.196 82.137 188.084 82.0807 187.99C81.8928 187.633 81.705 187.276 81.5172 186.919C81.4796 186.844 81.442 186.769 81.4044 186.694C81.179 186.262 80.9724 185.83 80.7658 185.398C80.7658 185.398 80.7658 185.398 80.7658 185.379C80.1271 184.026 79.526 182.617 79 181.171C78.9812 181.115 78.9624 181.058 78.9436 181.002C78.7934 180.589 78.6431 180.157 78.5116 179.725C78.474 179.612 78.4365 179.48 78.3989 179.368C78.2862 178.992 78.1735 178.635 78.0608 178.259C78.0232 178.109 77.9856 177.959 77.9293 177.809C77.8353 177.47 77.7414 177.114 77.6475 176.757C77.6099 176.588 77.5724 176.418 77.5348 176.249C77.4596 175.911 77.3845 175.573 77.3094 175.235C77.2718 175.047 77.2342 174.859 77.1967 174.671C77.1403 174.352 77.0652 174.014 77.0088 173.676C76.9712 173.469 76.9525 173.263 76.9149 173.075C76.8585 172.755 76.821 172.417 76.7646 172.098C76.7458 171.891 76.7083 171.666 76.6895 171.459C76.6519 171.14 76.6143 170.821 76.5955 170.483C76.5768 170.257 76.558 170.032 76.5392 169.806C76.5204 169.487 76.5016 169.168 76.4828 168.848C76.4828 168.623 76.4828 168.379 76.4641 168.153C76.4641 167.834 76.4641 167.515 76.4641 167.176C76.4641 166.932 76.4641 166.688 76.4641 166.463C76.4641 166.143 76.4641 165.824 76.4828 165.486V165.467Z" fill="#FFFFFF"></path>
<path d="M206.708 111.781C206.708 111.781 207.797 122.282 206.426 133.703H206.407C206.407 133.703 206.407 133.722 206.426 133.722C205.58 145.932 202.594 160.189 195.737 175.818C195.418 176.532 195.099 177.246 194.779 177.96C194.742 178.054 194.704 178.129 194.666 178.223C194.385 178.861 194.084 179.481 193.784 180.12C193.708 180.27 193.652 180.402 193.577 180.552C193.295 181.134 193.013 181.717 192.732 182.28C192.638 182.468 192.544 182.637 192.45 182.825C192.187 183.37 191.905 183.896 191.623 184.441C191.511 184.666 191.398 184.873 191.285 185.098C191.022 185.605 190.74 186.112 190.478 186.638C190.346 186.883 190.215 187.127 190.083 187.371C189.82 187.859 189.538 188.367 189.256 188.874C189.125 189.118 188.975 189.381 188.843 189.625C188.543 190.151 188.242 190.677 187.942 191.184C187.81 191.41 187.679 191.635 187.547 191.861C187.115 192.612 186.664 193.363 186.213 194.115C181.705 201.535 177.009 207.358 172.219 211.866V238.278C172.707 237.921 173.214 237.564 173.703 237.169C173.834 237.057 173.966 236.963 174.116 236.85C174.51 236.549 174.905 236.23 175.281 235.911C175.393 235.817 175.525 235.723 175.638 235.629C176.126 235.216 176.614 234.802 177.122 234.37C177.197 234.295 177.291 234.22 177.366 234.145C177.779 233.788 178.192 233.412 178.606 233.037C178.737 232.905 178.887 232.774 179.019 232.661C179.432 232.266 179.845 231.872 180.259 231.478C180.334 231.402 180.409 231.327 180.503 231.252C180.991 230.782 181.48 230.294 181.968 229.787C182.081 229.674 182.212 229.543 182.325 229.411C182.701 229.017 183.095 228.603 183.471 228.209C183.602 228.059 183.734 227.927 183.865 227.777C184.842 226.725 185.819 225.617 186.777 224.471C186.908 224.321 187.04 224.151 187.171 224.001C187.547 223.55 187.923 223.081 188.317 222.611C188.43 222.461 188.543 222.329 188.655 222.179C189.144 221.578 189.613 220.958 190.083 220.338C190.158 220.225 190.252 220.113 190.327 220.019C190.722 219.493 191.116 218.948 191.529 218.422C191.661 218.234 191.811 218.046 191.943 217.859C192.337 217.314 192.732 216.75 193.126 216.187C193.201 216.074 193.295 215.943 193.37 215.83C193.84 215.154 194.31 214.459 194.779 213.764C194.892 213.594 195.023 213.407 195.136 213.238C195.493 212.693 195.869 212.129 196.226 211.566C196.357 211.359 196.489 211.152 196.62 210.946C197.09 210.213 197.541 209.462 198.01 208.71C198.818 207.358 199.607 206.024 200.377 204.69C200.584 204.334 200.79 203.977 200.978 203.639C201.692 202.38 202.406 201.103 203.101 199.844C203.289 199.506 203.458 199.168 203.646 198.83C204.134 197.909 204.622 196.989 205.092 196.068C205.374 195.524 205.656 194.979 205.937 194.434C206.388 193.551 206.82 192.668 207.252 191.785C207.666 190.94 208.079 190.095 208.473 189.249C208.717 188.742 208.943 188.235 209.187 187.728C209.525 186.995 209.863 186.281 210.183 185.549C217.152 169.939 221.209 155.362 223.332 142.156C223.426 141.517 223.52 140.898 223.614 140.278C224.722 132.783 225.21 125.738 225.267 119.239C218.749 116.233 212.399 113.772 206.745 111.819L206.708 111.781Z" fill="#FFFFFF"></path>
<path d="M148.394 273.024V224.653C139.828 226.325 131.657 225.217 124.594 223V274.151C132.164 274.996 140.185 274.808 148.394 273.043V273.024Z" fill="#FFFFFF"></path>
<path d="M256.456 139.192C252.211 135.247 247.439 131.678 242.424 128.484C241.672 136.092 240.433 144.132 238.535 152.566C233.745 173.831 224.823 197.556 209.475 222.878C208.931 223.779 208.367 224.662 207.822 225.545C207.653 225.808 207.503 226.052 207.334 226.296C206.94 226.916 206.526 227.536 206.132 228.156C205.963 228.419 205.775 228.701 205.606 228.964C205.155 229.64 204.723 230.298 204.272 230.936C204.159 231.105 204.047 231.274 203.934 231.443C203.389 232.232 202.844 233.021 202.281 233.792C202.112 234.036 201.943 234.261 201.774 234.487C201.379 235.031 200.985 235.557 200.59 236.083C200.384 236.365 200.177 236.628 199.97 236.91C199.595 237.417 199.2 237.905 198.825 238.394C198.637 238.638 198.449 238.882 198.261 239.108C197.716 239.803 197.171 240.479 196.627 241.136C196.476 241.324 196.307 241.512 196.157 241.7C195.744 242.188 195.331 242.677 194.936 243.165C194.711 243.428 194.485 243.672 194.279 243.935C193.922 244.349 193.565 244.762 193.189 245.156C192.964 245.4 192.757 245.645 192.532 245.889C192.081 246.377 191.649 246.866 191.198 247.335C191.01 247.542 190.822 247.73 190.634 247.936C190.146 248.444 189.658 248.951 189.188 249.439C188.963 249.665 188.737 249.89 188.512 250.115C188.155 250.472 187.798 250.81 187.46 251.149C187.216 251.374 186.99 251.599 186.746 251.825C186.37 252.182 185.995 252.539 185.6 252.896C185.412 253.083 185.206 253.271 184.999 253.44C184.454 253.929 183.909 254.417 183.365 254.906C183.158 255.093 182.933 255.262 182.726 255.45C182.35 255.77 181.993 256.07 181.618 256.371C181.373 256.577 181.129 256.765 180.885 256.972C180.528 257.272 180.171 257.554 179.814 257.836C179.589 258.005 179.364 258.193 179.138 258.362C178.593 258.794 178.03 259.207 177.485 259.602C177.316 259.733 177.128 259.865 176.959 259.977C176.546 260.278 176.151 260.56 175.738 260.842C175.494 261.011 175.268 261.161 175.024 261.33C174.667 261.574 174.31 261.818 173.954 262.063C173.728 262.213 173.484 262.363 173.258 262.513C172.826 262.795 172.394 263.077 171.962 263.34C171.793 263.434 171.643 263.547 171.474 263.64C170.929 263.979 170.384 264.298 169.858 264.598C169.633 264.73 169.408 264.843 169.201 264.974C168.825 265.181 168.468 265.387 168.093 265.594C167.867 265.726 167.623 265.857 167.398 265.97C167.003 266.176 166.627 266.383 166.233 266.571C166.045 266.665 165.839 266.778 165.651 266.871C165.087 267.153 164.542 267.416 163.979 267.679C163.791 267.773 163.584 267.867 163.397 267.942C163.002 268.111 162.626 268.299 162.232 268.468C162.006 268.562 161.762 268.675 161.537 268.769C161.18 268.919 160.804 269.069 160.447 269.22C160.222 269.313 160.015 269.407 159.79 269.483C159.264 269.689 158.719 269.896 158.193 270.102C158.005 270.178 157.836 270.234 157.648 270.309C157.235 270.459 156.822 270.61 156.427 270.741C156.183 270.816 155.939 270.91 155.695 270.985C155.357 271.098 155.019 271.211 154.68 271.305C154.436 271.38 154.192 271.455 153.948 271.53C153.572 271.643 153.215 271.755 152.839 271.849C152.577 271.925 152.332 272 152.069 272.056C151.6 272.188 151.13 272.3 150.66 272.432C150.397 272.507 150.134 272.563 149.853 272.62C149.552 272.695 149.27 272.751 148.97 272.826C148.82 272.864 148.669 272.883 148.519 272.92C140.291 274.686 132.289 274.874 124.719 274.028V303.408C127.969 303.577 131.293 303.558 134.656 303.37C134.75 303.37 134.844 303.37 134.956 303.37C135.952 303.314 136.966 303.22 137.981 303.126C138.131 303.126 138.281 303.088 138.45 303.088C140.085 302.919 141.738 302.713 143.391 302.45C143.673 302.412 143.936 302.356 144.217 302.318C145.025 302.187 145.852 302.036 146.659 301.867C146.96 301.811 147.279 301.736 147.58 301.68C147.899 301.604 148.218 301.548 148.538 301.492C149.346 301.323 150.134 301.116 150.942 300.909C150.961 300.909 150.98 300.909 150.999 300.909C152.126 300.628 153.272 300.308 154.417 299.97C154.455 299.97 154.493 299.951 154.53 299.933C156.897 299.238 159.264 298.411 161.631 297.491C161.706 297.453 161.781 297.434 161.856 297.397C162.401 297.19 162.946 296.965 163.49 296.739C163.603 296.683 163.716 296.645 163.829 296.589C165.538 295.856 167.266 295.067 168.994 294.222C169.051 294.184 169.107 294.166 169.182 294.128C169.689 293.865 170.215 293.602 170.723 293.339C170.892 293.245 171.061 293.17 171.23 293.076C171.737 292.813 172.244 292.531 172.751 292.25C172.883 292.174 172.996 292.118 173.127 292.043C174.761 291.141 176.377 290.165 178.011 289.131C178.199 289.019 178.387 288.887 178.575 288.774C179.044 288.474 179.533 288.155 180.002 287.835C180.209 287.704 180.397 287.572 180.603 287.422C182.181 286.351 183.74 285.224 185.299 284.041C185.487 283.89 185.675 283.759 185.863 283.609C186.314 283.252 186.783 282.895 187.234 282.538C187.46 282.35 187.704 282.162 187.929 281.974C188.38 281.617 188.831 281.242 189.282 280.866C189.488 280.697 189.695 280.528 189.902 280.359C190.841 279.57 191.78 278.743 192.719 277.898C192.851 277.785 192.982 277.673 193.114 277.56C193.546 277.165 193.997 276.752 194.429 276.339C194.673 276.095 194.936 275.869 195.18 275.625C195.612 275.212 196.026 274.817 196.458 274.404C196.721 274.16 196.984 273.897 197.228 273.634C197.66 273.202 198.092 272.789 198.524 272.357C198.637 272.244 198.749 272.112 198.881 272C199.764 271.079 200.665 270.159 201.548 269.182C201.83 268.881 202.093 268.6 202.375 268.299C202.769 267.867 203.183 267.416 203.577 266.965C203.859 266.646 204.141 266.327 204.441 265.989C204.836 265.538 205.23 265.087 205.625 264.617C205.925 264.279 206.207 263.922 206.507 263.584C207.184 262.776 207.86 261.969 208.517 261.142C208.837 260.748 209.156 260.353 209.475 259.959C209.851 259.489 210.208 259.019 210.584 258.531C210.903 258.118 211.204 257.723 211.523 257.31C211.88 256.822 212.256 256.352 212.612 255.864C212.932 255.432 213.27 254.981 213.589 254.53C213.927 254.06 214.284 253.591 214.622 253.102C215.224 252.257 215.843 251.393 216.445 250.529C216.764 250.059 217.083 249.589 217.403 249.12C217.76 248.594 218.116 248.068 218.455 247.542C218.793 247.054 219.112 246.546 219.45 246.039C219.807 245.494 220.145 244.95 220.502 244.405C220.821 243.917 221.141 243.409 221.46 242.921C221.892 242.226 222.324 241.512 222.756 240.817C222.963 240.498 223.151 240.178 223.357 239.84C238.103 215.514 248.022 192.409 254.484 170.975C257.32 161.545 259.499 152.454 261.115 143.719C259.706 142.141 258.184 140.638 256.606 139.173L256.456 139.192Z" fill="#FFFFFF"></path>
<path d="M99 239.641C99 239.641 99 239.641 99.0188 239.641C99.5823 239.96 100.165 240.279 100.766 240.599" fill="#FFFFFF"></path>
<path d="M100.794 240.579C112.553 246.891 129.816 253.015 148.394 249.145V224.631C131.037 228.031 115.314 219.935 107.18 214.562L90.6875 234.343C92.1339 235.357 93.8245 236.503 95.7782 237.686C96.7925 238.306 97.8821 238.945 99.0091 239.584" fill="#FFFFFF"></path>
<path d="M185.834 105.746C185.834 105.746 185.816 105.69 185.797 105.671C185.628 105.615 180.913 104.394 173.192 104.375L149.467 132.815L113.156 176.358C116.293 180.603 119.862 183.365 120.802 184.304C120.802 184.304 123.751 186.915 128.372 189.113L174.62 133.642L181.852 124.963L189.197 116.153L195.734 108.301C190.155 106.686 186.435 105.859 185.834 105.728V105.746ZM185.778 105.69H185.74L185.703 105.746C185.74 105.709 185.759 105.69 185.778 105.671V105.69Z" fill="#FFFFFF"></path>
</svg>