<svg width="318" height="400" viewBox="0 0 318 400" fill="none" xmlns="http://www.w3.org/2000/svg">
<path d="M36.877 232.95C24.9701 225.766 13.7904 217.541 3.47334 208.385C1.84967 206.944 -0.636577 208.618 0.149888 210.624C12.023 240.775 32.7079 266.597 59.0925 285.027C60.3018 285.876 61.7563 284.361 60.843 283.212C49.6887 269.103 42.137 252.82 38.6444 235.447C38.433 234.407 37.7987 233.499 36.8854 232.95H36.877Z" fill="#FFFFFF"></path>
<path d="M276.644 235.448C272.918 252.814 264.862 269.097 252.962 283.207C251.988 284.364 253.54 285.871 254.83 285.03C282.977 266.591 305.035 240.776 317.701 210.624C318.54 208.618 315.888 206.944 314.156 208.385C303.15 217.533 291.214 225.767 278.521 232.951C277.537 233.509 276.861 234.408 276.644 235.448Z" fill="#FFFFFF"></path>
<path d="M169.977 331.72C170.227 330.862 169.52 330.03 168.615 330.098C165.409 330.344 162.185 330.471 158.935 330.471C155.685 330.471 152.461 330.344 149.254 330.098C148.349 330.03 147.642 330.854 147.892 331.712C149.806 338.261 151.185 350.238 142.065 362.767C130.264 378.975 151.582 394.953 157.487 398.928C158.366 399.523 159.512 399.523 160.392 398.928C166.296 394.953 187.614 378.975 175.813 362.767C166.693 350.238 168.072 338.269 169.986 331.712L169.977 331.72Z" fill="#FFFFFF"></path>
<path d="M118.077 259.604L125.408 246.061C126.613 243.833 126.613 241.108 125.408 238.881L110.586 211.5C109.365 209.237 107.081 207.844 104.604 207.844H74.8763C72.399 207.844 70.1155 209.237 68.8937 211.5L57.9481 231.736C57.0971 233.307 56.8106 235.153 57.2066 236.91C60.2232 250.41 65.6328 262.941 72.9298 273.991C74.219 275.953 76.3424 277.124 78.6006 277.124H104.604C107.081 277.124 109.365 275.731 110.586 273.468L118.077 259.631V259.604Z" fill="#BDBDBD"></path>
<path d="M173.771 154.859C176.277 154.859 178.59 153.453 179.826 151.187L187.269 137.538L194.754 123.819C195.973 121.589 195.973 118.848 194.754 116.609L179.826 89.2494C178.59 86.9746 176.277 85.5781 173.771 85.5781H144.21C141.704 85.5781 139.391 86.9834 138.155 89.2494L123.227 116.609C122.008 118.839 122.008 121.58 123.227 123.819L130.712 137.53L138.163 151.178C139.399 153.453 141.712 154.85 144.218 154.85H173.779L173.771 154.859Z" fill="#BDBDBD"></path>
<path d="M179.896 232.726L194.768 205.316C195.968 203.097 195.968 200.38 194.768 198.161L187.408 184.598L179.888 170.742C178.662 168.487 176.381 167.094 173.913 167.094H144.067C141.6 167.094 139.318 168.487 138.093 170.742L130.573 184.598L123.212 198.161C122.013 200.38 122.013 203.097 123.212 205.316L138.085 232.726C139.31 234.981 141.592 236.374 144.059 236.374H173.905C176.372 236.374 178.654 234.981 179.879 232.726H179.896Z" fill="#BDBDBD"></path>
<path d="M189.864 80.7997L208.492 111.534C209.452 113.122 211.239 114.1 213.185 114.1H237.742C239.839 114.1 241.137 111.952 240.062 110.255L191.223 33.5238C190.139 31.8187 187.348 32.6211 187.473 34.6104C188.37 48.3352 188.913 62.7202 188.984 77.6987C188.984 78.7853 189.295 79.8636 189.864 80.8081V80.7997Z" fill="#FFFFFF"></path>
<path d="M242.975 207.844H213.231C210.762 207.844 208.478 209.237 207.257 211.5L192.435 238.898C191.23 241.117 191.23 243.851 192.435 246.07L199.766 259.622L207.257 273.468C208.478 275.731 210.762 277.124 213.231 277.124H239.251C241.509 277.124 243.624 275.953 244.913 274C252.21 262.95 257.62 250.418 260.636 236.91C261.032 235.162 260.746 233.316 259.895 231.745L248.941 211.5C247.719 209.237 245.436 207.844 242.967 207.844H242.975Z" fill="#BDBDBD"></path>
<path d="M214.257 126.337C211.687 126.337 209.317 127.73 208.049 130.002L200.277 143.839L192.469 157.747C191.219 159.974 191.219 162.699 192.469 164.927L200.277 178.834L207.638 191.943C208.906 194.206 211.276 195.609 213.846 195.609H245.514C248.085 195.609 250.454 194.215 251.722 191.943L259.084 178.834L263.936 170.19C264.74 168.752 265.064 167.083 264.793 165.45C263.508 157.711 261.418 150.247 258.62 143.156C258.489 142.827 258.34 142.508 258.166 142.197L251.311 129.994C250.043 127.73 247.674 126.328 245.103 126.328H214.257V126.337Z" fill="#BDBDBD"></path>
<path d="M104.796 289.359H85.625C96.1477 298.092 108.573 305.065 122.303 309.736L111.284 292.684C109.951 290.624 107.479 289.359 104.796 289.359Z" fill="#BDBDBD"></path>
<path d="M206.644 292.684L195.625 309.736C209.346 305.057 221.771 298.092 232.303 289.359H213.132C210.449 289.359 207.977 290.632 206.644 292.684Z" fill="#BDBDBD"></path>
<path d="M109.393 111.542L128.021 80.8081C128.59 79.8636 128.892 78.7853 128.901 77.6987C128.972 62.7202 129.514 48.3352 130.412 34.6104C130.545 32.6211 127.755 31.8187 126.661 33.5238L77.8238 110.255C76.7484 111.944 78.046 114.1 80.1434 114.1H104.7C106.638 114.1 108.433 113.122 109.393 111.534V111.542Z" fill="#FFFFFF"></path>
<path d="M58.8027 178.841L66.1636 191.943C67.44 194.206 69.8091 195.609 72.3793 195.609H104.035C106.605 195.609 108.974 194.206 110.25 191.943L117.611 178.841L125.418 164.932C126.668 162.704 126.668 159.97 125.418 157.742L117.611 143.832L109.84 129.994C108.563 127.731 106.194 126.328 103.624 126.328H72.7902C70.22 126.328 67.8509 127.731 66.5745 129.994L59.7469 142.155C59.572 142.465 59.4234 142.776 59.2923 143.105C56.4773 150.215 54.3792 157.689 53.0941 165.438C52.823 167.071 53.1465 168.749 53.9508 170.187L58.8027 178.832V178.841Z" fill="#BDBDBD"></path>
<path d="M175.17 70.2722L161.528 2.07562C160.978 -0.691874 156.866 -0.691874 156.307 2.07562L142.674 70.2466C142.355 71.8439 143.623 73.3301 145.316 73.3301L172.528 73.3558C174.221 73.3558 175.498 71.8695 175.178 70.2722H175.17Z" fill="#FFFFFF"></path>
<path d="M186.713 265.461L179.086 251.985C177.899 249.885 175.703 248.594 173.336 248.594H140.479C138.103 248.594 135.916 249.885 134.728 251.985L127.101 265.461L119.078 279.632C117.891 281.732 117.891 284.315 119.078 286.414L134.091 312.954C135.09 314.72 136.82 315.915 138.783 316.266C144.662 317.321 150.722 317.874 156.903 317.874C163.084 317.874 169.144 317.321 175.023 316.266C176.995 315.915 178.716 314.72 179.715 312.954L194.728 286.414C195.916 284.315 195.916 281.732 194.728 279.632L186.713 265.461Z" fill="#BDBDBD"></path>
</svg>