<svg width="219" height="284" viewBox="0 0 219 284" fill="none" xmlns="http://www.w3.org/2000/svg">
<path d="M218.127 189.048L163.594 220.557V157.54L218.127 126.031V189.048Z" fill="#FFFFFF"></path>
<path d="M109.031 189.048L163.573 220.557V157.54L109.031 126.031V189.048Z" fill="#BDBDBD"></path>
<path d="M163.573 157.548L218.106 126.04L163.573 94.5312L109.031 126.04L163.573 157.548Z" fill="#E2E2E2"></path>
<path d="M163.573 94.5102L109.031 126.019V62.9929L163.573 31.4844V94.5102Z" fill="#FFFFFF"></path>
<path d="M54.5 94.5102L109.033 126.019V62.9929L54.5 31.4844V94.5102Z" fill="#BDBDBD"></path>
<path d="M109.033 63.0171L163.575 31.5085L109.033 0L54.5 31.5085L109.033 63.0171Z" fill="#E2E2E2"></path>
<path d="M109.033 126.057L54.5 157.566V94.5485L109.033 63.0312V126.057Z" fill="#FFFFFF"></path>
<path d="M0 126.057L54.5417 157.566V94.5485L0 63.0312L0 126.057Z" fill="#BDBDBD"></path>
<path d="M163.573 157.548L109.031 189.057V126.04L163.573 94.5312V157.548Z" fill="#FFFFFF"></path>
<path d="M54.5 157.548L109.033 189.057V126.04L54.5 94.5312V157.548Z" fill="#BDBDBD"></path>
<path d="M109.033 252.073L54.5 283.581V220.555L109.033 189.047V252.073Z" fill="#FFFFFF"></path>
<path d="M0 252.073L54.5417 283.581V220.555L0 189.047L0 252.073Z" fill="#BDBDBD"></path>
<path d="M54.533 220.564L109.075 189.055L54.5417 157.547L0 189.055L54.533 220.564Z" fill="#E2E2E2"></path>
<path d="M109.033 189.048L54.5 220.557V157.54L109.033 126.031V189.048Z" fill="#FFFFFF"></path>
<path d="M0 189.048L54.5417 220.557V157.54L0 126.031L0 189.048Z" fill="#BDBDBD"></path>
<path d="M54.533 157.548L109.075 126.04L54.5417 94.5312L0 126.04L54.533 157.548Z" fill="#E2E2E2"></path>
<path d="M54.5417 94.5102L109.075 62.9929L54.5417 31.4844L0 62.9929L54.5417 94.5102Z" fill="#E2E2E2"></path>
<path d="M109.033 126.057L163.575 94.5485L109.033 63.0312L54.5 94.5485L109.033 126.057Z" fill="#E2E2E2"></path>
</svg>