<svg width="510" height="221" viewBox="0 0 510 221" fill="none" xmlns="http://www.w3.org/2000/svg">
<path d="M492.025 20.2344L452.887 26.0346C414.469 12.2733 403.352 32.555 403.352 32.555C395.858 23.8548 391.267 20.2344 391.267 20.2344C385.462 27.4751 397.073 53.5571 397.073 53.5571C405.875 53.0074 387.606 138.001 343.763 176.214C334.581 184.213 323.634 176.991 316.311 169.068C271.425 120.6 237.238 81.4018 220.24 62.6175C212.613 54.2015 198.309 46.2973 178.445 50.0694C98.2342 65.3091 42.3822 139.271 0 215.887C113.487 120.373 176.624 87.4673 192.712 90.557C192.712 90.557 150.197 140.541 193.604 138.854C237.029 137.186 241.81 197.102 211.532 215.887C267.744 221.08 321.642 222.142 371.973 216.759C374.686 216.759 420.977 197.88 454.309 85.5529C463.017 81.3449 491.285 56.4572 491.285 56.4572L503.616 57.1774C521.013 43.4162 492.025 20.2344 492.025 20.2344V20.2344Z" fill="#FFFFFF"></path>
<path d="M306.481 68.465C325.404 68.465 340.744 53.1386 340.744 34.2325C340.744 15.3264 325.404 0 306.481 0C287.559 0 272.219 15.3264 272.219 34.2325C272.219 53.1386 287.559 68.465 306.481 68.465Z" fill="#BDBDBD"></path>
</svg>