<svg width="438" height="421" viewBox="0 0 438 421" fill="none" xmlns="http://www.w3.org/2000/svg">
<path d="M218.36 45.1992L219.2 45.5862C223.761 55.1883 232.701 80.9449 236.188 90.3622C238.646 97.0045 258.93 148.144 258.607 150.26C255.213 152.784 231.368 160.881 226.23 163.189C221.395 165.363 213.921 168.413 208.814 170.59C207.395 171.195 206.018 171.018 204.948 171.438L88.4753 217.528C85.0154 218.871 77.3508 222.862 74.4152 223.422L73.714 223.489C71.6964 221.807 70.7198 216.018 69.6607 213.435C64.0989 199.868 59.2667 185.939 53.9247 172.262C52.2159 167.886 51.0498 162.508 48.6764 158.603C46.7396 155.786 47.524 153.374 46.2986 151.177C42.6959 144.719 41.1599 138.008 38.409 131.231C36.9463 127.509 34.4612 122.618 33.6094 118.874C37.3499 116.632 42.5852 115.093 46.768 113.594C53.4868 111.186 59.9378 108.284 66.5322 105.676C75.9826 101.939 85.4693 98.2934 94.9904 94.7403C105.607 90.7073 116.949 85.7143 127.612 81.4303L176.67 62.2538C183.957 59.4653 190.772 56.8575 197.937 53.7443C204.497 50.8939 212.344 49.0793 218.36 45.1992Z" fill="white"></path>
<path d="M398.208 0L398.897 0.332493C399.004 1.19559 398.19 4.86383 398.071 6.29084C397.138 17.3107 394.465 28.9186 393.603 39.9348C393.221 44.7864 389.427 62.4741 390.178 66.3431C392.603 70.025 400.622 75.9441 404.446 78.6833C414.223 85.6877 423.074 93.6973 432.803 100.763C434.754 102.18 435.894 103.569 437.997 104.876C433.569 107.991 418.969 112.899 413.405 115.226C399.659 120.974 385.14 126.254 371.243 131.745L318.43 152.916L288.84 164.583C284.472 166.287 279.215 167.89 275.199 169.972C272.766 171.232 273.692 171.044 270.79 171.55C269.487 172.527 265.155 173.686 263.215 174.577C261.016 175.588 259.188 176.492 257.022 177.631C258.381 174.935 258.532 171 259.476 168.166C260.369 165.5 265.003 152.945 264.348 150.948C261.664 142.953 258.758 135.071 255.6 127.221C251.639 117.381 248.722 107.158 244.05 97.6036C243.484 96.4388 243.203 94.3512 242.721 92.9975L237.431 78.483C236.572 76.0837 232.533 68.1859 233.007 66.3079C235.832 65.3233 238.797 63.3283 241.722 62.3638C248.837 60.0185 255.523 56.8961 262.442 54.132L341.708 22.6308L383.5 6.32491C387.55 4.71129 395.117 2.54078 398.208 0Z" fill="white"></path>
<path d="M149.859 323.237C153.683 322.941 156.448 323.811 160.034 323.711C169.001 323.3 194.162 319.764 196.277 332.424C197.361 341.01 196.616 349.726 196.296 358.276C195.716 373.783 197.826 388.434 196.211 403.908C194.897 416.489 193.461 418.163 181.036 419.988C178.509 420.307 174.271 419.855 171.546 419.725C161.633 419.252 151.509 420.314 141.695 420.185C147.546 412.465 147.553 415.945 148.151 404.619C148.454 398.887 147.7 394.27 147.65 388.893L147.559 356.521C147.475 347.949 149.007 340.533 147.524 330.998C146.017 329.299 141.776 326.307 143.221 324.119C145.085 323.189 147.615 323.36 149.859 323.237ZM173.91 404.989C176.067 403.463 177.769 401.712 178.118 398.972C179.068 390.634 178.534 382.132 178.375 373.738C178.322 370.969 179.271 364.382 178.971 362.567C177.926 356.284 179.002 345.457 177.472 339.903C175.655 337.73 173.176 338.122 170.567 338.411C169.137 338.489 168.106 338.374 166.948 339.155C165.263 341.503 165.948 358.235 166.051 362.056C166.205 367.766 165.394 403.108 167.541 405.126C169.318 405.6 172.092 405.329 173.91 404.989Z" fill="white"></path>
<path d="M405.136 323.135C408.387 323.006 413.917 323.491 417.457 323.524C420.907 323.557 431.406 322.969 434.134 323.635L434.334 324.42C433.442 326.908 432.005 328.012 430.006 329.578C427.978 339.583 428.396 344.059 428.337 353.99C428.211 375.865 428.392 397.737 428.381 419.605C424.179 419.968 418.815 419.497 414.502 419.553C413.829 419.564 411.748 419.334 411.43 418.942C403.707 409.404 393.764 379.827 386.652 372.122C386.904 385.292 385.908 398.288 386.978 411.4C387.089 412.781 390.725 417.62 391.446 419.494C389.266 420.464 381.54 420.156 378.815 420.142C375.672 420.153 365.329 420.293 363.001 418.96C363.397 417.631 366.81 415.058 368.043 414.029C369.342 407.867 368.842 405.594 368.787 399.325C368.705 396.948 369.479 393.767 369.235 391.438C367.991 381.911 369.331 372.355 369.286 362.872C369.257 355.948 368.394 349.483 369.231 342.389C369.512 339.997 368.724 333.988 368.568 331.248C366.506 328.189 365.277 326.353 362.797 323.561C366.088 323.343 369.338 323.739 372.607 323.735C377.024 323.728 381.596 323.546 386.005 323.272C388.918 330.515 393.805 338.135 393.723 346.04C399.543 351.464 401.979 360.473 405.233 367.523C406.828 370.989 408.853 374.521 410.708 377.868C411.893 367.656 410.575 355.959 410.082 345.71C409.89 341.649 410.889 336.091 410.271 332.033C409.679 328.119 405.166 327.512 405.136 323.135Z" fill="white"></path>
<path d="M79.6747 246.512L79.9919 246.552C80.9404 247.889 80.5817 249.533 81.3021 251.185C83.484 256.179 85.1517 261.434 87.1719 266.517C88.4228 269.665 91.6487 275.778 92.1326 278.81C90.1272 280.754 78.242 284.542 74.918 286.079L74.3982 282.676C74.2376 282.502 73.6512 281.813 73.489 281.672C70.5752 279.173 69.0718 269.428 64.8138 269.279C63.0124 270.505 62.9143 272.853 63.8469 274.685C70.7044 288.137 78.5804 301.108 85.0585 314.734C86.1146 316.955 87.2656 319.069 88.4861 321.15C93.4975 329.703 92.7256 332.866 101.542 325.768C100.013 329.155 99.2104 330.233 96.7526 332.995C96.4894 333.606 95.3115 336.346 94.8924 336.516C89.5549 338.716 84.0082 339.771 78.5367 341.822C72.3584 337.779 64.1823 333.588 57.6349 329.411C53.0652 326.493 43.2343 320.236 38.6012 318.177C39.6278 312.127 35.1824 264.629 37.2367 263.781C50.5108 258.312 66.1191 251.321 79.6747 246.512Z" fill="white"></path>
<path d="M218.701 323.46C227.981 323.097 238.713 325.015 248.327 324.108C251.463 323.812 268.822 323.216 270.428 325.112C271.009 328.052 270.761 342.103 270.21 345.321C262.373 350.434 262.336 351.749 253.207 353.811C252.692 340.122 257.423 340.2 243.552 338.589C242.841 346.406 243.293 359.876 243.482 367.911C246.776 366.378 255.298 360.465 258.027 361.876C259.452 364.105 258.73 375.531 258.689 378.952C254.247 381.178 246.876 383.325 243.448 387.491C241.627 389.705 242.778 400.15 242.948 403.379C243.026 404.923 243.271 405.045 244.166 405.767C245.743 406.126 246.48 405.886 248.054 405.626C250.19 405.771 251.552 406.204 253.133 404.523C253.966 402.557 253.562 399.665 253.477 397.388C256.031 396.033 258.771 394.604 261.318 393.252C263.254 392.219 269.392 387.491 271.239 388.016C272.29 390.105 271.746 417.416 270.787 420.063C270.288 420.404 270.228 420.467 269.599 420.463L230.184 420.159C226.86 420.108 220.74 420.615 217.905 420.115C217.246 418.234 222.129 413.943 223.38 411.947C226.201 407.448 223.861 399.21 224.313 393.885C224.231 392.582 225.412 389.679 225.346 388.594C224.257 379.971 225.12 371.954 224.916 363.442C224.668 353.1 225.742 342.081 223.931 331.954C223.28 328.329 217.553 329.133 218.701 323.46Z" fill="white"></path>
<path d="M291.295 323.461C301.12 323.068 312.467 325.116 322.621 324.061C325.505 323.761 341.446 323.302 343.001 325.075C343.597 328.004 343.382 342.089 342.834 345.284C334.445 350.424 335.9 351.56 325.809 353.789C325.268 340.356 330.07 340.086 316.113 338.583C315.499 346.932 315.898 359.336 316.05 367.815C332.968 360.973 331.958 353.782 331.221 379.001C326.475 381.267 319.534 383.344 316.006 387.491C314.381 389.402 314.81 404.164 316.687 405.753C318.294 406.127 319.127 405.871 320.744 405.62C321.148 405.649 321.555 405.679 321.959 405.701C323.969 405.816 324.246 405.864 325.701 404.572C326.568 402.554 326.168 399.688 326.094 397.34C329.122 395.815 342.149 388.036 344.074 388.017C344.907 390.824 344.208 417.99 343.204 419.904C342.183 420.649 326.394 420.153 324.195 420.141L301.901 420.149C298.218 420.16 294.131 420.497 290.529 420.082L290.344 419.549C291.395 416.92 297.74 410.759 297.329 408.93C295.86 402.361 298.421 392.834 297.922 387.095C296.359 369.159 298.699 348.624 296.53 331.048C293.687 328.808 290.451 327.486 291.295 323.461Z" fill="white"></path>
<path d="M20.7059 367.703C23.3291 367.678 25.2889 369.04 27.6801 369.407C31.0067 369.914 33.9756 370.166 37.3145 370.921L57.649 375.453C63.2405 376.723 73.6619 379.4 78.8669 379.263C77.0948 384.162 77.0859 390.616 75.698 395.403C73.7926 401.979 73.3084 412.191 71.1387 418.271C69.3984 418.545 59.0462 418.637 57.3936 418.241C44.7154 418.504 32.0354 418.652 19.355 418.689C12.9358 418.686 6.17416 418.004 0 418.423C1.94539 415.164 6.11271 402.79 7.87522 398.706C11.0515 391.345 14.0786 383.725 17.2194 376.323C18.9423 372.261 17.7647 371.925 20.7059 367.703Z" fill="#BDBDBD"></path>
<path d="M275.594 231.896C281.31 230.225 289.236 231.06 295.363 231.302C292.408 234.31 289.425 238.163 289.202 242.571C288.777 251.147 288.832 259.626 289.088 268.198C289.321 276.073 288.296 284.138 289.425 291.958C289.769 294.324 292.046 295.064 292.901 297.138L292.638 297.704C290.117 298.13 276.879 297.889 273.073 298.038C274.295 296.36 275.664 294.846 277.03 293.28C277.819 286.907 276.59 284.364 278.259 278.099C277.367 275.362 277.23 274.566 276.89 271.697L276.586 264.717C273.861 273.459 270.522 281.509 267.42 290.092C266.306 293.169 268.06 295.205 269.641 297.819C264.529 297.938 259.213 297.901 254.082 297.938L256.247 293.82C255.037 290.106 254.881 289.014 254.815 285.082C254.719 284.982 254.622 284.882 254.53 284.778C254.393 284.63 254.263 284.475 254.123 284.323C252.294 282.342 247.592 267.942 246.215 264.299C246.152 273.948 246.463 282.96 247.052 292.598C248.218 294.102 250.509 296.097 250.695 297.775C248.392 298.482 235.013 297.26 230.352 297.867L229.867 297.934C231.355 296.494 232.944 295.049 234.461 293.631C235.661 285.693 234.506 271.841 234.757 263.462C235.031 254.442 235.768 244.412 234.957 235.412C233.728 234.345 232.333 233.303 231.5 231.946L231.781 231.41C234.095 230.781 242.676 231.333 246.304 231.053C247.163 230.865 247.3 230.952 248.188 231.066C250.746 233.569 254.57 251.573 256.514 255.916C258.495 260.344 260.457 267.476 261.667 272.26C263 268.646 263.944 264.706 265.465 260.852C268.627 252.846 274.065 239.981 275.594 231.896Z" fill="white"></path>
<path d="M369.837 231.348C374.946 230.768 388.958 230.605 393.6 232.93C397.587 235.071 397.657 245.651 397.272 249.876C396.239 261.24 397.739 272.548 396.791 283.933C396.376 288.932 397.916 296.852 390.938 297.881C359.135 296.637 363.048 305.705 362.777 270.982L362.651 254.349C362.566 248.758 361.796 241.064 363.821 235.597C364.721 233.16 367.471 232.079 369.837 231.348ZM382.905 287.192C383.653 286.818 384.326 286.685 384.623 285.829C385.304 283.848 384.893 247.921 384.367 244.881C382.453 242.047 380.747 242.271 377.6 242.47C376.782 242.988 376.012 243.39 375.934 244.53C375.216 255.219 375.986 266.394 375.782 277.158C375.719 280.42 375.271 283.337 375.619 286.392C376.734 287.481 378.3 287.27 379.888 287.255C380.895 287.24 381.898 287.218 382.905 287.192Z" fill="white"></path>
<path d="M189.45 230.951C191.023 230.939 192.695 231.208 194.444 231.172C201.159 231.033 207.703 230.825 214.426 231.011C209.969 235.932 209.773 235.845 211.413 242.568C214.004 253.2 216.781 263.801 219.413 274.428C220.686 279.571 221.567 284.866 223.167 289.909C223.581 291.182 227.357 296.151 228.331 297.484C221.056 297.958 214.104 297.706 206.86 298.095C208.028 296.459 209.738 294.411 211.009 292.793C210.526 290.701 210.241 287.694 209.809 285.391C209.248 283.621 208.951 281.918 207.31 281.067C203.457 281.507 197.31 285.343 194.075 287.457C189.522 290.431 193.398 295.326 195.676 298.191C189.308 298.099 181.7 298.484 175.633 298.091C176.988 296.366 178.787 294.444 179.812 292.53C180.125 291.945 193.124 238.158 193.082 237.478C192.915 234.685 190.038 233.744 189.526 231.393C189.495 231.247 189.476 231.099 189.45 230.951ZM195.343 274.924L198.59 272.643C201.265 270.836 202.76 270.41 205.356 268.963C204.757 266.348 202.39 254.426 200.941 252.93C199.571 259.828 196.222 268.748 195.343 274.924Z" fill="white"></path>
<path d="M298.673 231.356C300.895 231.087 307.662 231 309.931 231.23C316.106 231.857 330.451 229.697 335.201 233.092C336.982 236.035 335.949 244.817 335.949 248.534C335.945 253.792 337.407 261.116 334.686 265.819C332.983 268.555 329.167 270.288 326.59 272.028C316.776 278.656 314.61 276.479 315.588 288.553C316.013 293.163 318.079 294.448 320.567 298.106C312.808 297.78 305.259 298.643 297.781 297.924C298.596 296.847 301.75 292.8 301.865 291.671C303.001 283.169 301.794 273.946 302.164 265.456C302.59 255.681 302.224 245.872 302.505 236.182C301.206 234.874 299.033 233.001 298.673 231.356ZM315.214 265.756C316.199 265.011 317.683 263.812 318.66 263.16C320.87 261.449 321.626 260.75 323.462 258.598C323.062 254.174 324.58 246.765 322.159 243.251C321.496 242.288 318.86 242.395 317.624 242.404C316.732 243.121 316.128 243.414 316.091 244.724C315.88 251.615 315.306 258.902 315.214 265.756Z" fill="white"></path>
<path d="M37.6689 323.074C39.1049 323.641 43.6072 327.069 45.4597 328.165C55.2518 333.967 64.8243 339.67 74.5083 345.661C74.2562 348.86 69.6473 370.531 68.128 372.453C67.9292 372.453 61.2197 371.142 61.3178 371.205C55.5668 369.602 49.2005 369.084 43.495 367.591C36.365 365.725 29.4464 364.814 22.2734 363.23C23.769 360.327 24.8941 356.332 26.1964 353.077C30.1975 343.143 34.022 333.142 37.6689 323.074Z" fill="white"></path>
<path d="M157.135 230.667C159.623 230.193 169.996 230.69 172.026 232.647C174.055 234.604 174.99 247.905 172.742 249.515C171.15 250.656 165.183 254.31 163.211 254.181C159.487 252.148 162.892 244.654 160.32 241.564C159.08 240.075 156.565 240.986 155.49 242.243C153.435 248.105 155.002 258.957 154.931 265.422C154.857 272.124 153.9 280.511 154.723 287.042C163.043 287.642 162.581 286.827 162.467 278.789C164.124 277.226 168.701 274.442 170.764 273.127C171.931 272.535 172.132 272.528 173.44 272.272C174.061 272.505 174.886 272.728 174.978 273.587C175.504 278.637 174.293 283.75 175.103 288.919C175.573 291.915 172.159 296.41 169.171 297.117C161.681 298.891 151.799 298.517 144.291 297.039C140.603 296.314 142.207 284.05 141.961 281.284C141.166 272.339 141.399 263.819 142.014 254.858C142.487 247.964 140.408 240.108 143.508 233.482C145.116 230.335 153.625 231.109 156.669 230.728L157.135 230.667Z" fill="white"></path>
<path d="M418.581 230.969C422.738 231.537 434.4 230.69 435.929 231.543C438.054 233.952 436.936 241.845 437.295 245.888C433.315 247.498 429.428 249.279 425.396 250.894C425.026 248.213 425.678 243.75 423.779 242.212C422.183 241.683 420.773 242.136 419.066 242.44C418.788 248.913 419.033 255.515 418.77 262.135C420.417 260.854 426.948 256.673 428.943 256.437L429.354 256.881C429.872 258.732 430.165 267.219 429.147 268.018C427.629 269.211 420.554 273.458 418.459 275.109C418.603 276.646 418.574 278.812 418.6 280.404C418.622 289.957 418.159 290.509 424.153 297.825C417.163 297.844 409.237 298.121 402.115 298.218C406.731 292.512 405.484 290.186 405.639 283.473C405.761 278.223 405.739 273.158 405.639 267.885C405.524 261.698 404.825 256.437 406.861 250.509C403.566 240.985 409.245 240.411 402 231.308C406.609 231.215 414.957 232.044 418.581 230.969Z" fill="white"></path>
<path d="M27.7395 120.82C29.0948 121.077 29.6283 122.508 30.0947 123.728C32.8849 131.022 35.5866 138.351 38.2876 145.679L51.5092 181.105C59.3444 202.14 67.451 221.431 74.6817 242.846C72.161 243.645 71.5702 243.972 69.5496 245.488C68.4861 245.196 67.5646 243.981 67.1837 242.983C64.6801 236.433 62.5015 229.639 60.0248 223.099L35.015 156.641C31.785 148.177 27.6455 139.641 24.9194 130.765C23.9183 127.505 22.9962 127.342 22.2969 123.387L23.5755 122.959C25.7679 122.238 25.8948 122.138 27.7395 120.82Z" fill="white"></path>
<path d="M112.331 277.239L113.188 277.102C114.773 278.649 118.272 289.476 118.19 291.986C115.953 292.501 113.465 294.534 111.626 295.163C106.991 296.752 89.0356 306.804 85.3388 305.734C85.3133 302.713 79.7122 293.616 77.7031 291.05C82.0952 288.184 85.0101 287.95 89.7397 286.136C95.6821 283.855 101.427 281.019 107.496 278.997C109.419 278.353 110.034 277.735 112.331 277.239Z" fill="white"></path>
<path d="M120.123 296.375C120.836 297.49 122.738 304.539 123.236 306.265C116.489 311.286 108.254 315.447 101.318 320.305C99.6343 321.483 97.7008 322.786 95.8931 323.73C94.911 323.064 95.0191 322.668 94.4534 321.342C93.8167 318.502 89.7834 314.214 88.8594 311.263C90.8962 309.823 93.4087 309.242 95.44 308.031C102.865 303.603 112.446 300.933 119.711 296.623L120.123 296.375Z" fill="white"></path>
<path d="M105.492 255.957L106.152 255.972C107.841 257.22 110.69 268.083 112.187 271.368C107.255 275.126 102.225 275.211 97.1792 277.529L96.7557 277.266C96.3844 274.955 94.9473 272.456 94.4327 270.057C94.0503 268.276 90.6345 264.062 90.9954 262.3C95.4008 259.815 99.9875 259.178 105.492 255.957Z" fill="white"></path>
<path d="M106.836 326.67C106.462 326.326 120.191 361.372 121.009 363.542C119.718 364.59 117.898 365.056 116.282 365.619C115.418 366.008 115.164 366.048 114.266 366.3C113.565 365.823 103.013 337.042 102.32 334.165C103.544 331.162 105.315 329.988 106.836 326.67Z" fill="white"></path>
<path d="M100.649 237.258C101.81 238.145 102.103 243.185 102.698 244.76C103.402 246.626 105.605 250.203 104.569 251.91C101.818 252.18 90.9477 256.342 88.6499 257.853C88.4074 253.698 85.8042 247.452 83.5938 243.913C86.8093 243.185 97.7379 238.912 100.649 237.258Z" fill="white"></path>
<path d="M256.698 156.035C257.309 156.08 257.956 156.171 258.567 156.243C258.519 157.49 253.499 171.146 252.648 172.228L251.571 171.93C250.319 166.813 250.745 165.028 247.539 160.58C250.386 158.893 255.161 157.762 256.698 156.035Z" fill="white"></path>
<path d="M23.1721 109.079C26.3128 108.788 25.1215 113.461 27.5511 116.143C25.0641 116.681 23.677 116.665 21.5565 118.11L20.9694 118.14C19.5541 117.156 19.5937 113.987 17.3281 111.475C19.6374 110.326 20.7195 109.898 23.1721 109.079Z" fill="white"></path>
</svg>