<svg width="264" height="264" viewBox="0 0 264 264" fill="none" xmlns="http://www.w3.org/2000/svg">
<path d="M249.009 92.3428C247.034 90.0547 244.894 87.9374 242.629 85.9815C242.845 83.0061 242.859 80.0076 242.638 77.0046C241.558 62.4552 235.317 48.7731 225.052 38.4723L224.333 37.7573C211.508 25.1131 194.177 19.2731 177.15 20.4909C175.36 18.4796 173.436 16.5791 171.378 14.8077C160.325 5.28187 146.237 0.0230649 131.701 0C131.359 0 131.018 0 130.681 0C112.672 0.124551 96.2856 8.25263 85.1034 21.1552C82.4185 20.9983 79.7106 21.0168 77.0073 21.2151C62.4574 22.2946 48.7748 28.5359 38.4829 38.7906C38.243 39.0305 37.9985 39.275 37.7586 39.5195C25.114 52.339 19.2737 69.6746 20.4916 86.7011C18.4803 88.4909 16.5797 90.4146 14.8082 92.4719C5.28205 103.529 0.0230657 117.617 0 132.153C0 132.49 0 132.831 0 133.172C0.124555 150.766 7.88848 166.81 20.284 177.964C19.3568 194.682 25.2247 211.616 37.6664 224.233C37.9524 224.523 38.243 224.814 38.5336 225.105C48.8486 235.382 62.5543 241.633 77.1272 242.703C78.6265 242.814 80.1258 242.869 81.625 242.869C82.7368 242.869 83.8486 242.828 84.9557 242.768C96.138 255.629 112.524 263.724 130.552 263.849C130.866 263.849 131.179 263.849 131.493 263.849H131.775C146.334 263.821 160.445 258.549 171.508 249.004C173.496 247.288 175.36 245.452 177.094 243.515C178.524 243.616 179.959 243.676 181.389 243.676C196.972 243.676 212.477 237.776 224.231 226.189C224.522 225.903 224.813 225.612 225.103 225.321C235.381 215.007 241.632 201.302 242.702 186.729C242.896 184.114 242.91 181.498 242.772 178.901C255.628 167.719 263.724 151.338 263.849 133.311C263.849 132.905 263.849 132.494 263.849 132.088C263.821 117.53 258.548 103.419 249.004 92.352L249.009 92.3428ZM253.045 133.223C252.957 145.595 248.307 157.021 240.626 165.814C238.652 158.71 235.414 151.966 230.985 145.946C227.493 141.199 223.918 136.531 220.287 131.913C218.004 134.828 215.697 137.721 213.349 140.59C216.37 144.465 219.355 148.372 222.275 152.344C227.022 158.797 230.113 166.261 231.391 174.08C224.84 178.638 217.145 181.706 208.768 182.734C204.367 183.274 199.957 183.749 195.542 184.192C195.178 187.85 194.772 191.513 194.329 195.171C199.583 194.659 204.833 194.101 210.078 193.459C217.921 192.5 225.269 190.06 231.871 186.462C230.874 198.257 225.772 209.328 217.441 217.687C217.178 217.954 216.91 218.217 216.643 218.48C207.836 227.167 196.465 231.955 184.817 232.744C188.442 226.327 190.92 219.264 192.05 211.879C192.899 206.311 193.655 200.739 194.329 195.171C190.661 195.526 186.994 195.854 183.322 196.149C182.731 200.849 182.086 205.55 181.366 210.251C180.157 218.171 177.066 225.635 172.444 232.066C164.588 230.659 156.976 227.383 150.329 222.189C146.832 219.454 143.377 216.667 139.935 213.863C137.089 216.192 134.21 218.494 131.313 220.768C135.396 224.127 139.506 227.448 143.672 230.705C149.895 235.571 156.81 239.05 164.02 241.172C154.979 248.806 143.543 253.022 131.752 253.041C131.378 253.041 131 253.041 130.621 253.041C118.253 252.953 106.827 248.303 98.034 240.623C105.138 238.648 111.878 235.405 117.898 230.981C122.438 227.646 126.898 224.228 131.313 220.768C128.467 218.425 125.639 216.063 122.839 213.674C119.098 216.58 115.329 219.458 111.5 222.277C105.046 227.024 97.5819 230.114 89.7626 231.392C85.2048 224.842 82.1371 217.147 81.1084 208.77C80.5871 204.508 80.1258 200.241 79.6921 195.969C76.0339 195.664 72.3849 195.328 68.7313 194.959C69.2249 200.005 69.7646 205.047 70.3782 210.085C71.3377 217.927 73.7781 225.275 77.3763 231.876C65.5805 230.88 54.509 225.778 46.1499 217.452C45.8824 217.189 45.6194 216.921 45.3565 216.654C36.9144 208.096 32.1536 197.113 31.171 185.811C37.9754 189.658 45.5964 192.274 53.7524 193.289C58.7392 193.912 63.7306 194.456 68.7313 194.959C68.3715 191.305 68.0439 187.652 67.7487 183.998C63.5277 183.56 59.3066 183.094 55.0902 182.568C46.3529 181.48 38.3537 178.181 31.6231 173.296C32.9425 165.145 36.2686 157.224 41.6521 150.342C44.2954 146.961 46.9895 143.616 49.7021 140.286C47.3309 137.485 44.9874 134.662 42.667 131.821C39.447 135.742 36.264 139.686 33.1362 143.681C28.1125 150.107 24.5742 157.275 22.4753 164.748C15.2372 156.09 10.8824 145.032 10.7994 133.112V132.181C10.8132 120.307 15.0942 108.793 22.8397 99.7282C24.9571 106.924 28.417 113.835 33.2562 120.053C36.3424 124.02 39.4885 127.932 42.667 131.825C44.9966 128.988 47.3447 126.174 49.7251 123.379C47.0495 120.081 44.3969 116.769 41.7859 113.415C36.6284 106.786 33.3669 99.2069 31.9461 91.3925C38.3122 86.8533 45.684 83.7995 53.5079 82.5725C58.2641 81.8252 63.0294 81.1471 67.8087 80.5381C68.1085 76.8662 68.4453 73.1943 68.8097 69.5269C63.1355 70.2235 57.4752 71.0077 51.8333 71.898C44.5446 73.042 37.5741 75.4915 31.231 79.062C31.9737 67.3634 36.7529 55.9463 45.4487 47.1263C45.6656 46.9049 45.8824 46.688 46.1038 46.4666C54.5136 38.0848 65.6774 32.969 77.5655 32.0326C73.9764 38.6199 71.5361 45.95 70.5581 53.7736C69.903 59.0186 69.331 64.2727 68.8097 69.5316C72.4679 69.0841 76.1308 68.6735 79.7982 68.3045C80.2503 63.9037 80.7347 59.5075 81.2837 55.116C82.3216 46.7803 85.3755 39.1181 89.8964 32.5908C97.6096 33.8824 104.981 36.9362 111.38 41.5953C115.269 44.4277 119.102 47.3385 122.908 50.2816C125.722 47.8966 128.555 45.5348 131.41 43.196C126.908 39.6763 122.359 36.2212 117.741 32.8583C111.777 28.5129 105.115 25.3161 98.1078 23.3556C106.91 15.6103 118.36 10.9143 130.746 10.8267C131.055 10.8267 131.364 10.8267 131.673 10.8267C143.547 10.8451 155.062 15.1214 164.127 22.8666C156.93 24.9839 150.02 28.4437 143.801 33.2827C139.626 36.5302 135.502 39.847 131.415 43.196C134.316 45.4656 137.2 47.7583 140.06 50.0924C143.497 47.3016 146.947 44.5292 150.444 41.8121C157.073 36.6548 164.652 33.3934 172.467 31.9772C177.006 38.3431 180.06 45.7147 181.287 53.5337C182.058 58.4235 182.75 63.3271 183.373 68.2445C187.049 68.6043 190.731 69.0057 194.407 69.4485C193.692 63.5716 192.88 57.7085 191.962 51.8592C190.818 44.5707 188.369 37.6005 184.803 31.2576C196.502 32.0049 207.919 36.7793 216.735 45.4748L217.395 46.1299C225.832 54.5901 230.966 65.8458 231.852 77.8211C231.871 78.0702 231.875 78.3193 231.889 78.573C225.703 75.2055 218.94 72.8944 211.882 71.8196C206.06 70.9293 200.234 70.1451 194.407 69.4485C194.855 73.1205 195.261 76.797 195.63 80.4782C200.506 81.0825 205.377 81.756 210.253 82.5033C217.791 83.6519 224.923 86.5073 231.137 90.7697C229.767 98.1736 226.764 105.245 222.271 111.408C219.355 115.412 216.361 119.356 213.326 123.273C215.674 126.133 217.99 129.025 220.282 131.936C223.936 127.272 227.52 122.558 231.008 117.77C235.206 112.008 238.329 105.596 240.303 98.8517C240.474 99.0454 240.649 99.23 240.82 99.4237C248.676 108.53 253.017 120.141 253.04 132.116C253.04 132.49 253.04 132.868 253.04 133.246L253.045 133.223Z" fill="white"></path>
<path d="M212.132 123.101C207.004 116.765 201.739 110.564 196.355 104.503C195.932 96.2861 195.326 88.0879 194.523 79.9178C194.156 76.2028 193.752 72.4924 193.307 68.7867C189.648 68.3445 185.985 67.9395 182.326 67.5717C174.261 66.7663 166.196 66.1518 158.144 65.7235C151.966 60.0765 145.663 54.5785 139.232 49.2528C136.391 46.8971 133.522 44.5834 130.63 42.293C127.788 44.6532 124.97 47.0321 122.17 49.4436C116.005 54.7508 109.941 60.1743 103.978 65.7142C95.72 66.1518 87.4803 66.7896 79.2682 67.6322C75.6188 68.0046 71.9741 68.419 68.3339 68.8705C67.9713 72.5716 67.6362 76.2772 67.3378 79.9829C66.6814 88.0879 66.1764 96.1976 65.8276 104.321C60.2136 110.508 54.7189 116.807 49.3436 123.213C46.9795 126.034 44.6384 128.874 42.3203 131.737C44.6293 134.605 46.9612 137.454 49.3206 140.279C54.6776 146.699 60.1539 153.017 65.7541 159.218C66.0984 167.62 66.6033 176.014 67.2735 184.398C67.5673 188.09 67.8932 191.777 68.2513 195.46C71.8823 195.832 75.5178 196.172 79.158 196.479C87.4252 197.177 95.7017 197.717 103.983 198.085C109.913 203.621 115.95 209.044 122.087 214.351C124.878 216.763 127.692 219.146 130.52 221.511C133.407 219.216 136.267 216.893 139.099 214.542C145.516 209.216 151.791 203.756 157.924 198.16C166.049 197.82 174.165 197.326 182.271 196.67C185.925 196.377 189.575 196.042 193.224 195.683C193.665 191.991 194.064 188.295 194.431 184.603C195.267 176.149 195.9 167.695 196.332 159.245C201.748 153.147 207.027 146.937 212.145 140.601C214.482 137.71 216.777 134.786 219.049 131.844C216.768 128.902 214.464 125.983 212.127 123.101H212.132ZM196.951 142.044C193.307 146.364 189.575 150.614 185.783 154.814C185.531 160.498 185.191 166.187 184.755 171.88C184.406 176.456 183.997 181.037 183.525 185.618C179.086 185.991 174.642 186.33 170.194 186.61C164.667 186.954 159.131 187.215 153.6 187.41C149.492 191.214 145.333 194.966 141.091 198.649C137.667 201.623 134.183 204.542 130.671 207.433C127.283 204.524 123.919 201.591 120.595 198.607C116.473 194.91 112.406 191.149 108.38 187.345C102.881 187.136 97.3817 186.861 91.8871 186.503C87.3059 186.205 82.7247 185.842 78.1481 185.441C77.7625 180.8 77.4182 176.154 77.1382 171.503C76.7985 165.931 76.5461 160.353 76.3533 154.776C72.6121 150.684 68.9123 146.546 65.2767 142.356C62.2425 138.86 59.2588 135.321 56.3026 131.755C59.2679 128.199 62.2609 124.665 65.3043 121.174C68.949 116.993 72.658 112.864 76.4129 108.781C76.6195 103.204 76.8903 97.6268 77.2392 92.0543C77.5192 87.5991 77.8589 83.1486 78.2353 78.698C82.7017 78.2232 87.1774 77.8042 91.6621 77.4457C97.2303 77.0035 102.812 76.6636 108.399 76.4123C112.461 72.5855 116.569 68.81 120.738 65.095C124.047 62.1389 127.398 59.2292 130.772 56.3476C134.27 59.2199 137.749 62.1249 141.174 65.0997C145.434 68.796 149.625 72.5809 153.77 76.4262C159.375 76.6823 164.984 77.0268 170.598 77.469C174.927 77.8089 179.255 78.2092 183.584 78.6608C184.034 83.0555 184.438 87.4548 184.773 91.8635C185.209 97.543 185.549 103.237 185.797 108.939C189.575 113.134 193.302 117.384 196.956 121.709C199.774 125.047 202.542 128.436 205.283 131.858C202.542 135.284 199.774 138.687 196.947 142.044H196.951Z" fill="#BDBDBD"></path>
</svg>