<svg width="297" height="293" viewBox="0 0 297 293" fill="none" xmlns="http://www.w3.org/2000/svg">
<path d="M167.441 6.76819L155.381 18.6667L148.453 25.5026L141.525 18.6667L129.465 6.76819H167.427M183.986 0H112.906C126.79 13.6988 134.569 21.374 148.453 35.0728C162.337 21.374 170.116 13.6988 184 0H183.986Z" fill="#BDBDBD"></path>
<path d="M148.439 267.43L155.368 274.265L167.427 286.164H129.465L141.525 274.265L148.453 267.43M148.453 257.859C134.569 271.558 126.79 279.233 112.906 292.932H183.986C170.102 279.233 162.323 271.558 148.439 257.859H148.453Z" fill="#BDBDBD"></path>
<path d="M6.85965 127.729L10.605 131.424L25.8472 146.463L6.85965 165.198V127.743M0 111.404L0 181.536C13.8839 167.837 21.6628 160.162 35.5467 146.463C21.6628 132.765 13.8839 125.089 0 111.391L0 111.404Z" fill="#BDBDBD"></path>
<path d="M290.031 127.727V165.182L271.043 146.448L286.285 131.409L290.031 127.713M296.89 111.375C283.007 125.074 275.228 132.749 261.344 146.448C275.228 160.147 283.007 167.822 296.89 181.521V111.389V111.375Z" fill="#BDBDBD"></path>
<path d="M296.9 0H207.066C184.182 22.5787 171.34 35.2487 148.457 57.8274C125.559 35.2487 112.732 22.5787 89.8341 0H0L0 88.6363C22.8838 111.215 35.7251 123.885 58.6089 146.464C35.7251 169.042 22.8838 181.712 0 204.291L0 292.927H89.8341C112.718 270.349 125.559 257.679 148.443 235.1C171.327 257.679 184.168 270.349 207.052 292.927H296.886V204.291C274.002 181.712 261.161 169.042 238.277 146.464C261.161 123.885 274.002 111.215 296.886 88.6363V0H296.9ZM35.5467 35.0728H17.7802V17.5432H35.5467V35.0728ZM35.5467 275.411H17.7802V257.882H35.5467V275.411ZM148.457 171.276L123.323 146.477L148.457 121.679L173.59 146.477L148.457 171.276ZM261.367 257.882H279.133V275.411H261.367V257.882ZM279.133 35.0728H261.367V17.5432H279.133V35.0728Z" fill="#FFFFFF"></path>
</svg>