<svg width="247" height="237" viewBox="0 0 247 237" fill="none" xmlns="http://www.w3.org/2000/svg">
<path d="M207.848 32.0351C205.599 26.3895 202.041 22.0079 197.277 19.0119C185.766 11.7841 168.38 13.3382 148.338 23.4029C128.4 33.4113 108.101 50.6664 91.1617 72.0128C69.7716 99.5103 57.2736 130.135 56.875 156.069C57.7386 167.603 62.3032 176.292 70.0753 181.17C74.7918 184.138 80.5331 185.636 87.138 185.636C87.1949 185.636 87.2614 185.636 87.3183 185.636H87.8687L87.8213 185.093C85.3539 157.932 98.2031 123.469 122.193 92.9285C146.184 62.3694 178.079 39.8527 207.516 32.6998L208.076 32.5687L207.867 32.0444L207.848 32.0351Z" fill="white"></path>
<path d="M87.1294 188.381C79.9836 188.381 73.7393 186.733 68.5674 183.484C60.0171 178.12 55.0064 168.701 54.0859 156.268V156.146V156.024C54.494 129.529 67.2009 98.2953 88.9515 70.339C106.147 48.6743 126.787 31.1384 147.077 20.9614C168.04 10.438 186.402 8.93064 198.777 16.7015C204.053 20.0158 207.982 24.8375 210.449 31.0448L211.816 34.4902L208.181 35.3796C179.342 42.3921 148.016 64.5343 124.396 94.6253C100.833 124.641 88.1923 158.374 90.5932 184.861L90.9064 188.372L87.1389 188.39L87.1294 188.381ZM59.647 155.987C60.4631 166.566 64.5817 174.468 71.5567 178.85C75.2767 181.191 79.7369 182.52 84.8424 182.82C83.2956 155.397 96.2966 121.393 119.974 91.2454C143.632 61.117 174.929 38.6752 204.205 30.7077C202.193 26.7287 199.365 23.5829 195.778 21.3265C185.131 14.6417 168.732 16.2427 149.591 25.8486C130.014 35.6792 110.038 52.6721 93.3358 73.7002C72.3538 100.683 60.074 130.671 59.647 155.987Z" fill="#141414"></path>
<path d="M147.103 89.4816C134.311 63.8284 117.694 41.9577 100.309 27.8953C82.8 13.7392 66.506 9.13291 54.4255 14.9189C49.4243 17.3157 45.3722 21.3977 42.3639 27.0433L42.1172 27.5114L42.6012 27.7361C69.4478 40.3567 96.266 69.8017 114.335 106.512C132.403 143.213 139.283 182.217 132.745 210.838L132.631 211.353L133.153 211.446C135.222 211.821 137.234 212.017 139.169 212.017C143.184 212.017 146.894 211.203 150.272 209.593C158.415 205.688 164.09 197.197 166.699 184.988C170.315 157.275 163.179 122.475 147.122 89.4816H147.103Z" fill="white"></path>
<path d="M139.153 214.772C137.046 214.772 134.854 214.566 132.624 214.154L129.255 213.536L130.005 210.241C136.41 182.2 129.606 143.88 111.813 107.712C94.0099 71.5546 67.6851 42.5778 41.3889 30.2193L38.3047 28.7681L39.8895 25.7815C43.1824 19.5929 47.6616 15.1177 53.2037 12.4587C66.3186 6.1765 83.666 10.9045 102.067 25.7815C119.756 40.0873 136.638 62.2857 149.601 88.2759V88.2947C165.895 121.747 173.126 157.118 169.444 185.337L169.406 185.552C166.616 198.603 160.42 207.769 151.471 212.057C147.732 213.845 143.585 214.753 139.153 214.753V214.772ZM135.945 209.098C140.785 209.632 145.188 208.977 149.032 207.132C156.348 203.621 161.501 195.813 163.931 184.541C167.451 157.371 160.401 123.17 144.591 90.7008C131.979 65.3941 115.618 43.851 98.5365 30.0414C81.9198 16.6063 66.6792 12.1123 55.6331 17.4115C51.7802 19.2559 48.5442 22.2518 45.9725 26.3432C72.6293 39.7597 98.973 69.0735 116.823 105.334C134.674 141.586 141.744 180.14 135.945 209.108V209.098Z" fill="#141414"></path>
<path d="M237.493 30.5577C234.02 24.1818 229.208 19.0419 223.211 15.2688C197.294 -1.01254 154.286 11.8421 117.551 43.8805C146.78 18.7984 179.131 8.93976 196.687 19.9687C201.251 22.8337 204.658 27.0374 206.812 32.4583C215.486 54.2728 203.111 92.1159 176.018 126.626C148.906 161.155 113.262 184.43 87.3262 184.542C87.2693 184.542 87.2124 184.542 87.1554 184.542C80.7688 184.542 75.2267 183.1 70.7001 180.254C63.2316 175.564 58.8473 167.184 58.0122 156.005L56.7596 156.043C56.4464 176.434 63.8105 192.407 77.5138 201.011C82.1638 203.932 87.4781 205.973 93.3143 207.096C96.7876 207.761 100.441 208.089 104.247 208.089C118.377 208.089 134.557 203.548 150.927 194.869C172.279 183.54 192.388 166.332 209.071 145.079C224.9 124.922 235.937 103.238 240.995 82.3602C245.977 61.8189 244.762 43.9086 237.493 30.567V30.5577Z" fill="white"></path>
<path d="M104.227 210.826C100.251 210.826 96.3983 210.47 92.7827 209.777C86.6048 208.588 80.9584 206.416 76.0237 203.317C61.4758 194.179 53.6468 177.373 53.9789 155.99L54.0169 153.359L60.5933 153.172L60.7926 155.793C61.5613 166.064 65.4995 173.722 72.1993 177.926C76.2799 180.491 81.3095 181.783 87.1647 181.783H87.3451C112.455 181.68 147.216 158.836 173.835 124.934C200.35 91.1639 212.573 54.3976 204.24 33.4537C202.305 28.5853 199.268 24.8216 195.206 22.275C178.798 11.9763 147.624 21.7039 119.392 45.9433L115.72 41.8144C154.504 7.97849 198.309 -3.6216 224.7 12.95C231.116 16.9758 236.24 22.4622 239.941 29.2594C247.542 43.2001 248.843 61.7846 243.699 82.9905C238.546 104.243 227.329 126.292 211.263 146.758C194.343 168.311 173.93 185.781 152.236 197.278C135.525 206.144 118.927 210.826 104.237 210.826H104.218H104.227ZM62.3015 176.353C65.4141 186.043 71.0795 193.711 79.0035 198.682C83.3498 201.416 88.3415 203.336 93.8361 204.384C97.1006 205.011 100.593 205.33 104.218 205.33H104.237C118.007 205.33 133.693 200.873 149.598 192.438C170.609 181.296 190.414 164.332 206.86 143.388C222.442 123.539 233.308 102.212 238.28 81.7079C243.101 61.8314 241.972 44.5857 235.035 31.8528C231.789 25.8982 227.31 21.0953 221.702 17.575C211.026 10.8715 196.952 9.2237 180.744 12.7065C187.339 12.9312 193.251 14.5416 198.167 17.6312C203.235 20.8144 207.021 25.4676 209.393 31.4408C218.418 54.1261 205.882 93.0458 178.2 128.286C150.585 163.451 114.068 187.157 87.3166 187.26H87.1268C80.1992 187.26 74.1637 185.669 69.1721 182.542C66.5149 180.875 64.2089 178.797 62.2825 176.334L62.3015 176.353Z" fill="#141414"></path>
<path d="M165.226 186.289C162.701 198.095 157.567 204.864 149.757 208.609C144.984 210.893 139.47 211.492 133.349 210.369C108.742 205.866 78.4983 174.979 58.0762 133.503C37.6542 92.0275 31.7515 49.4751 43.3765 27.6137C46.2614 22.1835 50.1523 18.27 54.9256 15.9855C79.0677 4.41353 121.108 37.0792 147.223 89.4809L146.787 88.5821C138.426 71.6079 128.396 56.5156 117.539 43.9044C89.07 10.8362 54.9351 -5.19236 30.3755 6.57626C24.0838 9.59097 18.7125 14.2722 14.4326 20.4982C5.47425 33.5027 1.56445 52.4055 3.11129 75.175C4.6866 98.319 11.8229 123.345 23.7326 147.538C36.2971 173.05 52.724 194.837 71.2671 210.547C88.7093 225.33 106.844 233.401 122.531 233.401C123.072 233.401 123.622 233.391 124.154 233.373C129.886 233.167 135.257 231.875 140.135 229.534C154.483 222.662 163.954 207.176 166.801 185.362L165.207 186.289H165.226Z" fill="white"></path>
<path d="M122.537 236.158C106.196 236.158 87.3397 227.807 69.4514 212.64C50.6331 196.686 33.9595 174.591 21.2337 148.741C9.16268 124.23 1.93145 98.8579 0.337167 75.3675C-1.25712 51.9894 2.8235 32.478 12.133 18.968C16.6976 12.3394 22.4294 7.34918 29.1672 4.11913C41.7981 -1.92902 57.1716 -1.31109 73.6269 5.93545C88.6113 12.5266 103.842 24.2859 117.802 40.0148H117.821L119.662 42.1401C119.662 42.1401 119.671 42.1494 119.681 42.1588L121.427 44.1905H121.408C132.075 56.9515 141.451 71.4727 149.289 87.3982L149.735 88.3157L144.725 90.7125C132.34 65.8739 115.961 44.6305 98.5946 30.9145C82.1867 17.9475 66.7184 13.4161 56.1467 18.4811C51.9237 20.5034 48.4505 24.0237 45.8503 28.9203C34.6143 50.042 40.536 91.602 60.5879 132.338C80.6399 173.065 110.087 203.352 133.868 207.706C139.382 208.717 144.326 208.202 148.549 206.17C155.942 202.622 160.25 196.33 162.508 185.76L162.765 184.581L170.319 180.171L169.588 185.751C166.646 208.296 156.625 224.736 141.375 232.048C136.146 234.557 130.395 235.934 124.274 236.158C123.705 236.177 123.126 236.186 122.556 236.186L122.537 236.158ZM47.8242 5.5235C42.0164 5.5235 36.5503 6.67508 31.5966 9.05315C25.7414 11.8525 20.7497 16.2248 16.7355 22.0482C8.1283 34.5378 4.37982 52.8507 5.8887 74.993C7.44503 97.7905 14.477 122.461 26.2348 146.344C38.6285 171.52 54.8276 193.007 73.0765 208.474C89.9589 222.779 107.525 230.663 122.528 230.663C123.031 230.663 123.543 230.663 124.046 230.634C129.389 230.438 134.39 229.239 138.917 227.077C147.249 223.088 153.835 215.87 158.295 206.077C156.179 208.099 153.74 209.756 150.959 211.086C145.636 213.632 139.543 214.306 132.834 213.08C107.401 208.427 76.3505 176.931 55.5678 134.716C34.7852 92.5007 28.892 48.9372 40.9061 26.3456C44.0757 20.3817 48.3841 16.0656 53.6983 13.519C59.3543 10.8039 65.8168 10.2515 72.7254 11.5904C64.0517 7.60197 55.6248 5.51414 47.8242 5.51414V5.5235Z" fill="#141414"></path>
</svg>