<svg width="306" height="416" viewBox="0 0 306 416" fill="none" xmlns="http://www.w3.org/2000/svg">
<path d="M303.485 186.934C243.956 179.455 236.402 170.939 236.059 170.513C234.403 168.515 232.723 166.618 231.034 164.796C230.397 162.364 226.8 149.285 219.294 136.089C214.865 128.309 209.921 122.075 204.577 117.403C204.545 117.369 204.504 117.336 204.463 117.303C196.64 110.5 187.976 107.082 178.79 107.324C170.697 107.55 164.285 107.057 159.186 106.171C159.08 106.137 158.966 106.121 158.844 106.112C142.813 103.246 140.137 96.4766 140.015 96.1256C140.015 96.1089 140.007 96.1005 140.007 96.0922C139.746 95.2648 138.889 94.7968 138.082 95.0559C137.274 95.3066 136.809 96.1758 137.037 97.0115C137.037 97.0282 137.054 97.0616 137.062 97.1034C137.633 98.9253 146.631 126.462 169.131 136.165C166.708 136.349 164.277 136.666 161.846 137.134C156.315 135.504 80.2332 111.127 45.0478 1.65646C44.852 1.03803 44.3054 0.611816 43.669 0.57003C43.0001 0.503173 42.4454 0.887602 42.168 1.48096C42.0048 1.83196 35.1358 17.1088 31.5218 40.5255C19.1461 32.7534 7.91254 15.6881 7.79833 15.5126C7.44754 14.9777 6.81937 14.7103 6.1912 14.844C5.5712 14.9777 5.09803 15.4792 4.98382 16.1143C3.45012 24.8392 2.29168 33.5055 1.5493 41.8794C1.51667 42.2388 1.4922 42.5897 1.46772 42.9491C-7.09002 143.987 45.8064 185.689 46.3449 186.107C46.7528 186.416 47.2912 186.508 47.7807 186.333C48.3273 186.14 56.4934 183.391 67.2865 185.923C67.4822 186.015 67.6944 186.082 67.9146 186.082C67.9228 186.082 67.9309 186.082 67.9473 186.082C74.3594 187.695 81.6527 191.213 88.8073 198.191C74.3676 223.129 66.3157 250.758 66.8704 273.239C66.8704 273.297 66.8541 273.347 66.8622 273.406C66.8786 273.564 66.8867 273.723 66.8949 273.874C66.9275 274.927 66.9601 275.98 67.0254 277.008C72.0263 348.294 40.1856 412.176 39.8674 412.82C39.5574 413.438 39.6716 414.199 40.1611 414.683C40.4548 414.984 40.8464 415.135 41.2461 415.135C41.499 415.135 41.7519 415.068 41.9885 414.942L101.738 381.723C102.301 381.405 102.619 380.77 102.537 380.118C99.7635 359.142 99.9103 328.78 113.64 296.045C122.108 276.882 143.776 238.757 191.533 207.025C191.598 206.983 191.647 206.925 191.704 206.874C196.387 203.741 201.298 200.648 206.454 197.606C233.024 181.92 302.4 190.026 303.102 190.11C303.95 190.227 304.717 189.592 304.823 188.723C304.921 187.854 304.317 187.06 303.477 186.959L303.485 186.934ZM202.252 196.453C198.271 198.86 194.38 201.325 190.603 203.858C188.237 202.629 180.43 198.175 173.569 189.592C162.866 176.212 159.366 159.573 163.11 140.126C171.13 138.672 178.994 138.789 186.695 140.46C200.808 143.979 212.173 151.692 219.458 157.835C222.443 160.425 225.405 163.292 228.317 166.426C228.391 166.509 228.44 166.576 228.448 166.585C228.489 166.635 228.537 166.668 228.578 166.71C230.242 168.507 231.899 170.387 233.546 172.359L202.252 196.445V196.453ZM107.204 303.826C108.86 285.432 109.822 264.355 109.847 263.862C111.976 258.789 113.648 253.775 114.897 248.844C115.443 250.808 116.234 252.747 117.385 254.552C119.946 258.588 123.83 261.296 128.92 262.65C120.982 273.865 114.57 285.482 109.675 297.466C108.599 300.048 107.791 302.188 107.212 303.826H107.204ZM17.1392 137.778C20.9246 139.365 27.2144 141.288 35.3153 141.288C38.4153 141.288 41.809 140.978 45.4067 140.276C48.6536 146.954 52.5205 153.598 57.1298 160.091C57.1298 160.091 57.1298 160.091 57.1298 160.1C57.1298 160.108 57.1461 160.116 57.1461 160.125C57.2113 160.225 57.3011 160.292 57.3908 160.367C57.4316 160.409 57.4724 160.459 57.5213 160.492C57.6437 160.576 57.7742 160.634 57.9129 160.676C57.9456 160.685 57.97 160.71 58.0027 160.718C58.125 160.751 58.2474 160.751 58.3779 160.751C58.4269 160.751 58.484 160.768 58.5329 160.768C58.6227 160.768 58.7124 160.718 58.8103 160.693C58.8919 160.668 58.9816 160.668 59.0632 160.626C59.1448 160.593 66.9846 156.89 76.4234 157.191C77.5247 157.225 78.5934 157.325 79.6458 157.459C80.2495 157.584 81.7588 157.885 83.8798 158.294C84.2714 158.403 84.663 158.503 85.0383 158.62C85.0709 158.629 85.1035 158.645 85.128 158.654C59.104 171.741 33.3573 164.871 31.4157 164.328C26.7004 157.459 21.6343 148.65 17.1392 137.769V137.778ZM4.25776 47.3283C8.35307 52.1754 17.229 61.1175 29.3518 64.5774C29.3191 67.0344 29.3436 69.6585 29.4252 72.4248C29.5476 78.0157 29.9473 83.8072 30.6897 89.7575C15.4016 85.5705 5.99541 75.5002 3.80091 72.9345C3.51538 64.8866 3.63775 56.354 4.25776 47.3283ZM134.329 127.699C139.754 153.94 151.542 174.666 170.338 190.996C165.093 196.67 159.439 201.977 153.41 206.933C119.367 178.285 108.827 122.334 106.518 106.973C116.487 115.982 126.057 122.718 134.337 127.691L134.329 127.699ZM187.666 205.821C183.057 208.955 178.7 212.148 174.564 215.382C171.929 214.713 169.914 213.343 168.584 211.27C165.794 206.925 166.569 200.724 166.83 199.086C168.805 197.147 170.722 195.166 172.598 193.144C178.341 199.838 184.403 203.916 187.666 205.83V205.821ZM113.134 147.271C75.061 139.616 41.5153 113.149 37.7627 110.107C37.3629 108.603 36.9876 107.099 36.645 105.603C34.3037 95.1645 33.1534 85.3031 32.6884 76.6368C43.6609 89.3145 81.5711 127.899 109.578 135.688C110.614 139.391 111.797 143.277 113.134 147.271ZM76.3989 154.024C68.4204 153.807 61.6493 156.155 58.9735 157.233C49.6489 143.185 43.3183 128.994 39.1903 115.213C49.6081 123.086 80.3229 144.455 114.325 150.748C115.5 154.049 116.789 157.409 118.192 160.785C109.896 160.024 92.5191 156.757 84.3693 155.169C81.5711 154.417 78.8627 154.091 76.3908 154.032L76.3989 154.024ZM95.0808 160.417C103.997 162.038 114.383 163.768 119.596 164.069C121.268 167.88 123.103 171.699 125.102 175.468C121.203 175.635 113.249 175.836 106.535 175.167C106.535 175.167 106.535 175.159 106.535 175.151C103.288 168.331 99.3066 163.626 95.0808 160.417ZM117.801 229.773C117.997 226.188 117.997 222.669 117.825 219.226C117.825 219.21 117.825 219.193 117.825 219.176C117.695 216.519 117.458 213.911 117.132 211.346C121.953 210.109 137.959 205.771 143.343 201.676C145.726 204.242 148.246 206.674 150.914 208.955C140.863 216.911 129.801 223.873 117.801 229.781V229.773ZM116.691 208.178C116.063 204.15 115.215 200.239 114.211 196.461C118.666 195.651 130.715 193.369 135.234 191.781C137.135 194.389 139.142 196.913 141.263 199.345C137.437 202.128 124.996 206.014 116.691 208.178ZM113.347 193.394C111.886 188.455 110.157 183.759 108.264 179.354C108.134 179.045 108.003 178.753 107.889 178.477C115.574 179.079 124.066 178.719 126.799 178.569C128.814 182.154 130.984 185.681 133.334 189.09C129.295 190.327 120.061 192.183 113.355 193.403L113.347 193.394ZM105.425 180.633C107.546 185.58 109.3 190.486 110.728 195.367C108.207 201.969 99.9592 205.888 96.9979 207.1C95.8721 204.1 94.42 201.033 92.5926 197.907C96.4105 191.497 100.604 185.422 105.058 179.772C105.172 180.048 105.295 180.324 105.425 180.633ZM111.919 199.771C113.518 206.164 114.505 212.49 114.897 218.758C108.231 223.848 102.211 223.012 100.122 222.486C99.9919 218.524 99.3392 214.388 98.0258 210.109C100.8 208.989 107.995 205.654 111.919 199.771ZM100.106 225.72C101.003 225.895 102.186 226.054 103.598 226.054C106.641 226.054 110.711 225.319 115.06 222.502C115.231 229.731 114.587 236.868 113.134 243.905C105.482 244.532 99.739 239.225 98.0911 237.495C99.2169 233.784 99.9429 229.848 100.106 225.711V225.72ZM117.083 237.437C117.189 236.626 117.287 235.815 117.368 235.013C117.474 234.336 117.572 233.768 117.654 233.375C122.851 230.868 127.868 228.16 132.722 225.269C132.526 228.787 132.828 234.612 136.246 238.749C138.269 241.197 141.076 242.668 144.584 243.161C141.793 246.237 139.093 249.371 136.523 252.555C134.574 254.97 132.705 257.402 130.911 259.85C125.983 258.822 122.296 256.474 119.971 252.83C116.863 247.95 116.708 241.682 117.075 237.437H117.083ZM147.333 240.178C143.474 240.161 140.529 239.008 138.62 236.701C135.006 232.339 135.773 225.068 136.034 223.246C140.203 220.647 144.249 217.914 148.14 215.031C148.336 217.923 149.144 222.202 152.007 225.319C153.745 227.216 155.988 228.419 158.681 228.921C154.724 232.581 150.947 236.333 147.333 240.169V240.178ZM161.887 226.012C158.599 226.037 156.045 225.093 154.275 223.171C151.208 219.828 151.134 214.438 151.2 212.724C152.146 211.989 153.084 211.245 154.014 210.493C154.259 210.393 154.479 210.242 154.65 210.017C154.659 210 154.667 209.983 154.675 209.967C157.685 207.518 160.598 204.969 163.42 202.345C163.355 205.42 163.779 209.582 165.974 213.009C167.344 215.156 169.237 216.728 171.603 217.739C168.201 220.488 164.962 223.246 161.887 226.021V226.012ZM108.582 132.095C78.7811 122.451 37.7219 77.1382 32.4763 71.238C32.2968 59.8138 33.2594 49.2838 34.7279 40.0743C43.6527 54.2898 77.2882 104.516 105.637 119.592C106.412 123.32 107.383 127.532 108.582 132.095ZM31.1302 93.1588C31.8155 97.8305 32.721 102.594 33.8713 107.424C34.475 110.04 35.1521 112.681 35.9108 115.355C19.4398 115.063 9.46256 106.781 7.34964 104.842C5.75067 96.5936 4.58408 87.6431 4.02118 77.9488C8.53255 82.445 17.7756 89.8578 31.1384 93.1588H31.1302ZM36.8 118.531C36.8 118.531 36.8326 118.531 36.849 118.531C38.7498 124.724 41.0993 131.033 43.9954 137.326C28.8296 140.026 17.9877 134.802 15.3853 133.373C12.7094 126.312 10.2947 118.456 8.36123 109.748C13.2397 113.274 22.8988 118.523 36.8 118.523V118.531ZM103.337 175.752C103.451 175.986 103.565 176.22 103.679 176.454C98.9477 182.321 94.5179 188.689 90.4633 195.4C84.5814 189.801 78.5608 186.391 72.94 184.385C78.724 181.937 88.6441 176.337 95.4968 164.947C98.344 167.629 101.012 171.164 103.337 175.752ZM88.2852 251.059C81.9953 260.527 73.9108 267.255 69.9704 270.222C70.1499 249.254 77.6798 224.082 90.7815 201.041C100 217.856 99.1679 234.67 88.2852 251.059ZM70.4599 281.236C73.6905 286.092 79.3358 292.193 87.8773 293.73C82.6317 300.04 76.6355 306.258 69.8807 312.358C70.3457 306.458 71.0391 294.641 70.4599 281.236ZM91.9073 293.63C91.9073 293.63 91.9236 293.613 91.9318 293.597C91.9399 293.58 91.9562 293.572 91.9644 293.555C90.186 314.155 84.9322 372.354 81.0001 389.629L67.2701 397.259C73.7231 374.118 79.8498 320.573 81.4977 305.48C85.3156 301.519 88.7746 297.566 91.9073 293.622V293.63ZM90.2268 290.83C77.3453 289.702 71.0065 276.23 70.0602 274.032C72.2547 272.478 78.4956 267.806 84.7283 260.644C86.8167 264.113 92.152 270.907 102.423 272.528C99.0374 278.713 94.9665 284.813 90.2186 290.822L90.2268 290.83ZM104.014 269.528C93.0902 268.291 88.1628 260.561 86.8657 258.095C90.757 253.232 94.4526 247.423 96.9571 240.813C99.5432 243.22 104.854 247.164 111.862 247.164C112.041 247.164 112.229 247.148 112.408 247.148C110.565 254.728 107.758 262.19 104.014 269.536V269.528ZM180.674 110.517C188.873 110.726 195.889 114.102 201.804 119.091C201.143 122.409 200.188 132.889 210.019 147.037C209.684 146.828 209.342 146.619 209.007 146.411C208.811 146.294 208.616 146.177 208.42 146.06C208.159 145.901 207.898 145.742 207.637 145.592C186.842 131.276 181.808 115.648 180.674 110.508V110.517ZM226.221 159.682C224.516 158.019 222.329 156.038 219.751 153.949C205.442 138.822 204.284 126.771 204.618 121.657C216.227 133.098 223.145 150.464 226.221 159.682ZM177.493 110.517C178.252 114.662 181.572 126.905 195.4 139.833C195.343 139.817 195.285 139.792 195.228 139.775C170.705 130.072 163.061 115.222 160.981 109.622C165.566 110.266 171.024 110.617 177.501 110.517H177.493ZM143.172 103.831C146.231 105.803 150.784 107.767 157.498 109.054C158.534 112.748 163.225 125.376 180.568 136.048C180.438 136.031 180.316 135.998 180.177 135.981C159.937 133.223 148.295 114.628 143.164 103.831H143.172ZM164.66 181.218C151.42 167.245 142.634 150.305 137.959 129.83C148.736 135.922 156.837 138.847 159.969 139.867C156.666 157.417 159.57 170.997 164.652 181.218H164.66ZM43.4325 6.64567C58.9082 52.6183 81.5793 83.3643 102.929 103.655C103.067 104.825 103.622 109.138 104.83 115.514C75.3139 97.9725 39.7614 42.105 35.5437 35.3692C38.0482 21.9225 41.4664 11.802 43.4325 6.64567ZM7.42306 20.4015C11.4939 26.051 20.7451 37.8429 30.8936 43.8099C30.5184 46.2585 29.6862 52.5097 29.417 61.293C15.834 57.0643 6.4441 45.2055 4.60855 42.7402C4.62487 42.5396 4.64118 42.3474 4.6575 42.1468C5.28567 35.0683 6.21568 27.7642 7.42306 20.4015ZM47.6338 183.065C45.9125 181.602 40.6343 176.831 34.2955 168.348C37.8279 169.067 43.5222 169.886 50.5462 169.886C60.7193 169.886 73.6742 168.064 86.8575 161.336C87.192 161.169 88.0323 160.668 88.6604 160.133C90.1533 160.877 91.6381 161.788 93.0821 162.891C84.3856 177.65 69.742 182.313 67.7841 182.873C57.9945 180.658 50.1465 182.371 47.6257 183.057L47.6338 183.065ZM69.432 316.972C72.4586 314.322 75.3058 311.673 77.9979 309.024C75.7708 328.78 69.5299 380.528 63.4033 399.415L44.7296 409.794C50.2362 397.518 65.043 361.223 69.432 316.972ZM99.3474 379.433L84.5896 387.64C88.8888 365.301 94.1344 303.391 95.301 289.201C99.4861 283.509 102.994 277.852 105.906 272.252C106.061 272.077 106.167 271.868 106.233 271.634C106.314 271.467 106.396 271.308 106.477 271.141C105.784 283.418 104.177 308.364 102.015 321.576C97.7321 340.112 96.8266 359.426 99.3556 379.433H99.3474ZM215.395 190.302L236.002 174.44C239.608 176.722 248.312 180.608 269.001 184.72C251.478 184.41 230.691 185.405 215.395 190.302Z" fill="#FFFFFF"></path>
<path d="M41.2788 415.702C40.7241 415.702 40.202 415.485 39.8022 415.084C39.1333 414.415 38.9783 413.395 39.4107 412.543C39.7288 411.908 71.4961 348.059 66.5034 277.04C66.4381 276.129 66.4055 275.193 66.381 274.266L66.3321 273.397V273.238C65.7855 250.607 73.7232 223.312 88.1302 198.291C82.0117 192.424 75.2161 188.505 67.9066 186.658C67.6455 186.658 67.3926 186.591 67.1397 186.474C56.3467 183.967 48.3274 186.758 47.9929 186.883C47.3402 187.117 46.6142 187 46.0431 186.574C45.5047 186.156 -7.64468 144.22 0.937533 42.9065L1.02727 41.8285C1.76965 33.4462 2.92809 24.7632 4.46995 16.0132C4.62495 15.1357 5.26943 14.4588 6.11786 14.2833C6.97445 14.1078 7.82288 14.4672 8.30421 15.2026C8.41026 15.3697 19.2441 31.733 31.1466 39.5887C34.7932 16.5481 41.6215 1.37988 41.6867 1.23781C42.0702 0.410452 42.8778 -0.0742623 43.7426 0.00930916C44.591 0.0678092 45.3252 0.644452 45.5944 1.48852C60.2543 47.1185 83.5862 83.422 114.929 109.404C138.759 129.152 159.064 135.713 161.887 136.557C163.575 136.239 165.28 135.98 166.969 135.796C145.522 125.216 136.907 98.4565 136.548 97.2865C136.197 96.0496 136.833 94.8629 137.935 94.5202C139.02 94.1692 140.203 94.796 140.554 95.9326C140.66 96.2167 143.18 102.744 158.958 105.568C159.031 105.568 159.195 105.593 159.35 105.635C164.856 106.588 171.415 106.972 178.782 106.763C188.098 106.521 196.827 109.922 204.83 116.876C204.896 116.934 204.936 116.968 204.969 117.001C210.386 121.739 215.379 128.074 219.784 135.813C227.183 148.817 230.805 161.703 231.548 164.52C233.277 166.392 234.942 168.289 236.492 170.152C236.785 170.512 244.176 178.919 303.559 186.382C304.709 186.524 305.533 187.602 305.394 188.789C305.329 189.374 305.043 189.892 304.586 190.243C304.146 190.594 303.591 190.744 303.045 190.669C300.189 190.335 232.772 182.738 206.748 198.099C201.763 201.04 196.811 204.158 192.022 207.35C191.99 207.392 191.924 207.45 191.843 207.5C144.494 238.965 122.851 276.631 114.162 296.278C100.253 329.431 100.473 360.127 103.1 380.034C103.214 380.92 102.782 381.797 102.015 382.223L42.266 415.443C41.956 415.618 41.6052 415.702 41.2625 415.702H41.2788ZM58.1251 184.284C60.8662 184.284 64.0233 184.56 67.4415 185.362L67.5476 185.396C67.7026 185.471 67.825 185.504 67.9473 185.504L68.1105 185.521C75.7627 187.452 82.8602 191.572 89.2234 197.773L89.5497 198.09L89.3213 198.483C74.8735 223.429 66.9113 250.673 67.466 273.221V273.254V273.355L67.515 274.224C67.5476 275.143 67.5721 276.062 67.6373 276.957C72.6464 348.293 40.7404 412.434 40.4222 413.069C40.2183 413.471 40.2917 413.947 40.6099 414.256C40.9117 414.557 41.3931 414.632 41.7765 414.423L101.526 381.212C101.885 381.011 102.089 380.602 102.031 380.184C99.3801 360.127 99.1598 329.214 113.175 295.81C121.913 276.037 143.678 238.163 191.28 206.531L191.386 206.431C196.248 203.171 201.216 200.054 206.225 197.096C232.559 181.552 300.336 189.19 303.208 189.524C303.477 189.558 303.73 189.491 303.934 189.324C304.146 189.157 304.285 188.914 304.309 188.638C304.374 188.087 303.991 187.577 303.452 187.51C244.641 180.122 236.41 171.807 235.659 170.879C234.093 168.999 232.413 167.085 230.659 165.188L230.561 165.08L230.528 164.938C229.884 162.464 226.302 149.485 218.846 136.373C214.506 128.743 209.595 122.508 204.251 117.837L204.504 117.302L204.145 117.736C196.362 110.967 187.821 107.658 178.855 107.892C171.423 108.101 164.783 107.708 159.146 106.73C159.015 106.697 158.942 106.68 158.876 106.68C142.397 103.738 139.656 96.6179 139.542 96.317C139.354 95.732 138.808 95.4312 138.302 95.5983C137.78 95.7571 137.486 96.317 137.633 96.8435C138.025 98.0971 146.99 125.96 169.408 135.621L171.562 136.548L169.237 136.724C166.855 136.899 164.424 137.225 162.009 137.685L161.879 137.71L161.748 137.668C159.456 136.991 138.669 130.481 114.268 110.265C82.7133 84.1657 59.2672 47.6785 44.5339 1.83952C44.4034 1.44674 44.0607 1.17095 43.6528 1.14588C43.2368 1.10409 42.886 1.32138 42.6983 1.72252C42.6331 1.87295 35.7069 17.2585 32.1011 40.6167L31.9706 41.4691L31.2527 41.0178C18.8688 33.2373 7.82288 16.5397 7.35788 15.8377C7.13761 15.4951 6.72971 15.328 6.32997 15.4115C5.93839 15.4951 5.63654 15.8127 5.56312 16.2222C4.02942 24.9387 2.87914 33.5883 2.13676 41.9371L2.05518 42.9985C-6.47809 143.685 46.1736 185.245 46.7121 185.655C46.9813 185.855 47.3158 185.914 47.6258 185.805C47.8705 185.722 51.9495 184.293 58.1333 184.293L58.1251 184.284ZM43.5304 411.139L44.232 409.576C50.1955 396.28 64.5455 360.645 68.8855 316.937L68.91 316.712L69.0813 316.561C72.0182 313.987 74.898 311.321 77.6227 308.639L78.7485 307.535L78.5691 309.123C76.2032 330.075 70.0521 380.836 63.9499 399.623L63.8765 399.84L43.5304 411.156V411.139ZM69.9787 317.28C65.761 359.45 52.2758 394.09 45.9452 408.49L62.9546 399.029C68.8447 380.635 74.8001 332.248 77.2719 310.552C74.9224 312.826 72.475 315.082 69.9787 317.28ZM66.3973 398.428L66.7644 397.116C73.1766 374.134 79.2625 321.133 80.9757 305.438L81.0001 305.237L81.1388 305.095C84.8589 301.234 88.3505 297.256 91.5076 293.278L92.6498 291.857L92.5519 293.621C90.545 316.845 85.4544 372.713 81.5794 389.77L81.5223 390.02L66.3973 398.428ZM82.0688 305.755C80.3557 321.425 74.4737 372.512 68.2002 396.121L80.5433 389.26C84.3776 372.044 89.5416 315.316 91.2792 295.367C88.4321 298.869 85.3402 302.354 82.0688 305.755ZM83.8228 388.742L84.0512 387.547C88.3831 365.049 93.7266 301.652 94.7545 289.166L94.7708 288.999L94.8687 288.866C98.9233 283.35 102.472 277.675 105.425 271.993L105.499 271.884C105.588 271.775 105.654 271.65 105.703 271.491L105.743 271.382L107.195 268.499L107.04 271.19C106.29 284.436 104.707 308.614 102.57 321.692C98.3033 340.162 97.414 359.559 99.9104 379.373L99.9593 379.766L83.8147 388.742H83.8228ZM95.864 289.426C94.8198 302.078 89.6558 363.152 85.381 386.569L98.7683 379.131C96.3127 359.308 97.2264 339.911 101.493 321.467C103.484 309.299 104.993 287.345 105.792 273.748C102.97 279.029 99.633 284.303 95.8722 289.434L95.864 289.426ZM69.2445 313.728L69.3587 312.307C69.8237 306.457 70.509 294.649 69.9379 281.261L69.8482 279.247L70.9576 280.91C74.123 285.665 79.6541 291.657 88.0079 293.161L88.9705 293.337L88.3342 294.097C83.0886 300.415 77.019 306.7 70.2887 312.784L69.2445 313.728ZM71.129 283.124C71.5369 294.791 71.0147 305.062 70.5824 310.987C76.5948 305.48 82.0688 299.805 86.8576 294.106C79.5317 292.468 74.4003 287.554 71.1208 283.124H71.129ZM106.265 308.221L106.665 303.775C108.256 286.141 109.202 266.092 109.308 263.861L109.357 263.635C111.421 258.713 113.11 253.69 114.375 248.701L114.888 246.662L115.451 248.684C116.039 250.79 116.83 252.612 117.866 254.242C120.346 258.136 124.115 260.777 129.067 262.098L129.858 262.307L129.377 262.992C121.505 274.124 115.052 285.807 110.198 297.699C109.268 299.914 108.444 302.036 107.742 304.034L106.257 308.229L106.265 308.221ZM110.426 263.995C110.312 266.494 109.496 283.509 108.142 299.805C108.476 298.969 108.819 298.117 109.178 297.248C113.967 285.514 120.297 273.99 128.015 262.992C123.161 261.538 119.441 258.813 116.936 254.877C116.169 253.665 115.508 252.32 114.97 250.857C113.771 255.262 112.245 259.674 110.426 264.003V263.995ZM90.5124 291.431L90.2187 291.406C77.1251 290.261 70.7374 276.932 69.5871 274.274L69.3995 273.839L69.7829 273.572C72.1161 271.926 78.2183 267.321 84.3531 260.276L84.8507 259.699L85.2423 260.351C87.4531 264.02 92.6416 270.405 102.545 271.976L103.345 272.101L102.953 272.82C99.5596 279.013 95.4398 285.197 90.7 291.197L90.5124 291.431ZM70.8026 274.232C72.2956 277.517 78.3325 289.024 90.0147 290.228C94.4608 284.578 98.344 278.779 101.583 272.962C92.2908 271.224 87.1268 265.382 84.6876 261.588C78.9525 268.065 73.3316 272.41 70.7945 274.232H70.8026ZM69.4321 271.357V270.212C69.6197 249.094 77.2311 223.78 90.3247 200.748L90.8142 199.879L91.2955 200.756C100.628 217.78 99.7799 234.812 88.7747 251.384C82.5094 260.819 74.5308 267.53 70.3295 270.689L69.4239 271.366L69.4321 271.357ZM90.7979 202.202C78.3406 224.407 71.0148 248.643 70.5742 269.059C74.8898 265.716 82.1096 259.382 87.8529 250.732C98.4012 234.837 99.3964 218.515 90.7979 202.202ZM104.365 270.137L103.981 270.095C92.7232 268.817 87.6815 260.794 86.4007 258.362L86.2213 258.019L86.4578 257.719C90.8876 252.186 94.2569 246.42 96.4595 240.595L96.7532 239.818L97.3569 240.377C99.8451 242.692 105.042 246.578 111.886 246.578C111.984 246.578 112.09 246.578 112.188 246.57L113.151 246.537L112.971 247.272C111.136 254.819 108.297 262.399 104.528 269.786L104.348 270.137H104.365ZM87.5673 258.145C89.0113 260.744 93.7429 267.613 103.72 268.9C107.236 261.939 109.92 254.819 111.707 247.723C105.091 247.665 99.9757 244.197 97.2019 241.773C94.9911 247.347 91.7524 252.855 87.5592 258.145H87.5673ZM131.172 260.476L130.821 260.401C125.722 259.331 121.921 256.891 119.53 253.13C116.357 248.15 116.161 241.815 116.553 237.369V237.344C116.659 236.542 116.757 235.731 116.846 234.937C116.952 234.227 117.058 233.642 117.14 233.24L117.197 232.965L117.45 232.839C122.549 230.374 127.607 227.658 132.477 224.758L133.375 224.223L133.317 225.284C133.146 228.427 133.358 234.302 136.711 238.355C138.628 240.67 141.312 242.091 144.698 242.575L145.766 242.726L145.032 243.536C142.136 246.729 139.436 249.88 136.988 252.905C135.071 255.278 133.195 257.727 131.392 260.176L131.18 260.468L131.172 260.476ZM117.662 237.486C117.287 241.748 117.475 247.807 120.469 252.504C122.639 255.913 126.081 258.161 130.707 259.198C132.453 256.824 134.272 254.468 136.124 252.178C138.384 249.378 140.864 246.478 143.507 243.536C140.325 242.885 137.755 241.397 135.855 239.107C132.714 235.313 132.069 230.215 132.159 226.279C127.615 228.953 122.916 231.469 118.184 233.759C118.119 234.118 118.037 234.569 117.956 235.096C117.874 235.873 117.776 236.684 117.67 237.494L117.662 237.486ZM111.903 244.523C104.618 244.523 99.2414 239.5 97.7077 237.887L97.4711 237.645L97.569 237.319C98.7356 233.474 99.4046 229.555 99.5596 225.686L99.5841 225.017L100.22 225.142C101.314 225.36 102.448 225.468 103.606 225.468C106.257 225.468 110.344 224.867 114.766 222.008L115.598 221.465L115.623 222.476C115.794 229.714 115.141 236.959 113.681 244.013L113.591 244.431L113.175 244.464C112.735 244.498 112.311 244.514 111.886 244.514L111.903 244.523ZM98.7438 237.327C100.522 239.124 105.768 243.72 112.686 243.353C113.999 236.842 114.619 230.173 114.53 223.504C110.206 226.062 106.241 226.622 103.614 226.622C102.611 226.622 101.615 226.546 100.653 226.388C100.457 230.031 99.8125 233.708 98.7438 237.327ZM147.594 240.745H147.357C143.303 240.72 140.227 239.483 138.22 237.068C134.5 232.572 135.202 225.284 135.504 223.162L135.545 222.894L135.773 222.752C139.991 220.128 144.045 217.37 147.839 214.562L148.654 213.961L148.728 214.988C148.924 217.88 149.723 221.958 152.44 224.925C154.088 226.722 156.225 227.875 158.811 228.36L159.929 228.569L159.08 229.354C155.189 232.956 151.379 236.734 147.757 240.578L147.594 240.754V240.745ZM136.581 223.588C136.336 225.493 135.748 232.304 139.077 236.324C140.823 238.43 143.531 239.533 147.129 239.592C150.466 236.057 153.957 232.58 157.53 229.246C155.189 228.619 153.198 227.432 151.624 225.711C148.989 222.836 148.018 219.05 147.7 216.083C144.184 218.657 140.447 221.173 136.581 223.596V223.588ZM117.205 230.708L117.262 229.739C117.45 226.271 117.458 222.744 117.287 219.251C117.156 216.618 116.92 213.994 116.602 211.412L116.536 210.902L117.018 210.776C121.774 209.548 137.723 205.244 143.034 201.199L143.433 200.898L143.776 201.266C146.174 203.848 148.703 206.28 151.298 208.495L151.836 208.955L151.281 209.389C141.231 217.345 130.054 224.374 118.07 230.282L117.213 230.7L117.205 230.708ZM117.768 211.763C118.062 214.211 118.274 216.693 118.396 219.134C118.56 222.393 118.568 225.635 118.421 228.828C129.793 223.153 140.423 216.459 150.033 208.921C147.716 206.907 145.448 204.718 143.286 202.419C137.649 206.364 122.957 210.417 117.76 211.763H117.768ZM161.764 226.58C158.387 226.58 155.736 225.56 153.892 223.555C150.661 220.036 150.604 214.345 150.669 212.69V212.414L150.89 212.247C151.836 211.52 152.766 210.776 153.696 210.024L153.835 209.941C153.982 209.882 154.104 209.799 154.202 209.69L154.357 209.498C157.277 207.116 160.214 204.567 163.078 201.901L164.04 200.999L164.008 202.336C163.943 205.202 164.318 209.322 166.472 212.665C167.769 214.696 169.58 216.209 171.848 217.178L172.729 217.554L171.978 218.156C168.666 220.83 165.403 223.605 162.286 226.421L162.131 226.563H161.919C161.87 226.563 161.821 226.563 161.772 226.563L161.764 226.58ZM151.779 212.999C151.746 214.821 151.926 219.735 154.708 222.769C156.323 224.524 158.672 225.418 161.699 225.435C164.563 222.861 167.54 220.32 170.559 217.855C168.478 216.802 166.79 215.273 165.533 213.309C163.543 210.2 162.964 206.514 162.89 203.623C160.337 205.971 157.726 208.219 155.132 210.342L155.107 210.375C154.903 210.634 154.642 210.843 154.324 210.985C153.484 211.662 152.636 212.339 151.771 213.008L151.779 212.999ZM103.606 223.454C102.048 223.454 100.808 223.229 100.008 223.028L99.6004 222.928L99.5841 222.493C99.4535 218.432 98.7519 214.328 97.5119 210.275L97.3569 209.765L97.8464 209.573C100.677 208.436 107.66 205.169 111.487 199.444L112.188 198.4L112.498 199.628C114.097 206.005 115.101 212.423 115.492 218.716L115.508 219.025L115.264 219.209C110.785 222.627 106.608 223.454 103.614 223.454H103.606ZM100.694 222.008C103.076 222.518 108.387 222.903 114.35 218.465C113.975 212.732 113.086 206.89 111.699 201.082C107.832 206.155 101.73 209.18 98.7438 210.425C99.8778 214.261 100.539 218.156 100.694 222V222.008ZM174.711 216L174.45 215.933C171.66 215.231 169.539 213.76 168.136 211.579C165.248 207.091 165.998 200.806 166.3 198.985L166.333 198.801L166.463 198.667C168.413 196.753 170.347 194.764 172.207 192.742L172.631 192.282L173.039 192.75C178.798 199.453 184.86 203.497 187.96 205.311L188.751 205.771L187.992 206.289C183.571 209.289 179.174 212.498 174.923 215.824L174.711 215.991V216ZM167.377 199.361C167.083 201.283 166.504 206.949 169.074 210.944C170.273 212.816 172.084 214.094 174.466 214.746C178.431 211.654 182.518 208.662 186.63 205.846C183.383 203.865 177.901 200.012 172.606 193.979C170.901 195.809 169.147 197.614 167.377 199.361ZM116.259 208.879L116.161 208.261C115.557 204.417 114.733 200.489 113.689 196.603L113.526 195.993L114.13 195.884C117.882 195.199 130.487 192.834 135.071 191.229L135.455 191.095L135.7 191.43C137.608 194.054 139.632 196.586 141.696 198.951L142.112 199.427L141.598 199.795C137.413 202.846 124.066 206.832 116.838 208.712L116.243 208.863L116.259 208.879ZM114.937 196.904C115.859 200.422 116.61 203.965 117.173 207.459C125.918 205.152 136.491 201.717 140.439 199.227C138.587 197.079 136.776 194.806 135.055 192.449C130.47 193.962 119.938 195.984 114.937 196.904ZM96.7043 207.835L96.5003 207.292C95.3664 204.275 93.8979 201.208 92.1358 198.182L91.9645 197.881L92.144 197.589C95.9293 191.237 100.131 185.12 104.65 179.395L105.229 178.66L105.964 180.382C108.044 185.237 109.839 190.218 111.291 195.182L111.348 195.374L111.274 195.558C108.705 202.286 100.604 206.23 97.2346 207.617L96.7043 207.835ZM93.2779 197.898C94.8932 200.698 96.2556 203.531 97.3406 206.33C100.31 205.043 107.758 201.299 110.165 195.324C108.737 190.477 106.983 185.605 104.944 180.858C100.751 186.24 96.8267 191.965 93.2779 197.898ZM153.427 207.659L153.076 207.367C119.065 178.752 108.435 123.352 105.988 107.056L105.752 105.493L106.91 106.538C115.68 114.46 125.004 121.405 134.639 127.197L134.851 127.322L134.9 127.573C140.309 153.706 152.024 174.306 170.722 190.552L171.171 190.945L170.763 191.388C165.566 197.004 159.855 202.386 153.778 207.383L153.419 207.676L153.427 207.659ZM107.334 108.435C110.173 126.286 121.015 178.593 153.435 206.18C159.178 201.433 164.595 196.335 169.547 191.029C150.971 174.732 139.297 154.123 133.856 128.057C124.662 122.517 115.745 115.923 107.334 108.443V108.435ZM190.668 204.5L190.383 204.35C188.098 203.163 180.12 198.625 173.169 189.934C162.368 176.429 158.811 159.631 162.596 139.991L162.67 139.607L163.045 139.54C171.089 138.086 179.092 138.203 186.842 139.883C201.225 143.468 212.727 151.374 219.841 157.383C222.827 159.973 225.821 162.882 228.75 166.024L228.994 166.291C230.748 168.18 232.421 170.086 234.003 171.991L234.387 172.459L202.562 196.945C198.516 199.394 194.6 201.876 190.937 204.341L190.668 204.525V204.5ZM163.616 140.602C160.027 159.714 163.526 176.069 174.034 189.207C180.585 197.388 188.049 201.809 190.603 203.171C194.201 200.773 198.018 198.341 201.975 195.951L232.763 172.258C231.311 170.528 229.778 168.79 228.203 167.094C228.146 167.044 228.097 166.993 228.048 166.943L227.918 166.793C225.038 163.701 222.068 160.826 219.115 158.26C212.091 152.335 200.743 144.529 186.581 141.003C179.108 139.381 171.374 139.248 163.608 140.61L163.616 140.602ZM90.6266 196.277L90.1289 195.8C84.8752 190.795 79.0422 187.134 72.8014 184.903L71.4145 184.41L72.7769 183.833C78.1612 181.552 88.2118 176.019 95.0727 164.628L95.4316 164.035L95.9293 164.503C98.9885 167.386 101.664 171.072 103.891 175.468C104.006 175.71 104.128 175.944 104.242 176.186L104.397 176.521L104.169 176.805C99.4862 182.613 95.0564 188.973 91.0019 195.692L90.6429 196.285L90.6266 196.277ZM74.4982 184.318C80.1925 186.549 85.5278 189.967 90.39 194.488C94.3058 188.053 98.5643 181.953 103.059 176.353C103.002 176.228 102.937 176.111 102.88 175.994C100.84 171.958 98.4093 168.539 95.6519 165.823C89.1663 176.245 80.1028 181.735 74.4982 184.318ZM112.988 194.029L112.841 193.544C111.462 188.881 109.757 184.184 107.783 179.571L107.032 177.816L107.962 177.891C115.696 178.501 124.335 178.117 126.799 177.983L127.142 177.966L127.313 178.276C129.369 181.944 131.563 185.471 133.815 188.747L134.264 189.399L133.521 189.625C129.434 190.87 120.167 192.733 113.477 193.945L112.988 194.037V194.029ZM108.803 179.095C110.728 183.599 112.4 188.179 113.763 192.717C119.987 191.58 128.21 189.925 132.444 188.73C130.389 185.705 128.398 182.479 126.505 179.136C123.756 179.278 116.014 179.588 108.794 179.095H108.803ZM212.491 191.831L236.002 173.738L236.328 173.947C240.179 176.387 248.998 180.148 269.14 184.151L269.026 185.287C253.436 185.011 231.507 185.755 215.591 190.845L212.491 191.839V191.831ZM236.067 175.125L218.21 188.864C231.956 185.07 249.267 184.092 263.25 184.084C247.399 180.599 239.747 177.365 236.067 175.117V175.125ZM166.888 184.326L164.301 181.593C150.955 167.503 142.177 150.605 137.462 129.938L137.176 128.684L138.277 129.311C149.095 135.428 157.204 138.337 160.19 139.298L160.663 139.448L160.565 139.95C157.694 155.193 159.26 168.982 165.199 180.933L166.888 184.326ZM138.84 130.932C143.27 149.56 151.094 165.055 162.686 178.159C157.946 166.893 156.829 154.157 159.366 140.234C156.143 139.164 148.663 136.39 138.832 130.932H138.84ZM47.5279 183.683L47.3076 183.49C45.7902 182.203 40.3488 177.34 33.8795 168.682L32.9822 167.478L34.4343 167.771C37.2406 168.339 43.0736 169.3 50.579 169.3C63.4686 169.3 75.5995 166.442 86.6455 160.809C86.9392 160.659 87.7387 160.182 88.3423 159.681L88.6197 159.447L88.946 159.606C90.5205 160.391 92.0379 161.336 93.4574 162.422L93.8653 162.731L93.6042 163.174C84.7447 178.2 69.6687 182.93 67.98 183.415L67.8413 183.457L67.7026 183.424C57.9048 181.209 49.9997 183.006 47.8134 183.607L47.536 183.683H47.5279ZM35.6661 169.175C41.3849 176.638 46.141 180.992 47.7971 182.421C50.375 181.744 58.1985 180.139 67.7923 182.27C69.9542 181.627 83.8962 176.997 92.3642 163.032C91.214 162.188 90.0066 161.444 88.7584 160.801C88.1547 161.26 87.4694 161.67 87.135 161.837C75.934 167.553 63.6318 170.445 50.5708 170.445C44.0934 170.445 38.8314 169.743 35.658 169.175H35.6661ZM117.466 176.195C113.983 176.195 110.075 176.086 106.51 175.727L106.2 175.693L106.062 175.409C103.108 169.2 99.3148 164.319 94.7708 160.859L92.8619 159.405L95.2032 159.831C103.41 161.327 114.309 163.174 119.653 163.475L119.995 163.492L120.134 163.809C121.855 167.729 123.699 171.556 125.624 175.167L126.057 175.977L125.159 176.019C123.25 176.103 120.517 176.186 117.475 176.186L117.466 176.195ZM106.934 174.615C113.02 175.192 120.036 175.075 124.213 174.916C122.484 171.615 120.819 168.155 119.253 164.612C114.228 164.277 104.903 162.748 97.1775 161.361C101.036 164.737 104.308 169.191 106.934 174.615ZM50.5708 167.219C40.1694 167.219 32.7456 165.28 31.3016 164.879L31.1058 164.821L30.9916 164.653C25.4686 156.614 20.6391 147.638 16.6498 137.986L16.1196 136.699L17.3759 137.225C21.1367 138.805 27.3042 140.693 35.3398 140.693C38.5622 140.693 41.9233 140.359 45.3252 139.691L45.7413 139.607L45.9289 140C49.3063 146.936 53.2303 153.58 57.603 159.739C57.6438 159.798 57.6927 159.84 57.7335 159.873C57.8314 159.957 57.8641 159.99 57.8885 160.024C57.9375 160.065 58.0435 160.099 58.117 160.124L58.2393 160.182C58.2393 160.182 58.3046 160.174 58.4025 160.182L58.5493 160.199L58.8104 160.115C59.1775 159.957 67.0255 156.321 76.4561 156.622C77.4677 156.656 78.5038 156.739 79.7357 156.89C80.3801 157.015 81.8894 157.316 84.0023 157.734L84.3123 157.817C84.6223 157.901 84.9241 157.984 85.226 158.076L86.5639 158.503L85.3973 159.171C72.8014 165.506 60.3522 167.227 50.5545 167.227L50.5708 167.219ZM31.7992 163.826C35.3072 164.787 58.9735 170.537 83.5618 158.803C81.5875 158.419 80.1599 158.135 79.5725 158.018C78.4222 157.876 77.4106 157.792 76.4398 157.767C67.2621 157.475 59.6507 161.001 59.3325 161.152C59.2183 161.21 59.1122 161.227 59.0388 161.244L58.9328 161.269C58.8512 161.294 58.7451 161.327 58.6228 161.344H58.5575L58.4025 161.336C58.2556 161.336 58.0762 161.336 57.8967 161.277L57.7335 161.21C57.6275 161.177 57.4317 161.102 57.244 160.968L57.0727 160.809C56.934 160.684 56.828 160.6 56.7383 160.458C52.3819 154.324 48.4905 147.764 45.1294 140.911C41.801 141.538 38.5133 141.855 35.348 141.855C27.965 141.855 22.1239 140.301 18.2162 138.805C22.0423 147.839 26.6026 156.246 31.7992 163.834V163.826ZM227.542 161.687L225.886 160.074C223.953 158.185 221.726 156.221 219.45 154.374C204.675 138.755 203.803 126.244 204.104 121.589L204.186 120.361L205.051 121.213C216.7 132.687 223.675 150.104 226.792 159.464L227.526 161.678L227.542 161.687ZM205.189 122.96C205.173 128.225 207.009 139.565 220.208 153.53C221.84 154.85 223.48 156.263 224.997 157.667C221.709 148.349 215.297 133.406 205.189 122.96ZM119.114 161.419L118.184 161.336C109.733 160.567 91.679 157.149 84.3123 155.72C81.767 155.034 79.1238 154.658 76.4235 154.591C68.5184 154.374 61.7554 156.731 59.2183 157.759L58.8022 157.926L58.5493 157.55C49.8203 144.396 43.1389 130.205 38.6928 115.371L38.1951 113.708L39.5657 114.745C50.9298 123.336 80.9675 143.978 114.472 150.17L114.791 150.229L114.897 150.538C116.096 153.923 117.393 157.291 118.747 160.542L119.114 161.428V161.419ZM76.448 153.438C79.2299 153.513 81.9628 153.898 84.5489 154.6C91.6055 155.97 108.607 159.188 117.344 160.107C116.153 157.207 115.011 154.232 113.942 151.24C81.612 145.165 52.5695 125.818 40.2672 116.692C44.6318 130.673 51.0032 144.061 59.2183 156.522C62.0899 155.402 68.7142 153.229 76.4398 153.438H76.448ZM212.124 148.984L209.782 147.513C209.448 147.304 209.113 147.095 208.771 146.886L207.408 146.075C202.008 142.365 184.207 128.902 180.177 110.616L180.022 109.897L180.74 109.914C188.376 110.115 195.596 113.04 202.212 118.622L202.473 118.84L202.407 119.182C201.828 122.057 200.711 132.554 210.533 146.686L212.124 148.984ZM181.45 111.092C182.779 116.399 188.139 131.425 208.004 145.098L208.192 145.206C200.131 132.57 200.547 123.169 201.249 119.291C195.114 114.193 188.465 111.435 181.45 111.084V111.092ZM114.016 148.014L113.061 147.822C74.7837 140.134 41.1565 113.549 37.4446 110.541L37.2977 110.424L37.2488 110.24C36.849 108.727 36.4738 107.223 36.123 105.719C34.0182 96.3588 32.6885 86.581 32.1582 76.6527L32.0685 75.0063L33.1372 76.2348C44.2484 89.0714 82.1667 127.439 109.749 135.111L110.051 135.194L110.141 135.504C111.234 139.415 112.425 143.301 113.689 147.062L114.007 148.006L114.016 148.014ZM38.2849 109.764C42.5923 113.232 75.1508 138.713 112.319 146.502C111.201 143.117 110.132 139.64 109.153 136.139C97.0306 132.679 81.9791 123.361 64.4149 108.418C51.3948 97.345 39.843 85.5447 33.3737 78.2238C33.953 87.5253 35.2501 96.6764 37.2162 105.46C37.5425 106.88 37.9096 108.318 38.2849 109.755V109.764ZM197.872 141.312L195.073 140.292C170.477 130.556 162.703 115.731 160.5 109.805L160.165 108.903L161.104 109.037C165.933 109.722 171.464 110.014 177.534 109.922H178.007L178.097 110.39C178.921 114.895 182.306 126.737 195.832 139.39L197.88 141.304L197.872 141.312ZM161.895 110.307C164.367 116.341 171.872 129.11 192.936 138.178C181.335 126.495 178.015 115.739 177.077 111.076C171.521 111.143 166.423 110.884 161.895 110.299V110.307ZM35.4377 138.663C24.8649 138.663 17.5146 135.169 15.1651 133.874L14.9856 133.774L14.9122 133.573C12.0569 126.027 9.68291 118.054 7.86367 109.872L7.53735 108.418L8.72842 109.279C13.2072 112.513 22.8254 117.945 36.8409 117.945V118.522L36.8572 117.945H37.2733L37.4283 118.346C39.4107 124.798 41.801 131.099 44.542 137.075L44.852 137.752L44.126 137.877C41.0341 138.429 38.1299 138.654 35.4296 138.654L35.4377 138.663ZM15.8748 132.963C18.9422 134.609 29.0582 139.189 43.2204 136.874C40.6425 131.183 38.3828 125.208 36.4819 119.09C23.4781 119.007 14.2106 114.343 9.26685 111.042C11.0127 118.597 13.2316 125.968 15.8667 132.963H15.8748ZM183.253 136.983L180.161 136.54C159.668 133.749 147.904 114.995 142.715 104.072L141.859 102.259L143.523 103.329C147.08 105.627 151.836 107.357 157.653 108.468L157.995 108.535L158.093 108.878C159.097 112.455 163.714 124.957 180.919 135.537L183.261 136.983H183.253ZM144.559 105.276C149.788 115.681 160.418 131.425 177.958 134.994C162.817 124.857 158.273 113.416 157.106 109.53C152.138 108.552 147.928 107.123 144.559 105.268V105.276ZM109.431 132.946L108.452 132.629C78.3814 122.901 36.743 76.8365 32.0929 71.6133L31.9542 71.4545V71.2372C31.7829 60.9245 32.5416 50.4029 34.214 39.9732L34.4506 38.5023L35.2419 39.7559C39.272 46.1658 75.4609 102.869 105.939 119.074L106.176 119.199L106.233 119.466C107.098 123.62 108.085 127.815 109.17 131.944L109.439 132.955L109.431 132.946ZM33.0474 71.02C38.2685 76.87 78.3651 121.021 107.791 131.225C106.828 127.498 105.947 123.72 105.164 119.976C75.9422 104.265 41.752 52.1412 35.0624 41.6446C33.5777 51.4559 32.9006 61.3257 33.0393 71.02H33.0474ZM105.629 116.65L104.56 116.015C74.8653 98.3812 39.068 42.0541 35.0869 35.6943L34.9645 35.5021L35.0053 35.2765C37.5506 21.6042 41.0586 11.35 42.9186 6.45267L43.4733 4.99852L43.971 6.47774C57.2359 45.8733 77.1985 78.4327 103.312 103.253L103.459 103.396L103.484 103.604C103.622 104.766 104.169 109.045 105.384 115.421L105.621 116.658L105.629 116.65ZM36.1475 35.2681C40.6099 42.38 75.0774 96.3588 104.055 114.377C103.051 108.978 102.562 105.259 102.407 103.947C76.554 79.327 56.7138 47.1687 43.4162 8.33302C41.4991 13.5897 38.4399 23.0332 36.1475 35.2681ZM36.6777 115.948L35.919 115.931C19.1136 115.63 8.87527 106.997 6.99077 105.276L6.85208 105.151L6.81945 104.967C5.1389 96.3254 4.02126 87.2495 3.48283 77.9982L3.39309 76.519L4.42916 77.5469C8.63053 81.7338 17.7104 89.2552 31.2853 92.6148L31.6524 92.7067L31.7095 93.0912C32.4029 97.8297 33.3166 102.61 34.4424 107.298C35.0706 110.006 35.7477 112.664 36.4738 115.204L36.6859 115.948H36.6777ZM7.87183 104.549C9.99291 106.454 19.5867 114.251 35.1767 114.77C34.524 112.438 33.9122 110.023 33.3411 107.566C32.2479 102.969 31.3424 98.2893 30.649 93.6344C18.0367 90.4252 9.28317 83.7145 4.68205 79.3771C5.24496 88.01 6.31365 96.4675 7.87183 104.549ZM31.3506 90.5506L30.5429 90.3333C15.2548 86.1547 5.88944 76.2682 3.37677 73.3349L3.24625 73.1845V72.9839C2.9444 64.6685 3.0994 56.0356 3.70309 47.3107L3.80099 45.9235L4.69021 46.9765C8.84263 51.8905 17.588 60.6487 29.5068 64.0501L29.9229 64.1671V64.61C29.8903 67.1757 29.9066 69.8082 29.9882 72.4323C30.1187 78.2489 30.5429 84.0655 31.2445 89.7065L31.3506 90.5506ZM4.35574 72.7248C6.94182 75.7167 15.7769 84.8427 30.029 88.9878C29.3845 83.5724 28.9929 78.0065 28.8624 72.449C28.7889 69.9586 28.7645 67.4598 28.7808 65.0195C17.5799 61.6934 9.19343 53.8126 4.72284 48.7482C4.20073 56.8964 4.07836 64.9527 4.34758 72.7248H4.35574ZM29.9637 62.0778L29.2621 61.8605C15.4669 57.5733 5.94654 45.4805 4.17626 43.1071L4.04573 42.9316L4.11099 42.1126C4.73916 35.0257 5.66917 27.6965 6.87656 20.3255L7.09682 18.9884L7.87999 20.0748C12.3424 26.2675 21.2999 37.5162 31.1792 43.3327L31.5137 43.5333L31.4566 43.9261C31.1058 46.2076 30.2574 52.4755 29.9882 61.3424L29.9637 62.0945V62.0778ZM5.19601 42.5806C7.18656 45.2215 16.1114 56.2696 28.8868 60.5317C29.1642 52.4587 29.9147 46.6171 30.2819 44.1183C20.9165 38.4772 12.4403 28.1729 7.76578 21.8298C6.66445 28.7245 5.80786 35.5773 5.22048 42.2045L5.18785 42.5722L5.19601 42.5806Z" fill="#FFFFFF"></path>
</svg>