<svg width="268" height="297" viewBox="0 0 268 297" fill="none" xmlns="http://www.w3.org/2000/svg">
<path d="M53.9935 124.704L41.5961 137.389C40.718 138.288 40.718 139.721 41.5961 140.619L53.9935 153.304C55.3942 154.737 57.7985 153.732 57.7985 151.7V126.309C57.7985 124.277 55.3942 123.271 53.9935 124.704Z" fill="#FFFFFF"></path>
<path d="M197.079 71.5H179.538C177.552 71.5 176.57 73.96 177.97 75.3932L195.511 93.3402C196.912 94.7734 199.316 93.768 199.316 91.7358V73.7888C199.316 72.5268 198.312 71.5 197.079 71.5Z" fill="#FFFFFF"></path>
<path d="M161.307 72.1787C160.889 71.7509 160.325 71.5156 159.739 71.5156H106.93C106.344 71.5156 105.78 71.7509 105.362 72.1787L86.6925 91.2809L68.0231 110.383C67.605 110.811 67.375 111.388 67.375 111.987V166.021C67.375 166.62 67.605 167.197 68.0231 167.625L105.362 205.829C105.78 206.257 106.344 206.492 106.93 206.492H159.739C160.325 206.492 160.889 206.257 161.307 205.829L198.646 167.625C199.064 167.197 199.294 166.62 199.294 166.021V111.987C199.294 111.388 199.064 110.811 198.646 110.383L161.307 72.1787Z" fill="#FFFFFF"></path>
<path d="M195.48 184.689L177.939 202.636C176.538 204.069 177.521 206.529 179.507 206.529H197.048C198.281 206.529 199.285 205.502 199.285 204.24V186.293C199.285 184.261 196.88 183.256 195.48 184.689Z" fill="#FFFFFF"></path>
<path d="M67.3438 186.293V204.24C67.3438 205.502 68.3473 206.529 69.5807 206.529H87.1212C89.1073 206.529 90.0899 204.069 88.6891 202.636L71.1487 184.689C69.748 183.256 67.3438 184.261 67.3438 186.293Z" fill="#FFFFFF"></path>
<path d="M71.159 93.3303L79.9397 84.3461L88.7204 75.3619C90.1211 73.9287 89.1385 71.4688 87.1524 71.4688H69.612C68.3785 71.4688 67.375 72.4955 67.375 73.7576V91.7046C67.375 93.7367 69.7792 94.7421 71.18 93.3089L71.159 93.3303Z" fill="#FFFFFF"></path>
<path d="M145.729 61.7518C147.715 61.7518 148.698 59.2918 147.297 57.8586L134.9 45.1738C134.022 44.2754 132.621 44.2754 131.743 45.1738L119.345 57.8586C117.945 59.2918 118.927 61.7518 120.913 61.7518H145.729Z" fill="#FFFFFF"></path>
<path d="M145.729 216.297H120.913C118.927 216.297 117.945 218.757 119.345 220.19L131.743 232.875C132.621 233.773 134.022 233.773 134.9 232.875L147.297 220.19C148.698 218.757 147.715 216.297 145.729 216.297Z" fill="#FFFFFF"></path>
<path d="M212.649 153.32L225.046 140.635C225.924 139.736 225.924 138.303 225.046 137.405L212.649 124.72C211.248 123.287 208.844 124.292 208.844 126.324V151.715C208.844 153.747 211.248 154.753 212.649 153.32Z" fill="#FFFFFF"></path>
<path d="M133.947 0C60.0849 0 0 61.4776 0 137.052C0 212.626 60.0849 274.104 133.947 274.104C141.682 274.104 149.25 273.419 156.63 272.136L155.397 270.874L133.32 248.285L118.79 263.151C114.88 262.659 111.034 261.996 107.25 261.141L124.999 242.98C125.877 242.081 125.877 240.648 124.999 239.75L102.692 216.926C102.274 216.498 101.709 216.262 101.124 216.262H69.5764C68.3429 216.262 67.3394 217.289 67.3394 218.551V244.242C64.0571 242.103 60.8584 239.793 57.8061 237.354V218.551C57.8061 217.289 56.8026 216.262 55.5691 216.262H36.9206C34.4746 213.118 32.154 209.867 30.0006 206.508H55.5691C56.8026 206.508 57.8061 205.481 57.8061 204.219V171.94C57.8061 171.341 57.5761 170.764 57.158 170.336L34.8509 147.512C33.9728 146.614 32.5721 146.614 31.694 147.512L13.1501 166.486C12.272 162.678 11.5403 158.806 10.9967 154.87L26.5302 138.977L10.5577 122.634C10.9967 118.613 11.6239 114.634 12.4184 110.741L31.694 130.463C32.5721 131.362 33.9728 131.362 34.8509 130.463L57.158 107.639C57.5761 107.211 57.8061 106.634 57.8061 106.035V73.756C57.8061 72.4939 56.8026 71.4672 55.5691 71.4672H27.5755C29.5616 68.1088 31.694 64.8574 33.9728 61.7129H57.8061V36.7283C60.8793 34.2897 64.0571 31.9795 67.3394 29.8404V59.4241C67.3394 60.6861 68.3429 61.7129 69.5764 61.7129H101.124C101.709 61.7129 102.274 61.4776 102.692 61.0498L124.999 38.2256C125.877 37.3272 125.877 35.894 124.999 34.9956L104.155 13.6688C107.856 12.7276 111.598 11.9575 115.403 11.38L131.752 28.1077C132.63 29.0061 134.031 29.0061 134.909 28.1077L151.404 11.2302C155.251 11.7864 159.035 12.5351 162.756 13.4335L141.682 34.9956C140.804 35.894 140.804 37.3272 141.682 38.2256L163.989 61.0498C164.408 61.4776 164.972 61.7129 165.557 61.7129H197.105C198.339 61.7129 199.342 60.6861 199.342 59.4241V29.0275C202.624 31.1238 205.823 33.3485 208.875 35.7443V61.7129H233.942C236.221 64.8574 238.353 68.1088 240.339 71.4672H211.112C209.879 71.4672 208.875 72.4939 208.875 73.756V106.035C208.875 106.634 209.105 107.211 209.524 107.639L231.831 130.463C232.709 131.362 234.109 131.362 234.987 130.463L255.267 109.714C256.103 113.586 256.751 117.522 257.232 121.522L240.172 138.977L256.814 156.004C256.249 159.897 255.497 163.748 254.577 167.534L235.008 147.512C234.13 146.614 232.73 146.614 231.852 147.512L209.544 170.336C209.126 170.764 208.896 171.341 208.896 171.94V204.219C208.896 205.481 209.9 206.508 211.133 206.508H237.956C235.803 209.888 233.482 213.139 231.036 216.262H211.154C209.921 216.262 208.917 217.289 208.917 218.551V250.616C244.521 225.953 267.957 184.262 267.957 137.052C267.894 61.4776 207.809 0 133.947 0Z" fill="#FFFFFF"></path>
<path d="M199.259 216.297H197.043H165.495C164.91 216.297 164.345 216.532 163.927 216.96L161.648 219.292L140.031 241.41L192.297 294.887C194.095 296.727 196.144 296.042 196.75 295.786C197.336 295.529 199.259 294.524 199.259 291.935V255.057V218.586V216.318V216.297Z" fill="#FFFFFF"></path>
</svg>