<svg width="315" height="312" viewBox="0 0 315 312" fill="none" xmlns="http://www.w3.org/2000/svg">
<path d="M214.578 98.9095C210.653 43.9784 163.493 0 107.43 0H99.8986V99.207C44.4182 103.075 0 149.787 0 205.276L0 212.733H100.199C104.106 267.664 151.285 311.642 207.329 311.642H214.86V212.435C270.34 208.567 314.759 161.855 314.759 106.366V98.9095H214.559H214.578ZM214.879 197.521V148.429L204.587 148.281C184.997 147.035 168.996 132.567 165.596 113.823H299.414C295.771 158.322 259.823 193.914 214.879 197.521ZM99.9174 114.121V163.213L110.21 163.38C129.799 164.626 145.801 179.093 149.2 197.838H15.3632C19.0068 153.339 54.9546 117.747 99.8986 114.139L99.9174 114.121ZM157.407 177.197C152.28 168.345 144.768 160.907 135.828 155.83C144.768 150.754 152.28 143.316 157.407 134.464C162.535 143.316 170.047 150.754 178.987 155.83C170.047 160.907 162.535 168.345 157.407 177.197ZM149.951 98.9095L149.801 109.1C148.543 128.495 133.931 144.338 114.999 147.704V15.2111C159.943 18.8187 195.891 54.4105 199.534 98.9095H149.951ZM164.864 212.733L165.014 202.542C166.272 183.147 180.884 167.304 199.816 163.938V296.431C154.872 292.823 118.924 257.232 115.281 212.733H164.864Z" fill="#FFFFFF"></path>
</svg>