<svg width="778" height="210" viewBox="0 0 778 210" fill="none" xmlns="http://www.w3.org/2000/svg">
<path d="M423.835 94.3438H407.531V209.342H423.835V94.3438Z" fill="#FFFFFF"></path>
<path d="M736.396 126.772H712.367V94.3438H696.062V209.342H712.367V142.993H739.018C751.313 142.993 761.291 152.9 761.291 165.135V209.355H777.595V167.741C777.595 145.118 759.153 126.785 736.396 126.785V126.772Z" fill="#FFFFFF"></path>
<path d="M244.541 170.98C244.541 183.202 234.576 193.122 222.268 193.122H195.617V94.3438H179.312V209.342H219.659C242.416 209.342 260.858 191.009 260.858 168.386V94.3564H244.554V170.993L244.541 170.98Z" fill="#FFFFFF"></path>
<path d="M358.666 126.506V144.486C358.666 171.347 336.762 193.122 309.742 193.122H293.438V209.33H309.742C345.773 209.33 374.97 180.292 374.97 144.486V126.506V94.3438H358.666V126.506Z" fill="#FFFFFF"></path>
<path d="M105.525 94.3438H0L0 209.342H16.3041V110.564H65.2289V209.342H81.533V110.564H108.185C120.479 110.564 130.458 120.471 130.458 132.706V159.96H130.407V209.355H146.711V135.325C146.711 112.703 128.269 94.3691 105.512 94.3691L105.525 94.3438Z" fill="#FFFFFF"></path>
<path d="M622.243 94.3438H570.531V110.552H624.865C637.16 110.552 647.139 120.459 647.139 132.693V143.726H570.544V168.374C570.544 190.996 588.986 209.33 611.743 209.33H663.455V135.3C663.455 112.677 645.013 94.3438 622.256 94.3438H622.243ZM647.139 193.122H609.121C596.826 193.122 586.848 183.215 586.848 170.98V159.947H647.139V193.122Z" fill="#FFFFFF"></path>
<path d="M303.204 111.747H306.271C306.271 101.271 314.811 92.781 325.35 92.781V89.7317C314.811 89.7317 306.271 81.2419 306.271 70.7656H303.204C303.204 81.2419 294.663 89.7317 284.125 89.7317V92.781C294.663 92.781 303.204 101.271 303.204 111.747Z" fill="#BDBDBD"></path>
<path d="M510.499 193.122H479.074C475.561 193.122 472.71 190.288 472.71 186.796V182.443H472.736C472.736 182.317 472.71 182.19 472.71 182.051V172.815L521.635 148.927L531.715 144.005C535.521 142.145 537.939 138.286 537.939 134.073V112.057C537.939 102.783 530.761 95.1788 521.635 94.4197V94.3438H472.71V94.4197C464.081 95.1409 457.195 101.973 456.47 110.552H515.271C518.784 110.552 521.635 113.386 521.635 116.878V121.23H521.61C521.61 121.357 521.635 121.483 521.635 121.623V130.859L472.71 154.747L462.63 159.669C458.825 161.529 456.406 165.388 456.406 169.601V193.109H456.483C457.208 201.688 464.081 208.52 472.71 209.241V209.317H521.635V209.241C530.264 208.52 537.137 201.688 537.863 193.109H510.499V193.122Z" fill="#FFFFFF"></path>
<path d="M325.344 69.9381L327.037 71.545C327.037 71.545 516.041 -67.7338 696.035 82.0086L712.25 81.958C712.25 81.958 544.933 -94.1522 325.344 69.9381Z" fill="#FFFFFF"></path>
</svg>