<svg width="325" height="318" viewBox="0 0 325 318" fill="none" xmlns="http://www.w3.org/2000/svg">
<path d="M294.933 151.779C290.23 149.895 285.178 149.027 280.102 149.244L250.881 150.443C245.176 150.671 239.495 149.541 234.326 147.154L219.797 140.418L233.954 127.698C238.389 123.713 241.719 118.689 243.616 113.095L253.023 85.3604C254.397 81.307 256.527 77.5277 259.298 74.2394L279.916 49.7594L250.858 61.7254C246.178 63.655 241.975 66.5436 238.541 70.2088L218.738 91.3207C214.873 95.4425 210.041 98.5938 204.663 100.478L189.529 105.799L190.378 86.9932C190.646 81.0902 189.366 75.2327 186.676 69.9576L173.323 43.822C171.379 39.997 170.168 35.8638 169.749 31.6049L166.687 0L154.754 28.6134C152.834 33.2262 151.96 38.1816 152.17 43.1598L153.392 71.8188C153.625 77.4135 152.473 82.9855 150.04 88.055L143.171 102.305L130.202 88.4205C126.151 84.0702 121.017 80.8047 115.312 78.9435L87.0341 69.7179C82.9013 68.3706 79.0479 66.2811 75.695 63.5636L50.735 43.3425L62.9356 71.8531C64.9031 76.4431 67.8484 80.5535 71.5855 83.9332L93.1112 103.344C97.3255 107.134 100.527 111.873 102.448 117.148L107.873 131.991L88.6989 131.158C82.6801 130.906 76.7079 132.151 71.3293 134.789L44.6812 147.885C40.7929 149.792 36.5669 150.979 32.2245 151.39L0 154.405L29.1744 166.097C33.8776 167.981 38.9302 168.848 44.006 168.631L73.2269 167.444C78.9314 167.204 84.6126 168.334 89.7816 170.732L104.311 177.457L90.1541 190.177C85.7186 194.162 82.389 199.186 80.4914 204.781L71.0849 232.515C69.7111 236.568 67.5807 240.347 64.8099 243.636L44.1923 268.116L73.2619 256.15C77.9419 254.22 82.1329 251.331 85.5789 247.666L105.37 226.554C109.235 222.433 114.066 219.281 119.445 217.397L134.579 212.076L133.729 230.893C133.473 236.785 134.742 242.642 137.431 247.917L150.785 274.053C152.729 277.878 153.94 282.011 154.359 286.27L157.432 317.875L169.353 289.262C171.274 284.649 172.159 279.694 171.938 274.715L170.727 246.056C170.483 240.461 171.635 234.89 174.08 229.82L180.937 215.57L193.906 229.455C197.969 233.805 203.091 237.07 208.796 238.931L237.074 248.157C241.218 249.505 245.06 251.594 248.413 254.312L273.373 274.533L261.172 246.034C259.205 241.444 256.259 237.322 252.522 233.953L230.997 214.531C226.794 210.741 223.592 206.002 221.66 200.727L216.247 185.884L235.421 186.717C241.428 186.969 247.4 185.724 252.778 183.087L279.427 169.99C283.327 168.083 287.541 166.896 291.883 166.485L324.108 163.47L294.933 151.779ZM162.054 209.473C133.59 209.473 110.527 186.854 110.527 158.938C110.527 131.021 133.59 108.402 162.054 108.402C190.518 108.402 213.592 131.021 213.592 158.938C213.592 186.854 190.518 209.473 162.054 209.473Z" fill="#FFFFFF"></path>
</svg>