<svg width="303" height="293" viewBox="0 0 303 293" fill="none" xmlns="http://www.w3.org/2000/svg">
<path d="M153.697 97.2156C180.647 96.0237 201.502 73.778 200.278 47.5286C199.055 21.2792 176.215 0.96616 149.266 2.15814C122.316 3.35012 101.461 25.5958 102.685 51.8452C103.908 78.0946 126.748 98.4076 153.697 97.2156Z" fill="#BDBDBD"></path>
<path d="M135.384 138.576C99.3729 103.501 40.4539 103.501 4.45062 138.576C-1.48354 144.356 -1.48354 153.731 4.45062 159.519L74.929 228.166L151.146 153.929L135.392 138.584L135.384 138.576Z" fill="#BDBDBD"></path>
<path d="M151.125 292.294C157.661 292.334 164.205 289.927 169.188 285.073L227.489 228.287L227.342 228.145L168.895 285.073C163.985 289.855 157.563 292.262 151.125 292.294Z" fill="#BDBDBD"></path>
<path d="M297.813 138.574C261.655 103.356 203.037 103.356 166.879 138.574L151.125 153.918L227.342 228.155L297.821 159.508C303.755 153.728 303.755 144.354 297.821 138.566L297.813 138.574Z" fill="#BDBDBD"></path>
<path d="M74.8963 228.145L74.75 228.287L133.051 285.073C138.034 289.927 144.578 292.334 151.114 292.294C144.676 292.255 138.254 289.848 133.344 285.073L74.8963 228.145Z" fill="#BDBDBD"></path>
<path d="M74.9062 228.147L133.354 285.076C138.264 289.858 144.686 292.265 151.124 292.296C157.562 292.257 163.984 289.85 168.894 285.076L227.341 228.147L151.124 153.91L74.9062 228.147Z" fill="#FFFFFF"></path>
</svg>