<svg width="237" height="293" viewBox="0 0 237 293" fill="none" xmlns="http://www.w3.org/2000/svg">
<path d="M119.625 280.25C123.729 284.287 128.163 288.253 132.832 292.172H123.894C122.431 288.277 120.969 284.169 119.625 280.25ZM105.294 256.984C108.996 269.85 114.231 282.622 118.523 292.159H116.85C110.694 283.731 104.492 272.424 102.062 258.85L105.294 256.984ZM124.544 0C160.886 2.38786e-06 187.677 7.6017 204.916 22.7812C222.132 37.9844 230.764 61.7569 230.764 94.0518C230.764 112.867 227.698 127.858 221.59 138.977C215.482 150.119 206.001 159.917 193.148 168.392L236.848 292.118H172.041C142.185 267.307 133.695 247.548 131.431 240.229C133.53 236.263 137.114 228.094 136.288 220.28C133.718 213.623 133.364 211.31 133.364 211.31L132.869 204.109L128.482 198.633C128.482 198.633 123.671 182.179 124.756 174.317C117.446 172.523 109.853 173.703 108.72 174.388L104.875 178.496L99.6631 172.972L90.9141 178.378L84.5703 179.629L77.2832 190.913L72.2119 192.99L68.3447 201.041L70.4668 204.7L67.4961 205.691L63.0859 217.778L68.1084 221.65C68.0855 221.72 65.7031 228.998 65.7266 230.243C70.797 238.836 87.6595 252.198 95.1826 257.911L94.6162 266.858C94.6162 266.858 99.1918 270.494 99.7578 272.43C100.088 273.587 101.81 282.133 105.63 292.142H0V0H124.544ZM116.324 258.547C123.635 271.318 137.55 284.609 145.332 291.526C135.286 286.097 123.965 276.276 115.829 268.863C114.225 263.859 113.188 260.506 113.188 260.506H113.211L116.324 258.547ZM129.701 252.312C135.314 265.273 144.394 277.761 151.186 286.095C137.107 277.478 128.168 263.951 123.688 255.642L129.701 252.312ZM127.114 245.531C127.421 246.523 127.774 247.514 128.151 248.506L122.067 252.52C121.784 251.953 121.525 251.433 121.312 250.961L127.114 245.555V245.531ZM106.987 230.953C111.905 230.294 118.629 236.777 118.661 236.808C118.661 236.808 104.134 248.87 100.479 248.989C96.5637 249.107 86.7054 240.892 81.2812 236.1L84.3711 232.157L93.8281 236.1C99.0399 233.999 104.346 231.307 106.987 230.953ZM81.8936 231.129L79.6299 234.599C78.392 233.476 77.6393 232.771 77.625 232.758L80.7617 230.656L81.8936 231.129ZM125.408 212.744C126.372 214.556 128.929 216.555 128.945 216.568C129.063 222.777 126.375 229.576 122.012 233.849C121.944 233.806 110.266 226.359 109.489 223.84C108.923 221.975 111.399 215.648 112.72 212.484L125.408 212.744ZM91.4619 215.139L96.8867 226.494L98.7256 228.312L95.3301 232.254L91.9102 231.121L94.127 227.367C92.6884 225.337 89.3164 220.852 86.6045 219.034V219.01C80.5673 223.637 70.9689 230.908 70.5674 230.72C70.0014 230.436 72.0292 223.096 72.6426 222.15C73.2547 221.208 90.9043 208.95 90.9668 208.906L91.4619 215.139ZM103.596 215.15L103.572 219.14L93.7139 207.809L93.2188 198.625L103.596 215.15ZM88.9609 197.032C89.7863 196.467 90.5643 203.524 88.4424 205.46C84.41 208.859 69.4833 215.068 68.9385 214.88C68.3961 214.691 69.7399 209.804 70.4238 209.119C71.1077 208.435 88.1355 197.599 88.9609 197.032ZM123.061 207.88C123.509 208.848 123.933 209.768 124.357 210.618L113.297 207.762L113.25 207.219H113.273L123.061 207.88ZM103.577 204.409L103.624 207.69L94.002 196.17L93.7188 188.828L103.577 204.409ZM118.961 191.969C118.654 195.935 120.14 200.939 121.933 205.307L112.924 203.371L112.594 199.382V199.358C112.594 199.358 116.202 193.81 118.961 191.969ZM87.8994 182.398C88.937 182.139 90.5171 188.489 89.5977 189.74C88.6779 190.991 74.4093 201.426 73.6074 201.166C72.7828 200.905 73.8911 197.625 74.457 196.421C74.8113 196.208 76.344 194.815 78.2773 192.998C82.3101 189.244 87.4513 182.871 87.8994 182.398ZM109.802 177.396C110.344 177.136 119.683 176.357 118.599 178.718C118.586 178.787 116.838 187.994 106.547 194.038C104.966 194.109 98.2694 192.952 97.6562 190.852C97.8213 190.592 98.0338 190.332 98.2461 190.025C100.274 190.993 104.8 190.993 105.438 190.852C107.325 190.45 110.25 187.641 110.108 186.083C110.014 184.95 106.595 183.557 104.236 183.062C106.972 180.111 109.495 177.561 109.778 177.419L109.802 177.396ZM102.973 184.463C104.506 183.991 108.491 185.526 108.609 186.399C108.491 187.651 106.534 189.137 105.52 189.444C104.505 189.751 100.52 189.019 100.001 188.5C99.8833 188.382 99.8126 188.193 99.8125 188.005C100.732 186.919 101.77 185.714 102.854 184.534C102.9 184.511 102.969 184.489 102.973 184.487V184.463ZM98.8291 177.938C98.8403 177.957 100.505 180.866 100.857 181.313C100.244 182.116 95.9277 186.648 95.9277 186.648L94.9609 180.464H94.9375L98.8291 177.938ZM120.377 153.734C108.161 156.402 106.25 161.596 106.25 161.596C112.523 162.28 120.377 153.734 120.377 153.734ZM142.896 135.858C133.479 144.215 117.442 144.13 110.475 148.206C103.518 152.314 104.814 160.601 104.814 160.601C104.814 160.601 105.923 154.557 119.908 151.582C135.299 148.328 142.404 136.692 142.896 135.858ZM110.999 51.5C111.047 51.5383 126.732 64.0349 112.862 78.7197C98.9717 93.4507 82.2271 99.6591 83.2646 125.344C84.3023 151.052 101.495 158.631 101.495 158.631V158.654C101.495 158.654 101.778 148.219 110.362 144.348C118.947 140.476 140.407 141.798 149.723 120.835C159.038 99.8716 143.591 87.4775 143.591 87.4775C143.591 87.4775 142.718 111.014 118.923 114.768C112.697 115.759 108.428 120.056 105.527 126.524C105.527 126.524 104.49 114.98 117.933 109.598C119.632 108.913 133.875 103.719 137.648 89.7676C139.276 83.795 138.167 77.0667 135.455 71.4482C129.217 58.5343 111.063 51.5248 110.999 51.5ZM142.896 135.858C142.913 135.843 142.932 135.828 142.949 135.812H142.925C142.924 135.814 142.913 135.829 142.896 135.858ZM98.4346 47.7969C98.4346 47.7969 104.567 53.4862 104.991 65.0537C105.392 76.0784 97.6562 87.2451 97.6562 87.2451C97.6562 87.2451 112.466 76.3147 111.9 65.0068C111.429 55.7763 98.4346 47.7969 98.4346 47.7969Z" fill="white"></path>
</svg>