<svg width="273" height="378" viewBox="0 0 273 378" fill="none" xmlns="http://www.w3.org/2000/svg">
<mask id="mask0_1337_2603" style="mask-type:luminance" maskUnits="userSpaceOnUse" x="49" y="36" width="175" height="283">
<path d="M136.255 36.8438C184.237 36.8438 223.206 75.8126 223.206 123.794V318.188H49.2812V123.794C49.2812 75.8126 88.2501 36.8438 136.232 36.8438H136.255Z" fill="white"></path>
</mask>
<g mask="url(#mask0_1337_2603)">
<path d="M66.8953 211.953H46.6875V259.342H66.8953V211.953Z" fill="#BDBDBD"></path>
<path d="M-12.5912 451.443C-76.0845 451.443 -127.719 399.785 -127.719 336.315C-127.719 272.846 -76.0608 221.188 -12.5912 221.188C50.8784 221.188 102.536 272.846 102.536 336.315C102.536 399.785 50.8784 451.443 -12.5912 451.443ZM-12.5912 241.395C-64.937 241.395 -107.511 283.969 -107.511 336.315C-107.511 388.661 -64.937 431.235 -12.5912 431.235C39.7546 431.235 82.3286 388.661 82.3286 336.315C82.3286 283.969 39.7546 241.395 -12.5912 241.395Z" fill="#BDBDBD"></path>
<path d="M-12.5904 421.163C-59.3624 421.163 -97.4062 383.119 -97.4062 336.347C-97.4062 289.575 -59.3624 251.531 -12.5904 251.531C34.1817 251.531 72.2255 289.575 72.2255 336.347C72.2255 383.119 34.1817 421.163 -12.5904 421.163ZM-12.5904 271.739C-48.2149 271.739 -77.1984 300.723 -77.1984 336.347C-77.1984 371.972 -48.2149 400.955 -12.5904 400.955C23.0342 400.955 52.0177 371.972 52.0177 336.347C52.0177 300.723 23.0342 271.739 -12.5904 271.739Z" fill="#BDBDBD"></path>
<path d="M26.0824 228.416C-12.6967 228.416 -44.2655 196.847 -44.2655 158.068C-44.2655 147.514 -41.8936 137.173 -37.3635 127.733C-51.6655 110.158 -59.4687 88.3133 -59.4687 65.4728C-59.4925 11.0398 -15.1871 -33.2656 39.2696 -33.2656C93.7263 -33.2656 138.008 11.0398 138.008 65.4728C138.008 97.8242 121.88 128.278 95.4815 146.636C96.0981 150.407 96.4302 154.226 96.4302 158.068C96.4302 196.847 64.8614 228.416 26.0824 228.416ZM39.2696 -13.0578C-4.03958 -13.0578 -39.2609 22.1635 -39.2609 65.4728C-39.2609 85.6094 -31.6237 104.774 -17.7724 119.431L-12.4121 125.1L-16.5153 131.717C-21.4249 139.639 -24.0339 148.747 -24.0339 158.068C-24.0339 185.723 -1.54919 208.208 26.1061 208.208C53.7614 208.208 76.2461 185.723 76.2461 158.068C76.2461 153.562 75.6294 149.032 74.3961 144.644L72.3089 137.149L78.9974 133.212C102.929 119.147 117.8 93.1755 117.8 65.4728C117.8 22.1635 82.5788 -13.0578 39.2696 -13.0578Z" fill="#BDBDBD"></path>
<path d="M26.0668 200.025C2.94168 200.025 -15.8667 181.217 -15.8667 158.091C-15.8667 150.288 -13.6847 142.675 -9.58145 136.057L-2.13398 124.08L-11.8347 113.833C-24.2629 100.717 -31.0938 83.5454 -31.0938 65.5197C-31.0938 26.7406 0.475014 -4.82812 39.2541 -4.82812C78.0331 -4.82812 109.602 26.7406 109.602 65.5197C109.602 90.3525 96.2723 113.596 74.8312 126.191L62.7113 133.33L66.4824 146.873C67.5023 150.549 68.0241 154.32 68.0241 158.091C68.0241 181.217 49.2157 200.025 26.0905 200.025H26.0668ZM39.2541 15.356C11.5988 15.356 -10.886 37.8407 -10.886 65.496C-10.886 78.3512 -6.00003 90.566 2.84682 99.9346L23.2444 121.494L7.56672 146.707C5.45581 150.122 4.31734 154.059 4.31734 158.068C4.31734 170.045 14.0655 179.793 26.0431 179.793C38.0207 179.793 47.7689 170.045 47.7689 158.068C47.7689 156.123 47.508 154.178 46.9625 152.257L39.0406 123.724L64.5613 108.734C79.8594 99.7449 89.3704 83.166 89.3704 65.4723C89.3704 37.817 66.8856 15.3322 39.2304 15.3322L39.2541 15.356Z" fill="#BDBDBD"></path>
<path d="M26.0513 171.619C18.5801 171.619 12.5083 165.547 12.5083 158.076C12.5083 155.585 13.1961 153.142 14.5243 151.032L30.8186 124.776L39.0725 154.471C39.4046 155.68 39.5706 156.89 39.5706 158.1C39.5706 165.571 33.4988 171.643 26.0276 171.643L26.0513 171.619ZM31.7199 118.538L8.7608 94.2742C1.36076 86.4472 -2.71875 76.2247 -2.71875 65.4804C-2.71875 42.3553 16.0897 23.5469 39.2148 23.5469C62.3399 23.5469 81.1484 42.3553 81.1484 65.4804C81.1484 80.2805 73.2028 94.1556 60.3951 101.674L31.7199 118.538ZM39.2148 43.7547C27.2372 43.7547 17.4891 53.5028 17.4891 65.4804C17.4891 71.0305 19.6 76.3196 23.4423 80.3754L35.3488 92.946L50.1726 84.2414C56.8374 80.328 60.9643 73.1414 60.9643 65.4804C60.9643 53.5028 51.2162 43.7547 39.2385 43.7547H39.2148Z" fill="#BDBDBD"></path>
<path d="M225.864 211.953H205.656V259.342H225.864V211.953Z" fill="#BDBDBD"></path>
<path d="M285.128 451.443C221.634 451.443 170 399.785 170 336.315C170 272.846 221.658 221.188 285.128 221.188C348.597 221.188 400.255 272.846 400.255 336.315C400.255 399.785 348.597 451.443 285.128 451.443ZM285.128 241.395C232.782 241.395 190.208 283.969 190.208 336.315C190.208 388.661 232.782 431.235 285.128 431.235C337.473 431.235 380.047 388.661 380.047 336.315C380.047 283.969 337.473 241.395 285.128 241.395Z" fill="#BDBDBD"></path>
<path d="M285.128 421.163C238.356 421.163 200.312 383.119 200.312 336.347C200.312 289.575 238.356 251.531 285.128 251.531C331.9 251.531 369.944 289.575 369.944 336.347C369.944 383.119 331.9 421.163 285.128 421.163ZM285.128 271.739C249.504 271.739 220.52 300.723 220.52 336.347C220.52 371.972 249.504 400.955 285.128 400.955C320.753 400.955 349.736 371.972 349.736 336.347C349.736 300.723 320.753 271.739 285.128 271.739Z" fill="#BDBDBD"></path>
<path d="M246.488 228.416C207.709 228.416 176.14 196.847 176.14 158.068C176.14 154.25 176.449 150.431 177.089 146.636C150.691 128.302 134.562 97.8479 134.562 65.4728C134.562 11.016 178.868 -33.2656 233.301 -33.2656C287.734 -33.2656 332.039 11.0398 332.039 65.4728C332.039 88.3133 324.236 110.158 309.934 127.733C314.464 137.173 316.836 147.514 316.836 158.068C316.836 196.847 285.267 228.416 246.488 228.416ZM233.301 -13.0578C189.992 -13.0578 154.77 22.1635 154.77 65.4728C154.77 93.1755 169.642 119.147 193.573 133.212L200.262 137.149L198.174 144.644C196.941 149.032 196.324 153.562 196.324 158.068C196.324 185.723 218.809 208.208 246.464 208.208C274.12 208.208 296.604 185.723 296.604 158.068C296.604 148.747 293.995 139.615 289.086 131.717L284.983 125.1L290.343 119.431C304.194 104.774 311.831 85.6094 311.831 65.4728C311.831 22.1635 276.61 -13.0578 233.301 -13.0578Z" fill="#BDBDBD"></path>
<path d="M246.48 200.025C223.355 200.025 204.547 181.217 204.547 158.091C204.547 154.32 205.068 150.549 206.088 146.873L209.859 133.33L197.739 126.191C176.298 113.573 162.969 90.3288 162.969 65.5197C162.969 26.7406 194.514 -4.82812 233.317 -4.82812C272.119 -4.82812 303.664 26.7406 303.664 65.5197C303.664 83.5454 296.834 100.717 284.405 113.833L274.705 124.08L282.152 136.057C286.255 142.675 288.437 150.288 288.437 158.091C288.437 181.217 269.629 200.025 246.504 200.025H246.48ZM233.293 15.356C205.638 15.356 183.153 37.8407 183.153 65.496C183.153 83.1897 192.664 99.7686 207.962 108.758L233.483 123.748L225.561 152.257C225.039 154.178 224.754 156.123 224.754 158.068C224.754 170.045 234.503 179.793 246.48 179.793C258.458 179.793 268.206 170.045 268.206 158.068C268.206 154.036 267.091 150.122 264.957 146.683L249.279 121.471L269.676 99.9109C278.523 90.566 283.409 78.3275 283.409 65.4723C283.409 37.817 260.924 15.3322 233.269 15.3322L233.293 15.356Z" fill="#BDBDBD"></path>
<path d="M246.503 171.611C239.032 171.611 232.96 165.539 232.96 158.068C232.96 156.859 233.126 155.649 233.458 154.439L241.712 124.768L258.03 151.024C259.335 153.111 260.046 155.554 260.046 158.068C260.046 165.539 253.975 171.611 246.503 171.611ZM240.858 161.673C240.858 161.673 240.858 161.673 240.858 161.697V161.673ZM240.835 118.507L212.16 101.643C199.352 94.1244 191.406 80.2493 191.406 65.4492C191.406 42.3241 210.215 23.5156 233.34 23.5156C256.465 23.5156 275.273 42.3241 275.273 65.4492C275.273 76.1935 271.194 86.416 263.794 94.2429L240.835 118.507ZM233.34 43.7234C221.362 43.7234 211.614 53.4716 211.614 65.4492C211.614 73.1101 215.741 80.2967 222.406 84.2102L237.23 92.9147L249.136 80.3442C252.978 76.2884 255.089 70.9992 255.089 65.4492C255.089 53.4716 245.341 43.7234 233.364 43.7234H233.34Z" fill="#BDBDBD"></path>
<path d="M154.785 16.1875H118.781V58.1211H154.785V16.1875Z" fill="#BDBDBD"></path>
</g>
<path d="M41.5947 119.855C41.5947 99.4816 48.4255 79.6296 60.9012 63.6199L42.9466 43.5781C27.5298 63.359 19.0625 87.8835 19.0625 113.072V168.952L30.3286 171.964L41.5947 174.976V119.855Z" fill="#FFFFFF"></path>
<path d="M30.3049 178.434L19.0625 175.422V267.851H41.571V181.446L30.3049 178.434Z" fill="#FFFFFF"></path>
<path d="M133.144 28.2957H133.191V0H132.148C99.3932 0 68.5123 14.0648 47 38.6842L48.4942 40.3445L64.9783 58.7497C82.3636 39.3483 107.007 28.2957 133.168 28.2957H133.144Z" fill="#FFFFFF"></path>
<path d="M41.571 274.109H19.0625V318.225H41.571V274.109Z" fill="#FFFFFF"></path>
<path d="M253.508 267.851V175.422L242.242 178.434L231 181.446V267.851H253.508Z" fill="#FFFFFF"></path>
<path d="M253.508 274.109H231V318.225H253.508V274.109Z" fill="#FFFFFF"></path>
<path d="M208.267 59.4612L226.246 39.3957C204.71 14.3257 173.592 0 140.481 0H139.438V28.2957H139.485C165.978 28.2957 190.858 39.6092 208.267 59.4612Z" fill="#FFFFFF"></path>
<path d="M231.019 174.96L242.285 171.948L253.551 168.935V113.056C253.551 88.2228 245.297 63.9354 230.236 44.2969L212.281 64.3387C224.401 80.2061 231.019 99.8209 231.019 119.839V174.96Z" fill="#FFFFFF"></path>
<path d="M12.8078 324.469H0L0 347.665H12.8078H259.76H272.568V324.469H259.76H224.753H47.8157H12.8078Z" fill="#FFFFFF"></path>
<path d="M253.516 353.906H19.0625V377.103H253.516V353.906Z" fill="#BDBDBD"></path>
</svg>