<svg width="294" height="371" viewBox="0 0 294 371" fill="none" xmlns="http://www.w3.org/2000/svg">
<path d="M125.101 367.438C125.101 367.438 171.466 315.414 222.158 339.765C259.917 358.174 293.753 330.023 293.753 330.023C293.753 330.023 248.864 378.213 207.503 369.872C166.141 361.53 154.89 348.842 125.094 367.438H125.101Z" fill="#FFFFFF"></path>
<path d="M112.723 -0.000658409L90.6875 22.3516L112.723 44.7038L134.759 22.3516L112.723 -0.000658409Z" fill="#FFFFFF"></path>
<path d="M153.754 0.0149666L131.719 22.3672L153.754 44.7194L175.79 22.3672L153.754 0.0149666Z" fill="#FFFFFF"></path>
<path d="M133.217 60.9453C59.6398 60.9453 0 121.449 0 196.077C0 270.704 59.6398 331.208 133.217 331.208C206.795 331.208 266.435 270.704 266.435 196.077C266.435 121.449 206.788 60.9453 133.217 60.9453ZM188.093 225.475C188.981 276.549 151.331 304.097 133.217 306.059C115.096 304.097 77.4532 276.549 78.3418 225.475V215.747L60.8087 197.963L78.3418 180.178V166.684C77.4532 115.611 115.096 88.0631 133.217 86.1008C151.331 88.0631 188.981 115.611 188.093 166.684V180.178L205.626 197.963L188.093 215.747V225.475Z" fill="#BDBDBD"></path>
</svg>