<svg width="599" height="286" viewBox="0 0 599 286" fill="none" xmlns="http://www.w3.org/2000/svg">
<path d="M521.681 285.196H0L76.6717 0H598.353L521.681 285.196Z" fill="#FFFFFF"></path>
<path d="M524.814 48.6719L496.783 152.937L432.625 152.69L460.588 48.6719H524.814Z" fill="#141414"></path>
<path d="M439.166 48.6719H396.341L373.969 131.888H416.794L422.395 111.042L400.983 111.065L412.163 69.4844H433.576L439.166 48.6719Z" fill="#141414"></path>
<path d="M422.397 111.031L336.747 111.076L331.156 131.878H416.795L422.397 111.031Z" fill="#141414"></path>
<path d="M267.884 48.6719H332.11L309.738 131.888H224.031L229.701 111.087H293.927L305.107 69.4844H262.282L267.884 48.6719Z" fill="#141414"></path>
<path d="M159.863 131.872H95.625L106.998 89.5938L171.043 90.2691L159.863 131.872Z" fill="#141414"></path>
<path d="M118.028 48.6719L112.438 69.4844H133.85L139.44 48.6719H118.028Z" fill="#141414"></path>
<path d="M160.852 48.6719L155.25 69.4844H176.662L182.253 48.6719H160.852Z" fill="#141414"></path>
<path d="M218.497 152.672L212.906 173.473H234.307L239.909 152.672H218.497Z" fill="#141414"></path>
<path d="M474.215 84.4219L469.55 101.79L464.875 119.158L487.428 101.79L474.215 84.4219Z" fill="#FFFFFF"></path>
<path d="M261.623 152.938L255.75 173.402H469.852L476.132 152.859L261.623 152.938Z" fill="#141414"></path>
<path d="M289.299 48.6719L266.938 131.888L298.593 121.465L324.817 52.6903L289.299 48.6719Z" fill="#141414"></path>
<path d="M414.496 48.6719H374.935L352.562 131.888L391.887 123.086L414.496 48.6719Z" fill="#141414"></path>
<path d="M214.206 90.2812L191.856 173.396H170.094L192.794 90.2812H214.206Z" fill="#141414"></path>
<path d="M203.622 48.6719L198.031 69.4844H219.444L225.034 48.6719H203.622Z" fill="#141414"></path>
<path d="M480.945 132.141L475.344 152.942H496.756L502.347 132.141H480.945Z" fill="#141414"></path>
<path d="M191.87 173.383H84.4688L90.0365 152.672H197.585L191.87 173.383Z" fill="#141414"></path>
<path d="M120.411 196.078L110.608 232.514H101.472L106.983 212.017L96.9092 232.514H90.0541L90.9914 212.017L85.4802 232.514H76.3438L86.1465 196.078H97.8014L97.1577 218.849L108.767 196.078H120.422H120.411Z" fill="#141414"></path>
<path d="M185.255 196.078L175.452 232.514H150.312L160.115 196.078H169.252L161.9 223.408H168.755L176.107 196.078H185.243H185.255Z" fill="#141414"></path>
<path d="M222.181 223.408H226.755L234.107 196.078H243.243L233.44 232.514H215.156L222.17 223.408H222.181Z" fill="#141414"></path>
<path d="M292.127 196.078L282.324 232.514H273.188L282.99 196.078H292.127Z" fill="#141414"></path>
<path d="M356.942 196.078L354.288 205.916L335.089 223.408H349.579L347.139 232.514H322L324.654 222.676L344.034 205.184H329.363L331.814 196.078H356.942Z" fill="#141414"></path>
<path d="M396.971 230.225L396.011 232.499H386.875L403.533 196.062H414.962L412.014 232.499H402.878L403.149 230.225H396.983H396.971ZM404.233 221.119L405.6 209.727L400.8 221.119H404.222H404.233Z" fill="#141414"></path>
<path d="M461.553 196.078H470.689L467.008 209.743H473.863L477.544 196.078H486.681L476.878 232.514H467.742L471.423 218.849H464.568L460.886 232.514H451.75L461.553 196.078Z" fill="#141414"></path>
<path d="M436.973 136.559L432.647 152.678L430.75 161.942H445.759L476.172 152.847L440.756 128.016L436.973 136.559Z" fill="#141414"></path>
</svg>