<svg width="397" height="359" viewBox="0 0 397 359" fill="none" xmlns="http://www.w3.org/2000/svg">
<path d="M232.553 6.03895C232.996 6.03895 233.454 6.14651 233.89 6.36932C233.89 6.36932 271.887 23.4643 271.576 25.3851L254.03 142.153C253.859 143.268 254.73 144.266 255.864 144.266H375.582C376.553 144.266 377.361 145.012 377.431 145.972L390.827 334.801C390.905 335.876 390.042 336.767 388.978 336.767C388.908 336.767 388.846 336.767 388.776 336.76L208.589 317.759C208.527 317.752 208.457 317.752 208.395 317.752C208.333 317.752 208.263 317.752 208.201 317.759L28.0144 336.76C27.9445 336.76 27.8823 336.767 27.8124 336.767C26.7556 336.767 25.8931 335.876 25.963 334.801L39.3591 145.972C39.429 145.012 40.2371 144.266 41.2084 144.266L157.305 144.059C158.432 144.059 159.294 143.083 159.147 141.977L150.172 72.9591C149.993 71.653 150.755 70.5236 151.975 70.2854L174.019 66.8126C175.107 66.5975 176.071 65.9828 176.715 65.0916C177.508 64.0006 178.417 62.5023 179.085 61.104L179.505 60.2205C179.87 59.4521 180.57 58.9297 181.385 58.8068L197.812 56.3635C198.356 56.2867 198.884 56.1023 199.358 55.8257L206.359 51.8305C206.756 51.6077 207.199 51.4847 207.641 51.4847C207.735 51.4847 207.828 51.4847 207.921 51.5001L223.757 53.6206C223.85 53.6283 223.936 53.636 224.029 53.636C225.529 53.636 226.842 52.3145 226.912 50.6549L228.878 10.2339C228.979 7.8368 230.712 6.03127 232.553 6.03127M232.553 0C227.3 0 223.003 4.38707 222.77 9.99577L220.96 47.1668L208.737 45.5303H208.667L208.597 45.5149C208.279 45.4765 207.96 45.4611 207.649 45.4611C206.134 45.4611 204.634 45.8607 203.313 46.6136L196.584 50.4552L180.476 52.8523C177.64 53.2749 175.216 55.0728 173.98 57.6543L173.561 58.5379C173.188 59.3215 172.659 60.2358 172.146 61.0041L151.011 64.3386L150.887 64.354L150.763 64.377C146.357 65.2529 143.497 69.2942 144.111 73.7812L152.472 138.035L41.1929 138.235C37.0435 138.235 33.5469 141.454 33.2594 145.557L19.8633 334.386C19.7079 336.56 20.4849 338.719 21.9846 340.309C23.4843 341.9 25.6056 342.814 27.8046 342.814C28.0843 342.814 28.3718 342.799 28.6593 342.768L208.387 323.821L388.123 342.768C388.403 342.799 388.69 342.814 388.97 342.814C391.169 342.814 393.29 341.9 394.79 340.309C396.29 338.719 397.059 336.56 396.911 334.393L383.515 145.557C383.228 141.454 379.731 138.235 375.574 138.235H260.783L277.606 26.284C278.39 21.4513 273.899 19.0619 268.701 16.2959C265.507 14.598 261.063 12.3852 255.491 9.72686C246.656 5.50881 237.682 1.45211 236.532 0.937343C235.296 0.322692 233.921 0 232.553 0Z" fill="#FFFFFF"></path>
<path d="M247.653 120.633L187.938 107.172L188.784 117.951L195.817 131.743L221.296 130.498L225.655 151.657L244.513 150.536L245.018 145.749L247.653 120.633Z" fill="#FFFFFF"></path>
<path d="M216.441 136.192L219.34 151.666H179.905L168.809 143.683L161 78.7069L179.082 75.2188L182.819 120.081L192.26 136.807L216.441 136.192Z" fill="#FFFFFF"></path>
<path d="M248.174 115.614L232.719 112.211L237.832 20.3281L260.995 31.8682L248.174 115.614Z" fill="#FFFFFF"></path>
<path d="M227.208 63.2569L209.344 61.3438L210.867 106.16L225.11 109.917L227.208 63.2569Z" fill="#FFFFFF"></path>
<path d="M201.723 65.5625L203.984 104.478L188.413 101.366L185.281 67.9443L201.723 65.5625Z" fill="#FFFFFF"></path>
<path d="M199.383 164.476H208.847L208.769 213.049H199.033V212.941L191.255 207.394L183.073 213.049H173.406L174.463 164.453H183.935L183.298 200.134L191.395 195.009L199.118 200.994L199.383 164.476Z" fill="#FFFFFF"></path>
<path d="M242.69 165.101L244.252 213.674H234.594L234.283 202.556L224.213 206.928L224.259 213.674H214.523L214.438 165.078L242.683 165.101H242.69ZM234.003 192.568L233.49 174.321H223.979L224.143 196.825L234.003 192.568Z" fill="#FFFFFF"></path>
<path d="M271.657 164.406H280.088L280.484 169.577L266.832 190.613L267.694 213.079H257.974L257.243 189.599L244.748 169.562L244.469 164.537H252.612L262.208 179.926L271.649 164.422L271.657 164.406Z" fill="#FFFFFF"></path>
<path d="M291.531 164.562L322.247 164.586L322.885 173.728H312.667L314.718 213.074H305.238L303.257 173.713H291.943L291.539 164.562H291.531Z" fill="#FFFFFF"></path>
<path d="M353.939 164.593L357.988 213.059H328.818L325.5 164.578L353.932 164.601L353.939 164.593ZM347.599 203.424L345.237 173.721H335.594L337.746 203.416H347.599V203.424Z" fill="#FFFFFF"></path>
<path d="M90.9441 164.281L87.4474 213.676H57.5938L61.8597 164.266L90.9441 164.289V164.281ZM78.3406 203.849L80.6095 173.578H70.7489L68.2624 203.849H78.3406Z" fill="#FFFFFF"></path>
<path d="M128.924 164.296L126.531 213.661H116.616L117.486 197.395L105.52 179.217L103.196 213.653H93.2812L96.607 164.266H106.242L118.791 182.306L119.289 164.281H128.916L128.924 164.296Z" fill="#FFFFFF"></path>
<path d="M159.657 164.242L159.198 173.608H143.774L143.432 182.927H158.585L158.188 192.508H143.083L142.694 203.242H157.644L157.163 213.576H132.406L134.489 164.288L159.665 164.234L159.657 164.242Z" fill="#FFFFFF"></path>
<path d="M92.1232 230.094C91.0354 245.829 89.9475 261.556 88.8286 277.291C81.1049 281.617 77.2197 283.814 69.4183 288.286C66.6365 288.478 65.2534 288.578 62.4716 288.762C61.7412 296.745 61.376 300.71 60.6456 308.592C55.8202 309.038 53.4114 309.261 48.5938 309.699C51.1113 283.169 53.5901 256.631 56.0222 230.094C68.0507 230.094 80.087 230.094 92.1154 230.094H92.1232ZM79.1079 245.222C74.0572 245.314 71.5318 245.36 66.4733 245.452C65.6341 254.68 64.7949 263.907 63.9402 273.135C66.4733 273.004 67.7321 272.943 70.2652 272.812C73.1014 271.183 74.5156 270.376 77.344 268.771C78.0511 259.428 78.4008 254.718 79.1079 245.214V245.222Z" fill="#FFFFFF"></path>
<path d="M133.217 230.976C132.339 255.025 131.43 279.065 130.49 303.106C125.564 303.567 123.108 303.797 118.19 304.251C118.485 297.874 118.625 294.67 118.92 288.208C113.652 291.135 111.002 292.618 105.687 295.615C105.423 299.571 105.299 301.546 105.034 305.472C100.085 305.933 97.606 306.164 92.6562 306.625C94.4901 281.424 96.2695 256.223 98.01 231.015C109.751 230.999 121.484 230.984 133.225 230.969L133.217 230.976ZM119.573 273.449C119.985 264.152 120.396 254.863 120.8 245.567C116.037 245.659 113.652 245.705 108.888 245.805C108.158 257.399 107.42 268.993 106.674 280.586C111.857 277.698 114.437 276.269 119.58 273.449H119.573Z" fill="#FFFFFF"></path>
<path d="M176.016 230.078C175.806 242.264 175.573 254.449 175.325 266.634C170.896 271.083 168.666 273.327 164.174 277.86C168.37 282.039 170.492 284.083 174.757 288.094C174.812 292.189 174.835 294.232 174.89 298.281C170.911 298.65 168.922 298.835 164.944 299.196C158.984 293.356 156.046 290.345 150.234 284.137C150.009 290.729 149.892 294.002 149.659 300.502C144.694 300.963 142.215 301.186 137.25 301.647C138.377 277.79 139.449 253.942 140.467 230.078C152.317 230.078 164.166 230.078 176.024 230.078H176.016ZM163.832 243.862C158.991 243.954 156.575 244 151.734 244.092C151.384 253.865 151.027 263.646 150.662 273.419C155.782 268.578 158.323 266.181 163.358 261.448C163.553 254.472 163.646 250.953 163.84 243.869L163.832 243.862Z" fill="#FFFFFF"></path>
<path d="M217.726 230.9C218.37 252.936 219 274.971 219.583 297.014C214.641 296.56 212.162 295.5 207.212 295.961C207.111 290.322 207.057 287.479 206.948 281.755C201.812 284.398 199.232 285.735 194.041 288.447C194.018 291.958 194.003 293.71 193.979 297.198C188.999 297.659 186.504 297.897 181.531 298.358C181.912 275.877 182.231 253.397 182.51 230.916C194.251 230.9 205.985 230.877 217.726 230.9ZM206.699 268.671C206.505 258.898 206.412 253.942 206.202 243.893C201.431 243.8 199.046 244.008 194.275 244.108C194.236 254.434 194.189 264.76 194.135 275.086C199.185 272.482 201.695 270.653 206.699 268.671Z" fill="#FFFFFF"></path>
<path d="M259.647 230.086C260.829 250.246 261.986 270.407 263.129 290.567C255.086 293.81 251.038 295.369 242.864 298.358C236.282 297.759 232.995 297.467 226.406 296.868C225.963 274.602 225.45 252.344 224.906 230.078C236.484 230.078 248.07 230.078 259.647 230.078V230.086ZM250.517 281.363C249.903 268.87 249.282 256.378 248.652 243.885C244.045 243.8 241.745 243.754 237.145 243.67C237.587 257.86 238.015 272.059 238.427 286.25C243.291 284.344 245.707 283.361 250.525 281.363H250.517Z" fill="#FFFFFF"></path>
<path d="M266.625 229.969H278.42C279.92 253.971 281.381 277.965 282.803 301.975C277.845 301.53 275.359 301.299 270.401 300.853C269.189 277.228 267.93 253.602 266.633 229.976L266.625 229.969Z" fill="#FFFFFF"></path>
<path d="M321.956 230.094C322.508 236.148 322.78 239.152 323.316 245.137C313.215 244.953 308.156 244.861 298.047 244.676C298.529 250.969 298.77 254.096 299.244 260.304C308.949 260.665 313.798 260.849 323.495 261.218C324.831 276.154 326.16 291.09 327.466 306.026C314.862 304.881 302.259 303.744 289.655 302.6C289.259 297.145 289.057 294.402 288.645 288.885C298.754 289.63 303.805 289.999 313.906 290.744C313.394 284.606 313.129 281.517 312.601 275.294C302.834 274.756 297.946 274.487 288.171 273.949C287.169 259.328 286.158 244.707 285.125 230.094C297.402 230.094 309.672 230.094 321.949 230.094H321.956Z" fill="#FFFFFF"></path>
<path d="M358.848 229.969C359.431 236.346 359.719 239.511 360.294 245.804C352.71 245.665 348.91 245.596 341.326 245.458C341.917 251.52 342.212 254.539 342.795 260.532C350.278 260.801 354.015 260.932 361.49 261.201C362.089 267.416 362.376 270.505 362.959 276.652C355.484 276.252 351.739 276.052 344.256 275.653C344.893 282.306 345.211 285.618 345.841 292.187C353.277 292.725 356.991 292.994 364.42 293.531C364.995 299.916 365.275 303.082 365.834 309.382C355.546 308.452 345.258 307.522 334.97 306.593C332.693 281.092 330.378 255.592 328.031 230.092C338.304 230.053 348.576 230.015 358.848 229.969Z" fill="#FFFFFF"></path>
</svg>