<svg width="455" height="266" viewBox="0 0 455 266" fill="none" xmlns="http://www.w3.org/2000/svg">
<path d="M163.35 144.761V179.769H151.873V144.761H163.35ZM170.786 137.344H144.438V187.186H170.786V137.344Z" fill="#FFFFFF"></path>
<path d="M93.444 144.761V179.769H81.967V144.761H93.444ZM100.88 137.344H74.5312V187.186H100.88V137.344Z" fill="#FFFFFF"></path>
<path d="M233.1 144.761V179.769H221.623V144.761H233.1ZM240.536 137.344H214.188V187.186H240.536V137.344Z" fill="#FFFFFF"></path>
<path d="M303.35 144.761V179.769H291.873V144.761H303.35ZM310.786 137.344H284.438V187.186H310.786V137.344Z" fill="#FFFFFF"></path>
<path d="M58.4198 260.396V231.172H47.2055V260.396H44.0938V265.999H61.5315V260.396H58.4198Z" fill="#FFFFFF"></path>
<path d="M267.951 260.385V219.391H256.717V260.385H253.625V265.988H271.063V260.385H267.951Z" fill="#FFFFFF"></path>
<path d="M198.107 219.391H186.873V260.385H183.781V265.988H201.219V260.385H198.107V219.391Z" fill="#FFFFFF"></path>
<path d="M128.232 260.385V219.391H116.998V260.385H113.906V265.988H131.344V260.385H128.232Z" fill="#FFFFFF"></path>
<path d="M329.875 171.029C332.522 173.669 335.169 176.309 337.816 178.949C354.001 162.806 380.269 162.806 396.454 178.949C399.101 176.309 401.748 173.669 404.395 171.029C383.825 150.511 350.445 150.511 329.875 171.029Z" fill="#FFFFFF"></path>
<path d="M263.154 103.422H253.253H201.586H191.685H130.219V114.628H140.12H191.685H201.586H253.253H263.154H314.8H324.701V103.422H263.154Z" fill="#FFFFFF"></path>
<path d="M256.7 108.953V147.307V171.452V208.738H198.062V219.944H267.935V171.452V147.307V108.953H256.7Z" fill="#FFFFFF"></path>
<path d="M198.091 157.961V111.969H186.856V157.961V171.465V208.75H128.219V219.956H186.856H198.091V210.383V157.961Z" fill="#FFFFFF"></path>
<path d="M337.857 219.391H326.623V260.385H323.531V265.988H340.969V260.385H337.857V219.391Z" fill="#FFFFFF"></path>
<path d="M407.721 260.386V219.956V219.392V210.383V157.961V111.969H396.487V157.961V171.465V210.383V219.392V219.956V260.386H393.375V265.989H410.833V260.386H407.721Z" fill="#FFFFFF"></path>
<path d="M378.377 68.0856L367.284 33.7625L364.232 11.25H360.09L357.868 27.7565H97.1098L94.8871 11.25H90.7449L87.714 33.7625L76.621 68.0856L0 114.985H454.998L378.377 68.0856ZM86.7441 76.0264L98.4434 39.7887H356.534L368.233 76.0264L412.201 102.933H42.776L86.7441 76.0264Z" fill="#FFFFFF"></path>
<path d="M199.094 84.3258H255.953L227.524 56.7344L199.094 84.3258ZM217.4 76.909L227.524 67.0736L237.647 76.909H217.4Z" fill="#FFFFFF"></path>
<path d="M288.647 77.252L239.183 27.8736L232.272 20.9808L229.444 0H225.301L222.452 21.2226L215.784 27.8736L166.32 77.252L113.562 106.093L121.524 120.584L128.232 116.916V114.618H132.435L176.363 90.5943L227.484 39.5632L278.605 90.5943L323.219 115.001H326.614V116.856L333.444 120.584L341.385 106.093L288.647 77.252Z" fill="#FFFFFF"></path>
<path d="M116.97 111.956V114.979V137.331V157.949V171.452V208.738H58.4331V147.307V108.953H47.2188V147.307V171.452V219.944H116.97H128.204V210.37V171.452V137.331V114.979V111.956H116.97Z" fill="#FFFFFF"></path>
<path d="M326.606 109V114.986V137.337V147.314V171.459V208.744H267.969V219.95H337.841V171.459V147.314V137.337V114.986V109H326.606Z" fill="#FFFFFF"></path>
</svg>