<svg width="224" height="224" viewBox="0 0 224 224" fill="none" xmlns="http://www.w3.org/2000/svg">
<path d="M57.9351 111.558H53.5858C53.6042 81.9569 29.6006 57.9534 0 57.9534V53.6042C29.6006 53.6042 53.6041 29.6006 53.6041 0H57.9534C57.9534 29.6006 81.9569 53.6042 111.558 53.6042V57.9534C81.9569 57.9534 57.9534 81.9569 57.9534 111.558H57.9351Z" fill="white"></path>
<path d="M169.5 111.558H165.151C165.151 81.9569 141.148 57.9534 111.547 57.9534V53.6042C141.148 53.6042 165.151 29.6006 165.151 0H169.5C169.5 29.6006 193.504 53.6042 223.104 53.6042V57.9534C193.504 57.9534 169.5 81.9569 169.5 111.558Z" fill="white"></path>
<path d="M57.9351 223.082H53.5858C53.6042 193.482 29.6006 169.496 0 169.496V165.147C29.6006 165.147 53.6041 141.144 53.6041 111.543H57.9534C57.9534 141.144 81.9569 165.147 111.558 165.147V169.496C81.9569 169.496 57.9534 193.5 57.9534 223.101L57.9351 223.082Z" fill="white"></path>
<path d="M169.5 111.546H165.151C165.151 115.766 164.656 119.859 163.72 123.804C163.72 123.804 163.701 123.859 163.665 123.951C163.371 125.162 163.059 126.374 162.692 127.548C161.132 134.191 158.857 148.579 164.325 161.626C164.931 163.094 163.481 164.563 162.086 163.829C155.975 160.635 144.653 157.112 128.944 162.25C123.494 164.104 117.64 165.131 111.547 165.131V169.481C141.148 169.481 165.151 193.484 165.151 223.085H169.5C169.5 193.484 193.504 169.481 223.104 169.481V165.131C193.504 165.131 169.5 141.128 169.5 111.527V111.546Z" fill="white"></path>
</svg>