<svg width="430" height="279" viewBox="0 0 430 279" fill="none" xmlns="http://www.w3.org/2000/svg">
<path d="M130.407 0.187247C136.426 -0.789522 143.316 2.08142 145.458 8.18489C148.681 17.359 140.196 24.7414 135.577 31.4978C126.81 44.3308 120.699 58.7557 118.006 74.2653C115.01 91.5017 117.584 108.539 105.194 122.85C85.124 146.028 39.1274 127.41 53.3455 97.4649C58.1047 87.4436 73.0584 78.9332 78.0988 93.1369C79.5103 97.1195 79.9484 104.642 85.9407 104.043C94.2801 103.207 94.5992 88.8251 93.2471 82.6946C89.0342 63.5909 61.0035 62.0152 54.2487 39.6466C49.0027 22.2698 62.8639 1.16941 81.241 7.75317C99.618 14.3369 86.0975 35.7125 95.0805 46.9265C97.4709 49.9108 100.84 51.0063 103.88 48.1515C108.028 44.2498 108.596 29.8033 110.315 23.6567C112.841 14.6175 120.569 1.77922 130.407 0.187247Z" fill="white"></path>
<path d="M346.976 10.8712C361.751 8.94466 375.915 18.4749 377.397 34.1734C378.29 43.6712 375.856 58.2257 365.083 60.557C359.507 61.7658 351.854 59.8446 352.055 52.786C352.173 48.4903 356.268 38.728 349.816 36.9634C342.114 34.8533 335.132 49.7154 333.207 55.6839C329.638 66.7522 325.56 98.7319 344.564 96.1254C348.209 95.6289 353.104 91.5761 352.996 87.5611C352.893 83.7566 349.096 85.7803 347.317 85.9584C339.648 86.7139 336.928 81.9703 337.598 74.5879C338.913 60.1198 351.205 65.2573 360.426 66.4553C368.766 67.5401 380.258 66.2665 381.443 78.3007C383.985 104.112 359.199 137.074 332.19 128.413C300.563 118.267 305.555 64.8688 316.269 40.6168C321.423 28.9495 333.71 12.6035 346.982 10.8766L346.976 10.8712Z" fill="white"></path>
<path d="M299.957 0.193845C305.171 -0.448341 312.45 2.15818 315.224 7.02044C320.725 16.6424 313.207 27.3113 310.006 36.507C303.456 55.3085 301.347 74.1369 303.289 94.0177C304.24 103.737 309.351 120.547 296.891 124.702C286.458 128.183 281.461 118.977 279.411 110.175C276.302 96.7969 276.399 78.2437 271.348 65.999C267.892 57.6182 266.443 65.2651 266.14 69.9169C265.204 84.1745 269.736 98.5886 268.417 112.177C266.805 128.766 245.74 129.138 244.058 114.454C243.02 105.415 248.985 88.9612 250.651 79.0801C253.306 63.2899 255.194 43.598 252.976 27.7754C251.97 20.6035 248.347 10.9761 253.052 4.48947C256.838 -0.723563 265.848 0.668739 270.023 4.69994C277.648 12.0608 279.238 39.2538 282.77 50.5649C283.349 52.416 286.55 62.9284 289.173 59.2156C290.606 57.1919 290.239 48.2283 290.114 45.3411C289.627 33.7764 282.808 2.30928 299.957 0.193845Z" fill="white"></path>
<path d="M237.114 0.193384C246.779 -1.04242 248.563 4.74804 248.071 13.3015C247.411 24.7206 243.728 36.7764 243.106 48.5894C241.933 70.9525 249.991 98.3399 230.9 115.436C216.13 128.663 188.57 126.013 186.596 102.889C185.055 84.8216 193.064 65.1944 192.031 45.7778C191.361 33.1769 180.604 6.31843 200.836 4.25157C223.999 1.88789 211.393 38.2658 209.711 51.4333C208.786 58.6862 206.428 79.6031 212.128 84.5625C214.546 86.6672 217.207 86.2085 219.602 84.3359C227.52 78.1623 227.336 52.545 226.844 42.9878C226.146 29.5073 216.433 2.83228 237.114 0.187987V0.193384Z" fill="white"></path>
<path d="M163.432 14.1304C173.129 13.9847 179.987 23.6445 182.642 32.2141C190.36 57.1622 185.162 122.055 151.551 125.407C117.912 128.758 120.178 87.2586 126.137 64.4961C130.21 48.9433 144.817 14.4002 163.432 14.125V14.1304ZM159.793 37.3138C148.922 39.262 144.433 67.3131 145.942 76.3846C147.981 88.6185 157.143 88.7427 162.54 78.6674C166.834 70.6535 170.393 47.0222 165.082 39.5588C163.654 37.5513 162.226 36.8767 159.793 37.3138Z" fill="white"></path>
<path d="M57.253 190.698L63.4076 193.305C87.2956 205.403 78.8047 235.721 63.4995 251.074C52.867 261.743 32.4186 271.101 17.5082 262.218C-0.928291 251.231 10.364 228.366 14.0037 213.072C16.0102 204.632 19.612 187.19 17.3406 179.198C15.8858 174.088 14.4093 176.359 10.7804 176.77C-0.630842 178.059 -1.67462 165.615 1.66223 158.319C9.50952 141.169 39.2654 136.879 56.3174 143.203C79.6267 151.854 79.8052 181.351 57.253 190.698ZM40.5147 157.018C37.5077 157.159 34.9388 157.984 33.8897 160.72C32.516 164.304 32.954 176.683 33.7166 180.714C34.6306 185.528 36.2314 186.85 41.5368 184.595C53.5376 179.489 57.3234 156.236 40.5093 157.024L40.5147 157.018ZM42.3373 202.203C38.757 202.64 35.1444 204.794 34.6252 208.253C34.133 211.55 34.2196 222.392 35.1011 225.479C36.783 231.382 44.6736 229.413 48.6811 226.574C58.962 219.294 56.4959 200.476 42.3373 202.209V202.203Z" fill="white"></path>
<path d="M368.835 147.354C381.782 159.026 376.656 183.91 363.914 194.287C362.681 195.291 355.201 199.544 355.201 200.191C363.351 212.938 357.629 227.746 365.52 240.946C369.436 247.497 376.601 251.382 380.468 257.696C389.338 272.181 372.924 284.474 358.046 276.471C341.54 267.594 341.578 240.007 342.146 224.664C342.373 218.566 344.32 209.905 342.99 204.087C342.319 201.173 340.21 202.474 339.166 204.638C336.813 209.522 335.77 221.68 335.672 227.201C335.526 235.085 339.361 251.496 328.295 254.669C318.079 257.599 313.893 249.607 314.391 241.555C315.067 230.676 319.918 214.055 322.417 202.862C325.278 190.04 329.896 177.04 330.621 163.91C330.924 158.449 328.652 147.872 333.958 144.58C342.492 139.291 361.323 140.592 368.83 147.365L368.835 147.354ZM349.447 157.44C347.884 157.699 346.873 158.314 346.435 159.755C344.515 166.096 345.223 174.671 343.071 181.217C343.027 184.951 348.03 184.131 350.512 182.901C355.05 180.656 358.262 173.824 358.76 169.318C359.371 163.759 357.191 156.145 349.442 157.44H349.447Z" fill="white"></path>
<path d="M400.807 130.863C417.324 129.055 427.113 140.588 428.189 154.608C428.789 162.363 424.117 174.359 413.403 170.635C406.102 168.099 409.585 160.916 408.098 156.475C406.545 151.845 398.823 153.232 397.773 158.92C395.415 171.779 412.402 184.925 419.595 194.952C431.683 211.811 436.555 239.069 415.577 252.009C386.319 270.055 357.06 231.584 367.125 206.517C370.002 199.345 377.666 193.754 385.794 198.784C394.485 204.159 388.958 214.423 394.409 219.63C399.509 224.503 403.603 218.103 404.085 213.651C406.178 194.261 376.378 177.359 378.764 152.962C379.818 142.136 388.596 132.196 400.802 130.863H400.807Z" fill="white"></path>
<path d="M240.72 135.974C257.215 135.801 252.174 154.964 251.953 164.29C251.753 172.746 250.979 186.221 252.548 194.181C253.851 200.808 257.447 190.344 257.95 188.757C261.861 176.459 262.363 163.232 265.533 150.928C267.031 145.11 270.113 138.251 277.642 137.496C298.36 135.413 283.38 160.609 280.319 169.071C272.904 189.578 270.876 209.367 265.706 230.035C264.018 236.77 261.006 248.988 251.742 249.798C235.106 251.249 236.415 221.563 235.777 212.016C234.528 193.328 233.614 174.624 233.024 155.844C232.873 151.079 231.899 145.877 232.532 141.074C233.046 137.161 236.918 136.012 240.715 135.969L240.72 135.974Z" fill="white"></path>
<path d="M210.713 135.508C217.24 134.893 227.273 135.665 228.641 142.961C229.512 147.602 228.998 159.409 222.497 160.618C217.5 161.546 212.633 155.761 207.381 160.758C204.656 163.349 202.957 172.474 205.245 175.291C209.29 180.272 217.603 170.542 222.119 176.781C224.893 180.612 223.752 191.319 218.392 193.602C211.654 196.473 205.353 187.115 203.001 199.397C202.097 204.114 202.514 213.725 209.669 213.93C216.061 214.114 219.75 204.6 227.321 208.34C235.396 212.328 231.761 228.544 228.16 234.61C216.581 254.134 184.981 250.826 182.65 227.584C181.4 215.123 186.23 201.669 187.674 189.214C189.772 171.104 182.736 138.142 210.707 135.514L210.713 135.508Z" fill="white"></path>
<path d="M309.222 139.724C314.874 139.157 322.819 140.63 325.609 145.644C328.205 150.301 327.21 163.522 320.763 165.46C315.242 167.116 312.462 161.321 306.388 164.58C302.738 166.539 299.315 178.444 303.171 180.478C307.719 182.885 312.354 176.949 316.724 182.038C320.255 186.15 317.156 198.934 310.488 199.566C304.485 200.138 301.618 192.588 297.357 200.24C294.739 204.935 292.327 217.817 300.423 218.885C304.961 219.484 314.706 211.902 315.799 220.456C317.6 234.578 305.907 253.396 288.336 251.858C258.369 249.235 276.908 209.943 280.883 194.077C282.279 188.508 283.452 182.869 284.664 177.262C287.741 163.01 288.45 141.812 309.222 139.724Z" fill="white"></path>
<path d="M105.258 136.357C111.499 135.839 121.666 136.228 122.807 143.308C123.537 147.846 123.251 156.265 118.459 158.958C112.975 162.039 106.631 155.191 100.482 161.127C96.6912 164.786 94.9443 178.704 102.754 178.007C107.215 177.613 109.795 173.075 115.225 175.978C120.201 178.639 119.011 190.651 114.83 193.647C109.195 197.678 102.689 189.459 99.6062 194.526C97.935 197.273 97.6592 210.068 99.7792 212.453C103.56 216.701 108.924 209.836 112.034 208.827C122.894 205.308 119.827 224.882 118.054 229.938C114.197 240.92 100.904 249.965 88.1138 245.059C79.293 241.676 79.5039 233.387 79.9203 225.95C80.737 211.326 84.0576 197.98 83.149 182.886C82.5487 172.951 78.3898 163.005 81.532 153.113C84.6741 143.227 94.2629 137.269 105.263 136.352L105.258 136.357Z" fill="white"></path>
<path d="M124.019 248.383C122.878 247.341 121.39 244.821 120.931 243.391C118.481 235.76 123.673 213.991 124.771 204.833C126.896 187.143 127.215 170.009 128.01 152.481C128.302 146.065 127.875 139.416 137.085 138.391C148.518 137.117 150.368 141.413 149.773 150.819C148.74 167.073 143.045 184.839 141.433 201.465C140.849 207.52 138.626 223.375 147.782 224.795C155.159 225.933 161.86 220.834 169.177 222.998C180.599 226.376 182.984 246.386 171.914 251.238C165.602 254.006 160.102 250.541 153.704 250.207C144.802 249.743 131.212 254.95 124.019 248.383Z" fill="white"></path>
<path d="M167.714 154.537C184.111 153.711 176.962 173.64 175.642 182.248C175.285 184.574 174.517 186.829 174.366 189.188C174.247 191.012 174.366 192.89 174.344 194.719C174.252 203.715 176.107 218.609 162.538 217.32C147.736 215.911 158.833 193.996 158.417 186.403C157.936 177.596 153.377 170.958 156.865 162.464C158.704 157.996 162.711 154.79 167.719 154.537H167.714Z" fill="white"></path>
<path d="M181.146 137.808C180.638 145.806 170.903 153.825 163.71 147.495C157.788 141.586 160.325 131.872 167.096 127.652C172.174 124.694 178.945 128.073 180.584 133.529C181.011 134.856 181.217 136.302 181.146 137.808Z" fill="white"></path>
</svg>