<svg width="459" height="237" viewBox="0 0 459 237" fill="none" xmlns="http://www.w3.org/2000/svg">
<path d="M438.818 53.9022C450.953 37.5278 458.283 19.528 458.111 0L239.243 79.3978C233.482 80.7563 230.859 104.53 229.069 111.176C227.942 106.131 226.569 82.2603 219.288 79.5434L0.00293871 0C-0.168665 19.528 7.18578 37.5278 19.2961 53.9022C23.8804 55.6731 38.0499 60.5005 54.6955 59.603C54.6955 59.603 43.3696 64.4061 30.1071 66.7835C44.9141 82.6 63.9866 96.7184 84.4074 109.066C91.2961 109.308 104.166 108.969 116.742 104.505C116.742 104.505 109.094 111.492 98.5524 117.217C160.158 151.13 228.064 169.3 229.045 169.566C230.025 169.3 297.907 151.106 359.537 117.217C348.996 111.492 341.347 104.505 341.347 104.505C353.923 108.993 366.793 109.308 373.682 109.066C394.127 96.7426 413.175 82.6242 427.982 66.7835C414.72 64.4061 403.394 59.603 403.394 59.603C420.015 60.4763 434.209 55.6731 438.793 53.9022H438.818Z" fill="#FFFFFF"></path>
<path d="M258.734 169.594L229.022 179.006L199.31 169.594L188.156 222.574C188.156 222.574 210.93 213.477 212.622 199.432V229.924L228.998 236.329L245.374 229.924V199.432C247.065 213.477 269.84 222.574 269.84 222.574L258.685 169.594H258.734Z" fill="#BDBDBD"></path>
<path d="M198.406 28.7188C213.238 34.4923 217.945 47.6161 216.768 65.0579C213.311 50.1632 207.55 37.6701 198.406 28.7188Z" fill="#BDBDBD"></path>
<path d="M259.44 28.7188C244.609 34.4923 239.902 47.6161 241.079 65.0579C244.535 50.1632 250.296 37.6701 259.44 28.7188Z" fill="#BDBDBD"></path>
<path d="M221.406 65.0726L229.128 20.2188L236.36 65.0726C232.487 62.3799 227.829 61.6036 221.406 65.0726Z" fill="#BDBDBD"></path>
</svg>