<svg width="285" height="255" viewBox="0 0 285 255" fill="none" xmlns="http://www.w3.org/2000/svg">
<path d="M146.557 0H119.719V50.9107H145.042C159.104 50.9107 170.498 62.3047 170.498 76.366C170.498 90.4274 159.104 101.821 145.042 101.821H119.719V152.732H146.557C187.852 152.732 221.31 119.275 221.31 77.9796V74.7524C221.31 33.4575 187.852 0 146.557 0Z" fill="#FFFFFF"></path>
<path d="M146.617 101.594H120.009V152.504H145.234C159.296 152.504 170.69 163.898 170.69 177.96C170.69 192.021 159.296 203.415 145.234 203.415H69V254.326H146.617C187.912 254.326 221.37 220.868 221.37 179.573V176.346C221.37 135.051 187.912 101.594 146.617 101.594Z" fill="#FFFFFF"></path>
<path d="M50.779 254.29H0L0 0H101.591V50.8448H50.8119V254.29H50.779Z" fill="#FFFFFF"></path>
<path d="M258.615 51.1348L233.188 76.5625L258.615 101.99L284.043 76.5625L258.615 51.1348Z" fill="#FFFFFF"></path>
<path d="M86.1464 101.588L60.7188 127.016L86.1464 152.443L111.574 127.016L86.1464 101.588Z" fill="#FFFFFF"></path>
<path d="M258.615 127.15L233.188 152.578L258.615 178.006L284.043 152.578L258.615 127.15Z" fill="#FFFFFF"></path>
<path d="M258.615 178.01L233.188 203.438L258.615 228.865L284.043 203.438L258.615 178.01Z" fill="#FFFFFF"></path>
</svg>