<svg width="187" height="278" viewBox="0 0 187 278" fill="none" xmlns="http://www.w3.org/2000/svg">
<g clip-path="url(#clip0_1337_1745)">
<path d="M38.2476 148.952C41.1504 146.597 43.9575 144.042 46.714 141.409V46.2288H109.776C126.59 46.2288 140.271 59.8012 140.271 76.4412V161.567C141.948 162.313 143.618 163.081 145.3 163.76C158.785 169.188 172.803 172.556 186.985 173.814V76.4412C186.985 34.2429 152.417 0 109.776 0H0L0 171.036C14.0637 165.603 26.9123 158.204 38.2476 148.952Z" fill="#FFFFFF"></path>
<path d="M104.049 115.593C113.724 115.593 121.567 107.832 121.567 98.2577C121.567 88.6834 113.724 80.9219 104.049 80.9219C94.3742 80.9219 86.5312 88.6834 86.5312 98.2577C86.5312 107.832 94.3742 115.593 104.049 115.593Z" fill="#FFFFFF"></path>
<path d="M181.742 228.59C170.559 257.121 142.544 277.368 109.764 277.368H0L0 184.916C17.7146 178.715 33.2016 170.971 46.7027 159.937C56.1873 152.249 66.6676 143.887 74.2619 134.078C73.6094 137.335 73.2719 139.862 73.1987 142.596C73.165 143.576 73.165 144.505 73.2156 145.418C73.7838 162.409 84.7366 168.555 88.3482 171.639C92.3816 175.091 108.38 185.863 107.177 192.727C107.16 192.939 107.104 193.15 107.019 193.356C106.946 193.568 106.862 193.796 106.738 194.002C106.631 194.213 106.49 194.425 106.333 194.614C106.243 194.737 106.136 194.842 106.012 194.948C105.855 195.087 105.692 195.21 105.517 195.316C103.728 196.629 100.882 196.507 97.6921 196C97.6752 196 97.6583 196 97.6414 195.984C97.197 195.911 96.7414 195.828 96.2801 195.739C95.6613 195.633 95.0425 195.511 94.4237 195.371C93.6249 195.215 92.8485 195.054 92.0497 194.898C91.5716 194.809 91.1103 194.726 90.6321 194.636C86.8799 193.968 83.3415 193.69 81.0407 195.282C79.5893 196.279 78.6161 197.999 78.4023 200.816C78.031 205.459 84.4216 210.43 93.3211 214.706C102.946 219.349 115.53 223.201 125.69 225.005C126.365 225.111 127.018 225.216 127.653 225.322H127.687C153.879 229.453 181.737 228.595 181.737 228.595L181.742 228.59Z" fill="#FFFFFF"></path>
<path d="M186.986 184.916V200.922C186.986 210.692 185.147 220.011 181.749 228.595C181.749 228.595 153.892 229.453 127.699 225.322H127.666C127.03 225.216 126.372 225.11 125.702 225.005C115.543 223.201 102.959 219.349 93.3334 214.706C84.4338 210.43 78.0433 205.459 78.4146 200.816C78.6284 197.993 79.6016 196.279 81.0529 195.282C83.3538 193.69 86.8922 193.968 90.6444 194.636C91.1225 194.726 91.5838 194.809 92.062 194.898C92.8608 195.054 93.6371 195.215 94.436 195.371C95.0548 195.51 95.6736 195.633 96.2924 195.739C96.7537 195.845 97.2149 195.934 97.6537 195.984C97.6706 196 97.6875 196 97.7044 196C100.888 196.507 103.74 196.629 105.529 195.316C105.704 195.21 105.867 195.087 106.024 194.948C106.148 194.842 106.255 194.737 106.345 194.614C106.503 194.419 106.643 194.213 106.75 194.002C106.874 193.79 106.964 193.562 107.031 193.356C107.121 193.145 107.172 192.933 107.189 192.727C108.393 185.863 92.3939 175.091 88.3604 171.639C84.7489 168.555 73.7961 162.409 73.2279 145.418C73.1773 144.505 73.1773 143.581 73.211 142.596C73.2842 139.862 73.6161 137.335 74.2742 134.078C94.8016 153.518 116.696 164.296 140.289 173.805C155.135 179.778 170.678 183.575 186.992 184.911L186.986 184.916Z" fill="#BDBDBD"></path>
</g>
<defs>
<clipPath id="clip0_1337_1745">
<rect width="186.985" height="277.362" fill="white"></rect>
</clipPath>
</defs>
</svg>