<svg width="257" height="325" viewBox="0 0 257 325" fill="none" xmlns="http://www.w3.org/2000/svg">
<path d="M154.256 215.848C154.256 220.606 163.794 230.143 168.552 230.143C163.794 230.143 154.256 239.68 154.256 244.438C154.256 239.68 144.719 230.143 139.961 230.143C144.719 230.143 154.256 220.606 154.256 215.848Z" fill="white"></path>
<path d="M196.72 289.892C195.489 296.695 170.258 298.949 163.914 299.909C153.458 301.057 142.982 301.746 132.464 301.933C131.233 301.975 130.001 301.996 128.77 301.996C117 302.121 105.229 301.662 93.501 300.598C48.3191 296.695 48.34 283.256 93.4592 278.664C102.976 277.683 112.534 277.12 122.092 277.016L122.968 280.271C109.654 280.563 98.5096 281.231 93.7723 281.753C85.1324 282.629 76.3882 283.61 68.124 286.219C66.1832 286.887 62.6771 288.139 62.1763 289.892C62.6354 291.708 66.1832 293.001 68.0823 293.711C76.3256 296.445 85.0698 297.572 93.7097 298.574C105.188 299.617 116.77 300.327 128.373 300.514C129.73 300.556 131.107 300.556 132.464 300.556C148.804 300.66 165.166 299.638 181.235 296.904C185.513 295.986 189.875 295.026 193.736 292.96C194.925 292.25 196.324 291.311 196.407 289.892C193.11 281.836 160.825 279.979 132.902 280.146C132.986 279.165 133.069 278.143 133.194 277.099C143.483 277.329 153.75 278.101 163.955 279.374C170.404 280.459 195.531 283.151 196.72 289.892Z" fill="white"></path>
<path d="M227.09 289.892C225.817 302.289 191.216 307.318 180.76 309.134C164.795 311.409 148.684 312.682 132.573 312.932C132.281 312.932 131.989 312.932 131.697 312.932C113.29 313.183 94.8627 312.139 76.623 309.781C13.6396 301.454 13.5979 278.435 76.5395 269.461C90.7306 267.5 105.026 266.373 119.363 266.102L120.073 269.378C114.313 269.524 108.532 269.754 102.793 270.025C85.5967 271.152 68.2544 272.968 51.6425 277.559C45.6113 279.354 39.3714 281.336 34.488 285.301C20.5056 298.658 69.0892 306.776 76.9151 307.777C94.0488 310.261 111.412 311.263 128.754 311.367C129.589 311.367 130.445 311.367 131.279 311.367C131.697 311.367 132.135 311.367 132.552 311.367C157.262 311.263 182.263 309.864 206.2 303.416C212.774 301.204 225.775 297.823 226.777 289.892C225.754 282.025 212.628 278.727 206.137 276.62C182.722 270.839 158.535 269.128 134.368 269.169C134.389 269.065 134.41 268.94 134.431 268.835C134.619 267.896 134.806 266.999 135.015 266.143C150.354 266.498 165.672 267.834 180.844 270.171C191.404 272.112 225.901 277.517 227.09 289.892Z" fill="white"></path>
<path d="M197.472 260.469C178.335 257.088 158.927 255.126 139.477 254.563C138.893 255.397 138.35 256.378 137.828 257.463C157.717 257.776 177.563 259.342 197.201 262.117C212.081 264.601 254.383 271.884 256.157 289.894C255.113 301.164 239.858 306.548 230.696 310.137C179.588 326.332 113.036 325.831 60.3199 317.504C-16.6458 303.981 -16.4997 275.703 60.4034 262.827C79.2692 259.843 98.4062 258.11 117.564 257.589C117.356 256.566 117.147 255.523 116.959 254.5C97.8428 254.959 78.7474 256.733 59.8816 259.759C-20.0057 273.449 -19.9431 306.485 59.9651 319.529C105.418 326.624 152.061 326.394 197.389 318.84C212.29 315.981 255.009 308.03 256.47 289.894C255.155 271.801 212.477 263.453 197.472 260.469Z" fill="white"></path>
<path d="M226.28 0C216.784 13.6276 211.066 27.2761 207.414 40.9037L205.745 47.6862C205.16 50.3574 204.639 53.0287 204.159 55.6791C201.926 57.6408 199.588 59.4982 197.126 61.1886C190.928 65.4876 184.02 68.8684 176.632 70.9762C186.128 69.4528 195.143 65.7589 203.345 60.6877C201.884 70.1623 201.049 79.5952 200.235 88.9655C196.187 92.1585 191.887 95.0802 187.359 97.6054C179.324 102.113 170.497 105.431 161.293 107.163C174.921 105.995 188.006 101.195 199.776 94.1828C199.713 95.1428 199.609 96.1028 199.526 97.0628L198.941 103.01C198.524 107.289 198.023 111.546 197.418 115.782L195.936 124.527C190.928 127.949 185.606 130.934 180.034 133.375C171.999 136.881 163.359 139.177 154.49 139.928C154.97 139.928 155.45 139.949 155.951 139.949C160.166 139.949 164.361 139.594 168.514 138.906C170.977 138.509 173.439 137.987 175.881 137.34C182.413 135.671 188.778 133.229 194.851 130.224C192.827 140.346 190.427 151.74 186.253 162.801C178.448 165.409 170.246 166.87 162.149 167.768C161.251 167.851 160.375 167.935 159.478 168.018C157.745 168.143 155.992 168.248 154.239 168.31C153.3 168.331 152.382 168.352 151.443 168.352C150.504 168.352 149.606 168.352 148.709 168.31C151.109 168.561 153.488 168.749 155.909 168.895C158.309 169.041 160.73 169.103 163.151 169.103C170.35 169.103 177.55 168.477 184.562 167.058C180.368 176.95 174.587 186.404 166.177 194.209C165.467 194.251 164.778 194.272 164.069 194.292C163.422 194.313 162.775 194.313 162.128 194.313C161.335 194.313 160.521 194.313 159.728 194.292C153.092 194.063 146.413 193.228 139.902 191.454C147.06 194.313 154.678 196.463 162.42 197.444C154.97 203.391 145.683 208.129 134.017 211.05C123.499 213.68 124.48 221.422 124.48 221.527C124.856 227.495 127.089 242.313 138.379 250.89C137.461 251.912 136.605 253.123 135.854 254.479C135.332 255.398 134.873 256.399 134.435 257.443C133.349 260.051 132.494 263.015 131.826 266.083C131.659 266.792 131.513 267.502 131.367 268.211C131.304 268.545 131.242 268.879 131.179 269.213C130.928 270.569 130.72 271.947 130.511 273.282C130.49 273.512 130.449 273.721 130.428 273.929C130.428 274.096 130.386 274.263 130.365 274.43C130.261 275.307 130.156 276.183 130.052 277.039C129.948 278.103 129.843 279.147 129.76 280.169C129.217 286.722 129.259 291.668 129.259 291.668L126.191 280.211L125.336 276.997L123.269 269.317L123.165 268.9L122.56 266.083L121.287 260.197L121.036 259.008C120.932 258.507 120.828 258.006 120.744 257.505C120.536 256.483 120.348 255.46 120.16 254.438C119.597 251.349 119.075 248.219 118.637 245.067H118.616C118.595 244.796 118.553 244.525 118.511 244.253C118.449 243.648 118.344 243.064 118.282 242.48C118.219 241.979 118.157 241.457 118.094 240.977C117.781 238.452 117.489 235.927 117.259 233.401C117.217 232.921 117.176 232.462 117.134 231.982C117.092 231.628 117.071 231.273 117.03 230.897C116.988 230.354 116.925 229.791 116.884 229.228C116.884 229.061 116.863 228.915 116.863 228.768C116.758 227.579 116.675 226.348 116.612 225.158C116.591 224.782 116.57 224.407 116.529 224.052C116.508 223.342 116.466 222.612 116.424 221.882C116.299 218.668 116.195 215.454 116.174 212.219C115.652 153.451 135.812 99.2958 169.829 56.6599C185.606 34.9768 204.659 15.8606 226.28 0Z" fill="white"></path>
<path d="M175.882 137.34C173.441 137.987 170.978 138.509 168.516 138.905C170.978 138.488 173.441 137.966 175.882 137.34Z" fill="white"></path>
<path d="M168.505 138.905C170.967 138.509 173.43 137.987 175.872 137.34C173.43 137.966 170.967 138.488 168.505 138.905ZM159.719 194.292C160.512 194.313 161.326 194.313 162.119 194.313C162.766 194.313 163.413 194.313 164.06 194.292C162.62 194.334 161.159 194.334 159.719 194.292Z" fill="white"></path>
</svg>