<svg width="294" height="292" viewBox="0 0 294 292" fill="none" xmlns="http://www.w3.org/2000/svg">
<path d="M20.7282 211.718C21.4133 216.036 21.8116 220.768 23.2774 224.926C8.53983 202.159 0 175.01 0 145.853C0 102.055 19.3102 62.781 49.8688 36.0781C37.2502 73.1053 23.134 109.176 19.0712 148.466C18.0515 158.312 17.6214 168.222 17.8125 178.117C18.0197 189.365 18.9916 200.597 20.7441 211.718H20.7282Z" fill="#FFFFFF"></path>
<path d="M239.772 33.0122C239.103 32.4546 237.414 33.0122 236.681 33.1875C235.088 33.538 233.526 34.016 231.965 34.4939C227.504 35.8323 222.963 36.9316 218.534 38.3177C211.619 40.4526 204.88 43.0178 198.124 45.6467C184.088 51.1275 170.211 57.0384 156.54 63.3637C138.951 71.4892 120.931 78.5951 103.549 87.2146C87.8235 95.1171 69.772 106.286 61.8854 122.664C57.966 130.822 58.0297 143.441 61.8535 151.63C66.0438 160.6 76.4955 166.479 84.7008 171.37C94.1488 177.01 104.138 181.663 114.048 186.41C168.474 212.508 176.361 228.727 164.347 263.572C164.347 263.572 158.038 278.293 147.108 291.772H146.694C117.123 291.772 89.5761 283.089 66.5377 268.16C66.4262 268.081 66.1872 267.937 66.1872 267.937C66.1872 267.937 64.8329 266.137 64.4187 265.627C63.7973 264.846 63.1919 264.066 62.6024 263.269C49.8085 245.759 45.0447 223.613 41.9857 202.566C38.7036 179.83 38.5761 156.712 40.3765 133.849C41.8264 115.606 44.4712 97.4911 47.7055 79.4873C48.5021 75.074 54.7317 33.3309 58.205 29.4274C58.3165 29.3318 58.444 29.2361 58.5555 29.1565C58.5714 29.1406 58.5874 29.1247 58.5874 29.1247C83.1394 10.8342 113.634 0 146.678 0C182.001 0 214.391 12.3796 239.724 33.0122H239.772Z" fill="#FFFFFF"></path>
<path d="M293.863 145.885C293.863 224.847 230.818 289.15 152.047 291.747C156.795 288.035 161.432 284.195 165.957 280.148C179.531 268.008 202.681 247.487 200.227 227.221C199.67 222.616 197.535 218.33 195.002 214.459C189.298 205.712 181.443 198.558 173.174 192.137C157.401 179.901 139.891 170.103 121.951 161.387C113.061 157.07 104.059 152.911 94.9454 149.056C86.6604 145.55 77.9453 142.109 71.0625 136.182C75.7148 131.418 80.6379 127.324 86.3577 123.946C92.6351 120.234 99.0081 116.713 105.477 113.303C118.255 106.564 131.287 100.302 144.304 94.0566C152.51 90.1213 160.731 86.1859 168.984 82.3621C182.303 76.2121 195.766 70.3649 209.564 65.3462C215.857 63.0519 222.262 61.1559 228.619 59.0847C231.965 57.9854 235.343 56.9975 238.8 56.3762C241.222 55.946 243.962 55.4044 246.416 55.5477C247.611 55.6274 248.822 55.9938 249.698 56.8064C251.642 58.5908 251.769 61.9685 251.785 64.4062C251.817 73.0576 246.703 81.3106 242.146 88.3368C226.197 112.953 214.2 131.609 217.387 142.985C217.052 141.79 217.674 139.894 217.913 138.747C218.821 134.621 220.605 130.685 222.724 127.053C229.543 115.279 240.855 107.408 248.678 96.3509C253.92 88.9423 257.935 80.5617 259.48 71.6236C260.086 68.0866 260.5 64.3743 260.58 60.6301C260.644 58.1128 260.58 55.5955 260.325 53.0781C281.26 78.2993 293.831 110.642 293.831 145.901L293.863 145.885Z" fill="#FFFFFF"></path>
</svg>