<svg width="462" height="225" viewBox="0 0 462 225" fill="none" xmlns="http://www.w3.org/2000/svg">
<path d="M76.2707 219.352C77.3276 207.485 79.6853 195.999 83.2117 185.047C84.0958 182.294 82.7544 179.314 80.1121 178.205L19.7877 152.941C16.8812 151.718 13.5479 153.229 12.5114 156.229C5.67202 175.924 1.38346 196.8 0.0115287 218.499C-0.191721 221.694 2.31841 224.407 5.4891 224.407H70.8134C73.6488 224.407 76.0065 222.218 76.2605 219.352H76.2707Z" fill="#BDBDBD"></path>
<path d="M132.812 111.916C141.602 104.673 151.186 98.385 161.419 93.1967C163.99 91.8919 165.149 88.8097 164.041 86.1282L139.062 25.1626C137.863 22.2242 134.468 20.9091 131.633 22.2756C112.711 31.368 95.1905 42.9879 79.52 56.6933C77.1115 58.7995 76.9794 62.5392 79.2354 64.8097L125.464 111.546C127.456 113.56 130.627 113.714 132.802 111.906L132.812 111.916Z" fill="#BDBDBD"></path>
<path d="M93.8465 159.781C99.2835 149.476 105.828 139.87 113.318 131.096C115.198 128.898 115.096 125.61 113.064 123.555L66.9058 76.8908C64.6802 74.6408 61.0522 74.7436 58.9486 77.0963C44.9956 92.7538 33.1055 110.333 23.7052 129.391C22.2824 132.267 23.5731 135.761 26.5202 136.993L86.9259 162.288C89.5376 163.377 92.5254 162.288 93.8567 159.771L93.8465 159.781Z" fill="#BDBDBD"></path>
<path d="M397.319 79.7502L351.1 126.476C349.098 128.5 348.966 131.716 350.754 133.925C357.675 142.432 363.742 151.678 368.793 161.541C370.104 164.099 373.122 165.229 375.754 164.13L436.109 138.856C439.026 137.634 440.326 134.171 438.944 131.295C429.981 112.688 418.64 95.4694 405.327 80.0276C403.243 77.6029 399.555 77.4797 397.309 79.7502H397.319Z" fill="#BDBDBD"></path>
<path d="M304.542 95.4569C314.268 100.769 323.373 107.097 331.717 114.31C333.892 116.19 337.133 116.087 339.166 114.032L385.324 67.3679C387.549 65.1179 387.448 61.4296 385.1 59.3131C369.938 45.5974 352.987 33.8748 334.634 24.5461C331.788 23.0974 328.323 24.4022 327.103 27.3817L302.073 88.4706C300.996 91.1007 302.073 94.111 304.542 95.4672V95.4569Z" fill="#BDBDBD"></path>
<path d="M247.044 77.5163C258.293 78.6876 269.188 81.0814 279.594 84.554C282.328 85.4684 285.285 84.1122 286.393 81.4204L311.372 20.4548C312.571 17.5165 311.098 14.1671 308.14 13.0987C289.116 6.28703 268.954 1.91032 248.019 0.358956C244.838 0.122655 242.125 2.6706 242.125 5.89662V72.0095C242.125 74.8554 244.259 77.2184 247.054 77.5163H247.044Z" fill="#BDBDBD"></path>
<path d="M186.68 83.1033C197.3 79.9287 208.387 77.8636 219.82 77.052C222.696 76.8465 224.931 74.4424 224.931 71.5348V5.54525C224.931 2.3706 222.299 -0.156795 219.159 0.00758824C198.021 1.07608 177.635 5.011 158.357 11.4322C155.329 12.4391 153.794 15.85 155.014 18.8192L180.044 79.9184C181.121 82.5382 183.977 83.9047 186.67 83.1033H186.68Z" fill="#BDBDBD"></path>
<path d="M379.145 186.925C382.336 197.312 384.501 208.151 385.497 219.329C385.751 222.185 388.108 224.384 390.954 224.384H456.278C459.449 224.384 461.959 221.672 461.756 218.477C460.435 197.518 456.39 177.309 449.967 158.21C448.951 155.179 445.598 153.648 442.671 154.881L382.285 180.165C379.674 181.264 378.312 184.182 379.155 186.915L379.145 186.925Z" fill="#BDBDBD"></path>
<path d="M312.193 223.33H148.872L140 205.094H321.075L312.193 223.33Z" fill="white"></path>
<path d="M167.49 193.359H292.763C294.582 193.359 296.066 194.849 296.066 196.698V205.103H164.188V196.698C164.188 194.859 165.661 193.359 167.49 193.359Z" fill="#BDBDBD"></path>
<path d="M200.033 132.995C200.033 132.995 189.291 147.45 195.623 155.341C201.944 163.241 196.578 174.933 196.578 174.933C196.578 174.933 208.102 156.378 201.944 148.909C195.785 141.44 200.033 132.984 200.033 132.984V132.995Z" fill="white"></path>
<path d="M264.564 132.995C264.564 132.995 253.823 147.45 260.154 155.341C266.475 163.241 261.109 174.933 261.109 174.933C261.109 174.933 272.633 156.378 266.475 148.909C260.317 141.44 264.564 132.984 264.564 132.984V132.995Z" fill="white"></path>
<path d="M232.252 106.104C232.252 106.104 221.51 120.559 227.841 128.45C234.162 136.351 228.797 148.042 228.797 148.042C228.797 148.042 240.321 129.488 234.162 122.018C228.004 114.549 232.252 106.094 232.252 106.094V106.104Z" fill="white"></path>
</svg>