<svg width="250" height="322" viewBox="0 0 250 322" fill="none" xmlns="http://www.w3.org/2000/svg">
<path d="M236.729 174.717H232.769V151.92C232.769 140.902 231.807 130.114 229.903 119.868C224.557 91.086 211.763 65.6585 191.879 44.2719C161.785 11.9251 125.562 0.192994 125.194 0.0786272C124.855 -0.0262091 124.487 -0.0262091 124.148 0.0786272C123.79 0.192994 87.5573 11.9251 57.4722 44.2814C37.5883 65.6585 24.7944 91.0955 19.4487 119.878C17.5442 130.123 16.5825 140.912 16.5825 151.929V174.726H12.6227C11.6233 174.726 10.8125 175.546 10.8125 176.556V189.689C10.8125 190.699 11.6233 191.519 12.6227 191.519H16.5825V235.303L20.0709 236.246V191.519H49.9675V244.338L53.503 245.3V238.228L63.0631 247.892L69.8136 249.722L53.5124 233.244V191.529H56.322L93.0539 255.85L93.1765 256.06L97.9471 257.347L59.3296 189.737C59.3296 189.737 59.3296 189.708 59.3296 189.699V176.566C59.3296 175.555 58.5188 174.736 57.5194 174.736H53.5124V151.939C53.5124 143.218 54.2667 134.746 55.7469 126.768C57.8305 115.58 61.4509 104.934 66.5327 95.1079L110.449 260.778L110.515 261.045L110.769 261.159C111.712 261.588 112.646 262.083 113.522 262.627L114.748 263.389L68.9651 90.6571C73.2266 83.2614 78.4215 76.2564 84.3989 69.8233C97.8057 55.4036 112.683 46.2447 122.941 41.0505V273.167L122.998 273.349C123.441 274.321 123.827 275.312 124.138 276.313L124.685 278.066L125.232 276.313C125.543 275.312 125.93 274.311 126.401 273.291L126.429 273.234V41.0696C136.772 46.3114 151.716 55.5084 165.019 69.8138C170.958 76.1993 176.134 83.1947 180.415 90.6095L134.99 261.969L134.622 263.37L135.848 262.608C136.734 262.064 137.658 261.569 138.611 261.14L138.856 261.026L182.847 95.0507C187.948 104.905 191.587 115.56 193.661 126.749C195.142 134.736 195.896 143.209 195.896 151.92V174.717H191.842C190.842 174.717 190.032 175.536 190.032 176.547V189.68C190.032 189.68 190.032 189.708 190.032 189.718L151.414 257.328L156.185 256.041L193.039 191.51H195.896V233.177L179.538 249.703L186.128 247.921L186.279 247.883L195.886 238.171V245.281L199.422 244.318V191.51H229.271V236.237L232.76 235.293V191.51H236.72C237.719 191.51 238.53 190.69 238.53 189.68V176.547C238.53 175.536 237.719 174.717 236.72 174.717H236.729ZM49.958 151.92V174.717H20.0615V151.92C20.0615 141.121 21.0043 130.562 22.8711 120.516C28.0942 92.4108 40.5865 67.5741 60.0084 46.6831C87.5196 17.1193 120.537 5.04405 124.676 3.61447C128.815 5.04405 161.832 17.1193 189.334 46.6926C208.756 67.5741 221.248 92.4203 226.471 120.526C228.338 130.562 229.281 141.131 229.281 151.929V174.726H199.431V151.929C199.431 142.989 198.658 134.298 197.131 126.101C194.698 112.987 190.211 100.636 183.809 89.3896C179.349 81.565 173.9 74.1693 167.593 67.393C153.045 51.7438 136.631 42.0227 125.43 36.6188C125.176 36.4949 124.902 36.4473 124.657 36.4473C124.374 36.4473 124.11 36.4949 123.865 36.6188C112.759 41.9655 96.4481 51.639 81.7873 67.393C66.3347 84.0048 56.3974 103.762 52.2491 126.101C50.7217 134.298 49.958 142.989 49.958 151.929V151.92ZM55.6903 178.376V187.84H14.4235V178.376H55.6903ZM234.909 178.376V187.84H193.642V178.376H234.909Z" fill="#FFFFFF"></path>
<path d="M229.291 296.232H199.395V282.279L195.906 283.222V299.758H231.035C231.997 299.758 232.78 298.967 232.78 297.995V273.234L229.291 274.178V296.222V296.232Z" fill="#FFFFFF"></path>
<path d="M49.9787 296.253H20.0822V274.209L16.5938 273.266V298.026C16.5938 298.998 17.3763 299.789 18.338 299.789H53.4671V283.254L49.9787 282.31V296.263V296.253Z" fill="#FFFFFF"></path>
<path d="M249.255 268.134L240.176 233.89C240.053 233.433 239.771 233.052 239.365 232.813C238.96 232.575 238.479 232.518 238.045 232.642L141.935 258.67C134.025 260.814 127.623 266.637 124.663 274.338C121.702 266.637 115.301 260.805 107.39 258.67L11.2802 232.642C10.8371 232.518 10.3657 232.575 9.95085 232.813C9.54544 233.052 9.25317 233.433 9.1306 233.89L0.0607589 268.134C-0.0618065 268.581 0.00419028 269.068 0.230465 269.477C0.466168 269.887 0.843292 270.183 1.28641 270.297L95.4733 295.81L58.4962 305.827C57.7325 306.027 57.2045 306.732 57.2045 307.533V319.684C57.2045 320.228 57.4591 320.752 57.8834 321.085C58.3076 321.419 58.8733 321.533 59.4013 321.39L124.653 303.721L189.905 321.39C190.056 321.428 190.207 321.448 190.358 321.448C190.744 321.448 191.121 321.314 191.423 321.085C191.847 320.752 192.102 320.228 192.102 319.684V307.533C192.102 306.732 191.574 306.037 190.81 305.827L153.833 295.81L248.02 270.297C248.954 270.049 249.5 269.077 249.255 268.134ZM245.427 267.343L126.407 299.584V283.735C126.407 273.614 133.167 264.712 142.84 262.091L237.263 236.521L245.437 267.352L245.427 267.343ZM147.083 297.631L188.604 308.877V317.368L131.394 301.872L147.073 297.621L147.083 297.631ZM117.912 301.881L60.7024 317.378V308.886L102.233 297.64L117.922 301.891L117.912 301.881ZM122.909 283.726V299.575L3.88857 267.343L12.0627 236.511L106.485 262.082C116.159 264.703 122.918 273.604 122.918 283.726H122.909Z" fill="#FFFFFF"></path>
</svg>