<svg width="281" height="309" viewBox="0 0 281 309" fill="none" xmlns="http://www.w3.org/2000/svg">
<g clip-path="url(#clip0_1337_2590)">
<path d="M205.245 284.717C217.727 285.516 230.238 286.856 242.72 288.625C255.231 290.222 267.656 292.475 280.11 294.843C256.029 286.913 231.178 281.066 205.786 278.271C193.105 276.817 180.195 276.332 167.285 277.301C164.008 277.558 160.902 277.872 157.368 278.585C156.427 278.813 155.601 278.956 154.262 279.555C153.891 279.754 153.521 279.897 152.922 280.382C152.666 280.581 152.267 280.952 151.896 281.523C151.526 282.065 151.098 283.034 151.155 284.09C151.326 286.286 152.352 287.056 152.751 287.484C153.264 287.94 153.606 288.14 153.948 288.34C156.285 289.537 157.71 289.794 159.42 290.308C165.86 291.933 172.044 292.989 178.286 294.158C184.498 295.242 190.711 296.326 196.724 297.666C198.576 298.094 200.4 298.551 202.196 299.064C197.807 300.148 192.82 300.633 188.032 301.06C181.848 301.517 175.578 301.774 169.309 301.945C156.741 302.201 144.116 302.144 131.492 301.945C125.706 301.945 119.893 301.831 114.108 301.716C110.802 301.659 107.525 301.574 104.219 301.488C105.216 302.315 106.385 302.914 107.61 303.257C108.522 303.371 109.434 303.513 110.346 303.627C129.896 306.137 149.531 307.877 169.309 308.419C175.664 308.59 182.047 308.647 188.488 308.334C194.986 307.906 201.312 307.678 208.294 305.481L209.662 304.968L210.318 304.683L211.144 304.255C211.657 303.941 212.255 303.599 212.968 302.857C213.623 302.201 214.706 300.633 214.421 298.579C214.108 296.611 213.167 295.784 212.597 295.185C211.97 294.614 211.429 294.272 210.945 293.958C209.947 293.388 209.092 292.989 208.237 292.646C204.874 291.334 201.74 290.593 198.576 289.794C192.25 288.311 186.009 287.17 179.796 286.029C177.516 285.601 175.208 285.202 172.928 284.803C183.615 283.976 194.416 284.232 205.245 284.803V284.717Z" fill="#BDBDBD"></path>
<path d="M120.941 42.9488L118.49 41.9505C118.49 41.9505 119.63 42.521 120.456 44.0041C117.834 49.623 115.697 55.8694 113.959 62.5436C109.969 67.4209 103.984 73.3536 95.1784 80.5697C95.1784 80.5697 104.269 75.9206 112.591 68.1625C112.163 70.102 111.764 72.0415 111.394 74.0381C108.972 76.2628 106.207 78.6587 103.129 81.1687C103.129 81.1687 106.492 79.4573 110.995 76.3769C109.513 84.8766 108.544 93.7185 107.917 102.446C103.015 107.381 96.5178 112.714 87.8543 118.362C87.8543 118.362 97.6292 115.595 107.575 108.065C105.666 143.718 109.399 176.348 109.399 176.348C110.197 182.737 109.94 188.498 108.829 193.746C105.466 196.456 101.733 199.251 97.6292 202.103C97.6292 202.103 101.704 200.62 107.718 197.91C102.958 203.501 96.6603 209.462 88.8233 213.74C88.8233 213.74 95.2639 212.799 104.041 206.524C98.3417 216.821 89.1937 224.436 79.9888 230.54C69.701 192.52 60.3536 137.072 59.2136 59.4062C59.2136 57.5522 52.0891 151.105 70.9264 231.025C48.9543 217.591 27.6091 209.947 18.0052 176.661C18.0052 176.661 14.6994 166.365 11.3652 150.763C19.2592 163.741 26.3552 170.9 26.3552 170.9C17.6063 153.958 11.5076 139.753 7.28991 127.86C6.94794 125.35 6.60596 122.783 6.29248 120.159C9.51278 128.573 13.36 137.044 17.9767 144.83C17.9767 144.83 9.19929 125.407 4.83907 102.646C4.24061 89.7539 4.66808 76.4625 6.89094 63.8842C7.68889 59.5773 8.57233 55.4986 9.54127 51.6196C13.588 67.4209 19.9146 86.4738 29.5185 102.674C29.5185 102.674 13.816 67.9343 14.0155 36.9021C20.0286 20.7299 28.4641 9.57771 40.3763 4.04438C40.3763 4.04438 51.2341 -0.775889 56.2498 0.108302C61.2655 0.992494 73.0923 5.24232 73.0923 5.24232L95.3494 11.0609L98.0567 16.3945L135.332 24.3808C129.433 28.7732 124.703 35.1907 120.941 42.9488Z" fill="#BDBDBD"></path>
<path d="M118.497 41.9531L120.948 42.9514C120.777 43.2937 120.606 43.6359 120.435 44.0067C119.609 42.5236 118.469 41.9531 118.469 41.9531H118.497Z" fill="#1583CE"></path>
<path d="M75.9242 42.115L50.8173 39.0916C48.2525 38.7208 43.9492 36.7243 42.0114 32.2463L49.6774 30.3068L41.0994 28.5954C41.0424 27.9394 41.0139 27.2549 41.0424 26.5133C41.1564 20.8373 46.6851 18.4415 51.5013 18.1562L76.7507 21.1511L79.6575 25.515L75.9242 42.0294V42.115Z" fill="#FFFFFF"></path>
<path d="M166.344 25.9506C167.684 31.2843 166.715 36.6179 164.093 40.9818L153.52 41.6949L160.616 45.2602C158.251 47.4564 155.344 49.0822 152.01 49.9378C149.644 50.5368 147.279 50.5938 144.999 50.3371V50.4227L50.8125 39.0994C53.0354 39.3275 55.3152 39.242 57.5951 38.6715C68.1679 36.019 74.58 25.2946 71.9297 14.7128L85.6088 11.2901L69.6783 9.29356C66.7145 4.41624 61.7843 1.10766 56.2557 0.109375L148.59 11.0905V11.1475C153.577 11.4898 158.222 13.7145 161.585 17.2798L157.31 21.7008L163.808 20.075C164.948 21.8434 165.831 23.8114 166.373 25.9506H166.344Z" fill="#FFFFFF"></path>
<path d="M79.9999 230.609C89.0339 263.98 103.026 291.191 103.026 291.191C101.231 293.986 102.656 298.35 104.223 301.516C102.115 299.091 99.3217 295.298 95.7024 295.954C95.7024 295.954 76.6656 255.481 70.9375 231.123C72.3339 231.978 73.7018 232.834 75.0982 233.747C76.7226 232.749 78.3755 231.722 79.9999 230.638V230.609Z" fill="#FFFFFF"></path>
</g>
<defs>
<clipPath id="clip0_1337_2590">
<rect width="280.109" height="308.526" fill="white"></rect>
</clipPath>
</defs>
</svg>