<svg width="264" height="234" viewBox="0 0 264 234" fill="none" xmlns="http://www.w3.org/2000/svg">
<path d="M73.484 222.776L83.6495 212.61H0V233.499H84.1926L73.484 222.776ZM180.333 212.61L190.499 222.776L179.79 233.499H263.328V212.61H180.333ZM232.303 59.2278C231.105 57.9049 229.893 56.6097 228.654 55.3425C215.62 41.9734 200.511 31.3617 186.154 23.1452C186.112 23.1313 186.07 23.1035 186.029 23.0895C185.43 22.7414 184.831 22.4072 184.232 22.0729C156.354 6.47565 131.831 0 131.831 0C131.831 0 107.309 6.47565 79.4301 22.0729C78.8313 22.4072 78.2326 22.7414 77.6338 23.0895C77.592 23.1035 77.5502 23.1313 77.5084 23.1452C63.1514 31.3617 48.0424 41.9734 35.0083 55.3425C33.7689 56.6097 32.5574 57.9049 31.3599 59.2278C13.2569 79.1979 0 104.933 0 137.507V233.499H21.2361V137.507C21.2361 115.67 28.6305 95.7143 43.3078 77.861C44.2408 76.7191 45.2156 75.5632 46.2321 74.4352C54.3924 65.23 64.5579 56.6097 76.6729 48.5883C81.6582 45.3017 86.6713 42.3215 91.5591 39.6477C91.949 39.4249 92.3389 39.216 92.7288 39.0071C109.203 30.1222 124.144 24.705 131.831 22.1983C139.532 24.705 154.502 30.1362 171.017 39.0489C171.449 39.2717 171.88 39.5084 172.312 39.7452C177.13 42.3912 182.088 45.3435 187.003 48.5883C199.132 56.6097 209.284 65.23 217.43 74.4352C218.419 75.5354 219.366 76.6355 220.271 77.7496C235.004 95.6308 242.426 115.615 242.426 137.507V233.499H263.662V137.507C263.662 104.933 250.405 79.1979 232.303 59.2278ZM242.426 145.096V212.61V146.503C242.426 146.029 242.426 145.556 242.426 145.096ZM172.312 39.7452C177.13 42.3912 182.088 45.3435 187.003 48.5883C199.132 56.6097 209.284 65.23 217.43 74.4352C215.077 71.4689 212.57 68.6001 209.911 65.8428C199.063 54.5904 186.293 45.7752 172.312 39.7452ZM46.2321 74.4352C54.3924 65.23 64.5579 56.6097 76.6729 48.5883C81.6582 45.3017 86.6713 42.3215 91.5591 39.6477C77.5084 45.6777 64.6553 54.5347 53.7518 65.8428C51.0921 68.6001 48.5855 71.4689 46.2321 74.4352ZM21.2222 212.61H21.2361V145.096C21.2222 145.556 21.2222 146.029 21.2222 146.503V212.61Z" fill="white"></path>
<path d="M73.4857 222.775L83.6512 212.609H0.335938V233.499H84.1943L73.4857 222.775ZM180.335 212.609L190.5 222.775L179.792 233.499H263.664V212.609H180.335Z" fill="white"></path>
<path d="M190.497 222.779L179.788 233.503H171.684L113.81 175.626H97.2669L84.5252 162.883V151.84H73.4824L66.0045 144.361V133.318H54.9617L41.7188 120.074H87.7977L160.739 193.019L180.332 212.613L190.497 222.779Z" fill="white"></path>
<path d="M126.387 199.41L92.2975 233.501H84.193L73.4844 222.778L83.6499 212.612L103.243 193.018L111.626 184.648L126.387 199.41Z" fill="white"></path>
<path d="M222.273 120.074L209.03 133.318H197.987V144.361L190.51 151.84H179.467V162.883L166.725 175.626H150.182L146.77 179.037L132.009 193.813L117.234 179.037L132.009 164.276L176.194 120.074H222.273Z" fill="white"></path>
<path d="M149.076 79.704L149.289 79.9209C158.193 89.0768 158.193 103.692 149.289 112.848L149.076 113.065C139.887 122.277 124.99 122.277 115.801 113.065L114.075 111.334C105.84 103.078 105.84 89.6916 114.075 81.4353L115.801 79.704L132.438 96.3846L132.225 96.1677C123.25 86.9393 123.322 72.1639 132.438 63.0234L149.076 79.704Z" fill="white"></path>
</svg>