<svg width="353" height="277" viewBox="0 0 353 277" fill="none" xmlns="http://www.w3.org/2000/svg">
<path d="M242.124 230.466C216.496 258.863 179.235 276.645 137.795 276.349C62.6645 275.801 1.06963 214.92 0.0135477 140.136C-1.05741 62.9243 61.5043 0 138.821 0C155.496 0 171.471 2.93153 186.286 8.2912C188.636 9.14993 189.647 11.9186 188.398 14.0802L155.54 70.7269C154.692 72.1927 152.997 72.9774 151.331 72.6665C147.285 71.8966 143.105 71.482 138.821 71.482C100.936 71.482 70.3992 102.781 71.8569 140.817C73.1659 174.796 100.55 202.705 134.642 204.763C161.059 206.362 184.412 192.696 196.683 171.806L177.331 146.799C174.609 143.29 177.123 138.182 181.585 138.182H273.598C275.83 138.182 277.629 139.988 277.629 142.194V260.655C277.629 265.763 271.129 267.954 268.006 263.912L242.109 230.466H242.124Z" fill="#BDBDBD"></path>
<path d="M251.064 123.601C265.752 123.601 277.66 111.749 277.66 97.1289C277.66 82.5084 265.752 70.6562 251.064 70.6562C236.376 70.6562 224.469 82.5084 224.469 97.1289C224.469 111.749 236.376 123.601 251.064 123.601Z" fill="#FFFFFF"></path>
<path d="M293.25 174.107V142.215C293.25 139.995 295.05 138.203 297.281 138.203H348.137C352.182 138.203 353.7 143.459 350.278 145.606L299.423 177.497C296.745 179.185 293.25 177.261 293.25 174.107Z" fill="#FFFFFF"></path>
</svg>