<svg width="241" height="258" viewBox="0 0 241 258" fill="none" xmlns="http://www.w3.org/2000/svg">
<path d="M128.727 139.554H112.195C112.195 114.289 132.75 93.7344 158.015 93.7344H232.628V110.266H158.015C141.87 110.266 128.727 123.409 128.727 139.554Z" fill="white"></path>
<path d="M128.726 233.261H112.195C112.195 217.115 99.0519 203.972 82.906 203.972H27.5527C12.3712 203.972 0 191.601 0 176.42V0H82.8784C108.144 0 128.699 20.5543 128.699 45.8201V233.261H128.726ZM16.5316 16.5316V176.42C16.5316 182.509 21.4635 187.441 27.5527 187.441H82.8784C94.0097 187.441 104.232 191.436 112.167 198.049V45.8201C112.167 29.6742 99.0243 16.5316 82.8784 16.5316H16.5316Z" fill="white"></path>
<path d="M128.727 233.261H112.195C112.195 207.995 132.75 187.441 158.015 187.441H213.341C219.43 187.441 224.362 182.509 224.362 176.42V16.5316H158.015C141.87 16.5316 128.727 29.6742 128.727 45.8201H112.195C112.195 20.5543 132.75 0 158.015 0H240.894V176.42C240.894 191.601 228.523 203.972 213.341 203.972H158.015C141.87 203.972 128.727 217.115 128.727 233.261Z" fill="white"></path>
<path d="M128.726 92.0779H112.194C112.194 75.932 99.0517 62.7894 82.9058 62.7894H8.26562V46.2578H82.8783C108.144 46.2578 128.698 66.8121 128.698 92.0779H128.726Z" fill="white"></path>
<path d="M128.726 138.344H112.194C112.194 122.198 99.0517 109.055 82.9058 109.055H8.26562V92.5234H82.8783C108.144 92.5234 128.698 113.078 128.698 138.344H128.726Z" fill="white"></path>
<path d="M128.726 184.633H112.194C112.194 168.487 99.0517 155.344 82.9058 155.344H8.26562V138.812H82.8783C108.144 138.812 128.698 159.367 128.698 184.633H128.726Z" fill="white"></path>
<path d="M44.3157 124.347L33.0547 113.086L21.7937 124.347L33.0547 135.608L44.3157 124.347Z" fill="white"></path>
<path d="M68.886 124.335L57.625 113.074L46.364 124.335L57.625 135.596L68.886 124.335Z" fill="white"></path>
<path d="M93.4485 124.331L82.1875 113.07L70.9265 124.331L82.1875 135.592L93.4485 124.331Z" fill="white"></path>
<path d="M128.727 233.262H112.195V257.563H128.727V233.262Z" fill="white"></path>
</svg>