<svg width="350" height="298" viewBox="0 0 350 298" fill="none" xmlns="http://www.w3.org/2000/svg">
<path d="M294.64 178.35C313.529 178.35 328.842 162.941 328.842 143.933C328.842 124.925 313.529 109.516 294.64 109.516C275.75 109.516 260.438 124.925 260.438 143.933C260.438 162.941 275.75 178.35 294.64 178.35Z" fill="#BDBDBD"></path>
<path d="M312.1 67.2752C324.34 67.2752 334.262 57.2904 334.262 44.9736C334.262 32.6567 324.34 22.6719 312.1 22.6719C299.86 22.6719 289.938 32.6567 289.938 44.9736C289.938 57.2904 299.86 67.2752 312.1 67.2752Z" fill="#BDBDBD"></path>
<path d="M15.1471 130.61C23.5126 130.61 30.2942 123.785 30.2942 115.367C30.2942 106.949 23.5126 100.125 15.1471 100.125C6.7816 100.125 0 106.949 0 115.367C0 123.785 6.7816 130.61 15.1471 130.61Z" fill="#FFFFFF"></path>
<path d="M96.7721 30.4847C105.138 30.4847 111.919 23.6604 111.919 15.2423C111.919 6.82422 105.138 0 96.7721 0C88.4066 0 81.625 6.82422 81.625 15.2423C81.625 23.6604 88.4066 30.4847 96.7721 30.4847Z" fill="#FFFFFF"></path>
<path d="M110.772 101.672C119.138 101.672 125.919 94.8479 125.919 86.4298C125.919 78.0117 119.138 71.1875 110.772 71.1875C102.407 71.1875 95.625 78.0117 95.625 86.4298C95.625 94.8479 102.407 101.672 110.772 101.672Z" fill="#FFFFFF"></path>
<path d="M171.428 123.563C179.794 123.563 186.576 116.739 186.576 108.32C186.576 99.9023 179.794 93.0781 171.428 93.0781C163.063 93.0781 156.281 99.9023 156.281 108.32C156.281 116.739 163.063 123.563 171.428 123.563Z" fill="#FFFFFF"></path>
<path d="M270.928 31.2659C279.294 31.2659 286.075 24.4417 286.075 16.0236C286.075 7.60547 279.294 0.78125 270.928 0.78125C262.563 0.78125 255.781 7.60547 255.781 16.0236C255.781 24.4417 262.563 31.2659 270.928 31.2659Z" fill="#FFFFFF"></path>
<path d="M43.1354 94.6509C63.9554 94.6509 80.8333 77.6669 80.8333 56.7161C80.8333 35.7653 63.9554 18.7812 43.1354 18.7812C22.3154 18.7812 5.4375 35.7653 5.4375 56.7161C5.4375 77.6669 22.3154 94.6509 43.1354 94.6509Z" fill="#BDBDBD"></path>
<path d="M214.917 93.0884C235.737 93.0884 252.615 76.1044 252.615 55.1536C252.615 34.2028 235.737 17.2188 214.917 17.2188C194.097 17.2188 177.219 34.2028 177.219 55.1536C177.219 76.1044 194.097 93.0884 214.917 93.0884Z" fill="#BDBDBD"></path>
<path d="M277.147 96.9847C285.513 96.9847 292.294 90.1604 292.294 81.7423C292.294 73.3242 285.513 66.5 277.147 66.5C268.782 66.5 262 73.3242 262 81.7423C262 90.1604 268.782 96.9847 277.147 96.9847Z" fill="#FFFFFF"></path>
<path d="M333.897 107.907C342.263 107.907 349.044 101.082 349.044 92.6642C349.044 84.2461 342.263 77.4219 333.897 77.4219C325.532 77.4219 318.75 84.2461 318.75 92.6642C318.75 101.082 325.532 107.907 333.897 107.907Z" fill="#FFFFFF"></path>
<path d="M270.928 217.453C279.294 217.453 286.075 210.629 286.075 202.211C286.075 193.793 279.294 186.969 270.928 186.969C262.563 186.969 255.781 193.793 255.781 202.211C255.781 210.629 262.563 217.453 270.928 217.453Z" fill="#FFFFFF"></path>
<path d="M171.428 298C179.794 298 186.576 291.176 186.576 282.758C186.576 274.34 179.794 267.516 171.428 267.516C163.063 267.516 156.281 274.34 156.281 282.758C156.281 291.176 163.063 298 171.428 298Z" fill="#FFFFFF"></path>
<path d="M71.9284 218.25C80.2939 218.25 87.0755 211.426 87.0755 203.008C87.0755 194.59 80.2939 187.766 71.9284 187.766C63.5629 187.766 56.7812 194.59 56.7812 203.008C56.7812 211.426 63.5629 218.25 71.9284 218.25Z" fill="#FFFFFF"></path>
<path d="M123.609 188.522C142.498 188.522 157.811 173.113 157.811 154.105C157.811 135.097 142.498 119.688 123.609 119.688C104.719 119.688 89.4062 135.097 89.4062 154.105C89.4062 173.113 104.719 188.522 123.609 188.522Z" fill="#BDBDBD"></path>
<path d="M210.292 264.37C231.112 264.37 247.99 247.386 247.99 226.435C247.99 205.484 231.112 188.5 210.292 188.5C189.472 188.5 172.594 205.484 172.594 226.435C172.594 247.386 189.472 264.37 210.292 264.37Z" fill="#BDBDBD"></path>
<path d="M218.037 168.181C230.277 168.181 240.2 158.197 240.2 145.88C240.2 133.563 230.277 123.578 218.037 123.578C205.797 123.578 195.875 133.563 195.875 145.88C195.875 158.197 205.797 168.181 218.037 168.181Z" fill="#BDBDBD"></path>
<path d="M43.1311 178.338C55.3711 178.338 65.2935 168.353 65.2935 156.036C65.2935 143.719 55.3711 133.734 43.1311 133.734C30.8912 133.734 20.9688 143.719 20.9688 156.036C20.9688 168.353 30.8912 178.338 43.1311 178.338Z" fill="#BDBDBD"></path>
<path d="M122.444 260.494C134.684 260.494 144.606 250.509 144.606 238.192C144.606 225.875 134.684 215.891 122.444 215.891C110.204 215.891 100.281 225.875 100.281 238.192C100.281 250.509 110.204 260.494 122.444 260.494Z" fill="#BDBDBD"></path>
<path d="M142.662 66.494C154.902 66.494 164.825 56.5092 164.825 44.1923C164.825 31.8754 154.902 21.8906 142.662 21.8906C130.422 21.8906 120.5 31.8754 120.5 44.1923C120.5 56.5092 130.422 66.494 142.662 66.494Z" fill="#BDBDBD"></path>
</svg>