<svg width="303" height="291" viewBox="0 0 303 291" fill="none" xmlns="http://www.w3.org/2000/svg">
<path d="M100.613 40.942C89.3021 55.1693 78.617 68.5985 57.3663 68.5985C45.7245 68.5985 37.2622 64.5585 30.1224 58.5721C29.5737 58.117 28.7507 58.201 28.3357 58.7752C27.2032 60.3295 26.0988 61.9119 25.0225 63.5083C24.6708 64.0264 24.7693 64.7406 25.2547 65.1397C33.4567 71.9453 43.4665 76.7134 57.3663 76.7134C82.5562 76.7134 94.9858 61.0857 107 45.9762C118.312 31.7488 128.997 18.3197 150.247 18.3197C171.498 18.3197 182.183 31.7558 193.501 45.9762C205.523 61.0857 217.946 76.7134 243.143 76.7134C257.654 76.7134 267.917 71.5111 276.316 64.2294C276.788 63.8233 276.872 63.1232 276.52 62.6121C275.437 61.0227 274.319 59.4543 273.179 57.907C272.75 57.3258 271.913 57.2558 271.371 57.7319C264.027 64.1804 255.326 68.6125 243.143 68.6125C221.892 68.6125 211.207 55.1763 199.889 40.956C187.867 25.8464 175.444 10.2188 150.247 10.2188C125.05 10.2188 112.628 25.8464 100.613 40.956V40.942Z" fill="#FFFFFF"></path>
<path d="M57.4094 103.862C82.2757 103.862 94.635 90.0479 106.593 76.6888C117.975 63.9738 128.723 51.959 150.298 51.959C171.872 51.959 182.627 63.9738 194.002 76.6888C205.96 90.0479 218.319 103.862 243.186 103.862C264.471 103.862 276.592 93.7378 287.143 82.4441C287.488 82.073 287.572 81.5199 287.347 81.0648C286.58 79.5034 285.778 77.9491 284.955 76.4157C284.554 75.6735 283.534 75.5545 282.965 76.1777C272.892 87.1562 262.277 96.5594 243.186 96.5594C221.604 96.5594 210.856 84.5446 199.481 71.8296C187.523 58.4705 175.164 44.6562 150.298 44.6562C125.431 44.6562 113.072 58.4705 101.114 71.8296C89.7321 84.5446 78.9837 96.5594 57.4094 96.5594C38.9725 96.5594 28.4492 87.7864 18.6715 77.2979C18.0947 76.6818 17.0677 76.8078 16.6808 77.55C15.8718 79.0903 15.091 80.6447 14.3384 82.2131C14.1203 82.6682 14.2047 83.2213 14.5564 83.5924C24.8547 94.4099 36.8552 103.855 57.4094 103.855V103.862Z" fill="#FFFFFF"></path>
<path d="M40.1095 44.5943C39.5257 45.2174 39.7508 46.2537 40.5457 46.5617C45.4908 48.4592 51.0479 49.5444 57.421 49.5444C82.9555 49.5444 95.4414 32.1033 107.512 15.2294C110.685 10.7973 113.808 6.44931 117.128 2.47238C117.867 1.58317 117.044 0.252855 115.911 0.518917C112.317 1.37312 108.779 2.34635 105.289 3.44561C105.036 3.52262 104.818 3.68366 104.656 3.89371C103.151 5.93119 101.681 7.98967 100.211 10.0412C88.9558 25.7598 78.327 40.6103 57.4139 40.6103C53.4044 40.6103 49.7888 40.0362 46.4615 39.042C46.0324 38.9159 45.5752 39.021 45.2516 39.329C43.493 41.0374 41.7696 42.7878 40.0955 44.5803L40.1095 44.5943Z" fill="#FFFFFF"></path>
<path d="M193.081 15.2038C205.151 32.0708 217.644 49.5189 243.172 49.5189C250.08 49.5189 256.024 48.2376 261.271 46.039C262.045 45.717 262.249 44.6947 261.672 44.0856C260.012 42.3212 258.31 40.5988 256.565 38.9184C256.235 38.6033 255.756 38.4983 255.32 38.6453C251.669 39.8846 247.667 40.5988 243.165 40.5988C222.252 40.5988 211.623 25.7483 200.368 10.0296C198.743 7.75404 197.104 5.47151 195.43 3.22398C195.268 3.00693 195.043 2.84589 194.783 2.76887C191.322 1.73263 187.819 0.822413 184.26 0.0312269C183.127 -0.220832 182.325 1.10948 183.071 1.99169C186.532 6.08765 189.774 10.6107 193.074 15.2108L193.081 15.2038Z" fill="#FFFFFF"></path>
<path d="M9.55657 168.703C21.2828 176.895 33.4099 185.367 57.404 185.367C81.398 185.367 93.5252 176.895 105.251 168.703C116.872 160.588 127.846 152.922 150.292 152.922C172.739 152.922 183.719 160.588 195.333 168.703C207.059 176.895 219.186 185.367 243.18 185.367C267.174 185.367 279.301 176.895 291.035 168.703C294.46 166.309 297.83 163.963 301.452 161.828C301.79 161.632 302.015 161.282 302.05 160.897C302.142 159.909 302.219 158.922 302.29 157.935C302.36 156.976 301.319 156.317 300.475 156.787C296.064 159.251 292.125 162.003 288.221 164.726C276.6 172.841 265.627 180.508 243.173 180.508C220.72 180.508 209.746 172.841 198.132 164.726C186.406 156.534 174.279 148.062 150.285 148.062C126.291 148.062 114.164 156.534 102.438 164.726C90.8169 172.841 79.8434 180.508 57.3969 180.508C34.9504 180.508 23.9769 172.841 12.3562 164.726C8.97975 162.367 5.56108 159.993 1.83993 157.795C0.995809 157.298 -0.0734067 157.963 0.0039707 158.936C0.0813481 159.944 0.16576 160.953 0.257206 161.954C0.292378 162.332 0.510441 162.668 0.83402 162.871C3.8236 164.719 6.66547 166.701 9.54953 168.71L9.55657 168.703Z" fill="#FFFFFF"></path>
<path d="M9.92865 199.331C21.5704 205.836 33.6132 212.565 57.368 212.565C81.1229 212.565 93.1657 205.836 104.807 199.331C116.513 192.792 127.563 186.616 150.256 186.616C172.949 186.616 184 192.792 195.705 199.331C207.354 205.836 219.389 212.565 243.151 212.565C266.913 212.565 278.949 205.836 290.598 199.331C291.618 198.764 292.631 198.197 293.651 197.637C293.918 197.49 294.115 197.259 294.213 196.972C294.481 196.216 294.741 195.46 294.994 194.696C295.346 193.639 294.227 192.708 293.25 193.233C291.674 194.08 290.133 194.941 288.6 195.796C276.895 202.335 265.844 208.511 243.151 208.511C220.459 208.511 209.408 202.335 197.703 195.796C186.054 189.291 174.018 182.562 150.256 182.562C126.494 182.562 114.459 189.291 102.817 195.796C91.1116 202.335 80.0607 208.511 57.368 208.511C34.6754 208.511 23.6245 202.335 11.9264 195.796C11.0541 195.305 10.1748 194.815 9.28853 194.332C8.30372 193.793 7.17823 194.738 7.53698 195.796C7.84649 196.713 8.17007 197.63 8.50068 198.533C8.97902 198.799 9.45031 199.065 9.92865 199.331Z" fill="#FFFFFF"></path>
<path d="M9.06949 138.08C20.8731 147.98 33.0846 158.21 57.346 158.21C81.6073 158.21 93.8189 147.973 105.629 138.08C117.166 128.411 128.055 119.281 150.234 119.281C172.413 119.281 183.309 128.411 194.846 138.08C206.656 147.98 218.861 158.21 243.129 158.21C267.398 158.21 279.602 147.973 291.413 138.08C294.585 135.419 297.715 132.808 301.043 130.406C301.401 130.147 301.591 129.72 301.542 129.286C301.394 128.061 301.24 126.842 301.064 125.624C300.937 124.735 299.889 124.28 299.15 124.791C295.085 127.599 291.385 130.679 287.741 133.739C276.205 143.408 265.315 152.539 243.129 152.539C220.943 152.539 210.054 143.408 198.518 133.739C186.707 123.839 174.502 113.609 150.234 113.609C125.966 113.609 113.761 123.846 101.951 133.739C90.4143 143.408 79.5252 152.539 57.346 152.539C35.1668 152.539 24.2706 143.408 12.7414 133.739C9.54782 131.064 6.3261 128.362 2.84412 125.848C2.09848 125.309 1.02927 125.764 0.90265 126.674C0.733827 127.907 0.579072 129.153 0.44542 130.392C0.396179 130.819 0.579072 131.24 0.923753 131.499C3.70231 133.592 6.36831 135.826 9.06949 138.087V138.08Z" fill="#FFFFFF"></path>
<path d="M8.681 107.399C20.562 119.022 32.8509 131.037 57.4077 131.037C81.9645 131.037 94.2534 119.022 106.134 107.399C117.586 96.1966 128.405 85.6171 150.296 85.6171C172.187 85.6171 183.005 96.1966 194.457 107.399C206.338 119.022 218.627 131.037 243.184 131.037C267.741 131.037 280.03 119.022 291.918 107.399C293.142 106.202 294.366 105.005 295.59 103.835C295.927 103.513 296.054 103.037 295.913 102.596C295.463 101.154 294.999 99.7255 294.506 98.3041C294.218 97.4709 293.142 97.2049 292.501 97.814C290.757 99.4524 289.048 101.119 287.352 102.778C275.9 113.981 265.082 124.56 243.191 124.56C221.3 124.56 210.481 113.981 199.03 102.778C187.149 91.1554 174.86 79.1406 150.303 79.1406C125.746 79.1406 113.457 91.1554 101.576 102.778C90.1243 113.981 79.3055 124.56 57.4147 124.56C35.5239 124.56 24.7122 113.981 13.2533 102.778C11.966 101.518 10.6647 100.258 9.35629 99.0043C8.70913 98.3881 7.61882 98.6542 7.33744 99.4944C6.85911 100.93 6.39485 102.379 5.95872 103.835C5.82507 104.27 5.95168 104.746 6.2823 105.061C7.08421 105.838 7.88612 106.622 8.69507 107.406L8.681 107.399Z" fill="#FFFFFF"></path>
<path d="M197.381 226.858C185.816 222.013 173.858 217 150.307 217C126.756 217 114.798 222.013 103.234 226.858C91.4442 231.801 80.3159 236.465 57.4192 236.465C45.3694 236.465 36.5836 235.169 29.2397 233.223C28.1213 232.929 27.249 234.175 27.9243 235.106C28.1635 235.442 28.4097 235.778 28.6559 236.107C28.8247 236.339 29.0709 236.507 29.3523 236.577C36.7383 238.439 45.6226 239.706 57.4192 239.706C80.9701 239.706 92.9284 234.693 104.493 229.848C116.282 224.905 127.411 220.242 150.307 220.242C173.204 220.242 184.332 224.905 196.122 229.848C207.686 234.693 219.645 239.706 243.195 239.706C256.11 239.706 265.536 238.201 273.323 236.037C273.591 235.96 273.83 235.799 273.992 235.568C274.245 235.225 274.491 234.875 274.744 234.525C275.42 233.58 274.519 232.327 273.401 232.649C265.649 234.903 256.371 236.458 243.195 236.458C220.306 236.458 209.17 231.794 197.381 226.851V226.858Z" fill="#FFFFFF"></path>
<path d="M244.787 264.444C244.787 264.444 244.787 264.444 244.78 264.444C244.239 264.444 243.718 264.458 243.155 264.458C220.104 264.458 208.378 261.182 197.038 258.017C185.544 254.803 173.656 251.484 150.26 251.484C126.864 251.484 114.983 254.803 103.489 258.017C92.1568 261.182 80.4376 264.458 57.4003 264.458C57.4003 264.458 57.4003 264.458 57.3932 264.458H57.3792C57.0486 264.458 56.7812 264.731 56.7812 265.061C56.7812 265.208 56.8375 265.334 56.929 265.439C56.9852 265.481 57.0415 265.53 57.0978 265.572C57.5621 265.936 58.0263 266.307 58.4906 266.671C58.5187 266.692 58.5398 266.713 58.568 266.734C58.6664 266.811 58.786 266.867 58.9197 266.874C58.9408 266.874 58.9549 266.874 58.976 266.874C81.2888 266.727 92.9235 263.492 104.15 260.355C115.49 257.191 127.209 253.914 150.26 253.914C173.312 253.914 185.038 257.191 196.377 260.355C207.871 263.569 219.759 266.888 243.155 266.888C243.176 266.888 243.191 266.888 243.212 266.888C243.366 266.888 243.507 266.825 243.613 266.727C243.627 266.72 243.634 266.706 243.648 266.699C244.133 266.328 244.611 265.943 245.097 265.558C245.139 265.523 245.188 265.488 245.238 265.453C245.336 265.348 245.399 265.208 245.399 265.047C245.399 264.71 245.125 264.437 244.794 264.437L244.787 264.444Z" fill="#FFFFFF"></path>
<path d="M200.811 289.203H101.459C101.29 289.203 101.156 289.336 101.156 289.504C101.156 289.637 101.255 289.735 101.381 289.777C101.409 289.784 101.431 289.812 101.466 289.812C101.466 289.812 101.466 289.812 101.473 289.812C102.324 290.106 103.168 290.407 104.026 290.68C104.329 290.779 104.638 290.828 104.955 290.828H197.336C197.653 290.828 197.969 290.779 198.265 290.68C199.116 290.407 199.953 290.106 200.797 289.819C200.861 289.798 200.924 289.777 200.98 289.756C201.058 289.7 201.121 289.623 201.121 289.518C201.121 289.35 200.98 289.21 200.811 289.21V289.203Z" fill="#FFFFFF"></path>
</svg>