<svg width="357" height="346" viewBox="0 0 357 346" fill="none" xmlns="http://www.w3.org/2000/svg">
<path d="M53.3983 274.919H17.7971L0 257.156H71.2025L53.3983 274.919Z" fill="#FFFFFF"></path>
<path d="M71.2417 257.146L53.4375 274.908V221.613L71.2417 203.844V257.146Z" fill="#FFFFFF"></path>
<path d="M17.7971 274.907L0 257.145L17.7971 239.375V274.907Z" fill="#FFFFFF"></path>
<path d="M17.7971 345.942H71.2025L53.3983 328.172H0L17.7971 345.942Z" fill="#FFFFFF"></path>
<path d="M0 328.173L17.7971 345.942V310.41L0 292.641L0 328.173Z" fill="#FFFFFF"></path>
<path d="M53.4375 345.942H71.2417V292.641L53.4375 310.41V345.942Z" fill="#FFFFFF"></path>
<path d="M160.195 257.125H124.594V274.888H160.195V257.125Z" fill="#FFFFFF"></path>
<path d="M213.594 257.125V274.888H241.981V257.125H213.594Z" fill="#FFFFFF"></path>
<path d="M278.906 257.125V274.888H307.293V257.125H278.906Z" fill="#FFFFFF"></path>
<path d="M320.406 274.875L329.305 283.756L320.406 274.875Z" fill="#FFFFFF"></path>
<path d="M302.625 274.888H320.422L302.625 257.125V274.888Z" fill="#FFFFFF"></path>
<path d="M356.023 249.76V231.622L320.422 215.051L302.625 206.766V274.879L320.422 292.642L329.321 301.523L338.219 292.642L341.908 288.96L356.023 274.872V251.215V249.746V249.76ZM338.226 267.523L330.856 274.879L329.328 276.404L327.8 274.879L320.429 267.523V234.651L338.226 242.936V267.523Z" fill="#FFFFFF"></path>
<path d="M199.47 271.206L195.781 274.888H213.585V257.125L199.47 271.206Z" fill="#FFFFFF"></path>
<path d="M160.219 257.125V274.888H178.016L160.219 257.125Z" fill="#FFFFFF"></path>
<path d="M178 274.875L186.899 283.756L178 274.875Z" fill="#FFFFFF"></path>
<path d="M195.813 157.071L178.016 148.785L160.219 140.5V274.89L177.099 291.737L178.023 292.659L186.921 301.54L195.82 292.659L199.509 288.978L213.624 274.89V165.356L195.827 157.071H195.813ZM195.813 267.533L188.442 274.89L186.914 276.415L185.386 274.89L178.016 267.533V168.392L195.813 176.678V267.533Z" fill="#FFFFFF"></path>
<path d="M142.391 213.69V274.873H124.594V198.453L142.391 213.69Z" fill="#FFFFFF"></path>
<path d="M106.828 198.453V345.938L89.0312 345.81V209.299L106.828 198.453Z" fill="#FFFFFF"></path>
<path d="M106.828 179.594V225.05L89.0312 216.772V187.879L106.828 179.594Z" fill="#FFFFFF"></path>
<path d="M142.391 187.879V216.864L124.594 225.05V179.594L142.391 187.879Z" fill="#FFFFFF"></path>
<path d="M142.391 126.051V155.036L124.594 163.222V117.766L142.391 126.051Z" fill="#FFFFFF"></path>
<path d="M355.985 328.173L338.188 345.843V310.41L355.985 292.641V328.173Z" fill="#FFFFFF"></path>
<path d="M284.828 345.942L267.031 345.985V310.41L284.828 292.641V345.942Z" fill="#FFFFFF"></path>
<path d="M320.422 345.942L302.625 345.985V292.641L320.422 310.41V345.942Z" fill="#FFFFFF"></path>
<path d="M178.016 345.942L160.219 345.985V292.641L178.016 310.41V345.942Z" fill="#FFFFFF"></path>
<path d="M356.03 328.172H89.0312V345.984H338.233L356.03 328.172Z" fill="#FFFFFF"></path>
<path d="M124.632 171.323L106.828 179.601L89.0312 187.886V168.287L106.828 160.001L124.632 151.716L142.43 143.438V163.037L124.632 171.323Z" fill="#FFFFFF"></path>
<path d="M106.828 125.766V171.222L89.0312 162.936V134.051L106.828 125.766Z" fill="#FFFFFF"></path>
<path d="M124.632 117.495L106.828 125.78L89.0312 134.065V114.458L106.828 106.173L124.632 97.8948L142.43 89.6094V109.209L124.632 117.495Z" fill="#FFFFFF"></path>
<path d="M106.828 71.9375V117.394L89.0312 109.108V80.2229L106.828 71.9375Z" fill="#FFFFFF"></path>
<path d="M142.391 80.2229V109.201L124.594 117.394V71.9375L142.391 80.2229Z" fill="#FFFFFF"></path>
<path d="M87.625 110.11V87.375L143.866 113.551V136.279L87.625 110.11Z" fill="#FFFFFF"></path>
<path d="M88.9992 89.5954L106.796 97.8809L124.593 106.166L142.39 114.452V134.051L124.593 125.766L106.796 117.481L88.9992 109.195V89.5954ZM86.1562 85.1406V111.004L87.7981 111.77L105.595 120.056L123.392 128.341L141.189 136.626L145.233 138.506V112.643L143.592 111.877L125.795 103.591L107.997 95.3058L90.2004 87.0204L86.1562 85.1406Z" fill="white"></path>
<path d="M87.625 163.947V141.219L143.866 167.394V190.123L87.625 163.947Z" fill="#FFFFFF"></path>
<path d="M88.9992 143.455L106.796 151.74L124.593 160.026L142.39 168.311V187.911L124.593 179.625L106.796 171.34L88.9992 163.055V143.455ZM86.1562 139V164.864L87.7981 165.63L105.595 173.915L123.392 182.2L141.189 190.486L145.233 192.366V166.502L143.592 165.736L125.795 157.451L107.997 149.165L90.2004 140.88L86.1562 139Z" fill="white"></path>
<path d="M94.6746 57.9688L89.0312 60.5934V80.2003L106.828 71.9149L115.734 67.7722L106.828 63.6295L94.6746 57.9688Z" fill="#FFFFFF"></path>
<path d="M115.719 67.7722L124.617 71.9149L142.414 80.2003V60.5934L136.778 57.9688L124.617 63.6295L115.719 67.7722Z" fill="#FFFFFF"></path>
<path d="M115.716 48.1875L106.81 52.3302L94.6562 57.9839L106.81 63.6446L115.716 67.7873L124.614 63.6446L136.775 57.9839L124.614 52.3302L115.716 48.1875Z" fill="#FFFFFF"></path>
<path d="M100.287 13.1588C100.287 8.35634 101.601 3.85896 103.89 0C96.2495 4.50448 91.125 12.8041 91.125 22.3025C91.125 36.6033 102.739 48.2015 117.074 48.2015C126.591 48.2015 134.907 43.0869 139.42 35.4612C135.554 37.7383 131.055 39.0506 126.236 39.0506C111.907 39.0506 100.287 27.4596 100.287 13.1517V13.1588Z" fill="#FFFFFF"></path>
<path d="M135.772 283.784L123.188 296.344L135.772 308.904L148.356 296.344L135.772 283.784Z" fill="#FFFFFF"></path>
<path d="M35.6157 283.784L23.0312 296.344L35.6157 308.904L48.2001 296.344L35.6157 283.784Z" fill="#FFFFFF"></path>
<path d="M356.023 249.76V231.622L320.422 215.051L302.625 206.766V274.879L320.422 292.642L329.321 301.523L338.219 292.642L341.908 288.96L356.023 274.872V251.215V249.746V249.76ZM338.226 267.523L330.856 274.879L329.328 276.404L327.8 274.879L320.429 267.523V234.651L338.226 242.936V267.523Z" fill="#FFFFFF"></path>
<path d="M267 274.882H284.797V237.832L267 220.062V274.882Z" fill="#FFFFFF"></path>
<path d="M231.375 274.882H249.179V220.062L231.375 237.832V274.882Z" fill="#FFFFFF"></path>
<path d="M258.125 211.194L267.024 220.075V202.312L258.125 211.194Z" fill="#FFFFFF"></path>
<path d="M258.086 186.062L249.188 194.951L258.086 186.062Z" fill="#FFFFFF"></path>
<path d="M270.689 198.625L267 202.307V220.069L284.797 237.839V212.713L270.689 198.625Z" fill="#FFFFFF"></path>
<path d="M249.188 220.075L258.086 211.194L249.188 202.312V220.075Z" fill="#FFFFFF"></path>
<path d="M245.49 198.625L231.375 212.713V237.839L249.179 220.069V202.307L245.49 198.625Z" fill="#FFFFFF"></path>
<path d="M266.985 194.951L258.086 186.062L249.188 194.951V202.307L258.086 211.188L266.985 202.307V194.951Z" fill="#FFFFFF"></path>
<path d="M270.689 198.628L267 194.953V202.309L270.689 198.628Z" fill="#FFFFFF"></path>
<path d="M249.22 202.309V194.953L245.531 198.628L249.22 202.309Z" fill="#FFFFFF"></path>
<path d="M213.594 257.141V274.903H302.593V257.141H213.594Z" fill="#FFFFFF"></path>
</svg>