<svg width="158" height="317" viewBox="0 0 158 317" fill="none" xmlns="http://www.w3.org/2000/svg">
<path d="M104.167 195.423C92.2727 199.098 84.4883 206.882 80.8138 218.776C80.1369 220.903 77.1878 220.903 76.5109 218.776C72.8363 206.882 65.052 199.098 53.158 195.423C51.0307 194.746 51.0307 191.797 53.158 191.12C65.052 187.446 72.8363 179.661 76.5109 167.767C77.1878 165.64 80.1369 165.64 80.8138 167.767C84.4883 179.661 92.2727 187.446 104.167 191.12C106.294 191.797 106.294 194.795 104.167 195.423Z" fill="#FFFFFF"></path>
<path d="M141.47 254.028L141.132 253.689V109.27L157.281 93.121V81.6622C157.281 78.7129 154.863 76.2954 151.914 76.2954H134.75L91.5254 30.3151L94.7164 27.0757C96.1668 25.6252 96.457 23.4011 95.3933 21.6122L84.9016 3.62621C83.5961 1.35378 81.2271 0 78.6162 0C76.0053 0 73.6363 1.35378 72.3308 3.62621L61.8388 21.6122C60.8235 23.3528 61.1136 25.6252 62.5158 27.0757L65.7067 30.3151L22.5307 76.2954H5.36672C2.4174 76.2954 0 78.7129 0 81.6622L0 93.121L16.1485 109.27V253.689L15.8104 254.028C10.1535 259.733 0 269.935 0 269.935L0 281.974C0 284.585 2.12728 286.76 4.73815 286.76H44.578L67.786 311.419C70.5903 314.416 74.5549 316.109 78.6162 316.109C80.6469 316.109 82.6774 315.673 84.5147 314.9C86.352 314.078 88.0443 312.917 89.4464 311.419L112.654 286.76H152.494C155.105 286.76 157.232 284.633 157.232 281.974V269.935C157.232 269.935 147.079 259.733 141.422 254.028H141.47ZM78.1325 6.38216L73.9746 21.5156L76.8757 31.959L68.4146 23.4978L78.1325 6.43048V6.38216ZM72.6209 36.939L72.7174 37.0357L60.4368 65.2234L79.5349 76.0053H35.6819L72.6209 36.939ZM8.65444 87.174L79.5349 87.2707L46.7538 93.3144L51.2503 99.213H20.6453L8.65444 87.2224V87.174ZM37.5676 135.62L25.1418 121.792V109.657H62.6126L36.0204 118.214L37.5676 135.62ZM38.2443 153.945V252.626H25.1418V132.574L32.9743 140.745C36.3588 144.323 38.2443 149.013 38.2443 153.945ZM8.65444 276.414L20.6453 264.423H51.2503L46.7538 270.322L79.5349 276.365L8.65444 276.462V276.414ZM78.1325 305.52L58.8896 286.712L77.9876 296.817L90.8485 292.031L78.0844 305.52H78.1325ZM110.237 252.626H47.1407V153.945C47.1407 149.013 49.0262 144.323 52.4106 140.745L78.6646 113.234L104.918 140.745C108.303 144.323 110.188 149.013 110.188 153.945V252.626H110.237ZM132.236 252.626H119.133V153.945C119.133 149.013 121.019 144.323 124.403 140.745L132.236 132.574V252.626Z" fill="#FFFFFF"></path>
</svg>