<svg width="337" height="337" viewBox="0 0 337 337" fill="none" xmlns="http://www.w3.org/2000/svg">
<path d="M138.734 128H128.908V207.053H138.734V128Z" fill="#FFFFFF"></path>
<path d="M150.255 128L145.908 132.347V202.747L150.255 207.069H168.645L172.967 202.747V132.347L168.645 128H150.255ZM163.1 197.342L162.961 197.481H155.841L155.751 197.366V137.793L155.841 137.654H162.961L163.1 137.793V197.342Z" fill="#FFFFFF"></path>
<path d="M198.126 197.481L197.995 197.588H190.153L190.047 197.481V128.123H180.221V202.854L184.543 207.184H203.622L207.928 202.854V128H198.126V197.481Z" fill="#FFFFFF"></path>
<path d="M320.241 151.807L307.438 139.003L290.738 122.303L287.564 119.154L263.982 95.5478H263.974L251.187 82.7523V119.146H254.189L274.063 138.995L261.243 151.799L241.369 131.925V72.926L217.787 49.3446L168.467 0L151.768 16.7244L138.964 29.5034L122.289 46.2032L119.098 49.3774L95.5168 72.9588L82.7705 85.7051H119.098V82.7031L138.972 62.8783L151.776 75.6984L131.926 95.5232H72.9524L49.371 119.129L46.1804 122.303L29.5052 138.979L16.7016 151.799L0.00183105 168.474L72.9524 241.424L85.7233 254.195V217.818H82.7295L62.8801 197.944L75.7084 185.165L95.5578 205.015V264.013L168.484 336.939L241.41 263.989L254.156 251.242H217.828V254.245L197.979 274.094L185.159 261.29L205.033 241.416H263.982L290.763 214.661L307.438 197.961L320.266 185.182L336.941 168.457L320.266 151.782L320.241 151.807ZM46.1722 181.286L33.3439 168.457L46.1722 155.654L58.9758 168.457L46.1722 181.286ZM168.443 33.4077L181.246 46.2114L168.443 59.0314L155.639 46.2114L168.443 33.4077ZM168.467 303.581L155.664 290.777L168.467 277.949L181.296 290.777L168.467 303.581ZM254.222 217.851H195.223L171.592 241.433L168.467 244.607L165.293 241.433L141.687 217.827L128.941 217.851V241.433H131.943L151.792 261.282L138.972 274.086L119.123 254.236V195.262L92.3753 168.49L95.525 165.341L119.106 141.735L119.131 128.964H95.525V131.941L75.651 151.815L62.8719 138.995L82.7213 119.146H141.745L165.326 95.5396L168.476 92.3899L171.625 95.5642L195.231 119.17L207.977 119.146V95.5642H205L185.151 75.7148L197.954 62.9111L217.804 82.7359V141.735L241.385 165.316L244.576 168.49L241.402 171.664L217.82 195.27L217.796 208.041H241.402V205.064L261.276 185.215L274.096 197.994L254.222 217.868V217.851ZM290.746 181.302L277.943 168.498L290.746 155.67L303.566 168.498L290.746 181.302Z" fill="#FFFFFF"></path>
</svg>