<svg width="618" height="179" viewBox="0 0 618 179" fill="none" xmlns="http://www.w3.org/2000/svg">
<g clip-path="url(#clip0_1337_2428)">
<path d="M11.2256 172.61C9.69805 172.61 8.2322 171.982 7.17524 170.865C6.01028 169.639 5.4548 167.948 5.67082 166.272L24.2485 18.5513C24.5803 15.9056 26.7173 13.8496 29.3636 13.6402L100.342 7.98427C100.488 7.96875 100.642 7.96875 100.789 7.96875C103.258 7.96875 105.464 9.60578 106.166 12.0264L147.627 154.968C148.097 156.597 147.82 158.35 146.863 159.747C145.906 161.143 144.371 162.028 142.697 162.168L93.8301 166.062C93.6835 166.078 93.5292 166.078 93.3826 166.078C90.9138 166.078 88.7074 164.441 88.0053 162.028L82.8594 144.331L66.0638 145.665L63.5565 164.03C63.2016 166.652 61.0722 168.669 58.4491 168.879L11.6731 172.603C11.5265 172.618 11.3799 172.618 11.2333 172.618L11.2256 172.61ZM68.5172 103.778L73.9408 103.343L70.1065 88.8271L68.5172 103.778Z" fill="#141414"></path>
<path d="M100.762 13.609L142.223 156.55L93.3559 160.445L86.9293 138.349L61.0994 140.405L57.9826 163.261L11.2065 166.985L29.7843 19.2649L100.762 13.609ZM62.2181 109.93L81.0659 108.433L68.3901 60.4621L67.4566 60.5397L62.2181 109.938M100.77 2.34375C100.477 2.34375 100.176 2.35927 99.875 2.38254L28.897 8.03844C23.6045 8.45739 19.3304 12.5616 18.6669 17.8606L0.0892242 165.573C-0.335101 168.941 0.768144 172.315 3.09807 174.767C5.2197 177.002 8.1514 178.258 11.2065 178.258C11.4997 178.258 11.7929 178.251 12.0938 178.22L58.8698 174.496C64.116 174.077 68.367 170.042 69.0845 164.798L70.9746 150.925L78.7282 150.305L82.5934 163.61C83.9976 168.444 88.4028 171.718 93.3404 171.718C93.6336 171.718 93.9345 171.703 94.2354 171.679L143.102 167.785C146.466 167.521 149.529 165.744 151.442 162.951C153.355 160.158 153.919 156.651 152.977 153.393L111.517 10.4591C110.113 5.62557 105.708 2.34375 100.77 2.34375Z" fill="#FFFFFF"></path>
<path d="M207.845 170.013C205.785 170.013 203.648 169.943 201.487 169.819C183.589 168.733 168.452 165.862 150.869 160.222C148.262 159.384 146.634 156.777 147.027 154.054L152.667 114.649C152.898 113.012 153.84 111.561 155.236 110.676C156.139 110.11 157.172 109.815 158.214 109.815C158.785 109.815 159.356 109.9 159.911 110.079C178.142 115.913 190.802 119.785 200.245 120.359C200.361 120.359 200.477 120.374 200.592 120.374C199.674 119.792 198.479 119.133 197.429 118.551L197.252 118.45C195.092 117.248 192.407 115.968 189.575 114.61C181.112 110.568 170.589 105.532 162.257 97.2697C152.212 87.3079 147.575 74.6306 148.478 59.5948C149.434 43.6512 155.136 30.5239 164.972 21.6328C174.855 12.7028 188.31 8.17188 204.967 8.17188C206.842 8.17188 208.778 8.23394 210.73 8.35032C227.541 9.37443 243.827 11.8804 261.981 16.2562C264.897 16.9544 266.741 19.8406 266.178 22.8043L258.339 63.7222C258.046 65.2507 257.136 66.5929 255.824 67.423C254.921 67.9894 253.888 68.2842 252.838 68.2842C252.36 68.2842 251.882 68.2221 251.411 68.098C236.737 64.211 222.187 60.549 215.104 60.1223C214.557 60.0913 214.04 60.068 213.569 60.068C213.685 60.1223 213.793 60.1766 213.909 60.231C214.803 60.6577 215.768 61.1154 216.786 61.6352C218.7 62.6361 220.891 63.6834 223.213 64.7851C239.383 72.4815 266.448 85.3605 264.473 118.155C262.467 151.61 242.354 170.028 207.852 170.028L207.845 170.013Z" fill="#141414"></path>
<path d="M205.008 13.7965C206.775 13.7965 208.58 13.8508 210.432 13.9672C228.609 15.0689 245.042 17.955 260.718 21.7256L252.88 62.6436C236.763 58.3764 222.938 54.9472 215.485 54.4895C214.806 54.4507 214.158 54.4274 213.549 54.4274C208.673 54.4274 205.818 55.7929 205.595 59.5324C205.386 63.047 209.066 63.978 214.29 66.6469C229.48 74.6226 260.927 84.5301 258.921 117.806C257.1 148.041 239.525 164.388 207.894 164.388C205.942 164.388 203.936 164.326 201.876 164.201C182.535 163.022 168 159.787 152.624 154.86L158.263 115.455C178.23 121.84 190.172 125.394 199.963 125.983C200.364 126.007 200.75 126.022 201.12 126.022C205.24 126.022 207.3 124.494 207.493 121.266C207.701 117.752 204.762 116.161 200.009 113.523C184.849 105.074 151.952 96.0203 154.12 59.9359C155.887 30.4771 174.449 13.8042 205.016 13.8042M205.016 2.53901V13.8042V2.53125C187.187 2.53125 172.065 7.69061 161.28 17.443C150.332 27.3427 143.99 41.8044 142.941 59.2531C141.938 75.9881 147.13 90.1317 158.379 101.281C159.69 102.576 161.041 103.802 162.422 104.95C162.175 104.873 161.92 104.787 161.673 104.71C160.562 104.353 159.42 104.182 158.279 104.182C156.196 104.182 154.128 104.764 152.33 105.905C149.538 107.666 147.663 110.567 147.192 113.849L141.553 153.254C140.773 158.701 144.021 163.922 149.237 165.598C167.282 171.386 182.828 174.334 201.22 175.451C203.489 175.591 205.741 175.661 207.917 175.661C245.273 175.661 267.947 154.821 270.131 118.497C271.095 102.398 265.795 88.6731 254.361 77.7104C252.733 76.151 251.052 74.7079 249.323 73.358C249.563 73.42 249.802 73.4821 250.049 73.5519C250.99 73.8002 251.946 73.9243 252.903 73.9243C254.994 73.9243 257.069 73.3347 258.867 72.1942C261.49 70.5339 263.318 67.8495 263.905 64.7849L271.743 23.8669C272.877 17.9473 269.182 12.1827 263.349 10.7785C244.872 6.33288 228.285 3.7726 211.134 2.73297C209.074 2.60883 207.022 2.54677 205.039 2.54677L205.016 2.53901Z" fill="#FFFFFF"></path>
<path d="M415.226 167.632C412.132 167.632 409.625 165.111 409.625 161.999V16.2107C409.625 13.0996 412.132 10.5781 415.226 10.5781H480.356C499.165 10.5781 512.883 14.0074 522.303 21.052C532.108 28.3915 537.077 39.6335 537.077 54.4753C537.077 67.0595 533.05 76.7498 524.509 84.4384C534.677 91.8322 539.646 103.307 539.646 119.266C539.646 151.355 520.011 167.624 481.29 167.624H415.226V167.632ZM471.715 127.257C475.102 127.257 475.619 126.714 475.627 126.706C475.858 126.412 476.622 124.976 476.622 119.033C476.622 108.466 474.878 108.466 471.715 108.466H470.55V127.249H471.715V127.257ZM471.947 71.3887C473.135 71.3887 473.474 71.1792 473.474 71.1792C473.482 71.1792 474.508 70.1163 474.508 64.5846C474.508 59.689 473.752 58.0054 473.428 57.5089C473.335 57.3692 473.135 57.0666 471.708 57.0666H470.543V71.3887H471.947Z" fill="#141414"></path>
<path d="M480.356 16.2104C515.135 16.2104 531.475 28.4222 531.475 54.475C531.475 69.0298 525.635 77.7192 515.135 84.5234V85.4621C526.808 90.862 534.044 100.723 534.044 119.266C534.044 145.792 519.571 161.991 481.289 161.991H415.226V16.2104H480.356ZM464.949 77.0132H471.954C477.555 77.0132 480.124 73.9641 480.124 64.5687C480.124 55.1732 477.555 51.4259 471.723 51.4259H464.957V77.0132M464.957 132.882H471.723C479.893 132.882 482.23 130.298 482.23 119.033C482.23 107.768 479.893 102.833 471.723 102.833H464.957V132.882ZM480.363 4.93739H415.233C409.046 4.93739 404.031 9.98037 404.031 16.2026V161.984C404.031 168.206 409.046 173.249 415.233 173.249H481.297C502.768 173.249 518.499 168.609 529.392 159.059C539.923 149.834 545.254 136.443 545.254 119.25C545.254 104.238 541.05 92.468 532.725 84.0811C539.476 76.121 542.693 66.4462 542.693 54.4595C542.693 37.74 536.961 24.9697 525.658 16.513C515.235 8.71575 500.422 4.92188 480.363 4.92188V4.93739Z" fill="#FFFFFF"></path>
<path d="M591.317 169.82C591.124 169.82 590.924 169.813 590.731 169.789L541.741 164.646C540.259 164.49 538.909 163.753 537.968 162.59C537.034 161.426 536.595 159.944 536.749 158.454L551.801 13.457C552.102 10.5631 554.532 8.40625 557.363 8.40625C557.556 8.40625 557.757 8.41401 557.95 8.43728L606.94 13.5811C608.421 13.7363 609.771 14.4733 610.713 15.6371C611.646 16.8009 612.086 18.2827 611.932 19.7724L596.88 164.77C596.579 167.664 594.149 169.82 591.317 169.82Z" fill="#141414"></path>
<path d="M557.355 14.0309L606.345 19.1747L591.293 164.172L542.303 159.028L557.355 14.0309ZM557.355 2.76562C554.794 2.76562 552.302 3.65009 550.296 5.27936C547.989 7.16466 546.515 9.88786 546.207 12.8593L531.155 157.857C530.514 164.048 534.981 169.587 541.138 170.231L590.128 175.375C590.514 175.414 590.908 175.437 591.293 175.437C593.855 175.437 596.347 174.553 598.353 172.924C600.659 171.038 602.133 168.315 602.441 165.344L617.493 20.3462C618.134 14.155 613.667 8.61548 607.51 7.97153L558.52 2.82769C558.134 2.7889 557.741 2.76562 557.355 2.76562Z" fill="#FFFFFF"></path>
<path d="M331.998 178.118C380.909 178.118 420.558 138.245 420.558 89.059C420.558 39.8731 380.909 0 331.998 0C283.087 0 243.438 39.8731 243.438 89.059C243.438 138.245 283.087 178.118 331.998 178.118Z" fill="#FFFFFF"></path>
<path d="M379.353 61.5668C379.484 61.4659 379.615 61.365 379.731 61.2331C386.389 53.5988 388.287 44.1336 386.782 37.0889C386.505 35.7855 385.139 35.0407 383.897 35.5062C382.246 36.1269 379.847 37.1587 377.293 38.7104C377.385 38.6561 377.478 38.594 377.571 38.5397C379.7 37.2829 378.412 33.9855 376.004 34.5286C371.414 35.5605 366.885 38.4234 361.508 44.0017C352.921 38.6871 342.815 35.6148 331.99 35.6148C321.166 35.6148 311.06 38.6871 302.473 44.0017C297.095 38.4156 292.567 35.5527 287.976 34.5286C285.569 33.9933 284.289 37.2829 286.41 38.5397C286.503 38.594 286.595 38.6561 286.68 38.7104C284.119 37.1665 281.719 36.1269 280.076 35.5139C278.834 35.0484 277.476 35.7932 277.191 37.0967C275.679 44.1413 277.584 53.6066 284.242 61.2409C284.358 61.3728 284.481 61.4814 284.62 61.5745C278.919 70.4346 275.594 80.9861 275.594 92.3289C275.594 123.65 300.845 149.043 331.99 149.043C363.136 149.043 388.387 123.65 388.387 92.3289C388.387 80.9861 385.062 70.4346 379.36 61.5745L379.353 61.5668Z" fill="#141414"></path>
<path d="M301.969 102.531C322.73 107.605 343.884 107.947 362.084 106.356C362.084 106.356 353.258 127.25 336.74 129.057C320.971 130.78 301.969 117.071 301.969 102.531Z" fill="#FFFFFF"></path>
<path d="M309.041 76.9792C315.028 76.9792 320.136 80.1369 322.219 84.6058C322.28 84.0704 322.327 83.5196 322.327 82.9687C322.327 75.5362 316.494 69.5156 309.288 69.5156C302.083 69.5156 296.25 75.5362 296.25 82.9687C296.25 83.248 296.273 83.5118 296.289 83.7834C298.588 79.7645 303.425 76.9792 309.034 76.9792H309.041Z" fill="#FFFFFF"></path>
<path d="M354.351 76.987C360.153 76.987 365.129 79.9507 367.327 84.1946C367.366 83.7911 367.389 83.3877 367.389 82.9687C367.389 75.5362 361.557 69.5156 354.351 69.5156C347.145 69.5156 341.312 75.5362 341.312 82.9687C341.312 83.3799 341.336 83.7911 341.374 84.1946C343.573 79.9507 348.549 76.987 354.351 76.987Z" fill="#FFFFFF"></path>
</g>
<defs>
<clipPath id="clip0_1337_2428">
<rect width="617.562" height="178.265" fill="#141414"></rect>
</clipPath>
</defs>
</svg>