<svg width="226" height="306" viewBox="0 0 226 306" fill="none" xmlns="http://www.w3.org/2000/svg">
<path d="M59.6875 293.649C101.466 309.89 141.502 311.063 178.531 286.185C210.125 262.409 227.583 231.467 224.977 190.344C197.794 266.891 143.505 302.542 59.6912 293.649H59.6875Z" fill="#FFFFFF"></path>
<path d="M65.5222 226.758C59.8401 220.794 54.6945 214.302 50.1701 207.359C43.2016 209.63 36.0272 211.447 28.6875 212.772C32.3151 219.685 36.5639 226.21 41.3566 232.275C45.9471 238.082 51.0302 243.468 56.5543 248.364C56.5543 248.364 56.558 248.364 56.5616 248.367C65.6545 247.049 74.5085 244.976 83.0575 242.218C76.7763 237.583 70.9103 232.405 65.5259 226.754L65.5222 226.758Z" fill="#BDBDBD"></path>
<path d="M181.707 77.2237C176.025 68.9186 170.155 61.1161 164.352 53.8906C164.032 63.9825 162.827 73.8511 160.812 83.4106C166.395 91.0754 171.89 99.2278 177.076 107.797C181.865 115.715 186.39 123.987 190.469 132.545C193.52 122.561 195.67 112.179 196.824 101.495C192.075 93.026 186.97 84.9108 181.711 77.2237H181.707Z" fill="#BDBDBD"></path>
<path d="M177.063 107.797C171.377 130.799 160.976 151.909 146.965 170.016C142.584 175.678 137.85 181.042 132.8 186.083C129.628 189.247 126.324 192.281 122.91 195.177C117.275 199.953 111.325 204.357 105.088 208.347C92.8816 216.157 79.5914 222.393 65.5 226.763C70.8844 232.414 76.7504 237.592 83.0316 242.226C98.1742 237.342 112.365 230.303 125.258 221.466C131.198 217.393 136.861 212.941 142.213 208.139C142.18 208.053 142.15 207.968 142.121 207.882C142.198 207.923 142.279 207.968 142.356 208.008C147.513 203.374 152.379 198.415 156.922 193.17C171.983 175.782 183.535 155.196 190.456 132.548C186.376 123.99 181.852 115.719 177.063 107.801V107.797Z" fill="#FFFFFF"></path>
<path opacity="0.11" d="M112.312 0.244768C112.335 0.225678 112.362 0.202771 112.38 0.1875C112.358 0.206589 112.335 0.225678 112.312 0.244768Z" fill="#FFFFFF"></path>
<path opacity="0.11" d="M111.469 0.978878C111.503 0.948182 111.541 0.917485 111.575 0.890625C111.541 0.921322 111.507 0.948182 111.469 0.978878Z" fill="#FFFFFF"></path>
<path opacity="0.11" d="M111.719 0.752403C111.745 0.729496 111.772 0.710407 111.794 0.6875C111.768 0.710407 111.745 0.729496 111.719 0.752403Z" fill="#FFFFFF"></path>
<path opacity="0.11" d="M109.656 2.55051C109.656 2.55051 109.669 2.53767 109.679 2.53125C109.672 2.53767 109.666 2.54409 109.656 2.55051Z" fill="#FFFFFF"></path>
<path opacity="0.11" d="M111.906 0.581936C111.968 0.530087 112.027 0.481942 112.078 0.4375C112.023 0.481942 111.968 0.530087 111.906 0.581936Z" fill="#FFFFFF"></path>
<path opacity="0.27" d="M69.9062 42.9121C69.9062 42.9121 69.9207 42.8978 69.9279 42.8906C69.9207 42.8978 69.9135 42.905 69.9062 42.9121Z" fill="#FFFFFF"></path>
<path opacity="0.11" d="M69.9062 42.9121C69.9062 42.9121 69.9207 42.8978 69.9279 42.8906C69.9207 42.8978 69.9135 42.905 69.9062 42.9121Z" fill="#FFFFFF"></path>
<path opacity="0.27" d="M68.625 44.406C68.625 44.406 68.6445 44.3866 68.6523 44.375C68.6445 44.3866 68.6328 44.3944 68.625 44.406Z" fill="#FFFFFF"></path>
<path opacity="0.11" d="M68.625 44.406C68.625 44.406 68.6445 44.3866 68.6523 44.375C68.6445 44.3866 68.6328 44.3944 68.625 44.406Z" fill="#FFFFFF"></path>
<path opacity="0.27" d="M67.375 45.9296C67.375 45.9296 67.3945 45.9062 67.4063 45.8906C67.3945 45.9023 67.3867 45.914 67.375 45.9296Z" fill="#FFFFFF"></path>
<path opacity="0.11" d="M67.375 45.9296C67.375 45.9296 67.3945 45.9062 67.4063 45.8906C67.3945 45.9023 67.3867 45.914 67.375 45.9296Z" fill="#FFFFFF"></path>
<path opacity="0.27" d="M66.0625 47.4427C66.0625 47.4427 66.0748 47.4302 66.0789 47.4219C66.0748 47.4302 66.0666 47.4344 66.0625 47.4427Z" fill="#FFFFFF"></path>
<path opacity="0.11" d="M66.0625 47.4427C66.0625 47.4427 66.0748 47.4302 66.0789 47.4219C66.0748 47.4302 66.0666 47.4344 66.0625 47.4427Z" fill="#FFFFFF"></path>
<path opacity="0.11" d="M67.4062 45.8997C67.8252 45.4046 68.2442 44.9095 68.6632 44.4219C68.2442 44.9095 67.8289 45.4046 67.4062 45.8997Z" fill="#FFFFFF"></path>
<path opacity="0.11" d="M112.219 0.28495C112.24 0.266888 112.258 0.252438 112.279 0.234375C112.262 0.252438 112.24 0.266888 112.219 0.28495Z" fill="#FFFFFF"></path>
<path opacity="0.11" d="M109.656 2.5239C110.259 1.9953 110.774 1.55231 111.196 1.1875C110.774 1.54859 110.259 1.9953 109.656 2.5239Z" fill="#FFFFFF"></path>
<path opacity="0.11" d="M112.5 0.0947593C112.5 0.0947593 112.516 0.0822836 112.52 0.078125C112.512 0.0822836 112.504 0.0906007 112.5 0.0947593Z" fill="#FFFFFF"></path>
<path opacity="0.11" d="M66.0938 47.4258C66.5164 46.9195 66.9391 46.4207 67.3581 45.9219C66.9354 46.4207 66.5164 46.9195 66.0938 47.4258Z" fill="#FFFFFF"></path>
<path opacity="0.11" d="M112.094 0.433529C112.094 0.433529 112.117 0.414044 112.129 0.40625C112.117 0.414044 112.105 0.425735 112.094 0.433529Z" fill="#FFFFFF"></path>
<path opacity="0.11" d="M112.375 0.168853C112.375 0.168853 112.415 0.13696 112.431 0.125C112.415 0.140947 112.395 0.152907 112.375 0.168853Z" fill="#FFFFFF"></path>
<path opacity="0.11" d="M111.781 0.696176C111.83 0.654287 111.875 0.616206 111.92 0.578125C111.879 0.616206 111.83 0.654287 111.781 0.696176Z" fill="#FFFFFF"></path>
<path opacity="0.27" d="M85.5312 57.3493C89.236 57.6025 92.9739 57.7328 96.7412 57.7328C118.305 57.7328 138.898 53.5374 157.775 45.9136C152.703 39.9128 147.759 34.3997 143.11 29.4375C129.787 34.9357 115.592 38.7253 100.799 40.5233C96.0208 45.5265 90.8642 51.1587 85.5349 57.3531L85.5312 57.3493Z" fill="#FFFFFF"></path>
<path d="M85.5312 57.3493C89.236 57.6025 92.9739 57.7328 96.7412 57.7328C118.305 57.7328 138.898 53.5374 157.775 45.9136C152.703 39.9128 147.759 34.3997 143.11 29.4375C129.787 34.9357 115.592 38.7253 100.799 40.5233C96.0208 45.5265 90.8642 51.1587 85.5349 57.3531L85.5312 57.3493Z" fill="#FFFFFF"></path>
<path opacity="0.27" d="M157.826 45.994C152.721 39.9486 147.741 34.3982 143.062 29.4062C117.143 54.9356 82.9876 71.6165 45.1385 74.7621C41.5623 79.8918 38.0486 85.2188 34.6562 90.7245C38.894 91.0707 43.1721 91.2493 47.4944 91.2493C90.1987 91.2493 129.018 74.0548 157.822 45.9978L157.826 45.994Z" fill="#FFFFFF"></path>
<path d="M157.826 45.994C152.721 39.9486 147.741 34.3982 143.062 29.4062C117.143 54.9356 82.9876 71.6165 45.1385 74.7621C41.5623 79.8918 38.0486 85.2188 34.6562 90.7245C38.894 91.0707 43.1721 91.2493 47.4944 91.2493C90.1987 91.2493 129.018 74.0548 157.822 45.9978L157.826 45.994Z" fill="#BDBDBD"></path>
<path d="M68.2415 137.648C53.0953 119.579 38.945 105.787 30.3703 97.9062C26.9927 103.736 23.7767 109.744 20.7812 115.905C29.1464 123.882 40.5989 135.5 52.7498 149.903C57.3109 155.308 61.9713 161.108 66.606 167.254C72.0455 163.572 77.2536 159.567 82.208 155.275C77.5439 149.036 72.8468 143.147 68.2415 137.652V137.648Z" fill="#BDBDBD"></path>
<path d="M52.7608 149.898C46.2958 154.414 39.4964 158.467 32.4065 162.026C26.6803 164.9 20.7666 167.45 14.6875 169.646C15.6357 176.41 17.0692 182.984 18.9583 189.335C25.5042 187.511 31.8883 185.289 38.0777 182.694C48.1298 178.48 57.6785 173.294 66.6134 167.242C61.9787 161.096 57.322 155.3 52.7572 149.891L52.7608 149.898Z" fill="#FFFFFF"></path>
<path d="M120.96 148.674C127.583 141.512 133.754 133.914 139.425 125.929C133.658 116.585 127.631 107.618 121.504 99.0781C116.05 107.227 110.085 114.996 103.656 122.337C109.585 130.731 115.403 139.528 120.964 148.674H120.96Z" fill="#BDBDBD"></path>
<path d="M71.1912 41.4322C74.4218 41.6221 77.6746 41.7226 80.953 41.7226C87.6753 41.7226 94.302 41.3131 100.815 40.5202C116.626 23.9696 128.288 14.3468 128.296 14.3393C118.787 5.1297 112.572 0 112.572 0C112.572 0 112.547 0.0223354 112.503 0.0595611C112.495 0.0632837 112.488 0.0707289 112.484 0.0744514C112.469 0.0893417 112.447 0.104232 112.425 0.122845C112.411 0.137735 112.392 0.148903 112.374 0.163793C112.352 0.182406 112.33 0.201019 112.308 0.219632C112.289 0.234522 112.267 0.253135 112.245 0.271748C112.205 0.305251 112.157 0.346199 112.109 0.387147C112.098 0.394593 112.087 0.40576 112.076 0.413205C112.025 0.457876 111.966 0.50627 111.903 0.558386C111.859 0.595611 111.815 0.632837 111.767 0.673785C111.742 0.696121 111.72 0.714734 111.694 0.737069C111.646 0.778017 111.595 0.822688 111.543 0.863637C111.51 0.893417 111.477 0.919475 111.44 0.949256C111.382 0.997649 111.323 1.04977 111.26 1.10188C111.238 1.12049 111.216 1.13911 111.194 1.15772C110.771 1.52253 110.257 1.96552 109.654 2.49412C109.647 2.50157 109.639 2.50901 109.628 2.51646C103.461 7.91419 88.3185 21.7175 71.1875 41.4248L71.1912 41.4322Z" fill="#BDBDBD"></path>
<path d="M85.5479 57.3766C90.8772 51.1823 96.0338 45.55 100.812 40.5469C94.299 41.3398 87.6722 41.7493 80.95 41.7493C77.6715 41.7493 74.4188 41.6525 71.1881 41.4589C70.7691 41.9428 70.3465 42.4268 69.9275 42.9182C69.9201 42.9256 69.9128 42.933 69.9054 42.9405C69.4901 43.4244 69.0711 43.9121 68.6521 44.4035C68.6448 44.4146 68.6337 44.4221 68.6264 44.4332C68.2074 44.9209 67.7921 45.416 67.3694 45.9111C67.3584 45.9223 67.351 45.9334 67.34 45.9483C66.9173 46.4472 66.4983 46.946 66.0757 47.4522C66.072 47.4597 66.0646 47.4634 66.061 47.4709C64.3446 49.522 62.6135 51.6327 60.875 53.7918C68.8947 55.5935 77.1312 56.8071 85.5442 57.3766H85.5479Z" fill="#BDBDBD"></path>
<path d="M53.3007 267.237C23.9197 245.11 4.35194 210.378 2.40031 170.938C1.12128 178.26 0.312692 185.679 0.0664409 193.165C-0.859757 221.226 7.93544 246.454 24.0777 265.904C29.0138 271.853 34.6371 277.262 40.8816 282.045C47.7803 282.939 54.8113 283.4 61.9489 283.4C67.9067 283.4 73.7873 283.08 79.5798 282.455C70.1855 278.442 61.3756 273.316 53.3007 267.233V267.237Z" fill="#FFFFFF"></path>
<path d="M220.8 161.23C217.985 149.154 213.946 137.391 209.065 126.078C197.241 203.783 132.518 263.806 53.3204 267.234C50.9461 267.339 48.5608 267.391 46.1608 267.391C38.6777 267.391 31.3122 266.884 24.0938 265.905C29.0298 271.854 34.6531 277.263 40.8976 282.046C47.7963 282.94 54.8273 283.401 61.9649 283.401C67.9227 283.401 73.8034 283.081 79.5958 282.456C147.443 275.148 202.993 226.148 220.797 161.238C220.797 161.238 220.797 161.238 220.797 161.234L220.8 161.23Z" fill="#BDBDBD"></path>
</svg>