<svg width="421" height="293" viewBox="0 0 421 293" fill="none" xmlns="http://www.w3.org/2000/svg">
<path d="M313.298 3.05859H308.216H107.378H102.336L104.836 5.91153L105.203 6.33268L107.364 8.77806L134.584 39.6985L137.111 42.565L162.673 71.5971L165.201 74.4636L192.638 105.615L195.152 108.482L197.381 111.008L207.831 122.868L209.992 125.327L212.152 122.868L222.603 111.022L226.435 106.661L228.962 103.795L255.258 73.9338L257.786 71.0537L284.53 40.6766L287.071 37.8101L312.945 8.41125L315.473 5.53114L317.647 3.05859H313.271H313.298ZM285.359 6.10173L275.425 17.2554C272.666 15.4485 269.174 14.4704 265.98 14.6877L258.329 6.10173H285.359ZM264.322 14.9187C264.322 14.9187 264.241 14.9187 264.2 14.9458C263.86 15.0274 263.561 15.1225 263.249 15.2311C263.561 15.1225 263.86 15.0138 264.2 14.9458C264.241 14.9458 264.281 14.9458 264.322 14.9323V14.9187ZM224.383 6.10173L215.21 16.3995C212.682 15.1225 209.76 14.4704 207.056 14.7013C208.13 14.7964 209.217 15.0274 210.277 15.3534C209.217 15.0409 208.143 14.7964 207.056 14.7013C206.513 14.7421 205.983 14.8236 205.48 14.9323C205.099 15.0138 204.746 15.1225 204.406 15.2447L204.189 15.0002L204.406 15.2311C204.746 15.1225 205.099 15.0138 205.48 14.9187C205.996 14.81 206.526 14.7421 207.056 14.6877C206.023 14.6062 204.991 14.6334 203.999 14.7828C203.74 14.8236 203.469 14.8643 203.224 14.9187C202.667 15.0409 202.15 15.2176 201.675 15.4213C202.15 15.2176 202.667 15.0409 203.238 14.9051C203.496 14.8507 203.754 14.81 204.012 14.7692L196.307 6.07456H224.396L224.383 6.10173ZM233.515 49.3441C231.232 51.3412 230.878 54.5338 233.012 57.6584C233.393 58.2154 233.827 58.7453 234.317 59.2343L214.435 81.365C212.084 80.3325 209.489 79.8298 207.056 80.0336C207.559 80.0744 208.062 80.1559 208.551 80.251C208.048 80.1559 207.559 80.0744 207.056 80.0336C206.567 80.0744 206.078 80.1423 205.616 80.251C206.091 80.1423 206.567 80.088 207.056 80.0336C206.01 79.9521 204.977 79.9793 203.985 80.1423L188.602 62.8481C192.448 61.1363 193.548 57.1965 190.953 53.3654C190.001 51.9661 188.683 50.757 187.148 49.7925L205.045 29.6724C207.369 30.6778 209.937 31.1668 212.342 30.9766C212.342 30.9766 212.356 30.9766 212.37 30.9766C212.37 30.9766 212.383 30.9766 212.397 30.9766C213.701 31.0853 214.992 31.031 216.215 30.7457C216.446 30.6914 216.664 30.6234 216.881 30.5691C217.846 30.2838 218.675 29.8626 219.368 29.3464C218.675 29.8626 217.86 30.2838 216.881 30.5691L233.515 49.3441ZM216.678 95.6569L216.283 95.2221L216.678 95.6705V95.6569ZM204.868 80.4548C204.705 80.5091 204.542 80.5363 204.393 80.5906C204.542 80.5363 204.719 80.4955 204.868 80.4548ZM202.259 91.391C201.96 91.0514 201.648 90.6982 201.389 90.3314C200.479 88.9864 200.03 87.6279 199.99 86.3509C200.03 87.6279 200.479 88.9728 201.389 90.3178C201.648 90.6846 201.947 91.0378 202.259 91.3775V91.391ZM201.389 24.9991C201.58 25.2844 201.783 25.5561 202.014 25.8142C201.797 25.5425 201.58 25.2708 201.389 24.9991ZM205.398 29.2921L205.752 28.8981C206.812 29.5094 207.953 29.9849 209.135 30.3517C207.953 29.9985 206.812 29.5094 205.765 28.9117L205.412 29.3056L205.398 29.2921ZM169.753 6.10173H191.224L200.207 16.2365C197.421 18.1792 196.837 21.6299 199.134 24.9991C199.813 26.0044 200.71 26.9146 201.729 27.7026L183.56 48.1079C184.049 48.2709 184.525 48.4747 185.001 48.6785C184.525 48.4747 184.063 48.2709 183.574 48.1079C181.114 47.3063 178.478 47.0754 176.127 47.6052C175.828 47.6731 175.556 47.7547 175.27 47.8498L158.664 29.1698C158.189 29.5502 157.618 29.8898 156.993 30.1751C157.618 29.8898 158.189 29.5638 158.664 29.1698C161.097 27.1727 161.518 23.8986 159.344 20.6925C158.977 20.1491 158.542 19.6192 158.066 19.1302C157.319 18.3694 156.422 17.7037 155.484 17.1195C156.436 17.7037 157.319 18.3694 158.08 19.1302L169.78 6.10173H169.753ZM164.671 6.10173L155.036 16.8342C152.087 15.1225 148.486 14.3073 145.292 14.7964C145.034 14.8372 144.762 14.8779 144.518 14.9323C143.96 15.0545 143.444 15.2311 142.968 15.4349C143.444 15.2311 143.96 15.0545 144.531 14.9187C144.789 14.8643 145.048 14.8236 145.306 14.7828L137.601 6.08814H164.698L164.671 6.10173ZM151.584 20.6653L151.339 20.9506L151.584 20.6789V20.6653ZM136.772 37.2395L109.552 6.33268L109.756 6.10173H132.504L141.487 16.2365C138.701 18.1792 138.117 21.6299 140.414 24.9991C141.392 26.4391 142.792 27.689 144.395 28.6671L148.513 24.0617L144.409 28.6671L136.785 37.2395H136.772ZM164.861 69.1381L139.299 40.1061L148.024 30.311C150.334 31.0446 152.794 31.2484 155.009 30.7865L171.995 49.8876L176.983 55.4983L175.148 57.5497L176.969 55.4848L171.982 49.874C170.202 51.871 170.079 54.7919 172.023 57.6448C172.444 58.2698 172.947 58.8539 173.504 59.3974C173.979 59.8593 174.509 60.294 175.053 60.688C174.496 60.294 173.966 59.8593 173.504 59.3974L164.847 69.1245L164.861 69.1381ZM194.839 103.17L167.389 72.0046L176.575 61.6661C178.926 62.9567 181.658 63.7039 184.267 63.6904L200.166 81.5824C200.166 81.5824 200.18 81.5824 200.194 81.5824C200.194 81.5824 200.194 81.5824 200.18 81.5824C197.421 83.5251 196.851 86.9622 199.134 90.3314C200.112 91.7714 201.498 93.0077 203.088 93.9859L194.839 103.17ZM220.102 108.93L210.005 120.396L199.908 108.93L197.353 106.036L206.689 95.6433C205.711 95.3308 204.787 94.8961 203.89 94.4206C204.787 94.9097 205.711 95.3308 206.689 95.6433C208.551 96.2275 210.494 96.472 212.342 96.3226C212.342 96.3226 212.37 96.3226 212.383 96.3226C212.383 96.3226 212.41 96.3226 212.424 96.3226C213.715 96.4448 215.02 96.3769 216.229 96.0916C216.46 96.0373 216.678 95.9693 216.909 95.915C217.996 95.5754 218.92 95.0999 219.654 94.4885C218.92 95.0999 217.996 95.5889 216.909 95.915L224.288 104.216L220.116 108.943L220.102 108.93ZM216.745 84.4489C217.235 84.938 217.67 85.4678 218.05 86.0248C218.186 86.215 218.281 86.4052 218.403 86.609C218.295 86.4188 218.186 86.2286 218.05 86.0384C217.67 85.4814 217.235 84.9516 216.745 84.4625V84.4489ZM226.802 101.322L220.224 93.9315C222.113 91.9345 222.29 88.9457 220.306 86.0248C219.626 85.0331 218.743 84.1228 217.751 83.3349L216.786 84.4081L217.737 83.3485C217.425 83.1039 217.072 82.8866 216.732 82.6556C217.072 82.8866 217.425 83.1039 217.751 83.3485L237.333 61.5574C236.912 61.3129 236.532 61.0412 236.151 60.7695C236.532 61.0412 236.926 61.3129 237.333 61.5574C240.011 63.0926 243.218 63.9077 246.18 63.6632L253.097 71.4748L226.802 101.336V101.322ZM243.408 54.7919L248.626 60.688L243.394 54.7919H243.408ZM255.625 68.5947L250.243 62.522C249.55 62.9024 248.749 63.2285 247.838 63.4322C247.335 63.5409 246.832 63.6088 246.316 63.6496C246.832 63.6088 247.349 63.5409 247.838 63.4322C248.749 63.2285 249.55 62.916 250.243 62.522C253.546 60.6744 254.375 56.9792 251.929 53.379C250.95 51.939 249.564 50.6891 247.974 49.711C246.86 49.0317 245.637 48.4747 244.373 48.0671C241.954 47.3063 239.385 47.1026 237.102 47.6188C237.102 47.6188 237.075 47.6324 237.062 47.6324L220.224 28.6128L219.844 28.178L220.224 28.5992C222.113 26.5886 222.29 23.6133 220.306 20.6925C219.776 19.9045 219.124 19.1845 218.39 18.5324C218.104 18.2879 217.792 18.0705 217.493 17.8395C217.792 18.0705 218.118 18.2879 218.39 18.5324L229.452 6.10173H253.247L261.89 15.8017L267.638 22.2684L261.903 15.8017C258.519 17.6222 257.65 21.3582 260.123 24.9991C260.802 25.9908 261.686 26.901 262.691 27.689C262.868 27.8248 263.072 27.9471 263.262 28.083C263.072 27.9471 262.868 27.8384 262.691 27.689L244.386 48.0535C245.65 48.4475 246.873 49.0181 247.988 49.6974L266.007 29.6589L267.516 27.9879L266.007 29.6724C268.861 30.9359 272.109 31.4114 274.949 30.7593C275.18 30.7049 275.397 30.637 275.615 30.5827L270.94 25.2844L275.629 30.5691C276.607 30.2838 277.436 29.8626 278.115 29.3464C277.422 29.8626 276.593 30.2838 275.615 30.5827L282.382 38.2313L255.638 68.5947H255.625ZM284.91 35.3512L278.944 28.6128L274.691 23.8035L278.292 19.7551L290.441 6.11532H310.648L284.91 35.3512Z" fill="#FFFFFF"></path>
<path d="M279.007 20.6893C278.789 20.3632 278.531 20.0507 278.273 19.7383L274.672 23.7867L278.925 28.596C280.814 26.5989 280.991 23.6101 279.007 20.6893Z" fill="#FFFFFF"></path>
<path d="M267.984 218.617C266.979 210.099 264.777 202.342 262.44 197.995C261.529 196.297 260.592 195.115 259.695 194.598H259.668C259.301 194.381 258.947 194.286 258.594 194.313C258.54 194.313 258.499 194.327 258.445 194.34H258.431C256.923 194.544 256.461 195.808 256.094 198.212C255.604 201.418 255.292 206.676 252.914 214.257C249.842 223.984 246.513 231.102 244.896 234.309C244.529 235.056 244.923 235.966 245.725 236.197L245.956 236.265C246.595 236.442 247.26 236.143 247.546 235.558C250.807 228.847 255.808 216.376 256.039 215.737C255.387 223.576 251.718 232.461 250.223 235.531C249.775 236.428 250.128 237.229 250.862 237.583C251.636 237.95 252.465 237.406 252.805 236.713C254.381 233.494 258.893 223.155 259.423 211.906C260.293 224.731 255.713 235.287 254.055 239.267C253.756 240.014 254.164 240.857 254.952 241.074H254.979C255.632 241.251 256.297 240.938 256.569 240.313C258.309 236.346 261.516 228.154 261.842 219.473C263.106 226.483 261.108 235.273 260.143 238.873C259.953 239.58 260.361 240.381 261.095 240.504C262.222 240.694 262.508 239.933 262.943 238.887C262.888 239.553 263.432 239.933 263.785 240.028C264.438 240.205 265.117 239.865 265.375 239.254C266.952 235.341 269.099 228.141 267.971 218.617H267.984ZM263.609 236.251C266.259 226.687 264.669 216.376 263.649 210.249C265.525 217.164 267.454 224.595 263.609 236.251Z" fill="#FFFFFF"></path>
<path d="M255.448 192.049C256.957 189.998 259.837 189.549 261.889 191.057C263.942 192.565 264.39 195.445 262.882 197.497C261.373 199.548 258.492 199.996 256.44 198.488C254.388 196.98 253.94 194.1 255.448 192.049Z" fill="#FFFFFF"></path>
<path opacity="0.2" d="M255.448 192.049C256.957 189.998 259.837 189.549 261.889 191.057C263.942 192.565 264.39 195.445 262.882 197.497C261.373 199.548 258.492 199.996 256.44 198.488C254.388 196.98 253.94 194.1 255.448 192.049Z" fill="#FFFFFF"></path>
<path d="M260.571 194.772L257.758 194.201C259.185 189.568 258.736 180.072 258.057 178.836C258.138 178.999 258.532 179.339 259.158 179.339V176.988C259.647 176.988 260.122 177.178 260.435 177.505C261.903 179.026 261.984 190.166 260.571 194.772Z" fill="#FFFFFF"></path>
<path d="M322.471 158.612C321.465 150.08 319.264 142.336 316.926 137.975C316.016 136.277 315.078 135.095 314.181 134.579H314.154C313.787 134.362 313.434 134.266 313.08 134.294C313.026 134.294 312.985 134.307 312.931 134.321C311.423 134.511 310.961 135.774 310.594 138.206C310.091 141.412 309.778 146.67 307.4 154.237C304.342 163.964 301.013 171.083 299.396 174.289C299.015 175.036 299.409 175.947 300.225 176.177L300.456 176.245C301.081 176.436 301.747 176.137 302.032 175.539C305.307 168.828 310.308 156.356 310.526 155.718C309.887 163.557 306.204 172.441 304.709 175.512C304.275 176.408 304.614 177.21 305.348 177.563H305.362C306.136 177.93 306.965 177.387 307.319 176.694C308.895 173.488 313.407 163.135 313.937 151.9C314.806 164.725 310.227 175.267 308.569 179.248C308.256 179.995 308.678 180.837 309.452 181.055H309.493C310.132 181.245 310.811 180.919 311.083 180.307C312.822 176.327 316.029 168.135 316.342 159.454C317.619 166.464 315.622 175.254 314.643 178.854C314.453 179.56 314.874 180.375 315.595 180.484C316.722 180.674 317.008 179.913 317.443 178.867C317.388 179.533 317.932 179.913 318.285 180.009C318.938 180.185 319.617 179.859 319.875 179.234C321.465 175.335 323.612 168.121 322.471 158.612ZM318.095 176.232C320.759 166.668 319.169 156.356 318.136 150.243C320.025 157.144 321.954 164.589 318.095 176.232Z" fill="#FFFFFF"></path>
<path d="M309.932 132.026C311.441 129.974 314.322 129.526 316.374 131.034C318.426 132.542 318.874 135.422 317.366 137.473C315.857 139.525 312.977 139.973 310.925 138.465C308.873 136.957 308.424 134.077 309.932 132.026Z" fill="#FFFFFF"></path>
<path opacity="0.2" d="M309.932 132.026C311.441 129.974 314.322 129.526 316.374 131.034C318.426 132.542 318.874 135.422 317.366 137.473C315.857 139.525 312.977 139.973 310.925 138.465C308.873 136.957 308.424 134.077 309.932 132.026Z" fill="#FFFFFF"></path>
<path d="M315.086 134.756L312.273 134.185C313.7 129.553 313.252 120.057 312.572 118.82C312.654 118.983 313.048 119.323 313.673 119.323V116.973C314.162 116.973 314.638 117.163 314.951 117.489C316.418 119.01 316.5 130.151 315.086 134.756Z" fill="#FFFFFF"></path>
<path d="M373.727 97.7508C372.721 89.2327 370.519 81.489 368.182 77.1281C367.258 75.3892 366.293 74.1937 365.383 73.7046H365.342C365.002 73.5008 364.662 73.4193 364.336 73.4465C364.296 73.4465 364.255 73.4601 364.214 73.4601H364.2C362.665 73.6774 362.216 74.9273 361.836 77.3455C361.347 80.5517 361.034 85.8092 358.656 93.3763C355.598 103.103 352.269 110.222 350.652 113.442C350.271 114.189 350.679 115.086 351.481 115.33L351.712 115.398C352.337 115.575 353.003 115.276 353.302 114.692C356.563 107.967 361.564 95.4956 361.781 94.8707C361.143 102.696 357.46 111.581 355.965 114.651C355.53 115.561 355.87 116.349 356.604 116.716H356.617C357.392 117.083 358.221 116.539 358.574 115.833C360.151 112.627 364.662 102.275 365.192 91.0396C366.062 103.864 361.482 114.407 359.825 118.387C359.512 119.134 359.933 119.99 360.708 120.194H360.749C361.387 120.384 362.067 120.058 362.339 119.447C364.078 115.466 367.285 107.288 367.598 98.5931C368.875 105.617 366.878 114.393 365.913 117.993C365.709 118.713 366.13 119.515 366.85 119.637C367.992 119.814 368.264 119.066 368.698 118.02C368.644 118.672 369.188 119.066 369.555 119.161C370.193 119.338 370.873 118.998 371.131 118.373C372.721 114.474 374.868 107.274 373.727 97.7508ZM369.351 115.385C372.014 105.821 370.424 95.4956 369.392 89.3822C371.28 96.2836 373.21 103.728 369.351 115.385Z" fill="#FFFFFF"></path>
<path d="M361.151 71.1661C362.66 69.1147 365.541 68.6664 367.593 70.1744C369.645 71.6824 370.093 74.5625 368.585 76.6139C367.076 78.6653 364.195 79.1136 362.143 77.6056C360.091 76.0977 359.643 73.2175 361.151 71.1661Z" fill="#FFFFFF"></path>
<path opacity="0.2" d="M361.151 71.1661C362.66 69.1147 365.541 68.6664 367.593 70.1744C369.645 71.6824 370.093 74.5625 368.585 76.6139C367.076 78.6653 364.195 79.1136 362.143 77.6056C360.091 76.0977 359.643 73.2175 361.151 71.1661Z" fill="#FFFFFF"></path>
<path d="M366.336 73.8888L363.523 73.3182C364.95 68.6856 364.502 59.1894 363.822 57.9531C363.904 58.1161 364.298 58.4557 364.923 58.4557V56.1055C365.412 56.1055 365.888 56.2957 366.201 56.6217C367.668 58.1433 367.75 69.2833 366.336 73.8888Z" fill="#FFFFFF"></path>
<path d="M419.684 45.1922C418.678 36.6741 416.477 28.9305 414.139 24.5695C413.215 22.8306 412.25 21.6351 411.34 21.146H411.299C410.959 20.9422 410.62 20.8607 410.293 20.8879C410.253 20.8879 410.212 20.9015 410.171 20.9015C408.649 21.1188 408.187 22.3823 407.82 24.7869C407.317 28.0066 407.005 33.2506 404.627 40.8177C401.555 50.5449 398.226 57.6636 396.622 60.8698C396.242 61.6306 396.636 62.5272 397.451 62.7718L397.669 62.8261C398.308 63.0163 398.973 62.7174 399.259 62.1332C402.534 55.4084 407.521 42.937 407.752 42.3121C407.1 50.1373 403.431 59.0222 401.936 62.0925C401.488 63.0027 401.841 63.7907 402.575 64.1439H402.588C403.363 64.5107 404.192 63.9809 404.532 63.2744C406.108 60.0683 410.633 49.7162 411.15 38.481C412.019 51.3057 407.44 61.8479 405.795 65.8285C405.483 66.5757 405.89 67.418 406.679 67.6353H406.706C407.358 67.8255 408.024 67.4995 408.296 66.8881C410.035 62.9076 413.242 54.7292 413.569 46.0345C414.846 53.0582 412.835 61.8344 411.87 65.4345C411.68 66.1545 412.087 66.9561 412.821 67.0783C413.949 67.2549 414.234 66.5077 414.669 65.4617C414.615 66.1138 415.158 66.5077 415.512 66.6028C416.164 66.7795 416.844 66.4398 417.102 65.8149C418.678 61.9159 420.825 54.7156 419.697 45.1922H419.684ZM415.308 62.8261C417.958 53.2484 416.368 42.937 415.349 36.8236C417.224 43.725 419.154 51.1698 415.308 62.8261Z" fill="#FFFFFF"></path>
<path d="M407.104 18.5919C408.613 16.5405 411.494 16.0922 413.546 17.6002C415.598 19.1082 416.046 21.9883 414.538 24.0397C413.029 26.0911 410.148 26.5394 408.096 25.0314C406.044 23.5234 405.596 20.6433 407.104 18.5919Z" fill="#FFFFFF"></path>
<path opacity="0.2" d="M407.104 18.5919C408.613 16.5405 411.494 16.0922 413.546 17.6002C415.598 19.1082 416.046 21.9883 414.538 24.0397C413.029 26.0911 410.148 26.5394 408.096 25.0314C406.044 23.5234 405.596 20.6433 407.104 18.5919Z" fill="#FFFFFF"></path>
<path d="M412.266 21.3302L409.453 20.7596C410.88 16.127 410.432 6.63077 409.752 5.39449C409.834 5.55752 410.228 5.89715 410.853 5.89715V3.54688C411.342 3.54688 411.818 3.73707 412.13 4.06312C413.598 5.58469 413.679 16.7247 412.266 21.3302Z" fill="#FFFFFF"></path>
<path d="M175.091 234.309C173.474 231.102 170.145 223.984 167.074 214.257C164.695 206.676 164.383 201.418 163.894 198.212C163.527 195.794 163.065 194.531 161.556 194.34C161.502 194.327 161.461 194.313 161.407 194.313C161.053 194.286 160.7 194.381 160.333 194.585H160.306C159.409 195.115 158.471 196.297 157.561 197.995C155.224 202.342 153.022 210.099 152.016 218.617C150.875 228.141 153.022 235.341 154.612 239.254C154.87 239.865 155.536 240.205 156.188 240.028C156.555 239.933 157.085 239.553 157.031 238.887C157.479 239.933 157.751 240.694 158.893 240.504C159.613 240.381 160.021 239.58 159.83 238.873C158.866 235.273 156.868 226.483 158.145 219.473C158.458 228.154 161.665 236.346 163.404 240.313C163.676 240.938 164.356 241.251 164.994 241.074H165.035C165.81 240.857 166.231 240.015 165.918 239.267C164.261 235.287 159.681 224.731 160.551 211.906C161.081 223.155 165.592 233.494 167.169 236.713C167.522 237.406 168.351 237.95 169.126 237.583C169.642 237.338 169.968 236.876 169.968 236.306C169.968 236.061 169.914 235.803 169.778 235.531C168.283 232.461 164.6 223.576 163.962 215.737C164.179 216.376 169.18 228.847 172.441 235.559C172.74 236.143 173.406 236.442 174.031 236.265L174.262 236.197C175.064 235.966 175.472 235.056 175.091 234.309ZM156.352 210.249C155.319 216.376 153.729 226.687 156.392 236.251C152.533 224.595 154.463 217.164 156.352 210.249Z" fill="#FFFFFF"></path>
<path d="M164.561 192.049C163.053 189.998 160.172 189.549 158.12 191.057C156.068 192.565 155.619 195.445 157.128 197.497C158.636 199.548 161.517 199.996 163.569 198.488C165.621 196.98 166.07 194.1 164.561 192.049Z" fill="#FFFFFF"></path>
<path opacity="0.2" d="M164.561 192.049C163.053 189.998 160.172 189.549 158.12 191.057C156.068 192.565 155.619 195.445 157.128 197.497C158.636 199.548 161.517 199.996 163.569 198.488C165.621 196.98 166.07 194.1 164.561 192.049Z" fill="#FFFFFF"></path>
<path d="M159.389 194.772L162.202 194.201C160.775 189.568 161.224 180.072 161.903 178.836C161.821 178.999 161.427 179.339 160.802 179.339V176.988C160.313 176.988 159.837 177.178 159.525 177.505C158.057 179.026 157.976 190.166 159.389 194.772Z" fill="#FFFFFF"></path>
<path d="M120.579 174.289C118.976 171.083 115.646 163.964 112.575 154.237C110.197 146.656 109.884 141.399 109.395 138.193C109.028 135.788 108.566 134.525 107.058 134.321C107.058 134.321 106.963 134.294 106.908 134.294C106.555 134.266 106.202 134.362 105.835 134.565H105.807C104.911 135.095 103.973 136.277 103.062 137.975C100.725 142.336 98.5235 150.08 97.5179 158.612C96.39 168.121 98.5371 175.335 100.113 179.234C100.372 179.859 101.051 180.185 101.703 180.009C102.057 179.913 102.6 179.533 102.546 178.867C102.981 179.913 103.266 180.674 104.394 180.484C105.128 180.375 105.536 179.56 105.345 178.854C104.381 175.254 102.383 166.464 103.647 159.454C103.973 168.135 107.18 176.327 108.919 180.307C109.191 180.919 109.857 181.245 110.509 181.068H110.537C111.325 180.837 111.732 179.995 111.433 179.248C109.776 175.267 105.196 164.725 106.066 151.9C106.596 163.135 111.107 173.488 112.684 176.694C113.023 177.387 113.852 177.93 114.627 177.563H114.641C115.374 177.21 115.728 176.408 115.279 175.512C113.784 172.441 110.115 163.557 109.463 155.718C109.694 156.356 114.695 168.828 117.956 175.539C118.242 176.137 118.908 176.436 119.546 176.245L119.764 176.177C120.579 175.947 120.973 175.036 120.593 174.289H120.579ZM101.839 150.243C100.82 156.356 99.2301 166.668 101.88 176.232C98.0343 164.589 99.964 157.144 101.839 150.243Z" fill="#FFFFFF"></path>
<path d="M110.038 132.026C108.529 129.974 105.648 129.526 103.596 131.034C101.544 132.542 101.096 135.422 102.604 137.473C104.113 139.525 106.994 139.973 109.046 138.465C111.098 136.957 111.546 134.077 110.038 132.026Z" fill="#FFFFFF"></path>
<path opacity="0.2" d="M110.038 132.026C108.529 129.974 105.648 129.526 103.596 131.034C101.544 132.542 101.096 135.422 102.604 137.473C104.113 139.525 106.994 139.973 109.046 138.465C111.098 136.957 111.546 134.077 110.038 132.026Z" fill="#FFFFFF"></path>
<path d="M104.905 134.756L107.718 134.185C106.291 129.553 106.739 120.057 107.419 118.82C107.337 118.983 106.943 119.323 106.318 119.323V116.973C105.829 116.973 105.353 117.163 105.04 117.489C103.573 119.01 103.491 130.151 104.905 134.756Z" fill="#FFFFFF"></path>
<path d="M69.3292 113.442C67.7256 110.222 64.3962 103.103 61.325 93.3763C58.9468 85.8092 58.6343 80.5653 58.1315 77.3591C57.7645 74.9273 57.3025 73.6775 55.7805 73.4601C55.7805 73.4601 55.699 73.4465 55.6582 73.4465C55.332 73.4193 54.9923 73.5008 54.6526 73.691H54.6118C53.7013 74.1937 52.7365 75.3892 51.8124 77.1282C49.475 81.4891 47.2735 89.2328 46.2679 97.7508C45.14 107.274 47.2871 114.474 48.8635 118.374C49.1217 118.998 49.8011 119.338 50.4534 119.161C50.8068 119.066 51.3503 118.672 51.296 118.02C51.7308 119.066 52.0162 119.814 53.1441 119.637C53.878 119.515 54.2857 118.713 54.0954 117.993C53.1305 114.393 51.1193 105.617 52.3967 98.5931C52.7229 107.288 55.93 115.466 57.6694 119.447C57.9412 120.058 58.6071 120.384 59.2594 120.208H59.2866C60.0748 119.99 60.4824 119.134 60.1699 118.387C58.5256 114.407 53.9459 103.864 54.8156 91.0396C55.332 102.275 59.8573 112.627 61.4337 115.833C61.7734 116.539 62.6024 117.083 63.377 116.716H63.3906C64.1244 116.349 64.4777 115.561 64.0293 114.651C62.5344 111.581 58.8653 102.696 58.213 94.8707C58.444 95.4957 63.4313 107.967 66.7064 114.692C66.9918 115.276 67.6577 115.575 68.2828 115.398L68.5138 115.33C69.3292 115.086 69.7233 114.189 69.3428 113.442H69.3292ZM50.5893 89.3822C49.5701 95.4956 47.9801 105.821 50.6301 115.385C46.7843 103.728 48.714 96.2836 50.5893 89.3822Z" fill="#FFFFFF"></path>
<path d="M58.7878 71.1661C57.2794 69.1147 54.3984 68.6664 52.3464 70.1744C50.2944 71.6824 49.8459 74.5625 51.3544 76.6139C52.8628 78.6653 55.7438 79.1136 57.7958 77.6056C59.8478 76.0977 60.2962 73.2175 58.7878 71.1661Z" fill="#FFFFFF"></path>
<path opacity="0.2" d="M58.7878 71.1661C57.2794 69.1147 54.3984 68.6664 52.3464 70.1744C50.2944 71.6824 49.8459 74.5625 51.3544 76.6139C52.8628 78.6653 55.7438 79.1136 57.7958 77.6056C59.8478 76.0977 60.2962 73.2175 58.7878 71.1661Z" fill="#FFFFFF"></path>
<path d="M53.6546 73.8888L56.4676 73.3182C55.0407 68.6856 55.4892 59.1894 56.1686 57.9531C56.0871 58.1161 55.693 58.4557 55.0679 58.4557V56.1055C54.5787 56.1055 54.103 56.2957 53.7905 56.6217C52.3228 58.1433 52.2413 69.2833 53.6546 73.8888Z" fill="#FFFFFF"></path>
<path d="M23.396 60.8698C21.7789 57.6637 18.4495 50.5449 15.3783 40.8177C13.0137 33.2506 12.6876 27.9931 12.1983 24.7869C11.8314 22.3823 11.3694 21.1189 9.84736 20.9015H9.82018C9.82018 20.9015 9.73864 20.8879 9.69787 20.8879C9.37173 20.8607 9.04558 20.9422 8.70584 21.1324H8.66508C7.75458 21.6351 6.78973 22.8306 5.85206 24.556C3.51468 28.9169 1.32678 36.6606 0.321157 45.1922C-0.820356 54.7156 1.32678 61.9159 2.91674 65.8149C3.16135 66.4398 3.84082 66.7795 4.49312 66.6029C4.86003 66.5078 5.39002 66.1138 5.33566 65.4617C5.77052 66.5078 6.0559 67.255 7.18383 67.0784C7.91766 66.9561 8.32534 66.1546 8.13509 65.4345C7.17024 61.8344 5.17259 53.0582 6.43641 46.0345C6.76255 54.7292 9.96966 62.9076 11.7091 66.8882C11.9809 67.4995 12.6604 67.8256 13.2991 67.649H13.3398C14.1144 67.418 14.5357 66.5757 14.2232 65.8285C12.5652 61.848 7.9856 51.3057 8.85533 38.481C9.38532 49.7162 13.897 60.0683 15.4734 63.2744C15.8267 63.9809 16.6557 64.5107 17.4303 64.1575C18.1777 63.7907 18.5174 63.0027 18.0826 62.0925C16.5741 59.0222 12.905 50.1373 12.2527 42.3121C12.4837 42.9371 17.4846 55.4085 20.7461 62.1333C21.0315 62.7174 21.7109 63.0163 22.3361 62.8261L22.5671 62.7718C23.3689 62.5272 23.7765 61.6306 23.396 60.8698ZM4.65619 36.8236C3.62339 42.9371 2.03343 53.2484 4.68337 62.8261C0.837556 51.1698 2.76726 43.725 4.65619 36.8236Z" fill="#FFFFFF"></path>
<path d="M12.8737 18.5919C11.3653 16.5405 8.48434 16.0922 6.43233 17.6002C4.38032 19.1082 3.93187 21.9883 5.4403 24.0397C6.94873 26.0911 9.82969 26.5394 11.8817 25.0314C13.9337 23.5234 14.3822 20.6433 12.8737 18.5919Z" fill="#FFFFFF"></path>
<path opacity="0.2" d="M12.8737 18.5919C11.3653 16.5405 8.48434 16.0922 6.43233 17.6002C4.38032 19.1082 3.93187 21.9883 5.4403 24.0397C6.94873 26.0911 9.82969 26.5394 11.8817 25.0314C13.9337 23.5234 14.3822 20.6433 12.8737 18.5919Z" fill="#FFFFFF"></path>
<path d="M7.70926 21.3302L10.5223 20.7596C9.09539 16.127 9.54384 6.63077 10.2233 5.39449C10.1418 5.55752 9.74768 5.89715 9.12257 5.89715V3.54688C8.63335 3.54688 8.15772 3.73707 7.84516 4.06312C6.3775 5.58469 6.29596 16.7247 7.70926 21.3302Z" fill="#FFFFFF"></path>
<path d="M217.82 270.496C216.815 261.978 214.613 254.221 212.276 249.874C211.365 248.175 210.428 246.994 209.531 246.477H209.504C209.137 246.26 208.783 246.165 208.43 246.192C208.376 246.192 208.335 246.206 208.281 246.219C206.772 246.423 206.31 247.673 205.943 250.091C205.454 253.297 205.141 258.555 202.763 266.135C199.692 275.863 196.363 282.981 194.745 286.188C194.365 286.935 194.773 287.845 195.574 288.076L195.805 288.144C196.431 288.32 197.096 288.022 197.395 287.437C200.657 280.726 205.658 268.255 205.875 267.616C205.237 275.455 201.554 284.34 200.059 287.41C199.624 288.307 199.964 289.108 200.711 289.462C200.888 289.543 201.065 289.584 201.228 289.584C201.826 289.584 202.396 289.136 202.668 288.592C204.244 285.372 208.756 275.034 209.286 263.785C210.156 276.623 205.576 287.166 203.918 291.146C203.606 291.893 204.027 292.736 204.802 292.953H204.842C205.481 293.13 206.161 292.817 206.432 292.192C208.172 288.225 211.379 280.033 211.691 271.352C212.969 278.362 210.971 287.152 210.006 290.752C209.816 291.459 210.224 292.274 210.944 292.382C212.086 292.573 212.357 291.812 212.806 290.766C212.751 291.432 213.281 291.812 213.648 291.907C214.301 292.084 214.98 291.758 215.225 291.133C216.815 287.234 218.962 280.02 217.82 270.496ZM213.445 288.13C216.108 278.566 214.518 268.255 213.485 262.128C215.374 269.043 217.304 276.474 213.445 288.13Z" fill="#FFFFFF"></path>
<path d="M205.253 243.924C206.761 241.873 209.642 241.424 211.694 242.932C213.746 244.44 214.195 247.32 212.686 249.372C211.178 251.423 208.297 251.871 206.245 250.363C204.193 248.855 203.744 245.975 205.253 243.924Z" fill="#FFFFFF"></path>
<path opacity="0.2" d="M205.253 243.924C206.761 241.873 209.642 241.424 211.694 242.932C213.746 244.44 214.195 247.32 212.686 249.372C211.178 251.423 208.297 251.871 206.245 250.363C204.193 248.855 203.744 245.975 205.253 243.924Z" fill="#FFFFFF"></path>
<path d="M210.43 246.662L207.617 246.092C209.044 241.459 208.596 231.963 207.916 230.727C207.998 230.89 208.392 231.229 209.017 231.229V228.879C209.506 228.879 209.982 229.069 210.294 229.395C211.762 230.917 211.843 242.057 210.43 246.662Z" fill="#FFFFFF"></path>
<path d="M367.174 55.9855L361.521 59.4091L359.632 57.2626L359.292 56.8822L316.948 8.77619L316.608 8.39579L314.773 6.31722L314.434 5.93683L312.844 4.12997L313.265 3.77675L313.659 3.4507L314.162 3.04314L317.872 0L320.943 3.47787L321.283 3.85826L323.24 6.09986L363.627 51.9507L363.967 52.3311L367.174 55.9855Z" fill="#FFFFFF"></path>
<path d="M107.145 4.12997L107.036 4.25224L105.215 6.31722L104.876 6.69762L103.055 8.77619V8.78977L102.715 9.17016H102.701L60.3567 57.2626L60.0169 57.643L58.4677 59.4091L52.8281 55.9855L55.6955 52.725L56.0352 52.3446L96.7492 6.09986L98.3799 4.25224L98.7197 3.87185L102.117 0L105.827 3.04314L106.33 3.46428L106.384 3.50504L106.724 3.77675L107.145 4.12997Z" fill="#FFFFFF"></path>
<path d="M315.12 5.95042H315.106L314.766 6.31722L312.945 8.39579L287.057 37.7811L284.897 35.3493L282.369 38.2158H282.355L255.611 68.5792L253.084 71.4593L226.788 101.32L224.261 104.2L220.089 108.928L209.992 120.394L212.152 122.853L214.327 125.312L225.103 113.072L316.941 8.77619L317.28 8.39579L315.12 5.95042ZM316.601 8.39579L314.78 6.33081H314.766L312.945 8.39579L287.071 37.7947H287.057L284.897 35.3493L282.369 38.2158H282.355L255.611 68.5792L253.084 71.4593L226.788 101.32L224.261 104.2L220.089 108.928L209.992 120.394L212.152 122.853L214.327 125.312L225.103 113.072L316.941 8.77619L316.601 8.39579ZM316.017 0L313.339 3.04314L313.299 3.08389L310.785 5.95042L310.649 6.09986H310.635L284.897 35.3357L282.369 38.2158H282.355L255.611 68.5792L253.084 71.4593L226.788 101.32L224.261 104.2L220.089 108.928L209.992 120.394L199.895 108.928L197.34 106.034L194.826 103.168L167.375 72.0028L166.573 71.0925L164.848 69.1362L139.286 40.1042L136.758 37.2377L109.539 6.33081L109.335 6.09986L107.704 4.25224L107.052 3.50504L107.011 3.4507L106.658 3.05672H106.644L103.967 0H1.25781L6.89743 6.39874L7.03333 6.54818L9.65609 9.52338L12.5506 12.8111L18.1767 19.2234L23.8299 25.6221L29.4695 32.0344L35.1091 38.4332L40.7623 44.8455L46.3884 51.2578L52.0416 57.6565L53.02 58.7706L55.602 61.7186L57.6676 64.0553L63.3208 70.4676L68.9604 76.8799L69.3681 77.3418L74.6 83.2923L80.2533 89.691L85.8793 96.1033L91.5325 102.502L97.1721 108.914L102.812 115.327L104.877 117.663L106.304 119.28L106.331 119.307L107.079 120.163L108.465 121.725L114.091 128.138L119.744 134.536L125.37 140.935H125.384L131.023 147.348L136.677 153.76L142.303 160.172L147.956 166.571L153.582 172.97L158.909 179.002L159.235 179.382L161.409 181.855L164.875 185.794L170.514 192.207L176.168 198.605L181.794 205.018L187.447 211.416L193.086 217.815L198.726 224.241L204.366 230.64L208.497 235.327L209.978 237.011H209.992L211.391 235.422L215.604 230.64L221.244 224.241L226.883 217.829L232.523 211.43L238.163 205.018L243.802 198.619L249.455 192.207L255.095 185.794L258.56 181.868L260.735 179.396L261.061 179.015L266.374 172.983L272.014 166.585L277.654 160.159L283.293 153.76L288.946 147.361L294.586 140.949L300.226 134.55L305.865 128.124L311.505 121.725L312.877 120.163L313.638 119.307V119.28L315.079 117.663L317.144 115.313L322.784 108.914L328.437 102.502L334.077 96.1033L339.717 89.691L345.356 83.2787L350.996 76.8799L356.635 70.4676L362.289 64.0689L364.354 61.7186L366.936 58.7706L367.915 57.6565H367.928L373.568 51.2442L379.207 44.8455L384.847 38.4332L390.487 32.0344L396.126 25.6221L401.78 19.2098L407.419 12.8111L410.314 9.52338L412.936 6.54818L413.059 6.39874L418.698 0H316.003L316.017 0ZM364.3 51.9507L363.96 52.3311L359.965 56.8822L359.625 57.2626L257.011 173.798L252.676 178.716L209.992 227.189L167.294 178.703L162.972 173.798L60.6845 57.643L60.3447 57.2626L56.363 52.725L56.0233 52.3446L15.2957 6.09986H100.678L103.043 8.77619L194.88 113.058L195.22 113.465L205.657 125.312L206.051 125.76L209.992 130.23L214.327 125.312L225.103 113.072L316.941 8.77619L317.28 8.39579L319.305 6.09986H404.674L364.3 51.9507ZM316.601 8.39579L314.78 6.33081H314.766L312.945 8.39579L287.071 37.7947H287.057L284.897 35.3493L282.369 38.2158H282.355L255.611 68.5792L253.084 71.4593L226.788 101.32L224.261 104.2L220.089 108.928L209.992 120.394L212.152 122.853L214.327 125.312L225.103 113.072L316.941 8.77619L316.601 8.39579ZM315.12 5.95042H315.106L314.766 6.31722L312.945 8.39579L287.057 37.7811L284.897 35.3493L282.369 38.2158H282.355L255.611 68.5792L253.084 71.4593L226.788 101.32L224.261 104.2L220.089 108.928L209.992 120.394L212.152 122.853L214.327 125.312L225.103 113.072L316.941 8.77619L317.28 8.39579L315.12 5.95042ZM315.12 5.95042H315.106L314.766 6.31722L312.945 8.39579L287.057 37.7811L284.897 35.3493L282.369 38.2158H282.355L255.611 68.5792L253.084 71.4593L226.788 101.32L224.261 104.2L220.089 108.928L209.992 120.394L212.152 122.853L214.327 125.312L225.103 113.072L316.941 8.77619L317.28 8.39579L315.12 5.95042Z" fill="#FFFFFF"></path>
<path d="M240.511 178.719L209.989 213.389L179.453 178.705L209.989 144.062L240.511 178.719Z" fill="#FFFFFF"></path>
<path d="M95.3281 0L98.7255 3.85826L100.696 6.09986L103.061 8.77619L194.898 113.058L194.884 113.072L195.238 113.465L205.674 125.312L162.99 173.798L162.433 174.423L166.51 179.627L167.311 178.703L210.009 130.244L252.694 178.716L253.496 179.627L257.573 174.423L257.029 173.798L214.344 125.312L225.121 113.072L316.958 8.77619L317.298 8.39579L319.323 6.09986L321.293 3.85826L324.691 0L95.3281 0ZM284.914 35.3357L282.387 38.2158H282.373L255.629 68.5792L253.102 71.4593L226.806 101.32L224.278 104.2L220.106 108.928L210.009 120.394L199.913 108.928L197.358 106.034L194.844 103.168L167.393 72.0028L166.591 71.0925L164.865 69.1362L139.304 40.1042L136.776 37.2377L109.556 6.33081L109.352 6.09986H310.666L284.914 35.3357Z" fill="#FFFFFF"></path>
<path d="M163.748 122.538C166.493 120.011 170.366 121.492 172.676 123.829C173.301 124.467 173.777 125.215 174.389 125.853C174.946 126.437 175.53 126.981 176.155 127.497C177.188 128.339 178.343 129.046 179.593 129.521C181.781 130.336 184.119 130.255 186.334 129.63C188.78 128.951 191.063 127.755 193.291 126.573C193.509 126.451 193.835 126.356 194.012 126.193C193.618 126.546 191.552 125.745 191.185 125.609C188.467 124.698 186.021 123.068 183.86 121.221C182.61 120.147 181.591 118.843 180.137 118.028C174.851 115.039 168.545 118.571 164.387 121.995C164.169 122.172 163.952 122.362 163.734 122.552L163.748 122.538Z" fill="#FFFFFF"></path>
<path d="M163.717 122.523C166.571 120.105 165.579 116.097 163.554 113.516C163.011 112.809 162.318 112.252 161.76 111.573C161.258 110.948 160.782 110.296 160.361 109.617C159.654 108.476 159.097 107.253 158.784 105.949C158.254 103.68 158.621 101.37 159.518 99.2511C160.497 96.9144 161.978 94.795 163.418 92.7301C163.568 92.5263 163.704 92.2274 163.894 92.0508C163.5 92.404 164.043 94.5369 164.111 94.9309C164.682 97.7295 165.987 100.365 167.55 102.743C168.446 104.115 169.615 105.297 170.254 106.832C172.564 112.456 168.27 118.271 164.356 121.966C164.152 122.156 163.948 122.36 163.731 122.536L163.717 122.523Z" fill="#FFFFFF"></path>
<path d="M133.732 88.5657C136.477 86.0388 140.35 87.5196 142.661 89.8563C143.286 90.4948 143.761 91.242 144.373 91.8805C144.93 92.4647 145.514 93.0081 146.14 93.5244C147.172 94.3667 148.327 95.0731 149.578 95.5486C151.766 96.3637 154.103 96.2822 156.318 95.6573C158.764 94.978 161.047 93.7825 163.276 92.6006C163.493 92.4783 163.819 92.3832 163.996 92.2202C163.602 92.5734 161.536 91.7719 161.169 91.636C158.452 90.7258 156.005 89.0955 153.845 87.2479C152.594 86.1747 151.575 84.8705 150.121 84.0553C144.835 81.0665 138.529 84.5988 134.371 88.0223C134.154 88.1989 133.936 88.3891 133.719 88.5793L133.732 88.5657Z" fill="#FFFFFF"></path>
<path d="M133.733 88.5502C136.587 86.132 135.595 82.1243 133.57 79.5431C133.026 78.8367 132.333 78.2797 131.776 77.6004C131.273 76.9755 130.798 76.3234 130.376 75.6441C129.67 74.5029 129.113 73.2802 128.8 71.976C128.27 69.7073 128.637 67.3977 129.534 65.2784C130.512 62.9417 131.994 60.8224 133.434 58.7574C133.583 58.5536 133.719 58.2547 133.91 58.0781C133.516 58.4313 134.059 60.5643 134.127 60.9582C134.698 63.7568 136.002 66.3924 137.565 68.7699C138.462 70.142 139.631 71.3239 140.27 72.8591C142.58 78.4834 138.285 84.298 134.372 87.9932C134.168 88.1834 133.964 88.3872 133.747 88.5638L133.733 88.5502Z" fill="#FFFFFF"></path>
<path d="M103.764 54.593C106.509 52.0662 110.382 53.547 112.692 55.8837C113.317 56.5222 113.793 57.2694 114.404 57.9079C114.961 58.4921 115.546 59.0355 116.171 59.5517C117.204 60.394 118.359 61.1005 119.609 61.576C121.797 62.3911 124.134 62.3096 126.349 61.6846C128.795 61.0054 131.078 59.8099 133.307 58.6279C133.524 58.5057 133.851 58.4106 134.027 58.2475C133.633 58.6007 131.568 57.7992 131.201 57.6634C128.483 56.7531 126.037 55.1229 123.876 53.2753C122.626 52.202 121.607 50.8978 120.152 50.0827C114.866 47.0939 108.561 50.6261 104.402 54.0496C104.185 54.2262 103.967 54.4164 103.75 54.6066L103.764 54.593Z" fill="#FFFFFF"></path>
<path d="M103.764 54.5893C106.618 52.1711 105.626 48.1634 103.601 45.5822C103.058 44.8757 102.365 44.3187 101.807 43.6394C101.305 43.0145 100.829 42.3624 100.408 41.6831C99.701 40.542 99.1438 39.3193 98.8313 38.0151C98.3013 35.7463 98.6682 33.4368 99.5651 31.3175C100.544 28.9808 102.025 26.8614 103.465 24.7965C103.615 24.5927 103.751 24.2938 103.941 24.1172C103.547 24.4704 104.09 26.6033 104.158 26.9973C104.729 29.7959 106.034 32.4315 107.596 34.8089C108.493 36.181 109.662 37.363 110.301 38.8981C112.611 44.5225 108.317 50.3371 104.403 54.0323C104.199 54.2225 103.995 54.4263 103.778 54.6029L103.764 54.5893Z" fill="#FFFFFF"></path>
<path d="M146.381 141.476C149.126 138.949 152.999 140.43 155.309 142.766C155.934 143.405 156.41 144.152 157.021 144.791C157.578 145.375 158.163 145.918 158.788 146.435C159.821 147.277 160.976 147.983 162.226 148.459C164.414 149.274 166.751 149.192 168.966 148.567C171.413 147.888 173.696 146.693 175.924 145.511C176.142 145.388 176.468 145.293 176.644 145.13C176.25 145.484 174.185 144.682 173.818 144.546C171.1 143.636 168.654 142.006 166.493 140.158C165.243 139.085 164.224 137.781 162.77 136.965C157.483 133.977 151.178 137.509 147.019 140.932C146.802 141.109 146.585 141.299 146.367 141.489L146.381 141.476Z" fill="#FFFFFF"></path>
<path d="M146.374 141.476C149.227 139.058 148.235 135.05 146.211 132.469C145.667 131.762 144.974 131.205 144.417 130.526C143.914 129.901 143.438 129.249 143.017 128.57C142.31 127.429 141.753 126.206 141.441 124.902C140.911 122.633 141.278 120.324 142.174 118.204C143.153 115.867 144.634 113.748 146.075 111.683C146.224 111.479 146.36 111.181 146.55 111.004C146.156 111.357 146.7 113.49 146.768 113.884C147.338 116.683 148.643 119.318 150.206 121.696C151.103 123.068 152.271 124.25 152.91 125.785C155.22 131.409 150.926 137.224 147.012 140.919C146.808 141.109 146.605 141.313 146.387 141.49L146.374 141.476Z" fill="#FFFFFF"></path>
<path d="M116.412 107.499C119.157 104.972 123.03 106.453 125.34 108.79C125.965 109.428 126.441 110.176 127.053 110.814C127.61 111.398 128.194 111.942 128.819 112.458C129.852 113.3 131.007 114.007 132.257 114.482C134.445 115.297 136.783 115.216 138.998 114.591C141.444 113.912 143.727 112.716 145.955 111.534C146.173 111.412 146.499 111.317 146.676 111.154C146.282 111.507 144.216 110.705 143.849 110.57C141.131 109.659 138.685 108.029 136.524 106.182C135.274 105.108 134.255 103.804 132.801 102.989C127.515 100 121.209 103.532 117.051 106.956C116.833 107.132 116.616 107.323 116.398 107.513L116.412 107.499Z" fill="#FFFFFF"></path>
<path d="M116.413 107.499C119.266 105.081 118.274 101.074 116.25 98.4923C115.706 97.7859 115.013 97.2289 114.456 96.5496C113.953 95.9247 113.477 95.2726 113.056 94.5933C112.349 93.4521 111.792 92.2294 111.48 90.9252C110.95 88.6565 111.317 86.3469 112.214 84.2276C113.192 81.8909 114.673 79.7716 116.114 77.7066C116.263 77.5028 116.399 77.204 116.589 77.0273C116.195 77.3806 116.739 79.5135 116.807 79.9075C117.378 82.7061 118.682 85.3416 120.245 87.7191C121.142 89.0912 122.31 90.2731 122.949 91.8083C125.259 97.4327 120.965 103.247 117.051 106.942C116.848 107.133 116.644 107.336 116.426 107.513L116.413 107.499Z" fill="#FFFFFF"></path>
<path d="M86.4198 73.5266C89.1649 70.9998 93.0379 72.4806 95.3481 74.8173C95.9732 75.4558 96.4488 76.203 97.0604 76.8415C97.6175 77.4257 98.2019 77.9691 98.827 78.4853C99.8598 79.3276 101.015 80.0341 102.265 80.5096C104.453 81.3247 106.79 81.2432 109.005 80.6182C111.452 79.939 113.735 78.7434 115.963 77.5615C116.181 77.4392 116.507 77.3442 116.684 77.1811C116.289 77.5343 114.224 76.7328 113.857 76.597C111.139 75.6867 108.693 74.0565 106.532 72.2089C105.282 71.1356 104.263 69.8314 102.809 69.0163C97.5224 66.0275 91.2169 69.5597 87.0585 72.9832C86.8411 73.1598 86.6237 73.35 86.4062 73.5402L86.4198 73.5266Z" fill="#FFFFFF"></path>
<path d="M86.4205 73.5229C89.2743 71.1047 88.2822 67.097 86.2574 64.5158C85.7138 63.8093 85.0208 63.2523 84.4636 62.573C83.9608 61.9481 83.4852 61.296 83.0639 60.6167C82.3572 59.4756 81.8001 58.2529 81.4875 56.9487C80.9575 54.6799 81.3244 52.3704 82.2213 50.2511C83.1998 47.9144 84.681 45.795 86.1215 43.7301C86.271 43.5263 86.4069 43.2274 86.5971 43.0508C86.203 43.404 86.7466 45.5369 86.8146 45.9309C87.3853 48.7295 88.6899 51.3651 90.2527 53.7425C91.1496 55.1146 92.3183 56.2966 92.957 57.8317C95.2672 63.4561 90.9729 69.2707 87.0592 72.9659C86.8553 73.1561 86.6515 73.3599 86.4341 73.5365L86.4205 73.5229Z" fill="#FFFFFF"></path>
<path d="M257.248 122.538C254.503 120.011 250.63 121.492 248.32 123.829C247.695 124.467 247.219 125.215 246.608 125.853C246.05 126.437 245.466 126.981 244.841 127.497C243.808 128.339 242.653 129.046 241.403 129.521C239.215 130.336 236.877 130.255 234.662 129.63C232.216 128.951 229.933 127.755 227.705 126.573C227.487 126.451 227.161 126.356 226.984 126.193C227.378 126.546 229.444 125.745 229.811 125.609C232.529 124.698 234.975 123.068 237.136 121.221C238.386 120.147 239.405 118.843 240.859 118.028C246.146 115.039 252.451 118.571 256.609 121.995C256.827 122.172 257.044 122.362 257.262 122.552L257.248 122.538Z" fill="#FFFFFF"></path>
<path d="M257.249 122.523C254.395 120.105 255.387 116.097 257.412 113.516C257.956 112.809 258.649 112.252 259.206 111.573C259.709 110.948 260.184 110.296 260.605 109.617C261.312 108.476 261.869 107.253 262.182 105.949C262.712 103.68 262.345 101.37 261.448 99.2511C260.47 96.9144 258.988 94.795 257.548 92.7301C257.398 92.5263 257.262 92.2274 257.072 92.0508C257.466 92.404 256.923 94.5369 256.855 94.9309C256.284 97.7295 254.979 100.365 253.417 102.743C252.52 104.115 251.351 105.297 250.712 106.832C248.402 112.456 252.696 118.271 256.61 121.966C256.814 122.156 257.018 122.36 257.235 122.536L257.249 122.523Z" fill="#FFFFFF"></path>
<path d="M287.225 88.5657C284.48 86.0388 280.607 87.5196 278.296 89.8563C277.671 90.4948 277.196 91.242 276.584 91.8805C276.027 92.4647 275.443 93.0081 274.817 93.5244C273.785 94.3667 272.63 95.0731 271.379 95.5486C269.191 96.3637 266.854 96.2822 264.639 95.6573C262.193 94.978 259.91 93.7825 257.681 92.6006C257.464 92.4783 257.138 92.3832 256.961 92.2202C257.355 92.5734 259.421 91.7719 259.788 91.636C262.505 90.7258 264.952 89.0955 267.112 87.2479C268.362 86.1747 269.382 84.8705 270.836 84.0553C276.122 81.0665 282.428 84.5988 286.586 88.0223C286.803 88.1989 287.021 88.3891 287.238 88.5793L287.225 88.5657Z" fill="#FFFFFF"></path>
<path d="M287.241 88.5502C284.387 86.132 285.379 82.1243 287.404 79.5431C287.948 78.8367 288.641 78.2797 289.198 77.6004C289.701 76.9755 290.176 76.3234 290.598 75.6441C291.304 74.5029 291.861 73.2802 292.174 71.976C292.704 69.7073 292.337 67.3977 291.44 65.2784C290.462 62.9417 288.981 60.8224 287.54 58.7574C287.391 58.5536 287.255 58.2547 287.064 58.0781C287.458 58.4313 286.915 60.5643 286.847 60.9582C286.276 63.7568 284.972 66.3924 283.409 68.7699C282.512 70.142 281.343 71.3239 280.705 72.8591C278.394 78.4834 282.689 84.298 286.602 87.9932C286.806 88.1834 287.01 88.3872 287.227 88.5638L287.241 88.5502Z" fill="#FFFFFF"></path>
<path d="M317.217 54.593C314.472 52.0662 310.599 53.547 308.289 55.8837C307.663 56.5222 307.188 57.2694 306.576 57.9079C306.019 58.4921 305.435 59.0355 304.81 59.5517C303.777 60.394 302.622 61.1005 301.372 61.576C299.184 62.3911 296.846 62.3096 294.631 61.6846C292.185 61.0054 289.902 59.8099 287.673 58.6279C287.456 58.5057 287.13 58.4106 286.953 58.2475C287.347 58.6007 289.413 57.7992 289.78 57.6634C292.498 56.7531 294.944 55.1229 297.104 53.2753C298.355 52.202 299.374 50.8978 300.828 50.0827C306.114 47.0939 312.42 50.6261 316.578 54.0496C316.796 54.2262 317.013 54.4164 317.23 54.6066L317.217 54.593Z" fill="#FFFFFF"></path>
<path d="M317.233 54.5893C314.379 52.1711 315.372 48.1634 317.396 45.5822C317.94 44.8757 318.633 44.3187 319.19 43.6394C319.693 43.0145 320.169 42.3624 320.59 41.6831C321.296 40.542 321.854 39.3193 322.166 38.0151C322.696 35.7463 322.329 33.4368 321.432 31.3175C320.454 28.9808 318.973 26.8614 317.532 24.7965C317.383 24.5927 317.247 24.2938 317.057 24.1172C317.451 24.4704 316.907 26.6033 316.839 26.9973C316.268 29.7959 314.964 32.4315 313.401 34.8089C312.504 36.181 311.335 37.363 310.697 38.8981C308.387 44.5225 312.681 50.3371 316.595 54.0323C316.798 54.2225 317.002 54.4263 317.22 54.6029L317.233 54.5893Z" fill="#FFFFFF"></path>
<path d="M274.592 141.476C271.847 138.949 267.974 140.43 265.664 142.766C265.038 143.405 264.563 144.152 263.951 144.791C263.394 145.375 262.81 145.918 262.185 146.435C261.152 147.277 259.997 147.983 258.747 148.459C256.559 149.274 254.221 149.192 252.006 148.567C249.56 147.888 247.277 146.693 245.048 145.511C244.831 145.388 244.505 145.293 244.328 145.13C244.722 145.484 246.788 144.682 247.155 144.546C249.873 143.636 252.319 142.006 254.479 140.158C255.73 139.085 256.749 137.781 258.203 136.965C263.489 133.977 269.795 137.509 273.953 140.932C274.171 141.109 274.388 141.299 274.605 141.489L274.592 141.476Z" fill="#FFFFFF"></path>
<path d="M274.6 141.476C271.747 139.058 272.739 135.05 274.764 132.469C275.307 131.762 276 131.205 276.557 130.526C277.06 129.901 277.536 129.249 277.957 128.57C278.664 127.429 279.221 126.206 279.533 124.902C280.063 122.633 279.696 120.324 278.8 118.204C277.821 115.867 276.34 113.748 274.899 111.683C274.75 111.479 274.614 111.181 274.424 111.004C274.818 111.357 274.274 113.49 274.206 113.884C273.636 116.683 272.331 119.318 270.768 121.696C269.871 123.068 268.703 124.25 268.064 125.785C265.754 131.409 270.048 137.224 273.962 140.919C274.166 141.109 274.369 141.313 274.587 141.49L274.6 141.476Z" fill="#FFFFFF"></path>
<path d="M304.584 107.499C301.839 104.972 297.966 106.453 295.656 108.79C295.031 109.428 294.555 110.176 293.943 110.814C293.386 111.398 292.802 111.942 292.177 112.458C291.144 113.3 289.989 114.007 288.739 114.482C286.551 115.297 284.213 115.216 281.998 114.591C279.552 113.912 277.269 112.716 275.041 111.534C274.823 111.412 274.497 111.317 274.32 111.154C274.714 111.507 276.78 110.705 277.147 110.57C279.865 109.659 282.311 108.029 284.472 106.182C285.722 105.108 286.741 103.804 288.195 102.989C293.481 100 299.787 103.532 303.945 106.956C304.163 107.132 304.38 107.323 304.598 107.513L304.584 107.499Z" fill="#FFFFFF"></path>
<path d="M304.585 107.499C301.731 105.081 302.723 101.074 304.748 98.4923C305.291 97.7859 305.985 97.2289 306.542 96.5496C307.045 95.9247 307.52 95.2726 307.941 94.5933C308.648 93.4521 309.205 92.2294 309.518 90.9252C310.048 88.6565 309.681 86.3469 308.784 84.2276C307.806 81.8909 306.324 79.7716 304.884 77.7066C304.734 77.5028 304.598 77.204 304.408 77.0273C304.802 77.3806 304.259 79.5135 304.191 79.9075C303.62 82.7061 302.315 85.3416 300.753 87.7191C299.856 89.0912 298.687 90.2731 298.048 91.8083C295.738 97.4327 300.032 103.247 303.946 106.942C304.15 107.133 304.354 107.336 304.571 107.513L304.585 107.499Z" fill="#FFFFFF"></path>
<path d="M334.561 73.5266C331.816 70.9998 327.943 72.4806 325.632 74.8173C325.007 75.4558 324.532 76.203 323.92 76.8415C323.363 77.4257 322.779 77.9691 322.153 78.4853C321.121 79.3276 319.966 80.0341 318.715 80.5096C316.527 81.3247 314.19 81.2432 311.975 80.6182C309.529 79.939 307.246 78.7434 305.017 77.5615C304.8 77.4392 304.474 77.3442 304.297 77.1811C304.691 77.5343 306.757 76.7328 307.123 76.597C309.841 75.6867 312.287 74.0565 314.448 72.2089C315.698 71.1356 316.718 69.8314 318.172 69.0163C323.458 66.0275 329.763 69.5597 333.922 72.9832C334.139 73.1598 334.357 73.35 334.574 73.5402L334.561 73.5266Z" fill="#FFFFFF"></path>
<path d="M334.554 73.5229C331.7 71.1047 332.692 67.097 334.717 64.5158C335.26 63.8093 335.953 63.2523 336.51 62.573C337.013 61.9481 337.489 61.296 337.91 60.6167C338.617 59.4756 339.174 58.2529 339.487 56.9487C340.017 54.6799 339.65 52.3704 338.753 50.2511C337.774 47.9144 336.293 45.795 334.853 43.7301C334.703 43.5263 334.567 43.2274 334.377 43.0508C334.771 43.404 334.227 45.5369 334.159 45.9309C333.589 48.7295 332.284 51.3651 330.721 53.7425C329.824 55.1146 328.656 56.2966 328.017 57.8317C325.707 63.4561 330.001 69.2707 333.915 72.9659C334.119 73.1561 334.323 73.3599 334.54 73.5365L334.554 73.5229Z" fill="#FFFFFF"></path>
<path d="M83.929 6.01172L56.0299 37.8152L28.1172 6.01172H83.929Z" fill="#FFFFFF"></path>
<path d="M391.874 6.10547L363.975 37.8003L336.062 6.10547H391.874Z" fill="#FFFFFF"></path>
</svg>