<svg width="361" height="377" viewBox="0 0 361 377" fill="none" xmlns="http://www.w3.org/2000/svg">
<path d="M229.809 291.432C227.404 284.791 224.627 278.87 222.197 275.742C221.207 274.43 220.268 273.606 219.458 273.426C219.445 273.426 219.432 273.413 219.432 273.413C219.214 273.374 219.008 273.361 218.815 273.413H218.776C218.776 273.413 218.725 273.439 218.686 273.451C217.414 273.876 217.131 274.996 217.131 277.094C217.131 279.797 217.581 284.147 216.938 290.724C216.141 299.129 215.151 305.397 214.636 308.228C214.508 308.885 215.048 309.528 215.755 309.567C215.819 309.567 215.896 309.567 215.961 309.58C216.513 309.58 216.976 309.245 217.054 308.73C217.928 302.848 219.574 291.908 219.702 291.342C220.525 297.777 219.612 305.5 219.188 308.202C219.059 308.988 219.535 309.554 220.217 309.708H220.229C220.949 309.85 221.477 309.271 221.567 308.653C222.017 305.834 223.161 296.812 221.785 287.622C224.563 297.829 223.508 306.993 223.225 310.429C223.174 311.073 223.74 311.665 224.421 311.678H224.447C225.013 311.703 225.463 311.33 225.527 310.789C225.848 307.353 226.401 300.287 225.051 293.26C227.353 298.665 227.816 305.976 228.009 308.988C228.034 309.58 228.587 310.146 229.191 310.094C230.156 310.03 230.182 309.387 230.259 308.486C230.374 309.013 230.914 309.219 231.236 309.219C231.802 309.245 232.252 308.846 232.29 308.318C232.56 304.959 232.483 298.871 229.809 291.445V291.432ZM230.104 306.272C229.822 298.241 226.658 290.248 224.884 285.486C227.52 290.724 230.336 296.361 230.104 306.272Z" fill="#FFFFFF"></path>
<path d="M215.897 272.167C216.887 270.198 219.163 269.297 220.963 270.159C222.764 271.022 223.432 273.3 222.481 275.256C221.529 277.212 219.266 278.113 217.427 277.264C215.589 276.414 214.894 274.136 215.897 272.167Z" fill="#FFFFFF"></path>
<path opacity="0.2" d="M215.897 272.167C216.887 270.198 219.163 269.297 220.963 270.159C222.764 271.022 223.432 273.3 222.481 275.256C221.529 277.212 219.266 278.113 217.427 277.264C215.589 276.414 214.894 274.136 215.897 272.167Z" fill="#FFFFFF"></path>
<path d="M220.806 273.455C219.713 273.429 218.633 273.404 217.54 273.378C217.977 268.629 216.756 259.233 216.164 257.972C216.267 258.203 216.781 258.654 217.54 258.474C217.45 257.354 217.36 256.234 217.283 255.102C217.758 255.23 218.247 255.359 218.723 255.501C220.137 257.006 221.179 268.745 220.793 273.455H220.806Z" fill="#FFFFFF"></path>
<path d="M289.612 300.522C286.359 294.061 282.887 288.307 280.084 285.27C278.953 284.009 277.911 283.224 277.063 283.03C276.818 282.966 276.587 282.966 276.381 283.018C276.381 283.018 276.304 283.03 276.278 283.043C275.031 283.455 274.851 284.562 275.057 286.621C275.327 289.273 276.24 293.507 276.33 299.904C276.484 308.103 276.291 314.165 276.124 316.919C276.098 317.563 276.741 318.18 277.474 318.206C277.539 318.206 277.616 318.206 277.68 318.206C278.246 318.232 278.683 317.872 278.696 317.37C278.786 311.668 279.159 301.024 279.236 300.483C280.83 306.738 280.894 314.242 280.83 316.855C280.804 317.627 281.37 318.168 282.09 318.296H282.103C282.862 318.425 283.325 317.872 283.337 317.267C283.415 314.538 283.402 305.786 280.946 296.841C284.945 306.777 285.112 315.645 285.292 318.978C285.33 319.609 285.986 320.163 286.693 320.188H286.732C287.311 320.201 287.722 319.828 287.709 319.313C287.568 315.98 287.195 309.145 284.958 302.311C287.966 307.549 289.419 314.641 290.024 317.55C290.139 318.129 290.782 318.657 291.412 318.618C292.377 318.541 292.325 317.923 292.274 317.048C292.48 317.55 293.058 317.756 293.392 317.756C293.971 317.769 294.395 317.382 294.357 316.868C294.164 313.611 293.264 307.729 289.625 300.509L289.612 300.522ZM283.877 294.769C287.169 299.853 290.731 305.323 291.811 314.937C290.435 307.163 286.231 299.402 283.877 294.769Z" fill="#FFFFFF"></path>
<path d="M273.301 281.818C274.137 279.887 276.361 278.999 278.29 279.823C280.205 280.647 281.131 282.886 280.347 284.804C279.563 286.722 277.351 287.61 275.384 286.799C273.416 285.975 272.478 283.749 273.314 281.831L273.301 281.818Z" fill="#FFFFFF"></path>
<path opacity="0.2" d="M273.301 281.818C274.137 279.887 276.361 278.999 278.29 279.823C280.205 280.647 281.131 282.886 280.347 284.804C279.563 286.722 277.351 287.61 275.384 286.799C273.416 285.975 272.478 283.749 273.314 281.831L273.301 281.818Z" fill="#FFFFFF"></path>
<path d="M278.428 283.053C277.978 283.053 277.528 283.053 277.065 283.028C276.846 283.028 276.615 283.015 276.383 283.015C275.959 283.015 275.522 283.015 275.098 282.989C275.085 282.127 275.008 281.123 274.892 280.042C274.493 276.567 273.619 272.306 272.95 269.822C272.693 268.87 272.475 268.188 272.32 267.905C272.462 268.136 273.002 268.574 273.773 268.394C273.606 267.454 273.452 266.527 273.323 265.601C273.285 265.433 273.259 265.253 273.233 265.086C273.735 265.215 274.236 265.343 274.725 265.472C274.84 265.575 274.956 265.729 275.059 265.935C275.561 266.798 276.088 268.484 276.576 270.517C277.258 273.375 277.862 276.927 278.184 279.784C278.325 281.046 278.415 282.178 278.441 283.053H278.428Z" fill="#FFFFFF"></path>
<path d="M360.979 326.26C360.207 323.145 358.24 317.508 353.354 310.583C348.957 304.38 344.572 298.832 341.28 295.924C339.905 294.688 338.837 294.006 337.937 293.761H337.822C337.603 293.71 337.474 293.71 337.294 293.761H337.153C337.153 293.761 337.076 293.774 337.037 293.787C335.803 294.199 335.764 295.28 336.253 297.262C336.896 299.849 338.439 303.942 339.48 310.094C340.882 317.997 341.73 323.827 342.026 326.479C342.09 327.096 342.875 327.676 343.633 327.701H343.852C344.456 327.727 344.842 327.38 344.765 326.903C343.865 321.446 342.592 311.265 342.592 310.648C345.189 316.671 346.514 323.879 346.899 326.376C347.002 327.109 347.684 327.637 348.455 327.753H348.468C349.278 327.869 349.664 327.341 349.587 326.762C349.188 324.136 347.671 315.719 343.801 307.108C349.42 316.658 351.143 325.192 351.914 328.384C352.055 328.976 352.84 329.516 353.586 329.516H353.611C354.228 329.516 354.588 329.169 354.486 328.68C353.753 325.488 352.184 318.924 348.79 312.347C352.724 317.379 355.437 324.175 356.581 326.968C356.8 327.508 357.559 328.023 358.214 327.972C359.217 327.894 359.037 327.302 358.844 326.453C359.14 326.942 359.783 327.122 360.117 327.122C360.735 327.122 361.095 326.762 360.979 326.26ZM346.539 305.075C350.705 309.953 355.219 315.204 358.009 324.419C355.219 316.967 349.638 309.528 346.539 305.075Z" fill="#FFFFFF"></path>
<path d="M333.811 292.616C334.415 290.737 336.601 289.862 338.684 290.647C340.767 291.432 342.001 293.595 341.461 295.461C340.921 297.314 338.761 298.202 336.614 297.417C334.467 296.632 333.219 294.496 333.811 292.616Z" fill="#FFFFFF"></path>
<path opacity="0.2" d="M333.811 292.616C334.415 290.737 336.601 289.862 338.684 290.647C340.767 291.432 342.001 293.595 341.461 295.461C340.921 297.314 338.761 298.202 336.614 297.417C334.467 296.632 333.219 294.496 333.811 292.616Z" fill="#FFFFFF"></path>
<path d="M339.271 293.777C338.114 293.777 336.97 293.752 335.813 293.752C335.144 289.26 331.917 280.34 331.094 279.118C331.261 279.336 331.878 279.761 332.637 279.581C332.315 278.513 332.007 277.444 331.711 276.363C332.238 276.492 332.765 276.608 333.292 276.724C335.028 278.152 338.539 289.324 339.271 293.777Z" fill="#FFFFFF"></path>
<path d="M199.568 334.652C197.138 332.502 191.982 327.663 186.916 320.623C183.007 315.114 181.593 310.995 180.538 308.524C179.715 306.606 179.124 305.68 177.748 305.873C177.697 305.886 177.632 305.898 177.581 305.924C177.401 306.001 177.234 306.092 177.054 306.194C176.372 306.722 175.806 307.893 175.408 309.528C174.431 313.441 174.392 320.005 176.038 326.839C177.864 334.471 182.197 339.555 184.936 342.22C185.386 342.657 186.054 342.786 186.504 342.529C186.761 342.387 187.044 341.988 186.749 341.499C187.494 342.207 188.009 342.734 188.844 342.387C189.397 342.155 189.41 341.473 188.986 340.971C186.826 338.423 182.171 332.065 181.194 326.35C183.946 333.069 189.474 338.719 192.406 341.396C192.856 341.808 193.512 341.924 193.975 341.679C194.528 341.357 194.541 340.649 194.001 340.135C191.159 337.419 183.65 330.237 181.04 319.992C184.344 328.744 191.596 335.81 194.065 337.959C194.592 338.423 195.453 338.68 195.955 338.268C196.418 337.844 196.405 337.187 195.723 336.569C193.383 334.523 187.43 328.371 184.794 322.36C185.077 322.836 192.728 331.614 197.871 336.106C198.321 336.492 198.964 336.608 199.401 336.351C199.452 336.312 199.504 336.286 199.568 336.248C200.121 335.926 200.121 335.154 199.555 334.652H199.568ZM185.257 339.62C177.992 331.434 177.542 325.243 177.259 319.464C177.954 324.484 179.612 332.824 185.257 339.62Z" fill="#FFFFFF"></path>
<path d="M179.861 303.468C178.28 302.103 175.875 302.271 174.512 303.867C173.137 305.463 173.342 307.857 174.975 309.208C176.608 310.572 179.025 310.379 180.35 308.796C181.687 307.213 181.456 304.819 179.861 303.455V303.468Z" fill="#FFFFFF"></path>
<path opacity="0.2" d="M179.861 303.468C178.28 302.103 175.875 302.271 174.512 303.867C173.137 305.463 173.342 307.857 174.975 309.208C176.608 310.572 179.025 310.379 180.35 308.796C181.687 307.213 181.456 304.819 179.861 303.455V303.468Z" fill="#FFFFFF"></path>
<path d="M175.822 306.826C176.812 306.324 177.802 305.809 178.779 305.307C176.529 301.176 175.14 291.832 175.474 290.339C175.423 290.609 175.05 291.265 174.291 291.433C174.111 290.326 173.931 289.232 173.751 288.125C173.327 288.473 172.903 288.807 172.478 289.155C171.308 291.253 173.533 302.733 175.809 306.826H175.822Z" fill="#FFFFFF"></path>
<path d="M158.552 368.98C155.671 366.933 149.5 362.339 143.173 355.581C138.313 350.292 136.269 346.327 134.841 343.946C133.736 342.093 133.003 341.192 131.614 341.385C131.563 341.398 131.524 341.398 131.485 341.411C131.305 341.501 131.125 341.604 130.945 341.694C130.315 342.222 129.878 343.354 129.685 344.937C129.21 348.734 130.084 355.092 132.861 361.669C135.934 369.006 141.335 373.845 144.652 376.381C145.179 376.792 145.912 376.908 146.336 376.651C146.581 376.522 146.799 376.136 146.414 375.673C147.301 376.355 147.944 376.844 148.754 376.496C149.281 376.278 149.178 375.621 148.651 375.145C145.951 372.712 140.023 366.65 138.133 361.154C142.029 367.603 148.741 372.97 152.277 375.518C152.817 375.917 153.537 376.033 153.961 375.776C154.476 375.467 154.36 374.772 153.717 374.295C150.284 371.708 141.232 364.9 137.002 355.028C141.72 363.445 150.464 370.164 153.408 372.21C154.038 372.648 154.977 372.893 155.414 372.481H155.427C155.826 372.082 155.697 371.438 154.887 370.859C152.097 368.916 144.884 363.059 141.245 357.28C141.592 357.731 150.888 366.123 157.047 370.383C157.574 370.756 158.269 370.859 158.68 370.602C158.732 370.576 158.783 370.55 158.822 370.512C159.362 370.203 159.22 369.469 158.539 368.98H158.552ZM144.536 373.884C135.574 366.097 134.16 360.125 133.016 354.552C134.469 359.391 137.49 367.423 144.536 373.884Z" fill="#FFFFFF"></path>
<path d="M133.458 339.044C131.645 337.731 129.202 337.924 127.993 339.468C126.784 341.013 127.311 343.342 129.176 344.642C131.053 345.942 133.509 345.749 134.666 344.205C135.823 342.66 135.27 340.356 133.458 339.031V339.044Z" fill="#FFFFFF"></path>
<path opacity="0.2" d="M133.458 339.044C131.645 337.731 129.202 337.924 127.993 339.468C126.784 341.013 127.311 343.342 129.176 344.642C131.053 345.942 133.509 345.749 134.666 344.205C135.823 342.66 135.27 340.356 133.458 339.031V339.044Z" fill="#FFFFFF"></path>
<path d="M129.739 342.324C130.691 341.822 131.642 341.332 132.594 340.831C129.714 336.841 127.155 327.767 127.348 326.312C127.322 326.57 127.026 327.213 126.268 327.393C125.946 326.325 125.638 325.257 125.342 324.176C124.943 324.51 124.545 324.845 124.146 325.18C123.169 327.239 126.821 338.372 129.752 342.324H129.739Z" fill="#FFFFFF"></path>
<path d="M108.286 93.9164C106.859 94.1481 105.47 94.3283 104.145 94.457C94.502 95.3966 87.3272 93.8263 81.9268 90.8146C81.1168 90.3641 80.3453 89.8879 79.6124 89.3731C78.9181 88.884 78.2623 88.382 77.6323 87.8543L99.658 82.7575C99.5423 82.4743 99.4137 82.1783 99.2852 81.8823C99.1566 81.5863 99.028 81.2902 98.8994 81.0071C98.6808 80.4922 98.4494 79.9903 98.2179 79.4755C96.6493 76.0261 94.952 72.6025 93.0876 69.2175C92.0204 67.274 90.9146 65.3434 89.7445 63.4257C88.973 62.1386 88.163 60.8515 87.3272 59.5773L66.4844 64.4038C66.5101 63.7217 66.5744 63.0524 66.6901 62.3831C66.7801 61.6752 66.9215 60.9802 67.1016 60.2981C69.2231 51.8291 76.1793 45.1878 82.4669 42.4206C83.1869 42.0988 83.9327 41.9058 84.6913 41.8414C87.1086 41.6098 89.5645 42.6137 91.2103 44.5443L90.336 44.7502C90.0274 44.8146 89.7317 44.9175 89.4616 45.0334C89.1788 45.1492 88.9216 45.2908 88.6773 45.4581C88.5487 45.5353 88.433 45.6254 88.3173 45.7155C88.2016 45.8056 88.0858 45.8957 87.9958 45.9987C87.8801 46.1016 87.7772 46.2046 87.7001 46.3076C87.4044 46.6165 87.1601 46.964 86.9672 47.3372C86.8257 47.5818 86.7229 47.8392 86.6329 48.1095C86.5429 48.4055 86.4657 48.6887 86.4143 48.9847C86.3629 49.3451 86.35 49.7055 86.3757 50.0658C86.3629 50.1559 86.3757 50.2589 86.3886 50.349C86.4143 50.542 86.4529 50.7351 86.4914 50.941C86.5171 51.0569 86.5557 51.1856 86.5943 51.3143C86.7486 51.8034 86.9929 52.2925 87.3144 52.7429C87.9058 53.5667 88.4844 54.3904 89.0373 55.2141C89.3459 55.6517 89.6416 56.0765 89.9245 56.5141C89.976 56.5784 90.0145 56.6556 90.066 56.72C90.1174 56.7972 90.156 56.8616 90.2074 56.9259C90.5289 57.415 90.8632 57.917 91.1846 58.4189C91.236 58.4833 91.2746 58.5605 91.326 58.6377C91.6346 59.1397 91.9561 59.6288 92.2647 60.1179C94.7206 64.0048 96.9579 67.9304 99.0023 71.9203C99.3366 72.5767 99.6709 73.2332 99.9923 73.8767C101.291 76.5023 102.513 79.1537 103.657 81.8179C103.914 82.4229 104.158 83.0149 104.415 83.6198C104.441 83.6842 104.454 83.7357 104.48 83.7872C104.711 84.3406 104.93 84.8812 105.148 85.4346C105.496 86.2969 105.83 87.1593 106.164 88.0216C106.383 88.6137 106.601 89.2057 106.82 89.8107C107.039 90.3898 107.257 90.9819 107.463 91.5739C107.733 92.3591 108.003 93.1313 108.273 93.9164H108.286Z" fill="#FFFFFF"></path>
<path d="M332.058 16.6042L331.749 15.2528C330.014 7.76202 322.543 3.10282 315.073 4.8275L295.066 9.46096L294.963 9.4867L288.688 10.9411H288.662C289.382 11.4173 290.089 11.9064 290.784 12.4341C291.555 13.0133 292.314 13.6311 293.047 14.2617C293.047 14.2617 293.051 14.2617 293.06 14.2617C293.715 14.8409 294.358 15.4459 294.988 16.0765C295.618 16.6943 296.223 17.3507 296.801 18.02C297.097 18.3675 297.393 18.715 297.676 19.0754C298.511 20.1179 299.309 21.2119 300.042 22.3446V22.3703C300.543 23.1297 301.006 23.9019 301.443 24.6999C301.662 25.1118 301.88 25.5365 302.099 25.9612C303.05 27.8404 303.95 29.7324 304.812 31.6244C305.159 32.3966 305.493 33.156 305.828 33.9154C305.969 34.2371 306.111 34.5589 306.239 34.8678C306.471 35.4212 306.702 35.9618 306.933 36.5024C306.959 36.5539 306.985 36.6182 306.998 36.6697L310.997 35.743L321.604 33.2847C329.075 31.56 333.742 24.0821 332.007 16.5913L332.058 16.6042ZM328.676 26.09C326.979 28.8057 324.33 30.6977 321.219 31.4184L310.277 33.954C310.148 33.6193 309.994 33.2847 309.839 32.9372C309.569 32.2808 309.274 31.6372 308.965 30.9808C308.566 30.0799 308.142 29.1789 307.705 28.278C307.384 27.5572 307.023 26.8365 306.676 26.1286C306.188 25.1375 305.686 24.1465 305.172 23.1683C304.876 22.5762 304.555 21.9971 304.233 21.405C304.002 20.9545 303.758 20.5169 303.513 20.0664C303.449 19.9377 303.372 19.809 303.295 19.6932C303.256 19.616 303.218 19.5516 303.179 19.4744C303.076 19.2813 302.96 19.0883 302.845 18.9081C301.147 15.9736 299.103 13.3479 296.776 11.0441L315.497 6.70662C316.41 6.50069 317.31 6.39773 318.197 6.39773C323.649 6.39773 328.586 10.156 329.859 15.6775L330.181 17.0418C330.901 20.1565 330.361 23.3742 328.676 26.09ZM103.674 81.8202C102.53 79.156 101.308 76.5046 100.01 73.879C99.6881 73.2355 99.3538 72.579 99.0195 71.9226C96.9751 67.9327 94.7378 64.0071 92.2819 60.1202C91.9733 59.6311 91.6519 59.142 91.3433 58.64C91.2919 58.5628 91.2533 58.4856 91.2018 58.4212C90.8804 57.9193 90.5461 57.4173 90.2246 56.9282L86.2258 57.8549L66.7202 62.3854L0 77.8303V79.8124L66.4759 64.4061L87.3187 59.5796C88.1545 60.8538 88.9646 62.1409 89.736 63.4279C90.9061 65.3457 92.0119 67.2763 93.0791 69.2198C94.9435 72.6048 96.6408 76.0284 98.2095 79.4778C98.4409 79.9926 98.6724 80.4945 98.8909 81.0094C99.0195 81.2925 99.1481 81.5886 99.2767 81.8846C99.4053 82.1806 99.5338 82.4766 99.6496 82.7598L77.6238 87.8566L0 105.85V107.832L79.6168 89.3754L100.421 84.5617H100.434L104.433 83.635C104.176 83.0172 103.931 82.4252 103.674 81.8202Z" fill="#FFFFFF"></path>
<path d="M91.189 58.4212C90.8675 57.9192 90.5332 57.4173 90.2118 56.9282C90.1604 56.8638 90.1218 56.7995 90.0704 56.7223C90.0189 56.6579 89.9803 56.5807 89.9289 56.5163C89.646 56.0787 89.3503 55.654 89.0417 55.2164L85.0429 56.1431H85.03L67.0931 60.3003L0 75.8482V79.8124L66.4759 64.4061L87.3187 59.5796L91.3176 58.64C91.2661 58.5628 91.2276 58.4856 91.1761 58.4212H91.189ZM333.935 16.1795L333.627 14.8152C331.659 6.3076 323.135 0.979115 314.635 2.94834L293.188 7.91644L293.073 7.94218L286.296 9.51241H286.271C287.081 9.96289 287.878 10.4391 288.662 10.9411C289.382 11.4173 290.09 11.9064 290.784 12.4341L296.673 11.0698L296.763 11.044L315.484 6.70659C316.397 6.50066 317.297 6.39769 318.184 6.39769C323.636 6.39769 328.574 10.1559 329.846 15.6775L330.168 17.0418C330.888 20.1565 330.348 23.3742 328.664 26.0899C326.966 28.8056 324.318 30.6976 321.206 31.4184L310.264 33.9539L306.265 34.8806C306.496 35.4341 306.728 35.9746 306.959 36.5152C306.985 36.5667 307.011 36.631 307.024 36.6825C307.024 36.6825 307.036 36.7598 307.062 36.7855C307.294 37.3647 307.525 37.931 307.744 38.4973H307.756L311.768 37.5706L322.067 35.1767C326.195 34.2242 329.692 31.7273 331.929 28.1364C334.167 24.5454 334.874 20.2981 333.922 16.1795H333.935ZM104.497 83.7894C104.497 83.7894 104.458 83.6865 104.433 83.635C104.176 83.0172 103.931 82.4251 103.674 81.8202L99.6753 82.7469L77.6495 87.8566L0 105.85V109.801L81.9312 90.8168L101.154 86.3636H101.167L105.166 85.4369C104.947 84.8834 104.728 84.3429 104.497 83.7894Z" fill="#FFFFFF"></path>
<path d="M323.686 117.615C323.12 117.744 322.567 117.872 322.001 118.001C254.471 133.652 186.928 149.29 119.398 164.941C118.626 165.121 117.855 165.301 117.083 165.481C116.723 153.473 115.888 141.593 114.203 129.894C114.975 129.713 115.746 129.533 116.518 129.353C184.061 113.702 251.591 98.0643 319.121 82.4263C319.687 82.2848 320.253 82.1561 320.818 82.0273C322.49 93.7268 323.339 105.607 323.686 117.615Z" fill="#FFFFFF"></path>
<path d="M325.294 241.638C324.535 240.93 323.776 240.223 323.018 239.515C320.755 237.378 318.517 235.242 316.331 233.105C319.405 230.261 319.932 225.885 317.36 222.332C316.357 220.955 315.007 219.887 313.477 219.127C313.336 219.063 313.194 219.024 313.053 218.96C313.001 218.934 312.95 218.921 312.911 218.909C312.963 218.934 313.014 218.947 313.066 218.96C313.207 219.024 313.348 219.063 313.49 219.127C316.049 214.983 318.672 210.826 321.32 206.656C321.976 205.613 322.632 204.583 323.288 203.554C323.288 201.366 323.262 199.165 323.288 196.977C322.619 198.019 321.95 199.049 321.282 200.092C317.424 206.089 313.631 212.061 309.915 218.021C307.485 217.647 304.888 217.982 302.599 219.127C302.599 219.127 302.591 219.136 302.573 219.153C296.852 213.181 291.31 207.17 285.858 201.134C287.735 198.38 287.941 194.905 286.051 191.97C285.845 191.648 285.601 191.339 285.357 191.043C284.572 192.215 283.814 193.399 283.042 194.57C282.811 194.918 282.592 195.265 282.361 195.6C282.592 195.252 282.811 194.905 283.042 194.57C283.814 193.399 284.585 192.215 285.357 191.043C291.888 181.081 298.51 171.107 305.081 161.145C307.189 161.711 309.504 161.711 311.703 161.055C315.02 164.813 318.324 168.584 321.642 172.342C322.285 173.076 322.941 173.81 323.583 174.543C323.635 172.329 323.673 170.129 323.725 167.915C323.082 167.181 322.439 166.46 321.796 165.727C319.79 163.436 317.784 161.158 315.779 158.879C319.212 155.996 320.202 151.427 317.81 147.746C317.193 146.794 316.396 145.996 315.47 145.327C317.489 142.225 319.495 139.149 321.5 136.06C321.758 135.674 322.002 135.275 322.259 134.888C322.928 133.833 323.596 132.803 324.265 131.774C324.265 130.731 324.265 129.702 324.265 128.672C324.162 128.698 324.046 128.723 323.943 128.749C323.378 128.878 322.812 129.007 322.246 129.148C322.04 129.2 321.835 129.238 321.629 129.29C321.102 130.113 320.575 130.937 320.035 131.774C317.476 135.751 314.891 139.754 312.294 143.744C313.014 143.962 313.696 144.271 314.339 144.632C314.711 144.838 315.059 145.031 315.393 145.275C315.059 145.043 314.699 144.838 314.339 144.632C313.696 144.271 313.014 143.962 312.294 143.744C311.163 143.396 309.967 143.216 308.758 143.216C306.932 143.216 305.068 143.628 303.358 144.477C303.268 144.529 303.178 144.58 303.088 144.632C301.982 143.396 300.876 142.173 299.745 140.951C298.742 139.831 297.713 138.711 296.697 137.604C296.594 137.488 296.479 137.372 296.376 137.257C295.849 136.677 295.309 136.085 294.769 135.506C293.11 135.892 291.451 136.278 289.793 136.665C290.333 137.244 290.86 137.823 291.387 138.402C294.177 141.427 296.942 144.451 299.668 147.502C297.546 150.308 297.237 153.963 299.192 157.026C299.886 158.094 300.786 158.982 301.841 159.69C302.329 160.012 302.856 160.308 303.396 160.553C303.911 160.784 304.451 160.965 305.004 161.119C304.438 160.965 303.911 160.771 303.396 160.553C302.856 160.308 302.329 160.025 301.841 159.69C295.437 169.395 288.995 179.112 282.605 188.817C282.065 189.653 281.512 190.477 280.959 191.314C281.512 190.477 282.052 189.653 282.605 188.817C279.93 187.35 276.549 187.002 273.411 187.993C274.144 188.83 274.89 189.653 275.636 190.477C276.356 191.301 277.089 192.112 277.809 192.923C277.076 192.112 276.356 191.288 275.623 190.477C274.877 189.641 274.144 188.817 273.399 187.98C268.538 182.523 263.717 177.053 258.869 171.596C260.605 169.858 261.556 167.644 261.556 165.418C261.556 163.938 261.132 162.445 260.245 161.08C259.332 159.677 258.059 158.583 256.567 157.824C259.473 153.358 262.354 148.905 265.208 144.451C265.748 143.628 266.275 142.791 266.802 141.967C265.144 142.353 263.485 142.74 261.826 143.126L260.245 145.597C257.892 149.291 255.487 152.985 253.083 156.691C250.859 156.344 248.48 156.614 246.307 157.567C247.515 158.905 248.711 160.231 249.907 161.557C249.907 161.557 249.907 161.557 249.894 161.544C248.698 160.218 247.515 158.905 246.307 157.567C244.121 155.16 241.922 152.753 239.698 150.359C239.171 149.78 238.631 149.201 238.091 148.622C236.432 149.008 234.773 149.394 233.102 149.78C233.642 150.359 234.182 150.938 234.709 151.517C237.383 154.388 240.019 157.284 242.629 160.167C240.045 163.037 239.505 167.04 241.626 170.347C242.025 170.965 242.514 171.531 243.041 172.033C243.388 172.355 243.787 172.638 244.172 172.921C244.545 173.179 244.931 173.411 245.33 173.629C244.931 173.423 244.545 173.192 244.172 172.934C243.787 172.651 243.388 172.368 243.041 172.046C236.573 181.854 230.054 191.687 223.587 201.507C221.144 200.594 218.302 200.516 215.64 201.392C216.232 201.314 216.836 201.289 217.415 201.289C218.714 201.289 219.986 201.52 221.169 201.932C221.709 202.125 222.237 202.357 222.738 202.627C222.237 202.357 221.722 202.125 221.169 201.945C219.986 201.533 218.714 201.314 217.415 201.301C216.823 201.301 216.232 201.327 215.64 201.404C214.625 201.546 213.622 201.803 212.645 202.215C207.887 196.835 203.168 191.455 198.436 186.075C196.623 184.029 194.81 181.982 192.998 179.936L192.753 179.666C192.83 179.756 192.907 179.846 192.998 179.936C194.81 181.982 196.623 184.029 198.436 186.075C201.87 183.192 202.86 178.636 200.468 174.955C199.748 173.835 198.784 172.921 197.665 172.201C200.789 167.451 203.888 162.715 206.936 157.979C207.476 157.155 208.016 156.318 208.543 155.494C206.884 155.881 205.225 156.267 203.567 156.653C203.04 157.477 202.5 158.3 201.972 159.124C199.465 162.998 196.932 166.898 194.373 170.785C194.553 170.836 194.733 170.888 194.913 170.939C195.003 170.965 195.08 171.004 195.158 171.029C194.9 170.939 194.643 170.849 194.373 170.785C191.686 170.116 188.677 170.36 186.016 171.673C185.926 171.724 185.836 171.776 185.746 171.827C183.534 169.356 181.284 166.898 179.021 164.44C178.494 163.86 177.966 163.281 177.426 162.702C175.768 163.088 174.109 163.474 172.45 163.86C172.99 164.44 173.518 165.019 174.045 165.598C176.835 168.623 179.599 171.66 182.325 174.698C181.168 176.242 180.538 178.031 180.538 179.846C180.538 181.339 180.962 182.845 181.85 184.222C182.428 185.11 183.161 185.882 183.984 186.513C185.206 184.698 186.414 182.871 187.623 181.03C186.414 182.858 185.206 184.685 183.984 186.513C177.542 196.243 171.036 205.961 164.594 215.691C161.74 214.378 158.229 214.249 155.092 215.549C150.347 210.169 145.629 204.789 140.884 199.409C144.33 196.539 145.307 191.97 142.928 188.289C142.016 186.899 140.743 185.805 139.251 185.033C142.157 180.567 145.05 176.101 147.892 171.66C148.432 170.836 148.959 170.013 149.486 169.189C147.827 169.562 146.169 169.948 144.51 170.334C143.983 171.158 143.456 171.995 142.916 172.818C142.003 174.247 141.077 175.676 140.151 177.117C138.698 179.383 137.232 181.648 135.754 183.913C133.349 183.54 130.765 183.862 128.463 185.02C128.373 185.059 128.283 185.123 128.193 185.162C125.969 182.703 123.719 180.232 121.456 177.787C120.928 177.207 120.401 176.628 119.861 176.049C119.797 176.062 119.745 176.075 119.681 176.088C119.013 176.242 118.344 176.397 117.675 176.551C117.688 177.259 117.688 177.954 117.688 178.662V180.245C118.37 180.979 119.038 181.725 119.707 182.459C121.404 184.312 123.089 186.178 124.76 188.045C122.638 190.838 122.33 194.506 124.297 197.556C124.696 198.187 125.172 198.74 125.712 199.242C123.59 202.473 121.456 205.69 119.308 208.934C118.614 209.989 117.932 211.032 117.238 212.074C117.2 214.275 117.148 216.476 117.097 218.677C117.778 217.634 118.472 216.605 119.154 215.562C122.33 210.761 125.493 205.961 128.669 201.173C131.125 202.228 134.056 202.421 136.808 201.597C141.655 207.08 146.477 212.589 151.338 218.072C148.56 220.955 147.917 225.074 150.116 228.446C151.068 229.9 152.418 231.02 153.986 231.779C155.349 229.694 156.699 227.622 158.062 225.537C156.699 227.622 155.336 229.707 153.986 231.779C148.084 240.866 142.298 249.914 136.705 258.924C135.561 258.589 134.352 258.409 133.131 258.409C131.279 258.409 129.415 258.821 127.717 259.67C127.717 259.67 127.692 259.67 127.679 259.67C124.644 256.504 121.661 253.325 118.717 250.12C118.035 249.399 117.38 248.679 116.711 247.958C116.711 250.159 116.737 252.36 116.775 254.548C117.444 255.268 118.112 255.989 118.807 256.71C119.707 257.662 120.607 258.628 121.52 259.58C122.433 260.545 123.359 261.498 124.271 262.45C124.271 262.437 124.284 262.437 124.284 262.425C124.4 262.27 124.541 262.129 124.683 261.974C124.554 262.129 124.413 262.27 124.297 262.425C124.297 262.425 124.297 262.437 124.284 262.45C122.111 265.256 121.918 268.976 124.207 272.052C124.991 273.094 125.994 273.97 127.126 274.665C125.994 276.569 124.863 278.474 123.757 280.379C122.754 282.091 121.751 283.803 120.774 285.515C120.671 285.708 120.555 285.888 120.453 286.081C119.861 287.098 119.283 288.102 118.717 289.118C118.948 291.255 119.205 293.392 119.488 295.515C120.041 294.511 120.594 293.507 121.16 292.503C124.181 287.046 127.345 281.576 130.585 276.08C132.873 276.634 135.342 276.582 137.605 275.849C143.198 281.293 149.01 286.686 155.079 292.014C152.456 294.576 152.109 298.347 154.501 301.564C154.719 301.873 154.976 302.182 155.259 302.478C155.452 302.684 155.671 302.89 155.876 303.083C157.998 301.449 160.12 299.814 162.254 298.179C162.254 298.179 162.254 298.179 162.254 298.167C162.884 296.931 163.54 295.695 164.183 294.447C164.273 294.28 164.363 294.099 164.453 293.932C164.748 293.366 165.057 292.787 165.353 292.22C165.649 291.68 165.931 291.126 166.227 290.573C165.931 291.126 165.649 291.667 165.353 292.22C165.057 292.787 164.748 293.366 164.453 293.932C164.363 294.099 164.273 294.28 164.183 294.447C163.54 295.695 162.884 296.931 162.254 298.167C163.36 297.317 164.466 296.481 165.571 295.631C166.883 294.627 168.194 293.623 169.506 292.619C169.75 292.156 169.995 291.693 170.239 291.242C169.815 290.985 169.364 290.766 168.914 290.547C168.902 290.547 168.889 290.534 168.863 290.521C168.876 290.521 168.889 290.521 168.902 290.534C169.094 290.624 169.3 290.727 169.493 290.817C169.519 290.83 169.532 290.843 169.557 290.869C169.776 290.985 169.995 291.101 170.2 291.229C170.702 290.277 171.203 289.324 171.717 288.372C176.321 279.736 181.271 271.009 186.478 262.231C188.883 263.171 191.635 263.39 194.193 262.772C195.042 263.583 195.891 264.407 196.752 265.217C197.408 265.848 198.064 266.466 198.732 267.084C198.925 267.29 199.131 267.47 199.336 267.663C199.825 268.113 200.314 268.577 200.802 269.027C201.947 268.165 203.104 267.315 204.261 266.453C203.773 265.99 203.284 265.539 202.808 265.076C201.304 263.66 199.825 262.244 198.359 260.829C200.519 259.155 201.664 256.813 201.664 254.393C201.664 252.733 201.124 251.047 200.018 249.515C199.015 248.151 197.665 247.07 196.135 246.323C195.428 247.469 194.733 248.614 194.026 249.76C193.692 250.3 193.358 250.854 193.01 251.394C193.345 250.841 193.679 250.3 194.026 249.747C194.733 248.601 195.428 247.456 196.135 246.31C201.715 237.288 207.501 228.227 213.39 219.14C214.458 219.436 215.563 219.591 216.695 219.591C217.993 219.591 219.305 219.398 220.565 218.973C221.851 218.806 223.124 218.432 224.32 217.84C224.551 217.724 224.757 217.596 224.975 217.467C230.376 223.426 235.879 229.36 241.562 235.254C239.389 238.06 239.196 241.78 241.498 244.843C241.897 245.397 242.372 245.899 242.887 246.349C241.755 248.215 240.636 250.082 239.518 251.948C238.309 253.994 237.126 256.028 235.943 258.061C235.545 258.718 235.172 259.374 234.786 260.031C236.085 260.301 237.37 260.558 238.669 260.829C239.042 260.172 239.415 259.516 239.801 258.859C241.819 255.346 243.902 251.819 246.024 248.267C248.763 249.412 252.003 249.592 254.883 248.653C260.476 254.084 266.288 259.477 272.357 264.819C272.64 265.063 272.923 265.308 273.206 265.552C272.923 265.308 272.64 265.063 272.344 264.819C272.177 264.973 272.023 265.14 271.894 265.308C271.38 265.9 270.981 266.543 270.698 267.225C271.688 267.418 272.679 267.611 273.681 267.805C273.553 267.084 273.424 266.363 273.321 265.655C273.283 265.629 273.27 265.616 273.244 265.578C273.27 265.604 273.296 265.616 273.321 265.642C273.321 265.629 273.321 265.604 273.321 265.591C273.296 265.423 273.27 265.243 273.244 265.076C273.733 265.205 274.234 265.333 274.736 265.462C274.852 265.565 274.954 265.719 275.07 265.925C275.327 266.363 275.584 267.019 275.842 267.817C276.047 267.985 276.24 268.165 276.446 268.332C277.796 268.59 279.159 268.847 280.522 269.117C280.843 268.5 281.165 267.869 281.486 267.251C282.489 268.113 283.518 268.976 284.534 269.838C284.649 269.619 284.765 269.4 284.868 269.182C284.752 269.4 284.636 269.619 284.534 269.838C284.534 269.851 284.559 269.864 284.585 269.877C284.585 269.877 284.594 269.89 284.611 269.915H284.624C287.26 270.417 289.908 270.906 292.557 271.408C292.506 270.675 292.338 269.928 292.056 269.195C291.67 268.178 291.04 267.174 290.191 266.234C289.42 265.372 288.52 264.651 287.53 264.046C287.35 264.394 287.17 264.741 286.99 265.089C286.694 265.642 286.411 266.209 286.115 266.762C286.411 266.209 286.694 265.642 286.977 265.089C287.157 264.741 287.337 264.394 287.517 264.046C292.557 254.458 298.022 244.779 303.808 235.036C306.508 236.091 309.632 236.22 312.436 235.306C316.1 238.871 319.855 242.411 323.712 245.911C324.496 246.632 325.281 247.34 326.065 248.048C325.769 245.911 325.512 243.775 325.281 241.625L325.294 241.638ZM312.526 149.793C312.796 149.368 313.078 148.956 313.348 148.531C313.066 148.956 312.796 149.381 312.526 149.793ZM307.922 156.807C308.951 157.979 309.992 159.15 311.021 160.321C309.992 159.15 308.964 157.979 307.922 156.807ZM195.916 171.325C196.045 171.377 196.161 171.428 196.276 171.48C196.109 171.403 195.942 171.338 195.762 171.261C195.813 171.287 195.865 171.3 195.916 171.313V171.325ZM125.159 187.517C125.57 187.041 126.046 186.603 126.573 186.204C126.046 186.603 125.583 187.041 125.159 187.517ZM127.306 200.465C127.717 200.709 128.129 200.954 128.579 201.147C128.142 200.954 127.705 200.722 127.306 200.465ZM139.11 184.994C139.135 184.994 139.161 185.007 139.174 185.02C139.148 185.02 139.122 184.994 139.097 184.994H139.11ZM152.778 216.785C152.546 216.952 152.34 217.12 152.122 217.287C152.328 217.12 152.546 216.939 152.778 216.772V216.785ZM125.03 261.536C125.12 261.446 125.197 261.369 125.3 261.279C125.403 261.189 125.506 261.086 125.622 260.996C125.622 260.996 125.634 260.996 125.647 260.983C125.429 261.163 125.223 261.356 125.03 261.549V261.536ZM125.789 260.854C125.904 260.764 126.02 260.674 126.149 260.584C126.252 260.507 126.38 260.43 126.496 260.339C126.252 260.507 126.007 260.674 125.789 260.854ZM195.325 187.89C195.621 187.774 195.903 187.646 196.186 187.517C195.891 187.658 195.621 187.787 195.325 187.903C195.055 188.006 194.785 188.096 194.528 188.173C194.798 188.083 195.068 187.993 195.325 187.89ZM160.711 227.841C160.145 228.716 159.58 229.578 159.001 230.454C159.567 229.578 160.132 228.703 160.698 227.841H160.711ZM157.857 224.675C157.947 224.765 158.024 224.855 158.114 224.945C158.024 224.855 157.947 224.752 157.857 224.662V224.675ZM134.005 272.412C134.532 272.927 135.059 273.442 135.574 273.957C135.046 273.442 134.519 272.927 133.992 272.412H134.005ZM138.75 275.385C138.518 275.488 138.287 275.566 138.055 275.656C138.287 275.566 138.531 275.488 138.75 275.385C138.878 275.334 139.007 275.282 139.122 275.218C138.994 275.282 138.865 275.334 138.75 275.385ZM140.704 274.201C140.755 274.163 140.794 274.124 140.833 274.098C140.781 274.137 140.743 274.176 140.691 274.214L140.704 274.201ZM155.246 291.821C155.246 291.821 155.259 291.808 155.272 291.796C155.452 291.641 155.619 291.487 155.812 291.345C155.619 291.487 155.426 291.654 155.246 291.808V291.821ZM167.05 289.852C167.14 289.878 167.217 289.904 167.307 289.942C167.346 289.942 167.384 289.942 167.423 289.981C167.513 289.994 167.603 290.032 167.68 290.058C167.77 290.084 167.847 290.11 167.924 290.161C167.937 290.161 167.963 290.174 167.976 290.187C167.667 290.071 167.359 289.955 167.05 289.852ZM166.626 289.698C164.041 288.964 161.251 288.964 158.782 289.801C152.752 284.459 146.979 279.066 141.411 273.622C144.497 270.791 145.024 266.414 142.44 262.862C141.758 261.923 140.91 261.125 139.958 260.468C145.616 251.304 151.479 242.089 157.471 232.848C157.432 232.835 157.394 232.822 157.355 232.822C157.265 232.809 157.175 232.77 157.085 232.758C157.175 232.77 157.265 232.809 157.368 232.822C157.407 232.822 157.445 232.848 157.484 232.848C158.024 232.925 158.577 232.963 159.13 232.963C160.891 232.963 162.678 232.577 164.337 231.805C163.81 231.213 163.283 230.634 162.755 230.055C162.19 229.424 161.611 228.793 161.045 228.176C161.611 228.806 162.177 229.424 162.755 230.055C163.283 230.647 163.81 231.226 164.337 231.805C169.853 237.854 175.485 243.878 181.284 249.85C180.5 251.124 180.101 252.527 180.101 253.956C180.101 255.577 180.615 257.225 181.734 258.718C182.184 259.323 182.724 259.863 183.303 260.365C177.414 270.211 171.82 280.006 166.651 289.698H166.626ZM182.673 248.164C182.763 248.074 182.853 247.971 182.955 247.881C182.853 247.971 182.775 248.074 182.673 248.164ZM185.926 261.987C185.823 261.935 185.72 261.871 185.617 261.82C185.72 261.871 185.823 261.935 185.926 261.974C186.016 262.013 186.106 262.064 186.196 262.103C186.106 262.051 186.016 262.013 185.926 261.974V261.987ZM192.535 245.229C190.104 244.856 187.507 245.191 185.218 246.336C184.936 246.478 184.653 246.632 184.395 246.799C185.141 247.572 185.9 248.344 186.646 249.116C186.839 249.322 187.044 249.515 187.237 249.721C187.044 249.515 186.851 249.322 186.646 249.116C185.9 248.344 185.141 247.572 184.395 246.799C178.751 240.93 173.273 235.036 167.886 229.115C167.744 229.27 167.59 229.424 167.449 229.578C167.603 229.424 167.757 229.27 167.886 229.115C169.262 227.506 169.995 225.55 169.995 223.581C169.995 222.088 169.57 220.569 168.67 219.179C168.323 218.625 167.912 218.123 167.449 217.673C166.986 218.381 166.51 219.089 166.047 219.797C165.121 221.2 164.196 222.602 163.27 223.993C164.324 225.164 165.378 226.335 166.446 227.506C166.793 227.892 167.127 228.278 167.474 228.652C167.127 228.266 166.78 227.892 166.446 227.506C165.391 226.335 164.324 225.164 163.27 223.993C164.196 222.602 165.121 221.2 166.047 219.797C166.51 219.089 166.986 218.381 167.449 217.673C173.955 207.84 180.525 198.007 187.07 188.173C186.581 188.006 186.118 187.8 185.656 187.568C186.106 187.8 186.569 188.006 187.07 188.173C189.333 188.92 191.892 188.984 194.322 188.25C199.156 193.746 203.978 199.242 208.839 204.738C206.074 207.621 205.431 211.727 207.63 215.099C208.286 216.116 209.147 216.965 210.137 217.647C204.133 226.876 198.231 236.065 192.535 245.229ZM209.096 213.091C208.607 211.855 208.427 210.568 208.581 209.307C208.659 208.663 208.813 208.02 209.044 207.402C208.813 208.02 208.659 208.663 208.594 209.307C208.44 210.568 208.62 211.855 209.109 213.091H209.096ZM209.07 204.532C209.006 204.596 208.916 204.661 208.851 204.725C208.916 204.648 208.993 204.596 209.07 204.532C209.404 204.197 209.79 203.888 210.189 203.605C209.79 203.901 209.404 204.197 209.07 204.532ZM213.39 202.408C213.287 202.473 213.172 202.537 213.069 202.588C213.172 202.524 213.287 202.46 213.39 202.395C213.596 202.267 213.815 202.138 214.046 202.022C213.815 202.138 213.609 202.28 213.39 202.395V202.408ZM224.384 216.849L222.198 214.417C222.931 215.228 223.651 216.038 224.384 216.849ZM285.742 201.263C285.369 201.791 284.932 202.28 284.444 202.73C284.932 202.267 285.382 201.778 285.742 201.263ZM278.529 193.322C278.478 193.347 278.426 193.386 278.375 193.412C278.426 193.373 278.478 193.347 278.529 193.322ZM278.259 193.489C277.102 194.158 275.932 194.827 274.774 195.51C275.932 194.84 277.102 194.171 278.259 193.489ZM272.061 188.495C272.46 188.328 272.846 188.173 273.244 188.045C272.846 188.173 272.447 188.328 272.061 188.495C271.907 188.559 271.753 188.624 271.611 188.701C271.766 188.624 271.92 188.572 272.061 188.495ZM274.144 195.613C274.273 195.767 274.414 195.909 274.543 196.063C274.633 196.166 274.736 196.282 274.826 196.385L274.132 195.613C273.013 194.364 271.894 193.103 270.788 191.854C271.907 193.103 273.026 194.351 274.144 195.613ZM254.292 157.013C254.292 157.013 254.292 157.013 254.279 157.013C254.176 156.987 254.073 156.962 253.97 156.936C254.073 156.962 254.189 157 254.292 157.026V157.013ZM225.323 202.37C225.323 202.37 225.348 202.383 225.361 202.395C225.773 202.653 226.184 202.91 226.557 203.232C226.184 202.923 225.773 202.653 225.361 202.408C225.348 202.408 225.335 202.395 225.323 202.383V202.37ZM226.698 206.656C226.557 206.385 226.415 206.102 226.248 205.832C226.351 205.999 226.454 206.167 226.544 206.334C226.608 206.437 226.647 206.54 226.698 206.656ZM226.865 216.103C226.531 216.412 226.171 216.695 225.785 216.965C226.171 216.695 226.531 216.412 226.853 216.103H226.865ZM226.853 206.965C227.135 207.608 227.328 208.265 227.444 208.921C227.341 208.252 227.135 207.595 226.853 206.965ZM227.547 210.054V210.259C227.547 210.259 227.547 210.311 227.547 210.337C227.547 210.247 227.547 210.144 227.547 210.054ZM227.457 209.062C227.483 209.217 227.508 209.371 227.521 209.513C227.521 209.693 227.547 209.873 227.547 210.041C227.547 209.706 227.508 209.384 227.457 209.05V209.062ZM245.008 232.487C245.008 232.487 244.982 232.5 244.97 232.5C244.7 232.629 244.455 232.783 244.198 232.938C244.121 232.989 244.031 233.028 243.954 233.079C243.954 233.079 243.941 233.079 243.928 233.092C243.928 233.092 243.928 233.092 243.954 233.066C244.031 233.015 244.121 232.976 244.198 232.925C244.455 232.77 244.7 232.629 244.97 232.487C239.261 226.515 233.706 220.505 228.267 214.468C230.144 211.714 230.35 208.239 228.46 205.317C227.958 204.532 227.328 203.837 226.621 203.258C233.037 193.502 239.518 183.72 245.96 173.964C248.698 175.148 252.016 175.251 255.025 174.067C254.124 173.05 253.212 172.021 252.299 171.004C253.212 172.021 254.124 173.037 255.025 174.067C259.795 179.447 264.552 184.827 269.335 190.207C265.967 193.09 265.041 197.595 267.407 201.237C268.063 202.241 268.911 203.078 269.888 203.76C263.845 212.988 257.892 222.178 252.157 231.329C249.766 231.007 247.245 231.355 245.008 232.474V232.487ZM255.719 232.397C255.372 232.23 255.012 232.088 254.639 231.96C254.716 231.985 254.793 232.011 254.87 232.037C255.153 232.14 255.436 232.268 255.719 232.397C255.719 232.397 255.719 232.397 255.706 232.397H255.719ZM283.981 262.515C281.396 261.794 278.606 261.794 276.125 262.618C275.687 262.759 275.276 262.939 274.864 263.132C275.276 262.939 275.7 262.759 276.125 262.618C270.094 257.289 264.321 251.896 258.753 246.452C261.839 243.608 262.366 239.231 259.782 235.679C258.753 234.263 257.352 233.169 255.745 232.41C261.376 223.413 267.188 214.378 273.129 205.304C275.919 206.102 279.108 205.909 281.898 204.519C282.116 204.416 282.335 204.287 282.554 204.159C287.954 210.118 293.457 216.051 299.127 221.946C296.967 224.739 296.774 228.472 299.063 231.535C299.513 232.153 300.053 232.693 300.645 233.182C294.743 243.041 289.15 252.823 283.981 262.515ZM302.008 234.148C301.571 233.877 301.133 233.581 300.735 233.247C301.133 233.568 301.558 233.864 302.008 234.135V234.148ZM316.331 233.118C316.074 233.35 315.804 233.568 315.521 233.774C315.521 233.774 315.521 233.774 315.509 233.774C315.804 233.555 316.087 233.35 316.344 233.105L316.331 233.118Z" fill="#FFFFFF"></path>
<path d="M334.667 278.976C334.667 278.976 334.641 278.924 334.628 278.885C315.303 213.644 333.947 139.598 321.706 72.7092C321.706 72.6319 321.68 72.5676 321.667 72.4904C321.5 71.6023 321.333 70.7271 321.166 69.839C321.101 69.5558 321.05 69.2727 320.999 68.9767C320.857 68.3331 320.729 67.6767 320.587 67.0332C320.407 66.158 320.227 65.2956 320.021 64.4333C319.816 63.468 319.584 62.5027 319.34 61.5374C319.108 60.5077 318.851 59.4781 318.568 58.4484C318.337 57.5088 318.093 56.5693 317.823 55.6297C317.591 54.7416 317.334 53.8664 317.077 52.9912C316.884 52.3348 316.691 51.6655 316.485 51.0091C316.228 50.1339 315.945 49.2587 315.663 48.3963C315.444 47.6756 315.213 46.9548 314.955 46.2341C314.724 45.5133 314.48 44.7925 314.21 44.0718C314.12 43.8015 314.03 43.5312 313.927 43.2609C313.67 42.5144 313.4 41.7679 313.117 41.0214C312.937 40.5323 312.757 40.0432 312.564 39.567C312.319 38.9364 312.075 38.3057 311.818 37.675C311.805 37.6364 311.792 37.6107 311.779 37.5721L311.278 36.3236C311.201 36.1305 311.124 35.9375 311.034 35.7573C310.931 35.5127 310.841 35.2682 310.738 35.0365C310.648 34.8049 310.545 34.5603 310.429 34.3158C310.391 34.1999 310.339 34.0841 310.275 33.9554C310.146 33.6207 309.992 33.2861 309.838 32.9386C309.568 32.2822 309.272 31.6387 308.964 30.9822C308.565 30.0813 308.141 29.1803 307.703 28.2794C307.382 27.5586 307.022 26.8379 306.675 26.13C306.186 25.1389 305.685 24.1479 305.17 23.1697C304.875 22.5777 304.553 21.9985 304.232 21.4064C304 20.9559 303.756 20.5183 303.512 20.0679C303.447 19.9392 303.37 19.8104 303.293 19.6946C303.255 19.6174 303.216 19.553 303.177 19.4758C303.075 19.2827 302.959 19.0897 302.843 18.9095C301.107 15.9878 299.024 13.3751 296.684 11.0712C296.131 10.5178 295.553 9.99008 294.961 9.48812C294.344 8.94755 293.714 8.43272 293.071 7.94363C287.233 3.47749 280.213 0.748891 272.833 0.131096C271.714 0.0281302 270.595 -0.010482 269.464 0.0023887C268.448 0.0023887 267.419 0.0538716 266.391 0.143967C266.031 0.169708 265.671 0.20832 265.311 0.246933C263.858 0.414252 262.418 0.658796 260.977 0.993435L84.6942 41.8451L83.6784 42.0768C83.0612 42.2184 82.5083 42.4629 82.0197 42.7847C81.7754 42.9392 81.5439 43.1194 81.3382 43.3124C79.7953 44.7539 79.2552 47.0578 80.1039 49.0785C80.2581 49.4646 80.4767 49.8379 80.7468 50.1983C82.2383 52.1675 83.6655 54.1496 85.0413 56.1445C85.4014 56.6594 85.7614 57.1871 86.1085 57.7148C86.1343 57.7534 86.1728 57.8049 86.1985 57.8563C86.5714 58.4227 86.9572 59.0018 87.3172 59.581C88.153 60.8552 88.963 62.1423 89.7345 63.4294C90.9046 65.3471 92.0104 67.2777 93.0776 69.2212C94.942 72.6062 96.6392 76.0298 98.2079 79.4792C98.4394 79.994 98.6708 80.496 98.8894 81.0108C99.018 81.2939 99.1466 81.59 99.2751 81.886C99.4037 82.182 99.5323 82.4781 99.648 82.7612C99.6866 82.8384 99.7252 82.9157 99.7509 82.9929C99.9823 83.5206 100.201 84.0483 100.407 84.5631C100.471 84.7047 100.535 84.8463 100.587 84.9878C100.78 85.4512 100.972 85.9017 101.14 86.365C101.23 86.5709 101.307 86.7897 101.397 86.9957C101.397 86.9957 101.397 87.0043 101.397 87.0214C101.885 88.2441 102.348 89.454 102.785 90.6896C103.081 91.4747 103.364 92.2598 103.634 93.0449C103.801 93.5083 103.968 93.9845 104.123 94.4607C104.431 95.3359 104.714 96.224 104.997 97.0992C105.216 97.7814 105.434 98.4635 105.64 99.1456C105.858 99.8278 106.064 100.51 106.257 101.192C106.656 102.556 107.041 103.921 107.414 105.298C108.173 108.078 108.854 110.871 109.484 113.677C109.626 114.333 109.767 114.99 109.909 115.659C110.32 117.602 110.706 119.546 111.066 121.502C123.345 188.649 104.495 263.003 124.207 328.425V328.451C124.361 328.991 124.528 329.532 124.695 330.072C125.621 329.339 126.547 328.592 127.473 327.846C141.887 316.352 156.84 304.73 172.206 293.005C172.874 292.49 173.569 291.975 174.25 291.434C174.25 291.434 174.259 291.434 174.276 291.434C174.623 291.177 174.957 290.92 175.305 290.649C175.305 290.649 175.369 290.611 175.382 290.585C188.805 280.366 202.551 270.069 216.527 259.721C216.952 259.399 217.389 259.09 217.813 258.769C218.482 258.91 219.137 259.052 219.806 259.18C237.177 262.81 254.844 266.362 272.871 269.837C274.067 270.069 275.288 270.301 276.497 270.532C294.511 273.982 312.885 277.341 331.735 280.597C332.918 280.803 334.088 281.009 335.271 281.215C335.04 280.469 334.821 279.735 334.602 278.988L334.667 278.976ZM275.044 265.937C274.465 265.835 273.887 265.719 273.308 265.603C254.343 261.883 235.776 258.086 217.479 254.212C185.938 277.444 155.477 300.418 126.933 322.955C114.409 277.032 119.848 226.952 119.617 178.185C119.617 176.782 119.604 175.366 119.591 173.963C119.552 170.951 119.488 167.94 119.398 164.941C119.038 152.932 118.202 141.04 116.518 129.353C116.106 126.419 115.631 123.484 115.09 120.575C114.846 119.224 114.589 117.873 114.319 116.521C114.023 115.041 113.702 113.574 113.38 112.106C113.072 110.807 112.763 109.494 112.442 108.207C111.876 105.903 111.259 103.599 110.603 101.321C110.474 100.87 110.346 100.42 110.204 99.9694C109.6 97.9487 108.97 95.928 108.289 93.9201C108.019 93.135 107.749 92.3628 107.479 91.5777C107.273 90.9856 107.054 90.3935 106.836 89.8144C106.617 89.2094 106.398 88.6174 106.18 88.0253C105.846 87.163 105.511 86.3007 105.164 85.4383C104.946 84.8849 104.727 84.3443 104.495 83.7909C104.47 83.7394 104.457 83.6879 104.431 83.6364C104.174 83.0186 103.93 82.4266 103.673 81.8216C102.528 79.1574 101.307 76.506 100.008 73.8804C99.6866 73.2369 99.3523 72.5805 99.018 71.9241C96.9736 67.9341 94.7363 64.0085 92.2804 60.1216C91.9718 59.6325 91.6503 59.1434 91.3418 58.6415C91.2903 58.5642 91.2517 58.487 91.2003 58.4227C90.8789 57.9207 90.5446 57.4187 90.2231 56.9296C90.1717 56.8653 90.1331 56.8009 90.0817 56.7237C90.0302 56.6594 89.9917 56.5821 89.9402 56.5178C89.6573 56.0802 89.3616 55.6554 89.053 55.2178C88.5001 54.3941 87.9215 53.5704 87.33 52.7467C87.0086 52.2962 86.7643 51.8071 86.61 51.318C86.5714 51.1893 86.5329 51.0606 86.5071 50.9448C86.4686 50.7388 86.43 50.5458 86.4043 50.3527C86.3914 50.2626 86.3786 50.1596 86.3914 50.0695C86.3657 49.7092 86.3786 49.3488 86.43 48.9884C86.4814 48.6924 86.5586 48.4092 86.6486 48.1261C86.7386 47.8429 86.8414 47.5855 86.9829 47.3409C87.1758 46.9677 87.4201 46.6202 87.7158 46.3113C87.7929 46.2083 87.8958 46.1054 88.0115 46.0024C88.1015 45.8994 88.2173 45.8093 88.333 45.7192C88.4487 45.6291 88.5644 45.539 88.693 45.4618C88.9373 45.2945 89.1945 45.1529 89.4773 45.0371C89.7474 44.9213 90.0431 44.8183 90.3517 44.7539L91.226 44.548L258.959 5.69125C259.679 5.52393 260.412 5.38236 261.132 5.25365C261.865 5.12494 262.585 5.02197 263.305 4.94475C264.758 4.77743 266.211 4.70021 267.651 4.70021C268.204 4.70021 268.769 4.71308 269.322 4.73882C269.451 4.73882 269.592 4.75169 269.734 4.76456C270.261 4.7903 270.801 4.82891 271.328 4.8804C271.405 4.8804 271.495 4.8804 271.572 4.90614C272.177 4.95762 272.768 5.03485 273.36 5.12494C273.488 5.15068 273.617 5.17642 273.758 5.18929C274.311 5.27939 274.864 5.38236 275.417 5.49819C275.43 5.49819 275.443 5.49819 275.456 5.49819C275.468 5.49819 275.481 5.49819 275.494 5.51106C275.957 5.60116 276.407 5.70412 276.87 5.81996C277.217 5.91006 277.564 6.00015 277.924 6.09025C278.966 6.3734 279.994 6.70804 281.01 7.09416C281.46 7.24861 281.91 7.4288 282.36 7.62186C282.797 7.81492 283.248 8.00798 283.685 8.20105C284.572 8.60004 285.433 9.03764 286.282 9.50099C287.092 9.95147 287.889 10.4277 288.674 10.9296C289.394 11.4059 290.088 11.8949 290.769 12.4226C291.554 12.989 292.3 13.6068 293.032 14.2503C293.032 14.2503 293.037 14.2503 293.045 14.2503C293.701 14.8295 294.344 15.4344 294.974 16.0651C295.604 16.6829 296.208 17.3393 296.787 18.0085C297.083 18.3561 297.378 18.7036 297.661 19.0639C298.497 20.1065 299.294 21.2005 300.027 22.3331V22.3589C300.529 23.1182 300.992 23.8905 301.429 24.6885C301.647 25.1003 301.866 25.5251 302.084 25.9498C303.036 27.8289 303.936 29.7209 304.798 31.6129C305.158 32.3723 305.492 33.1317 305.813 33.9039C305.955 34.2257 306.096 34.5474 306.225 34.8563C306.456 35.3969 306.688 35.9375 306.906 36.4909C306.932 36.5424 306.958 36.6068 306.971 36.6582C306.971 36.6582 306.983 36.7355 307.009 36.7612C307.241 37.3275 307.472 37.8938 307.703 38.473C307.755 38.6017 307.806 38.7304 307.858 38.872C307.909 39.0136 307.961 39.1423 308.012 39.271C308.719 41.0729 309.401 42.8748 310.031 44.6896C310.365 45.5905 310.674 46.4915 310.969 47.4053C311.278 48.3191 311.574 49.2201 311.857 50.1339C312.114 50.9319 312.358 51.7299 312.602 52.5279C312.859 53.3902 313.104 54.2525 313.348 55.102C313.67 56.196 313.965 57.3029 314.261 58.3969C314.582 59.6196 314.891 60.8424 315.187 62.0651C315.444 63.0819 315.675 64.0986 315.894 65.1154C316.151 66.2352 316.395 67.3549 316.627 68.4747C316.678 68.6549 316.704 68.8351 316.743 69.0153C316.781 69.1955 316.807 69.3756 316.845 69.5558C317.128 70.9073 317.386 72.2587 317.63 73.6101C318.17 76.5189 318.646 79.4406 319.057 82.388C320.741 94.0875 321.577 105.967 321.937 117.976C322.027 120.974 322.092 123.973 322.13 126.998C322.143 128.401 322.156 129.817 322.156 131.232C322.387 180.025 316.948 230.131 329.498 276.067C310.918 272.772 292.775 269.387 274.98 265.912L275.044 265.937Z" fill="#FFFFFF"></path>
<path d="M155.054 96.4785C153.922 91.6906 148.432 90.3649 144.163 91.0986C142.993 91.2916 141.926 91.7421 140.781 91.9609C139.727 92.154 138.673 92.3084 137.606 92.3599C135.831 92.4757 134.005 92.3599 132.244 91.9223C129.171 91.1372 126.522 89.3095 124.31 87.0057C121.867 84.4701 119.874 81.5485 117.817 78.704C117.611 78.4209 117.277 78.0862 117.148 77.7773C117.431 78.4209 120.479 79.0902 121.019 79.2317C124.94 80.2614 128.952 80.3644 132.771 80.0168C134.97 79.8238 137.04 79.206 139.328 79.4248C147.712 80.1584 152.791 88.563 154.758 95.3974C154.861 95.7578 154.977 96.1181 155.054 96.4785Z" fill="#FFFFFF"></path>
<path d="M233.797 51.137C233.797 51.137 233.823 51.0726 233.835 51.0469C233.861 51.0597 233.887 51.0726 233.913 51.0984C233.913 51.137 233.925 51.1885 233.938 51.2271C233.938 51.1885 233.938 51.1498 233.925 51.0984C233.9 51.0984 233.861 51.0726 233.835 51.0469C233.835 51.0726 233.81 51.1112 233.797 51.137C233.861 51.2142 233.913 51.2786 233.964 51.3558C233.913 51.2914 233.861 51.2142 233.81 51.1498L233.797 51.137Z" fill="#FFFFFF"></path>
<path d="M161.357 38.6534C161.357 38.6534 161.42 38.679 161.446 38.6918C161.408 38.6918 161.369 38.6662 161.344 38.6406C161.344 38.6406 161.344 38.6662 161.344 38.679C161.344 38.679 161.344 38.6662 161.344 38.6534H161.357Z" fill="#FFFFFF"></path>
<path d="M175.694 64.5707C175.694 64.5707 175.63 64.5451 175.617 64.5195C175.643 64.5323 175.668 64.5451 175.694 64.5579V64.5707Z" fill="#FFFFFF"></path>
<path d="M161.499 38.7927C161.499 38.7927 161.474 38.7287 161.461 38.7031C161.461 38.7031 161.487 38.7671 161.499 38.7927Z" fill="#FFFFFF"></path>
<path d="M161.406 38.793C161.406 38.793 161.509 38.8826 161.547 38.9338C161.496 38.8954 161.457 38.8442 161.406 38.8058V38.793Z" fill="#FFFFFF"></path>
<path d="M219.765 25.4465C219.688 25.3822 219.624 25.3178 219.547 25.2406C219.547 25.2406 219.547 25.2277 219.547 25.2148V25.2406C219.624 25.3049 219.688 25.3693 219.765 25.4465Z" fill="#FFFFFF"></path>
<path d="M175.742 64.8309C175.742 64.7666 175.716 64.7022 175.703 64.625C175.703 64.6894 175.729 64.7537 175.742 64.8181V64.8309Z" fill="#FFFFFF"></path>
<path d="M145.705 69.4541C143.737 64.8593 137.797 63.6365 133.477 64.3831C132.306 64.5761 131.265 65.0137 130.108 65.2325C129.053 65.4256 127.973 65.58 126.88 65.6573C125.055 65.7731 123.139 65.6959 121.223 65.2711C117.893 64.5632 114.82 62.8257 112.068 60.6505C109.059 58.2437 106.436 55.4765 103.71 52.7736C103.453 52.5034 103.029 52.1816 102.836 51.8984C103.26 52.5034 106.578 53.1083 107.169 53.2499C111.464 54.1894 115.681 54.2409 119.59 53.8805C121.853 53.6746 123.91 53.0568 126.328 53.237C135.238 53.8677 142.066 61.8475 145.216 68.4116C145.383 68.7591 145.55 69.1066 145.705 69.4541Z" fill="#FFFFFF"></path>
<path d="M161.454 38.6899C161.454 38.6899 161.377 38.6641 161.352 38.6384C161.352 38.574 161.352 38.5097 161.352 38.4453C161.403 38.5225 161.429 38.6126 161.467 38.6899H161.454Z" fill="#FFFFFF"></path>
<path d="M161.589 55.9375C160.47 57.0572 159.056 57.9196 157.5 58.576C156.561 58.975 155.571 59.2968 154.568 59.5799C153.45 59.8888 152.228 59.966 151.122 60.3007C147.021 61.5105 143.549 64.9084 145.709 69.4646C145.555 69.1171 145.388 68.7696 145.246 68.4221C142.572 61.7422 139.666 52.8485 145.503 48.8071C147.124 47.6873 149.322 47.3141 151.238 46.5547C154.555 45.2419 157.641 43.5044 159.712 41.0847C159.956 40.8015 161.19 39.5144 161.345 38.7422C161.37 38.7679 161.383 38.7808 161.409 38.8065C161.46 38.8452 161.512 38.8966 161.55 38.9481C161.602 39.0897 161.64 39.2313 161.692 39.3471C162.875 42.4103 163.929 45.5379 164.109 48.6012C164.263 51.3812 163.53 53.994 161.589 55.9375Z" fill="#FFFFFF"></path>
<path d="M203.918 55.9639C201.964 51.3691 196.01 50.1464 191.703 50.8929C190.52 51.0859 189.491 51.5235 188.334 51.7423C187.28 51.9354 186.2 52.0898 185.094 52.1671C183.268 52.2958 181.352 52.2057 179.449 51.7809C176.106 51.0731 173.033 49.3355 170.294 47.1603C167.286 44.7535 164.65 41.9863 161.937 39.2835C161.821 39.1676 161.692 39.0518 161.551 38.936C161.551 38.936 161.512 38.833 161.5 38.7815C161.487 38.7558 161.474 38.7171 161.461 38.6914C162.464 39.1934 164.881 39.6438 165.395 39.7597C169.69 40.6992 173.895 40.7507 177.816 40.3903C180.079 40.1844 182.137 39.5666 184.554 39.7468C193.465 40.3775 200.292 48.3573 203.429 54.9343C203.519 55.1016 203.609 55.2689 203.687 55.4491C203.764 55.6164 203.841 55.7966 203.918 55.9639Z" fill="#FFFFFF"></path>
<path d="M161.358 38.6379V38.6765C161.358 38.6765 161.358 38.7023 161.358 38.728C161.243 38.6122 161.14 38.5092 161.062 38.4062C161.114 38.4835 161.23 38.5607 161.371 38.6379H161.358Z" fill="#FFFFFF"></path>
<path d="M161.544 38.9355C161.532 38.884 161.506 38.8325 161.48 38.7939C161.467 38.7682 161.454 38.7296 161.442 38.691C161.416 38.6781 161.377 38.6652 161.352 38.6523C161.352 38.6523 161.352 38.6652 161.352 38.6781C161.352 38.691 161.352 38.7167 161.352 38.7296C161.377 38.7553 161.39 38.7682 161.416 38.7939C161.467 38.8325 161.506 38.884 161.557 38.9226L161.544 38.9355Z" fill="#FFFFFF"></path>
<path d="M219.805 42.4492C218.687 43.569 217.259 44.4313 215.703 45.0877C214.778 45.4867 213.788 45.8085 212.772 46.0916C211.653 46.4005 210.445 46.4777 209.339 46.8124C205.224 48.0222 201.765 51.4201 203.913 55.9764C203.836 55.809 203.758 55.6288 203.681 55.4615C203.617 55.2813 203.54 55.114 203.463 54.9338C200.788 48.2539 197.869 39.3602 203.72 35.3188C205.34 34.1991 207.526 33.8258 209.454 33.0664C212.772 31.7536 215.858 30.0161 217.928 27.5964C218.159 27.3132 219.407 26.0262 219.548 25.2539C219.625 25.3183 219.689 25.3826 219.767 25.4598C219.805 25.6014 219.857 25.743 219.895 25.8588C221.078 28.9221 222.145 32.0625 222.312 35.1129C222.48 37.893 221.734 40.5186 219.805 42.4492Z" fill="#FFFFFF"></path>
<path d="M219.67 25.203C219.67 25.203 219.606 25.1772 219.58 25.1644C219.58 25.0485 219.58 24.9456 219.516 24.8555C219.58 24.9584 219.631 25.0871 219.67 25.203Z" fill="#FFFFFF"></path>
<path d="M262.134 42.4757C260.18 37.8808 254.226 36.6581 249.906 37.4046C248.736 37.5976 247.695 38.0352 246.537 38.254C245.483 38.4471 244.416 38.6016 243.31 38.6788C241.484 38.8075 239.568 38.7174 237.652 38.2927C234.322 37.5848 231.249 35.8472 228.51 33.6721C225.489 31.2652 222.866 28.498 220.153 25.7952C220.037 25.6793 219.908 25.5635 219.767 25.4477C219.741 25.3576 219.703 25.2932 219.664 25.2031C220.667 25.7051 223.097 26.1556 223.599 26.2714C227.893 27.211 232.111 27.2624 236.032 26.9021C238.295 26.6961 240.34 26.0783 242.77 26.2585C251.668 26.8892 258.508 34.869 261.645 41.446C261.813 41.7806 261.98 42.1281 262.134 42.4757Z" fill="#FFFFFF"></path>
<path d="M219.577 25.1781C219.577 25.1781 219.577 25.2039 219.577 25.2296C219.577 25.2296 219.564 25.2296 219.564 25.2554C219.448 25.1395 219.346 25.0366 219.281 24.9336C219.333 25.0108 219.448 25.088 219.59 25.1781H219.577Z" fill="#FFFFFF"></path>
<path d="M219.547 25.2413C219.611 25.3056 219.688 25.37 219.765 25.4472C219.74 25.37 219.701 25.2928 219.663 25.2027C219.637 25.1898 219.598 25.1769 219.573 25.1641C219.573 25.1769 219.573 25.2027 219.573 25.2155V25.2413H219.547Z" fill="#FFFFFF"></path>
<path d="M278.017 28.9589C276.899 30.0787 275.484 30.941 273.929 31.5974C272.99 31.9964 272 32.3182 270.997 32.6013C269.878 32.9102 268.67 33.0003 267.564 33.3221C263.449 34.532 259.978 37.9427 262.138 42.4861C261.971 42.1386 261.829 41.7911 261.688 41.4435C259.001 34.7636 256.095 25.8699 261.932 21.8285C263.552 20.7217 265.751 20.3484 267.667 19.5762C270.984 18.2762 274.07 16.5258 276.14 14.1061C276.423 13.7843 277.979 12.1884 277.786 11.4805C277.825 11.5448 277.863 11.622 277.889 11.6993C277.94 11.8151 277.979 11.9309 278.005 12.0468C278.018 12.0854 278.03 12.124 278.043 12.1626C278.069 12.2398 278.095 12.3171 278.12 12.3814C279.303 15.4318 280.37 18.5722 280.538 21.6226C280.692 24.4027 279.959 27.0283 278.017 28.9589Z" fill="#FFFFFF"></path>
<path d="M175.617 64.5198C175.643 64.404 175.656 64.301 175.617 64.2109C175.656 64.3139 175.681 64.4426 175.694 64.5713C175.669 64.5713 175.63 64.5456 175.617 64.5198Z" fill="#FFFFFF"></path>
<path d="M176.335 74.9473C175.975 77.8561 174.805 80.559 172.606 82.5668C171.333 83.7123 169.829 84.6004 168.222 85.2697C167.257 85.6815 166.255 86.0162 165.226 86.2864C164.107 86.6082 162.924 86.6854 161.806 87.0072C161.381 87.1359 160.97 87.2775 160.558 87.4577C160.353 87.5349 160.147 87.625 159.941 87.728C159.62 87.8824 159.298 88.0497 158.99 88.2299C158.745 88.3715 158.501 88.5388 158.27 88.7061C158.064 88.8477 157.858 88.9893 157.665 89.1695C157.575 89.221 157.485 89.2982 157.395 89.3883C157.254 89.5041 157.113 89.6457 156.971 89.7744C156.508 90.2249 156.11 90.7269 155.788 91.2546C155.724 91.3446 155.672 91.4219 155.634 91.512C155.454 91.8209 155.3 92.1555 155.184 92.4901C155.145 92.5674 155.12 92.6446 155.107 92.7218C154.991 93.0693 154.901 93.4297 154.862 93.8158C154.837 93.8931 154.837 93.9703 154.837 94.0475C154.798 94.2406 154.798 94.4336 154.798 94.6267C154.798 94.8455 154.798 95.0643 154.837 95.2831C154.849 95.4504 154.875 95.6306 154.901 95.7979C154.875 95.7336 154.862 95.6692 154.849 95.6049C154.824 95.5405 154.811 95.4633 154.798 95.3989C153.294 88.4487 152.136 79.1432 158.501 74.9859C160.263 73.8404 162.423 73.4672 164.403 72.695C167.836 71.3564 171.115 69.5674 173.558 67.0576C173.854 66.7744 175.281 65.4359 175.577 64.625C175.628 64.7022 175.679 64.7666 175.744 64.8309C175.744 64.9983 175.769 65.1398 175.782 65.2685C176.31 68.4862 176.734 71.7554 176.335 74.9473Z" fill="#FFFFFF"></path>
<path d="M213.274 82.9938C213.223 82.775 213.159 82.5562 213.081 82.3503C213.03 82.1701 212.966 82.0028 212.876 81.8355C212.824 81.6939 212.76 81.5523 212.67 81.4107C212.618 81.282 212.541 81.1662 212.464 81.0375C212.348 80.8573 212.233 80.69 212.104 80.5227C212.001 80.3811 211.886 80.2524 211.757 80.1237C211.757 80.1108 211.757 80.0851 211.718 80.0722C211.603 79.9435 211.474 79.8148 211.346 79.7118C211.23 79.5831 211.114 79.493 210.998 79.4029C210.703 79.1584 210.381 78.9396 210.047 78.7594C209.635 78.5148 209.211 78.3089 208.761 78.1416C208.53 78.0515 208.298 77.9743 208.067 77.9099C207.835 77.8327 207.591 77.7812 207.36 77.7168C207.128 77.6654 206.897 77.6267 206.678 77.5881C206.305 77.5238 205.932 77.4852 205.559 77.4594C205.431 77.4594 205.289 77.4337 205.161 77.4337C204.968 77.4337 204.788 77.4337 204.595 77.4337C204.222 77.4337 203.849 77.4337 203.476 77.4852C203.104 77.5238 202.731 77.5624 202.371 77.6267C201.213 77.8198 200.146 78.2703 198.989 78.4891C197.947 78.6821 196.893 78.8366 195.813 78.8881C194.039 79.0039 192.226 78.8881 190.451 78.4505C187.378 77.6654 184.742 75.8377 182.518 73.5339C180.075 70.9983 178.095 68.0767 176.037 65.2322C175.947 65.1164 175.845 64.9877 175.742 64.859C175.729 64.7818 175.716 64.7174 175.703 64.653C175.703 64.653 175.703 64.6144 175.703 64.6016C176.565 65.1421 178.789 65.6441 179.252 65.7599C183.161 66.7896 187.185 66.8926 190.991 66.545C193.203 66.352 195.273 65.7342 197.562 65.953C205.945 66.6866 211.024 75.0912 212.991 81.9256L213.146 82.4661V82.4919C213.146 82.4919 213.184 82.5691 213.184 82.6077C213.21 82.7364 213.249 82.878 213.287 83.0067L213.274 82.9938Z" fill="#FFFFFF"></path>
<path d="M175.617 64.5219C175.617 64.5219 175.591 64.5862 175.578 64.612C175.488 64.4961 175.411 64.3803 175.359 64.2773C175.398 64.3546 175.488 64.4447 175.617 64.5219Z" fill="#FFFFFF"></path>
<path d="M175.74 64.8339C175.74 64.7696 175.715 64.7052 175.702 64.6409C175.702 64.628 175.702 64.6023 175.702 64.5894C175.676 64.5765 175.65 64.5637 175.625 64.5508C175.625 64.5508 175.599 64.6023 175.586 64.628C175.637 64.7052 175.689 64.7696 175.753 64.8468L175.74 64.8339Z" fill="#FFFFFF"></path>
<path d="M234.56 61.459C234.2 64.3678 233.03 67.0707 230.819 69.0785C229.559 70.224 228.041 71.1121 226.434 71.7814C225.47 72.1932 224.467 72.5279 223.451 72.7982C222.332 73.1199 221.15 73.1972 220.031 73.5189C219.787 73.5961 219.529 73.6734 219.285 73.7763C219.131 73.815 218.977 73.8793 218.822 73.9437C218.565 74.0466 218.308 74.1625 218.051 74.2912C217.626 74.4971 217.215 74.7288 216.816 74.9862C216.521 75.1792 216.238 75.3852 215.968 75.604C215.685 75.8099 215.428 76.0416 215.183 76.299C215.016 76.4535 214.862 76.6208 214.708 76.801C214.258 77.3158 213.885 77.8821 213.602 78.487C213.409 78.886 213.268 79.3108 213.165 79.7484C213.113 79.9929 213.075 80.2246 213.049 80.482C213.01 80.8038 213.01 81.1384 213.023 81.473C213.023 81.5889 213.036 81.7047 213.049 81.8077C213.075 82.0394 213.113 82.271 213.165 82.5156C213.165 82.4898 213.165 82.477 213.139 82.4641C213.1 82.271 213.062 82.0908 213.01 81.9106C211.519 74.9604 210.349 65.6549 216.726 61.4977C218.488 60.3522 220.648 59.9789 222.628 59.2067C226.048 57.8681 229.34 56.0791 231.783 53.5693C232.066 53.2861 233.506 51.9476 233.789 51.1367C233.84 51.2139 233.905 51.2783 233.956 51.3427C233.956 51.51 233.982 51.6515 234.008 51.7803C234.535 54.9979 234.946 58.28 234.56 61.459Z" fill="#FFFFFF"></path>
<path d="M233.91 51.0869C233.91 51.0869 233.846 51.0612 233.82 51.0355C233.859 50.9196 233.859 50.8167 233.82 50.7266C233.872 50.8424 233.885 50.9582 233.91 51.0869Z" fill="#FFFFFF"></path>
<path d="M271.498 69.504C270.354 64.7032 264.876 63.3775 260.594 64.1111C259.437 64.3171 258.357 64.7547 257.213 64.9735C256.171 65.1665 255.104 65.321 254.037 65.3725C252.262 65.4883 250.449 65.3725 248.675 64.9348C245.602 64.1497 242.966 62.3221 240.742 60.0182C238.299 57.4827 236.319 54.561 234.248 51.7166C234.171 51.6008 234.055 51.4721 233.953 51.3434C233.953 51.3434 233.953 51.2533 233.927 51.2146C233.927 51.176 233.914 51.1245 233.914 51.0859C234.763 51.6265 237 52.1285 237.45 52.2443C241.372 53.274 245.383 53.3769 249.202 53.0294C251.401 52.8364 253.484 52.2186 255.773 52.4374C264.143 53.171 269.222 61.5756 271.189 68.4099C271.305 68.7703 271.408 69.1307 271.498 69.504Z" fill="#FFFFFF"></path>
<path d="M233.822 51.0336C233.822 51.0336 233.797 51.098 233.784 51.1237C233.707 51.0079 233.63 50.892 233.578 50.7891C233.617 50.8663 233.707 50.9564 233.822 51.0336Z" fill="#FFFFFF"></path>
<path d="M233.835 51.048C233.835 51.048 233.81 51.1124 233.797 51.1381C233.848 51.2025 233.9 51.2797 233.951 51.3441C233.951 51.2926 233.938 51.254 233.925 51.2153C233.925 51.1767 233.913 51.1381 233.9 51.0866C233.874 51.0738 233.835 51.0609 233.823 51.0352L233.835 51.048Z" fill="#FFFFFF"></path>
<path d="M292.768 47.9725C292.408 50.8684 291.25 53.5712 289.039 55.5791C287.766 56.7246 286.262 57.6127 284.654 58.2819C283.69 58.6938 282.687 59.0284 281.671 59.3116C280.54 59.6205 279.37 59.6977 278.238 60.0195C276.451 60.5472 274.715 61.4996 273.404 62.7996C273.236 62.954 273.082 63.1213 272.928 63.3015C272.658 63.6233 272.413 63.9451 272.208 64.2926C272.118 64.4341 272.041 64.5628 271.976 64.7044C271.951 64.7302 271.938 64.7688 271.925 64.8074C271.835 64.9747 271.758 65.142 271.693 65.3094C271.616 65.4895 271.552 65.6697 271.501 65.8628C271.462 65.9529 271.436 66.0559 271.423 66.1459C271.385 66.236 271.372 66.339 271.359 66.4291C271.321 66.5707 271.295 66.7251 271.282 66.8796C271.282 66.9311 271.282 66.9825 271.282 67.034C271.256 67.2271 271.243 67.433 271.243 67.639C271.243 67.8706 271.243 68.0894 271.282 68.3211C271.308 68.5528 271.346 68.7845 271.398 69.029C271.333 68.8231 271.282 68.6171 271.243 68.4112C269.739 61.461 268.582 52.1555 274.946 47.9982C276.721 46.8527 278.881 46.4795 280.861 45.7072C284.281 44.3687 287.56 42.5796 290.016 40.0698C290.35 39.7352 292.343 37.8818 292.06 37.2383C292.202 37.5472 292.176 37.9719 292.24 38.2808C292.755 41.4985 293.179 44.7805 292.781 47.9725H292.768Z" fill="#FFFFFF"></path>
<path d="M290.795 12.4355C291.567 13.0147 292.325 13.6325 293.058 14.2632C292.325 13.6196 291.579 13.0018 290.795 12.4355ZM293.058 14.2632C292.325 13.6196 291.579 13.0018 290.795 12.4355C291.567 13.0147 292.325 13.6325 293.058 14.2632ZM321.667 72.4904C321.5 71.6023 321.333 70.7271 321.166 69.839C321.101 69.5558 321.05 69.2727 320.999 68.9767C320.857 68.3331 320.729 67.6767 320.587 67.0332C320.407 66.158 320.227 65.2956 320.021 64.4333C319.816 63.468 319.584 62.5027 319.34 61.5374C319.108 60.5077 318.851 59.4781 318.568 58.4484C318.337 57.5088 318.093 56.5693 317.823 55.6297C317.591 54.7416 317.334 53.8664 317.077 52.9912C316.884 52.3348 316.691 51.6655 316.485 51.0091C316.228 50.1339 315.945 49.2587 315.663 48.3964C315.444 47.6756 315.213 46.9548 314.955 46.2341C314.724 45.5133 314.48 44.7926 314.21 44.0718C314.12 43.8015 314.03 43.5312 313.927 43.2609C313.67 42.5144 313.4 41.7679 313.117 41.0214C312.937 40.5323 312.757 40.0432 312.564 39.567C312.319 38.9364 312.075 38.3057 311.818 37.675C311.805 37.6364 311.792 37.6107 311.779 37.5721L311.278 36.3236C311.201 36.1434 311.124 35.9504 311.047 35.7573C310.944 35.5256 310.841 35.2811 310.738 35.0365C310.648 34.8049 310.545 34.5603 310.429 34.3158C310.391 34.1999 310.339 34.0841 310.275 33.9554C310.146 33.6207 309.992 33.2861 309.838 32.9386C309.568 32.2822 309.272 31.6387 308.964 30.9822C308.565 30.0813 308.141 29.1803 307.703 28.2794C307.382 27.5586 307.022 26.8379 306.675 26.13C306.186 25.1389 305.685 24.1479 305.17 23.1697C304.875 22.5777 304.553 21.9985 304.232 21.4064C303.923 20.8272 303.615 20.2609 303.293 19.6946C303.255 19.6174 303.216 19.553 303.177 19.4758C303.075 19.2827 302.959 19.0897 302.843 18.9095C301.146 15.975 299.101 13.3493 296.774 11.0455C296.221 10.5049 295.655 9.96434 295.064 9.46238C294.46 8.92181 293.83 8.40698 293.187 7.91789C287.324 3.426 280.239 0.710279 272.833 0.131096C271.714 0.0281302 270.595 -0.010482 269.464 0.0023887C268.448 0.0023887 267.419 0.0538716 266.391 0.143967C266.031 0.169708 265.671 0.20832 265.311 0.246933C263.858 0.414252 262.418 0.658796 260.977 0.993435L84.6942 41.8451L83.6784 42.0768C83.0612 42.2184 82.5083 42.4629 82.0197 42.7847C81.7754 42.9392 81.5439 43.1194 81.3382 43.3124C79.7953 44.7539 79.2552 47.0578 80.1039 49.0785C80.271 49.4646 80.4896 49.8379 80.7596 50.1983C82.2511 52.1675 83.6912 54.1496 85.0542 56.1445C85.4142 56.6594 85.7742 57.1871 86.1085 57.7148C86.16 57.7662 86.1857 57.8049 86.2114 57.8563C86.5971 58.4355 86.9829 59.0018 87.3429 59.581C88.1787 60.8552 88.9887 62.1423 89.7602 63.4294C90.9303 65.3471 92.0361 67.2777 93.1033 69.2212C94.9677 72.6062 96.665 76.0298 98.2336 79.4792C98.4651 79.994 98.6965 80.496 98.9151 81.0108C99.0437 81.294 99.1723 81.59 99.3009 81.886C99.4294 82.1692 99.558 82.4523 99.6866 82.7483C99.7123 82.8256 99.7509 82.9028 99.7766 82.9929C100.008 83.5077 100.227 84.0354 100.445 84.5631C100.51 84.7047 100.561 84.8463 100.612 84.9878C100.805 85.4512 100.998 85.9017 101.165 86.365H101.178C101.255 86.5709 101.345 86.7897 101.422 86.9957C101.422 86.9957 101.422 87.0043 101.422 87.0214C101.911 88.2441 102.374 89.454 102.811 90.6896C103.107 91.4747 103.39 92.2598 103.66 93.0449C103.827 93.5083 103.994 93.9845 104.148 94.4607C104.457 95.3359 104.74 96.224 105.023 97.0992C105.241 97.7814 105.46 98.4635 105.666 99.1457C105.884 99.8278 106.09 100.51 106.283 101.192C106.694 102.556 107.08 103.921 107.44 105.298C108.199 108.078 108.88 110.871 109.51 113.677C109.652 114.333 109.793 114.99 109.934 115.659C110.346 117.602 110.732 119.546 111.092 121.502L115.09 120.575L317.694 73.6359L321.706 72.7092C321.706 72.632 321.68 72.5676 321.667 72.4904ZM114.319 116.521C114.023 115.041 113.702 113.574 113.38 112.106C113.072 110.807 112.763 109.494 112.442 108.207C111.876 105.903 111.259 103.599 110.603 101.321C110.474 100.87 110.346 100.42 110.204 99.9694C109.6 97.9487 108.97 95.928 108.289 93.9201C108.019 93.135 107.749 92.3628 107.479 91.5777C107.273 90.9856 107.054 90.3936 106.836 89.8144C106.617 89.2094 106.398 88.6174 106.18 88.0253C105.846 87.163 105.511 86.3007 105.164 85.4383C104.946 84.8849 104.727 84.3443 104.495 83.7909C104.47 83.7394 104.457 83.6879 104.431 83.6364C104.174 83.0186 103.93 82.4266 103.673 81.8217C102.528 79.1574 101.307 76.506 100.008 73.8804C99.6866 73.2369 99.3523 72.5805 99.018 71.9241C96.9736 67.9341 94.7363 64.0086 92.2804 60.1216C91.9589 59.6196 91.6503 59.1305 91.3289 58.6415C91.2775 58.5642 91.2389 58.487 91.1875 58.4227C90.866 57.9207 90.5317 57.4187 90.2103 56.9297C90.1717 56.8653 90.1202 56.7881 90.0817 56.7237C90.0302 56.6594 89.9917 56.5821 89.9402 56.5178C89.6573 56.0802 89.3616 55.6555 89.053 55.2178C88.5001 54.3941 87.9215 53.5704 87.33 52.7467C87.0086 52.2962 86.7643 51.8071 86.61 51.318C86.5714 51.1893 86.5329 51.0606 86.5071 50.9448C86.4686 50.7388 86.43 50.5458 86.4043 50.3527C86.3914 50.2626 86.3786 50.1596 86.3914 50.0696C86.3528 49.7092 86.3657 49.3488 86.43 48.9884C86.4814 48.6924 86.5586 48.4092 86.6486 48.1261C86.7386 47.8429 86.8414 47.5855 86.9829 47.341C87.1758 46.9677 87.4201 46.6202 87.7158 46.3113C87.7929 46.2083 87.8958 46.1054 88.0115 46.0024C88.1015 45.8994 88.2173 45.8093 88.333 45.7192C88.4487 45.6291 88.5644 45.5391 88.693 45.4618C88.9373 45.2945 89.1945 45.1529 89.4773 45.0371C89.7474 44.9213 90.0431 44.8183 90.3517 44.7539L91.226 44.548L258.959 5.69125C259.679 5.52393 260.412 5.38236 261.132 5.25365C261.865 5.12494 262.585 5.02198 263.305 4.94475C264.758 4.77743 266.211 4.70021 267.651 4.70021C268.204 4.70021 268.769 4.71308 269.322 4.73882C269.451 4.73882 269.592 4.75169 269.734 4.76456C270.261 4.7903 270.801 4.82891 271.328 4.8804C271.405 4.8804 271.495 4.8804 271.572 4.90614C272.177 4.95762 272.768 5.03485 273.36 5.12494C273.488 5.15068 273.617 5.17642 273.758 5.1893C274.311 5.27939 274.864 5.38236 275.417 5.49819C275.43 5.49819 275.443 5.49819 275.456 5.49819C275.468 5.49819 275.481 5.49819 275.494 5.51106C275.957 5.60116 276.407 5.70412 276.87 5.81996C277.217 5.91006 277.564 6.00015 277.924 6.09025C278.966 6.38627 279.994 6.72091 281.01 7.09416C281.46 7.26148 281.91 7.44167 282.36 7.62186C282.797 7.81492 283.248 8.00799 283.685 8.20105C284.559 8.61291 285.408 9.05052 286.256 9.51386C287.066 9.95147 287.864 10.4277 288.648 10.9296C289.368 11.4059 290.075 11.8949 290.769 12.4226C291.541 13.0018 292.3 13.6196 293.032 14.2503C293.032 14.2503 293.037 14.2503 293.045 14.2503C293.701 14.8295 294.344 15.4344 294.974 16.0651C295.604 16.6829 296.208 17.3393 296.787 18.0085C297.083 18.3561 297.378 18.7036 297.661 19.0639C298.497 20.1065 299.294 21.2005 300.027 22.3331V22.3589C300.529 23.1182 300.992 23.8905 301.429 24.6885C301.647 25.1003 301.866 25.5251 302.084 25.9498C303.036 27.8289 303.936 29.7209 304.798 31.6129C305.145 32.3852 305.479 33.1445 305.813 33.9039C305.955 34.2257 306.096 34.5474 306.225 34.8563C306.456 35.4098 306.688 35.9504 306.919 36.4909C306.945 36.5424 306.971 36.6068 306.983 36.6582C306.983 36.6582 306.996 36.7355 307.022 36.7612C307.253 37.3404 307.485 37.9067 307.703 38.473C307.768 38.6146 307.819 38.7433 307.871 38.872C307.922 39.0136 307.973 39.1423 308.025 39.271C308.732 41.0729 309.414 42.8748 310.044 44.6896C310.365 45.5905 310.674 46.4915 310.982 47.4053C311.291 48.3191 311.587 49.2201 311.869 50.1339C312.127 50.9319 312.371 51.7299 312.615 52.5279C312.872 53.3902 313.117 54.2525 313.361 55.102C313.682 56.196 313.978 57.3029 314.274 58.3969C314.595 59.6196 314.904 60.8424 315.2 62.0651C315.457 63.0819 315.688 64.0987 315.907 65.1154C316.177 66.2352 316.421 67.3549 316.64 68.4747C316.691 68.6549 316.717 68.8351 316.755 69.0153C316.794 69.1955 316.833 69.3757 316.871 69.5558L114.28 116.495L114.319 116.521ZM290.795 12.4355C291.567 13.0147 292.325 13.6325 293.058 14.2632C292.325 13.6196 291.579 13.0018 290.795 12.4355ZM290.795 12.4355C291.567 13.0147 292.325 13.6325 293.058 14.2632C292.325 13.6196 291.579 13.0018 290.795 12.4355Z" fill="#FFFFFF"></path>
<path d="M323.918 130.858C323.353 130.987 322.787 131.116 322.221 131.257C254.691 146.882 187.148 162.533 119.618 178.184C118.949 178.338 118.293 178.493 117.625 178.647C117.625 177.244 117.599 175.829 117.586 174.426C118.255 174.271 118.923 174.117 119.592 173.962C187.122 158.312 254.665 142.661 322.195 127.023C322.761 126.894 323.314 126.765 323.88 126.637C323.893 128.04 323.906 129.443 323.918 130.858Z" fill="#FFFFFF"></path>
</svg>