<svg width="272" height="272" viewBox="0 0 272 272" fill="none" xmlns="http://www.w3.org/2000/svg">
<path d="M136 272C211.111 272 272 211.111 272 136C272 60.8893 211.111 0 136 0C60.8893 0 0 60.8893 0 136C0 211.111 60.8893 272 136 272Z" fill="#FFFFFF"></path>
<path d="M236.98 192.003C216.26 227.903 178.664 247.957 140 248V24.0001C159.033 23.9787 178.322 28.7947 195.989 38.9925C249.544 69.9277 267.904 138.429 236.98 192.003Z" fill="#141414"></path>
<path d="M141.299 247.25C181.097 246.444 212.341 195.488 211.085 133.436C209.828 71.3845 176.547 21.735 136.749 22.5409C96.9503 23.3467 65.7061 74.3028 66.9625 136.354C68.219 198.406 101.5 248.055 141.299 247.25Z" fill="#141414"></path>
</svg>