<svg width="284" height="284" viewBox="0 0 284 284" fill="none" xmlns="http://www.w3.org/2000/svg">
<path d="M141.9 0C113.835 0 86.3999 8.32238 63.0645 23.9146C39.7292 39.5067 21.5417 61.6683 10.8016 87.5972C0.0615015 113.526 -2.74862 142.058 2.72663 169.583C8.20187 197.109 21.7165 222.393 41.5616 242.238C61.4067 262.083 86.6907 275.598 114.217 281.073C141.743 286.548 170.274 283.739 196.203 272.999C222.132 262.258 244.293 244.071 259.886 220.735C275.478 197.4 283.8 169.965 283.8 141.9C283.8 104.266 268.85 68.1729 242.239 41.5615C215.627 14.9501 179.534 0 141.9 0ZM175.479 17.3242C183.992 19.6124 192.246 22.7725 200.11 26.7549C199.259 34.4391 200.147 42.2165 202.708 49.5112C205.268 56.806 209.436 63.4317 214.903 68.8984C220.37 74.3652 226.995 78.5331 234.29 81.0938C241.585 83.6544 249.362 84.5423 257.046 83.6919C261.029 91.5558 264.19 99.8102 266.478 108.323C253.997 110.801 241.097 110.164 228.92 106.468C216.743 102.772 205.666 96.1313 196.668 87.1333C187.67 78.1353 181.029 67.0574 177.333 54.8809C173.637 42.7043 173 29.8047 175.478 17.3232L175.479 17.3242ZM109.807 32.4048C109.806 43.8476 107.267 55.148 102.375 65.4922C97.4827 75.8364 90.3578 84.9672 81.5132 92.2275C72.6687 99.4879 62.3244 104.697 51.2252 107.48C40.1259 110.264 28.5478 110.552 17.324 108.323C19.6121 99.8104 22.7724 91.556 26.7549 83.6919C34.4398 84.5433 42.2178 83.6564 49.5135 81.0962C56.8092 78.536 63.4358 74.3682 68.9034 68.9014C74.371 63.4345 78.5397 56.8085 81.1009 49.5132C83.6621 42.2179 84.5504 34.4398 83.7 26.7549C91.5641 22.7724 99.8183 19.6124 108.331 17.3242C109.315 22.2913 109.81 27.3422 109.81 32.4058L109.807 32.4048ZM108.032 266.398C99.5161 264.088 91.2615 260.905 83.4 256.898C84.2258 249.248 83.3294 241.51 80.7764 234.252C78.2234 226.993 74.0787 220.398 68.6458 214.95C63.2129 209.501 56.6296 205.337 49.3785 202.764C42.1274 200.19 34.3923 199.271 26.7401 200.075C22.755 192.203 19.5944 183.939 17.3089 175.417C29.7682 172.994 42.6322 173.673 54.7676 177.392C66.9031 181.111 77.9378 187.757 86.9002 196.745C95.8626 205.732 102.478 216.786 106.163 228.932C109.848 241.078 110.49 253.944 108.032 266.396V266.398ZM133.505 270.621C136.622 254.125 135.669 237.117 130.73 221.072C125.791 205.027 117.013 190.427 105.159 178.54C93.3042 166.652 78.73 157.834 62.6986 152.85C46.6671 147.866 29.6621 146.866 13.157 149.937C12.994 147.278 12.9009 144.6 12.9009 141.9C12.9009 139.182 12.995 136.486 13.161 133.809C29.6839 136.931 46.7193 135.971 62.7869 131.012C78.8545 126.054 93.4682 117.247 105.358 105.357C117.249 93.4668 126.056 78.8531 131.014 62.7856C135.973 46.7181 136.934 29.6831 133.812 13.1602C136.488 12.9942 139.183 12.8999 141.901 12.8999C144.619 12.8999 147.316 12.9942 149.993 13.1602C146.871 29.6829 147.832 46.7178 152.79 62.7852C157.749 78.8525 166.555 93.4663 178.445 105.356C190.335 117.247 204.949 126.053 221.016 131.012C237.083 135.971 254.118 136.931 270.641 133.81C270.807 136.486 270.901 139.182 270.901 141.9C270.901 144.618 270.807 147.314 270.641 149.99C254.118 146.868 237.083 147.828 221.015 152.786C204.948 157.745 190.334 166.552 178.444 178.442C166.554 190.332 157.747 204.946 152.788 221.014C147.83 237.082 146.871 254.117 149.993 270.64C147.316 270.806 144.619 270.9 141.901 270.9C139.082 270.9 136.285 270.8 133.508 270.622L133.505 270.621ZM251.4 199.8C244.146 199.797 236.973 201.324 230.35 204.281C223.726 207.238 217.801 211.559 212.961 216.962C208.121 222.365 204.475 228.728 202.261 235.636C200.047 242.543 199.315 249.84 200.113 257.05C192.249 261.032 183.995 264.193 175.482 266.481C173.004 253.999 173.641 241.099 177.337 228.923C181.033 216.746 187.674 205.669 196.672 196.671C205.67 187.673 216.748 181.032 228.924 177.336C241.101 173.64 254.001 173.003 266.482 175.481C264.194 183.994 261.033 192.248 257.05 200.112C255.174 199.905 253.288 199.801 251.4 199.8Z" fill="white"></path>
<path d="M185.685 141.901C161.361 146.768 146.766 161.362 141.901 185.685C137.065 161.386 122.471 146.792 98.1172 141.901C122.542 136.986 137.086 122.341 141.901 98.1172C146.765 122.44 161.36 137.034 185.685 141.901Z" fill="white"></path>
</svg>