<svg width="298" height="298" viewBox="0 0 298 298" fill="none" xmlns="http://www.w3.org/2000/svg">
<path d="M148.584 295.066C151.168 271.552 155.084 244.531 165.293 231.48C154.735 212.952 150.455 173.673 148.584 142.031C146.713 173.689 142.433 212.952 131.875 231.48C142.1 244.531 146.016 271.537 148.584 295.066V295.066Z" fill="#FFFFFF"></path>
<path d="M45.25 252.277C63.687 237.48 85.5165 221.143 101.956 219.159C107.568 198.583 132.283 167.782 153.304 144.062C129.635 165.115 98.8806 189.866 78.3193 195.487C76.3377 211.951 60.025 233.829 45.25 252.277V252.277Z" fill="#FFFFFF"></path>
<path d="M2.46875 148.781C25.947 151.369 52.9288 155.29 65.9599 165.515C84.4603 154.941 123.681 150.654 155.276 148.781C123.665 146.907 84.4603 142.621 65.9599 132.047C52.9288 142.287 25.9629 146.209 2.46875 148.781V148.781Z" fill="#FFFFFF"></path>
<path d="M45.25 45.25C60.025 63.7145 76.3377 85.5765 78.3193 102.041C98.8647 107.661 129.62 132.412 153.304 153.465C132.283 129.761 107.568 98.9605 101.956 78.3686C85.5165 76.384 63.6711 60.047 45.25 45.25V45.25Z" fill="#FFFFFF"></path>
<path d="M148.584 2.375C146 25.8882 142.084 52.9102 131.875 65.9607C142.433 84.4887 146.713 123.767 148.584 155.409C150.455 123.752 154.735 84.4887 165.293 65.9607C155.068 52.9102 151.152 25.9041 148.584 2.375V2.375Z" fill="#FFFFFF"></path>
<path d="M251.929 45.25C233.492 60.047 211.662 76.384 195.223 78.3686C189.611 98.9446 164.896 129.745 143.875 153.465C167.543 132.412 198.298 107.661 218.86 102.041C220.841 85.5765 237.154 63.6986 251.929 45.25V45.25Z" fill="#FFFFFF"></path>
<path d="M294.713 148.781C271.235 146.193 244.253 142.271 231.222 132.047C212.721 142.621 173.501 146.907 141.906 148.781C173.517 150.654 212.721 154.941 231.222 165.515C244.253 155.274 271.219 151.353 294.713 148.781V148.781Z" fill="#FFFFFF"></path>
<path d="M251.929 252.277C237.154 233.813 220.841 211.951 218.86 195.487C198.314 189.866 167.559 165.115 143.875 144.062C164.896 167.766 189.611 198.567 195.223 219.159C211.662 221.143 233.508 237.48 251.929 252.277V252.277Z" fill="#FFFFFF"></path>
<path d="M148.656 172.727C161.841 172.727 172.53 162.022 172.53 148.816C172.53 135.611 161.841 124.906 148.656 124.906C135.47 124.906 124.781 135.611 124.781 148.816C124.781 162.022 135.47 172.727 148.656 172.727Z" fill="#CFCFCF"></path>
<path d="M148.606 297.63C144.452 297.63 140.299 297.456 136.24 297.122C101.316 294.249 68.3897 278.944 43.5323 254.033C18.6589 229.139 3.37668 196.163 0.507295 161.187C0.174383 157.139 0 152.963 0 148.803C0 144.644 0.174383 140.484 0.507295 136.42C3.37668 101.443 18.6589 68.4519 43.5323 43.5574C68.3897 18.6788 101.316 3.37378 136.24 0.500113C144.341 -0.166704 152.854 -0.166704 160.955 0.500113C195.879 3.37378 228.806 18.6788 253.679 43.5733C278.537 68.4678 293.819 101.459 296.688 136.435C297.021 140.484 297.196 144.66 297.196 148.819C297.196 152.979 297.021 157.139 296.688 161.203C293.819 196.179 278.537 229.155 253.679 254.049C228.806 278.96 195.879 294.265 160.955 297.138C156.897 297.472 152.743 297.646 148.59 297.646L148.606 297.63ZM148.606 8.6448C144.69 8.6448 140.774 8.80357 136.954 9.1211C104.075 11.836 73.0663 26.2361 49.6515 49.6858C26.2367 73.1355 11.8422 104.19 9.13131 137.134C8.81425 140.96 8.65572 144.882 8.65572 148.803C8.65572 152.725 8.81425 156.646 9.13131 160.473C11.8422 193.417 26.2208 224.455 49.6515 247.905C73.0663 271.371 104.075 285.771 136.954 288.486C144.595 289.121 152.617 289.121 160.242 288.486C193.121 285.771 224.129 271.355 247.56 247.905C270.975 224.455 285.369 193.401 288.064 160.473C288.381 156.646 288.54 152.725 288.54 148.803C288.54 144.882 288.381 140.96 288.064 137.134C285.353 104.19 270.975 73.1355 247.56 49.6858C224.145 26.2361 193.137 11.8201 160.242 9.1211C156.421 8.80357 152.506 8.6448 148.59 8.6448H148.606Z" fill="#FFFFFF"></path>
</svg>