<svg width="241" height="292" viewBox="0 0 241 292" fill="none" xmlns="http://www.w3.org/2000/svg">
<path d="M233.92 0H177.02C173.5 0 170.62 2.85 170.62 6.4V31.06H154.98V6.4C154.98 2.85 152.13 0 148.58 0H91.72C88.17 0 85.32 2.85 85.32 6.4V31.06H69.68V6.4C69.68 2.85 66.8 0 63.28 0H6.4C2.88 0 0 2.85 0 6.4V225.29C0 227.69 1.34 229.86 3.45 230.98L60.31 260.72L117.17 290.46C117.23 290.49 117.27 290.52 117.33 290.52C117.52 290.62 117.71 290.71 117.91 290.78C118.13 290.88 118.39 290.97 118.65 291C118.84 291.06 119.07 291.1 119.29 291.13C119.58 291.16 119.87 291.19 120.15 291.19C120.43 291.19 120.73 291.16 121.01 291.13C121.75 291.03 122.45 290.81 123.12 290.46L123.47 290.27L179.98 260.72L236.88 230.98C238.99 229.86 240.3 227.69 240.3 225.29V6.4C240.3 2.85 237.42 0 233.9 0H233.92ZM227.52 221.41L183.42 244.47V12.79H227.52V221.41ZM170.63 251.19L126.56 274.25V43.85H170.63V251.19ZM12.79 12.79H56.89V244.47L12.79 221.41V12.79ZM113.76 274.25L69.69 251.19V43.85H113.76V274.25ZM98.12 12.79H142.19V31.05H98.12V12.79Z" fill="white"></path>
<path d="M34.85 26.7109C29.96 26.7109 26 30.6709 26 35.5609C26 40.4509 29.96 44.4109 34.85 44.4109C39.74 44.4109 43.7 40.4509 43.7 35.5609C43.7 30.6709 39.74 26.7109 34.85 26.7109Z" fill="white"></path>
<path d="M205.483 44.4109C210.373 44.4109 214.333 40.4509 214.333 35.5609C214.333 30.6709 210.373 26.7109 205.483 26.7109C200.593 26.7109 196.633 30.6709 196.633 35.5609C196.633 40.4509 200.593 44.4109 205.483 44.4109Z" fill="white"></path>
<path d="M91.7172 58.3516C86.8272 58.3516 82.8672 62.3116 82.8672 67.2016C82.8672 72.0916 86.8272 76.0516 91.7172 76.0516C96.6072 76.0516 100.567 72.0916 100.567 67.2016C100.567 62.3116 96.6072 58.3516 91.7172 58.3516Z" fill="white"></path>
<path d="M148.6 58.3516C143.71 58.3516 139.75 62.3116 139.75 67.2016C139.75 72.0916 143.71 76.0516 148.6 76.0516C153.49 76.0516 157.45 72.0916 157.45 67.2016C157.45 62.3116 153.49 58.3516 148.6 58.3516Z" fill="white"></path>
</svg>