<svg width="216" height="312" viewBox="0 0 216 312" fill="none" xmlns="http://www.w3.org/2000/svg">
<path d="M205.311 202.95C198.335 209.464 190.25 214.871 181.167 217.534C181.167 217.534 193.367 209.78 204.707 189.153C202.999 142.104 204.912 95.055 210.435 48.0007C202.394 56.7508 192.568 64.416 181.167 67.7589C181.167 67.7589 202.289 54.3377 214.771 15.8287C214.805 15.5907 214.838 15.3527 214.877 15.1147C216.097 7.16164 209.925 0 201.862 0H107.51L13.1634 0.011069C5.10615 0.011069 -1.0657 7.17271 0.154253 15.1258C3.20413 35.0278 5.59967 54.9354 7.35751 74.8375C19.4184 99.7926 33.8637 108.974 33.8637 108.974C24.3869 106.196 15.997 100.429 8.82145 93.533C11.827 137.809 11.6273 182.091 8.22811 226.367C20.1005 249.993 33.8637 258.738 33.8637 258.738C23.5441 255.71 14.5164 249.147 6.93607 241.437C5.2226 259.8 2.96569 278.17 0.154253 296.533C-1.0657 304.481 5.10615 311.648 13.1689 311.648H45.1926C52.1685 311.648 58.1019 306.578 59.1833 299.704L66.2923 254.51C66.8579 250.929 70.4456 248.095 74.3273 248.095H78.3476L79.6119 240.07C79.9945 237.646 82.4233 235.725 85.0518 235.725H129.985C132.613 235.725 135.042 237.64 135.425 240.07L136.689 248.095H140.709C144.591 248.095 148.179 250.929 148.744 254.51L155.853 299.704C156.935 306.578 162.874 311.648 169.844 311.648H201.868C209.925 311.648 216.097 304.486 214.882 296.533C210.102 265.335 206.919 234.137 205.317 202.939L205.311 202.95ZM150.835 114.841C146.438 143.891 132.397 168.21 114.153 182.362L108.852 186.396C105.597 161.751 109.129 134.732 112.201 109.019C99.0812 141.539 102.048 162.426 102.641 180.912C102.736 181.709 103.545 197.654 109.739 208.036L108.458 221.242C108.458 221.242 91.4399 180.281 84.5749 160.063C84.1146 158.752 83.6821 157.423 83.2718 156.078C83.1775 155.768 83.0832 155.47 82.9945 155.182L83.0056 155.193C78.4252 139.702 77.0167 121.986 79.7173 104.126C79.9446 102.626 80.2053 101.143 80.4825 99.6708C81.1424 106.152 83.366 114.835 89.9815 121.798C89.9815 121.798 83.2607 103.539 86.6433 78.0918C95.3715 55.7656 110.155 38.3762 127.367 29.593C134.016 36.0573 139.534 44.2594 143.682 53.6791C146.138 80.931 137.465 94.8503 137.465 94.8503C145.312 87.506 148.351 78.1361 149.526 71.5666C152.532 84.8826 153.142 99.6376 150.84 114.846L150.835 114.841Z" fill="#FFFFFF"></path>
</svg>