<svg width="222" height="340" viewBox="0 0 222 340" fill="none" xmlns="http://www.w3.org/2000/svg">
<path d="M69.372 24.2039V232.818H0.00549316V126.847C0.00549316 81.496 27.2456 41.0819 69.372 24.2039Z" fill="#FFFFFF"></path>
<path d="M221.12 156.261H77.4231V232.821H105.243L126.556 211.485L146.198 231.149L165.84 211.485L187.153 232.821H221.12V156.261Z" fill="#FFFFFF"></path>
<path d="M221.12 126.848V148.208H77.4231V21.36C81.4027 20.1013 85.4446 19.0761 89.5355 18.2852C93.2608 22.0106 104.39 33.1401 110.563 39.313C116.736 33.1401 126.979 22.896 131.575 18.3005C182.527 28.1861 221.12 73.2963 221.12 126.848Z" fill="#FFFFFF"></path>
<path d="M221.119 240.874H187.142L165.84 262.176L146.198 242.534L126.556 262.176L105.254 240.874H0.0054939V322.023H91.2365L112.549 300.687L133.861 322.023H221.119V240.874Z" fill="#FFFFFF"></path>
<path d="M110.563 0L96.609 13.9809L110.563 27.935L124.517 13.9809L110.563 0Z" fill="#FFFFFF"></path>
<path d="M126.556 222.863L112.602 236.844L126.556 250.798L140.509 236.844L126.556 222.863Z" fill="#FFFFFF"></path>
<path d="M112.602 236.844L126.556 250.798L140.51 236.844L126.556 222.863L112.602 236.844Z" fill="#FFFFFF"></path>
<path d="M165.84 222.863L151.886 236.844L165.84 250.798L179.794 236.844L165.84 222.863Z" fill="#FFFFFF"></path>
<path d="M112.549 312.065L98.5952 326.046L112.549 340L126.503 326.046L112.549 312.065Z" fill="#FFFFFF"></path>
<path d="M126.555 222.863L112.601 236.844L126.555 250.798L140.509 236.844L126.555 222.863Z" fill="#FFFFFF"></path>
</svg>