<svg width="346" height="347" viewBox="0 0 346 347" fill="none" xmlns="http://www.w3.org/2000/svg">
<path d="M172.949 343.485C175.956 316.116 180.514 284.664 192.397 269.474C180.108 247.908 175.126 202.189 172.949 165.359C170.771 202.208 165.789 247.908 153.5 269.474C165.402 284.664 169.959 316.098 172.949 343.485V343.485Z" fill="#BDBDBD"></path>
<path d="M52.6875 293.645C74.1474 276.422 99.556 257.406 118.691 255.096C125.223 231.147 153.99 195.296 178.457 167.688C150.908 192.192 115.111 221.001 91.1787 227.543C88.8722 246.707 69.8849 272.172 52.6875 293.645V293.645Z" fill="#BDBDBD"></path>
<path d="M2.84375 173.196C30.1714 176.208 61.577 180.773 76.7447 192.674C98.2784 180.366 143.929 175.377 180.704 173.196C143.911 171.016 98.2784 166.026 76.7447 153.719C61.577 165.638 30.1899 170.203 2.84375 173.196V173.196Z" fill="#BDBDBD"></path>
<path d="M52.6875 52.7656C69.8849 74.2575 88.8722 99.704 91.1787 118.867C115.093 125.409 150.89 154.219 178.457 178.723C153.99 151.133 125.223 115.282 118.691 91.3142C99.556 89.0042 74.1289 69.9887 52.6875 52.7656V52.7656Z" fill="#BDBDBD"></path>
<path d="M172.949 2.84375C169.941 30.2121 165.383 61.6645 153.5 76.8548C165.789 98.4205 170.771 144.139 172.949 180.969C175.126 144.121 180.108 98.4205 192.397 76.8548C180.496 61.6645 175.938 30.2306 172.949 2.84375V2.84375Z" fill="#BDBDBD"></path>
<path d="M293.207 52.7656C271.748 69.9887 246.339 89.0042 227.204 91.3142C220.672 115.264 191.905 151.114 167.438 178.723C194.987 154.219 230.784 125.409 254.716 118.867C257.023 99.704 276.01 74.239 293.207 52.7656V52.7656Z" fill="#BDBDBD"></path>
<path d="M343.017 173.196C315.689 170.184 284.283 165.62 269.116 153.719C247.582 166.026 201.931 171.016 165.156 173.196C201.95 175.377 247.582 180.366 269.116 192.674C284.283 180.754 315.671 176.19 343.017 173.196V173.196Z" fill="#BDBDBD"></path>
<path d="M293.207 293.645C276.01 272.153 257.023 246.707 254.716 227.543C230.802 221.001 195.005 192.192 167.438 167.688C191.905 195.278 220.672 231.128 227.204 255.096C246.339 257.406 271.766 276.422 293.207 293.645V293.645Z" fill="#BDBDBD"></path>
<path d="M172.945 201.036C188.293 201.036 200.734 188.576 200.734 173.205C200.734 157.835 188.293 145.375 172.945 145.375C157.598 145.375 145.156 157.835 145.156 173.205C145.156 188.576 157.598 201.036 172.945 201.036Z" fill="#FFFFFF"></path>
<path d="M172.971 346.429C168.136 346.429 163.302 346.226 158.578 345.838C117.928 342.493 79.6026 324.678 50.6696 295.684C21.7182 266.708 3.93031 228.325 0.590469 187.615C0.202974 182.902 0 178.042 0 173.201C0 168.359 0.202974 163.517 0.590469 158.786C3.93031 118.076 21.7182 79.6751 50.6696 50.699C79.6026 21.7413 117.928 3.92693 158.578 0.582109C168.007 -0.194036 177.916 -0.194036 187.345 0.582109C227.995 3.92693 266.32 21.7413 295.272 50.7174C324.205 79.6935 341.992 118.094 345.332 158.805C345.72 163.517 345.923 168.377 345.923 173.219C345.923 178.061 345.72 182.902 345.332 187.633C341.992 228.344 324.205 266.726 295.272 295.702C266.32 324.697 227.995 342.511 187.345 345.856C182.621 346.244 177.787 346.447 172.952 346.447L172.971 346.429ZM172.971 10.0622C168.413 10.0622 163.855 10.247 159.408 10.6166C121.138 13.7766 85.046 30.5376 57.7922 57.8321C30.5383 85.1266 13.7838 121.273 10.6284 159.618C10.2594 164.072 10.0749 168.636 10.0749 173.201C10.0749 177.765 10.2594 182.33 10.6284 186.783C13.7838 225.128 30.5199 261.256 57.7922 288.551C85.046 315.864 121.138 332.625 159.408 335.785C168.302 336.524 177.639 336.524 186.515 335.785C224.784 332.625 260.877 315.845 288.149 288.551C315.403 261.256 332.157 225.11 335.294 186.783C335.663 182.33 335.848 177.765 335.848 173.201C335.848 168.636 335.663 164.072 335.294 159.618C332.139 121.273 315.403 85.1266 288.149 57.8321C260.895 30.5376 224.803 13.7581 186.515 10.6166C182.068 10.247 177.51 10.0622 172.952 10.0622H172.971Z" fill="#FFFFFF"></path>
</svg>