<svg width="441" height="427" viewBox="0 0 441 427" fill="none" xmlns="http://www.w3.org/2000/svg">
<g clip-path="url(#clip0_1340_3285)">
<path d="M418.429 104.251C412.007 85.2774 411.178 64.1834 417.636 45.0654C422.552 30.5196 445.408 3.89427 415.661 1.40627C375.153 -1.9832 331.07 2.74763 290.187 0C216.898 4.7164 143.017 -1.18992 69.5982 1.8606C31.202 3.45437 7.63958 23.308 3.72572 62.1065C1.40479 85.1115 2.74545 114.773 19.7632 132.34C37.3792 150.535 56.9557 146.136 79.5162 146.216C104.203 146.302 128.897 146.432 153.584 146.583C187.18 146.785 220.776 147.009 254.371 147.16C287.953 147.312 321.541 147.391 355.123 147.312C371.903 147.276 388.69 147.189 405.47 147.059C411.387 147.009 417.982 148.329 422.999 144.398C427.259 141.059 429.183 135.413 428.362 130.119C426.927 120.903 421.385 112.97 418.429 104.251ZM123.181 111.391C111.043 120.448 86.0465 117.485 71.1912 117.275C68.0846 117.225 62.4841 118.948 61.6408 113.778C60.7902 108.52 67.0611 107.042 67.9693 102.311C68.654 98.792 68.0053 94.5588 68.2432 90.9169C69.0865 77.8927 70.2469 62.907 68.6612 49.9044C67.89 43.5582 60.0767 41.4957 62.1958 36.6278C64.56 31.2047 79.6171 34.5292 85.1528 34.5581C93.8238 34.5941 102.502 32.5605 111.274 35.3153C125.827 39.8875 131.326 60.0944 119.318 70.2412C117.898 71.4383 115.152 71.5825 115.318 73.7965C132.746 77.6115 137.338 100.833 123.181 111.391ZM168.836 118.79C126.288 111.679 133.056 39.1375 174.689 34.2624C231.652 27.5989 232.589 129.456 168.836 118.79ZM263.684 120.203C211.218 121.79 214.087 38.4451 261.932 34.5437C314.759 30.2383 315.516 118.638 263.684 120.203ZM378.044 121.249C351.93 128.655 350.798 101.648 340.649 87.6284C338.797 85.0683 337.5 83.2221 334.278 85.3495C335.135 90.1885 333.643 105.232 336.195 108.391C337.154 109.581 339.013 109.905 340.174 110.922C344.506 114.737 342.711 118.321 337.182 118.833C330.652 119.439 316.294 119.287 309.757 118.573C307.544 118.335 305.576 117.722 305.151 115.198C304.329 110.323 309.209 111.246 311.306 107.677C312.553 105.556 313.072 101.958 313.288 99.4843C314.29 87.8015 314.953 63.2603 313.706 51.9453C312.957 45.1664 308.084 45.3899 307.075 42.0149C304.704 34.0893 315.681 37.0677 319.329 37.1687C322.457 37.2624 325.628 37.2841 328.756 37.2769C332.036 37.2624 340.52 34.8465 342.415 38.8346C344.772 43.8178 335.481 45.8371 335.438 49.9405L335.207 70.4936C336.404 70.7676 336.671 70.1258 337.37 69.4263C339.554 67.2339 351.432 52.7097 352.398 50.5246C354.308 46.2337 352.045 38.7336 354.078 37.4716C355.62 36.5124 376.054 36.6999 379.233 37.0461C382.347 37.3778 385.295 39.4331 383.14 42.5918C381.756 44.6183 375.485 46.7169 372.998 48.2602C368.234 51.2097 355.743 62.294 352.55 66.7219C348.895 71.7917 352.831 71.6402 355.707 75.0441C363.138 83.8423 367.441 96.3761 374.108 104.107C379.593 110.475 383.76 107.02 386.974 109.35C392.178 113.114 381.813 120.182 378.044 121.249Z" fill="white"></path>
<path d="M90.468 107.383L90.0859 82.6399C96.2631 78.7023 105.323 80.1735 107.788 87.9476C111.904 100.965 103.327 109.2 90.468 107.383Z" fill="white"></path>
<path d="M101.26 67.0825C99.213 69.1883 92.6034 71.8278 90.2681 69.7797C89.8645 69.4263 89.4824 66.1306 89.432 65.2436C89.259 62.2796 89.1437 47.741 89.7924 45.8732C91.0393 42.289 99.5374 44.265 101.959 46.5727C106.421 50.8131 105.397 62.8277 101.26 67.0825Z" fill="white"></path>
<path d="M176.912 106.609C170.634 104.871 166.454 93.9811 165.099 88.2118C162.85 78.5627 161.156 49.5431 174.527 47.2354C187.904 44.9205 191.825 61.4279 193.094 71.5169C194.471 82.493 195.249 111.657 176.912 106.609Z" fill="white"></path>
<path d="M272.758 104.705C268.289 108.88 261.276 108.109 257.103 103.76C247.783 94.0462 245.945 66.1589 251.632 54.6347C255.294 47.2067 263.871 44.3725 270.3 50.5457C279.462 59.3294 282.366 95.7193 272.758 104.705Z" fill="white"></path>
<path d="M391.054 316.2C402.175 316.114 420.858 314.405 431.007 316.907C450.295 321.667 434.583 340.215 430.229 349.626C420.988 369.602 418.783 367.36 427.101 388.144C431.721 399.668 451.196 423.992 425.464 425.903C378.714 429.387 327.711 423.206 280.522 425.903C213.698 424.065 146.34 425.427 79.4875 425.903C36.6298 426.206 4.88586 421.613 1.25312 371.42C-1.52884 332.903 23.1947 315.552 52.7609 316.684C53.2416 316.702 53.7227 316.719 54.2033 316.737V395.328C54.2034 399.085 58.1604 401.523 61.5119 399.843L90.6174 385.246C92.0372 384.532 93.717 384.532 95.1369 385.246L124.242 399.843H124.235C127.593 401.523 131.543 399.085 131.543 395.328V318.505C218.041 319.347 304.624 316.892 391.054 316.2ZM225.156 374.86C225.156 379.215 226.057 382.339 228.234 384.517C231.074 387.357 235.571 388.209 239.311 388.209C244.707 388.209 248.21 386.457 250.245 384.422C252.281 382.387 253.369 379.547 253.369 375.57V363.689L254.222 354.363H245.228V355.027L246.789 362.648V376.375C246.789 379.168 246.553 381.346 246.363 382.245C245.369 382.671 243.381 383.05 241.298 383.05C238.979 383.05 237.322 382.624 236.28 381.63C235.239 380.541 234.719 378.789 234.719 375.949V354.363H225.156V374.86ZM354.681 354.554V354.79L356.101 358.009L352.172 387.5H360.22V387.264L359.557 382.908L360.456 367.997L368.93 387.5H371.817L379.533 367.997L381.9 387.5H391.604L387.391 353.985L377.971 354.695L377.923 354.933L378.35 358.246L372.528 373.252L364.338 353.891L354.681 354.554ZM190.75 387.499H200.123V375.286L203.957 375.855L209.59 387.499H220.241V387.263L211.768 372.446C215.129 369.748 217.164 366.671 217.164 362.932C217.164 357.962 213.851 354.363 207.129 354.363H190.75V387.499ZM278.935 354.363H261.61V387.499H283.621L284.757 382.055V381.865L270.983 382.339V373.298L281.633 373.913L282.817 368.327L282.77 368.138L270.983 368.469V359.617L282.817 359.996L284.19 353.369L284.095 353.227L278.935 354.363ZM306.922 387.499H316.295V354.363H306.922V387.499ZM325.281 387.499H346.299L347.436 382.103L347.388 381.866L334.654 382.292V354.363H325.281V387.499ZM181.096 354.362H160.978L156.623 353.699L155.25 360.753L155.44 360.989L164.15 359.38H165.475V387.498H174.848V359.38H175.747L184.078 360.943L185.404 353.984L185.262 353.699L181.096 354.362ZM202.679 359.192C205.85 359.192 207.744 360.802 207.744 364.352C207.744 366.624 206.892 368.848 206.135 370.079L200.123 370.553V359.429C200.928 359.287 201.922 359.192 202.679 359.192Z" fill="white"></path>
<path d="M100.31 368.799C99.6605 368.799 98.973 368.723 98.5529 368.608L97.789 363.796L97.9418 363.643C99.2786 364.025 101.035 364.254 102.678 364.254C103.212 364.254 103.862 364.216 104.282 364.101C104.702 363.49 105.275 362.154 105.695 360.817L105.733 360.664H102.792L95.3828 342.026V341.835L101.685 341.262L106.955 356.845L110.737 344.852L110.622 341.529H116.618V341.72L108.445 361.886C106.421 366.89 103.747 368.799 100.31 368.799Z" fill="white"></path>
<path d="M81.6604 361.467C79.2924 361.467 76.6952 361.199 73.9453 360.665V335.533L72.9141 332.554V332.363L79.6361 330.988H79.8271V343.707C82.1187 341.797 84.3721 340.957 86.5491 340.957C88.3442 340.957 90.1011 341.491 91.3615 342.828C93.042 344.471 93.8059 347.221 93.8059 350.582C93.8059 354.554 92.6601 357.074 91.1324 358.602C89.0699 360.665 85.5943 361.467 81.6604 361.467ZM83.3027 358.679C84.8304 358.679 86.2436 358.335 87.0457 357.953C87.4276 356.616 87.7331 354.248 87.7331 351.384C87.7331 348.137 87.313 346.38 86.3964 345.464C85.7089 344.776 84.6777 344.509 83.5319 344.509C82.4624 344.509 81.1257 344.776 79.8271 345.273V358.029C80.6673 358.373 81.9659 358.679 83.3027 358.679Z" fill="white"></path>
<path d="M427.251 256.538C418.097 236.108 420.685 209.641 429.111 189.319C433.09 179.735 448.046 160.573 428.578 156.593C418.335 154.501 399.739 156.953 388.632 157.487C276.081 162.91 163.293 166.956 50.6341 171.549C4.00647 174.535 -3.25183 218.548 1.07288 256.928C6.71663 306.933 38.6186 310.251 81.426 308.224C148.207 305.073 215.456 301.005 282.302 300.161C329.347 295.56 380.552 299.693 427.122 294.334C452.76 291.392 432.326 267.868 427.251 256.538ZM136.905 270.63C128.839 279.45 112.809 282.63 101.435 281.209C50.2953 274.805 65.302 186.456 116.233 195.982C119.109 196.523 122.849 198.564 125.379 198.845C129.639 199.307 134.915 195.586 136.84 200.706C137.993 203.764 138.512 220.177 137.092 222.925C135.989 225.038 130.944 225.226 129.178 224.057C127.801 223.141 124.572 215.93 122.691 213.795C115.959 206.18 106.012 206.677 99.1429 213.91C82.9685 230.973 97.4202 274.87 124.486 264.017C128.01 262.603 134.115 256.531 135.607 256.214C143.925 254.411 140.804 266.375 136.905 270.63ZM209.798 272.007C208.731 274.611 207.023 276.132 204.219 276.572C196.305 277.827 185.608 277.12 177.55 276.875C170.818 275.7 158.528 279.955 152.647 278.31C149.497 277.43 148.827 273.046 150.297 270.5C151.22 268.892 154.369 267.781 155.234 265.351C157.267 259.654 155.487 225.997 154.643 218.252C154.261 214.761 153.425 209.612 151.27 206.872C148.899 203.857 144.286 203.62 146.347 198.211C147.659 194.778 159.429 196.848 162.723 196.696C166.558 196.523 181.233 193.754 183.194 196.682C185.76 200.533 178.775 204.55 177.355 207.362C176.699 208.668 176.216 210.983 176.101 212.447C175.265 223.134 176.418 248.447 177.867 259.243C178.818 266.296 182.026 266.663 188.614 265.639C192.6 265.019 195.67 262.942 198.099 259.82C199.599 257.894 203.541 249.175 204.154 248.764C206.223 247.401 210.425 247.928 211.621 250.466C213.049 253.502 211.196 268.575 209.798 272.007ZM289.711 199.725C285.221 205.545 288.976 237.471 287.606 247.401C284.204 272.022 259.849 281.534 238.06 272.93C208.695 261.327 227.623 222.759 217.835 204.629C216.011 201.247 210.367 199.119 214.231 194.922C215.103 193.97 215.514 193.949 216.71 193.74C222.491 192.73 238.809 192.254 244.878 192.6C248.432 192.809 250.061 194.742 248.915 198.499C248.216 200.8 242.918 201.55 242.327 209.064C241.685 217.271 241.966 231.745 242.774 239.995C243.257 244.92 244.222 252.442 246.889 256.589C252.447 265.2 267.093 263.577 272.117 255.305C277.487 246.464 276.989 213.752 274.005 203.879C272.686 199.487 269.529 199.855 268.289 197.302C263.885 188.223 277.494 191.172 282.287 191.187C285.754 191.201 289.581 188.792 292.414 192.182C296.047 196.538 291.391 197.547 289.711 199.725ZM359.822 264.81C349.853 270.486 320.409 272.274 308.567 271.676C305.864 271.539 303.305 271.07 302.974 267.904C302.469 263.137 306.779 262.618 308.61 259.163C309.778 256.964 310.239 254.223 310.354 251.75C310.866 240.456 310.117 215.843 308.452 204.882C307.428 198.168 303.168 198.968 301.892 195.442C301.33 193.891 301.071 192.211 302.426 190.999C305.446 188.288 320.582 189.658 325.534 189.441C335.142 189.016 345.716 185.576 354.755 191.526C365.574 198.658 367.585 219.37 353.955 224.36C357.76 227.245 362.402 227.403 365.776 231.456C374.461 241.877 371.585 258.118 359.822 264.81Z" fill="white"></path>
<path d="M349.161 248.029C348.628 259.243 333.693 263.26 331.61 257.217C330.486 253.957 329.426 239.88 329.909 236.505C330.125 235.012 331.098 234.399 332.496 234.031C344.31 230.966 349.709 236.39 349.161 248.029Z" fill="white"></path>
<path d="M334.058 223.032C333.121 223.133 329.841 222.91 329.452 222.34C328.818 221.417 328.212 201.066 328.565 199.869C329.538 196.53 336.191 197.907 338.498 199.378C345.41 203.792 343.976 221.936 334.058 223.032Z" fill="white"></path>
</g>
<defs>
<clipPath id="clip0_1340_3285">
<rect width="440.4" height="427" fill="white"></rect>
</clipPath>
</defs>
</svg>