<svg xmlns="http://www.w3.org/2000/svg" viewBox="0 0 800 800">
  <!-- Dark rounded background so the mark stays legible on any tab bar. -->
  <rect x="0" y="0" width="800" height="800" rx="140" ry="140" fill="#141414" />
  <!-- Real OTB logomark, centered with padding. -->
  <g transform="translate(81 81)">
    <path d="M319 83.5459L235.453 0H402.547L319 83.5459ZM278.836 17L307.836 46H307.865L336.785 17H278.836ZM346.672 17L317.752 46H330.162L359.163 17H346.672Z" fill="#F9D916"/>
    <path d="M319 554.001L402.547 637.547L235.453 637.547L319 554.001ZM359.164 620.547L330.164 591.547L330.135 591.547L301.215 620.547L359.164 620.547ZM291.328 620.547L320.248 591.547L307.838 591.547L278.837 620.547L291.328 620.547Z" fill="#F9D916"/>
    <path d="M83.5459 318.547L0 402.094L-7.3039e-06 235L83.5459 318.547ZM17 358.711L46 329.711L46 329.682L17 300.762L17 358.711ZM17 290.875L46 319.795L46 307.385L17 278.384L17 290.875Z" fill="#F9D916"/>
    <path d="M554.001 318.547L637.547 235L637.547 402.094L554.001 318.547ZM620.547 278.383L591.547 307.383L591.547 307.412L620.547 336.332L620.547 278.383ZM620.547 346.219L591.547 317.299L591.547 329.709L620.547 358.71L620.547 346.219Z" fill="#F9D916"/>
    <path d="M293.629 373.628L230.5 436.758V486.258L181.258 535.5H96.7578L81.3789 550.879L85.6211 555.121L99.2422 541.5H183.742L236.5 488.742V439.242L297.871 377.87L315 394.999V515L283 547H230.258L139.258 638H34.3379L0 603.662V500.242L73.7422 426.5H98.2422L167 357.742V322H242L293.629 373.628ZM192 638H147.742L232.742 553H277L192 638ZM495.258 638H446L361 553H410.258L495.258 638ZM471 357.742L539.758 426.5H564.258L638 500.242V603.338L603.338 638H503.742L412.742 547H355L321 513V396.999L339.378 378.62L400 439.242V488.742L452.758 541.5H537.258L550.879 555.121L555.121 550.879L539.742 535.5H455.242L406 486.258V436.758L343.62 374.378L396 322H471V357.742ZM34 603H78V559H34V603ZM565 603H609V559H565V603ZM154 524.318H174.741L174.744 524.315H154.003L154 524.318ZM461.759 524.318H482.5L482.497 524.315H461.756L461.759 524.318ZM156.318 522H177.06L186.322 512.737H165.581L156.318 522ZM459.44 522H480.182L470.919 512.737H450.178L459.44 522ZM167.896 510.422H188.638L197.9 501.159H177.159L167.896 510.422ZM447.862 510.422H468.604L459.341 501.159H438.6L447.862 510.422ZM179.475 498.844H200.216L209.48 489.579H188.739L179.475 498.844ZM436.284 498.844H457.025L447.761 489.579H427.02L436.284 498.844ZM161 355.258L95.7578 420.5H71.2578L0 491.758V446L124 322H161V355.258ZM637.999 446.001L638 446V491.758L566.742 420.5H542.242L477 355.258V322H513.999L637.999 446.001ZM191.055 487.264H211.796L221.059 478.001H200.317L191.055 487.264ZM424.704 487.264H445.445L436.183 478.001H415.441L424.704 487.264ZM94 385.5H103.115L120.115 368.5H111L94 385.5ZM534.885 385.5H544L527 368.5H517.885L534.885 385.5ZM71.2578 217H95.7578L161 282.242V316H124L0 192V145.742L71.2578 217ZM136.379 0.621094L227.758 92H283.999L315 123.001V242.998L298.37 259.628L236.5 197.758V148.258L183.742 95.5H99.2422L85.6211 81.8789L81.3789 86.1211L96.7578 101.5H181.258L230.5 150.742V200.242L294.128 263.87L241.998 316H167V279.758L98.2422 211H73.7422L0 137.258V34.0137L34.0137 0H137L136.379 0.621094ZM638 34.3379V137.258L564.258 211H539.758L471 279.758V316H396.002L343.122 263.12L406 200.242V150.742L455.242 101.5H539.742L555.121 86.1211L550.879 81.8789L537.258 95.5H452.758L400 148.258V197.758L338.88 258.878L321 240.998V125.001L354.001 92H410.242L501.621 0.621094L501 0H603.662L638 34.3379ZM638 192L637.999 191.999L513.999 316H477V282.242L542.242 217H566.742L638 145.742V192ZM111 269H120.115L103.115 252H94L111 269ZM517.885 269H527L544 252H534.885L517.885 269ZM200.317 158.999H221.059L211.796 149.736H191.055L200.317 158.999ZM415.441 158.999H436.183L445.445 149.736H424.704L415.441 158.999ZM188.739 147.421H209.48L200.216 138.156H179.475L188.739 147.421ZM427.02 147.421H447.761L457.025 138.156H436.284L427.02 147.421ZM177.159 135.841H197.9L188.638 126.578H167.896L177.159 135.841ZM438.6 135.841H459.341L468.604 126.578H447.862L438.6 135.841ZM165.581 124.263H186.322L177.06 115H156.318L165.581 124.263ZM450.178 124.263H470.919L480.182 115H459.44L450.178 124.263ZM154.003 112.685H174.744L174.741 112.682H154L154.003 112.685ZM461.756 112.685H482.497L482.5 112.682H461.759L461.756 112.685ZM191.999 0.000976562L277.999 86H230.242L144.242 0H192L191.999 0.000976562ZM407.758 86H360.001L446.001 0.000976562L446 0H493.758L407.758 86ZM34 73H78V29H34V73ZM565 73H609V29H565V73Z" fill="#F1F1F1"/>
  </g>
</svg>
