<svg width="136" height="123" viewBox="0 0 136 123" fill="none" xmlns="http://www.w3.org/2000/svg">
<g clip-path="url(#clip0_1165_18703)">
<path d="M76.6301 2.16605C76.7897 2.16605 76.9549 2.20463 77.1116 2.28455C77.1116 2.28455 90.8003 8.41617 90.6883 9.10512L84.3675 50.9875C84.3059 51.3871 84.6194 51.7454 85.0281 51.7454H128.157C128.507 51.7454 128.798 52.0127 128.824 52.3572L133.65 120.086C133.678 120.472 133.367 120.792 132.983 120.792C132.958 120.792 132.936 120.792 132.911 120.789L67.997 113.974C67.9746 113.971 67.9494 113.971 67.927 113.971C67.9046 113.971 67.8795 113.971 67.8571 113.974L2.94353 120.789C2.91834 120.789 2.89595 120.792 2.87075 120.792C2.49004 120.792 2.17932 120.472 2.20451 120.086L7.03055 52.3572C7.05574 52.0127 7.34687 51.7454 7.69679 51.7454L49.5215 51.671C49.9274 51.671 50.2381 51.321 50.1849 50.9242L46.9517 26.1689C46.8873 25.7005 47.1617 25.2954 47.6012 25.2099L55.5428 23.9643C55.9347 23.8871 56.2819 23.6667 56.5142 23.347C56.7997 22.9557 57.1272 22.4183 57.368 21.9168L57.5192 21.5998C57.6507 21.3243 57.9027 21.1369 58.1966 21.0928L64.1144 20.2164C64.3103 20.1889 64.5007 20.1227 64.6714 20.0235L67.1936 18.5905C67.3364 18.5106 67.4959 18.4665 67.6555 18.4665C67.6891 18.4665 67.7227 18.4665 67.7563 18.472L73.4613 19.2326C73.4949 19.2354 73.5257 19.2381 73.5593 19.2381C74.0995 19.2381 74.5726 18.7641 74.5978 18.1689L75.3061 3.67071C75.3425 2.8109 75.9667 2.16329 76.6301 2.16329M76.6301 0C74.7378 0 73.1898 1.57355 73.1058 3.58528L72.4536 16.9178L68.0502 16.3308H68.025L67.9998 16.3253C67.8851 16.3115 67.7703 16.306 67.6583 16.306C67.1124 16.306 66.5722 16.4493 66.0963 16.7194L63.6721 18.0972L57.8691 18.957C56.8473 19.1086 55.9739 19.7535 55.5288 20.6794L55.3777 20.9963C55.2433 21.2774 55.053 21.6054 54.8682 21.8809L47.254 23.0769L47.2092 23.0825L47.1645 23.0907C45.5772 23.4049 44.5471 24.8544 44.7682 26.4638L47.7803 49.5104L7.69119 49.5821C6.19635 49.5821 4.93665 50.7368 4.83308 52.2084L0.00704268 119.937C-0.0489438 120.717 0.230989 121.492 0.771258 122.062C1.31153 122.632 2.07574 122.96 2.86795 122.96C2.96873 122.96 3.0723 122.955 3.17588 122.944L67.9242 116.148L132.675 122.944C132.776 122.955 132.88 122.96 132.981 122.96C133.773 122.96 134.537 122.632 135.077 122.062C135.617 121.492 135.895 120.717 135.841 119.94L131.015 52.2084C130.912 50.7368 129.652 49.5821 128.154 49.5821H86.8001L92.8606 9.42754C93.1434 7.69415 91.5253 6.8371 89.6526 5.84502C88.5021 5.23599 86.9009 4.44233 84.8937 3.48882C81.7109 1.9759 78.4777 0.520844 78.0634 0.336206C77.6183 0.115743 77.1228 0 76.6301 0Z" fill="white"></path>
<path d="M82.0675 43.2686L60.5547 38.4404L60.8598 42.3068L63.3932 47.2534L72.5722 46.807L74.1426 54.3964L80.9366 53.9941L81.1185 52.2772L82.0675 43.2686Z" fill="white"></path>
<path d="M70.8326 48.846L71.8767 54.3961H57.6701L53.6727 51.5329L50.8594 28.2272L57.3734 26.9761L58.7199 43.0671L62.1211 49.0665L70.8326 48.846Z" fill="white"></path>
<path d="M82.2593 41.4634L76.6914 40.2426L78.5334 7.28613L86.8781 11.4253L82.2593 41.4634Z" fill="white"></path>
<path d="M74.7013 22.6857L68.2656 21.9995L68.8143 38.074L73.9455 39.4216L74.7013 22.6857Z" fill="white"></path>
<path d="M65.5171 23.5151L66.3317 37.4732L60.7219 36.3571L59.5938 24.3694L65.5171 23.5151Z" fill="white"></path>
<path d="M64.6902 59.0014H68.0997L68.0718 76.4235H64.5642V76.3849L61.7621 74.3952L58.8144 76.4235H55.332L55.7127 58.9932H59.1251L58.8956 71.791L61.8125 69.9529L64.595 72.0997L64.6902 59.0014Z" fill="white"></path>
<path d="M80.2955 59.2163L80.8582 76.6384H77.3786L77.2667 72.6507L73.6387 74.2188L73.6555 76.6384H70.148L70.1172 59.208L80.2927 59.2163H80.2955ZM77.1659 69.0682L76.9811 62.5232H73.5548L73.6135 70.5949L77.1659 69.0682Z" fill="white"></path>
<path d="M90.7167 58.9712H93.754L93.8967 60.8258L88.9783 68.3712L89.2891 76.4291H85.7871L85.524 68.0074L81.0227 60.8203L80.9219 59.018H83.8556L87.3127 64.5379L90.7139 58.9767L90.7167 58.9712Z" fill="white"></path>
<path d="M97.8906 59.0264L108.956 59.0346L109.186 62.314H105.505L106.244 76.4264H102.829L102.115 62.3085H98.039L97.8934 59.0264H97.8906Z" fill="white"></path>
<path d="M120.374 59.0426L121.833 76.4261H111.324L110.129 59.0371L120.372 59.0454L120.374 59.0426ZM118.09 72.9704L117.239 62.3165H113.765L114.541 72.9676H118.09V72.9704Z" fill="white"></path>
<path d="M25.6202 58.924L24.3605 76.6409H13.6055L15.1423 58.9185L25.6202 58.9267V58.924ZM21.0797 73.1163L21.8971 62.2585H18.3447L17.4489 73.1163H21.0797Z" fill="white"></path>
<path d="M39.3053 58.9324L38.4432 76.6383H34.8712L35.1847 70.8043L30.8738 64.2841L30.0368 76.6356H26.4648L27.663 58.9214H31.1341L35.655 65.392L35.8342 58.9269H39.3025L39.3053 58.9324Z" fill="white"></path>
<path d="M50.3797 58.9158L50.2146 62.2751H44.6579L44.5347 65.6179H49.9934L49.8507 69.0544H44.4088L44.2688 72.9042H49.6547L49.4811 76.6107H40.5625L41.3127 58.9324L50.3825 58.9131L50.3797 58.9158Z" fill="white"></path>
<path d="M26.0412 82.5278C25.6493 88.1717 25.2574 93.8128 24.8543 99.4566C22.0717 101.008 20.6721 101.796 17.8616 103.4C16.8594 103.469 16.3611 103.505 15.359 103.571C15.0958 106.434 14.9643 107.856 14.7011 110.684C12.9627 110.844 12.095 110.923 10.3594 111.081C11.2664 101.565 12.1593 92.0463 13.0355 82.5278C17.3689 82.5278 21.705 82.5278 26.0384 82.5278H26.0412ZM21.3523 87.954C19.5328 87.987 18.623 88.0036 16.8006 88.0366C16.4983 91.3463 16.196 94.656 15.888 97.9657C16.8006 97.9189 17.2541 97.8969 18.1667 97.85C19.1884 97.2658 19.6979 96.9764 20.7169 96.4005C20.9716 93.0494 21.0976 91.3601 21.3523 87.9512V87.954Z" fill="white"></path>
<path d="M40.8508 82.8416C40.5344 91.4672 40.2069 100.09 39.8682 108.713C38.0934 108.878 37.2088 108.961 35.4369 109.124C35.5432 106.836 35.5936 105.687 35.7 103.369C33.8021 104.419 32.8475 104.951 30.9327 106.026C30.8376 107.445 30.7928 108.154 30.6976 109.562C28.9144 109.727 28.0215 109.81 26.2383 109.975C26.8989 100.936 27.54 91.8971 28.167 82.8554C32.3968 82.8499 36.6238 82.8444 40.8535 82.8389L40.8508 82.8416ZM35.9351 98.0756C36.0835 94.7411 36.2319 91.4094 36.3774 88.0749C34.6614 88.1079 33.8021 88.1245 32.0861 88.1603C31.8229 92.3188 31.557 96.4772 31.2883 100.636C33.1554 99.5996 34.0848 99.087 35.9379 98.0756H35.9351Z" fill="white"></path>
<path d="M56.2627 82.522C56.1871 86.8926 56.1031 91.2633 56.0136 95.634C54.4179 97.2296 53.6145 98.0343 51.9965 99.6602C53.5082 101.159 54.2724 101.892 55.8092 103.331C55.8288 104.8 55.8372 105.533 55.8568 106.985C54.4235 107.117 53.7069 107.183 52.2737 107.313C50.1266 105.219 49.0684 104.138 46.9745 101.912C46.8934 104.276 46.8514 105.45 46.7674 107.781C44.9786 107.947 44.0856 108.027 42.2969 108.192C42.7028 99.6354 43.0891 91.0814 43.4558 82.522C47.7248 82.522 51.9937 82.522 56.2655 82.522H56.2627ZM51.8734 87.4659C50.1294 87.4989 49.2588 87.5155 47.5148 87.5485C47.3888 91.0539 47.2601 94.562 47.1285 98.0674C48.9733 96.3312 49.8886 95.4714 51.7026 93.7738C51.7726 91.2716 51.8062 90.0094 51.8762 87.4686L51.8734 87.4659Z" fill="white"></path>
<path d="M71.2893 82.814C71.5216 90.7176 71.7483 98.6212 71.9583 106.528C70.1779 106.365 69.2849 105.985 67.5018 106.15C67.4654 104.127 67.4458 103.108 67.4066 101.055C65.5562 102.003 64.6269 102.482 62.7569 103.455C62.7485 104.714 62.7429 105.343 62.7345 106.594C60.9402 106.759 60.0416 106.844 58.25 107.01C58.3872 98.9464 58.5019 90.883 58.6027 82.8196C62.8325 82.814 67.0595 82.8058 71.2893 82.814ZM67.317 96.3615C67.247 92.8561 67.2134 91.0786 67.1379 87.4741C65.4191 87.441 64.5597 87.5154 62.8409 87.5512C62.8269 91.255 62.8101 94.9588 62.7905 98.6626C64.6101 97.7284 65.5142 97.0725 67.317 96.3615Z" fill="white"></path>
<path d="M86.3908 82.5247C86.8163 89.7559 87.2334 96.9871 87.6449 104.218C84.7476 105.381 83.2891 105.941 80.3442 107.013C77.9732 106.798 76.7891 106.693 74.4153 106.478C74.2557 98.4917 74.071 90.5082 73.875 82.522C78.046 82.522 82.2198 82.522 86.3908 82.522V82.5247ZM83.1016 100.917C82.8804 96.4359 82.6565 91.955 82.4297 87.4741C80.7697 87.4438 79.9411 87.4273 78.2839 87.397C78.4435 92.4869 78.5975 97.5796 78.7458 102.67C80.4982 101.986 81.3688 101.633 83.1044 100.917H83.1016Z" fill="white"></path>
<path d="M88.9102 82.4834H93.1595C93.6998 91.0925 94.2261 99.6988 94.7384 108.311C92.9524 108.151 92.0566 108.068 90.2706 107.908C89.8339 99.4342 89.3804 90.9602 88.913 82.4862L88.9102 82.4834Z" fill="white"></path>
<path d="M108.851 82.5273C109.05 84.6989 109.148 85.7764 109.341 87.9232C105.702 87.857 103.879 87.824 100.237 87.7578C100.411 90.0148 100.498 91.1364 100.668 93.3631C104.165 93.4926 105.912 93.5588 109.405 93.691C109.887 99.0483 110.365 104.406 110.836 109.763C106.295 109.352 101.755 108.944 97.214 108.534C97.0713 106.577 96.9985 105.593 96.8501 103.615C100.492 103.882 102.312 104.014 105.951 104.282C105.766 102.08 105.671 100.972 105.48 98.7396C101.962 98.5467 100.201 98.4503 96.6794 98.2574C96.3182 93.0131 95.9543 87.7688 95.582 82.5273C100.005 82.5273 104.425 82.5273 108.848 82.5273H108.851Z" fill="white"></path>
<path d="M122.137 82.4834C122.347 84.7707 122.451 85.9061 122.658 88.1631C119.926 88.1135 118.557 88.0887 115.825 88.0391C116.038 90.2134 116.144 91.2964 116.354 93.4459C119.05 93.5424 120.396 93.5892 123.089 93.6857C123.305 95.9151 123.408 97.0229 123.618 99.2276C120.925 99.0843 119.576 99.0126 116.88 98.8693C117.11 101.256 117.224 102.444 117.451 104.8C120.13 104.993 121.468 105.089 124.144 105.282C124.352 107.572 124.452 108.707 124.654 110.967C120.948 110.634 117.241 110.3 113.535 109.967C112.715 100.82 111.881 91.6739 111.035 82.5275C114.736 82.5137 118.437 82.4999 122.137 82.4834Z" fill="white"></path>
</g>
<defs>
<clipPath id="clip0_1165_18703">
<rect width="135.848" height="122.958" fill="white"></rect>
</clipPath>
</defs>
</svg>