<svg width="68" height="101" viewBox="0 0 68 101" fill="none" xmlns="http://www.w3.org/2000/svg">
<g clip-path="url(#clip0_1165_18595)">
<path d="M13.7924 53.7843C14.8392 52.934 15.8514 52.0113 16.8454 51.0605V16.6925H39.586C45.6494 16.6925 50.583 21.5933 50.583 27.6017V58.3393C51.1875 58.6087 51.79 58.8861 52.3965 59.1313C57.2591 61.0913 62.3143 62.3074 67.4284 62.7617V27.6017C67.4284 12.3646 54.9627 0 39.586 0H0V61.7586C5.07148 59.7967 9.70479 57.1252 13.7924 53.7843Z" fill="white"></path>
<path d="M37.528 41.7352C41.0168 41.7352 43.845 38.9326 43.845 35.4755C43.845 32.0184 41.0168 29.2158 37.528 29.2158C34.0392 29.2158 31.2109 32.0184 31.2109 35.4755C31.2109 38.9326 34.0392 41.7352 37.528 41.7352Z" fill="white"></path>
<path d="M65.5377 82.5398C61.5049 92.842 51.4025 100.153 39.5819 100.153H0V66.77C6.38804 64.5307 11.9728 61.7345 16.8414 57.7504C20.2616 54.9743 24.0408 51.955 26.7794 48.4131C26.5441 49.589 26.4224 50.5017 26.396 51.4887C26.3839 51.8424 26.3839 52.1781 26.4021 52.5078C26.607 58.6429 30.5567 60.8621 31.859 61.9757C33.3135 63.2221 39.0829 67.1117 38.6487 69.5903C38.6427 69.6667 38.6224 69.7431 38.5919 69.8174C38.5656 69.8938 38.5351 69.9762 38.4905 70.0506C38.452 70.127 38.4013 70.2034 38.3445 70.2717C38.312 70.316 38.2735 70.3542 38.2288 70.3923C38.172 70.4426 38.1132 70.4868 38.0503 70.525C37.4052 70.9994 36.3787 70.9552 35.2285 70.7723C35.2225 70.7723 35.2164 70.7723 35.2103 70.7662C35.05 70.7401 34.8857 70.71 34.7194 70.6778C34.4962 70.6396 34.2731 70.5954 34.0499 70.5451C33.7619 70.4888 33.4819 70.4305 33.1939 70.3743C33.0214 70.3421 32.8551 70.3119 32.6827 70.2798C31.3296 70.0386 30.0536 69.938 29.2239 70.513C28.7005 70.8728 28.3496 71.4939 28.2725 72.5111C28.1386 74.1876 30.4431 75.9827 33.6523 77.5265C37.1232 79.203 41.6612 80.594 45.3248 81.2453C45.5683 81.2835 45.8036 81.3217 46.0328 81.3599H46.045C55.4901 82.8514 65.5357 82.5419 65.5357 82.5419L65.5377 82.5398Z" fill="white"></path>
<path d="M67.4274 66.7681V72.5473C67.4274 76.0752 66.764 79.4402 65.5388 82.5399C65.5388 82.5399 55.4932 82.8495 46.0481 81.3579H46.0359C45.8067 81.3197 45.5693 81.2815 45.3279 81.2433C41.6643 80.592 37.1263 79.201 33.6554 77.5245C30.4461 75.9807 28.1417 74.1856 28.2756 72.5091C28.3526 71.49 28.7036 70.8708 29.227 70.511C30.0567 69.9361 31.3326 70.0366 32.6857 70.2778C32.8581 70.31 33.0245 70.3401 33.1969 70.3723C33.485 70.4286 33.7649 70.4869 34.053 70.5432C34.2761 70.5934 34.4993 70.6376 34.7224 70.6758C34.8888 70.714 35.0551 70.7462 35.2133 70.7643C35.2194 70.7703 35.2255 70.7703 35.2316 70.7703C36.3798 70.9532 37.4083 70.9975 38.0534 70.5231C38.1163 70.4849 38.1751 70.4407 38.2319 70.3904C38.2765 70.3522 38.3151 70.314 38.3475 70.2698C38.4043 70.1994 38.455 70.1251 38.4936 70.0487C38.5382 69.9723 38.5707 69.8899 38.595 69.8155C38.6275 69.7391 38.6457 69.6627 38.6518 69.5883C39.0859 67.1098 33.3166 63.2201 31.8621 61.9738C30.5598 60.8602 26.6101 58.6409 26.4052 52.5059C26.3869 52.1762 26.3869 51.8425 26.3991 51.4867C26.4255 50.4997 26.5452 49.5871 26.7825 48.4111C34.1848 55.4307 42.0801 59.3224 50.588 62.7557C55.9415 64.9127 61.5465 66.2836 67.4294 66.7661L67.4274 66.7681Z" fill="#BDBDBD"></path>
</g>
<defs>
<clipPath id="clip0_1165_18595">
<rect width="67.4284" height="100.151" fill="white"></rect>
</clipPath>
</defs>
</svg>