<svg width="140" height="72" viewBox="0 0 140 72" fill="none" xmlns="http://www.w3.org/2000/svg">
<path d="M133.678 16.4204C137.375 11.4322 139.608 5.94887 139.555 0L72.8811 24.1871C71.1261 24.601 70.327 31.8431 69.7819 33.8679C69.4383 32.3308 69.0201 25.0591 66.8021 24.2315L0.000895225 0C-0.0513808 5.94887 2.18902 11.4322 5.87821 16.4204C7.27472 16.9598 11.5912 18.4304 16.662 18.157C16.662 18.157 13.2118 19.6202 9.1716 20.3444C13.6823 25.1626 19.4924 29.4635 25.7132 33.225C27.8117 33.2989 31.7324 33.1954 35.5635 31.8357C35.5635 31.8357 33.2335 33.964 30.0222 35.708C48.7893 46.0391 69.4757 51.5741 69.7744 51.6554C70.0731 51.5741 90.752 46.0317 109.527 35.708C106.315 33.964 103.985 31.8357 103.985 31.8357C107.816 33.2028 111.737 33.2989 113.836 33.225C120.064 29.4709 125.867 25.17 130.377 20.3444C126.337 19.6202 122.887 18.157 122.887 18.157C127.95 18.423 132.274 16.9598 133.671 16.4204H133.678Z" fill="white"></path>
<path d="M78.8246 51.6484L69.7734 54.5157L60.7222 51.6484L57.3242 67.788C57.3242 67.788 64.262 65.0168 64.7773 60.738V70.0271L69.7659 71.978L74.7545 70.0271V60.738C75.2698 65.0168 82.2076 67.788 82.2076 67.788L78.8096 51.6484H78.8246Z" fill="#7E7E7E"></path>
<path d="M60.4414 8.75C64.9595 10.5088 66.3934 14.5067 66.0349 19.8201C64.9819 15.2827 63.227 11.4769 60.4414 8.75Z" fill="#7E7E7E"></path>
<path d="M79.0328 8.75C74.5147 10.5088 73.0808 14.5067 73.4393 19.8201C74.4922 15.2827 76.2472 11.4769 79.0328 8.75Z" fill="#7E7E7E"></path>
<path d="M67.4609 19.828L69.8134 6.16406L72.0164 19.828C70.8365 19.0077 69.4176 18.7712 67.4609 19.828Z" fill="#7E7E7E"></path>
</svg>