<svg width="183" height="87" viewBox="0 0 183 87" fill="none" xmlns="http://www.w3.org/2000/svg">
<path d="M158.921 86.88H0L23.3567 0H182.278L158.921 86.88Z" fill="white"></path>
<path d="M159.873 14.8516L151.334 46.6142L131.789 46.5387L140.307 14.8516H159.873Z" fill="#141414"></path>
<path d="M133.787 14.8516H120.741L113.926 40.202H126.972L128.678 33.8515L122.155 33.8584L125.561 21.1917H132.084L133.787 14.8516Z" fill="#141414"></path>
<path d="M128.678 33.8672L102.586 33.8809L100.883 40.2176H126.971L128.678 33.8672Z" fill="#141414"></path>
<path d="M81.6089 14.8516H101.174L94.3589 40.202H68.25L69.9771 33.8652H89.5424L92.9484 21.1917H79.9025L81.6089 14.8516Z" fill="#141414"></path>
<path d="M48.7055 40.1917H29.1367L32.6012 27.3125L52.1115 27.5182L48.7055 40.1917Z" fill="#141414"></path>
<path d="M35.953 14.8516L34.25 21.1917H40.7729L42.4759 14.8516H35.953Z" fill="#141414"></path>
<path d="M48.9994 14.8516L47.293 21.1917H53.8159L55.5189 14.8516H48.9994Z" fill="#141414"></path>
<path d="M66.5663 46.5391L64.8633 52.8758H71.3828L73.0892 46.5391H66.5663Z" fill="#141414"></path>
<path d="M144.462 25.75L143.041 31.0409L141.617 36.3318L148.488 31.0409L144.462 25.75Z" fill="white"></path>
<path d="M79.7031 46.6256L77.9141 52.8594H143.137L145.049 46.6016L79.7031 46.6256Z" fill="#141414"></path>
<path d="M88.1322 14.8516L81.3203 40.202L90.9637 37.0268L98.9522 16.0757L88.1322 14.8516Z" fill="#141414"></path>
<path d="M126.273 14.8516H114.222L107.406 40.202L119.386 37.5205L126.273 14.8516Z" fill="#141414"></path>
<path d="M65.2662 27.5312L58.4577 52.8508H51.8281L58.7433 27.5312H65.2662Z" fill="#141414"></path>
<path d="M62.0389 14.8516L60.3359 21.1917H66.8589L68.5619 14.8516H62.0389Z" fill="#141414"></path>
<path d="M146.519 40.2656L144.812 46.6024H151.335L153.038 40.2656H146.519Z" fill="#141414"></path>
<path d="M58.4562 52.8484H25.7383L27.4344 46.5391H60.197L58.4562 52.8484Z" fill="#141414"></path>
<path d="M36.6743 59.75L33.6881 70.8496H30.9048L32.5837 64.6054L29.5149 70.8496H27.4266L27.7122 64.6054L26.0333 70.8496H23.25L26.2362 59.75H29.7867L29.5906 66.6868L33.1273 59.75H36.6778H36.6743Z" fill="#141414"></path>
<path d="M56.4257 59.75L53.4395 70.8496H45.7812L48.7675 59.75H51.5507L49.3111 68.0756H51.3994L53.639 59.75H56.4223H56.4257Z" fill="#141414"></path>
<path d="M67.679 68.0756H69.0723L71.312 59.75H74.0953L71.109 70.8496H65.5391L67.6755 68.0756H67.679Z" fill="#141414"></path>
<path d="M88.9804 59.75L85.9942 70.8496H83.2109L86.1972 59.75H88.9804Z" fill="#141414"></path>
<path d="M108.738 59.75L107.93 62.7469L102.081 68.0756H106.495L105.752 70.8496H98.0938L98.9022 67.8527L104.806 62.524H100.337L101.083 59.75H108.738Z" fill="#141414"></path>
<path d="M120.931 70.1491L120.639 70.8418H117.855L122.93 59.7422H126.412L125.514 70.8418H122.73L122.813 70.1491H120.935H120.931ZM123.143 67.3751L123.56 63.905L122.097 67.3751H123.14H123.143Z" fill="#141414"></path>
<path d="M140.596 59.75H143.379L142.257 63.9128H144.346L145.467 59.75H148.25L145.264 70.8496H142.481L143.603 66.6868H141.514L140.393 70.8496H137.609L140.596 59.75Z" fill="#141414"></path>
<path d="M133.107 41.6182L131.789 46.5285L131.211 49.3506H135.783L145.048 46.5799L134.259 39.0156L133.107 41.6182Z" fill="#141414"></path>
</svg>