<svg width="93" height="89" viewBox="0 0 93 89" fill="none" xmlns="http://www.w3.org/2000/svg">
<path d="M30.6617 12.4687C27.2159 16.8028 23.9609 20.8937 17.4872 20.8937C13.9408 20.8937 11.3629 19.663 9.18788 17.8394C9.02073 17.7007 8.77002 17.7263 8.64359 17.9012C8.29858 18.3747 7.96215 18.8568 7.63429 19.3431C7.52715 19.5009 7.55715 19.7185 7.70501 19.84C10.2036 21.9133 13.2529 23.3658 17.4872 23.3658C25.1609 23.3658 28.9474 18.6051 32.6074 14.0022C36.0531 9.66812 39.3082 5.57717 45.7818 5.57717C52.2554 5.57717 55.5105 9.67026 58.9584 14.0022C62.6205 18.6051 66.4049 23.3658 74.0807 23.3658C78.5014 23.3658 81.6279 21.781 84.1865 19.5628C84.33 19.4391 84.3558 19.2258 84.2486 19.0701C83.9186 18.5859 83.5779 18.1081 83.2308 17.6367C83.1 17.4597 82.845 17.4384 82.68 17.5834C80.4429 19.5478 77.7921 20.898 74.0807 20.898C67.607 20.898 64.352 16.8049 60.9041 12.4729C57.2419 7.87007 53.4576 3.10938 45.7818 3.10938C38.106 3.10938 34.3217 7.87007 30.6617 12.4729V12.4687Z" fill="white"></path>
<path d="M17.4893 31.6454C25.0644 31.6454 28.8294 27.4371 32.4723 23.3675C35.9395 19.4941 39.2138 15.834 45.786 15.834C52.3582 15.834 55.6347 19.4941 59.0997 23.3675C62.7426 27.4371 66.5076 31.6454 74.0827 31.6454C80.5671 31.6454 84.2592 28.5612 87.4735 25.1208C87.5786 25.0077 87.6043 24.8392 87.5357 24.7006C87.3021 24.2249 87.0578 23.7514 86.8071 23.2843C86.685 23.0582 86.3743 23.022 86.2007 23.2118C83.1321 26.5562 79.8985 29.4208 74.0827 29.4208C67.5084 29.4208 64.234 25.7607 60.769 21.8873C57.1261 17.8176 53.3611 13.6094 45.786 13.6094C38.2109 13.6094 34.4459 17.8176 30.803 21.8873C27.3358 25.7607 24.0615 29.4208 17.4893 29.4208C11.8728 29.4208 8.66708 26.7482 5.68848 23.5531C5.51276 23.3654 5.1999 23.4038 5.08205 23.6299C4.83562 24.0991 4.59776 24.5726 4.36847 25.0504C4.30204 25.189 4.32775 25.3575 4.4349 25.4706C7.57207 28.766 11.2278 31.6433 17.4893 31.6433V31.6454Z" fill="white"></path>
<path d="M12.2094 13.5857C12.0315 13.7756 12.1001 14.0912 12.3422 14.1851C13.8487 14.7631 15.5416 15.0937 17.483 15.0937C25.2617 15.0937 29.0653 9.78059 32.7424 4.64024C33.7089 3.2901 34.6603 1.96555 35.6718 0.754047C35.8968 0.483165 35.646 0.077909 35.301 0.15896C34.206 0.419177 33.1282 0.715654 32.0653 1.05052C31.9881 1.07399 31.9217 1.12304 31.8724 1.18703C31.4139 1.80771 30.966 2.43479 30.5181 3.05974C27.0895 7.84816 23.8516 12.3721 17.4809 12.3721C16.2594 12.3721 15.158 12.1972 14.1444 11.8943C14.0137 11.8559 13.8744 11.8879 13.7758 11.9818C13.2401 12.5022 12.7151 13.0354 12.2051 13.5815L12.2094 13.5857Z" fill="white"></path>
<path d="M58.8211 4.63156C62.4983 9.76978 66.304 15.085 74.0805 15.085C76.1848 15.085 77.9956 14.6947 79.5942 14.025C79.8299 13.9269 79.892 13.6154 79.7163 13.4299C79.2106 12.8924 78.692 12.3677 78.1606 11.8558C78.0599 11.7598 77.9141 11.7278 77.7813 11.7726C76.6691 12.1501 75.4498 12.3677 74.0784 12.3677C67.7076 12.3677 64.4697 7.84375 61.0411 3.05533C60.5461 2.36213 60.0468 1.6668 59.5368 0.982127C59.4875 0.916006 59.419 0.866949 59.3397 0.843487C58.2854 0.527814 57.2182 0.250533 56.1339 0.00951272C55.7889 -0.0672726 55.5446 0.337983 55.7718 0.606732C56.8261 1.85449 57.8139 3.23236 58.8189 4.6337L58.8211 4.63156Z" fill="white"></path>
<path d="M2.91124 51.3972C6.48342 53.8928 10.1777 56.4736 17.4871 56.4736C24.7965 56.4736 28.4908 53.8928 32.063 51.3972C35.603 48.9252 38.9459 46.5896 45.7838 46.5896C52.6217 46.5896 55.9668 48.9252 59.5047 51.3972C63.0768 53.8928 66.7712 56.4736 74.0805 56.4736C81.3899 56.4736 85.0842 53.8928 88.6585 51.3972C89.7021 50.6678 90.7285 49.9533 91.8321 49.3027C91.935 49.243 92.0035 49.1363 92.0143 49.019C92.0421 48.7183 92.0657 48.4175 92.0871 48.1168C92.1086 47.8246 91.7914 47.6241 91.5343 47.767C90.1907 48.5178 88.9907 49.356 87.8014 50.1857C84.2613 52.6578 80.9184 54.9934 74.0784 54.9934C67.2383 54.9934 63.8954 52.6578 60.3575 50.1857C56.7853 47.6902 53.091 45.1094 45.7817 45.1094C38.4723 45.1094 34.778 47.6902 31.2058 50.1857C27.6658 52.6578 24.3229 54.9934 17.485 54.9934C10.647 54.9934 7.30414 52.6578 3.7641 50.1857C2.73552 49.4669 1.69408 48.7439 0.560501 48.0741C0.303355 47.9227 -0.0223621 48.1253 0.0012096 48.4218C0.0247813 48.729 0.0504958 49.0361 0.0783532 49.3411C0.0890676 49.4563 0.155497 49.5587 0.254069 49.6205C1.16479 50.1836 2.03052 50.7872 2.9091 51.3994L2.91124 51.3972Z" fill="white"></path>
<path d="M3.03452 60.7177C6.58098 62.6992 10.2496 64.749 17.4861 64.749C24.7226 64.749 28.3912 62.6992 31.9377 60.7177C35.5034 58.7256 38.8699 56.8443 45.7828 56.8443C52.6957 56.8443 56.0622 58.7256 59.6279 60.7177C63.1765 62.6992 66.843 64.749 74.0816 64.749C81.3203 64.749 84.9867 62.6992 88.5353 60.7177C88.8461 60.545 89.1546 60.3722 89.4653 60.2016C89.5468 60.1568 89.6068 60.0864 89.6368 59.9989C89.7182 59.7686 89.7975 59.5382 89.8746 59.3057C89.9818 58.9837 89.6411 58.7 89.3432 58.86C88.8632 59.118 88.3939 59.3804 87.9268 59.6406C84.361 61.6328 80.9946 63.514 74.0816 63.514C67.1687 63.514 63.8022 61.6328 60.2365 59.6406C56.6879 57.6591 53.0214 55.6094 45.7828 55.6094C38.5441 55.6094 34.8777 57.6591 31.3312 59.6406C27.7655 61.6328 24.399 63.514 17.4861 63.514C10.5732 63.514 7.2067 61.6328 3.6431 59.6406C3.37738 59.4913 3.10952 59.342 2.83952 59.1948C2.53952 59.0306 2.19666 59.3185 2.30594 59.6406C2.40023 59.92 2.4988 60.1994 2.59952 60.4746C2.74523 60.5556 2.8888 60.6367 3.03452 60.7177Z" fill="white"></path>
<path d="M2.77802 42.0561C6.37377 45.0721 10.0938 48.1883 17.4846 48.1883C24.8754 48.1883 28.5954 45.07 32.1933 42.0561C35.7076 39.1106 39.0248 36.3292 45.7813 36.3292C52.5378 36.3292 55.8571 39.1106 59.3714 42.0561C62.9693 45.0721 66.6872 48.1883 74.0801 48.1883C81.4731 48.1883 85.191 45.07 88.7889 42.0561C89.7553 41.2456 90.7089 40.45 91.7225 39.7185C91.8317 39.6395 91.8896 39.5094 91.8746 39.3772C91.8296 39.0039 91.7825 38.6328 91.7289 38.2617C91.6903 37.9908 91.371 37.8521 91.146 38.0078C89.9074 38.8631 88.7803 39.8016 87.6703 40.7337C84.156 43.6793 80.8388 46.4606 74.0801 46.4606C67.3215 46.4606 64.0043 43.6793 60.49 40.7337C56.8921 37.7178 53.1742 34.6016 45.7813 34.6016C38.3884 34.6016 34.6705 37.7199 31.0726 40.7337C27.5583 43.6793 24.2411 46.4606 17.4846 46.4606C10.7281 46.4606 7.40878 43.6793 3.8966 40.7337C2.92373 39.9189 1.9423 39.0956 0.881572 38.3299C0.654426 38.1657 0.328709 38.3043 0.290137 38.5816C0.238708 38.957 0.191565 39.3367 0.15085 39.7142C0.13585 39.8443 0.191565 39.9723 0.296566 40.0512C1.143 40.6889 1.95515 41.3693 2.77802 42.0583V42.0561Z" fill="white"></path>
<path d="M2.64606 32.7101C6.26538 36.2507 10.009 39.9108 17.4898 39.9108C24.9706 39.9108 28.7142 36.2507 32.3335 32.7101C35.8221 29.2974 39.1178 26.0745 45.7865 26.0745C52.4551 26.0745 55.7509 29.2974 59.2395 32.7101C62.8588 36.2507 66.6024 39.9108 74.0832 39.9108C81.564 39.9108 85.3076 36.2507 88.929 32.7101C89.3019 32.3453 89.6748 31.9806 90.0476 31.6244C90.1505 31.5263 90.1891 31.3812 90.1462 31.2469C90.0091 30.8075 89.8676 30.3724 89.7176 29.9394C89.6298 29.6856 89.3019 29.6045 89.1069 29.7901C88.5755 30.2892 88.0548 30.7968 87.5383 31.3023C84.0497 34.715 80.754 37.9379 74.0853 37.9379C67.4167 37.9379 64.1209 34.715 60.6323 31.3023C57.013 27.7617 53.2694 24.1016 45.7886 24.1016C38.3078 24.1016 34.5642 27.7617 30.9449 31.3023C27.4563 34.715 24.1606 37.9379 17.4919 37.9379C10.8233 37.9379 7.52968 34.715 4.03893 31.3023C3.64678 30.9184 3.25035 30.5345 2.85177 30.1527C2.65463 29.965 2.32248 30.046 2.23677 30.302C2.09105 30.7392 1.94962 31.1807 1.81676 31.6244C1.77605 31.7566 1.81462 31.9017 1.91534 31.9977C2.15963 32.2344 2.40391 32.4733 2.65034 32.7122L2.64606 32.7101Z" fill="white"></path>
<path d="M60.1238 69.1125C56.6009 67.6366 52.958 66.1094 45.7836 66.1094C38.6093 66.1094 34.9664 67.6366 31.4435 69.1125C27.852 70.6184 24.462 72.0389 17.4869 72.0389C13.8162 72.0389 11.1397 71.6443 8.90255 71.0514C8.56183 70.9618 8.29611 71.3414 8.50183 71.6251C8.57469 71.7275 8.64969 71.8299 8.72469 71.9301C8.77612 72.0005 8.85112 72.0517 8.93683 72.073C11.1869 72.6404 13.8933 73.0265 17.4869 73.0265C24.6613 73.0265 28.3042 71.4993 31.8271 70.0233C35.4185 68.5174 38.8086 67.0969 45.7836 67.0969C52.7587 67.0969 56.1487 68.5174 59.7402 70.0233C63.2631 71.4993 66.906 73.0265 74.0803 73.0265C78.0146 73.0265 80.8861 72.5679 83.2583 71.9088C83.3397 71.8853 83.4126 71.8363 83.4618 71.7659C83.539 71.6614 83.614 71.5547 83.6911 71.4481C83.8969 71.1601 83.6226 70.7784 83.2818 70.8765C80.9204 71.5633 78.0939 72.0368 74.0803 72.0368C67.1074 72.0368 63.7152 70.6162 60.1238 69.1104V69.1125Z" fill="white"></path>
<path d="M74.5813 80.5652C74.5813 80.5652 74.5813 80.5652 74.5791 80.5652C74.4141 80.5652 74.2556 80.5695 74.0841 80.5695C67.0619 80.5695 63.4898 79.5713 60.0354 78.6072C56.534 77.6282 52.9125 76.6172 45.7853 76.6172C38.6581 76.6172 35.0388 77.6282 31.5373 78.6072C28.0851 79.5713 24.5151 80.5695 17.4972 80.5695C17.4972 80.5695 17.4972 80.5695 17.495 80.5695H17.4907C17.39 80.5695 17.3086 80.6527 17.3086 80.7529C17.3086 80.7977 17.3257 80.8361 17.3536 80.8681C17.3707 80.8809 17.3879 80.8958 17.405 80.9086C17.5465 81.0195 17.6879 81.1326 17.8293 81.2435C17.8379 81.2499 17.8443 81.2563 17.8529 81.2627C17.8829 81.2862 17.9193 81.3032 17.96 81.3054C17.9665 81.3054 17.9707 81.3054 17.9772 81.3054C24.7744 81.2606 28.3187 80.2752 31.7387 79.3196C35.1931 78.3555 38.7631 77.3573 45.7853 77.3573C52.8075 77.3573 56.3797 78.3555 59.834 79.3196C63.3355 80.2986 66.9569 81.3096 74.0841 81.3096C74.0906 81.3096 74.0949 81.3096 74.1013 81.3096C74.1484 81.3096 74.1913 81.2904 74.2234 81.2606C74.2277 81.2584 74.2299 81.2542 74.2341 81.252C74.382 81.139 74.5277 81.0217 74.6756 80.9044C74.6884 80.8937 74.7034 80.883 74.7184 80.8724C74.7484 80.8404 74.7677 80.7977 74.7677 80.7487C74.7677 80.6463 74.6841 80.5631 74.5834 80.5631L74.5813 80.5652Z" fill="white"></path>
<path d="M61.1628 88.1016H30.8968C30.8454 88.1016 30.8047 88.1421 30.8047 88.1933C30.8047 88.2338 30.8347 88.2637 30.8733 88.2765C30.8818 88.2786 30.8883 88.2871 30.899 88.2871C30.899 88.2871 30.899 88.2871 30.9011 88.2871C31.1604 88.3767 31.4176 88.4684 31.679 88.5516C31.7711 88.5815 31.8654 88.5964 31.9618 88.5964H60.1043C60.2007 88.5964 60.2971 88.5815 60.3871 88.5516C60.6464 88.4684 60.9014 88.3767 61.1586 88.2893C61.1778 88.2829 61.1971 88.2765 61.2143 88.2701C61.2378 88.253 61.2571 88.2295 61.2571 88.1975C61.2571 88.1464 61.2143 88.1037 61.1628 88.1037V88.1016Z" fill="white"></path>
</svg>