<svg width="107" height="91" viewBox="0 0 107 91" fill="none" xmlns="http://www.w3.org/2000/svg">
<path d="M89.7551 54.3365C95.5094 54.3365 100.174 49.6423 100.174 43.8518C100.174 38.0613 95.5094 33.3672 89.7551 33.3672C84.0007 33.3672 79.3359 38.0613 79.3359 43.8518C79.3359 49.6423 84.0007 54.3365 89.7551 54.3365Z" fill="#7E7E7E"></path>
<path d="M95.0834 20.5017C98.8121 20.5017 101.835 17.46 101.835 13.7079C101.835 9.95575 98.8121 6.91406 95.0834 6.91406C91.3547 6.91406 88.332 9.95575 88.332 13.7079C88.332 17.46 91.3547 20.5017 95.0834 20.5017Z" fill="#7E7E7E"></path>
<path d="M4.6143 39.7944C7.16271 39.7944 9.2286 37.7155 9.2286 35.1511C9.2286 32.5867 7.16271 30.5078 4.6143 30.5078C2.06589 30.5078 0 32.5867 0 35.1511C0 37.7155 2.06589 39.7944 4.6143 39.7944Z" fill="white"></path>
<path d="M29.4815 9.28661C32.0299 9.28661 34.0958 7.20773 34.0958 4.6433C34.0958 2.07888 32.0299 0 29.4815 0C26.9331 0 24.8672 2.07888 24.8672 4.6433C24.8672 7.20773 26.9331 9.28661 29.4815 9.28661Z" fill="white"></path>
<path d="M33.751 30.9663C36.2994 30.9663 38.3653 28.8874 38.3653 26.323C38.3653 23.7586 36.2994 21.6797 33.751 21.6797C31.2026 21.6797 29.1367 23.7586 29.1367 26.323C29.1367 28.8874 31.2026 30.9663 33.751 30.9663Z" fill="white"></path>
<path d="M52.2198 37.6538C54.7682 37.6538 56.8341 35.5749 56.8341 33.0105C56.8341 30.4461 54.7682 28.3672 52.2198 28.3672C49.6714 28.3672 47.6055 30.4461 47.6055 33.0105C47.6055 35.5749 49.6714 37.6538 52.2198 37.6538Z" fill="white"></path>
<path d="M82.5323 9.52879C85.0807 9.52879 87.1466 7.44992 87.1466 4.88549C87.1466 2.32107 85.0807 0.242188 82.5323 0.242188C79.9839 0.242188 77.918 2.32107 77.918 4.88549C77.918 7.44992 79.9839 9.52879 82.5323 9.52879Z" fill="white"></path>
<path d="M13.1402 28.8311C19.4827 28.8311 24.6242 23.6572 24.6242 17.2749C24.6242 10.8926 19.4827 5.71875 13.1402 5.71875C6.79781 5.71875 1.65625 10.8926 1.65625 17.2749C1.65625 23.6572 6.79781 28.8311 13.1402 28.8311Z" fill="#7E7E7E"></path>
<path d="M65.4801 28.3623C71.8225 28.3623 76.9641 23.1885 76.9641 16.8062C76.9641 10.4239 71.8225 5.25 65.4801 5.25C59.1377 5.25 53.9961 10.4239 53.9961 16.8062C53.9961 23.1885 59.1377 28.3623 65.4801 28.3623Z" fill="#7E7E7E"></path>
<path d="M84.4268 29.56C86.9752 29.56 89.0411 27.4812 89.0411 24.9167C89.0411 22.3523 86.9752 20.2734 84.4268 20.2734C81.8784 20.2734 79.8125 22.3523 79.8125 24.9167C79.8125 27.4812 81.8784 29.56 84.4268 29.56Z" fill="white"></path>
<path d="M101.716 32.8804C104.264 32.8804 106.33 30.8015 106.33 28.2371C106.33 25.6726 104.264 23.5938 101.716 23.5938C99.1675 23.5938 97.1016 25.6726 97.1016 28.2371C97.1016 30.8015 99.1675 32.8804 101.716 32.8804Z" fill="white"></path>
<path d="M82.5323 66.2475C85.0807 66.2475 87.1466 64.1687 87.1466 61.6042C87.1466 59.0398 85.0807 56.9609 82.5323 56.9609C79.9839 56.9609 77.918 59.0398 77.918 61.6042C77.918 64.1687 79.9839 66.2475 82.5323 66.2475Z" fill="white"></path>
<path d="M52.2198 90.7866C54.7682 90.7866 56.8341 88.7077 56.8341 86.1433C56.8341 83.5789 54.7682 81.5 52.2198 81.5C49.6714 81.5 47.6055 83.5789 47.6055 86.1433C47.6055 88.7077 49.6714 90.7866 52.2198 90.7866Z" fill="white"></path>
<path d="M21.9034 66.4897C24.4518 66.4897 26.5177 64.4109 26.5177 61.8464C26.5177 59.282 24.4518 57.2031 21.9034 57.2031C19.355 57.2031 17.2891 59.282 17.2891 61.8464C17.2891 64.4109 19.355 66.4897 21.9034 66.4897Z" fill="white"></path>
<path d="M37.6535 57.4302C43.4079 57.4302 48.0727 52.7361 48.0727 46.9456C48.0727 41.1551 43.4079 36.4609 37.6535 36.4609C31.8992 36.4609 27.2344 41.1551 27.2344 46.9456C27.2344 52.7361 31.8992 57.4302 37.6535 57.4302Z" fill="#7E7E7E"></path>
<path d="M64.0621 80.5342C70.4045 80.5342 75.5461 75.3603 75.5461 68.978C75.5461 62.5957 70.4045 57.4219 64.0621 57.4219C57.7197 57.4219 52.5781 62.5957 52.5781 68.978C52.5781 75.3603 57.7197 80.5342 64.0621 80.5342Z" fill="#7E7E7E"></path>
<path d="M66.4272 51.2282C70.1558 51.2282 73.1785 48.1866 73.1785 44.4344C73.1785 40.6823 70.1558 37.6406 66.4272 37.6406C62.6985 37.6406 59.6758 40.6823 59.6758 44.4344C59.6758 48.1866 62.6985 51.2282 66.4272 51.2282Z" fill="#7E7E7E"></path>
<path d="M13.142 54.3376C16.8707 54.3376 19.8934 51.2959 19.8934 47.5438C19.8934 43.7917 16.8707 40.75 13.142 40.75C9.41332 40.75 6.39062 43.7917 6.39062 47.5438C6.39062 51.2959 9.41332 54.3376 13.142 54.3376Z" fill="#7E7E7E"></path>
<path d="M37.2982 79.3611C41.0269 79.3611 44.0496 76.3194 44.0496 72.5672C44.0496 68.8151 41.0269 65.7734 37.2982 65.7734C33.5696 65.7734 30.5469 68.8151 30.5469 72.5672C30.5469 76.3194 33.5696 79.3611 37.2982 79.3611Z" fill="#7E7E7E"></path>
<path d="M43.4584 20.2595C47.1871 20.2595 50.2098 17.2178 50.2098 13.4657C50.2098 9.71357 47.1871 6.67188 43.4584 6.67188C39.7297 6.67188 36.707 9.71357 36.707 13.4657C36.707 17.2178 39.7297 20.2595 43.4584 20.2595Z" fill="#7E7E7E"></path>
</svg>