<svg width="93" height="90" viewBox="0 0 93 90" fill="none" xmlns="http://www.w3.org/2000/svg">
<path d="M46.8245 29.615C55.0343 29.2519 61.3874 22.4752 61.0146 14.4788C60.6418 6.48236 53.6842 0.294349 45.4745 0.657464C37.2647 1.02058 30.9116 7.79732 31.2844 15.7937C31.6572 23.7901 38.6147 29.9782 46.8245 29.615Z" fill="#7E7E7E"></path>
<path d="M41.2424 42.2116C30.2722 31.5265 12.3236 31.5265 1.3558 42.2116C-0.451934 43.9724 -0.451934 46.8282 1.3558 48.5914L22.8258 69.5034L46.0441 46.8885L41.2449 42.214L41.2424 42.2116Z" fill="#7E7E7E"></path>
<path d="M46.0391 89.0445C48.0301 89.0565 50.0235 88.3233 51.5415 86.8447L69.3019 69.5459L69.2573 69.5024L51.4524 86.8447C49.9567 88.3016 48.0003 89.0348 46.0391 89.0445Z" fill="#7E7E7E"></path>
<path d="M90.7327 42.2051C79.7179 31.4765 61.8609 31.4765 50.846 42.2051L46.0469 46.8796L69.2652 69.4945L90.7351 48.5824C92.5429 46.8217 92.5429 43.9659 90.7351 42.2027L90.7327 42.2051Z" fill="#7E7E7E"></path>
<path d="M22.8258 69.5024L22.7812 69.5459L40.5417 86.8447C42.0597 88.3233 44.0531 89.0565 46.0441 89.0445C44.0828 89.0324 42.1265 88.2992 40.6308 86.8447L22.8258 69.5024Z" fill="#7E7E7E"></path>
<path d="M22.8242 69.4924L40.6292 86.8346C42.1249 88.2915 44.0812 89.0247 46.0425 89.0344C48.0038 89.0223 49.9601 88.2891 51.4558 86.8346L69.2608 69.4924L46.0425 46.8774L22.8242 69.4924Z" fill="white"></path>
</svg>