<svg width="85" height="105" viewBox="0 0 85 105" fill="none" xmlns="http://www.w3.org/2000/svg">
<path d="M42.9062 100.508C43.3884 101.913 43.9128 103.387 44.4372 104.784H47.6429C45.9682 103.378 44.378 101.956 42.9062 100.508Z" fill="white"></path>
<path d="M40.3867 71.5024L40.5051 72.9333L43.7362 73.6275C43.0934 72.0612 42.5605 70.2662 42.6705 68.8438C41.6808 69.5042 40.3867 71.4939 40.3867 71.4939V71.5024Z" fill="white"></path>
<path d="M44.3555 91.6782C45.9625 94.6586 49.1682 99.5101 54.2178 102.601C51.7818 99.6117 48.5254 95.1327 46.5123 90.4844L44.3555 91.6782Z" fill="white"></path>
<path d="M45.5964 88.0553L43.5156 89.9943C43.5917 90.1636 43.6848 90.3499 43.7863 90.5531L45.9685 89.1137C45.8332 88.7581 45.7063 88.4025 45.5964 88.0469V88.0553Z" fill="white"></path>
<path d="M40.6016 93.4215C40.6016 93.4215 40.9737 94.6238 41.5489 96.4188C44.467 99.0774 48.527 102.6 52.1302 104.547C49.339 102.066 44.3486 97.2993 41.7265 92.7188L40.61 93.4215H40.6016Z" fill="white"></path>
<path d="M35.7785 97.708C35.5755 97.0137 33.9346 95.7098 33.9346 95.7098L34.1376 92.5009C31.4394 90.4519 25.3918 85.6596 23.5732 82.5777C23.5648 82.1289 24.4275 79.4957 24.4275 79.4957L22.6259 78.1071L24.2076 73.7721L25.2734 73.4165L24.5121 72.1041L25.8993 69.2169L27.7178 68.4718L30.3314 64.4246L32.6067 63.9759L35.7447 62.037L37.614 64.0182L38.9927 62.545C39.3987 62.2994 42.1223 61.8761 44.7443 62.5196C44.3552 65.339 46.0807 71.2405 46.0807 71.2405L47.654 73.2048L47.8316 75.7872C47.8316 75.7872 47.9585 76.617 48.8804 79.0046C49.1765 81.8072 47.8908 84.7367 47.138 86.1591C47.95 88.7839 50.995 95.8707 61.7032 104.769H84.9466L69.2734 60.3944C73.8831 57.3548 77.2833 53.841 79.474 49.8446C81.6647 45.8567 82.7643 40.4802 82.7643 33.7321C82.7643 22.1494 79.6686 13.6232 73.494 8.17056C67.311 2.72634 57.7024 0 44.6682 0H0V104.778H37.8847C36.5144 101.188 35.897 98.1229 35.7785 97.708Z" fill="white"></path>
<path d="M31.0683 78.5542C32.041 79.2061 33.2505 80.8148 33.7664 81.543L32.9714 82.8892L34.1978 83.2956L35.4158 81.8817L34.7561 81.2297L32.8107 77.1571L32.633 74.9219C32.633 74.9219 26.2809 79.3331 26.0609 79.6718C25.841 80.0105 25.1136 82.6437 25.3166 82.7453C25.4604 82.813 28.9029 80.2052 31.0683 78.5457V78.5542Z" fill="white"></path>
<path d="M24.7405 77.061C24.935 77.1287 30.2891 74.9019 31.7355 73.6827C32.4967 72.9884 32.2176 70.4568 31.9216 70.66C31.6255 70.8632 25.5186 74.7495 25.2733 74.9951C25.028 75.2406 24.5459 76.9932 24.7405 77.061Z" fill="white"></path>
<path d="M32.1336 68.0344C32.4635 67.5857 31.8968 65.3081 31.5246 65.4012C31.3639 65.5706 29.52 67.8566 28.0736 69.2028C27.38 69.8548 26.8302 70.3544 26.7034 70.4306C26.5004 70.8624 26.1028 72.0393 26.3989 72.1324C26.6864 72.2255 31.8037 68.4832 32.1336 68.0344Z" fill="white"></path>
<path d="M33.7304 70.3676L37.1814 74.4994L37.1645 73.3225L33.6289 67.7344L33.7304 70.3676Z" fill="white"></path>
<path d="M29.3669 82.8881L28.9609 82.7188L27.8359 83.4723C27.8359 83.4723 28.1066 83.7263 28.5549 84.1327L29.3669 82.8881Z" fill="white"></path>
<path d="M44.989 76.2884L40.4385 76.1953C39.9648 77.3299 39.0767 79.599 39.2797 80.2679C39.5588 81.1738 43.771 83.8579 43.771 83.8579C45.3358 82.3253 46.3 79.8869 46.2578 77.6601C46.2578 77.6601 45.3358 76.9404 44.989 76.2884Z" fill="white"></path>
<path d="M42.5626 84.937C42.5626 84.937 40.1436 82.6001 38.3758 82.8372C37.4284 82.9642 35.5253 83.9294 33.6561 84.683L30.2643 83.269L29.1562 84.683C31.1017 86.4018 34.6372 89.3482 36.0413 89.3059C37.3523 89.2636 42.5626 84.937 42.5626 84.937Z" fill="white"></path>
<path d="M42.5054 104.772C40.966 101.351 39.0883 96.7707 37.7603 92.1562L36.6016 92.8251C37.4728 97.6936 39.6973 101.749 41.9049 104.772H42.5139H42.5054Z" fill="white"></path>
<path d="M33.6151 74.528L37.1507 78.5921L37.1591 77.1612L33.4375 71.2344L33.6151 74.528Z" fill="white"></path>
<path d="M40.625 74.3203L40.6419 74.5151L44.6089 75.5395C44.4566 75.2347 44.3044 74.9045 44.1436 74.5574L40.6335 74.3203H40.625Z" fill="white"></path>
<path d="M39.3632 63.6356C39.2617 63.6864 38.3566 64.6009 37.3755 65.6592C38.2213 65.837 39.4478 66.3366 39.4816 66.743C39.5323 67.3018 38.4835 68.3094 37.8069 68.4533C37.5785 68.5041 35.9545 68.5041 35.2271 68.157C35.151 68.267 35.0748 68.3602 35.0156 68.4533C35.2355 69.2068 37.6377 69.6217 38.2044 69.5963C41.9091 67.4203 42.5266 64.1013 42.5266 64.1013C42.9157 63.2546 39.5662 63.534 39.3716 63.6272L39.3632 63.6356Z" fill="white"></path>
<path d="M34.0553 64.7106L34.4021 66.929C34.4021 66.929 35.95 65.3033 36.1699 65.0155C36.043 64.8546 35.4425 63.8047 35.4425 63.8047L34.0469 64.7106H34.0553Z" fill="white"></path>
<path d="M36.9381 66.1573C36.9381 66.1573 36.9127 66.1658 36.8958 66.1743C36.5067 66.5976 36.1346 67.0294 35.8047 67.4189C35.8047 67.4866 35.8301 67.5544 35.8724 67.5967C36.0584 67.783 37.4879 68.0454 37.8516 67.9354C38.2153 67.8253 38.9173 67.2919 38.9596 66.8431C38.9173 66.5299 37.4879 65.9795 36.9381 66.1488V66.1573Z" fill="white"></path>
<path d="M36.4063 56.8922C36.4063 56.8922 36.5078 53.1498 39.5866 51.7612C42.6654 50.3727 50.3625 50.8468 53.7035 43.3282C57.0445 35.8096 51.5043 31.3645 51.5043 31.3645C51.5043 31.3645 51.1914 39.806 42.657 41.1522C40.424 41.5078 38.893 43.0488 37.8527 45.3687C37.8527 45.3687 37.4805 41.2284 42.3017 39.298C42.9107 39.0524 48.0195 37.1897 49.3728 32.1858C49.9565 30.0437 49.5589 27.6306 48.5862 25.6155C46.3448 20.9756 39.815 18.4609 39.815 18.4609C39.815 18.4609 45.4651 22.9484 40.4832 28.2233C35.5013 33.5066 29.4959 35.7334 29.868 44.9454C30.2402 54.1658 36.4063 56.8837 36.4063 56.8837V56.8922Z" fill="#141414"></path>
<path d="M40.1361 23.3208C39.967 20.0102 35.3065 17.1484 35.3065 17.1484C35.3065 17.1484 37.5056 19.189 37.6579 23.3377C37.8017 27.2918 35.0273 31.2966 35.0273 31.2966C35.0273 31.2966 40.3391 27.3764 40.1361 23.3208Z" fill="#141414"></path>
<path d="M51.27 48.7031C47.8951 51.7173 42.1266 51.6835 39.6229 53.1482C37.1277 54.6215 37.5929 57.5934 37.5929 57.5934C37.5929 57.5934 37.9905 55.4258 43.0062 54.359C48.7325 53.1482 51.2615 48.7031 51.2615 48.7031H51.27Z" fill="#141414"></path>
<path d="M38.1211 57.9601C40.371 58.2056 43.1876 55.1406 43.1876 55.1406C38.8062 56.0974 38.1211 57.9601 38.1211 57.9601Z" fill="#141414"></path>
</svg>