<svg width="91" height="89" viewBox="0 0 91 89" fill="none" xmlns="http://www.w3.org/2000/svg">
<path d="M50.7998 2.05349L47.141 5.66354L45.0389 7.73757L42.9369 5.66354L39.278 2.05349H50.7956M55.8198 0H34.2539C38.4663 4.15627 40.8265 6.48493 45.0389 10.6412C49.2514 6.48493 51.6115 4.15627 55.8239 0H55.8198Z" fill="#BEBEBE"></path>
<path d="M45.0387 81.1536L47.1407 83.2277L50.7995 86.8377H39.2819L42.9408 83.2277L45.0428 81.1536M45.0428 78.25C40.8304 82.4063 38.4703 84.7349 34.2578 88.8912H55.8237C51.6112 84.7349 49.2511 82.4063 45.0387 78.25H45.0428Z" fill="#BEBEBE"></path>
<path d="M2.08124 38.7462L3.2176 39.8674L7.84213 44.4303L2.08124 50.1143V38.7503M0 33.7932V55.0715C4.21244 50.9152 6.57257 48.5865 10.785 44.4303C6.57257 40.274 4.21244 37.9453 0 33.7891V33.7932Z" fill="#BEBEBE"></path>
<path d="M88.0006 38.7503V50.1143L82.2398 44.4303L86.8643 39.8674L88.0006 38.7462M90.0819 33.7891C85.8694 37.9453 83.5093 40.274 79.2969 44.4303C83.5093 48.5865 85.8694 50.9152 90.0819 55.0715V33.7932V33.7891Z" fill="#BEBEBE"></path>
<path d="M90.0804 0H62.8244C55.8814 6.85046 51.9853 10.6946 45.0423 17.5451C38.0951 10.6946 34.2032 6.85046 27.256 0H0V26.8926C6.94303 33.743 10.8391 37.5872 17.7821 44.4376C10.8391 51.2881 6.94303 55.1322 0 61.9827V88.8752H27.256C34.199 82.0248 38.0951 78.1806 45.0381 71.3302C51.9811 78.1806 55.8772 82.0248 62.8203 88.8752H90.0762V61.9827C83.1332 55.1322 79.2371 51.2881 72.2941 44.4376C79.2371 37.5872 83.1332 33.743 90.0762 26.8926V0H90.0804ZM10.785 10.6412H5.39458V5.32266H10.785V10.6412ZM10.785 83.5608H5.39458V78.2422H10.785V83.5608ZM45.0423 51.9657L37.4166 44.4417L45.0423 36.9177L52.668 44.4417L45.0423 51.9657ZM79.2996 78.2422H84.69V83.5608H79.2996V78.2422ZM84.69 10.6412H79.2996V5.32266H84.69V10.6412Z" fill="white"></path>
</svg>