<svg width="106" height="133" viewBox="0 0 106 133" fill="none" xmlns="http://www.w3.org/2000/svg">
<path d="M12.2458 77.3527C8.29188 74.9671 4.57942 72.2359 1.1534 69.1952C0.614225 68.717 -0.21139 69.2726 0.0497739 69.9388C3.99251 79.9511 10.8614 88.526 19.623 94.6462C20.0246 94.9281 20.5076 94.425 20.2043 94.0435C16.5003 89.358 13.9926 83.9511 12.8328 78.182C12.7626 77.8364 12.5519 77.5351 12.2487 77.3527H12.2458Z" fill="#D3D3D3"></path>
<path d="M91.8719 78.1823C90.6347 83.9489 87.9594 89.3561 84.0079 94.0418C83.6843 94.4261 84.1996 94.9265 84.628 94.6473C93.975 88.5241 101.3 79.9516 105.506 69.9388C105.785 69.2726 104.904 68.717 104.329 69.1952C100.674 72.2333 96.7102 74.9673 92.4951 77.353C92.1685 77.5382 91.9438 77.8368 91.8719 78.1823Z" fill="#D3D3D3"></path>
<path d="M56.4437 110.149C56.5267 109.865 56.292 109.588 55.9914 109.611C54.9266 109.692 53.856 109.735 52.7768 109.735C51.6976 109.735 50.627 109.692 49.5622 109.611C49.2616 109.588 49.0269 109.862 49.1099 110.147C49.7454 112.321 50.2034 116.299 47.1748 120.459C43.256 125.841 50.3351 131.147 52.2959 132.467C52.5879 132.665 52.9686 132.665 53.2606 132.467C55.2214 131.147 62.3005 125.841 58.3817 120.459C55.3531 116.299 55.8111 112.324 56.4466 110.147L56.4437 110.149Z" fill="#D3D3D3"></path>
<path d="M39.2209 86.2039L41.6553 81.7064C42.0554 80.9667 42.0554 80.0619 41.6553 79.3221L36.7334 70.2299C36.3277 69.4783 35.5694 69.0156 34.7468 69.0156H24.8751C24.0524 69.0156 23.2941 69.4783 22.8884 70.2299L19.2537 76.9496C18.9711 77.4713 18.8759 78.0843 19.0074 78.6678C20.0092 83.1506 21.8055 87.3121 24.2287 90.9814C24.6568 91.6328 25.3619 92.0218 26.1118 92.0218H34.7468C35.5694 92.0218 36.3277 91.5591 36.7334 90.8075L39.2209 86.2128V86.2039Z" fill="white"></path>
<path d="M57.6856 51.4202C58.5178 51.4202 59.2858 50.9536 59.6964 50.2011L62.1679 45.6687L64.6534 41.113C65.0584 40.3721 65.0584 39.4622 64.6534 38.7184L59.6964 29.6332C59.2858 28.8778 58.5178 28.4141 57.6856 28.4141H47.8692C47.037 28.4141 46.269 28.8807 45.8584 29.6332L40.9014 38.7184C40.4964 39.4592 40.4964 40.3692 40.9014 41.113L43.3869 45.6658L45.8612 50.1982C46.2718 50.9536 47.0398 51.4173 47.872 51.4173H57.6884L57.6856 51.4202Z" fill="white"></path>
<path d="M59.7196 77.2791L64.6583 68.1768C65.0567 67.4399 65.0567 66.538 64.6583 65.801L62.2142 61.2971L59.7168 56.6958C59.3099 55.9472 58.5523 55.4844 57.7329 55.4844H47.8219C47.0025 55.4844 46.2449 55.9472 45.838 56.6958L43.3406 61.2971L40.8965 65.801C40.498 66.538 40.498 67.4399 40.8965 68.1768L45.8352 77.2791C46.2421 78.0278 46.9997 78.4905 47.8191 78.4905H57.7301C58.5495 78.4905 59.3071 78.0278 59.714 77.2791H59.7196Z" fill="white"></path>
<path d="M63.0492 26.8438L69.2353 37.0499C69.554 37.5773 70.1472 37.902 70.7936 37.902H78.9483C79.6448 37.902 80.0757 37.1887 79.7186 36.6252L63.5007 11.1448C63.1407 10.5786 62.2139 10.845 62.2552 11.5056C62.5533 16.0632 62.7334 20.8401 62.757 25.8141C62.757 26.1749 62.8603 26.533 63.0492 26.8466V26.8438Z" fill="#D3D3D3"></path>
<path d="M80.6886 69.0156H70.8113C69.9914 69.0156 69.2332 69.4783 68.8274 70.2299L63.9056 79.328C63.5054 80.0648 63.5054 80.9726 63.9056 81.7094L66.3399 86.2098L68.8274 90.8075C69.2332 91.5591 69.9914 92.0218 70.8113 92.0218H79.4518C80.2017 92.0218 80.904 91.6328 81.3322 90.9844C83.7553 87.3151 85.5517 83.1535 86.5534 78.6678C86.6849 78.0872 86.5898 77.4742 86.3072 76.9525L82.6697 70.2299C82.2639 69.4783 81.5056 69.0156 80.6858 69.0156H80.6886Z" fill="white"></path>
<path d="M71.1521 41.9561C70.2985 41.9561 69.5117 42.4188 69.0907 43.1733L66.5096 47.768L63.9169 52.3864C63.5017 53.1261 63.5017 54.0309 63.9169 54.7707L66.5096 59.389L68.9542 63.7421C69.3752 64.4936 70.1621 64.9593 71.0156 64.9593H81.5317C82.3853 64.9593 83.1721 64.4966 83.5931 63.7421L86.0378 59.389L87.6492 56.5184C87.9163 56.0409 88.0237 55.4869 87.9337 54.9446C87.5069 52.3746 86.813 49.8959 85.8839 47.5411C85.8404 47.4321 85.791 47.3259 85.7329 47.2228L83.4567 43.1703C83.0357 42.4188 82.2489 41.9531 81.3953 41.9531H71.1521V41.9561Z" fill="white"></path>
<path d="M34.784 96.0859H28.418C31.9123 98.9859 36.0383 101.302 40.5977 102.852L36.9386 97.1899C36.4961 96.506 35.6752 96.0859 34.784 96.0859Z" fill="white"></path>
<path d="M68.6161 97.1899L64.957 102.852C69.5134 101.299 73.6394 98.9859 77.1368 96.0859H70.7707C69.8796 96.0859 69.0587 96.5087 68.6161 97.1899Z" fill="white"></path>
<path d="M36.3224 37.0527L42.5084 26.8466C42.6973 26.533 42.7977 26.1749 42.8006 25.8141C42.8242 20.8401 43.0043 16.0632 43.3024 11.5056C43.3466 10.845 42.4199 10.5786 42.0569 11.1448L25.8392 36.6252C25.4821 37.1859 25.913 37.902 26.6095 37.902H34.7641C35.4075 37.902 36.0037 37.5773 36.3224 37.0499V37.0527Z" fill="#D3D3D3"></path>
<path d="M19.5207 59.3912L21.965 63.7419C22.3889 64.4936 23.1756 64.9593 24.0291 64.9593H34.541C35.3945 64.9593 36.1812 64.4936 36.6051 63.7419L39.0495 59.3912L41.6419 54.7723C42.057 54.0325 42.057 53.1246 41.6419 52.3848L39.0495 47.7658L36.4686 43.1705C36.0448 42.4189 35.2581 41.9531 34.4046 41.9531H24.1655C23.312 41.9531 22.5253 42.4189 22.1015 43.1705L19.8342 47.2087C19.7761 47.3119 19.7268 47.4151 19.6832 47.5241C18.7485 49.8852 18.0517 52.3671 17.625 54.9403C17.535 55.4827 17.6424 56.0398 17.9095 56.5173L19.5207 59.3883V59.3912Z" fill="white"></path>
<path d="M58.1744 23.3355L53.6444 0.689259C53.4619 -0.229753 52.0961 -0.229753 51.9106 0.689259L47.3836 23.327C47.2776 23.8574 47.6985 24.351 48.2607 24.351L57.2972 24.3595C57.8594 24.3595 58.2833 23.8659 58.1773 23.3355H58.1744Z" fill="#D3D3D3"></path>
<path d="M62.0017 88.1482L59.469 83.673C59.0745 82.9757 58.3456 82.5469 57.5595 82.5469H46.6483C45.8594 82.5469 45.1333 82.9757 44.7388 83.673L42.2061 88.1482L39.542 92.8538C39.1475 93.5511 39.1475 94.4088 39.542 95.106L44.5273 103.919C44.8589 104.506 45.4335 104.902 46.0852 105.019C48.0376 105.369 50.05 105.553 52.1025 105.553C54.1549 105.553 56.1674 105.369 58.1198 105.019C58.7744 104.902 59.3461 104.506 59.6777 103.919L64.663 95.106C65.0575 94.4088 65.0575 93.5511 64.663 92.8538L62.0017 88.1482Z" fill="white"></path>
</svg>