<svg width="144" height="109" viewBox="0 0 144 109" fill="none" xmlns="http://www.w3.org/2000/svg">
<path d="M51.5039 20.2812L52.1257 21.7845L51.5039 20.2812Z" fill="white"></path>
<path d="M10.9391 22.17L48.7586 23.3939L47.4215 20.1512L11.0415 18.9742C10.9229 18.9706 10.8043 18.9688 10.6875 18.9688V22.1664C10.772 22.1664 10.8546 22.1664 10.9391 22.17Z" fill="white"></path>
<path d="M135.975 23.0153L107.835 22.1051L106.586 25.2631L135.873 26.2112C137.048 26.249 138.24 26.8943 139.142 27.983C140.244 29.3115 140.75 31.0851 140.501 32.7254L133.186 80.7096C132.787 83.3322 131.046 85.2501 128.954 85.3763L20.1195 91.9085C19.9757 91.9175 19.8302 91.9211 19.6864 91.9211C16.6348 91.9211 14.2194 89.9149 13.6731 86.9282L3.28189 30.0379C2.9566 28.2624 3.46879 26.4545 4.71962 24.9494C6.16813 23.2064 8.39661 22.1664 10.6844 22.1664V18.9688C4.26314 18.9688 -0.954027 24.5835 0.147634 30.6147L10.5406 87.505C11.3709 92.0509 15.109 95.1187 19.69 95.1187C19.8967 95.1187 20.1033 95.1133 20.3136 95.1007L129.148 88.5685C132.766 88.3522 135.715 85.3024 136.34 81.1945L143.655 33.2103C144.424 28.1597 140.661 23.1686 135.979 23.0172L135.975 23.0153Z" fill="white"></path>
<path d="M85.4205 24.4927L87.764 2.83397C87.8269 2.25537 87.4549 1.69479 86.8996 1.53076C84.2488 0.743072 81.4668 0.240176 78.5859 0.0671366C75.6835 -0.107705 72.8386 0.0617291 70.0871 0.542995C69.5066 0.643935 69.1167 1.17207 69.1832 1.7741L71.6291 24.1034C71.6938 24.7018 72.1934 25.1669 72.7865 25.1831L84.3009 25.4931C84.876 25.5094 85.3576 25.0786 85.4205 24.4945V24.4927Z" fill="white"></path>
<path d="M101.145 28.9113L106.756 14.7221C106.939 14.2588 106.755 13.7109 106.335 13.4477C104.701 12.4293 102.937 11.5749 101.051 10.917C99.1571 10.2573 97.2431 9.83011 95.3363 9.62282C94.8403 9.56874 94.4018 9.90942 94.3173 10.4141L91.7564 25.8633C91.6719 26.3716 91.972 26.8727 92.4519 27.0277L99.9946 29.4665C100.464 29.6179 100.958 29.3782 101.145 28.9095V28.9113Z" fill="white"></path>
<path d="M54.6118 27.8323L48.1726 12.2263C47.9587 11.709 48.1726 11.1358 48.6632 10.8924C50.5538 9.95875 52.5792 9.22334 54.7178 8.71864C56.8439 8.21574 58.9717 7.96519 61.069 7.94537C61.61 7.93996 62.0898 8.34011 62.1797 8.87726L64.9455 25.1358C65.0354 25.6675 64.7137 26.1704 64.1997 26.3056L55.9058 28.4794C55.3792 28.6182 54.8203 28.3388 54.6118 27.8323Z" fill="white"></path>
<path d="M37.0542 53.5273L33.273 53.5633C32.732 52.9306 30.7246 50.3711 27.2291 45.8577V48.9093C27.2291 49.4626 27.2651 50.2738 27.3352 51.3426C27.4052 52.4115 27.4879 53.1181 27.5814 53.4606V53.6174L24.4453 53.648V53.4912C24.6825 52.6188 24.7994 51.0957 24.7994 48.9201V42.642C24.7994 40.452 24.6807 38.9199 24.4453 38.0474V37.8906L27.5814 37.9213V38.0781C27.4879 38.4206 27.4052 39.1307 27.3352 40.2068C27.2651 41.2829 27.2291 42.0976 27.2291 42.651V45.3439L31.0427 40.634C32.0347 39.4065 32.5307 38.5179 32.5307 37.9681L35.4439 37.997V38.2187C34.7988 38.316 33.8984 39.0875 32.7392 40.5331L29.1287 44.9852L32.1587 48.7344C33.3646 50.2143 34.3477 51.3102 35.1097 52.024C35.8699 52.736 36.5169 53.1632 37.0524 53.3056V53.5273H37.0542Z" fill="#D3D3D3"></path>
<path d="M52.4888 42.49V46.6213C52.4888 49.2602 52.0539 51.0915 51.1841 52.1208C50.3124 53.1518 48.8406 53.6781 46.763 53.6997C44.6747 53.7196 43.1597 53.2329 42.2252 52.2361C41.2871 51.2375 40.818 49.6333 40.818 47.4271V42.7712C40.818 40.5794 40.7048 39.0563 40.4766 38.2019V38.0469L43.4239 38.0757V38.2289C43.228 39.4745 43.131 41.2175 43.131 43.4616V46.4087C43.131 48.8727 43.4616 50.4625 44.1248 51.1762C44.7556 51.8594 45.7297 52.1965 47.0452 52.1856C48.3553 52.1748 49.3276 51.9495 49.9656 51.5079C50.3502 50.8951 50.5946 50.0587 50.697 48.997C50.8013 47.9372 50.8516 46.1942 50.8516 43.768C50.8516 41.3418 50.7402 39.5195 50.5191 38.2974V38.1442L52.8195 38.1658V38.3172C52.7314 38.6633 52.6541 39.3194 52.5876 40.282C52.5211 41.2463 52.4888 41.9799 52.4888 42.4882V42.49Z" fill="#D3D3D3"></path>
<path d="M60.8139 53.302L58.625 53.3236V53.1722C58.8425 52.2223 58.9503 50.5532 58.9503 48.1667V43.336C58.9503 41.1225 58.8568 39.4678 58.6681 38.3737V38.2223L61.2884 38.0547L68.77 49.7114V42.7916C68.77 42.04 68.7287 41.2199 68.6442 40.3312C68.5597 39.4426 68.4537 38.8207 68.3261 38.4657V38.316L70.5456 38.3377V38.4873C70.3353 39.421 70.2293 41.0631 70.2293 43.4153V48.7489C70.2293 49.5997 70.2598 50.5099 70.3245 51.4797C70.3874 52.4494 70.4467 53.0262 70.5042 53.2101L68.5184 53.4426L60.4276 40.9315V48.7867C60.4276 50.6956 60.557 52.1502 60.8157 53.1524V53.3038L60.8139 53.302Z" fill="#D3D3D3"></path>
<path d="M80.0742 47.9678C79.0713 47.9714 78.3093 47.9804 77.7864 47.9949C77.4 49.5684 77.1628 50.6121 77.0729 51.124C76.983 51.6377 76.9381 52.1893 76.9381 52.7787V53.1374L74.1094 53.1644V52.9535C74.7348 52.4542 75.5723 50.4949 76.6164 47.081C77.6588 43.6779 78.3345 41.4536 78.6436 40.4046C78.9527 39.3555 79.1217 38.685 79.1486 38.3912L81.5514 38.1641C81.5514 38.6525 81.981 40.1811 82.84 42.7442C83.6954 45.3019 84.3838 47.2739 84.9049 48.6636C85.4243 50.0497 85.8269 51.0122 86.1108 51.553C86.393 52.0919 86.7111 52.5191 87.0597 52.8346V53.0419L83.6541 53.0743V52.7192C83.6541 52.2181 83.5894 51.7531 83.46 51.3223C83.3306 50.8915 83.2462 50.6139 83.2048 50.4877L82.3889 47.9823C81.8444 47.9696 81.0716 47.966 80.0724 47.9678H80.0742ZM80.0131 39.9738C79.7381 40.7128 79.0803 42.9839 78.0344 46.7962L82.0421 46.7908C81.7958 46.0229 81.4346 44.8171 80.9566 43.166C80.4785 41.5149 80.1622 40.4496 80.0113 39.9738H80.0131Z" fill="#D3D3D3"></path>
<path d="M97.1557 46.3979C96.4476 46.2898 95.7485 46.2339 95.0584 46.2357C94.3665 46.2357 93.7824 46.2501 93.3062 46.2772V48.6475C93.3062 50.5996 93.4122 52.0001 93.6243 52.8491V52.9933L90.9375 53.0185V52.8743C91.1496 52.0181 91.2574 50.6176 91.2574 48.6745V42.9065C91.2574 40.9634 91.1514 39.5647 90.9375 38.7067V38.5625L98.9403 38.5787L98.4514 40.1307H98.3149C97.4918 39.9054 96.5411 39.7882 95.4646 39.7792C94.3845 39.7702 93.6908 39.7792 93.387 39.8026C93.3349 40.2154 93.308 41.953 93.308 45.0172L97.9231 44.9199L97.2959 46.3961H97.1575L97.1557 46.3979Z" fill="#D3D3D3"></path>
<path d="M105.718 47.8922C104.783 47.894 104.07 47.903 103.581 47.9192C103.22 49.4387 102.999 50.4481 102.914 50.9438C102.83 51.4395 102.788 51.973 102.788 52.5426V52.8887L100.148 52.9139V52.7102C100.733 52.229 101.512 50.3364 102.488 47.0378C103.462 43.7482 104.091 41.5997 104.381 40.5867C104.67 39.5737 104.826 38.9248 104.852 38.6418L107.096 38.4219C107.096 38.8941 107.497 40.3704 108.299 42.8488C109.098 45.3218 109.742 47.2271 110.229 48.5681C110.714 49.9092 111.09 50.8393 111.356 51.3602C111.622 51.8811 111.916 52.2939 112.243 52.5985V52.7986L109.062 52.8292V52.4867C109.062 52.0019 109.001 51.5531 108.881 51.1367C108.76 50.7203 108.681 50.4517 108.644 50.331L107.882 47.9102C107.373 47.8976 106.652 47.894 105.72 47.8958L105.718 47.8922ZM105.66 40.1667C105.403 40.8823 104.789 43.0759 103.813 46.7584L107.556 46.753C107.326 46.0122 106.988 44.8442 106.543 43.2508C106.095 41.6555 105.802 40.6263 105.66 40.1667Z" fill="#D3D3D3"></path>
<path d="M123.861 46.0561L120.964 46.0381C119.747 46.0381 118.778 46.0453 118.061 46.0579V48.5904C118.061 49.0825 118.09 49.7999 118.144 50.7426C118.2 51.6853 118.264 52.309 118.338 52.6136V52.7524L115.863 52.7758V52.6352C116.05 51.8602 116.144 50.5083 116.144 48.576V42.9811C116.144 41.0488 116.05 39.6951 115.863 38.9218V38.7812L118.338 38.8047V38.9435C118.264 39.2481 118.2 39.8754 118.144 40.8253C118.088 41.7752 118.061 42.4962 118.061 42.9883V44.8016L123.859 44.8106V43.0117C123.859 42.5232 123.832 41.8094 123.776 40.8649C123.722 39.9222 123.658 39.2986 123.584 38.9939V38.8552L126.006 38.8786V39.0174C125.825 39.778 125.733 41.1119 125.733 43.0189V48.54C125.733 50.447 125.825 51.7808 126.006 52.5415V52.6803L123.584 52.7037V52.5649C123.658 52.2603 123.72 51.6403 123.776 50.7048C123.83 49.7693 123.859 49.0573 123.859 48.5688V46.0579L123.861 46.0561Z" fill="#D3D3D3"></path>
<path d="M56.0522 69.5606C56.0522 71.6388 56.559 73.2358 57.569 74.3534C58.5772 75.4673 59.8244 75.9937 61.3089 75.9378C62.3872 75.8963 63.8123 75.3556 65.5808 74.3191L66.1576 75.1735C65.5035 75.6836 64.9949 76.0513 64.6301 76.2803C64.2652 76.5092 63.8555 76.7471 63.3972 76.9922C62.4663 77.4735 61.467 77.7367 60.4013 77.7799C58.5215 77.8574 56.9148 77.223 55.5795 75.8765C54.2407 74.5246 53.5703 72.6681 53.5703 70.3086C53.5703 67.9491 54.3467 66.0078 55.8958 64.4883C57.4396 62.976 59.3446 62.1974 61.609 62.1505C63.115 62.1199 64.524 62.4317 65.8342 63.0878C65.6634 63.989 65.3651 64.7533 64.9374 65.3752C63.4655 64.227 61.8678 63.67 60.1407 63.7097C59.6214 63.7223 59.1146 63.7836 58.6221 63.8953C57.8817 64.4595 57.2689 65.2165 56.7818 66.1647C56.293 67.1146 56.0504 68.2465 56.0504 69.5606H56.0522Z" fill="#D3D3D3"></path>
<path d="M73.9612 66.7983V72.5086C73.9612 73.0313 73.9935 73.7938 74.0546 74.7995C74.1175 75.8053 74.1894 76.4687 74.2739 76.7895V76.9373L71.4883 77.0509V76.9031C71.6985 76.0739 71.8028 74.5652 71.8028 72.3734V66.6469C71.8028 64.5974 71.6968 63.1644 71.4883 62.3479V62.2001L74.2739 62.1406V62.2884C74.1912 62.6147 74.1175 63.314 74.0546 64.3865C73.9917 65.459 73.9612 66.2647 73.9612 66.8001V66.7983Z" fill="#D3D3D3"></path>
<path d="M78.7157 63.8487C78.7157 63.2178 78.6816 62.596 78.6133 61.9795C81.3683 61.9633 83.1296 61.9471 83.9095 61.9309C84.6895 61.9146 86.4345 61.8569 89.1339 61.7578C89.0404 62.6032 88.9937 63.2196 88.9937 63.6072L88.8535 63.6108C87.3637 63.2575 86.0913 63.079 85.0381 63.0754C84.9698 63.8 84.9375 64.9194 84.9375 66.4335V72.1654C84.9375 74.0418 85.0381 75.4351 85.2412 76.3436V76.4896L82.576 76.5977V76.4517C82.7522 75.5397 82.842 74.1626 82.842 72.324V66.5759C82.842 65.0005 82.8079 63.8523 82.7396 63.1295C81.7044 63.1818 80.4122 63.4197 78.8613 63.8487L78.7175 63.8523L78.7157 63.8487Z" fill="#D3D3D3"></path>
<path d="M97.3326 68.8746C98.9914 65.0732 99.818 62.7696 99.818 61.9512V61.6034L102.073 61.5547V61.7584C101.543 62.1783 100.188 64.9308 97.9993 70.0408V71.6793C97.9993 72.157 98.0281 72.887 98.0874 73.8675C98.1467 74.8481 98.2078 75.5024 98.2725 75.8268V75.971L95.7565 76.0738V75.9296C95.9398 75.0878 96.0332 73.8783 96.0332 72.303V70.0426L94.1372 66.2123C92.8271 63.6492 91.9662 62.2378 91.5547 61.9837V61.7764L94.4948 61.7133V62.063C94.4948 62.5983 94.7087 63.341 95.1382 64.2909C95.566 65.239 95.8841 65.9438 96.0943 66.4034C96.3046 66.863 96.4358 67.1406 96.4879 67.2343C96.6586 67.5029 96.9408 68.0491 97.3326 68.871V68.8746Z" fill="#D3D3D3"></path>
<path d="M111.545 67.2315C111.545 66.8079 111.369 66.6007 111.019 66.6115C110.756 66.6187 110.425 66.8097 110.03 67.1829C109.899 67.017 109.823 66.8097 109.804 66.5592C110.246 66.3483 110.654 66.2384 111.028 66.2275C111.4 66.2167 111.682 66.296 111.874 66.4619C112.065 66.6295 112.16 66.8656 112.16 67.1684C112.16 67.6173 111.953 68.1364 111.54 68.7294C111.331 69.0286 111.152 69.272 111.001 69.463C110.85 69.6541 110.643 69.901 110.379 70.2056C110.674 70.1966 110.878 70.1876 110.995 70.1786C111.68 70.1317 112.118 70.0146 112.316 69.8271L112.368 69.8686L112.131 70.586L109.879 70.6617L109.77 70.3625C110.467 69.5441 110.931 68.9223 111.159 68.4951C111.418 68.0138 111.547 67.592 111.547 67.2315H111.545Z" fill="#D3D3D3"></path>
<path d="M113.88 69.9697C113.605 69.5641 113.469 69.0234 113.469 68.3439C113.469 67.6643 113.62 67.1236 113.923 66.7198C114.227 66.316 114.617 66.107 115.095 66.0943C115.573 66.0817 115.933 66.271 116.175 66.6639C116.418 67.0569 116.538 67.5778 116.538 68.2249C116.538 68.872 116.402 69.4181 116.127 69.8616C115.852 70.3068 115.498 70.5357 115.061 70.5501C114.549 70.5681 114.153 70.3735 113.88 69.9697ZM115.933 68.3997C115.933 67.1362 115.606 66.5143 114.953 66.5342C114.835 66.5378 114.721 66.5612 114.612 66.6026C114.502 66.6441 114.425 66.691 114.38 66.7414C114.295 66.8712 114.225 67.0731 114.168 67.3507C114.11 67.6265 114.082 67.8968 114.082 68.1582C114.082 68.4196 114.098 68.6629 114.13 68.8846C114.162 69.1063 114.218 69.3154 114.294 69.5101C114.371 69.7047 114.481 69.8561 114.624 69.9625C114.768 70.0706 114.939 70.1211 115.138 70.1139C115.207 70.1121 115.295 70.0905 115.399 70.0508C115.503 70.0112 115.582 69.9589 115.631 69.8958C115.726 69.7786 115.8 69.5732 115.854 69.2812C115.908 68.9891 115.934 68.6971 115.934 68.4015L115.933 68.3997Z" fill="#D3D3D3"></path>
<path d="M119.271 67.0062C119.271 66.588 119.098 66.3825 118.755 66.3933C118.498 66.4005 118.175 66.5898 117.788 66.9593C117.659 66.7953 117.585 66.5898 117.565 66.3429C117.999 66.1356 118.397 66.0256 118.762 66.0166C119.127 66.0058 119.404 66.0833 119.591 66.2491C119.778 66.415 119.871 66.6475 119.871 66.9485C119.871 67.3919 119.67 67.9056 119.266 68.4914C119.061 68.787 118.885 69.0286 118.737 69.216C118.59 69.4035 118.387 69.6486 118.13 69.9515C118.417 69.9424 118.619 69.9334 118.732 69.9244C119.402 69.8776 119.832 69.7622 120.024 69.5765L120.074 69.618L119.842 70.3264L117.639 70.4021L117.531 70.1065C118.214 69.2972 118.667 68.6825 118.89 68.2607C119.143 67.7849 119.271 67.3685 119.271 67.0098V67.0062Z" fill="#D3D3D3"></path>
<path d="M121.555 69.7269C121.285 69.3268 121.152 68.7896 121.152 68.1173C121.152 67.445 121.302 66.9096 121.598 66.5095C121.895 66.1093 122.277 65.9038 122.746 65.8912C123.214 65.8786 123.566 66.0661 123.803 66.4554C124.04 66.8447 124.159 67.3603 124.159 68.0001C124.159 68.64 124.024 69.1808 123.756 69.6188C123.487 70.0586 123.14 70.2857 122.712 70.3001C122.211 70.3163 121.824 70.1253 121.557 69.7251L121.555 69.7269ZM123.564 68.1732C123.564 66.9241 123.244 66.3076 122.604 66.3256C122.488 66.3292 122.376 66.3509 122.27 66.3923C122.162 66.4338 122.087 66.4788 122.042 66.5293C121.959 66.6573 121.889 66.8574 121.833 67.1313C121.778 67.4053 121.749 67.6721 121.749 67.9298C121.749 68.1876 121.765 68.4291 121.798 68.649C121.83 68.8689 121.884 69.0744 121.957 69.2673C122.033 69.4602 122.141 69.6098 122.281 69.7161C122.421 69.8225 122.588 69.8729 122.784 69.8657C122.851 69.8639 122.937 69.8423 123.039 69.8026C123.142 69.763 123.217 69.7125 123.266 69.6494C123.359 69.5323 123.431 69.3304 123.485 69.042C123.537 68.7536 123.564 68.4634 123.564 68.1714V68.1732Z" fill="#D3D3D3"></path>
<path d="M29.5176 69.0834C29.2355 69.0221 28.894 68.9987 28.495 69.0095C28.0943 69.0203 27.8391 69.0329 27.7294 69.0456C27.7187 69.2204 27.7151 69.7846 27.7151 70.7381L29.4242 70.6516L29.2157 71.1311H29.1654C28.8401 71.1058 28.5813 71.0968 28.389 71.1022C28.1967 71.1076 27.9721 71.122 27.7133 71.1437C27.7133 72.2576 27.7223 72.8831 27.742 73.0201C27.8516 73.0309 28.035 73.0309 28.2884 73.0219C29.0396 72.9966 29.5877 72.9047 29.931 72.7479H29.9813L29.8519 73.3806L26.8398 73.4833V73.4346C26.9171 73.148 26.9549 72.6812 26.9549 72.0341V70.1072C26.9549 69.4601 26.9171 68.9951 26.8398 68.7139V68.6652L29.7441 68.5625L29.5643 69.0816H29.514L29.5176 69.0834Z" fill="#D3D3D3"></path>
<path d="M32.2485 68.9692C32.1479 69.0953 32.0993 69.245 32.0993 69.4216C32.0993 69.5982 32.1443 69.7406 32.2341 69.8524C32.324 69.9641 32.4426 70.0543 32.59 70.1246C32.7373 70.1949 32.8991 70.2634 33.0734 70.3283C33.2477 70.3931 33.4238 70.4652 33.5982 70.5445C33.7725 70.6239 33.9342 70.7158 34.0798 70.8239C34.2254 70.9303 34.344 71.0745 34.4338 71.2565C34.5237 71.4368 34.5686 71.6495 34.5686 71.8892C34.5686 72.3488 34.4159 72.7003 34.1086 72.9473C33.8012 73.1942 33.3807 73.3276 32.8452 73.3456C32.3096 73.3637 31.828 73.2339 31.3984 72.9563C31.4128 72.6553 31.4991 72.3903 31.6554 72.1614C31.8459 72.3741 32.076 72.5471 32.3473 72.6787C32.6187 72.8103 32.8757 72.8734 33.1219 72.8644C33.3681 72.8553 33.5784 72.7977 33.7545 72.6859C33.8731 72.5453 33.9324 72.3633 33.9324 72.1416C33.9324 71.9199 33.8731 71.7396 33.7527 71.6008C33.6323 71.4638 33.4831 71.3575 33.3052 71.2836C33.1273 71.2097 32.9332 71.1268 32.7229 71.0348C32.5127 70.9429 32.3168 70.851 32.1389 70.7554C31.961 70.6599 31.8118 70.5211 31.6896 70.3391C31.5692 70.1552 31.5081 69.9389 31.5081 69.6884C31.5081 69.2684 31.6572 68.9511 31.9538 68.7384C32.2503 68.524 32.6223 68.4122 33.0716 68.3996C33.5191 68.387 33.9774 68.4789 34.4446 68.6754C34.3925 68.9457 34.308 69.2017 34.1894 69.4468C33.9953 69.2666 33.7725 69.1188 33.5191 69.0052C33.2657 68.8917 33.0249 68.8376 32.7984 68.8448C32.5702 68.852 32.3887 68.8935 32.2503 68.9692H32.2485Z" fill="#D3D3D3"></path>
<path d="M35.7586 68.9956C35.7586 68.792 35.746 68.5901 35.7227 68.39C36.668 68.3774 37.2736 68.3666 37.5432 68.3594C37.8128 68.3521 38.4166 68.3287 39.3565 68.2891C39.3242 68.5648 39.308 68.7667 39.308 68.8929H39.2595C38.7419 68.7829 38.2998 68.7271 37.935 68.7289C37.9116 68.965 37.899 69.3291 37.899 69.823V71.6904C37.899 72.3014 37.935 72.7556 38.0051 73.0513V73.0981L37.0849 73.1288V73.0819C37.146 72.7845 37.1766 72.3375 37.1766 71.7408V69.8717C37.1766 69.3597 37.164 68.9866 37.1406 68.7523C36.7848 68.7721 36.3409 68.8514 35.8089 68.9938H35.7604L35.7586 68.9956Z" fill="#D3D3D3"></path>
<path d="M41.2098 72.2644C41.2834 72.3347 41.3212 72.4843 41.3212 72.7132C41.3212 72.7727 41.3158 72.8268 41.3068 72.8755L41.2367 72.9313C41.0085 73.007 40.7533 73.0575 40.4693 73.0864L40.392 73.0557C40.313 72.9133 40.2734 72.7331 40.2734 72.5114V72.4429L40.3435 72.3798C40.5897 72.286 40.8288 72.2356 41.0624 72.2266H41.1325L41.2098 72.2626V72.2644Z" fill="#D3D3D3"></path>
<path d="M78.2499 89.4219H77.2184C76.158 89.4219 75.3008 90.2835 75.3008 91.3451V106.744C75.3008 107.807 76.1598 108.667 77.2184 108.667H78.2499C79.3103 108.667 80.1675 107.806 80.1675 106.744V91.3451C80.1675 90.2817 79.3085 89.4219 78.2499 89.4219Z" fill="white"></path>
</svg>