<svg width="102" height="99" viewBox="0 0 102 99" fill="none" xmlns="http://www.w3.org/2000/svg">
<path d="M15.2348 78.4349H5.07758L0 73.3672H20.3144L15.2348 78.4349Z" fill="white"></path>
<path d="M20.314 73.3635L15.2344 78.4312V63.226L20.314 58.1562V73.3635Z" fill="white"></path>
<path d="M5.07758 78.4266L0 73.3588L5.07758 68.2891V78.4266Z" fill="white"></path>
<path d="M5.07758 98.7182H20.3144L15.2348 93.6484H0L5.07758 98.7182Z" fill="white"></path>
<path d="M0 93.6531L5.07758 98.7229V88.5854L0 83.5156V93.6531Z" fill="white"></path>
<path d="M15.2344 98.7229H20.314V83.5156L15.2344 88.5854V98.7229Z" fill="white"></path>
<path d="M45.7041 73.3594H35.5469V78.4271H45.7041V73.3594Z" fill="white"></path>
<path d="M60.9414 73.3594V78.4271H69.0404V73.3594H60.9414Z" fill="white"></path>
<path d="M79.5703 73.3594V78.4271H87.6693V73.3594H79.5703Z" fill="white"></path>
<path d="M91.4102 78.4297L93.9489 80.9636L91.4102 78.4297Z" fill="white"></path>
<path d="M86.332 78.4271H91.4096L86.332 73.3594V78.4271Z" fill="white"></path>
<path d="M101.567 71.2666V66.0916L91.4096 61.3639L86.332 59V78.4331L91.4096 83.5008L93.9484 86.0347L96.4872 83.5008L97.5396 82.4504L101.567 78.431V71.6815V71.2625V71.2666ZM96.4892 76.3343L94.3864 78.4331L93.9504 78.8682L93.5145 78.4331L91.4116 76.3343V66.9558L96.4892 69.3196V76.3343Z" fill="white"></path>
<path d="M56.9118 77.3767L55.8594 78.4271H60.939V73.3594L56.9118 77.3767Z" fill="white"></path>
<path d="M45.707 73.3594V78.4271H50.7846L45.707 73.3594Z" fill="white"></path>
<path d="M50.7852 78.4297L53.3239 80.9636L50.7852 78.4297Z" fill="white"></path>
<path d="M55.8622 44.8215L50.7846 42.4576L45.707 40.0938V78.4357L50.523 83.2424L50.7866 83.5055L53.3254 86.0393L55.8642 83.5055L56.9167 82.4551L60.9438 78.4357V47.1853L55.8663 44.8215H55.8622ZM55.8622 76.337L53.7594 78.4357L53.3234 78.8708L52.8874 78.4357L50.7846 76.337V48.0515L55.8622 50.4154V76.337Z" fill="white"></path>
<path d="M40.6245 60.9722V78.428H35.5469V56.625L40.6245 60.9722Z" fill="white"></path>
<path d="M30.4682 56.625V98.703L25.3906 98.6666V59.7195L30.4682 56.625Z" fill="white"></path>
<path d="M30.4682 51.25V64.2189L25.3906 61.857V53.6139L30.4682 51.25Z" fill="white"></path>
<path d="M40.6245 53.6139V61.8833L35.5469 64.2189V51.25L40.6245 53.6139Z" fill="white"></path>
<path d="M40.6245 35.9732V44.2427L35.5469 46.5782V33.6094L40.6245 35.9732Z" fill="white"></path>
<path d="M101.566 93.6531L96.4883 98.6945V88.5854L101.566 83.5156V93.6531Z" fill="white"></path>
<path d="M81.2534 98.7229L76.1758 98.735V88.5854L81.2534 83.5156V98.7229Z" fill="white"></path>
<path d="M91.4096 98.7229L86.332 98.735V83.5156L91.4096 88.5854V98.7229Z" fill="white"></path>
<path d="M50.7846 98.7229L45.707 98.735V83.5156L50.7846 88.5854V98.7229Z" fill="white"></path>
<path d="M101.567 93.6484H25.3906V98.7303H96.489L101.567 93.6484Z" fill="white"></path>
<path d="M35.5517 48.8933L30.4721 51.2551L25.3945 53.619V48.0271L30.4721 45.6632L35.5517 43.2993L40.6293 40.9375V46.5294L35.5517 48.8933Z" fill="white"></path>
<path d="M30.4682 35.8906V48.8595L25.3906 46.4956V38.2545L30.4682 35.8906Z" fill="white"></path>
<path d="M35.5478 33.5339L30.4682 35.8978L25.3906 38.2616V32.6677L30.4682 30.3038L35.5478 27.942L40.6254 25.5781V31.17L35.5478 33.5339Z" fill="white"></path>
<path d="M30.4682 20.5312V33.5001L25.3906 31.1363V22.8951L30.4682 20.5312Z" fill="white"></path>
<path d="M40.6245 22.8951V31.1626L35.5469 33.5001V20.5312L40.6245 22.8951Z" fill="white"></path>
<path d="M24.9844 31.4161V24.9297L41.0303 32.3977V38.8822L24.9844 31.4161Z" fill="white"></path>
<path d="M25.3892 25.5757L30.4668 27.9395L35.5444 30.3034L40.622 32.6673V38.2592L35.5444 35.8953L30.4668 33.5314L25.3892 31.1676V25.5757ZM24.5781 24.3047V31.6837L25.0465 31.9022L30.1241 34.2661L35.2017 36.63L40.2793 38.9938L41.4331 39.5302V32.1512L40.9647 31.9326L35.8871 29.5687L30.8095 27.2049L25.7319 24.841L24.5781 24.3047Z" fill="#141414"></path>
<path d="M24.9844 46.7813V40.2969L41.0303 47.7649V54.2493L24.9844 46.7813Z" fill="white"></path>
<path d="M25.3892 40.9429L30.4668 43.3067L35.5444 45.6706L40.622 48.0344V53.6264L35.5444 51.2625L30.4668 48.8986L25.3892 46.5348V40.9429ZM24.5781 39.6719V47.0509L25.0465 47.2694L30.1241 49.6333L35.2017 51.9972L40.2793 54.361L41.4331 54.8973V47.5184L40.9647 47.2998L35.8871 44.9359L30.8095 42.5721L25.7319 40.2082L24.5781 39.6719Z" fill="#141414"></path>
<path d="M27.0007 16.5547L25.3906 17.3035V22.8975L30.4682 20.5336L33.009 19.3517L30.4682 18.1697L27.0007 16.5547Z" fill="white"></path>
<path d="M33.0078 19.3517L35.5466 20.5336L40.6242 22.8975V17.3035L39.0162 16.5547L35.5466 18.1697L33.0078 19.3517Z" fill="white"></path>
<path d="M33.0122 13.7578L30.4714 14.9397L27.0039 16.5528L30.4714 18.1678L33.0122 19.3497L35.551 18.1678L39.0206 16.5528L35.551 14.9397L33.0122 13.7578Z" fill="white"></path>
<path d="M28.606 3.75425C28.606 2.3841 28.9811 1.10098 29.6341 0C27.4542 1.28515 25.9922 3.65306 25.9922 6.363C25.9922 10.4431 29.3056 13.7521 33.3956 13.7521C36.1109 13.7521 38.4834 12.2929 39.771 10.1173C38.6679 10.7669 37.3843 11.1413 36.0095 11.1413C31.9214 11.1413 28.606 7.83435 28.606 3.75223V3.75425Z" fill="white"></path>
<path d="M38.731 80.9713L35.1406 84.5547L38.731 88.1381L42.3214 84.5547L38.731 80.9713Z" fill="white"></path>
<path d="M10.1607 80.9713L6.57031 84.5547L10.1607 88.1381L13.7511 84.5547L10.1607 80.9713Z" fill="white"></path>
<path d="M101.571 71.2666V66.0916L91.4135 61.3639L86.3359 59V78.4331L91.4135 83.5008L93.9523 86.0347L96.4911 83.5008L97.5435 82.4504L101.571 78.431V71.6815V71.2625V71.2666ZM96.4931 76.3343L94.3903 78.4331L93.9543 78.8682L93.5184 78.4331L91.4155 76.3343V66.9558L96.4931 69.3196V76.3343Z" fill="white"></path>
<path d="M76.1758 78.4841H81.2534V67.9135L76.1758 62.8438V78.4841Z" fill="white"></path>
<path d="M66.0195 78.4841H71.0991V62.8438L66.0195 67.9135V78.4841Z" fill="white"></path>
<path d="M73.6367 60.2995L76.1755 62.8334V57.7656L73.6367 60.2995Z" fill="white"></path>
<path d="M73.6365 53.1406L71.0977 55.6765L73.6365 53.1406Z" fill="white"></path>
<path d="M77.2282 56.7188L76.1758 57.7691V62.8369L81.2534 67.9066V60.7381L77.2282 56.7188Z" fill="white"></path>
<path d="M71.0977 62.8334L73.6365 60.2995L71.0977 57.7656V62.8334Z" fill="white"></path>
<path d="M70.0467 56.7188L66.0195 60.7381V67.9066L71.0991 62.8369V57.7691L70.0467 56.7188Z" fill="white"></path>
<path d="M76.1752 55.6765L73.6365 53.1406L71.0977 55.6765V57.7753L73.6365 60.3091L76.1752 57.7753V55.6765Z" fill="white"></path>
<path d="M77.2282 56.7202L76.1758 55.6719V57.7706L77.2282 56.7202Z" fill="white"></path>
<path d="M71.0993 57.7706V55.6719L70.0469 56.7202L71.0993 57.7706Z" fill="white"></path>
<path d="M60.9414 73.3984V78.4662H86.3334V73.3984H60.9414Z" fill="white"></path>
</svg>