<svg width="84" height="109" viewBox="0 0 84 109" fill="none" xmlns="http://www.w3.org/2000/svg">
<path d="M83.2845 72.1838L62.4648 84.2131V60.1544L83.2845 48.125V72.1838Z" fill="#777777"></path>
<path d="M41.6406 72.1838L62.4636 84.2131V60.1544L41.6406 48.125V72.1838Z" fill="#ABABAB"></path>
<path d="M62.4636 60.1447L83.2833 48.1153L62.4636 36.0859L41.6406 48.1153L62.4636 60.1447Z" fill="white"></path>
<path d="M62.4636 36.1011L41.6406 48.1305V24.0684L62.4636 12.0391V36.1011Z" fill="#777777"></path>
<path d="M20.8203 36.1011L41.64 48.1305V24.0684L20.8203 12.0391V36.1011Z" fill="#ABABAB"></path>
<path d="M41.64 24.0588L62.463 12.0294L41.64 0L20.8203 12.0294L41.64 24.0588Z" fill="white"></path>
<path d="M41.6439 48.1168L20.8242 60.1461V36.0874L41.6439 24.0547V48.1168Z" fill="#777777"></path>
<path d="M0 48.1168L20.823 60.1461V36.0874L0 24.0547V48.1168Z" fill="#ABABAB"></path>
<path d="M62.4676 60.1447L41.6445 72.1741V48.1153L62.4676 36.0859V60.1447Z" fill="#777777"></path>
<path d="M20.8242 60.1447L41.6439 72.1741V48.1153L20.8242 36.0859V60.1447Z" fill="#ABABAB"></path>
<path d="M41.6439 96.2574L20.8242 108.287V84.2247L41.6439 72.1953V96.2574Z" fill="#777777"></path>
<path d="M0 96.2574L20.823 108.287V84.2247L0 72.1953V96.2574Z" fill="#ABABAB"></path>
<path d="M20.8197 84.215L41.6427 72.1856L20.823 60.1562L0 72.1856L20.8197 84.215Z" fill="white"></path>
<path d="M41.6439 72.1916L20.8242 84.2209V60.1622L41.6439 48.1328V72.1916Z" fill="#777777"></path>
<path d="M0 72.1916L20.823 84.2209V60.1622L0 48.1328V72.1916Z" fill="#ABABAB"></path>
<path d="M20.8197 60.1525L41.6427 48.1231L20.823 36.0938L0 48.1231L20.8197 60.1525Z" fill="white"></path>
<path d="M20.823 36.0933L41.6427 24.0606L20.823 12.0312L0 24.0606L20.823 36.0933Z" fill="white"></path>
<path d="M41.6439 48.109L62.4669 36.0796L41.6439 24.0469L20.8242 36.0796L41.6439 48.109Z" fill="white"></path>
</svg>