<svg width="78" height="106" viewBox="0 0 78 106" fill="none" xmlns="http://www.w3.org/2000/svg">
<path d="M20.5391 101.068C34.917 106.658 48.6953 107.061 61.439 98.4993C72.3119 90.3168 78.3201 79.6682 77.4233 65.5156C68.0682 91.8593 49.3847 104.129 20.5403 101.068H20.5391Z" fill="white"></path>
<path d="M22.5438 78.0353C20.5883 75.9829 18.8175 73.7487 17.2604 71.3594C14.8622 72.1409 12.3932 72.766 9.86719 73.2221C11.1156 75.6012 12.5778 77.847 14.2272 79.9339C15.8071 81.9325 17.5564 83.7862 19.4575 85.4709C19.4575 85.4709 19.4588 85.4709 19.46 85.4722C22.5894 85.0187 25.6365 84.3051 28.5786 83.3558C26.4169 81.7608 24.3981 79.9788 22.5451 78.034L22.5438 78.0353Z" fill="#CECECE"></path>
<path d="M62.5346 26.5691C60.5791 23.7109 58.5591 21.0257 56.5618 18.5391C56.4518 22.0122 56.0369 25.4084 55.3438 28.6983C57.2651 31.3362 59.1561 34.1418 60.9408 37.091C62.589 39.8159 64.1461 42.6625 65.5501 45.6078C66.5999 42.1719 67.3399 38.5988 67.7371 34.922C66.1028 32.0075 64.3459 29.2146 62.5359 26.5691H62.5346Z" fill="#CECECE"></path>
<path d="M60.9411 37.0938C58.9843 45.0098 55.4047 52.275 50.583 58.5064C49.0752 60.455 47.4461 62.3011 45.7081 64.0357C44.6165 65.1246 43.4794 66.1688 42.3043 67.1655C40.3653 68.8091 38.3174 70.3247 36.1709 71.6981C31.9702 74.3859 27.3964 76.5317 22.5469 78.0358C24.3999 79.9805 26.4187 81.7625 28.5804 83.3575C33.7917 81.6767 38.6754 79.2541 43.1126 76.2127C45.1566 74.8112 47.1058 73.279 48.9475 71.6263C48.9361 71.5969 48.926 71.5674 48.9159 71.5379C48.9424 71.552 48.9702 71.5674 48.9968 71.5815C50.7714 69.9865 52.4461 68.28 54.0095 66.4749C59.193 60.4908 63.1685 53.4062 65.5503 45.6119C64.1463 42.6666 62.5892 39.82 60.9411 37.095V37.0938Z" fill="white"></path>
<path opacity="0.11" d="M38.6523 0.074398C38.6601 0.0678279 38.6692 0.0599436 38.6757 0.0546875C38.6679 0.0612577 38.6601 0.0678279 38.6523 0.074398Z" fill="white"></path>
<path opacity="0.11" d="M38.3555 0.327949C38.3675 0.31714 38.3808 0.306332 38.3928 0.296875C38.3808 0.307683 38.3688 0.31714 38.3555 0.327949Z" fill="white"></path>
<path opacity="0.11" d="M38.4414 0.248901C38.4505 0.241017 38.4596 0.234447 38.4674 0.226562C38.4583 0.234447 38.4505 0.241017 38.4414 0.248901Z" fill="white"></path>
<path opacity="0.11" d="M37.7344 0.859612C37.7344 0.859612 37.7398 0.854246 37.7438 0.851562C37.7411 0.854246 37.7384 0.856929 37.7344 0.859612Z" fill="white"></path>
<path opacity="0.11" d="M38.5156 0.191311C38.5374 0.173116 38.558 0.156221 38.5759 0.140625C38.5567 0.156221 38.5374 0.173116 38.5156 0.191311Z" fill="white"></path>
<path opacity="0.27" d="M24.0625 14.7748C24.0625 14.7748 24.0687 14.7687 24.0717 14.7656C24.0687 14.7687 24.0656 14.7718 24.0625 14.7748Z" fill="white"></path>
<path opacity="0.11" d="M24.0625 14.7748C24.0625 14.7748 24.0687 14.7687 24.0717 14.7656C24.0687 14.7687 24.0656 14.7718 24.0625 14.7748Z" fill="white"></path>
<path opacity="0.27" d="M23.6211 15.2767C23.6211 15.2767 23.628 15.2698 23.6308 15.2656C23.628 15.2698 23.6239 15.2725 23.6211 15.2767Z" fill="white"></path>
<path opacity="0.11" d="M23.6211 15.2767C23.6211 15.2767 23.628 15.2698 23.6308 15.2656C23.628 15.2698 23.6239 15.2725 23.6211 15.2767Z" fill="white"></path>
<path opacity="0.27" d="M23.1797 15.812C23.1797 15.812 23.1873 15.8029 23.1918 15.7969C23.1873 15.8014 23.1842 15.8059 23.1797 15.812Z" fill="white"></path>
<path opacity="0.11" d="M23.1797 15.812C23.1797 15.812 23.1873 15.8029 23.1918 15.7969C23.1873 15.8014 23.1842 15.8059 23.1797 15.812Z" fill="white"></path>
<path opacity="0.27" d="M22.7383 16.3277C22.7383 16.3277 22.7426 16.3233 22.7441 16.3203C22.7426 16.3233 22.7397 16.3247 22.7383 16.3277Z" fill="white"></path>
<path opacity="0.11" d="M22.7383 16.3277C22.7383 16.3277 22.7426 16.3233 22.7441 16.3203C22.7426 16.3233 22.7397 16.3247 22.7383 16.3277Z" fill="white"></path>
<path opacity="0.11" d="M23.1875 15.7905C23.3319 15.6199 23.4763 15.4493 23.6206 15.2812C23.4763 15.4493 23.3331 15.6199 23.1875 15.7905Z" fill="white"></path>
<path opacity="0.11" d="M38.6328 0.0963702C38.6405 0.0898541 38.647 0.0846412 38.6547 0.078125C38.6483 0.0846412 38.6405 0.0898541 38.6328 0.0963702Z" fill="white"></path>
<path opacity="0.11" d="M37.7422 0.866766C37.9499 0.684612 38.1272 0.531962 38.2729 0.40625C38.1272 0.530679 37.9499 0.684612 37.7422 0.866766Z" fill="white"></path>
<path opacity="0.11" d="M38.7148 0.0215148C38.7148 0.0215148 38.7206 0.0170975 38.7221 0.015625C38.7192 0.0170975 38.7163 0.0200424 38.7148 0.0215148Z" fill="white"></path>
<path opacity="0.11" d="M22.7422 16.3229C22.8878 16.1485 23.0335 15.9766 23.1779 15.8047C23.0322 15.9766 22.8878 16.1485 22.7422 16.3229Z" fill="white"></path>
<path opacity="0.11" d="M38.5742 0.143403C38.5742 0.143403 38.5833 0.135838 38.5879 0.132812C38.5833 0.135838 38.5788 0.140377 38.5742 0.143403Z" fill="white"></path>
<path opacity="0.11" d="M38.6758 0.0548828C38.6758 0.0548828 38.6902 0.0433771 38.696 0.0390625C38.6902 0.0448153 38.683 0.04913 38.6758 0.0548828Z" fill="white"></path>
<path opacity="0.11" d="M38.4688 0.227396C38.4853 0.213239 38.5005 0.20037 38.5158 0.1875C38.5018 0.20037 38.4853 0.213239 38.4688 0.227396Z" fill="white"></path>
<path opacity="0.27" d="M29.4453 19.7386C30.7203 19.8258 32.0067 19.8706 33.3032 19.8706C40.7243 19.8706 47.8114 18.4268 54.3078 15.803C52.5623 13.7379 50.861 11.8405 49.2609 10.1328C44.6757 12.025 39.7908 13.3292 34.6996 13.948C33.0553 15.6698 31.2807 17.6081 29.4466 19.7399L29.4453 19.7386Z" fill="white"></path>
<path d="M29.4453 19.7386C30.7203 19.8258 32.0067 19.8706 33.3032 19.8706C40.7243 19.8706 47.8114 18.4268 54.3078 15.803C52.5623 13.7379 50.861 11.8405 49.2609 10.1328C44.6757 12.025 39.7908 13.3292 34.6996 13.948C33.0553 15.6698 31.2807 17.6081 29.4466 19.7399L29.4453 19.7386Z" fill="white"></path>
<path opacity="0.27" d="M54.3223 15.8337C52.5654 13.7531 50.8515 11.843 49.2413 10.125C40.3213 18.9109 28.5668 24.6516 15.541 25.7342C14.3103 27.4995 13.1011 29.3328 11.9336 31.2276C13.392 31.3467 14.8643 31.4082 16.3518 31.4082C31.0485 31.4082 44.4081 25.4908 54.321 15.835L54.3223 15.8337Z" fill="white"></path>
<path d="M54.3223 15.8337C52.5654 13.7531 50.8515 11.843 49.2413 10.125C40.3213 18.9109 28.5668 24.6516 15.541 25.7342C14.3103 27.4995 13.1011 29.3328 11.9336 31.2276C13.392 31.3467 14.8643 31.4082 16.3518 31.4082C31.0485 31.4082 44.4081 25.4908 54.321 15.835L54.3223 15.8337Z" fill="#CECECE"></path>
<path d="M23.4897 47.3647C18.2771 41.1462 13.4073 36.3996 10.4563 33.6875C9.2939 35.6937 8.18713 37.7615 7.15625 39.8817C10.0351 42.6272 13.9765 46.6255 18.1582 51.5822C19.7279 53.4424 21.3318 55.4383 22.9268 57.5535C24.7988 56.2865 26.5912 54.908 28.2962 53.4308C26.6911 51.2837 25.0746 49.2569 23.4897 47.366V47.3647Z" fill="#CECECE"></path>
<path d="M18.1576 51.5885C15.9327 53.1425 13.5926 54.5376 11.1527 55.7624C9.18199 56.7514 7.1468 57.629 5.05469 58.3848C5.38103 60.7126 5.87433 62.9751 6.52448 65.1607C8.77723 64.5329 10.9743 63.7681 13.1044 62.8752C16.5638 61.4249 19.85 59.6403 22.9249 57.5572C21.3299 55.4421 19.7273 53.4474 18.1563 51.5859L18.1576 51.5885Z" fill="white"></path>
<path d="M41.6191 51.1699C43.8984 48.705 46.0222 46.0903 47.9739 43.3423C45.9893 40.1267 43.9149 37.0405 41.8063 34.1016C39.9292 36.9059 37.8763 39.5796 35.6641 42.106C37.7043 44.9949 39.7066 48.0222 41.6204 51.1699H41.6191Z" fill="#CECECE"></path>
<path d="M24.5013 14.2589C25.6131 14.3242 26.7325 14.3588 27.8608 14.3588C30.1743 14.3588 32.4548 14.2179 34.6962 13.945C40.1377 8.24913 44.1512 4.93744 44.1537 4.93487C40.8815 1.76538 38.7426 0 38.7426 0C38.7426 0 38.7337 0.00768672 38.7185 0.0204979C38.716 0.021779 38.7135 0.0243413 38.7122 0.0256224C38.7071 0.0307469 38.6996 0.0358714 38.692 0.042277C38.6869 0.0474014 38.6806 0.0512448 38.6743 0.0563693C38.6667 0.0627749 38.6591 0.0691805 38.6515 0.0755861C38.6452 0.0807105 38.6376 0.0871161 38.63 0.0935217C38.6161 0.105052 38.5996 0.119144 38.5832 0.133236C38.5794 0.135799 38.5756 0.139642 38.5718 0.142204C38.5541 0.157578 38.5339 0.174232 38.5124 0.192168C38.4972 0.204979 38.482 0.21779 38.4656 0.231883C38.4567 0.239569 38.4491 0.245975 38.4403 0.253662C38.4238 0.267754 38.4061 0.283127 38.3884 0.29722C38.377 0.307469 38.3656 0.316437 38.353 0.326686C38.3327 0.34334 38.3125 0.361276 38.291 0.379211C38.2834 0.385617 38.2758 0.392023 38.2682 0.398428C38.1228 0.523978 37.9457 0.676431 37.7382 0.85835C37.7357 0.860912 37.7332 0.863475 37.7294 0.866037C35.6069 2.72366 30.3956 7.47405 24.5 14.2563L24.5013 14.2589Z" fill="#CECECE"></path>
<path d="M29.4443 19.7294C31.2783 17.5977 33.053 15.6593 34.6973 13.9375C32.456 14.2104 30.1754 14.3513 27.8619 14.3513C26.7336 14.3513 25.6142 14.318 24.5024 14.2514C24.3582 14.4179 24.2127 14.5845 24.0685 14.7536C24.066 14.7561 24.0635 14.7587 24.0609 14.7613C23.918 14.9278 23.7738 15.0956 23.6296 15.2647C23.6271 15.2686 23.6233 15.2711 23.6208 15.275C23.4766 15.4428 23.3336 15.6132 23.1882 15.7836C23.1844 15.7874 23.1818 15.7913 23.1781 15.7964C23.0326 15.9681 22.8884 16.1397 22.7429 16.314C22.7417 16.3165 22.7391 16.3178 22.7379 16.3204C22.1472 17.0263 21.5514 17.7527 20.9531 18.4957C23.7131 19.1158 26.5477 19.5334 29.443 19.7294H29.4443Z" fill="#CECECE"></path>
<path d="M18.3434 91.9694C8.23194 84.3544 1.49772 72.4016 0.826065 58.8281C0.385886 61.3481 0.107613 63.9014 0.0228656 66.4777C-0.295884 76.1348 2.73098 84.8169 8.28633 91.5108C9.98507 93.558 11.9203 95.4195 14.0694 97.0657C16.4436 97.3732 18.8633 97.532 21.3197 97.532C23.37 97.532 25.3938 97.4219 27.3873 97.2066C24.1543 95.8256 21.1223 94.0615 18.3434 91.9681V91.9694Z" fill="white"></path>
<path d="M75.9816 55.496C75.0127 51.3401 73.6226 47.2918 71.9428 43.3984C67.8737 70.1405 45.5992 90.7973 18.3435 91.9772C17.5264 92.0131 16.7055 92.031 15.8795 92.031C13.3042 92.031 10.7694 91.8568 8.28516 91.5198C9.98389 93.5671 11.9192 95.4285 14.0682 97.0748C16.4424 97.3823 18.8621 97.5411 21.3185 97.5411C23.3689 97.5411 25.3927 97.4309 27.3861 97.2157C50.7358 94.7009 69.8532 77.8375 75.9803 55.4986C75.9803 55.4986 75.9803 55.4986 75.9803 55.4973L75.9816 55.496Z" fill="#CECECE"></path>
</svg>