<svg width="90" height="99" viewBox="0 0 90 99" fill="none" xmlns="http://www.w3.org/2000/svg">
<g clip-path="url(#clip0_1165_19570)">
<path d="M65.305 90.5899C69.2766 90.844 73.2573 91.2706 77.229 91.8333C81.2097 92.3415 85.1632 93.0584 89.1258 93.8117C81.4636 91.2887 73.5566 89.4283 65.4773 88.5389C61.4422 88.0761 57.3345 87.9218 53.2269 88.2304C52.1841 88.312 51.1957 88.4119 50.0713 88.6387C49.7721 88.7113 49.5091 88.7567 49.083 88.9473C48.9651 89.0108 48.8472 89.0562 48.6568 89.2105C48.5752 89.274 48.4482 89.392 48.3303 89.5735C48.2125 89.7459 48.0765 90.0545 48.0946 90.3903C48.149 91.0891 48.4754 91.3341 48.6024 91.4702C48.7656 91.6155 48.8744 91.679 48.9832 91.7425C49.7268 92.1237 50.1802 92.2053 50.7242 92.3687C52.7735 92.886 54.7412 93.2218 56.727 93.5939C58.7038 93.9387 60.6805 94.2836 62.5938 94.7101C63.1832 94.8463 63.7635 94.9915 64.3348 95.1548C62.9383 95.4997 61.3515 95.654 59.8281 95.7901C57.8605 95.9353 55.8656 96.017 53.8707 96.0714C49.8719 96.1531 45.8549 96.135 41.8379 96.0714C39.9972 96.0714 38.1474 96.0351 36.3066 95.9988C35.2548 95.9807 34.212 95.9535 33.1602 95.9262C33.4775 96.1894 33.8493 96.38 34.2392 96.4889C34.5294 96.5252 34.8195 96.5706 35.1097 96.6069C41.3301 97.4055 47.5777 97.9591 53.8707 98.1315C55.8928 98.186 57.9239 98.2041 59.9732 98.1043C62.0407 97.9682 64.0537 97.8956 66.2752 97.1968L66.7105 97.0334L66.9191 96.9427L67.182 96.8065C67.3452 96.7067 67.5357 96.5978 67.7623 96.3618C67.9709 96.1531 68.3155 95.654 68.2248 95.0005C68.125 94.3744 67.8258 94.1112 67.6445 93.9206C67.445 93.7391 67.2727 93.6302 67.1185 93.5303C66.8012 93.3488 66.5291 93.2218 66.2571 93.1129C65.1871 92.6954 64.1897 92.4595 63.1832 92.2053C61.1702 91.7334 59.1843 91.3704 57.2076 91.0074C56.4822 90.8713 55.7477 90.7442 55.0223 90.6172C58.4227 90.354 61.8593 90.4357 65.305 90.6172V90.5899Z" fill="white"></path>
<path d="M38.4728 13.6676L37.693 13.3499C37.693 13.3499 38.0557 13.5314 38.3187 14.0033C37.4845 15.7912 36.8044 17.7787 36.2513 19.9023C34.9818 21.4542 33.0776 23.3419 30.2757 25.6379C30.2757 25.6379 33.1682 24.1586 35.816 21.6901C35.68 22.3073 35.553 22.9244 35.4352 23.5597C34.6644 24.2675 33.7849 25.0299 32.8055 25.8285C32.8055 25.8285 33.8755 25.284 35.3082 24.3038C34.8367 27.0083 34.5284 29.8216 34.3289 32.5987C32.7693 34.1687 30.7018 35.8658 27.9453 37.6627C27.9453 37.6627 31.0555 36.7824 34.2201 34.3865C33.6126 45.7307 34.8004 56.1129 34.8004 56.1129C35.0543 58.1457 34.9727 59.9789 34.6191 61.6488C33.5491 62.511 32.3612 63.4003 31.0555 64.3079C31.0555 64.3079 32.3522 63.836 34.2654 62.9738C32.7511 64.7526 30.7472 66.6493 28.2536 68.0106C28.2536 68.0106 30.3029 67.7111 33.0957 65.7146C31.2822 68.9907 28.3715 71.4139 25.4426 73.356C22.1692 61.2586 19.195 43.6161 18.8323 18.904C18.8323 18.3141 16.5654 48.0812 22.5591 73.5103C15.5679 69.2358 8.77624 66.8036 5.72044 56.2127C5.72044 56.2127 4.66859 52.9365 3.60768 47.9723C6.11942 52.1016 8.37726 54.3795 8.37726 54.3795C5.59349 48.9887 3.65301 44.4692 2.311 40.6848C2.20219 39.8862 2.09338 39.0694 1.99363 38.2345C3.01828 40.9117 4.24241 43.6071 5.71137 46.0846C5.71137 46.0846 2.91853 39.9043 1.53118 32.6622C1.34076 28.5602 1.47678 24.3311 2.18405 20.3288C2.43795 18.9585 2.71904 17.6607 3.02735 16.4265C4.31495 21.4542 6.32797 27.5165 9.38378 32.6713C9.38378 32.6713 4.38749 21.6175 4.45097 11.7436C6.36424 6.59787 9.04827 3.04942 12.8386 1.28881C12.8386 1.28881 16.2933 -0.244922 17.8892 0.0364131C19.4851 0.317748 23.2482 1.66997 23.2482 1.66997L30.3301 3.52134L31.1915 5.21842L43.052 7.75952C41.175 9.15712 39.6698 11.1991 38.4728 13.6676Z" fill="white"></path>
<path d="M37.6927 13.3501L38.4735 13.6681C38.419 13.7772 38.3645 13.8862 38.3101 14.0044C38.0468 13.5318 37.6836 13.3501 37.6836 13.3501H37.6927Z" fill="white"></path>
<path d="M24.1571 13.4045L16.1685 12.4425C15.3524 12.3246 13.9831 11.6893 13.3665 10.2645L15.8057 9.64734L13.0764 9.10282C13.0582 8.89409 13.0492 8.67628 13.0582 8.44032C13.0945 6.63433 14.8536 5.872 16.3861 5.78125L24.42 6.73416L25.3449 8.12268L24.1571 13.3773V13.4045Z" fill="#BBBBBB"></path>
<path d="M52.9283 8.25887C53.3544 9.95595 53.0461 11.653 52.2119 13.0416L48.8478 13.2684L51.1057 14.4029C50.353 15.1017 49.4282 15.619 48.3672 15.8912C47.6146 16.0818 46.862 16.0999 46.1366 16.0183V16.0455L16.168 12.4426C16.8752 12.5152 17.6007 12.488 18.3261 12.3065C21.6902 11.4625 23.7304 8.05013 22.8871 4.68319L27.2396 3.59415L22.1708 2.95888C21.2277 1.407 19.659 0.354258 17.8999 0.0366211L47.2791 3.53062V3.54877C48.866 3.65768 50.344 4.36555 51.414 5.49997L50.0538 6.90664L52.1212 6.38935C52.484 6.95202 52.765 7.57822 52.9373 8.25887H52.9283Z" fill="#DADADA"></path>
<path d="M25.4538 73.374C28.3283 83.9922 32.7805 92.65 32.7805 92.65C32.2092 93.5394 32.6626 94.9279 33.1613 95.9353C32.4903 95.1639 31.6017 93.9569 30.4501 94.1656C30.4501 94.1656 24.3929 81.2877 22.5703 73.5374C23.0146 73.8096 23.4499 74.0819 23.8942 74.3723C24.411 74.0547 24.937 73.728 25.4538 73.3831V73.374Z" fill="#BFBFBF"></path>
</g>
<defs>
<clipPath id="clip0_1165_19570">
<rect width="89.126" height="98.1678" fill="white"></rect>
</clipPath>
</defs>
</svg>