<svg width="113" height="109" viewBox="0 0 113 109" fill="none" xmlns="http://www.w3.org/2000/svg">
<path d="M95.0779 14.6555C94.0491 12.073 92.4212 10.0686 90.242 8.69809C84.9762 5.39174 77.0234 6.10269 67.855 10.7067C58.7344 15.2851 49.4488 23.1783 41.7 32.9432C31.9152 45.5219 26.198 59.531 26.0156 71.3944C26.4107 76.6709 28.4987 80.6453 32.0541 82.8767C34.2116 84.2344 36.8379 84.9196 39.8593 84.9196C39.8854 84.9196 39.9158 84.9196 39.9418 84.9196H40.1936L40.1719 84.6712C39.0432 72.2467 44.921 56.4816 55.8953 42.511C66.8696 28.5319 81.4599 18.2317 94.926 14.9596L95.1821 14.8996L95.0866 14.6598L95.0779 14.6555Z" fill="white"></path>
<path d="M39.8617 86.1745C36.5929 86.1745 33.7365 85.4207 31.3706 83.9346C27.4593 81.4805 25.1672 77.172 24.7461 71.4844V71.4287V71.373C24.9328 59.2526 30.7455 44.9651 40.6952 32.1766C48.5613 22.2661 58.0031 14.2444 67.2844 9.58894C76.8738 4.77504 85.2738 4.0855 90.9346 7.64025C93.3482 9.15637 95.1455 11.362 96.2741 14.2015L96.8993 15.7776L95.2366 16.1845C82.0441 19.3923 67.7141 29.5212 56.9092 43.2863C46.1303 57.017 40.348 72.448 41.4462 84.5642L41.5895 86.1702L39.8661 86.1788L39.8617 86.1745ZM27.29 71.3559C27.6633 76.1955 29.5473 79.8102 32.738 81.8146C34.4397 82.8853 36.48 83.4935 38.8155 83.6305C38.108 71.0861 44.0552 55.5309 54.8862 41.7401C65.7086 27.958 80.0255 17.6921 93.4177 14.0474C92.4974 12.2272 91.2038 10.7881 89.5628 9.75597C84.6921 6.69803 77.1907 7.43039 68.4348 11.8246C59.4791 16.3215 50.3411 24.0949 42.7008 33.7141C33.1027 46.0572 27.4853 59.7751 27.29 71.3559Z" fill="#141414"></path>
<path d="M67.291 40.9331C61.4392 29.1981 53.838 19.1934 45.8851 12.7606C37.8758 6.28497 30.4222 4.17782 24.896 6.82461C22.6083 7.92101 20.7546 9.78833 19.3785 12.3709L19.2656 12.585L19.487 12.6878C31.7679 18.4611 44.0358 31.9306 52.3013 48.7235C60.5667 65.5122 63.714 83.3545 60.723 96.4471L60.6709 96.6827L60.9096 96.7255C61.856 96.8968 62.7763 96.9868 63.6619 96.9868C65.4982 96.9868 67.1955 96.6142 68.7409 95.8775C72.4656 94.0916 75.0616 90.207 76.2554 84.6222C77.9093 71.9451 74.6448 56.0258 67.2997 40.9331H67.291Z" fill="white"></path>
<path d="M63.6561 98.2477C62.6924 98.2477 61.6896 98.1535 60.6695 97.965L59.1284 97.6824L59.4713 96.1748C62.4016 83.3477 59.289 65.8181 51.1495 49.2735C43.0056 32.7333 30.9634 19.4779 18.9343 13.8246L17.5234 13.1607L18.2484 11.7945C19.7548 8.96355 21.8037 6.91635 24.3389 5.70003C30.3383 2.82625 38.2738 4.98908 46.6912 11.7945C54.783 18.3387 62.5057 28.4933 68.4357 40.3824V40.391C75.8893 55.6935 79.1972 71.874 77.5129 84.7825L77.4955 84.881C76.2192 90.8513 73.3845 95.0442 69.2909 97.0057C67.5805 97.8237 65.6834 98.2391 63.6561 98.2391V98.2477ZM62.1888 95.6523C64.4028 95.8964 66.4171 95.5966 68.1752 94.7529C71.5222 93.1469 73.8794 89.575 74.9907 84.4185C76.6012 71.9897 73.3758 56.3445 66.1436 41.4916C60.3743 29.9152 52.8902 20.0604 45.0763 13.7432C37.4751 7.59732 30.5033 5.54157 25.4503 7.96565C23.6878 8.80937 22.2075 10.1799 21.031 12.0515C33.2251 18.1888 45.276 31.5983 53.4416 48.1857C61.6071 64.7688 64.8413 82.4055 62.1888 95.6566V95.6523Z" fill="#141414"></path>
<path d="M108.641 13.9803C107.052 11.0637 104.851 8.71238 102.108 6.9864C90.2524 -0.46144 70.5786 5.41889 53.7743 20.0747C67.1448 8.60103 81.9436 4.09121 89.9746 9.13638C92.0627 10.4469 93.6211 12.3699 94.6065 14.8497C98.5743 24.8287 92.9135 42.1399 80.5197 57.9264C68.1172 73.7215 51.8121 84.3686 39.948 84.42C39.9219 84.42 39.8959 84.42 39.8698 84.42C36.9483 84.42 34.4131 83.7604 32.3424 82.4584C28.9259 80.3128 26.9204 76.4796 26.5383 71.3659L25.9653 71.383C25.8221 80.7111 29.1907 88.0176 35.4593 91.9535C37.5864 93.2897 40.0174 94.2234 42.6872 94.7373C44.276 95.0414 45.9473 95.1913 47.6881 95.1913C54.152 95.1913 61.5535 93.1141 69.0419 89.1439C78.8093 83.9617 88.0081 76.0899 95.6397 66.3678C102.881 57.1469 107.929 47.2279 110.243 37.6772C112.522 28.2806 111.967 20.0876 108.641 13.9845V13.9803Z" fill="white"></path>
<path d="M47.6782 96.4423C45.8593 96.4423 44.0968 96.2796 42.4428 95.9626C39.6168 95.4187 37.0338 94.4251 34.7765 93.0075C28.1216 88.8274 24.5402 81.1398 24.6921 71.3578L24.7095 70.1543L27.7179 70.0686L27.809 71.2678C28.1607 75.9661 29.9622 79.4695 33.027 81.3924C34.8937 82.5659 37.1945 83.157 39.8729 83.157H39.9554C51.4419 83.1099 67.3433 72.6598 79.52 57.1516C91.649 41.7035 97.2403 24.8848 93.4289 15.3041C92.5433 13.077 91.1541 11.3553 89.2961 10.1904C81.7904 5.4793 67.5299 9.92915 54.6152 21.0174L52.9352 19.1287C70.6772 3.65053 90.7157 -1.6559 102.788 5.92471C105.723 7.76633 108.067 10.2761 109.76 13.3854C113.237 19.7625 113.832 28.2639 111.479 37.9646C109.122 47.6866 103.991 57.7726 96.6413 67.1349C88.9011 76.994 79.5634 84.9857 69.6397 90.2451C61.9951 94.3009 54.4025 96.4423 47.6825 96.4423H47.6738H47.6782ZM28.4993 80.6729C29.9231 85.1057 32.5148 88.6133 36.1396 90.8875C38.1278 92.1381 40.4112 93.016 42.9247 93.4957C44.418 93.7827 46.0155 93.9283 47.6738 93.9283H47.6825C53.9814 93.9283 61.1572 91.8897 68.4329 88.0308C78.0441 82.9343 87.1039 75.1738 94.627 65.5931C101.755 56.5135 106.726 46.7572 109 37.3778C111.206 28.2854 110.689 20.3964 107.516 14.5717C106.031 11.8479 103.982 9.65077 101.416 8.04043C96.5327 4.97392 90.0949 4.22014 82.6803 5.81336C85.6974 5.91614 88.4019 6.65279 90.6506 8.06612C92.9687 9.52229 94.7008 11.6509 95.7861 14.3833C99.9144 24.7606 94.1799 42.5643 81.5169 58.6849C68.8844 74.7712 52.1799 85.6153 39.9424 85.6624H39.8555C36.6866 85.6624 33.9256 84.9343 31.6422 83.5039C30.4267 82.7415 29.3718 81.7907 28.4906 80.6644L28.4993 80.6729Z" fill="#141414"></path>
<path d="M75.5792 85.2182C74.4245 90.6188 72.076 93.7153 68.5033 95.4285C66.3197 96.4735 63.7975 96.7476 60.9975 96.2336C49.7411 94.1736 35.9061 80.0445 26.5641 61.0716C17.2221 42.0986 14.5219 22.6332 19.8397 12.6328C21.1594 10.1487 22.9393 8.3585 25.1228 7.31349C36.1665 2.01991 55.3975 16.9627 67.3442 40.9337L67.1445 40.5226C63.32 32.7578 58.7315 25.8539 53.7653 20.0849C40.742 4.95793 25.1272 -2.37427 13.8924 3.00924C11.0143 4.38831 8.55725 6.52973 6.59942 9.37781C2.50144 15.3267 0.712912 23.9737 1.42051 34.3895C2.14113 44.9767 5.40562 56.4247 10.8537 67.4915C16.6013 79.1623 24.1157 89.1284 32.5982 96.315C40.5771 103.078 48.8729 106.769 56.0487 106.769C56.2961 106.769 56.5479 106.765 56.791 106.757C59.413 106.662 61.8701 106.071 64.1014 105.001C70.6651 101.857 74.9975 94.7732 76.2999 84.7942L75.5705 85.2182H75.5792Z" fill="white"></path>
<path d="M56.0544 108.03C48.579 108.03 39.9533 104.21 31.7703 97.2715C23.162 89.9735 15.5347 79.866 9.7133 68.0412C4.19144 56.8287 0.883538 45.2222 0.154236 34.4766C-0.575066 23.7824 1.2916 14.857 5.5502 8.67685C7.63826 5.64461 10.2603 3.36186 13.3424 1.88428C19.1204 -0.882423 26.153 -0.599756 33.6804 2.71515C40.535 5.73027 47.5024 11.1095 53.8882 18.3047H53.8969L54.739 19.2769C54.739 19.2769 54.7434 19.2811 54.7477 19.2854L55.5465 20.2148H55.5378C60.4172 26.0523 64.7062 32.695 68.2919 39.9801L68.4959 40.3998L66.2038 41.4962C60.5387 30.1338 53.046 20.4161 45.1018 14.1417C37.5961 8.21002 30.5201 6.13713 25.6841 8.45415C23.7524 9.37924 22.1635 10.9896 20.9741 13.2295C15.8342 22.8916 18.5431 41.903 27.7158 60.5376C36.8885 79.1679 50.3589 93.0229 61.2376 95.0144C63.7598 95.477 66.0215 95.2414 67.9533 94.312C71.335 92.6888 73.3058 89.8108 74.339 84.9755L74.4562 84.4358L77.9117 82.4186L77.5775 84.9712C76.2317 95.2842 71.6475 102.805 64.6714 106.15C62.2795 107.298 59.6488 107.927 56.8488 108.03C56.5883 108.038 56.3235 108.043 56.0631 108.043L56.0544 108.03ZM21.877 2.52671C19.2203 2.52671 16.7198 3.0535 14.4538 4.14134C11.7753 5.4219 9.49191 7.42198 7.65563 10.0859C3.71827 15.7992 2.00354 24.1764 2.69377 34.3053C3.40571 44.734 6.62245 56.0193 12.0011 66.9447C17.6705 78.4613 25.0807 88.2904 33.4286 95.3656C41.1514 101.91 49.1868 105.516 56.05 105.516C56.2801 105.516 56.5145 105.516 56.7446 105.503C59.1886 105.413 61.4764 104.865 63.5471 103.876C67.3586 102.051 70.3713 98.749 72.4116 94.2692C71.4435 95.1943 70.3279 95.9524 69.0559 96.5605C66.6206 97.7254 63.8336 98.0338 60.7645 97.4728C49.1303 95.3442 34.9263 80.9367 25.4193 61.6255C15.9124 42.3142 13.2166 22.3862 18.7124 12.0517C20.1623 9.32356 22.1331 7.34918 24.5641 6.18425C27.1514 4.94223 30.1077 4.68954 33.268 5.30198C29.3003 3.4775 25.4454 2.52243 21.877 2.52243V2.52671Z" fill="#141414"></path>
</svg>