<svg width="87" height="87" viewBox="0 0 87 87" fill="none" xmlns="http://www.w3.org/2000/svg">
<path d="M43.6609 62.7906C54.5129 62.7906 63.3102 53.9934 63.3102 43.1414C63.3102 32.2894 54.5129 23.4922 43.6609 23.4922C32.809 23.4922 24.0117 32.2894 24.0117 43.1414C24.0117 53.9934 32.809 62.7906 43.6609 62.7906Z" fill="white"></path>
<path d="M43.47 86.8503L48.6975 72.3934L43.4463 68.7969L38.2031 72.4091L43.47 86.8503Z" fill="white"></path>
<path d="M12.7578 74.1708L26.6741 67.6482L25.4993 61.3898L19.239 60.2344L12.7578 74.1708Z" fill="white"></path>
<path d="M0 43.4873L14.4487 48.7164L18.048 43.4636L14.4329 38.2188L0 43.4873Z" fill="white"></path>
<path d="M12.6719 12.7656L19.1925 26.6863L25.4529 25.515L26.6041 19.2527L12.6719 12.7656Z" fill="white"></path>
<path d="M43.3486 0L38.1211 14.453L43.3762 18.0535L48.6195 14.4412L43.3486 0Z" fill="white"></path>
<path d="M74.0648 12.6562L60.1523 19.1788L61.3233 25.4372L67.5836 26.5927L74.0648 12.6562Z" fill="white"></path>
<path d="M86.8214 43.3619L72.3727 38.1328L68.7773 43.3895L72.3885 48.6344L86.8214 43.3619Z" fill="white"></path>
<path d="M74.1509 74.0886L67.6303 60.1719L61.3699 61.3431L60.2188 67.6054L74.1509 74.0886Z" fill="white"></path>
</svg>