<svg width="148" height="87" viewBox="0 0 148 87" fill="none" xmlns="http://www.w3.org/2000/svg">
<path d="M13.1561 55.9609C8.13832 59.1021 2.06567 63.8079 0 69.125C0 69.125 6.68634 62.0382 17.0307 58.0765C15.6389 57.4853 14.3473 56.7814 13.1601 55.9609H13.1561Z" fill="#D3D3D3"></path>
<path d="M81.3162 33.5154C75.396 38.7158 67.6427 46.7639 66.3271 54.1925C65.6894 57.7962 64.5061 62.0596 62.9258 66.3148C67.3499 66.5562 72.111 66.2867 77.0766 65.2209C77.8307 62.4417 78.2839 59.3165 78.3441 55.7973C78.5246 45.1269 86.4984 34.6134 92.2863 28.3672C88.7727 29.976 85.0745 31.7135 81.3162 33.5113V33.5154Z" fill="#D3D3D3"></path>
<path d="M88.2634 27.9267C88.2634 27.9267 68.4972 41.8992 66.3232 54.1784C64.5825 64.0122 58.8026 78.777 51.8676 84.8019C51.0373 85.5219 51.7112 86.8612 52.7821 86.632C61.9432 84.6572 77.9592 78.0289 78.3402 55.7872C78.625 38.9993 98.1987 22.6016 98.1987 22.6016L88.2594 27.9307L88.2634 27.9267Z" fill="#D3D3D3"></path>
<path d="M111.44 46.785C109.499 49.894 106.86 52.8099 103.474 55.5891C103.189 61.0631 102.082 66.8508 99.9125 70.3097C99.5154 70.9411 100.217 71.6812 100.867 71.3152C106.374 68.2464 115.331 60.8821 111.512 46.6562C111.484 46.7005 111.46 46.7407 111.436 46.785H111.44Z" fill="#D3D3D3"></path>
<path d="M143.488 21.8149C143.488 21.8149 140.219 27.313 135.967 22.559C131.716 17.8049 127.139 12.7774 89.5401 36.6561C66.517 51.2801 39.19 56.4927 39.19 56.4927C0.824816 62.944 7.14615 30.8121 7.14615 30.8121C7.14615 35.8396 11.0689 73.6506 110.141 15.8382C124.348 7.54882 134.864 6.49103 142.453 10.7584C142.453 10.7584 150.604 15.2912 146.677 21.7385C146.677 21.7385 144.431 24.8957 139.77 17.5596L143.488 21.8149Z" fill="#D3D3D3"></path>
<path d="M10.9688 35.1494C11.3538 36.2193 11.9153 37.3736 12.7456 38.4837C15.7659 42.5258 21.1406 44.573 28.7254 44.573C36.3102 44.573 46.4661 42.369 58.2705 38.0252C71.1337 33.2873 86.3234 25.9511 103.466 16.1977C84.9316 22.6008 83.1226 1.89144 92.9055 0.0574061C76.5245 -1.25377 88.4051 20.3324 73.1753 20.1675C73.9013 13.692 68.8354 11.7977 68.8354 11.7977C72.0643 16.0409 69.3368 22.086 61.5876 22.3434C53.8383 22.6008 49.7912 12.7348 55.7315 8.83343C61.6718 4.93208 64.9648 12.6181 64.9648 12.6181C64.9648 12.6181 64.7322 1.2077 54.9373 4.369C40.3894 9.7223 52.266 24.5595 48.2831 30.4598C44.2961 36.3601 34.409 36.4848 31.6214 29.5468C28.8337 22.6088 35.4439 19.8457 35.4439 19.8457C35.4439 19.8457 29.4675 17.6738 26.6237 24.1975C23.7799 30.7212 29.3993 38.1579 29.3993 38.1579C29.3993 38.1579 23.1261 43.3624 10.9728 35.1494H10.9688Z" fill="white"></path>
<path d="M91.1525 39.2038C89.2633 40.4023 87.35 41.5406 85.4247 42.6144C83.1104 46.7812 81.4338 51.3221 81.3576 55.8308C81.3054 58.8593 80.9725 61.7069 80.3789 64.3815C84.3257 63.2674 88.3809 61.6345 92.4841 59.3339C115.973 46.1659 111.107 34.2285 115.074 25.6094C108.801 28.5213 100.863 33.038 91.1525 39.2038Z" fill="#D3D3D3"></path>
<path d="M39.7467 59.4643L39.7146 59.4723H39.6825C39.2894 59.5447 38.9124 59.593 38.5273 59.6493C42.9675 61.9097 50.5122 65.0307 59.8057 66.0523C61.4382 61.8011 62.6936 57.4291 63.3594 53.6565C63.4236 53.2945 63.5038 52.9285 63.5961 52.5625C50.5644 57.3567 40.4366 59.3315 39.7507 59.4643H39.7467Z" fill="#D3D3D3"></path>
</svg>