<svg width="166" height="81" viewBox="0 0 166 81" fill="none" xmlns="http://www.w3.org/2000/svg">
<path d="M27.3548 78.6742C27.7339 74.4182 28.5795 70.2986 29.8442 66.3707C30.1613 65.3831 29.6802 64.3145 28.7325 63.9166L7.09694 54.8557C6.05452 54.4172 4.85903 54.9588 4.48725 56.0348C2.0343 63.0986 0.496184 70.5861 0.00413482 78.3683C-0.0687614 79.5143 0.831507 80.4871 1.96869 80.4871H25.3975C26.4144 80.4871 27.26 79.7022 27.3512 78.6742H27.3548Z" fill="white"></path>
<path d="M47.6329 40.133C50.7856 37.5352 54.2227 35.2801 57.893 33.4193C58.8152 32.9513 59.2307 31.8459 58.8334 30.8842L49.8744 9.01859C49.4443 7.96474 48.227 7.49309 47.2101 7.98317C40.4234 11.2442 34.1398 15.4117 28.5195 20.3272C27.6557 21.0826 27.6083 22.4239 28.4174 23.2382L44.9977 40.0004C45.7121 40.7226 46.8492 40.7778 47.6292 40.1293L47.6329 40.133Z" fill="white"></path>
<path d="M33.6615 57.2806C35.6114 53.5847 37.9587 50.1394 40.6449 46.9926C41.3192 46.2041 41.2828 45.0249 40.5538 44.288L23.9991 27.5516C23.2008 26.7447 21.8996 26.7815 21.1452 27.6253C16.1408 33.241 11.8764 39.5457 8.50496 46.3809C7.99469 47.4127 8.45758 48.6655 9.51457 49.1077L31.1793 58.1797C32.1161 58.5703 33.1876 58.1797 33.6651 57.2769L33.6615 57.2806Z" fill="white"></path>
<path d="M142.494 28.5985L125.918 45.357C125.2 46.0829 125.152 47.2362 125.794 48.0284C128.276 51.0795 130.452 54.3958 132.263 57.9332C132.733 58.8507 133.816 59.256 134.76 58.8617L156.406 49.7971C157.452 49.3587 157.919 48.1169 157.423 47.0851C154.209 40.412 150.141 34.2362 145.366 28.698C144.619 27.8284 143.296 27.7842 142.491 28.5985H142.494Z" fill="white"></path>
<path d="M109.223 34.2311C112.711 36.1361 115.976 38.4059 118.969 40.9927C119.749 41.667 120.912 41.6301 121.641 40.8932L138.195 24.1568C138.993 23.3499 138.957 22.027 138.115 21.2679C132.677 16.3487 126.597 12.1444 120.015 8.7986C118.994 8.27904 117.752 8.74701 117.314 9.8156L108.337 31.7254C107.951 32.6687 108.337 33.7484 109.223 34.2347V34.2311Z" fill="white"></path>
<path d="M88.6 27.8033C92.6348 28.2233 96.5421 29.0819 100.274 30.3274C101.255 30.6553 102.315 30.1689 102.713 29.2035L111.672 7.33792C112.102 6.28406 111.573 5.08282 110.513 4.6996C103.69 2.25658 96.4582 0.686858 88.9499 0.130454C87.8091 0.0457035 86.8359 0.959533 86.8359 2.11656V25.8282C86.8359 26.8489 87.6013 27.6964 88.6037 27.8033H88.6Z" fill="white"></path>
<path d="M66.9609 29.8054C70.7698 28.6667 74.7463 27.9261 78.8467 27.635C79.8782 27.5613 80.68 26.6991 80.68 25.6563V1.98883C80.68 0.850225 79.736 -0.0562352 78.6098 0.00272156C71.0285 0.38594 63.717 1.79722 56.8028 4.10021C55.7167 4.46132 55.1663 5.68468 55.6037 6.74958L64.5809 28.6631C64.9672 29.6027 65.9914 30.0928 66.9573 29.8054H66.9609Z" fill="white"></path>
<path d="M135.969 67.0369C137.113 70.7622 137.889 74.6497 138.247 78.6587C138.338 79.6831 139.183 80.4717 140.204 80.4717H163.633C164.77 80.4717 165.67 79.4989 165.597 78.3529C165.123 70.8359 163.673 63.5879 161.369 56.7379C161.005 55.6509 159.802 55.1018 158.752 55.544L137.095 64.6123C136.158 65.0066 135.67 66.0531 135.972 67.0332L135.969 67.0369Z" fill="white"></path>
<path d="M112.086 80.1108H53.51L50.3281 73.5703H115.271L112.086 80.1108Z" fill="white"></path>
<path d="M60.1846 69.3594H105.114C105.767 69.3594 106.299 69.8937 106.299 70.5569V73.5711H59V70.5569C59 69.8974 59.5285 69.3594 60.1846 69.3594Z" fill="#C8C8C8"></path>
<path d="M71.8491 47.6912C71.8491 47.6912 67.9965 52.8757 70.2673 55.7056C72.5343 58.5392 70.6099 62.7325 70.6099 62.7325C70.6099 62.7325 74.7431 56.0778 72.5343 53.3989C70.3256 50.7201 71.8491 47.6875 71.8491 47.6875V47.6912Z" fill="white"></path>
<path d="M94.9897 47.6912C94.9897 47.6912 91.1372 52.8757 93.4079 55.7056C95.675 58.5392 93.7505 62.7325 93.7505 62.7325C93.7505 62.7325 97.8837 56.0778 95.675 53.3989C93.4662 50.7201 94.9897 47.6875 94.9897 47.6875V47.6912Z" fill="white"></path>
<path d="M83.4233 38.0506C83.4233 38.0506 79.5708 43.2351 81.8415 46.065C84.1085 48.8986 82.1841 53.0919 82.1841 53.0919C82.1841 53.0919 86.3173 46.4372 84.1085 43.7583C81.8998 41.0795 83.4233 38.0469 83.4233 38.0469V38.0506Z" fill="white"></path>
</svg>