<svg width="107" height="84" viewBox="0 0 107 84" fill="none" xmlns="http://www.w3.org/2000/svg">
<path d="M73.4613 69.9241C65.6855 78.54 54.3806 83.935 41.8075 83.8452C19.0126 83.679 0.32453 65.2074 0.00411041 42.5178C-0.320822 19.0915 18.6606 0 42.1189 0C47.1779 0 52.0248 0.889437 56.5197 2.51558C57.2328 2.77612 57.5397 3.61615 57.1606 4.27199L47.1915 21.4588C46.9342 21.9035 46.4198 22.1416 45.9143 22.0473C44.6868 21.8137 43.4186 21.6879 42.1189 21.6879C30.6244 21.6879 21.3594 31.1842 21.8016 42.7244C22.1988 53.0338 30.5071 61.5014 40.8508 62.1258C48.8658 62.611 55.9511 58.4648 59.6743 52.1264L53.8029 44.5392C52.9771 43.4746 53.7398 41.9248 55.0936 41.9248H83.0107C83.6877 41.9248 84.2337 42.4729 84.2337 43.1422V79.0835C84.2337 80.6333 82.2616 81.2981 81.3139 80.0718L73.4568 69.9241H73.4613Z" fill="white"></path>
<path d="M76.1746 37.5013C80.6311 37.5013 84.2438 33.9053 84.2438 29.4694C84.2438 25.0335 80.6311 21.4375 76.1746 21.4375C71.7182 21.4375 68.1055 25.0335 68.1055 29.4694C68.1055 33.9053 71.7182 37.5013 76.1746 37.5013Z" fill="white"></path>
<path d="M88.9688 52.823V43.147C88.9688 42.4732 89.5148 41.9297 90.1918 41.9297H105.622C106.849 41.9297 107.309 43.5244 106.271 44.1757L90.8416 53.8517C90.0293 54.3638 88.9688 53.7799 88.9688 52.823Z" fill="white"></path>
</svg>