<svg width="131" height="66" viewBox="0 0 131 66" fill="none" xmlns="http://www.w3.org/2000/svg">
<path d="M57.5643 13.3945C61.6817 8.91327 68.8075 8.91327 72.9249 13.3945L120.548 65.2446H130.489L74.1402 3.89319C69.372 -1.29773 61.1172 -1.29773 56.349 3.89319L0 65.238H9.94159L57.5643 13.3945Z" fill="white"></path>
<path d="M62.5765 57.3565C63.2937 56.5812 64.2633 56.1869 65.2395 56.1869C65.2395 56.1869 65.2528 56.1869 65.2595 56.1869C65.5849 56.1869 65.9169 56.2395 66.229 56.3249C66.2888 56.3446 66.3552 56.3644 66.415 56.3841C66.9662 56.5746 67.4776 56.89 67.9026 57.35L75.1479 65.2349H86.7564L68.8589 45.746C66.9197 43.6368 63.5594 43.6368 61.6202 45.746L43.7227 65.2349H55.3311L62.5765 57.35V57.3565Z" fill="white"></path>
<path d="M38.9335 57.0354L60.2644 33.8077C60.4304 33.6237 60.6031 33.4594 60.789 33.2952C61.3336 32.8221 61.9313 32.4475 62.5688 32.1716C65.1123 31.0808 68.207 31.6262 70.206 33.8011L73.6261 37.5268L99.0811 65.2423H109.468L71.2619 23.6493C68.0277 20.1273 62.436 20.1273 59.2018 23.6493L20.9961 65.2423H31.3826L38.9202 57.0354H38.9335Z" fill="white"></path>
</svg>