<svg width="90" height="113" viewBox="0 0 90 113" fill="none" xmlns="http://www.w3.org/2000/svg">
<path d="M37.9513 111.501C37.9513 111.501 52.0187 95.7164 67.3989 103.105C78.8552 108.69 89.1211 100.149 89.1211 100.149C89.1211 100.149 75.5017 114.77 62.9524 112.239C50.4031 109.708 46.9894 105.858 37.9492 111.501H37.9513Z" fill="white"></path>
<path d="M34.1935 -6.42649e-06L27.5078 6.78174L34.1935 13.5635L40.8792 6.78174L34.1935 -6.42649e-06Z" fill="white"></path>
<path d="M46.6427 0.0156186L39.957 6.79736L46.6427 13.5791L53.3284 6.79736L46.6427 0.0156186Z" fill="white"></path>
<path d="M40.4186 18.5083C18.0949 18.5083 0 36.8653 0 59.5076C0 82.1499 18.0949 100.507 40.4186 100.507C62.7423 100.507 80.8372 82.1499 80.8372 59.5076C80.8372 36.8653 62.7402 18.5083 40.4186 18.5083ZM57.068 68.4273C57.3376 83.9233 45.9145 92.2814 40.4186 92.8767C34.9206 92.2814 23.4996 83.9233 23.7692 68.4273V65.4758L18.4496 60.0798L23.7692 54.6838V50.59C23.4996 35.094 34.9206 26.7359 40.4186 26.1406C45.9145 26.7359 57.3376 35.094 57.068 50.59V54.6838L62.3876 60.0798L57.068 65.4758V68.4273Z" fill="white"></path>
</svg>