<svg width="82" height="90" viewBox="0 0 82 90" fill="none" xmlns="http://www.w3.org/2000/svg">
<path d="M16.3831 37.837L12.6217 41.6857C12.3553 41.9582 12.3553 42.3931 12.6217 42.6657L16.3831 46.5143C16.8081 46.9491 17.5376 46.6441 17.5376 46.0275V38.3238C17.5376 37.7072 16.8081 37.4022 16.3831 37.837Z" fill="white"></path>
<path d="M59.7979 21.6875H54.4761C53.8735 21.6875 53.5754 22.4339 54.0004 22.8687L59.3222 28.3139C59.7472 28.7487 60.4766 28.4437 60.4766 27.8271V22.3819C60.4766 21.999 60.1722 21.6875 59.7979 21.6875Z" fill="white"></path>
<path d="M48.9447 21.8965C48.8178 21.7667 48.6466 21.6953 48.469 21.6953H32.4464C32.2688 21.6953 32.0975 21.7667 31.9707 21.8965L26.3063 27.6922L20.6419 33.4878C20.5151 33.6176 20.4453 33.7928 20.4453 33.9746V50.3685C20.4453 50.5502 20.5151 50.7255 20.6419 50.8553L31.9707 62.4466C32.0975 62.5764 32.2688 62.6478 32.4464 62.6478H48.469C48.6466 62.6478 48.8178 62.5764 48.9447 62.4466L60.2734 50.8553C60.4003 50.7255 60.47 50.5502 60.47 50.3685V33.9746C60.47 33.7928 60.4003 33.6176 60.2734 33.4878L48.9447 21.8965Z" fill="white"></path>
<path d="M59.3144 56.0323L53.9926 61.4775C53.5676 61.9124 53.8657 62.6587 54.4683 62.6587H59.7901C60.1644 62.6587 60.4688 62.3472 60.4688 61.9643V56.5191C60.4688 55.9025 59.7394 55.5975 59.3144 56.0323Z" fill="white"></path>
<path d="M20.4297 56.5191V61.9643C20.4297 62.3472 20.7342 62.6587 21.1084 62.6587H26.4302C27.0328 62.6587 27.3309 61.9124 26.906 61.4775L21.5841 56.0323C21.1591 55.5975 20.4297 55.9025 20.4297 56.5191Z" fill="white"></path>
<path d="M21.5856 28.3126L24.2497 25.5867L26.9138 22.8609C27.3388 22.426 27.0406 21.6797 26.438 21.6797H21.1162C20.742 21.6797 20.4375 21.9912 20.4375 22.3741V27.8193C20.4375 28.4359 21.167 28.7409 21.5919 28.3061L21.5856 28.3126Z" fill="white"></path>
<path d="M44.2202 18.7421C44.8228 18.7421 45.1209 17.9957 44.6959 17.5609L40.9345 13.7123C40.6681 13.4397 40.2431 13.4397 39.9767 13.7123L36.2152 17.5609C35.7902 17.9957 36.0884 18.7421 36.691 18.7421H44.2202Z" fill="white"></path>
<path d="M44.2202 65.625H36.691C36.0884 65.625 35.7902 66.3714 36.2152 66.8062L39.9767 70.6548C40.2431 70.9274 40.6681 70.9274 40.9345 70.6548L44.6959 66.8062C45.1209 66.3714 44.8228 65.625 44.2202 65.625Z" fill="white"></path>
<path d="M64.5216 46.5143L68.2831 42.6657C68.5495 42.3931 68.5495 41.9582 68.2831 41.6857L64.5216 37.837C64.0966 37.4022 63.3672 37.7072 63.3672 38.3238V46.0275C63.3672 46.6441 64.0966 46.9491 64.5216 46.5143Z" fill="white"></path>
<path d="M40.64 0C18.23 0 0 18.6525 0 41.582C0 64.5115 18.23 83.164 40.64 83.164C42.9869 83.164 45.2831 82.9563 47.5222 82.5669L47.148 82.184L40.4497 75.3305L36.0413 79.8411C34.8551 79.6918 33.688 79.4906 32.5399 79.231L37.9252 73.7209C38.1916 73.4483 38.1916 73.0135 37.9252 72.7409L31.1571 65.816C31.0303 65.6862 30.859 65.6148 30.6814 65.6148H21.1097C20.7355 65.6148 20.431 65.9263 20.431 66.3092V74.1038C19.4351 73.4548 18.4647 72.7539 17.5386 72.014V66.3092C17.5386 65.9263 17.2341 65.6148 16.8599 65.6148H11.2019C10.4597 64.6608 9.75563 63.6743 9.1023 62.6553H16.8599C17.2341 62.6553 17.5386 62.3438 17.5386 61.9609V52.1673C17.5386 51.9856 17.4688 51.8104 17.3419 51.6806L10.5739 44.7557C10.3075 44.4831 9.88249 44.4831 9.61609 44.7557L3.98979 50.5124C3.72338 49.3571 3.50137 48.1824 3.33645 46.9883L8.04935 42.1661L3.20325 37.2077C3.33645 35.9875 3.52674 34.7804 3.76778 33.5992L9.61609 39.5831C9.88249 39.8556 10.3075 39.8556 10.5739 39.5831L17.3419 32.6581C17.4688 32.5283 17.5386 32.3531 17.5386 32.1714V22.3778C17.5386 21.9949 17.2341 21.6834 16.8599 21.6834H8.3665C8.96909 20.6644 9.61609 19.678 10.3075 18.7239H17.5386V11.1435C18.471 10.4036 19.4351 9.70268 20.431 9.05368V18.0295C20.431 18.4124 20.7355 18.7239 21.1097 18.7239H30.6814C30.859 18.7239 31.0303 18.6525 31.1571 18.5227L37.9252 11.5978C38.1916 11.3252 38.1916 10.8904 37.9252 10.6178L31.6011 4.14717C32.7239 3.8616 33.8593 3.62796 35.0137 3.45273L39.974 8.52798C40.2404 8.80056 40.6654 8.80056 40.9318 8.52798L45.9365 3.4073C47.1036 3.57604 48.2517 3.80319 49.3808 4.07578L42.9869 10.6178C42.7205 10.8904 42.7205 11.3252 42.9869 11.5978L49.755 18.5227C49.8819 18.6525 50.0531 18.7239 50.2307 18.7239H59.8024C60.1767 18.7239 60.4811 18.4124 60.4811 18.0295V8.80705C61.477 9.44308 62.4475 10.118 63.3736 10.8449V18.7239H70.9789C71.6703 19.678 72.3173 20.6644 72.9199 21.6834H64.0523C63.678 21.6834 63.3736 21.9949 63.3736 22.3778V32.1714C63.3736 32.3531 63.4433 32.5283 63.5702 32.6581L70.3382 39.5831C70.6046 39.8556 71.0296 39.8556 71.296 39.5831L77.4488 33.2877C77.7025 34.4624 77.8992 35.6566 78.0451 36.8702L72.8691 42.1661L77.9182 47.3322C77.7469 48.5134 77.5186 49.6816 77.2395 50.8304L71.3024 44.7557C71.036 44.4831 70.611 44.4831 70.3446 44.7557L63.5765 51.6806C63.4497 51.8104 63.3799 51.9856 63.3799 52.1673V61.9609C63.3799 62.3438 63.6844 62.6553 64.0586 62.6553H72.1968C71.5434 63.6808 70.8393 64.6673 70.0972 65.6148H64.0649C63.6907 65.6148 63.3862 65.9263 63.3862 66.3092V76.0379C74.1885 68.5548 81.2991 55.9056 81.2991 41.582C81.28 18.6525 63.0501 0 40.64 0Z" fill="white"></path>
<path d="M60.466 65.625H59.7936H50.2219C50.0443 65.625 49.8731 65.6964 49.7462 65.8262L49.0548 66.5336L42.4961 73.2444L58.3538 89.4696C58.8993 90.0277 59.5209 89.8201 59.7048 89.7422C59.8824 89.6643 60.466 89.3593 60.466 88.574V77.385V66.3194V65.6315V65.625Z" fill="white"></path>
</svg>