<svg width="115" height="115" viewBox="0 0 115 115" fill="none" xmlns="http://www.w3.org/2000/svg">
<path d="M29.8285 57.4367H27.5893C27.5987 42.1964 15.2402 29.838 0 29.838V27.5987C15.2402 27.5987 27.5987 15.2402 27.5987 0H29.838C29.838 15.2402 42.1964 27.5987 57.4367 27.5987V29.838C42.1964 29.838 29.838 42.1964 29.838 57.4367H29.8285Z" fill="white"></path>
<path d="M87.2638 57.4367H85.0245C85.0245 42.1964 72.666 29.838 57.4258 29.838V27.5987C72.666 27.5987 85.0245 15.2402 85.0245 0H87.2638C87.2638 15.2402 99.6222 27.5987 114.862 27.5987V29.838C99.6222 29.838 87.2638 42.1964 87.2638 57.4367Z" fill="white"></path>
<path d="M29.8285 114.857H27.5893C27.5987 99.6167 15.2402 87.2677 0 87.2677V85.0284C15.2402 85.0284 27.5987 72.6699 27.5987 57.4297H29.838C29.838 72.6699 42.1964 85.0284 57.4367 85.0284V87.2677C42.1964 87.2677 29.838 99.6261 29.838 114.866L29.8285 114.857Z" fill="white"></path>
<path d="M87.2677 57.4313H85.0284C85.0284 59.6044 84.7733 61.7114 84.2914 63.7428C84.2914 63.7428 84.282 63.7712 84.2631 63.8184C84.1119 64.442 83.9513 65.0656 83.7623 65.6703C82.9592 69.0906 81.7876 76.4981 84.6032 83.2159C84.915 83.9718 84.1686 84.7277 83.4505 84.3497C80.3042 82.7057 74.4746 80.8916 66.3868 83.5372C63.5806 84.4915 60.5665 85.0206 57.4297 85.0206V87.2598C72.6699 87.2598 85.0284 99.6183 85.0284 114.859H87.2677C87.2677 99.6183 99.6261 87.2598 114.866 87.2598V85.0206C99.6261 85.0206 87.2677 72.6621 87.2677 57.4219V57.4313Z" fill="white"></path>
</svg>