<svg width="102" height="139" viewBox="0 0 102 139" fill="none" xmlns="http://www.w3.org/2000/svg">
<path d="M100.782 62.0766C81.0145 59.5928 78.5059 56.7649 78.3922 56.6233C77.8422 55.9601 77.2841 55.3301 76.7234 54.7251C76.5121 53.9175 75.3174 49.5744 72.8251 45.1924C71.354 42.6087 69.7124 40.5384 67.9379 38.9871C67.9271 38.976 67.9135 38.9649 67.9 38.9538C65.302 36.6948 62.425 35.5597 59.3746 35.6402C56.6872 35.7151 54.5579 35.5514 52.8648 35.2572C52.8295 35.2461 52.7916 35.2406 52.751 35.2378C47.4277 34.2859 46.5391 32.038 46.4985 31.9214C46.4985 31.9159 46.4958 31.9131 46.4958 31.9103C46.4091 31.6356 46.1246 31.4802 45.8564 31.5662C45.5882 31.6495 45.4338 31.9381 45.5097 32.2156C45.5097 32.2212 45.5151 32.2323 45.5178 32.2461C45.7074 32.8511 48.6955 41.9954 56.1671 45.2173C55.3625 45.2784 54.5552 45.3839 53.7479 45.5393C51.9112 44.9981 26.6466 36.9029 14.9624 0.550774C14.8974 0.345411 14.7159 0.203876 14.5046 0.190001C14.2824 0.167799 14.0982 0.295457 14.0061 0.492495C13.9519 0.609053 11.6709 5.68209 10.4708 13.4581C6.36118 10.8772 2.63082 5.21031 2.59289 5.15203C2.4764 4.97442 2.2678 4.88561 2.05921 4.93001C1.85332 4.97442 1.69619 5.14093 1.65827 5.35184C1.14896 8.24913 0.764279 11.127 0.517755 13.9077C0.506919 14.0271 0.498792 14.1436 0.490665 14.263C-2.35113 47.8149 15.2144 61.6631 15.3932 61.8018C15.5286 61.9045 15.7074 61.935 15.87 61.8768C16.0515 61.8129 18.7632 60.8999 22.3473 61.7408C22.4123 61.7713 22.4827 61.7935 22.5559 61.7935C22.5586 61.7935 22.5613 61.7935 22.5667 61.7935C24.696 62.3291 27.1179 63.4975 29.4938 65.8147C24.6988 74.0959 22.0249 83.2707 22.2091 90.7359C22.2091 90.7553 22.2037 90.772 22.2064 90.7914C22.2118 90.8441 22.2146 90.8968 22.2173 90.9468C22.2281 91.2965 22.2389 91.6461 22.2606 91.9875C23.9213 115.66 13.3478 136.873 13.2422 137.087C13.1392 137.292 13.1772 137.545 13.3397 137.706C13.4372 137.806 13.5673 137.856 13.7 137.856C13.784 137.856 13.868 137.834 13.9465 137.792L33.7876 126.761C33.9745 126.655 34.0802 126.444 34.0531 126.228C33.132 119.262 33.1808 109.18 37.7401 98.3094C40.5521 91.9459 47.7474 79.2855 63.6061 68.7481C63.6278 68.7342 63.6441 68.7148 63.663 68.6982C65.218 67.6575 66.8489 66.6306 68.561 65.6205C77.3844 60.4115 100.422 63.1034 100.655 63.1311C100.937 63.17 101.192 62.9591 101.227 62.6705C101.259 62.3818 101.059 62.1182 100.78 62.0849L100.782 62.0766ZM67.1658 65.2375C65.8438 66.0368 64.5516 66.8554 63.2973 67.6963C62.5117 67.2884 59.9191 65.8092 57.6408 62.9591C54.0865 58.516 52.9244 52.9906 54.1678 46.5328C56.8308 46.0499 59.4423 46.0887 61.9997 46.6438C66.6863 47.8121 70.4601 50.3736 72.8792 52.4134C73.8707 53.2737 74.8541 54.2256 75.8213 55.2663C75.8456 55.294 75.8619 55.3162 75.8646 55.319C75.8782 55.3357 75.8944 55.3468 75.908 55.3606C76.4606 55.9573 77.0105 56.5817 77.5578 57.2367L67.1658 65.2347V65.2375ZM35.6027 100.893C36.1526 94.7849 36.4723 87.7859 36.4804 87.6221C37.1875 85.9376 37.7428 84.2725 38.1573 82.6351C38.3388 83.2873 38.6016 83.9311 38.9836 84.5306C39.8342 85.871 41.1237 86.7701 42.8142 87.2197C40.1783 90.944 38.049 94.8015 36.4235 98.7811C36.0659 99.6387 35.7977 100.349 35.6054 100.893H35.6027ZM5.69475 45.7529C6.95175 46.2802 9.04043 46.9185 11.7305 46.9185C12.76 46.9185 13.8869 46.8158 15.0816 46.5827C16.1598 48.8001 17.4439 51.0064 18.9745 53.1627C18.9745 53.1627 18.9745 53.1627 18.9745 53.1655C18.9745 53.1682 18.9799 53.171 18.9799 53.1738C19.0016 53.2071 19.0314 53.2293 19.0612 53.2543C19.0748 53.2681 19.0883 53.2848 19.1046 53.2959C19.1452 53.3237 19.1885 53.3431 19.2346 53.3569C19.2454 53.3597 19.2536 53.368 19.2644 53.3708C19.305 53.3819 19.3457 53.3819 19.389 53.3819C19.4053 53.3819 19.4242 53.3875 19.4405 53.3875C19.4703 53.3875 19.5001 53.3708 19.5326 53.3625C19.5597 53.3542 19.5895 53.3542 19.6166 53.3403C19.6437 53.3292 22.2471 52.0998 25.3814 52.1997C25.7472 52.2108 26.102 52.2441 26.4515 52.2885C26.652 52.3301 27.1532 52.43 27.8575 52.566C27.9875 52.6021 28.1176 52.6354 28.2422 52.6743C28.253 52.677 28.2639 52.6826 28.272 52.6854C19.6301 57.0313 11.0803 54.7501 10.4356 54.5697C8.86976 52.2885 7.18744 49.3635 5.69475 45.7502V45.7529ZM1.41716 15.7171C2.7771 17.3268 5.72455 20.2962 9.7502 21.4451C9.73937 22.261 9.74749 23.1324 9.77458 24.051C9.81522 25.9076 9.94796 27.8308 10.1945 29.8068C5.11772 28.4164 1.99419 25.0723 1.26545 24.2203C1.17064 21.5478 1.21127 18.7143 1.41716 15.7171ZM44.6103 42.4061C46.4118 51.1202 50.3264 58.0026 56.568 63.4253C54.8261 65.3097 52.9487 67.0719 50.9468 68.7176C39.6419 59.2043 36.1418 40.6244 35.3751 35.5236C38.6856 38.5153 41.8633 40.7521 44.613 42.4033L44.6103 42.4061ZM62.3221 68.3485C60.7914 69.3892 59.3448 70.4493 57.9713 71.5233C57.0963 71.3013 56.4272 70.8462 55.9856 70.1579C55.0591 68.7148 55.3165 66.6556 55.4031 66.1117C56.0587 65.4678 56.6954 64.8101 57.3184 64.1385C59.2256 66.3615 61.2384 67.7158 62.3221 68.3513V68.3485ZM37.5722 48.9056C24.929 46.3635 13.7894 37.5745 12.5432 36.5643C12.4105 36.0648 12.2859 35.5653 12.1721 35.0685C11.3946 31.6023 11.0126 28.3276 10.8582 25.4497C14.5019 29.6597 27.0908 42.4727 36.391 45.0592C36.7351 46.2886 37.1279 47.579 37.5722 48.9056ZM25.3733 51.1479C22.7239 51.0758 20.4753 51.8556 19.5868 52.2136C16.4903 47.5485 14.3881 42.8362 13.0173 38.26C16.4768 40.8742 26.6764 47.9703 37.9677 50.06C38.3578 51.1562 38.7858 52.2719 39.2518 53.393C36.4967 53.1405 30.7264 52.0554 28.02 51.5281C27.0908 51.2783 26.1914 51.1701 25.3706 51.1507L25.3733 51.1479ZM31.577 53.2709C34.538 53.8093 37.9866 54.3838 39.7177 54.4837C40.2731 55.7492 40.8826 57.0174 41.5463 58.269C40.2514 58.3245 37.6101 58.3911 35.3805 58.1691C35.3805 58.1691 35.3805 58.1663 35.3805 58.1636C34.3023 55.899 32.9803 54.3366 31.577 53.2709ZM39.1217 76.3022C39.1868 75.1116 39.1868 73.9433 39.1299 72.7999C39.1299 72.7943 39.1299 72.7888 39.1299 72.7832C39.0865 71.9007 39.008 71.0349 38.8996 70.1829C40.5006 69.7722 45.8158 68.3318 47.6038 66.972C48.3948 67.824 49.2319 68.6316 50.1178 69.3892C46.7802 72.0312 43.1068 74.3429 39.1217 76.3049V76.3022ZM38.7533 69.1311C38.5447 67.7935 38.263 66.4947 37.9298 65.2403C39.4089 64.9711 43.4102 64.2135 44.911 63.6862C45.5422 64.552 46.2086 65.3901 46.913 66.1977C45.6424 67.1219 41.5111 68.4123 38.7533 69.1311ZM37.6426 64.2218C37.1577 62.5817 36.5834 61.022 35.9549 59.5595C35.9115 59.4568 35.8682 59.3597 35.8302 59.2681C38.3822 59.4679 41.2023 59.3486 42.1098 59.2986C42.779 60.4892 43.4996 61.6603 44.2798 62.7926C42.9388 63.2033 39.8722 63.8194 37.6453 64.2246L37.6426 64.2218ZM35.0121 59.9841C35.7165 61.627 36.2989 63.256 36.773 64.8767C35.9359 67.0691 33.197 68.3707 32.2137 68.7731C31.8398 67.7768 31.3576 66.7583 30.7508 65.7204C32.0186 63.5918 33.4111 61.5743 34.8902 59.6982C34.9281 59.7898 34.9688 59.8814 35.0121 59.9841ZM37.1685 66.3393C37.6995 68.4623 38.0273 70.5631 38.1573 72.6445C35.944 74.3346 33.9447 74.057 33.2512 73.8822C33.2079 72.5668 32.9912 71.1931 32.555 69.7722C33.4761 69.4003 35.8655 68.293 37.1685 66.3393ZM33.2458 74.9562C33.5438 75.0145 33.9366 75.0672 34.4053 75.0672C35.4158 75.0672 36.7676 74.823 38.2115 73.8877C38.2684 76.2883 38.0544 78.6583 37.5722 80.995C35.0311 81.2031 33.1239 79.4409 32.5767 78.8664C32.9505 77.6342 33.1916 76.3271 33.2458 74.9534V74.9562ZM38.8833 78.847C38.9186 78.5778 38.9511 78.3086 38.9782 78.0422C39.0134 77.8174 39.0459 77.6287 39.073 77.4983C40.7986 76.6657 42.4647 75.7665 44.0766 74.8063C44.0116 75.9747 44.1118 77.909 45.2469 79.2827C45.9188 80.0958 46.8507 80.5843 48.0156 80.748C47.0891 81.7693 46.1924 82.81 45.339 83.8673C44.6916 84.6693 44.0712 85.4769 43.4752 86.29C41.8389 85.9487 40.6144 85.1689 39.8424 83.9589C38.8102 82.3382 38.7587 80.2568 38.8806 78.847H38.8833ZM48.9285 79.7573C47.6471 79.7517 46.6692 79.3687 46.0352 78.6028C44.8351 77.1541 45.0898 74.7397 45.1765 74.1347C46.5608 73.2717 47.9045 72.3642 49.1967 71.4067C49.2617 72.367 49.5299 73.7878 50.4808 74.823C51.0578 75.453 51.8028 75.8526 52.6968 76.0191C51.3829 77.2346 50.1286 78.4807 48.9285 79.7545V79.7573ZM53.7615 75.0533C52.6697 75.0617 51.8218 74.7481 51.2339 74.1098C50.2153 72.9997 50.1909 71.2097 50.2126 70.6408C50.5269 70.3966 50.8384 70.1496 51.1472 69.8998C51.2285 69.8665 51.3016 69.8166 51.3585 69.7416C51.3612 69.7361 51.3639 69.7305 51.3667 69.725C52.3663 68.9118 53.3334 68.0654 54.2708 67.194C54.2491 68.2153 54.39 69.5973 55.1187 70.7351C55.5738 71.4484 56.2023 71.9701 56.9879 72.3059C55.8583 73.2189 54.7828 74.1348 53.7615 75.0561V75.0533ZM36.0605 43.8658C26.1643 40.6633 12.5297 25.6162 10.7878 23.6569C10.7282 19.8633 11.0478 16.3665 11.5355 13.3083C14.4992 18.0289 25.6686 34.7077 35.0825 39.7142C35.3399 40.9519 35.6623 42.3506 36.0605 43.8658ZM10.3408 30.9363C10.5683 32.4876 10.869 34.0694 11.251 35.6735C11.4515 36.5421 11.6763 37.4191 11.9283 38.3071C6.4587 38.21 3.14554 35.4598 2.44389 34.816C1.91292 32.0769 1.52552 29.1046 1.3386 25.8854C2.8367 27.3785 5.90606 29.8401 10.3435 30.9363H10.3408ZM12.2236 39.3617C12.2236 39.3617 12.2344 39.3617 12.2398 39.3617C12.871 41.4181 13.6512 43.5134 14.613 45.6031C9.57682 46.4995 5.97649 44.765 5.11231 44.2904C4.22374 41.9454 3.42186 39.3367 2.77981 36.445C4.39983 37.6161 7.60734 39.3589 12.2236 39.3589V39.3617ZM34.3186 58.3634C34.3565 58.4411 34.3944 58.5188 34.4324 58.5965C32.8611 60.5447 31.3901 62.6594 30.0437 64.8878C28.0905 63.0285 26.0912 61.8962 24.2247 61.2301C26.1454 60.417 29.4396 58.5576 31.7152 54.7751C32.6607 55.6659 33.5465 56.8398 34.3186 58.3634ZM29.3204 83.3706C27.2317 86.5148 24.547 88.7489 23.2386 89.734C23.2982 82.7711 25.7986 74.4123 30.1494 66.7611C33.2106 72.3447 32.9343 77.9284 29.3204 83.3706ZM23.4011 93.3917C24.4739 95.0041 26.3486 97.03 29.1849 97.5406C27.443 99.6359 25.4519 101.701 23.2088 103.727C23.3632 101.767 23.5935 97.8431 23.4011 93.3917ZM30.5232 97.5073C30.5232 97.5073 30.5286 97.5018 30.5313 97.4962C30.534 97.4907 30.5395 97.4879 30.5422 97.4824C29.9516 104.323 28.207 123.65 26.9012 129.386L22.3419 131.92C24.4847 124.235 26.5192 106.455 27.0665 101.443C28.3343 100.127 29.4829 98.8144 30.5232 97.5046V97.5073ZM29.9651 96.5776C25.6876 96.203 23.5826 91.7294 23.2684 90.9995C23.9971 90.4833 26.0695 88.932 28.1392 86.5537C28.8328 87.7054 30.6045 89.9616 34.0152 90.5C32.8909 92.5536 31.5391 94.5795 29.9624 96.5749L29.9651 96.5776ZM34.5434 89.5037C30.916 89.093 29.2798 86.5259 28.849 85.7073C30.1412 84.0921 31.3684 82.1633 32.2001 79.9682C33.0589 80.7674 34.8225 82.0773 37.1496 82.0773C37.2092 82.0773 37.2715 82.0718 37.3311 82.0718C36.7188 84.5889 35.7869 87.0671 34.5434 89.5065V89.5037ZM60.0004 36.7003C62.723 36.7697 65.0528 37.8909 67.0168 39.5476C66.7974 40.6494 66.4805 44.1295 69.7449 48.8279C69.6338 48.7585 69.52 48.6891 69.4089 48.6197C69.3439 48.5809 69.2789 48.542 69.2139 48.5032C69.1272 48.4504 69.0405 48.3977 68.9538 48.3477C62.0484 43.5939 60.377 38.4043 60.0004 36.6975V36.7003ZM75.125 53.0267C74.5588 52.4744 73.8328 51.8167 72.9768 51.1229C68.2251 46.0998 67.8404 42.098 67.9515 40.3996C71.8064 44.1988 74.1037 49.9657 75.125 53.0267ZM58.9439 36.7003C59.1958 38.0768 60.2984 42.1424 64.8902 46.4356C64.8713 46.4301 64.8523 46.4218 64.8334 46.4162C56.6899 43.1942 54.1516 38.2627 53.4608 36.4034C54.9832 36.6171 56.7956 36.7336 58.9466 36.7003H58.9439ZM47.5469 34.4802C48.5628 35.1351 50.0744 35.7873 52.304 36.2146C52.648 37.4413 54.2057 41.6346 59.9652 45.1785C59.9218 45.1729 59.8812 45.1618 59.8352 45.1563C53.114 44.2405 49.2482 38.0657 47.5442 34.4802H47.5469ZM54.6825 60.1783C50.2857 55.5382 47.3681 49.913 45.8158 43.1138C49.3945 45.1369 52.0846 46.1082 53.1248 46.4467C52.0277 52.2746 52.9921 56.7843 54.6798 60.1783H54.6825ZM14.426 2.20756C19.5651 17.4738 27.0936 27.6837 34.1831 34.4219C34.2292 34.8104 34.4134 36.2424 34.8144 38.3599C25.013 32.5348 13.207 13.9827 11.8064 11.7459C12.6381 7.28059 13.7731 3.91985 14.426 2.20756ZM2.46827 6.77551C3.82009 8.65153 6.89215 12.5673 10.2622 14.5488C10.1376 15.3619 9.86127 17.4378 9.77188 20.3545C5.2613 18.9502 2.14319 15.0123 1.53365 14.1936C1.53907 14.127 1.54449 14.0631 1.5499 13.9965C1.7585 11.646 2.06733 9.22045 2.46827 6.77551ZM15.8212 60.7917C15.2496 60.306 13.4968 58.7214 11.3919 55.9046C12.5649 56.1432 14.4558 56.4152 16.7883 56.4152C20.1665 56.4152 24.4685 55.8102 28.8463 53.5762C28.9574 53.5207 29.2364 53.3542 29.445 53.1766C29.9408 53.4236 30.4338 53.7261 30.9133 54.0924C28.0255 58.9933 23.1627 60.5419 22.5125 60.7278C19.2617 59.9924 16.6556 60.5613 15.8185 60.7889L15.8212 60.7917ZM23.0598 105.258C24.0648 104.379 25.0103 103.499 25.9043 102.619C25.1647 109.18 23.0923 126.364 21.0578 132.636L14.8568 136.082C16.6854 132.006 21.6023 119.953 23.0598 105.258ZM32.9939 126L28.0932 128.725C29.5209 121.307 31.2628 100.749 31.6502 96.0365C33.0399 94.1466 34.2048 92.2678 35.1719 90.4084C35.2234 90.3501 35.2586 90.2808 35.2803 90.203C35.3074 90.1475 35.3345 90.0948 35.3616 90.0393C35.1313 94.1161 34.5976 102.4 33.8797 106.788C32.4575 112.943 32.1568 119.356 32.9966 126H32.9939ZM71.5301 63.195L78.3732 57.9277C79.5706 58.6853 82.4612 59.9758 89.3313 61.3412C83.5123 61.2385 76.6096 61.5687 71.5301 63.195Z" fill="#D3D3D3"></path>
<path d="M13.7076 138.043C13.5234 138.043 13.35 137.971 13.2173 137.838C12.9951 137.616 12.9436 137.278 13.0872 136.994C13.1929 136.784 23.7419 115.581 22.084 91.9976C22.0623 91.6951 22.0515 91.3843 22.0433 91.0763L22.0271 90.7876V90.7349C21.8456 83.2197 24.4815 74.156 29.2657 65.8471C27.2339 63.8989 24.9773 62.5973 22.5499 61.984C22.4632 61.984 22.3793 61.9618 22.2953 61.923C18.7112 61.0904 16.0482 62.0173 15.9371 62.059C15.7204 62.1367 15.4793 62.0978 15.2897 61.9563C15.1109 61.8175 -2.53859 47.8916 0.31133 14.2481L0.341129 13.8901C0.587653 11.1066 0.972338 8.22318 1.48435 5.31757C1.53582 5.02617 1.74984 4.80138 2.03158 4.7431C2.31603 4.68482 2.59777 4.80416 2.7576 5.04837C2.79282 5.10388 6.39044 10.5377 10.3429 13.1464C11.5539 5.49518 13.8214 0.458221 13.843 0.411043C13.9704 0.1363 14.2386 -0.0246605 14.5257 0.00309132C14.8075 0.0225176 15.0513 0.214005 15.1407 0.494299C20.0088 15.6468 27.7567 27.7022 38.1649 36.3302C46.0781 42.888 52.8209 45.0665 53.7582 45.3468C54.319 45.2413 54.8852 45.1553 55.446 45.0943C48.3239 41.5809 45.4631 32.6947 45.3439 32.3062C45.2274 31.8955 45.4387 31.5014 45.8044 31.3876C46.1647 31.2711 46.5576 31.4792 46.674 31.8566C46.7093 31.951 47.5464 34.1184 52.7857 35.0564C52.8101 35.0564 52.8642 35.0648 52.9157 35.0786C54.7443 35.395 56.9224 35.5227 59.3687 35.4533C62.4624 35.3728 65.3611 36.5023 68.0187 38.8112C68.0403 38.8307 68.0539 38.8418 68.0647 38.8529C69.8635 40.4264 71.5215 42.53 72.9844 45.0998C75.4415 49.418 76.6443 53.6973 76.8908 54.6326C77.4651 55.2542 78.0178 55.8842 78.5325 56.503C78.63 56.6224 81.0844 59.4142 100.804 61.8924C101.186 61.9396 101.459 62.2976 101.413 62.6917C101.391 62.886 101.297 63.058 101.145 63.1746C100.999 63.2911 100.814 63.3411 100.633 63.3161C99.6848 63.2051 77.2972 60.6825 68.6553 65.7832C67.0001 66.7601 65.3557 67.7952 63.7655 68.8554C63.7546 68.8692 63.733 68.8887 63.7059 68.9053C47.9825 79.3539 40.7954 91.8616 37.9103 98.3861C33.2913 109.395 33.3645 119.588 34.2368 126.199C34.2747 126.493 34.1311 126.785 33.8765 126.926L14.0354 137.957C13.9324 138.016 13.816 138.043 13.7022 138.043H13.7076ZM19.3018 61.1959C20.212 61.1959 21.2604 61.2874 22.3955 61.5539L22.4307 61.565C22.4822 61.5899 22.5229 61.601 22.5635 61.601L22.6177 61.6066C25.1588 62.2477 27.5156 63.6158 29.6287 65.675L29.7371 65.7805L29.6612 65.9109C24.8635 74.1948 22.2194 83.2419 22.4037 90.7294V90.7405V90.7738L22.4199 91.0624C22.4307 91.3677 22.4389 91.6729 22.4605 91.9699C24.1239 115.659 13.5288 136.958 13.4231 137.169C13.3554 137.302 13.3798 137.461 13.4854 137.563C13.5857 137.663 13.7455 137.688 13.8728 137.619L33.7139 126.59C33.8331 126.524 33.9009 126.388 33.8819 126.249C33.0015 119.588 32.9283 109.323 37.5825 98.2307C40.4839 91.6646 47.7116 79.0875 63.5189 68.5834L63.5542 68.5501C65.1688 67.4678 66.8186 66.4326 68.4819 65.4502C77.2267 60.2884 99.7336 62.8249 100.687 62.9359C100.777 62.947 100.861 62.9248 100.928 62.8693C100.999 62.8138 101.045 62.7333 101.053 62.6417C101.075 62.4586 100.947 62.2893 100.768 62.2671C81.2388 59.8138 78.5054 57.0525 78.2562 56.7445C77.736 56.1201 77.178 55.4845 76.5955 54.8546L76.563 54.8185L76.5522 54.7713C76.3382 53.9499 75.1489 49.64 72.6728 45.2857C71.2316 42.752 69.6008 40.6817 67.8263 39.1304L67.9103 38.9528L67.7911 39.0971C65.2067 36.8492 62.3703 35.7502 59.3931 35.8279C56.9251 35.8973 54.7199 35.7669 52.848 35.4422C52.8046 35.4311 52.7803 35.4255 52.7586 35.4255C47.2863 34.4487 46.3761 32.0842 46.3381 31.9843C46.2758 31.79 46.0943 31.6901 45.9264 31.7456C45.753 31.7984 45.6554 31.9843 45.7042 32.1591C45.8342 32.5754 48.8115 41.8279 56.256 45.036L56.9712 45.344L56.1991 45.4023C55.408 45.4606 54.6007 45.5688 53.7989 45.7214L53.7555 45.7298L53.7122 45.7159C52.9509 45.4911 46.0483 43.3292 37.9455 36.6161C27.4669 27.9492 19.6811 15.8327 14.7885 0.610856C14.7452 0.480423 14.6314 0.388842 14.4959 0.380516C14.3578 0.36664 14.2413 0.438795 14.179 0.572004C14.1573 0.621957 11.8573 5.73107 10.6599 13.4877L10.6166 13.7708L10.3782 13.6209C6.26583 11.0372 2.59777 5.4924 2.44335 5.25929C2.37021 5.1455 2.23476 5.09 2.10201 5.11775C1.97198 5.1455 1.87174 5.25096 1.84736 5.38695C1.33806 8.28146 0.956084 11.1538 0.70956 13.9262L0.68247 14.2786C-2.1512 47.714 15.333 61.515 15.5118 61.651C15.6012 61.7176 15.7123 61.737 15.8152 61.701C15.8965 61.6732 17.251 61.1986 19.3045 61.1986L19.3018 61.1959ZM14.4553 136.528L14.6883 136.009C16.6686 131.594 21.4338 119.761 22.875 105.246L22.8832 105.171L22.94 105.121C23.9153 104.267 24.8716 103.381 25.7764 102.491L26.1503 102.124L26.0907 102.652C25.305 109.609 23.2624 126.465 21.236 132.704L21.2117 132.776L14.4553 136.534V136.528ZM23.238 105.36C21.8375 119.364 17.3594 130.867 15.2572 135.648L20.9055 132.507C22.8615 126.399 24.8391 110.33 25.6599 103.126C24.8797 103.881 24.067 104.63 23.238 105.36ZM22.0488 132.307L22.1707 131.871C24.3 124.24 26.3209 106.639 26.8898 101.428L26.898 101.361L26.944 101.314C28.1793 100.032 29.3388 98.7108 30.3872 97.3898L30.7665 96.918L30.734 97.5036C30.0676 105.216 28.3771 123.768 27.0903 129.432L27.0713 129.515L22.0488 132.307ZM27.2529 101.533C26.684 106.737 24.7307 123.701 22.6475 131.541L26.7463 129.263C28.0195 123.546 29.7343 104.708 30.3114 98.0836C29.3659 99.2464 28.3392 100.404 27.2529 101.533ZM27.8353 129.091L27.9112 128.694C29.3497 121.223 31.1241 100.171 31.4654 96.0244L31.4708 95.9689L31.5034 95.9245C32.8498 94.0929 34.0282 92.2085 35.0089 90.3214L35.0333 90.2853C35.0631 90.2493 35.0847 90.2076 35.101 90.1549L35.1145 90.1188L35.5967 89.1614L35.5453 90.055C35.296 94.4537 34.7705 102.482 34.0607 106.825C32.6439 112.959 32.3486 119.4 33.1776 125.98L33.1938 126.11L27.8326 129.091H27.8353ZM31.8339 96.1104C31.4871 100.312 29.7723 120.593 28.3527 128.369L32.7983 125.899C31.9829 119.317 32.2863 112.875 33.7031 106.751C34.3641 102.71 34.8653 95.4194 35.1308 90.9042C34.1934 92.6581 33.0854 94.4093 31.8366 96.1132L31.8339 96.1104ZM22.9942 104.181L23.0322 103.709C23.1866 101.766 23.4141 97.8449 23.2245 93.3991L23.1947 92.7303L23.5631 93.2825C24.6142 94.8616 26.451 96.8514 29.225 97.351L29.5447 97.4092L29.3334 97.6618C27.5915 99.7598 25.576 101.847 23.341 103.867L22.9942 104.181ZM23.62 94.018C23.7555 97.8921 23.5821 101.303 23.4385 103.27C25.4351 101.442 27.2529 99.5572 28.8431 97.6646C26.4103 97.1206 24.7063 95.4888 23.6173 94.018H23.62ZM35.2879 102.352L35.4206 100.875C35.9489 95.0198 36.2632 88.3621 36.2984 87.6212L36.3146 87.5462C37 85.9117 37.5608 84.2438 37.9807 82.587L38.1514 81.9098L38.3383 82.5814C38.5333 83.2808 38.7961 83.8858 39.1402 84.4269C39.9637 85.7202 41.2153 86.5971 42.8597 87.0356L43.1225 87.105L42.9626 87.3326C40.3484 91.0291 38.2056 94.9088 36.5937 98.8579C36.2848 99.5933 36.0112 100.298 35.7782 100.961L35.2852 102.355L35.2879 102.352ZM36.6695 87.6656C36.6316 88.4953 36.3607 94.1456 35.911 99.5572C36.0221 99.2797 36.1358 98.9966 36.255 98.708C37.8452 94.8117 39.9475 90.9847 42.5102 87.3326C40.8983 86.8497 39.663 85.945 38.8313 84.6378C38.5767 84.2354 38.3573 83.7886 38.1785 83.303C37.7802 84.7655 37.2736 86.2308 36.6695 87.6683V87.6656ZM30.0567 96.7765L29.9592 96.7682C25.6112 96.388 23.49 91.9616 23.108 91.079L23.0457 90.9347L23.173 90.8459C23.9478 90.2992 25.9742 88.7701 28.0114 86.4306L28.1766 86.2391L28.3067 86.4556C29.0408 87.6739 30.7638 89.7941 34.0526 90.3159L34.3181 90.3575L34.188 90.5962C33.0611 92.6526 31.693 94.7062 30.119 96.6988L30.0567 96.7765ZM23.5117 91.0652C24.0074 92.1558 26.0121 95.9772 29.8915 96.3769C31.3679 94.5008 32.6574 92.5749 33.7329 90.6433C30.6473 90.0661 28.9325 88.1262 28.1225 86.8663C26.218 89.0171 24.3515 90.4602 23.5089 91.0652H23.5117ZM23.0565 90.1105V89.7303C23.1188 82.7174 25.6464 74.3114 29.9944 66.663L30.157 66.3744L30.3168 66.6658C33.416 72.3188 33.1342 77.9746 29.4797 83.4778C27.3991 86.611 24.7497 88.8395 23.3545 89.8885L23.0538 90.1133L23.0565 90.1105ZM30.1515 67.1459C26.0148 74.5195 23.5821 82.5676 23.4358 89.3473C24.8689 88.2373 27.2664 86.1337 29.1736 83.2614C32.6764 77.983 33.0069 72.563 30.1515 67.1459ZM34.6567 89.7053L34.5294 89.6915C30.7909 89.2669 29.1167 86.6027 28.6914 85.7951L28.6318 85.6813L28.7103 85.5814C30.1813 83.7442 31.3002 81.8294 32.0316 79.8951L32.1292 79.637L32.3296 79.8229C33.1559 80.5916 34.8815 81.8821 37.1544 81.8821C37.1869 81.8821 37.2222 81.8821 37.2547 81.8793L37.5743 81.8682L37.5147 82.1124C36.9052 84.6184 35.9625 87.1355 34.7109 89.5888L34.6513 89.7053H34.6567ZM29.0788 85.7229C29.5583 86.586 31.1295 88.8672 34.4427 89.2946C35.6103 86.9829 36.5016 84.6184 37.0948 82.2623C34.8978 82.2429 33.1992 81.0912 32.2781 80.2864C31.544 82.1374 30.4685 83.9662 29.076 85.7229H29.0788ZM43.5586 86.4972L43.4422 86.4722C41.749 86.117 40.4866 85.3067 39.6928 84.0578C38.639 82.4038 38.574 80.3002 38.704 78.8238V78.8155C38.7392 78.5491 38.7717 78.2799 38.8015 78.0163C38.8368 77.7804 38.872 77.5861 38.8991 77.4529L38.918 77.3613L39.002 77.3197C40.6952 76.501 42.3748 75.5991 43.9921 74.6361L44.2901 74.4585L44.2711 74.8109C44.2142 75.8544 44.2847 77.8053 45.3981 79.1513C46.0347 79.92 46.926 80.3918 48.0502 80.5528L48.4051 80.6027L48.1613 80.8719C47.1996 81.932 46.3029 82.9783 45.4902 83.9829C44.8536 84.771 44.2305 85.5842 43.6318 86.3973L43.5614 86.4944L43.5586 86.4972ZM39.0724 78.8627C38.9478 80.278 39.0101 82.29 40.0044 83.8497C40.725 84.982 41.8682 85.7285 43.4042 86.0726C43.984 85.2845 44.5881 84.5019 45.203 83.7415C45.9534 82.8118 46.777 81.8488 47.6547 80.8719C46.5982 80.6555 45.7448 80.1615 45.1136 79.4011C44.0707 78.1411 43.8566 76.4483 43.8864 75.1412C42.3775 76.0292 40.8171 76.8646 39.2458 77.625C39.2242 77.7443 39.1971 77.8941 39.17 78.069C39.1429 78.3271 39.1104 78.5963 39.0752 78.8655L39.0724 78.8627ZM37.1599 81.1994C34.7407 81.1994 32.9554 79.5315 32.4461 78.9959L32.3675 78.9154L32.4001 78.8072C32.7874 77.5306 33.0096 76.229 33.0611 74.9441L33.0692 74.7221L33.2805 74.7637C33.6435 74.8359 34.0201 74.872 34.4048 74.872C35.2852 74.872 36.6424 74.6722 38.1107 73.7231L38.3871 73.5427L38.3952 73.8785C38.4521 76.2818 38.2354 78.6879 37.7504 81.0301L37.7206 81.1689L37.5825 81.18C37.4362 81.1911 37.2953 81.1966 37.1544 81.1966L37.1599 81.1994ZM32.7902 78.81C33.3807 79.4066 35.1227 80.933 37.4199 80.8109C37.8561 78.649 38.062 76.4344 38.0322 74.2198C36.5964 75.069 35.2798 75.2549 34.4075 75.2549C34.0742 75.2549 33.7437 75.23 33.4241 75.1772C33.3591 76.3872 33.145 77.6083 32.7902 78.81ZM49.012 79.945H48.9334C47.587 79.9367 46.5657 79.526 45.8993 78.7239C44.6639 77.2309 44.8969 74.8109 44.9972 74.106L45.0107 74.0172L45.0865 73.97C46.4871 73.0986 47.8335 72.1828 49.0932 71.2504L49.3641 71.0505L49.3885 71.3919C49.4535 72.3521 49.719 73.7064 50.6211 74.6916C51.1684 75.2882 51.8781 75.6712 52.7369 75.8322L53.108 75.9016L52.8263 76.1624C51.5341 77.3585 50.269 78.6129 49.0661 79.8895L49.012 79.9478V79.945ZM45.3547 74.2476C45.2735 74.8803 45.0784 77.1421 46.1837 78.4769C46.7634 79.1763 47.6629 79.5426 48.8575 79.562C49.9655 78.3881 51.125 77.2337 52.3116 76.1264C51.5341 75.9182 50.8731 75.5241 50.3502 74.9525C49.4752 73.9978 49.1528 72.7406 49.0472 71.7554C47.8796 72.6102 46.6388 73.4455 45.3547 74.2503V74.2476ZM38.9207 76.612L38.9397 76.2901C39.002 75.1384 39.0047 73.9673 38.9478 72.8072C38.9045 71.9331 38.8259 71.0616 38.7203 70.2041L38.6986 70.0348L38.8584 69.9932C40.4378 69.5852 45.734 68.156 47.4976 66.8128L47.6303 66.7129L47.7441 66.835C48.5406 67.6926 49.3804 68.5002 50.2419 69.2356L50.4207 69.3882L50.2365 69.5325C46.8989 72.1745 43.1875 74.5084 39.2079 76.4705L38.9235 76.6092L38.9207 76.612ZM39.1077 70.3207C39.2052 71.1338 39.2756 71.958 39.3163 72.7684C39.3704 73.8507 39.3732 74.9275 39.3244 75.9876C43.1008 74.1032 46.6307 71.8803 49.822 69.3771C49.0526 68.7083 48.2995 67.9812 47.5816 67.218C45.7096 68.5279 40.8306 69.8739 39.105 70.3207H39.1077ZM53.7176 75.2411C52.596 75.2411 51.7156 74.9025 51.1034 74.2365C50.0306 73.0681 50.0116 71.1782 50.0333 70.6287V70.5371L50.1064 70.4816C50.4207 70.2402 50.7295 69.9932 51.0383 69.7434L51.0844 69.7157C51.1332 69.6963 51.1738 69.6685 51.2063 69.6324L51.2578 69.5686C52.2276 68.7777 53.2029 67.9312 54.1537 67.046L54.4734 66.7462L54.4626 67.1903C54.4409 68.1422 54.5655 69.5103 55.2807 70.6204C55.7114 71.2948 56.3129 71.7971 57.066 72.119L57.3586 72.2439L57.1093 72.4437C56.0094 73.3317 54.9258 74.2531 53.891 75.1883L53.8395 75.2355H53.7691C53.7528 75.2355 53.7365 75.2355 53.7203 75.2355L53.7176 75.2411ZM50.4017 70.7314C50.3909 71.3364 50.4505 72.9682 51.3743 73.9756C51.9106 74.5584 52.6909 74.8553 53.6959 74.8609C54.6468 74.0061 55.6356 73.1625 56.6379 72.3438C55.9471 71.9941 55.3864 71.4862 54.9692 70.8341C54.3082 69.8017 54.1158 68.5779 54.0914 67.6176C53.2435 68.3975 52.3766 69.144 51.5151 69.8489L51.507 69.86C51.4393 69.946 51.3526 70.0154 51.2469 70.0626C50.9679 70.2874 50.6862 70.5122 50.399 70.7342L50.4017 70.7314ZM34.4048 74.2032C33.8873 74.2032 33.4755 74.1282 33.2101 74.0616L33.0746 74.0283L33.0692 73.884C33.0258 72.5353 32.7929 71.1727 32.3811 69.8267L32.3296 69.6574L32.4922 69.5936C33.4322 69.2161 35.7512 68.1311 37.0217 66.23L37.2547 65.8832L37.3576 66.2911C37.8886 68.4086 38.2218 70.5399 38.3518 72.6296L38.3573 72.7323L38.276 72.7934C36.7887 73.9284 35.4017 74.2032 34.4075 74.2032H34.4048ZM33.4376 73.7231C34.2287 73.8923 35.9923 74.02 37.9726 72.5464C37.848 70.6426 37.5527 68.7027 37.0921 66.774C35.808 68.4585 33.7817 69.4631 32.7902 69.8766C33.1667 71.1505 33.3862 72.4437 33.4376 73.7203V73.7231ZM58.0169 71.7277L57.9302 71.7055C57.0037 71.4724 56.2993 70.9839 55.8334 70.2596C54.8744 68.7693 55.1236 66.6824 55.2238 66.0774L55.2347 66.0164L55.278 65.972C55.9255 65.3364 56.5675 64.6759 57.1852 64.0044L57.326 63.8517L57.4615 64.0071C59.3741 66.2328 61.3869 67.576 62.4164 68.1782L62.6791 68.3309L62.4272 68.5029C60.9589 69.4992 59.4987 70.5649 58.0873 71.6694L58.0169 71.7249V71.7277ZM55.5814 66.2023C55.4839 66.8406 55.2915 68.7222 56.1449 70.0487C56.5431 70.6703 57.1445 71.0949 57.9356 71.3114C59.2522 70.2846 60.6094 69.2911 61.9748 68.3558C60.8966 67.6981 59.0761 66.4188 57.3179 64.4151C56.7517 65.0228 56.1693 65.6223 55.5814 66.2023ZM38.6065 69.3632L38.574 69.1579C38.3735 67.8813 38.0999 66.577 37.7531 65.2865L37.699 65.0839L37.8994 65.0478C39.1456 64.8203 43.3311 64.0349 44.8536 63.502L44.9809 63.4576L45.0622 63.5687C45.6961 64.4401 46.3679 65.2809 47.0533 66.0663L47.1915 66.2245L47.0208 66.3466C45.6311 67.3596 41.1991 68.6833 38.7988 69.3077L38.6011 69.3577L38.6065 69.3632ZM38.1676 65.3864C38.4738 66.5547 38.723 67.7314 38.9099 68.8914C41.814 68.1255 45.3249 66.9849 46.6361 66.1579C46.0212 65.4447 45.4198 64.6898 44.8481 63.9072C43.3257 64.4095 39.8283 65.0811 38.1676 65.3864ZM32.1129 69.0163L32.0452 68.8359C31.6686 67.8341 31.181 66.8156 30.5958 65.811L30.5389 65.7111L30.5985 65.614C31.8555 63.5048 33.2507 61.4734 34.7515 59.5724L34.9439 59.3282L35.1877 59.8999C35.8785 61.5122 36.4745 63.1662 36.9567 64.8147L36.9756 64.8785L36.9513 64.9396C36.0979 67.1736 33.4078 68.4835 32.289 68.9442L32.1129 69.0163ZM30.9751 65.7166C31.5115 66.6463 31.9639 67.5871 32.3242 68.5168C33.3103 68.0894 35.7837 66.8461 36.5828 64.8619C36.1087 63.2523 35.5263 61.6343 34.849 60.058C33.4566 61.8453 32.1535 63.7463 30.9751 65.7166ZM50.9489 68.9581L50.8324 68.8609C39.5384 59.3587 36.0085 40.962 35.1958 35.5504L35.1172 35.0314L35.5019 35.3783C38.4142 38.0092 41.5106 40.3154 44.71 42.2386L44.7804 42.2802L44.7967 42.3635C46.5928 51.0415 50.483 57.8823 56.6921 63.2773L56.8411 63.4077L56.7057 63.5548C54.98 65.4197 53.0837 67.2069 51.0654 68.8665L50.9462 68.9636L50.9489 68.9581ZM35.6428 36.0083C36.5855 41.9361 40.1859 59.306 50.9516 68.4669C52.8588 66.8905 54.6576 65.1977 56.302 63.4354C50.1335 58.0238 46.2569 51.1802 44.4499 42.5244C41.3968 40.6845 38.4358 38.4949 35.6428 36.0111V36.0083ZM63.3158 67.909L63.2209 67.8591C62.4624 67.465 59.813 65.9581 57.5048 63.0719C53.9181 58.5872 52.7369 53.0091 53.9939 46.4874L54.0183 46.3597L54.1429 46.3375C56.814 45.8547 59.4716 45.8935 62.0452 46.4513C66.8213 47.6419 70.641 50.2672 73.0033 52.2626C73.9948 53.1229 74.9891 54.0886 75.9616 55.1321L76.0429 55.2209C76.6253 55.8481 77.1807 56.4808 77.7062 57.1136L77.8336 57.269L67.2656 65.4003C65.9219 66.2134 64.6215 67.0376 63.4052 67.8563L63.3158 67.9174V67.909ZM54.3325 46.69C53.1406 53.0368 54.3027 58.4679 57.792 62.8305C59.9674 65.5474 62.4462 67.0154 63.2941 67.4678C64.4888 66.6713 65.7566 65.8637 67.0705 65.07L77.2945 57.2024C76.8123 56.6279 76.303 56.0507 75.7801 55.4873C75.7611 55.4707 75.7449 55.454 75.7286 55.4374L75.6853 55.3874C74.729 54.3606 73.7429 53.4059 72.7622 52.554C70.4297 50.5863 66.6614 47.9943 61.9585 46.8232C59.477 46.2848 56.9089 46.2404 54.3298 46.6928L54.3325 46.69ZM30.0947 65.1783L29.9294 65.0201C28.1848 63.3577 26.2478 62.1422 24.1754 61.4012L23.7148 61.2375L24.1672 61.046C25.9552 60.2884 29.2928 58.4512 31.5711 54.6686L31.6903 54.4716L31.8555 54.627C32.8714 55.5844 33.76 56.8083 34.4996 58.2681C34.5375 58.3485 34.5781 58.4262 34.6161 58.5067L34.6675 58.6177L34.5917 58.7121C33.0367 60.6408 31.5657 62.7527 30.2193 64.984L30.1001 65.181L30.0947 65.1783ZM24.7389 61.207C26.6298 61.9479 28.4015 63.083 30.0161 64.5844C31.3164 62.4475 32.7306 60.4216 34.2232 58.5622C34.2043 58.5206 34.1826 58.4817 34.1636 58.4429C33.4864 57.1025 32.6791 55.9674 31.7634 55.0655C29.6097 58.5261 26.6 60.3494 24.7389 61.207ZM37.5202 64.4317L37.4714 64.2708C37.0136 62.7222 36.4474 61.1626 35.7918 59.6307L35.5426 59.0479L35.8514 59.0729C38.4196 59.2754 41.2885 59.1478 42.1066 59.1034L42.2204 59.0978L42.2773 59.2005C42.9599 60.4188 43.6887 61.5899 44.4364 62.6778L44.5854 62.8943L44.3388 62.9692C42.9816 63.3827 39.9041 64.0016 37.6827 64.404L37.5202 64.4345V64.4317ZM36.1304 59.4725C36.7698 60.9683 37.3251 62.4891 37.7775 63.996C39.8445 63.6186 42.5753 63.0691 43.9813 62.6723C43.2986 61.6676 42.6376 60.5964 42.0091 59.4864C41.0961 59.5335 38.5252 59.6362 36.1277 59.4725H36.1304ZM70.5625 63.7019L78.37 57.6936L78.4783 57.763C79.757 58.5733 82.6855 59.8222 89.3741 61.1515L89.3362 61.5289C84.1592 61.4373 76.8773 61.6843 71.5919 63.3744L70.5625 63.7046V63.7019ZM78.3916 58.1543L72.4615 62.7167C77.0263 61.4567 82.7749 61.132 87.4182 61.1293C82.1545 59.972 79.6134 58.898 78.3916 58.1515V58.1543ZM55.4189 61.2097L54.5601 60.3023C50.1281 55.6233 47.2132 50.0119 45.6473 43.1489L45.5525 42.7326L45.9182 42.9407C49.5104 44.9722 52.2032 45.9379 53.1947 46.2571L53.3519 46.307L53.3194 46.4735C52.3658 51.5355 52.8859 56.1145 54.8581 60.083L55.4189 61.2097ZM46.1052 43.4791C47.5762 49.665 50.1741 54.8102 54.0237 59.1617C52.4497 55.4207 52.0786 51.1913 52.9211 46.5679C51.8511 46.2127 49.3668 45.2913 46.1024 43.4791H46.1052ZM15.7827 60.9961L15.7096 60.9322C15.2057 60.5049 13.3988 58.8897 11.2505 56.0146L10.9525 55.615L11.4347 55.7121C12.3666 55.9008 14.3036 56.22 16.7959 56.22C21.0762 56.22 25.1046 55.2709 28.7726 53.4004C28.8702 53.3504 29.1356 53.1922 29.3361 53.0257L29.4282 52.948L29.5366 53.0008C30.0594 53.2616 30.5633 53.5752 31.0347 53.936L31.1701 54.0387L31.0835 54.1858C28.1414 59.1755 23.1351 60.7463 22.5743 60.9072L22.5283 60.9211L22.4822 60.91C19.2286 60.1746 16.6036 60.7713 15.8775 60.9711L15.7854 60.9961H15.7827ZM11.8438 56.1783C13.7428 58.6566 15.3222 60.1024 15.8721 60.577C16.7282 60.3522 19.3262 59.8194 22.512 60.5271C23.2299 60.3134 27.8597 58.7759 30.6717 54.1386C30.2897 53.8583 29.8888 53.6113 29.4743 53.3976C29.2738 53.5502 29.0462 53.6862 28.9352 53.7417C25.2156 55.64 21.1304 56.6002 16.7932 56.6002C14.6422 56.6002 12.8949 56.3671 11.8411 56.1783H11.8438ZM39.0074 58.5095C37.8507 58.5095 36.553 58.4734 35.3692 58.3541L35.2662 58.343L35.2202 58.2486C34.2395 56.1867 32.9798 54.566 31.4708 53.417L30.8369 52.9342L31.6144 53.0757C34.3397 53.5724 37.959 54.1858 39.7335 54.2857L39.8472 54.2912L39.8933 54.3967C40.4649 55.6982 41.0771 56.9693 41.7165 58.1681L41.8601 58.4373L41.5621 58.4512C40.9282 58.479 40.0206 58.5067 39.0101 58.5067L39.0074 58.5095ZM35.51 57.985C37.531 58.1765 39.8608 58.1376 41.2478 58.0849C40.6735 56.9887 40.1208 55.8398 39.6007 54.6631C37.9319 54.5521 34.8355 54.0442 32.27 53.5835C33.5514 54.7047 34.6377 56.1839 35.51 57.985ZM16.7932 55.5289C13.3392 55.5289 10.8739 54.8851 10.3944 54.7519L10.3294 54.7325L10.2915 54.677C8.45745 52.0072 6.85369 49.0267 5.52896 45.8214L5.35288 45.394L5.77007 45.5688C7.01894 46.0933 9.06699 46.7205 11.7354 46.7205C12.8055 46.7205 13.9216 46.6095 15.0513 46.3875L15.1894 46.3597L15.2518 46.4902C16.3733 48.7936 17.6764 50.9998 19.1284 53.0452C19.142 53.0646 19.1582 53.0785 19.1718 53.0896C19.2043 53.1173 19.2151 53.1284 19.2232 53.1395C19.2395 53.1534 19.2747 53.1645 19.2991 53.1728L19.3397 53.1922C19.3397 53.1922 19.3614 53.1895 19.3939 53.1922L19.4427 53.1978L19.5293 53.17C19.6513 53.1173 22.2574 51.9101 25.389 52.01C25.7249 52.0211 26.069 52.0489 26.4781 52.0988C26.6921 52.1404 27.1933 52.2404 27.8949 52.3791L27.9978 52.4069C28.1008 52.4346 28.201 52.4624 28.3013 52.4929L28.7455 52.6344L28.3581 52.8564C24.1754 54.96 20.0414 55.5317 16.7878 55.5317L16.7932 55.5289ZM10.5597 54.4022C11.7246 54.7214 19.5835 56.6307 27.7486 52.7343C27.093 52.6067 26.6189 52.5123 26.4239 52.4735C26.0419 52.4263 25.706 52.3985 25.3836 52.3902C22.3359 52.2931 19.8084 53.4642 19.7027 53.5142C19.6648 53.5336 19.6296 53.5391 19.6052 53.5447L19.57 53.553C19.5429 53.5613 19.5077 53.5724 19.467 53.578H19.4454L19.3939 53.5752C19.3451 53.5752 19.2855 53.5752 19.2259 53.5558L19.1718 53.5336C19.1365 53.5225 19.0715 53.4975 19.0092 53.4531L18.9523 53.4004C18.9063 53.3587 18.871 53.331 18.8412 53.2838C17.3946 51.2468 16.1024 49.0683 14.9863 46.7927C13.881 47.0008 12.7892 47.1063 11.7381 47.1063C9.28642 47.1063 7.34674 46.5901 6.0491 46.0933C7.31965 49.0933 8.83401 51.8851 10.5597 54.405V54.4022ZM75.5607 53.6918L75.0107 53.1562C74.3687 52.529 73.6291 51.8768 72.8733 51.2635C67.9672 46.0767 67.6773 41.9222 67.7776 40.3764L67.8047 39.9685L68.0918 40.2516C71.9603 44.0619 74.2766 49.8454 75.3114 52.9536L75.5553 53.689L75.5607 53.6918ZM68.1379 40.8316C68.1325 42.5799 68.742 46.3459 73.1252 50.9832C73.667 51.4217 74.2116 51.8907 74.7154 52.3569C73.6237 49.2626 71.4944 44.3006 68.1379 40.8316ZM39.5547 53.603L39.2458 53.5752C36.4393 53.3199 30.4441 52.1848 27.9978 51.7103C27.1526 51.4827 26.2749 51.3578 25.3782 51.3356C22.7531 51.2635 20.5073 52.0461 19.6648 52.3874L19.5266 52.4429L19.4427 52.3181C16.544 47.9499 14.3253 43.2377 12.8488 38.3117L12.6836 37.7595L13.1387 38.1036C16.9124 40.9565 26.8871 47.8112 38.0132 49.8676L38.1189 49.887L38.1541 49.9897C38.5523 51.1136 38.9831 52.232 39.4328 53.3116L39.5547 53.6057V53.603ZM25.3863 50.9527C26.3101 50.9776 27.2176 51.1053 28.0764 51.3384C30.4197 51.7935 36.0654 52.862 38.9668 53.1673C38.5713 52.2043 38.192 51.2163 37.8371 50.2228C27.1011 48.2052 17.4569 41.7807 13.3717 38.7502C14.821 43.3931 16.9368 47.8389 19.6648 51.9767C20.6184 51.6048 22.8181 50.8833 25.3836 50.9527H25.3863ZM70.4406 49.4735L69.6631 48.9851C69.552 48.9157 69.4409 48.8463 69.3271 48.7769L68.8747 48.5077C67.0813 47.2756 61.1702 42.8047 59.8319 36.7326L59.7804 36.494L60.0188 36.4995C62.5545 36.5661 64.952 37.5374 67.1491 39.3913L67.2358 39.4634L67.2141 39.5772C67.0217 40.5319 66.6506 44.0175 69.9123 48.7103L70.4406 49.4735ZM60.2545 36.8908C60.6961 38.6531 62.476 43.6428 69.0725 48.183L69.1348 48.2191C66.4583 44.023 66.5964 40.901 66.8294 39.6133C64.7922 37.9204 62.5843 37.0046 60.2545 36.888V36.8908ZM37.8615 49.1516L37.5445 49.0877C24.8337 46.5346 13.667 37.7067 12.4343 36.7077L12.3856 36.6688L12.3693 36.6077C12.2366 36.1054 12.112 35.6059 11.9955 35.1064C11.2965 31.9982 10.855 28.7512 10.6789 25.4543L10.6491 24.9076L11.004 25.3155C14.6937 29.5782 27.2854 42.3191 36.4447 44.8667L36.5449 44.8944L36.5747 44.9971C36.9377 46.2959 37.3332 47.5864 37.7531 48.8352L37.8588 49.1488L37.8615 49.1516ZM12.7134 36.4496C14.1438 37.6013 24.9556 46.0628 37.298 48.6493C36.9269 47.5253 36.572 46.3708 36.2469 45.208C32.2213 44.0591 27.2231 40.9648 21.3905 36.0028C17.0668 32.3256 13.2308 28.4071 11.0825 25.976C11.2749 29.0648 11.7056 32.1036 12.3585 35.0203C12.4668 35.4921 12.5888 35.9695 12.7134 36.4468V36.4496ZM65.7079 46.9259L64.7786 46.5873C56.6109 43.3542 54.0291 38.431 53.2977 36.4634L53.1866 36.1637L53.4982 36.2081C55.1019 36.4357 56.9386 36.5328 58.9542 36.5023H59.1113L59.1411 36.6577C59.4147 38.1535 60.539 42.086 65.0306 46.2876L65.7106 46.9231L65.7079 46.9259ZM53.7609 36.63C54.5818 38.6336 57.0741 42.8741 64.0689 45.8852C60.2166 42.0055 59.114 38.4338 58.8025 36.8853C56.9576 36.9075 55.2645 36.8214 53.7609 36.6272V36.63ZM11.7679 46.0461C8.25698 46.0461 5.81612 44.8861 5.03592 44.456L4.97632 44.4227L4.95194 44.3561C4.00377 41.8501 3.21543 39.2025 2.61131 36.4856L2.50295 36.0028L2.89847 36.2886C4.38574 37.3626 7.57972 39.1665 12.2339 39.1665V39.358L12.2393 39.1665H12.3774L12.4289 39.2997C13.0872 41.4421 13.881 43.5346 14.7912 45.5189L14.8942 45.7437L14.6531 45.7853C13.6263 45.9684 12.6619 46.0434 11.7652 46.0434L11.7679 46.0461ZM5.2716 44.1535C6.29021 44.7002 9.64943 46.221 14.3523 45.4523C13.4963 43.5624 12.7459 41.5781 12.1147 39.5467C7.79644 39.5189 4.71896 37.9704 3.07727 36.8742C3.65701 39.3829 4.39387 41.8306 5.2689 44.1535H5.2716ZM60.8532 45.4883L59.8265 45.3413C53.0214 44.4143 49.1149 38.1868 47.3919 34.5597L47.1075 33.9575L47.6601 34.3127C48.8413 35.0759 50.4207 35.6503 52.3522 36.0194L52.466 36.0416L52.4985 36.1554C52.8317 37.3432 54.3651 41.4948 60.0784 45.0082L60.8559 45.4883H60.8532ZM48.0042 34.9593C49.7407 38.4144 53.2706 43.6428 59.0951 44.8278C54.0671 41.4615 52.5581 37.6623 52.1707 36.3719C50.5209 36.0472 49.123 35.5726 48.0042 34.9565V34.9593ZM36.339 44.1479L36.0139 44.0425C26.0284 40.8122 12.2014 25.5153 10.6572 23.7809L10.6111 23.7281V23.656C10.5543 20.2314 10.8062 16.7374 11.3616 13.274L11.4401 12.7856L11.7029 13.2019C13.0412 15.3304 25.0585 34.16 35.1795 39.5411L35.2581 39.5827L35.2771 39.6716C35.5642 41.0508 35.892 42.444 36.2523 43.8149L36.3417 44.1507L36.339 44.1479ZM10.9742 23.5838C12.708 25.5264 26.0229 40.1877 35.7945 43.5762C35.4748 42.3385 35.1823 41.0841 34.9222 39.8408C25.2184 34.6235 13.8647 17.3147 11.6433 13.8291C11.1502 17.0871 10.9254 20.3646 10.9714 23.5838H10.9742ZM35.0766 38.7363L34.7217 38.5254C24.8608 32.6698 12.9734 13.965 11.6514 11.8531L11.6108 11.7893L11.6243 11.7144C12.4696 7.17416 13.6344 3.76901 14.2521 2.14276L14.4363 1.65988L14.6016 2.15108C19.0065 15.2333 25.6356 26.0454 34.3072 34.2877L34.356 34.3349L34.3641 34.4043C34.4102 34.79 34.5917 36.2109 34.9953 38.3284L35.0739 38.7391L35.0766 38.7363ZM12.0036 11.7116C13.4855 14.0733 24.9312 31.9982 34.5538 37.9815C34.2205 36.1887 34.058 34.9537 34.0065 34.518C25.4215 26.3424 18.8331 15.6634 14.4174 2.76717C13.7807 4.51276 12.7648 7.64872 12.0036 11.7116ZM12.1797 38.5032L11.9277 38.4977C6.3471 38.3977 2.94724 35.531 2.32145 34.9593L2.27539 34.9177L2.26456 34.8566C1.70649 31.9871 1.33535 28.9732 1.15655 25.9011L1.12675 25.4099L1.4708 25.7512C2.86597 27.1416 5.88114 29.6393 10.389 30.7549L10.5109 30.7854L10.5299 30.9131C10.7601 32.4866 11.0636 34.074 11.4374 35.6309C11.646 36.53 11.8709 37.4126 12.112 38.2562L12.1824 38.5032H12.1797ZM2.61402 34.7179C3.31838 35.3506 6.50422 37.9398 11.6812 38.1119C11.4645 37.3376 11.2613 36.5356 11.0717 35.7197C10.7087 34.1933 10.408 32.6392 10.1777 31.0935C5.9895 30.0278 3.08269 27.7993 1.55478 26.359C1.74171 29.2258 2.09659 32.0343 2.61402 34.7179ZM10.4107 30.0694L10.1425 29.9973C5.06572 28.6097 1.95572 25.3266 1.12134 24.3525L1.07799 24.3026V24.236C0.977756 21.4747 1.02923 18.6079 1.2297 15.7106L1.26221 15.2499L1.55749 15.5996C2.9364 17.2314 5.8405 20.1398 9.79843 21.2693L9.93659 21.3082V21.4553C9.92576 22.3072 9.93117 23.1814 9.95826 24.0528C10.0016 25.9844 10.1425 27.9159 10.3755 29.7891L10.4107 30.0694ZM1.44642 24.15C2.30519 25.1435 5.2391 28.174 9.97181 29.5505C9.75779 27.7521 9.62776 25.9039 9.58442 24.0584C9.56003 23.2314 9.55191 22.4016 9.55732 21.5912C5.8378 20.4867 3.05289 17.8697 1.56833 16.188C1.39495 18.8938 1.35431 21.569 1.44371 24.15H1.44642ZM9.95014 20.6144L9.71716 20.5422C5.13615 19.1186 1.97469 15.1029 1.38682 14.3147L1.34348 14.2564L1.36515 13.9845C1.57375 11.6311 1.88258 9.19727 2.28352 6.74956L2.35666 6.30553L2.61673 6.66631C4.09858 8.72272 7.07312 12.4581 10.3538 14.3896L10.4649 14.4562L10.4459 14.5867C10.3294 15.3443 10.0477 17.4257 9.95826 20.3702L9.95014 20.6199V20.6144ZM1.72545 14.1399C2.38646 15.0168 5.35017 18.6856 9.59254 20.101C9.68465 17.4201 9.93388 15.4803 10.0558 14.6505C6.9458 12.7773 4.13109 9.35546 2.57881 7.24909C2.21308 9.53862 1.92863 11.8143 1.73358 14.015L1.72275 14.1371L1.72545 14.1399Z" fill="#D3D3D3"></path>
</svg>