<svg width="62" height="120" viewBox="0 0 62 120" fill="none" xmlns="http://www.w3.org/2000/svg">
<path d="M21.0118 22.4517C20.543 13.0974 10.4114 11.9307 10.4114 11.9307V8.70151H51.6234V11.9307C51.6234 11.9307 41.4919 13.0974 41.0231 22.4517C41.0231 28.1324 46.1028 30.4657 47.6212 32.2713C48.055 32.7852 48.8736 33.4588 49.6503 34.6394H61.5101L58.0536 0L2.58887 5.14591L0 34.6394H12.3846C13.1612 33.4588 13.9799 32.7852 14.4137 32.2713C15.925 30.4588 21.0118 28.1324 21.0118 22.4517Z" fill="white"></path>
<path d="M48.1797 58.9282C48.1797 58.9282 47.4241 62.095 46.4375 66.7478L59.2629 67.6228L61.5089 38.4141L51.2654 38.8446C51.9861 42.6711 51.6222 48.7962 48.1797 58.9282Z" fill="#D3D3D3"></path>
<path d="M10.5374 40.5312L0 40.9688L3.28156 63.7746L15.1274 64.5871C14.3717 61.1357 13.8469 58.9135 13.8469 58.9135C10.8802 50.1633 10.2015 44.4063 10.5374 40.5312Z" fill="#D3D3D3"></path>
<path d="M61.5107 94.2451L58.2291 71.4392L45.6416 70.5781C44.0883 78.238 42.3111 88.0853 41.8633 95.0646L61.5107 94.2451Z" fill="white"></path>
<path d="M2.24602 67.625L0 96.8337L20.2212 95.9865C19.8503 88.3614 17.6813 76.7501 15.974 68.5625L2.24602 67.625Z" fill="white"></path>
<path d="M49.5593 108.386H12.4685C12.4685 108.386 17.4644 107.123 19.5005 103.053C19.9203 102.324 20.1512 101.109 20.2351 99.5321L0 100.268V119.019L61.5101 114.046V98.0391L41.7647 98.7543C41.8067 100.713 42.0376 102.213 42.5274 103.06C44.5635 107.129 49.5593 108.393 49.5593 108.393V108.386Z" fill="#D3D3D3"></path>
<path d="M47.6191 32.2651C46.1077 30.4526 41.021 28.1262 41.021 22.4455C41.4897 13.0912 51.6213 11.9245 51.6213 11.9245V8.69531H10.4023V11.9245C10.4023 11.9245 20.5339 13.0912 21.0027 22.4455C21.0027 28.1262 15.9229 30.4595 14.4046 32.2651C13.9708 32.779 13.1521 33.4526 12.3755 34.6332H49.6412C48.8645 33.4526 48.0459 32.779 47.6121 32.2651H47.6191Z" fill="#141414"></path>
<path d="M48.1789 58.9117C51.6144 48.7797 51.9783 42.6546 51.2646 38.8281L10.5354 40.5295C10.1995 44.4046 10.8782 50.1616 13.8449 58.9117C13.8449 58.9117 14.3697 61.134 15.1254 64.5854L46.4367 66.7244C47.4233 62.0785 48.1789 58.9048 48.1789 58.9048V58.9117Z" fill="#141414"></path>
<path d="M20.219 95.9718L41.8605 95.069C42.3083 88.0897 44.0855 78.2354 45.6389 70.5825L15.9648 68.5547C17.6721 76.7423 19.8411 88.3536 20.212 95.9787L20.219 95.9718Z" fill="#141414"></path>
<path d="M19.5007 103.056C17.4646 107.125 12.4688 108.389 12.4688 108.389H49.5595C49.5595 108.389 44.5637 107.125 42.5276 103.056C42.0378 102.215 41.8069 100.708 41.7649 98.75L20.2423 99.5278C20.1584 101.104 19.9275 102.326 19.5077 103.049L19.5007 103.056Z" fill="#141414"></path>
</svg>