<svg width="91" height="126" viewBox="0 0 91 126" fill="none" xmlns="http://www.w3.org/2000/svg">
<mask id="mask0_1165_19085" style="mask-type:luminance" maskUnits="userSpaceOnUse" x="16" y="12" width="59" height="94">
<path d="M45.2568 12.2422C61.1902 12.2422 74.1307 25.1827 74.1307 41.1161V105.669H16.375V41.1161C16.375 25.1827 29.3155 12.2422 45.2489 12.2422H45.2568Z" fill="white"></path>
</mask>
<g mask="url(#mask0_1165_19085)">
<path d="M22.2105 70.4062H15.5V86.1428H22.2105V70.4062Z" fill="white"></path>
<path d="M-4.1833 149.954C-25.2677 149.954 -42.4141 132.799 -42.4141 111.723C-42.4141 90.6464 -25.2598 73.4922 -4.1833 73.4922C16.8932 73.4922 34.0475 90.6464 34.0475 111.723C34.0475 132.799 16.8932 149.954 -4.1833 149.954ZM-4.1833 80.2027C-21.5659 80.2027 -35.7036 94.3403 -35.7036 111.723C-35.7036 129.106 -21.5659 143.243 -4.1833 143.243C13.1993 143.243 27.337 129.106 27.337 111.723C27.337 94.3403 13.1993 80.2027 -4.1833 80.2027Z" fill="white"></path>
<path d="M-4.18259 139.893C-19.7143 139.893 -32.3477 127.259 -32.3477 111.728C-32.3477 96.1958 -19.7143 83.5625 -4.18259 83.5625C11.3492 83.5625 23.9825 96.1958 23.9825 111.728C23.9825 127.259 11.3492 139.893 -4.18259 139.893ZM-4.18259 90.273C-16.0125 90.273 -25.6372 99.8976 -25.6372 111.728C-25.6372 123.558 -16.0125 133.182 -4.18259 133.182C7.64737 133.182 17.272 123.558 17.272 111.728C17.272 99.8976 7.64737 90.273 -4.18259 90.273Z" fill="white"></path>
<path d="M8.65532 75.8818C-4.22217 75.8818 -14.7053 65.3987 -14.7053 52.5212C-14.7053 49.0163 -13.9177 45.5823 -12.4133 42.4476C-17.1627 36.6114 -19.7539 29.3575 -19.7539 21.7727C-19.7618 3.697 -5.04916 -11.0156 13.0345 -11.0156C31.1181 -11.0156 45.8228 3.697 45.8228 21.7727C45.8228 32.5158 40.467 42.6287 31.7009 48.7249C31.9057 49.9772 32.0159 51.2452 32.0159 52.5212C32.0159 65.3987 21.5328 75.8818 8.65532 75.8818ZM13.0345 -4.30516C-1.34737 -4.30516 -13.0434 7.39091 -13.0434 21.7727C-13.0434 28.4596 -10.5073 34.8235 -5.90766 39.6909L-4.12765 41.5733L-5.49022 43.7708C-7.12058 46.4014 -7.98696 49.4258 -7.98696 52.5212C-7.98696 61.7047 -0.520382 69.1713 8.66319 69.1713C17.8468 69.1713 25.3133 61.7047 25.3133 52.5212C25.3133 51.0247 25.1086 49.5204 24.699 48.0633L24.0059 45.5744L26.227 44.267C34.174 39.5964 39.1123 30.9721 39.1123 21.7727C39.1123 7.39091 27.4163 -4.30516 13.0345 -4.30516Z" fill="white"></path>
<path d="M8.65336 66.4481C0.974127 66.4481 -5.27165 60.2023 -5.27165 52.5231C-5.27165 49.9318 -4.54704 47.4036 -3.18447 45.2061L-0.711363 41.2287L-3.9327 37.8262C-8.0598 33.4707 -10.3281 27.7684 -10.3281 21.7825C-10.3281 8.90501 0.155012 -1.57812 13.0325 -1.57812C25.91 -1.57812 36.3931 8.90501 36.3931 21.7825C36.3931 30.0288 31.9667 37.7474 24.8467 41.9297L20.822 44.3004L22.0743 48.7976C22.413 50.0184 22.5862 51.2708 22.5862 52.5231C22.5862 60.2023 16.3405 66.4481 8.66124 66.4481H8.65336ZM13.0325 5.12447C3.84892 5.12447 -3.61766 12.591 -3.61766 21.7746C-3.61766 26.0435 -1.99517 30.0997 0.942624 33.2108L7.7161 40.3702L2.50998 48.7425C1.809 49.8767 1.43094 51.1841 1.43094 52.5152C1.43094 56.4926 4.66804 59.7297 8.64549 59.7297C12.6229 59.7297 15.86 56.4926 15.86 52.5152C15.86 51.8693 15.7734 51.2235 15.5922 50.5855L12.9616 41.1105L21.4363 36.1328C26.5164 33.1478 29.6748 27.6423 29.6748 21.7667C29.6748 12.5832 22.2082 5.11659 13.0246 5.11659L13.0325 5.12447Z" fill="white"></path>
<path d="M8.65531 57.0067C6.17433 57.0067 4.15804 54.9904 4.15804 52.5094C4.15804 51.6824 4.38645 50.8711 4.82751 50.1702L10.2384 41.4513L12.9793 51.3122C13.0896 51.7139 13.1447 52.1156 13.1447 52.5173C13.1447 54.9982 11.1284 57.0145 8.64744 57.0145L8.65531 57.0067ZM10.5377 39.3799L2.91361 31.3226C0.456258 28.7235 -0.898438 25.3288 -0.898438 21.7609C-0.898438 14.0817 5.34734 7.83594 13.0266 7.83594C20.7058 7.83594 26.9516 14.0817 26.9516 21.7609C26.9516 26.6757 24.3131 31.2832 20.06 33.7799L10.5377 39.3799ZM13.0266 14.5464C9.04912 14.5464 5.81203 17.7835 5.81203 21.7609C5.81203 23.604 6.51301 25.3603 7.78894 26.7072L11.7428 30.8815L16.6653 27.991C18.8785 26.6914 20.249 24.3049 20.249 21.7609C20.249 17.7835 17.0119 14.5464 13.0344 14.5464H13.0266Z" fill="white"></path>
<path d="M75.0034 70.4062H68.293V86.1428H75.0034V70.4062Z" fill="white"></path>
<path d="M94.68 149.954C73.5956 149.954 56.4492 132.799 56.4492 111.723C56.4492 90.6464 73.6034 73.4922 94.68 73.4922C115.757 73.4922 132.911 90.6464 132.911 111.723C132.911 132.799 115.757 149.954 94.68 149.954ZM94.68 80.2027C77.2974 80.2027 63.1597 94.3403 63.1597 111.723C63.1597 129.106 77.2974 143.243 94.68 143.243C112.063 143.243 126.2 129.106 126.2 111.723C126.2 94.3403 112.063 80.2027 94.68 80.2027Z" fill="white"></path>
<path d="M94.6807 139.893C79.1489 139.893 66.5156 127.259 66.5156 111.728C66.5156 96.1958 79.1489 83.5625 94.6807 83.5625C110.212 83.5625 122.846 96.1958 122.846 111.728C122.846 127.259 110.212 139.893 94.6807 139.893ZM94.6807 90.273C82.8507 90.273 73.2261 99.8976 73.2261 111.728C73.2261 123.558 82.8507 133.182 94.6807 133.182C106.511 133.182 116.135 123.558 116.135 111.728C116.135 99.8976 106.511 90.273 94.6807 90.273Z" fill="white"></path>
<path d="M81.8472 75.8818C68.9697 75.8818 58.4866 65.3987 58.4866 52.5212C58.4866 51.2531 58.5889 49.9851 58.8016 48.7249C50.0355 42.6366 44.6797 32.5237 44.6797 21.7727C44.6797 3.68912 59.3923 -11.0156 77.468 -11.0156C95.5438 -11.0156 110.256 3.697 110.256 21.7727C110.256 29.3575 107.665 36.6114 102.916 42.4476C104.42 45.5823 105.208 49.0163 105.208 52.5212C105.208 65.3987 94.7247 75.8818 81.8472 75.8818ZM77.468 -4.30516C63.0862 -4.30516 51.3902 7.39091 51.3902 21.7727C51.3902 30.9721 56.3285 39.5964 64.2755 44.267L66.4966 45.5744L65.8035 48.0633C65.3939 49.5204 65.1891 51.0247 65.1891 52.5212C65.1891 61.7047 72.6557 69.1713 81.8393 69.1713C91.0229 69.1713 98.4894 61.7047 98.4894 52.5212C98.4894 49.4258 97.6231 46.3935 95.9927 43.7708L94.6301 41.5733L96.4101 39.6909C101.01 34.8235 103.546 28.4596 103.546 21.7727C103.546 7.39091 91.8499 -4.30516 77.468 -4.30516Z" fill="white"></path>
<path d="M81.8491 66.4481C74.1698 66.4481 67.9241 60.2023 67.9241 52.5231C67.9241 51.2708 68.0973 50.0184 68.436 48.7976L69.6883 44.3004L65.6636 41.9297C58.5436 37.7396 54.1172 30.0209 54.1172 21.7825C54.1172 8.90501 64.5925 -1.57812 77.4778 -1.57812C90.3632 -1.57812 100.838 8.90501 100.838 21.7825C100.838 27.7684 98.5701 33.4707 94.443 37.8262L91.2217 41.2287L93.6948 45.2061C95.0573 47.4036 95.782 49.9318 95.782 52.5231C95.782 60.2023 89.5362 66.4481 81.8569 66.4481H81.8491ZM77.4699 5.12447C68.2864 5.12447 60.8198 12.591 60.8198 21.7746C60.8198 27.6502 63.9781 33.1556 69.0582 36.1407L77.5329 41.1184L74.9023 50.5855C74.729 51.2235 74.6345 51.8693 74.6345 52.5152C74.6345 56.4926 77.8716 59.7297 81.8491 59.7297C85.8265 59.7297 89.0636 56.4926 89.0636 52.5152C89.0636 51.1762 88.6934 49.8767 87.9846 48.7346L82.7784 40.3623L89.5519 33.2029C92.4897 30.0997 94.1122 26.0356 94.1122 21.7667C94.1122 12.5832 86.6456 5.11659 77.4621 5.11659L77.4699 5.12447Z" fill="white"></path>
<path d="M81.8471 57.0145C79.3661 57.0145 77.3498 54.9982 77.3498 52.5173C77.3498 52.1156 77.4049 51.7139 77.5152 51.3122L80.2561 41.4592L85.6749 50.178C86.108 50.8711 86.3443 51.6824 86.3443 52.5173C86.3443 54.9982 84.328 57.0145 81.8471 57.0145ZM79.9725 53.7144C79.9725 53.7144 79.9725 53.7144 79.9725 53.7223V53.7144ZM79.9647 39.3799L70.4424 33.7799C66.1893 31.2832 63.5508 26.6757 63.5508 21.7609C63.5508 14.0817 69.7966 7.83594 77.4758 7.83594C85.155 7.83594 91.4008 14.0817 91.4008 21.7609C91.4008 25.3288 90.0461 28.7234 87.5888 31.3226L79.9647 39.3799ZM77.4758 14.5464C73.4983 14.5464 70.2613 17.7835 70.2613 21.7609C70.2613 24.3049 71.6317 26.6914 73.8449 27.991L78.7675 30.8815L82.7213 26.7072C83.9972 25.3603 84.6982 23.604 84.6982 21.7609C84.6982 17.7835 81.4611 14.5464 77.4837 14.5464H77.4758Z" fill="white"></path>
<path d="M51.3896 5.39062H39.4336V19.3156H51.3896V5.39062Z" fill="white"></path>
</g>
<path d="M13.8105 39.8062C13.8105 33.0406 16.0788 26.4483 20.2216 21.1319L14.2594 14.4766C9.1399 21.0453 6.32812 29.1892 6.32812 37.5536V56.1098L10.0693 57.1101L13.8105 58.1104V39.8062Z" fill="#D3D3D3"></path>
<path d="M10.0653 59.2581L6.33203 58.2578V88.9511H13.8065V60.2584L10.0653 59.2581Z" fill="#D3D3D3"></path>
<path d="M44.2077 9.39623H44.2234V0H43.8769C32.9999 0 22.7452 4.67055 15.6016 12.846L16.0978 13.3973L21.5717 19.5092C27.3449 13.0665 35.5282 9.39623 44.2156 9.39623H44.2077Z" fill="#D3D3D3"></path>
<path d="M13.8065 91.0234H6.33203V105.673H13.8065V91.0234Z" fill="#D3D3D3"></path>
<path d="M84.1854 88.9511V58.2578L80.4442 59.2581L76.7109 60.2584V88.9511H84.1854Z" fill="#D3D3D3"></path>
<path d="M84.1854 91.0234H76.7109V105.673H84.1854V91.0234Z" fill="#D3D3D3"></path>
<path d="M69.1534 19.7455L75.1235 13.0823C67.972 4.75719 57.6385 0 46.6434 0H46.2969V9.39623H46.3126C55.1103 9.39623 63.3723 13.1531 69.1534 19.7455Z" fill="#D3D3D3"></path>
<path d="M76.7143 58.1084L80.4555 57.1081L84.1967 56.1078V37.5517C84.1967 29.3054 81.4558 21.2402 76.4544 14.7188L70.4922 21.3741C74.5169 26.6432 76.7143 33.1568 76.7143 39.8042V58.1084Z" fill="#D3D3D3"></path>
<path d="M4.25311 107.742H0V115.445H4.25311H86.2594H90.5126V107.742H86.2594H74.6343H15.8783H4.25311Z" fill="#D3D3D3"></path>
<path d="M84.1876 117.516H6.33203V125.218H84.1876V117.516Z" fill="white"></path>
</svg>