<svg width="78" height="100" viewBox="0 0 78 100" fill="none" xmlns="http://www.w3.org/2000/svg">
<path d="M73.3348 54.1258H72.108V47.0635C72.108 43.6504 71.8101 40.3082 71.2201 37.1342C69.5641 28.2177 65.6006 20.3405 59.4407 13.7151C50.1177 3.69431 38.8961 0.059788 38.7822 0.0243581C38.6771 -0.00811936 38.5632 -0.00811936 38.458 0.0243581C38.347 0.059788 27.1226 3.69431 17.8025 13.718C11.6426 20.3405 7.67913 28.2207 6.02307 37.1372C5.43307 40.3111 5.13516 43.6533 5.13516 47.0664V54.1288H3.90844C3.59884 54.1288 3.34766 54.3827 3.34766 54.6957V58.7642C3.34766 59.0772 3.59884 59.3311 3.90844 59.3311H5.13516V72.8948L6.21584 73.1871V59.3311H15.4775V75.6938L16.5728 75.992V73.8012L19.5345 76.7951L21.6257 77.362L16.5757 72.2571V59.334H17.4461L28.8254 79.2604L28.8634 79.3254L30.3413 79.7239L18.3779 58.779C18.3779 58.779 18.3779 58.7701 18.3779 58.7672V54.6986C18.3779 54.3857 18.1267 54.1317 17.8171 54.1317H16.5757V47.0694C16.5757 44.3678 16.8094 41.7431 17.268 39.2718C17.9135 35.8056 19.035 32.5077 20.6093 29.4637L34.2142 80.7868L34.2346 80.8695L34.3135 80.9049C34.6056 81.0378 34.8947 81.1913 35.1663 81.3596L35.546 81.5958L21.3629 28.0848C22.683 25.7937 24.2924 23.6236 26.1441 21.6307C30.2974 17.1636 34.9064 14.3262 38.0842 12.7171V84.6251L38.1017 84.6812C38.239 84.9823 38.3587 85.2894 38.4551 85.5994L38.6245 86.1427L38.7939 85.5994C38.8903 85.2894 39.0101 84.9794 39.1561 84.6635L39.1649 84.6458V12.723C42.3689 14.3469 46.9983 17.1961 51.1195 21.6277C52.9596 23.6059 54.5631 25.773 55.8891 28.0701L41.8169 81.1559L41.703 81.5899L42.0827 81.3537C42.3572 81.1854 42.6435 81.0319 42.9385 80.899L43.0144 80.8636L56.6426 29.4459C58.2228 32.4988 59.3502 35.7997 59.9927 39.2659C60.4513 41.7401 60.685 44.3649 60.685 47.0635V54.1258H59.429C59.1194 54.1258 58.8683 54.3797 58.8683 54.6927V58.7612C58.8683 58.7612 58.8683 58.7701 58.8683 58.7731L46.9049 79.718L48.3828 79.3195L59.8 59.3281H60.685V72.2364L55.6175 77.356L57.6591 76.8039L57.7058 76.7921L60.682 73.7835V75.9861L61.7773 75.6879V59.3281H71.0244V73.1842L72.1051 72.8919V59.3281H73.3318C73.6414 59.3281 73.8926 59.0742 73.8926 58.7612V54.6927C73.8926 54.3797 73.6414 54.1258 73.3318 54.1258H73.3348ZM15.4746 47.0635V54.1258H6.21292V47.0635C6.21292 43.7183 6.50499 40.4469 7.0833 37.335C8.7014 28.6281 12.5714 20.9339 18.5881 14.462C27.1109 5.30342 37.3394 1.56261 38.6216 1.11973C39.9038 1.56261 50.1323 5.30342 58.6521 14.465C64.6689 20.9339 68.5389 28.6311 70.157 37.338C70.7353 40.4469 71.0274 43.7212 71.0274 47.0664V54.1288H61.7802V47.0664C61.7802 44.297 61.5407 41.6043 61.0676 39.0652C60.314 35.0025 58.9238 31.1761 56.9406 27.6922C55.559 25.2682 53.8708 22.977 51.9169 20.8778C47.4101 16.0298 42.3251 13.0183 38.8553 11.3442C38.7764 11.3058 38.6917 11.2911 38.6158 11.2911C38.5281 11.2911 38.4464 11.3058 38.3704 11.3442C34.9298 13.0006 29.8769 15.9973 25.3351 20.8778C20.548 26.024 17.4695 32.1445 16.1844 39.0652C15.7112 41.6043 15.4746 44.297 15.4746 47.0664V47.0635ZM17.2504 55.2596V58.1914H4.4663V55.2596H17.2504ZM72.771 55.2596V58.1914H59.9869V55.2596H72.771Z" fill="white"></path>
<path d="M71.026 91.765H61.7643V87.4425L60.6836 87.7348V92.8574H71.5663C71.8642 92.8574 72.1067 92.6124 72.1067 92.3112V84.6406L71.026 84.9329V91.762V91.765Z" fill="white"></path>
<path d="M15.4752 91.7777H6.21349V84.9485L5.13281 84.6562V92.3268C5.13281 92.628 5.37524 92.873 5.67315 92.873H16.5559V87.7505L15.4752 87.4582V91.7806V91.7777Z" fill="white"></path>
<path d="M77.2173 83.0695L74.4046 72.4612C74.3666 72.3194 74.279 72.2013 74.1534 72.1275C74.0278 72.0537 73.8788 72.036 73.7445 72.0744L43.9703 80.1376C41.5198 80.802 39.5366 82.6059 38.6195 84.9915C37.7024 82.6059 35.7192 80.799 33.2687 80.1376L3.49452 72.0744C3.35724 72.036 3.21121 72.0537 3.08269 72.1275C2.9571 72.2013 2.86656 72.3194 2.82859 72.4612L0.0188226 83.0695C-0.0191472 83.2082 0.00129811 83.3588 0.0713962 83.4858C0.144415 83.6127 0.261245 83.7043 0.398521 83.7397L29.5769 91.6435L18.1217 94.7466C17.8851 94.8086 17.7215 95.0271 17.7215 95.2751V99.0395C17.7215 99.2078 17.8004 99.3702 17.9318 99.4735C18.0632 99.5769 18.2385 99.6123 18.402 99.568L38.6166 94.0941L58.8311 99.568C58.8778 99.5798 58.9246 99.5857 58.9713 99.5857C59.0911 99.5857 59.2079 99.5444 59.3014 99.4735C59.4328 99.3702 59.5117 99.2078 59.5117 99.0395V95.2751C59.5117 95.0271 59.3481 94.8115 59.1115 94.7466L47.6563 91.6435L76.8346 83.7397C77.1238 83.6629 77.2932 83.3618 77.2173 83.0695ZM76.0314 82.8244L39.1598 92.8127V87.9027C39.1598 84.7671 41.254 82.0095 44.2507 81.1976L73.5021 73.276L76.0344 82.8274L76.0314 82.8244ZM45.5651 92.2074L58.4281 95.6914V98.322L40.7049 93.5213L45.5621 92.2045L45.5651 92.2074ZM36.5282 93.5242L18.8051 98.325V95.6943L31.671 92.2104L36.5312 93.5272L36.5282 93.5242ZM38.0762 87.8997V92.8097L1.20465 82.8244L3.73694 73.2731L32.9883 81.1946C35.985 82.0066 38.0792 84.7642 38.0792 87.8997H38.0762Z" fill="white"></path>
</svg>