<svg width="99" height="51" viewBox="0 0 99 51" fill="none" xmlns="http://www.w3.org/2000/svg">
<path d="M72.5308 3.25268C74.1193 3.25268 75.5551 4.13005 76.178 5.47642C76.6392 6.47327 77.0897 7.46476 77.5313 8.44913C77.7951 9.03582 78.3785 9.41388 79.0264 9.41388C80.211 9.41388 81.0025 8.20125 80.5197 7.12416C80.0638 6.1077 79.6079 5.10372 79.152 4.11757C77.9944 1.61564 75.3972 0 72.5308 0H66.8752C65.9724 0 65.2383 0.727574 65.2383 1.62634C65.2383 2.52511 65.9706 3.25268 66.8752 3.25268H72.5308Z" fill="#CECECE"></path>
<path d="M26.2304 3.25871C24.642 3.25871 23.2061 4.13608 22.5833 5.48245C22.122 6.4793 21.6715 7.47079 21.23 8.45516C20.9661 9.04185 20.3828 9.41991 19.7348 9.41991C18.5502 9.41991 17.7587 8.20728 18.2415 7.13019C18.6974 6.11373 19.1533 5.10975 19.6092 4.1236C20.7651 1.62345 23.3641 0.0078125 26.2304 0.0078125H31.8861C32.7889 0.0078125 33.523 0.735386 33.523 1.63415C33.523 2.53292 32.7907 3.2605 31.8861 3.2605H26.2304V3.25871Z" fill="#CECECE"></path>
<path d="M98.2151 37.8627C98.1433 37.6522 98.0715 37.4436 97.9997 37.2367C97.009 34.371 95.9554 31.4607 94.8731 28.5861L92.7049 22.835L92.651 22.8636C91.6495 20.3509 90.6264 17.874 89.5908 15.4541C88.4583 12.8095 87.297 10.2006 86.1411 7.70043C84.6298 4.4317 81.2519 2.32031 77.5383 2.32031H21.2174C17.502 2.32031 14.1259 4.4317 12.6146 7.70222C11.4569 10.2041 10.2957 12.8131 9.16489 15.4559C8.10593 17.9293 7.06132 20.4579 6.04363 23.0169L5.99517 22.9938L3.88441 28.5897C2.80032 31.4643 1.74853 34.3746 0.757765 37.2367C0.685971 37.4436 0.614177 37.654 0.542382 37.8644C-0.493252 40.8942 -0.0319731 44.0952 1.80776 46.647C3.678 49.2399 6.69696 50.7878 9.88643 50.7878C12.4962 50.7878 14.9677 49.741 16.8451 47.8383L22.454 42.1568C31.624 45.8428 40.8029 47.7099 49.7718 47.7099C58.7407 47.7099 67.6415 45.8535 76.3393 42.1906L81.9142 47.8365C83.7916 49.7392 86.2631 50.786 88.8729 50.786C92.0605 50.786 95.0813 49.2381 96.9515 46.6452C98.7913 44.0934 99.2525 40.8924 98.2169 37.8627H98.2151Z" fill="white"></path>
<path d="M64.8615 27.2237C67.8333 27.2237 70.2425 24.8301 70.2425 21.8775C70.2425 18.9248 67.8333 16.5312 64.8615 16.5312C61.8896 16.5312 59.4805 18.9248 59.4805 21.8775C59.4805 24.8301 61.8896 27.2237 64.8615 27.2237Z" fill="#141414"></path>
<path d="M27.5898 22.5874C31.7019 23.9142 36.1298 23.9142 40.2418 22.5874C39.9349 21.6494 39.628 20.7114 39.3211 19.7734C35.8085 20.9076 32.0232 20.9076 28.5106 19.7734C28.2037 20.7114 27.8968 21.6494 27.5898 22.5874Z" fill="#141414"></path>
<path opacity="0.2" d="M35.4062 27.2719V16.5312H32.4286V27.2719H35.4062Z" fill="#141414"></path>
</svg>