<svg width="85" height="97" viewBox="0 0 85 97" fill="none" xmlns="http://www.w3.org/2000/svg">
<path d="M22.1119 79.4093C21.4484 78.7519 19.488 77.1859 17.2825 74.8489C15.6926 73.1693 13.9772 71.0834 12.5188 68.6328L4.01953 73.008C8.30503 80.4792 14.6825 85.3505 16.1229 86.779C16.1229 86.779 22.7036 92.6125 32.0755 95.2962V85.2967C26.0926 82.9298 22.1119 79.4033 22.1119 79.4033V79.4093Z" fill="white"></path>
<path d="M65.4628 42.4581C63.855 41.7707 62.3069 41.1969 60.9023 40.7188L65.4628 42.4581Z" fill="white"></path>
<path d="M79.793 8.72472L79.7989 8.71875L79.793 8.72472Z" fill="white"></path>
<path d="M68.7095 22.2344C68.6976 22.2403 68.6858 22.2522 68.668 22.27L68.7095 22.2344Z" fill="white"></path>
<path d="M79.7611 8.75C79.7432 8.76197 79.7252 8.77991 79.6953 8.80983L79.7611 8.75598V8.75Z" fill="white"></path>
<path d="M84.1499 27.9593C84.1499 27.9593 84.1499 27.9354 84.1499 27.9234C81.4961 26.489 78.7766 25.3533 76.3738 24.4807C76.3738 24.4927 76.3738 24.4986 76.3798 24.5106C72.2378 23.0104 69.0401 22.2991 68.7412 22.2393C68.7412 22.2393 68.7412 22.2274 68.7352 22.2274H68.7293V22.2214C68.6157 22.1915 65.2028 21.289 59.7578 21.546C61.5808 23.5782 62.9495 25.8972 63.5652 28.5331C63.5652 28.5331 63.5652 28.551 63.5771 28.557C63.9058 28.6287 67.0677 29.328 71.1559 30.8103C73.0925 31.5096 75.2382 32.3883 77.3899 33.4522C79.697 34.5938 82.0161 35.9565 84.0901 37.5584C84.3412 34.0977 84.3352 30.888 84.1559 27.9593H84.1499ZM68.7173 22.2393L68.6755 22.2752C68.6755 22.2752 68.7113 22.2453 68.7173 22.2393Z" fill="white"></path>
<path d="M82.9759 18.9884C82.9759 18.9884 82.9759 18.9705 82.97 18.9586C78.0927 17.0519 74.1001 16.1673 73.7773 16.1016C73.7773 16.1075 73.7833 16.1135 73.7893 16.1314C73.9746 16.52 75.3672 19.5084 76.3714 24.4873C78.7741 25.3539 81.4877 26.4955 84.1474 27.93C83.9382 24.553 83.5019 21.5586 82.9759 18.9944V18.9884Z" fill="white"></path>
<path d="M79.7917 8.74459V8.73263H79.7976H79.7857V8.72068V8.72666C79.6303 8.68482 75.4165 7.5731 68.543 7.62689C71.0712 9.9878 73.0197 12.785 73.7848 16.0784V16.0963C74.1075 16.168 78.1002 17.0466 82.9774 18.9533C81.6804 12.5938 79.8813 8.91194 79.7976 8.73861L79.7917 8.74459ZM79.7618 8.76252L79.696 8.81631C79.7259 8.78643 79.7498 8.7685 79.7618 8.75654V8.76252Z" fill="white"></path>
<path d="M51.2048 42.0625C51.2048 42.0625 51.1981 42.0625 51.1914 42.0759L51.2048 42.0625Z" fill="white"></path>
<path d="M68.5326 7.63098C68.5326 7.63098 68.5027 7.63098 68.4848 7.63098C65.0719 7.66086 61.0075 7.97167 56.465 8.84431C52.825 9.54361 48.8802 10.5956 44.7023 12.1436C41.9828 13.1537 39.1616 14.379 36.2748 15.8493C33.7943 17.1165 31.2601 18.5629 28.684 20.2185C24.2849 23.0516 19.7783 26.4944 15.2417 30.6723C0.257415 44.4672 -1.66718 56.5885 1.02247 66.0381L9.59945 61.6211C7.81233 54.1021 9.72497 44.6166 21.3921 33.8819C26.5681 29.1242 31.6844 25.538 36.5796 22.8484C39.335 21.3362 42.0187 20.105 44.6007 19.1128C47.7327 17.9054 50.7152 17.0447 53.4885 16.447C57.8517 15.5027 61.7188 15.1919 64.8747 15.1859C70.1942 15.1739 73.4815 16.0107 73.7385 16.0765C73.7385 16.0765 73.7505 16.0765 73.7565 16.0765H73.7684C73.0034 12.7891 71.0549 9.98591 68.5266 7.625L68.5326 7.63098Z" fill="white"></path>
<path d="M59.0938 33.6696L59.1071 33.6562C59.1071 33.6562 59.1004 33.6563 59.0938 33.6696Z" fill="white"></path>
<path d="M65.7724 35.5745C65.6649 35.5386 65.5573 35.4968 65.4557 35.4609C64.2782 35.0605 63.2143 34.7317 62.2998 34.4688L60.2198 36.9671L57.8828 39.7703C58.092 39.8301 58.3072 39.8959 58.5343 39.9616C58.5403 39.9616 58.5522 39.9616 58.5582 39.9676C58.7555 40.0274 58.9527 40.0871 59.1619 40.1529C59.2217 40.1708 59.2814 40.1887 59.3412 40.2067C59.5086 40.2605 59.6759 40.3142 59.8492 40.368C59.915 40.3919 59.9807 40.4099 60.0465 40.4338C60.2736 40.5055 60.5067 40.5832 60.7458 40.6669C60.7458 40.6669 60.7518 40.6669 60.7577 40.6669C62.258 41.1749 63.9375 41.7965 65.6828 42.5496H65.6888C66.1191 38.9156 65.7784 35.5745 65.7784 35.5745H65.7724Z" fill="white"></path>
<path d="M59.1179 33.6406C59.1179 33.6406 59.1058 33.6527 59.0938 33.6648L59.1058 33.6527H59.1179V33.6406Z" fill="white"></path>
<path d="M58.5273 39.9609C58.5273 39.9609 58.5454 39.9609 58.5515 39.967C58.5454 39.967 58.5334 39.967 58.5273 39.9609Z" fill="white"></path>
<path d="M59.1179 33.6484C59.1179 33.6484 59.1058 33.6605 59.0938 33.6726C59.0938 33.6726 59.1119 33.6545 59.1179 33.6484Z" fill="white"></path>
<path d="M59.1179 33.6484C59.1179 33.6484 59.1058 33.6605 59.0938 33.6726L59.1058 33.6605H59.1179V33.6484Z" fill="white"></path>
<path d="M58.8555 40.0703C58.9574 40.1003 59.0532 40.1302 59.1551 40.1602C59.0532 40.1302 58.9514 40.1003 58.8555 40.0703Z" fill="white"></path>
<path d="M59.1119 33.6545L59.1179 33.6484L59.1119 33.6545L59.0938 33.6665L59.1119 33.6545Z" fill="white"></path>
<path d="M44.403 51.2969C44.403 51.2969 44.391 51.3089 44.3789 51.321L44.391 51.3089H44.403V51.2969Z" fill="white"></path>
<path d="M24.3405 52.6551C24.3405 52.5774 24.3464 52.4997 24.3524 52.4161C24.3584 52.3145 24.3644 52.2128 24.3703 52.1053C24.3763 52.0276 24.3823 51.9439 24.3943 51.8602C24.4062 51.7586 24.4182 51.651 24.4301 51.5494C24.4421 51.4657 24.454 51.382 24.466 51.2984C24.4839 51.1968 24.4959 51.0892 24.5138 50.9876C24.5258 50.9039 24.5437 50.8202 24.5616 50.7306C24.5795 50.623 24.6035 50.5214 24.6274 50.4138C24.6453 50.3301 24.6632 50.2404 24.6871 50.1508C24.711 50.0432 24.7409 49.9416 24.7648 49.834C24.7887 49.7443 24.8126 49.6607 24.8366 49.571C24.8664 49.4634 24.8963 49.3558 24.9322 49.2483C24.9621 49.1586 24.986 49.0689 25.0159 48.9793C25.0517 48.8717 25.0876 48.7641 25.1234 48.6565C25.1533 48.5669 25.1892 48.4712 25.2251 48.3816C25.2669 48.274 25.3087 48.1664 25.3506 48.0529C25.3864 47.9632 25.4223 47.8676 25.4641 47.7779C25.512 47.6703 25.5598 47.5568 25.6076 47.4492C25.6494 47.3535 25.6913 47.2639 25.7331 47.1683C25.7869 47.0547 25.8407 46.9471 25.8945 46.8335C25.9423 46.7379 25.9901 46.6423 26.0379 46.5467C26.0977 46.4331 26.1575 46.3195 26.2172 46.2119C26.271 46.1163 26.3188 46.0207 26.3726 45.9251C26.4384 45.8115 26.5041 45.6979 26.5699 45.5844C26.6297 45.4887 26.6834 45.3931 26.7432 45.2915C26.8149 45.1779 26.8867 45.0584 26.9644 44.9448C27.0241 44.8492 27.0899 44.7476 27.1556 44.6519C27.2333 44.5384 27.317 44.4188 27.3947 44.3053C27.4605 44.2037 27.5322 44.108 27.5979 44.0064C27.6816 43.8869 27.7713 43.7674 27.8609 43.6538C27.9326 43.5522 28.0044 43.4566 28.0821 43.3549C28.1717 43.2354 28.2733 43.1159 28.369 42.9903C28.4467 42.8887 28.5244 42.7931 28.6021 42.6915C28.7037 42.566 28.8113 42.4464 28.9129 42.3209C28.9965 42.2253 29.0742 42.1237 29.1639 42.028C29.2775 41.9025 29.391 41.771 29.5046 41.6455C29.5883 41.5499 29.6719 41.4543 29.7616 41.3586C29.8871 41.2212 30.0186 41.0837 30.1501 40.9522C30.2338 40.8625 30.3175 40.7729 30.4071 40.6832C30.5565 40.5338 30.7119 40.3784 30.8673 40.223C30.945 40.1453 31.0168 40.0736 31.0945 39.9959C31.3276 39.7688 31.5726 39.5356 31.8237 39.3085C32.1225 39.0336 32.4273 38.7646 32.7262 38.5016C32.8338 38.406 32.9473 38.3104 33.0549 38.2147C33.282 38.0175 33.5032 37.8322 33.7303 37.6409C33.9335 37.4736 34.1368 37.3062 34.34 37.1449C39.2829 33.1522 44.0705 30.8332 48.2962 29.5302C51.3684 28.5798 54.1417 28.1674 56.4548 28.0359C54.9905 26.0635 53.0958 24.3362 50.9978 22.8359C48.3979 23.4815 45.6066 24.4139 42.6779 25.7228C38.5059 27.5936 34.071 30.2355 29.5404 33.9472C29.2775 34.1623 29.0145 34.3835 28.7515 34.6046C28.626 34.7122 28.4945 34.8198 28.369 34.9334C28.1717 35.1007 27.9805 35.2681 27.7832 35.4414C27.6756 35.537 27.5621 35.6327 27.4545 35.7343C27.1496 36.0032 26.8508 36.2722 26.546 36.5531C26.546 36.5531 26.546 36.5531 26.54 36.5591C19.1046 43.4028 16.5883 49.6129 16.5704 54.9144C16.5584 59.2478 18.226 62.9714 20.2522 65.9181C20.306 66.0018 20.3658 66.0795 20.4196 66.1631C20.9276 66.8923 21.4596 67.5677 21.9915 68.1953C22.1708 68.4045 22.3441 68.6077 22.5175 68.805C22.7506 69.068 22.9837 69.325 23.2108 69.564C23.3244 69.6836 23.4379 69.8031 23.5515 69.9227C23.7248 70.102 23.8982 70.2753 24.0655 70.4427L29.3193 64.1429C29.3193 64.1429 29.2655 64.0891 29.2416 64.0592C29.2117 64.0234 29.1758 63.9875 29.146 63.9516C29.0922 63.8919 29.0384 63.8381 28.9846 63.7783C28.9487 63.7425 28.9188 63.7066 28.883 63.6648C28.8292 63.605 28.7754 63.5452 28.7216 63.4854C28.6857 63.4496 28.6559 63.4077 28.62 63.3659C28.5662 63.3061 28.5124 63.2404 28.4586 63.1746C28.4227 63.1328 28.3929 63.0969 28.357 63.0551C28.3032 62.9894 28.2494 62.9236 28.1956 62.8579C28.1657 62.816 28.1299 62.7802 28.1 62.7383C28.0462 62.6726 27.9924 62.6008 27.9386 62.5351C27.9087 62.4933 27.8729 62.4514 27.843 62.4096C27.7892 62.3379 27.7354 62.2661 27.6816 62.1944C27.6517 62.1526 27.6159 62.1107 27.586 62.0689C27.5322 61.9972 27.4784 61.9195 27.4186 61.8418C27.3887 61.7999 27.3588 61.7581 27.329 61.7163C27.2752 61.6386 27.2214 61.5609 27.1676 61.4832C27.1377 61.4413 27.1078 61.3995 27.0779 61.3576C27.0241 61.274 26.9703 61.1963 26.9106 61.1126C26.8807 61.0707 26.8568 61.0289 26.8269 60.9871C26.7731 60.9034 26.7193 60.8137 26.6595 60.7301C26.6356 60.6882 26.6057 60.6464 26.5818 60.6105C26.528 60.5209 26.4683 60.4252 26.4145 60.3356C26.3906 60.2997 26.3667 60.2579 26.3487 60.222C26.289 60.1204 26.2352 60.0188 26.1754 59.9172C26.1575 59.8873 26.1395 59.8514 26.1216 59.8216C26.0618 59.708 26.0021 59.5944 25.9423 59.4809C25.9303 59.457 25.9184 59.433 25.9064 59.4091C25.8347 59.2717 25.769 59.1342 25.7032 58.9967C25.7032 58.9967 25.7032 58.9967 25.7032 58.9907C25.5 58.5604 25.3087 58.1121 25.1414 57.6519C25.1354 57.634 25.1294 57.616 25.1234 57.5981C25.0756 57.4666 25.0278 57.3291 24.986 57.1917C24.974 57.1558 24.9621 57.114 24.9501 57.0781C24.9143 56.9586 24.8784 56.845 24.8425 56.7255C24.8306 56.6777 24.8186 56.6298 24.8007 56.582C24.7708 56.4744 24.7409 56.3609 24.711 56.2473C24.6991 56.1935 24.6871 56.1397 24.6752 56.0859C24.6513 55.9783 24.6274 55.8708 24.6035 55.7632C24.5915 55.7034 24.5795 55.6436 24.5676 55.5839C24.5497 55.4823 24.5258 55.3747 24.5078 55.2671C24.4959 55.2013 24.4899 55.1356 24.4779 55.0758C24.46 54.9742 24.448 54.8666 24.4301 54.765C24.4241 54.6993 24.4122 54.6275 24.4062 54.5618C24.3943 54.4602 24.3823 54.3586 24.3763 54.251C24.3703 54.1793 24.3644 54.1075 24.3584 54.0358C24.3524 53.9342 24.3464 53.8326 24.3405 53.731C24.3405 53.6593 24.3405 53.5816 24.3345 53.5098C24.3345 53.4082 24.3345 53.3066 24.3345 53.199C24.3345 53.1213 24.3345 53.0436 24.3345 52.9719C24.3345 52.8703 24.3345 52.7687 24.3405 52.6611V52.6551Z" fill="white"></path>
<path d="M65.7745 35.5703C65.7745 35.5703 66.1212 38.9115 65.6849 42.5455H65.6789C65.6789 42.5455 65.6789 42.5514 65.6849 42.5514C65.4159 46.4365 64.4656 50.973 62.284 55.9459C62.1824 56.173 62.0808 56.4001 61.9791 56.6272C61.9672 56.6571 61.9552 56.681 61.9433 56.7109C61.8536 56.9141 61.758 57.1114 61.6624 57.3146C61.6385 57.3624 61.6205 57.4043 61.5966 57.4521C61.507 57.6374 61.4173 57.8226 61.3277 58.002C61.2978 58.0617 61.2679 58.1155 61.238 58.1753C61.1543 58.3486 61.0647 58.516 60.975 58.6893C60.9392 58.761 60.9033 58.8268 60.8674 58.8985C60.7837 59.0599 60.6941 59.2213 60.6104 59.3886C60.5686 59.4663 60.5267 59.544 60.4849 59.6217C60.4012 59.7771 60.3116 59.9385 60.2219 60.0999C60.1801 60.1776 60.1323 60.2613 60.0904 60.339C59.9948 60.5063 59.8992 60.6737 59.8035 60.8351C59.7617 60.9068 59.7198 60.9785 59.678 61.0502C59.5405 61.2893 59.3971 61.5284 59.2536 61.7675C57.8192 64.1284 56.3249 65.9812 54.8008 67.4157V75.8194C54.9562 75.7058 55.1176 75.5922 55.273 75.4667C55.3148 75.4309 55.3566 75.401 55.4045 75.3651C55.53 75.2695 55.6555 75.1679 55.775 75.0663C55.8109 75.0364 55.8527 75.0065 55.8886 74.9766C56.044 74.8451 56.1994 74.7136 56.3608 74.5761C56.3847 74.5522 56.4146 74.5283 56.4385 74.5044C56.57 74.3909 56.7015 74.2713 56.833 74.1518C56.8748 74.1099 56.9226 74.0681 56.9645 74.0322C57.0959 73.9067 57.2274 73.7812 57.3589 73.6557C57.3828 73.6318 57.4067 73.6079 57.4366 73.584C57.592 73.4345 57.7474 73.2791 57.9028 73.1178C57.9387 73.0819 57.9805 73.0401 58.0164 72.9982C58.1359 72.8727 58.2615 72.7412 58.381 72.6157C58.4228 72.5679 58.4647 72.526 58.5065 72.4782C58.8173 72.1435 59.1281 71.7909 59.4329 71.4263C59.4748 71.3785 59.5166 71.3247 59.5585 71.2769C59.678 71.1334 59.7975 70.984 59.9231 70.8346C59.9589 70.7867 59.9948 70.7449 60.0306 70.6971C60.186 70.5058 60.3355 70.3086 60.4849 70.1113C60.5088 70.0755 60.5387 70.0396 60.5626 70.0097C60.6881 69.8424 60.8136 69.669 60.9451 69.5017C60.987 69.4419 61.0348 69.3821 61.0766 69.3224C61.2021 69.149 61.3277 68.9697 61.4532 68.7904C61.4771 68.7546 61.507 68.7127 61.5309 68.6769C61.6803 68.4617 61.8297 68.2405 61.9791 68.0194C62.015 67.9656 62.0568 67.9058 62.0927 67.852C62.2063 67.6787 62.3258 67.4994 62.4394 67.3201C62.4812 67.2543 62.5231 67.1886 62.5649 67.1228C62.7143 66.8897 62.8578 66.6507 63.0072 66.4116C63.2642 65.9812 63.5152 65.5569 63.7603 65.1325C63.826 65.0189 63.8918 64.9054 63.9516 64.7978C64.1787 64.3973 64.4058 63.9909 64.627 63.5904C64.6867 63.4829 64.7405 63.3753 64.8003 63.2677C64.9557 62.9748 65.1111 62.6819 65.2605 62.3891C65.3502 62.2157 65.4398 62.0424 65.5295 61.8691C65.6729 61.5882 65.8104 61.3072 65.9479 61.0263C66.0794 60.7574 66.2109 60.4884 66.3364 60.2194C66.4141 60.058 66.4858 59.8967 66.5635 59.7353C66.6711 59.5022 66.7787 59.2751 66.8803 59.042C69.0977 54.0751 70.3888 49.4369 71.0642 45.2351C71.0941 45.0319 71.1239 44.8346 71.1538 44.6374C71.5065 42.2526 71.6619 40.0112 71.6798 37.9432C69.6058 36.9869 67.5856 36.2039 65.7865 35.5823L65.7745 35.5703Z" fill="white"></path>
<path d="M47.2213 86.8777V71.4869C44.4958 72.0189 41.8958 71.6662 39.6484 70.9609V87.2363C42.0572 87.5052 44.6093 87.4455 47.2213 86.8836V86.8777Z" fill="white"></path>
<path d="M81.5924 44.2975C80.2416 43.0423 78.7235 41.9067 77.1276 40.8906C76.8885 43.3113 76.494 45.8695 75.8904 48.5531C74.3662 55.3191 71.5272 62.868 66.644 70.925C66.4706 71.2119 66.2913 71.4928 66.118 71.7737C66.0642 71.8574 66.0164 71.9351 65.9626 72.0128C65.8371 72.2101 65.7056 72.4073 65.5801 72.6045C65.5263 72.6882 65.4665 72.7779 65.4127 72.8615C65.2693 73.0767 65.1318 73.2859 64.9883 73.4891C64.9525 73.5429 64.9166 73.5967 64.8808 73.6505C64.7074 73.9015 64.5341 74.1526 64.3548 74.3976C64.301 74.4753 64.2472 74.5471 64.1934 74.6188C64.0679 74.7921 63.9424 74.9595 63.8168 75.1268C63.7511 75.2165 63.6854 75.3002 63.6196 75.3898C63.5001 75.5512 63.3745 75.7066 63.255 75.862C63.1952 75.9397 63.1355 76.0174 63.0757 76.0891C62.9024 76.3103 62.729 76.5254 62.5557 76.7346C62.5079 76.7944 62.4541 76.8542 62.4063 76.9139C62.2748 77.0693 62.1433 77.2247 62.0178 77.3801C61.946 77.4638 61.8743 77.5415 61.8086 77.6252C61.695 77.7567 61.5815 77.8882 61.4619 78.0137C61.3902 78.0914 61.3244 78.1691 61.2527 78.2468C61.1093 78.4022 60.9718 78.5576 60.8283 78.707C60.7686 78.7728 60.7088 78.8326 60.649 78.8983C60.4936 79.0597 60.3382 79.2211 60.1888 79.3765C60.1171 79.4482 60.0454 79.5199 59.9736 79.5916C59.8601 79.7052 59.7465 79.8128 59.6389 79.9204C59.5612 79.9921 59.4895 80.0638 59.4118 80.1355C59.2923 80.2491 59.1727 80.3627 59.0472 80.4762C58.9874 80.536 58.9217 80.5958 58.8559 80.6496C58.6826 80.805 58.5093 80.9604 58.3359 81.1158C58.2702 81.1755 58.1985 81.2293 58.1327 81.2891C58.0132 81.3907 57.8996 81.4863 57.7801 81.582C57.7024 81.6477 57.6247 81.7075 57.547 81.7732C57.4334 81.8689 57.3199 81.9585 57.2063 82.0482C57.1346 82.102 57.0628 82.1617 56.9911 82.2155C56.8178 82.353 56.6385 82.4845 56.4651 82.61C56.4114 82.6519 56.3516 82.6937 56.2978 82.7295C56.1663 82.8252 56.0408 82.9148 55.9093 83.0045C55.8316 83.0583 55.7599 83.1061 55.6822 83.1599C55.5686 83.2376 55.455 83.3153 55.3415 83.393C55.2697 83.4408 55.192 83.4886 55.1203 83.5364C54.9829 83.6261 54.8454 83.7158 54.7079 83.7994C54.6541 83.8293 54.6063 83.8652 54.5525 83.8951C54.3792 84.0027 54.2058 84.1043 54.0385 84.1999C53.9668 84.2417 53.895 84.2776 53.8293 84.3194C53.7098 84.3852 53.5962 84.4509 53.4767 84.5167C53.4049 84.5585 53.3272 84.6003 53.2555 84.6362C53.13 84.702 53.0104 84.7677 52.8849 84.8275C52.8252 84.8574 52.7594 84.8932 52.6996 84.9231C52.5203 85.0128 52.347 85.0964 52.1677 85.1801C52.1079 85.21 52.0422 85.2399 51.9824 85.2638C51.8569 85.3176 51.7373 85.3774 51.6118 85.4312C51.5401 85.461 51.4624 85.4969 51.3907 85.5268C51.2771 85.5746 51.1576 85.6224 51.044 85.6702C50.9723 85.7001 50.9065 85.73 50.8348 85.7539C50.6675 85.8197 50.4941 85.8854 50.3268 85.9511C50.267 85.9751 50.2132 85.993 50.1534 86.0169C50.022 86.0647 49.8905 86.1125 49.7649 86.1544C49.6872 86.1783 49.6095 86.2082 49.5318 86.2321C49.4243 86.2679 49.3167 86.3038 49.2091 86.3337C49.1314 86.3576 49.0537 86.3815 48.976 86.4054C48.8564 86.4413 48.7429 86.4771 48.6233 86.507C48.5397 86.5309 48.462 86.5548 48.3783 86.5728C48.2289 86.6146 48.0794 86.6505 47.93 86.6923C47.8463 86.7162 47.7627 86.7341 47.673 86.7521C47.5774 86.776 47.4877 86.7939 47.3921 86.8178C47.3443 86.8298 47.2964 86.8357 47.2486 86.8477C44.6307 87.4095 42.0845 87.4693 39.6758 87.2003V96.5484C40.7098 96.6021 41.7677 96.5962 42.8376 96.5364C42.8675 96.5364 42.8974 96.5364 42.9332 96.5364C43.25 96.5185 43.5728 96.4886 43.8955 96.4587C43.9434 96.4587 43.9912 96.4467 44.045 96.4467C44.565 96.393 45.0909 96.3272 45.6169 96.2435C45.7066 96.2316 45.7902 96.2136 45.8799 96.2017C46.1369 96.1599 46.3999 96.112 46.6569 96.0582C46.7525 96.0403 46.8541 96.0164 46.9498 95.9985C47.0514 95.9746 47.153 95.9566 47.2546 95.9387C47.5116 95.8849 47.7626 95.8192 48.0197 95.7534C48.0256 95.7534 48.0316 95.7534 48.0376 95.7534C48.3962 95.6638 48.7608 95.5622 49.1254 95.4546C49.1374 95.4546 49.1493 95.4486 49.1613 95.4426C49.9144 95.2215 50.6675 94.9585 51.4206 94.6656C51.4445 94.6536 51.4684 94.6477 51.4923 94.6357C51.6656 94.57 51.839 94.4982 52.0123 94.4265C52.0482 94.4086 52.084 94.3966 52.1199 94.3787C52.6638 94.1456 53.2137 93.8946 53.7635 93.6256C53.7815 93.6137 53.7994 93.6077 53.8233 93.5957C53.9847 93.512 54.1521 93.4284 54.3134 93.3447C54.3672 93.3148 54.421 93.2909 54.4748 93.261C54.6362 93.1773 54.7976 93.0877 54.9589 92.998C55.0008 92.9741 55.0366 92.9562 55.0785 92.9323C55.5985 92.6454 56.1125 92.3346 56.6325 92.0058C56.6923 91.97 56.752 91.9281 56.8118 91.8923C56.9612 91.7966 57.1166 91.695 57.2661 91.5934C57.3318 91.5516 57.3916 91.5097 57.4573 91.4619C57.9594 91.1212 58.4555 90.7626 58.9516 90.3861C59.0113 90.3383 59.0711 90.2964 59.1309 90.2486C59.2743 90.135 59.4238 90.0215 59.5672 89.9079C59.6389 89.8482 59.7166 89.7884 59.7884 89.7286C59.9318 89.615 60.0752 89.4955 60.2187 89.376C60.2844 89.3222 60.3502 89.2684 60.4159 89.2146C60.7148 88.9636 61.0136 88.7006 61.3125 88.4316C61.3543 88.3957 61.3962 88.3599 61.438 88.324C61.5755 88.1985 61.7189 88.067 61.8564 87.9355C61.9341 87.8578 62.0178 87.7861 62.0955 87.7084C62.2329 87.5769 62.3644 87.4514 62.5019 87.3199C62.5856 87.2422 62.6693 87.1585 62.747 87.0748C62.8844 86.9374 63.0219 86.8059 63.1594 86.6684C63.1952 86.6325 63.2311 86.5907 63.2729 86.5548C63.5539 86.262 63.8408 85.9691 64.1217 85.6583C64.2113 85.5626 64.295 85.473 64.3847 85.3774C64.5102 85.2399 64.6417 85.0964 64.7672 84.953C64.8568 84.8514 64.9465 84.7498 65.0421 84.6422C65.1676 84.4987 65.2932 84.3553 65.4187 84.2059C65.5143 84.0983 65.604 83.9847 65.6996 83.8771C65.9148 83.6201 66.1299 83.3631 66.3391 83.1001C66.4407 82.9746 66.5424 82.8491 66.644 82.7236C66.7635 82.5742 66.8771 82.4247 66.9966 82.2693C67.0982 82.1378 67.1938 82.0123 67.2955 81.8808C67.409 81.7254 67.5286 81.576 67.6421 81.4206C67.7437 81.2831 67.8513 81.1397 67.9529 80.9962C68.0605 80.8468 68.1741 80.6974 68.2817 80.542C68.4729 80.273 68.6702 79.9981 68.8614 79.7231C68.963 79.5737 69.0646 79.4243 69.1663 79.2748C69.2798 79.1075 69.3934 78.9401 69.501 78.7728C69.6085 78.6174 69.7102 78.456 69.8177 78.2946C69.9313 78.1213 70.0389 77.948 70.1525 77.7746C70.2541 77.6192 70.3557 77.4579 70.4573 77.3025C70.5947 77.0813 70.7322 76.8542 70.8697 76.633C70.9354 76.5314 70.9952 76.4298 71.061 76.3222C75.7529 68.582 78.9087 61.2303 80.9648 54.4106C81.8674 51.4101 82.5607 48.5173 83.0747 45.738C82.6264 45.2359 82.1423 44.7577 81.6402 44.2915L81.5924 44.2975Z" fill="white"></path>
<path d="M31.5039 76.2578C31.5039 76.2578 31.5039 76.2578 31.5099 76.2578C31.6894 76.3596 31.875 76.4613 32.0665 76.563" fill="white"></path>
<path d="M32.0672 76.5594C35.8088 78.5676 41.3016 80.5161 47.2129 79.2849V71.4849C41.6901 72.5667 36.6874 69.9907 34.0994 68.2812L28.8516 74.575C29.3118 74.8978 29.8497 75.2624 30.4713 75.6389C30.7941 75.8362 31.1407 76.0394 31.4994 76.2426" fill="white"></path>
<path d="M59.1445 33.6551C59.1445 33.6551 59.1385 33.6371 59.1326 33.6312C59.0788 33.6132 57.5785 33.2247 55.122 33.2188L47.5731 42.2679L36.0195 56.1226C37.0177 57.4734 38.1533 58.352 38.4522 58.6508C38.4522 58.6508 39.3906 59.4816 40.8609 60.181L55.5762 42.5309L57.8774 39.7695L60.2144 36.9663L62.2944 34.4679C60.5192 33.9539 59.3358 33.6909 59.1445 33.6491V33.6551ZM59.1266 33.6371H59.1146L59.1027 33.6551C59.1146 33.6431 59.1206 33.6371 59.1266 33.6312V33.6371Z" fill="white"></path>
</svg>