<svg width="99" height="99" viewBox="0 0 99 99" fill="none" xmlns="http://www.w3.org/2000/svg">
<path d="M49.0839 0C22.0193 0 0 22.0193 0 49.0839C0 76.1485 22.0193 98.1678 49.0839 98.1678C76.1485 98.1678 98.1678 76.1485 98.1678 49.0839C98.1678 22.0193 76.1509 0 49.0839 0ZM39.5418 76.3965C28.7789 72.6244 20.9011 62.6651 20.2025 50.803C29.5872 51.3562 37.7798 56.4014 42.6629 63.8143C43.4545 65.0136 44.1555 66.2773 44.7635 67.5935C46.237 70.7837 47.1478 74.2815 47.3648 77.9677C45.8078 77.8771 44.2842 77.6578 42.8012 77.3287C41.6877 77.0808 40.6004 76.7708 39.5394 76.3988L39.5418 76.3965ZM58.5783 76.4131C57.5173 76.7827 56.43 77.0927 55.3166 77.3383C53.8335 77.6649 52.3099 77.8819 50.7529 77.9701C50.9699 74.2839 51.8807 70.7837 53.3542 67.5935C53.9623 66.2773 54.6632 65.016 55.4548 63.8143C60.3451 56.3871 68.5592 51.3371 77.963 50.8006C77.2644 62.6818 69.3651 72.6554 58.5783 76.4131ZM50.7458 94.8035V81.301C52.3218 81.22 53.8645 81.0221 55.3738 80.724C56.5111 80.4975 57.627 80.2162 58.719 79.8728C71.294 75.9291 80.5786 64.4796 81.2986 50.7982C81.3296 50.2308 81.3439 49.6609 81.3439 49.0863C81.3439 48.5427 81.3296 48.0038 81.3034 47.4673C80.7502 47.4387 80.1947 47.4244 79.6344 47.4244C79.0741 47.4244 78.5233 47.4387 77.9725 47.4673C68.0894 47.9704 59.3675 52.9441 53.7906 60.3976C53.03 61.4133 52.3361 62.4815 51.6995 63.583C50.6361 65.4214 49.7515 67.3717 49.0624 69.4127C48.3758 67.3717 47.4888 65.4214 46.4254 63.583C45.7864 62.4791 45.0925 61.4133 44.3343 60.3976C38.7669 52.9537 30.0617 47.9871 20.2001 47.4697C19.635 47.4411 19.0651 47.4244 18.4905 47.4244C17.9469 47.4244 17.4056 47.4387 16.8692 47.4649C16.8429 48.0014 16.8286 48.5427 16.8286 49.0863C16.8286 49.6609 16.8453 50.2284 16.8739 50.7959C17.5916 64.4629 26.8524 75.9005 39.4035 79.8585C40.4955 80.2019 41.6114 80.488 42.7487 80.7169C44.2556 81.0173 45.8007 81.2176 47.3767 81.2986C47.391 81.2986 47.4029 81.301 47.4173 81.301C47.4173 81.301 47.422 81.301 47.4244 81.301V94.8035C22.9588 93.9237 3.32615 73.7594 3.32615 49.0839C3.32615 24.4084 23.8529 3.32376 49.0839 3.32376C74.3149 3.32376 94.844 23.8529 94.844 49.0839C94.844 74.3149 75.2091 93.9237 50.7458 94.8035Z" fill="white"></path>
<path d="M72.4543 26.885C71.5316 25.9122 70.5492 24.9967 69.512 24.1454C68.1887 24.4888 66.894 24.9013 65.6279 25.371C65.1773 25.5379 64.7338 25.7167 64.2903 25.8979C61.7343 20.0349 55.8879 15.9243 49.095 15.9219C42.2948 15.9195 36.4389 20.0325 33.8829 25.9027C33.437 25.7167 32.9888 25.5379 32.5358 25.3686C31.2721 24.8965 29.9798 24.4816 28.6588 24.1359C27.6217 24.9847 26.6417 25.9003 25.719 26.8707C22.3618 30.3996 19.7891 34.6818 18.2965 39.4386C17.9532 40.5306 17.6718 41.6465 17.4453 42.7838C17.7934 42.7742 18.1368 42.7576 18.4873 42.7576C19.2765 42.7576 20.0562 42.7909 20.8335 42.841C28.5515 43.3298 35.6259 46.2053 41.3411 50.726C42.2972 51.4818 43.2128 52.2854 44.0903 53.1318C45.1036 54.1118 46.0692 55.1394 46.9658 56.229C47.7049 57.1256 48.4011 58.0578 49.0544 59.0211C49.7077 58.0578 50.4064 57.1256 51.1455 56.229C50.485 55.3111 49.7888 54.4241 49.0568 53.5681C47.8766 52.1876 46.5986 50.8929 45.2467 49.6817C44.3811 48.9068 43.4775 48.1724 42.5452 47.4738C36.6511 43.0556 29.5172 40.2087 21.7586 39.5769C23.3418 35.0419 26.0241 31.0195 29.4814 27.8269C30.6355 28.1893 31.7632 28.6089 32.8672 29.0786C33.9354 29.5317 34.9749 30.0324 35.9883 30.5808C40.2086 32.865 43.94 35.9455 46.9705 39.6222C47.7097 40.5187 48.4059 41.4509 49.0592 42.4142C50.5876 44.6698 51.8632 47.109 52.8694 49.6817C51.5151 50.8905 50.2371 52.1852 49.0544 53.5657C49.7864 54.4217 50.4827 55.3111 51.1431 56.2267C52.042 55.1394 53.0077 54.1094 54.021 53.1318C54.8984 52.2877 55.814 51.4842 56.7725 50.7284C62.5021 46.2005 69.5979 43.3298 77.335 42.8553C78.0956 42.8076 78.861 42.7766 79.6335 42.7766C79.9983 42.7766 80.3607 42.7933 80.7232 42.8052C80.499 41.6679 80.2153 40.552 79.8743 39.46C78.3841 34.6985 75.8114 30.4115 72.4543 26.8779V26.885ZM36.8943 27.3095C38.9186 22.5718 43.6253 19.2456 49.0926 19.248C54.5527 19.248 59.2499 22.5718 61.2742 27.2999C56.5985 29.7081 52.4521 33.0032 49.0616 36.966C45.683 33.0128 41.5509 29.72 36.8943 27.3095ZM55.5708 47.4809C54.393 44.6865 52.9004 42.0589 51.1503 39.6269C54.1951 35.9384 57.9432 32.853 62.185 30.5712C63.1983 30.0252 64.2403 29.5269 65.3084 29.0762C66.41 28.6113 67.5354 28.1917 68.687 27.834C72.1467 31.0314 74.8291 35.0585 76.4099 39.5983C68.6322 40.2159 61.4792 43.058 55.5708 47.4809Z" fill="white"></path>
</svg>