<svg width="213" height="62" viewBox="0 0 213 62" fill="none" xmlns="http://www.w3.org/2000/svg">
<g clip-path="url(#clip0_1165_19050)">
<path d="M3.8559 59.373C3.33052 59.373 2.82638 59.1569 2.46286 58.7726C2.0622 58.351 1.87115 57.7693 1.94545 57.193L8.33485 6.38767C8.44895 5.47776 9.18394 4.77065 10.0941 4.69861L34.5054 2.75338C34.5558 2.74805 34.6089 2.74805 34.6593 2.74805C35.5084 2.74805 36.2673 3.31107 36.5087 4.14359L50.7682 53.3052C50.93 53.8655 50.8345 54.4686 50.5055 54.9489C50.1764 55.4292 49.6484 55.7334 49.0726 55.7814L32.2659 57.1209C32.2155 57.1262 32.1625 57.1262 32.112 57.1262C31.2629 57.1262 30.5041 56.5632 30.2626 55.7334L28.4928 49.6469L22.7163 50.1058L21.854 56.4218C21.7319 57.3237 20.9996 58.0175 20.0974 58.0895L4.0098 59.3703C3.95938 59.3757 3.90897 59.3757 3.85855 59.3757L3.8559 59.373ZM23.5601 35.6994L25.4254 35.55L24.1067 30.5575L23.5601 35.6994Z" fill="#141414"></path>
<path d="M34.655 4.68547L48.9144 53.847L32.1077 55.1866L29.8974 47.5871L21.0138 48.2942L19.9419 56.1552L3.85425 57.436L10.2437 6.63069L34.655 4.68547ZM21.3986 37.813L27.8809 37.298L23.5213 20.7996L23.2002 20.8263L21.3986 37.8156M34.6577 0.811035C34.5568 0.811035 34.4533 0.816372 34.3499 0.824377L9.93851 2.7696C8.11827 2.91369 6.64828 4.32524 6.42009 6.14772L0.0306867 56.9503C-0.115251 58.1084 0.264187 59.2691 1.06552 60.1123C1.7952 60.8808 2.8035 61.3131 3.85425 61.3131C3.95508 61.3131 4.05591 61.3104 4.15939 61.2997L20.247 60.0189C22.0513 59.8748 23.5133 58.4873 23.7601 56.6835L24.4102 51.9125L27.0769 51.699L28.4062 56.2752C28.8891 57.9376 30.4042 59.0637 32.1024 59.0637C32.2033 59.0637 32.3067 59.0583 32.4102 59.0503L49.2169 57.7108C50.3738 57.6201 51.4272 57.009 52.0852 56.0484C52.7433 55.0878 52.937 53.8817 52.6133 52.761L38.3538 3.60212C37.8709 1.93974 36.3558 0.811035 34.6577 0.811035Z" fill="white"></path>
<path d="M71.4994 58.4791C70.7909 58.4791 70.056 58.455 69.313 58.4123C63.1571 58.0388 57.9511 57.0515 51.904 55.1116C51.0071 54.8234 50.4473 53.9269 50.5826 52.9903L52.5222 39.4377C52.6018 38.8747 52.9256 38.3757 53.4058 38.0716C53.7163 37.8768 54.0718 37.7754 54.43 37.7754C54.6264 37.7754 54.8227 37.8047 55.0138 37.8661C61.2838 39.8727 65.638 41.2042 68.8858 41.4016C68.9256 41.4016 68.9654 41.407 69.0052 41.407C68.6895 41.2069 68.2782 40.98 67.9173 40.7799L67.8563 40.7452C67.1133 40.3316 66.1899 39.8914 65.2161 39.4244C62.3054 38.0342 58.6861 36.3024 55.8204 33.4607C52.3657 30.0345 50.771 25.6744 51.0814 20.5032C51.4105 15.0197 53.3713 10.5049 56.7544 7.44696C60.1534 4.3757 64.781 2.81738 70.5097 2.81738C71.1545 2.81738 71.8205 2.83873 72.4918 2.87875C78.2736 3.23098 83.8749 4.09285 90.1184 5.5978C91.1214 5.83795 91.7555 6.83057 91.5618 7.84988L88.866 21.9227C88.7651 22.4484 88.452 22.91 88.0009 23.1955C87.6905 23.3903 87.3349 23.4917 86.9741 23.4917C86.8096 23.4917 86.6451 23.4704 86.4832 23.4277C81.4364 22.0908 76.4321 20.8314 73.9963 20.6846C73.8079 20.6739 73.6301 20.6659 73.4682 20.6659C73.508 20.6846 73.5452 20.7033 73.585 20.722C73.8928 20.8687 74.2245 21.0262 74.5747 21.2049C75.2327 21.5492 75.9863 21.9094 76.785 22.2883C82.3465 24.9353 91.6547 29.3647 90.9754 40.6438C90.2855 52.1497 83.3681 58.4844 71.5021 58.4844L71.4994 58.4791Z" fill="#141414"></path>
<path d="M70.5084 4.74944C71.116 4.74944 71.7369 4.76811 72.3737 4.80814C78.6251 5.18704 84.2769 6.17967 89.6686 7.47648L86.9728 21.5493C81.4298 20.0817 76.6749 18.9023 74.1117 18.7449C73.8782 18.7316 73.6553 18.7236 73.4457 18.7236C71.7687 18.7236 70.787 19.1932 70.71 20.4793C70.6384 21.6881 71.9041 22.0083 73.7004 22.9262C78.925 25.6693 89.7403 29.0767 89.0504 40.5213C88.4242 50.9198 82.3797 56.542 71.5007 56.542C70.8294 56.542 70.1395 56.5207 69.4311 56.478C62.779 56.0724 57.78 54.9597 52.4917 53.2653L54.4314 39.7128C61.2984 41.9088 65.4059 43.1309 68.773 43.3337C68.911 43.3417 69.0437 43.347 69.171 43.347C70.588 43.347 71.2964 42.8214 71.3628 41.7113C71.4344 40.5026 70.4235 39.9556 68.789 39.0483C63.575 36.1425 52.2609 33.0285 53.0065 20.6181C53.6141 10.4864 59.9982 4.7521 70.511 4.7521M70.511 0.877668V4.7521V0.875C64.379 0.875 59.1783 2.64945 55.4689 6.00356C51.7037 9.40837 49.5226 14.3822 49.1617 20.3833C48.8168 26.1389 50.6025 31.0033 54.4712 34.8377C54.9222 35.2833 55.3866 35.7049 55.8616 36.0998C55.7766 36.0731 55.6891 36.0438 55.6042 36.0171C55.2221 35.8944 54.8294 35.8356 54.4367 35.8356C53.7203 35.8356 53.0091 36.0358 52.3909 36.428C51.4304 37.0337 50.7856 38.0317 50.6237 39.1604L48.6841 52.7129C48.4161 54.5861 49.5332 56.3819 51.3269 56.9583C57.5332 58.9488 62.8798 59.9628 69.2055 60.3471C69.9856 60.3951 70.7604 60.4191 71.5087 60.4191C84.3565 60.4191 92.1549 53.2519 92.9058 40.7587C93.2375 35.2219 91.4146 30.5016 87.4822 26.7313C86.9223 26.1949 86.3439 25.6986 85.7495 25.2343C85.8318 25.2557 85.914 25.277 85.999 25.301C86.3227 25.3864 86.6517 25.4291 86.9807 25.4291C87.6998 25.4291 88.4136 25.2263 89.0318 24.8341C89.934 24.263 90.5628 23.3398 90.7645 22.2858L93.4603 8.21295C93.8504 6.177 92.5794 4.19442 90.5734 3.71145C84.2185 2.18249 78.5137 1.30194 72.6152 0.944377C71.9067 0.901683 71.2009 0.880337 70.519 0.880337L70.511 0.877668Z" fill="white"></path>
<path d="M142.794 57.6579C141.73 57.6579 140.867 56.7907 140.867 55.7207V5.5798C140.867 4.50979 141.73 3.64258 142.794 3.64258H165.194C171.663 3.64258 176.38 4.82199 179.62 7.24484C182.993 9.7691 184.701 13.6355 184.701 18.7401C184.701 23.0681 183.316 26.4009 180.379 29.0452C183.876 31.5882 185.585 35.5346 185.585 41.0234C185.585 52.0597 178.832 57.6552 165.515 57.6552H142.794V57.6579ZM162.222 43.7718C163.387 43.7718 163.564 43.585 163.567 43.5824C163.647 43.481 163.909 42.9873 163.909 40.9434C163.909 37.3091 163.31 37.3091 162.222 37.3091H161.821V43.7691H162.222V43.7718ZM162.301 24.5571C162.71 24.5571 162.827 24.485 162.827 24.485C162.829 24.485 163.182 24.1195 163.182 22.2169C163.182 20.5332 162.922 19.9542 162.811 19.7834C162.779 19.7354 162.71 19.6313 162.219 19.6313H161.818V24.5571H162.301Z" fill="#141414"></path>
<path d="M165.195 5.57971C177.157 5.57971 182.777 9.77968 182.777 18.74C182.777 23.7458 180.768 26.7343 177.157 29.0745V29.3974C181.172 31.2545 183.661 34.646 183.661 41.0233C183.661 50.1464 178.683 55.7179 165.517 55.7179H142.795V5.57971H165.195ZM159.897 26.4915H162.306C164.232 26.4915 165.116 25.4429 165.116 22.2115C165.116 18.9801 164.232 17.6913 162.226 17.6913H159.899V26.4915M159.899 45.7063H162.226C165.036 45.7063 165.84 44.8177 165.84 40.9433C165.84 37.0688 165.036 35.3718 162.226 35.3718H159.899V45.7063ZM165.198 1.7026H142.798C140.67 1.7026 138.945 3.43703 138.945 5.57704V55.7152C138.945 57.8552 140.67 59.5897 142.798 59.5897H165.519C172.904 59.5897 178.314 57.994 182.061 54.7093C185.682 51.5366 187.516 46.931 187.516 41.018C187.516 35.8547 186.07 31.8069 183.207 28.9224C185.529 26.1847 186.635 22.8572 186.635 18.7346C186.635 12.9844 184.664 8.59227 180.776 5.68377C177.192 3.00209 172.097 1.69727 165.198 1.69727V1.7026Z" fill="white"></path>
<path d="M203.368 58.4075C203.301 58.4075 203.232 58.4048 203.166 58.3968L186.317 56.6277C185.808 56.5743 185.343 56.3208 185.019 55.9206C184.698 55.5203 184.547 55.0107 184.6 54.4984L189.777 4.62967C189.881 3.63438 190.716 2.89258 191.69 2.89258C191.756 2.89258 191.825 2.89525 191.892 2.90325L208.741 4.67236C209.25 4.72573 209.715 4.97922 210.038 5.37948C210.36 5.77973 210.511 6.28938 210.458 6.8017L205.281 56.6704C205.177 57.6657 204.342 58.4075 203.368 58.4075Z" fill="#141414"></path>
<path d="M191.692 4.83244L208.541 6.60156L203.364 56.4703L186.515 54.7011L191.692 4.83244ZM191.692 0.958008C190.811 0.958008 189.954 1.2622 189.264 1.82255C188.471 2.47096 187.964 3.40755 187.858 4.42952L182.681 54.2982C182.461 56.4276 183.997 58.3328 186.115 58.5542L202.964 60.3233C203.096 60.3367 203.232 60.3447 203.364 60.3447C204.245 60.3447 205.102 60.0405 205.792 59.4801C206.586 58.8317 207.093 57.8951 207.199 56.8732L212.375 7.00448C212.596 4.87514 211.059 2.96994 208.942 2.74847L192.093 0.979355C191.96 0.966013 191.825 0.958008 191.692 0.958008Z" fill="white"></path>
<path d="M114.181 61.2598C131.003 61.2598 144.64 47.5464 144.64 30.6299C144.64 13.7135 131.003 0 114.181 0C97.3594 0 83.7227 13.7135 83.7227 30.6299C83.7227 47.5464 97.3594 61.2598 114.181 61.2598Z" fill="white"></path>
<path d="M130.475 21.1787C130.52 21.144 130.565 21.1093 130.605 21.0639C132.895 18.4383 133.547 15.1829 133.03 12.76C132.934 12.3117 132.465 12.0556 132.038 12.2157C131.47 12.4292 130.645 12.784 129.766 13.3177C129.798 13.299 129.83 13.2777 129.862 13.259C130.594 12.8267 130.151 11.6927 129.323 11.8795C127.744 12.2344 126.187 13.219 124.337 15.1375C121.384 13.3097 117.908 12.253 114.185 12.253C110.463 12.253 106.987 13.3097 104.034 15.1375C102.184 13.2163 100.627 12.2317 99.0478 11.8795C98.2199 11.6954 97.7795 12.8267 98.5091 13.259C98.541 13.2777 98.5728 13.299 98.602 13.3177C97.7211 12.7867 96.8959 12.4292 96.3307 12.2184C95.9035 12.0583 95.4365 12.3144 95.3383 12.7627C94.8182 15.1856 95.4736 18.4409 97.7635 21.0666C97.8033 21.1119 97.8458 21.1493 97.8935 21.1813C95.9327 24.2286 94.7891 27.8575 94.7891 31.7586C94.7891 42.5308 103.474 51.2642 114.185 51.2642C124.897 51.2642 133.582 42.5308 133.582 31.7586C133.582 27.8575 132.438 24.2286 130.477 21.1813L130.475 21.1787Z" fill="#141414"></path>
<path d="M103.844 35.2676C110.984 37.0127 118.26 37.1301 124.519 36.5831C124.519 36.5831 121.484 43.7689 115.803 44.3906C110.379 44.983 103.844 40.2681 103.844 35.2676Z" fill="white"></path>
<path d="M106.274 26.4805C108.333 26.4805 110.09 27.5665 110.806 29.1035C110.828 28.9194 110.844 28.7299 110.844 28.5405C110.844 25.9842 108.838 23.9136 106.359 23.9136C103.881 23.9136 101.875 25.9842 101.875 28.5405C101.875 28.6365 101.883 28.7273 101.888 28.8207C102.679 27.4385 104.343 26.4805 106.272 26.4805H106.274Z" fill="white"></path>
<path d="M121.879 26.4807C123.874 26.4807 125.586 27.5001 126.342 28.9596C126.355 28.8209 126.363 28.6821 126.363 28.538C126.363 25.9818 124.357 23.9111 121.879 23.9111C119.401 23.9111 117.395 25.9818 117.395 28.538C117.395 28.6795 117.402 28.8209 117.416 28.9596C118.172 27.5001 119.883 26.4807 121.879 26.4807Z" fill="white"></path>
</g>
<defs>
<clipPath id="clip0_1165_19050">
<rect width="212.397" height="61.3106" fill="white"></rect>
</clipPath>
</defs>
</svg>