<svg width="137" height="80" viewBox="0 0 137 80" fill="none" xmlns="http://www.w3.org/2000/svg">
<path d="M48.9965 43.4041V53.9038H45.5544V43.4041H48.9965ZM51.2267 41.1797H43.3242V56.1283H51.2267V41.1797Z" fill="white"></path>
<path d="M28.0278 43.4041V53.9038H24.5856V43.4041H28.0278ZM30.2579 41.1797H22.3555V56.1283H30.2579V41.1797Z" fill="white"></path>
<path d="M69.9223 43.4041V53.9038H66.4801V43.4041H69.9223ZM72.1524 41.1797H64.25V56.1283H72.1524V41.1797Z" fill="white"></path>
<path d="M90.9887 43.4041V53.9038H87.5465V43.4041H90.9887ZM93.2189 41.1797H85.3164V56.1283H93.2189V41.1797Z" fill="white"></path>
<path d="M17.5349 78.093V69.3281H14.1715V78.093H13.2383V79.7734H18.4682V78.093H17.5349Z" fill="white"></path>
<path d="M80.3748 78.0996V65.8047H77.0053V78.0996H76.0781V79.7801H81.308V78.0996H80.3748Z" fill="white"></path>
<path d="M59.4177 65.8047H56.0483V78.0996H55.1211V79.7801H60.351V78.0996H59.4177V65.8047Z" fill="white"></path>
<path d="M38.4646 78.0918V65.7969H35.0952V78.0918H34.168V79.7722H39.3979V78.0918H38.4646Z" fill="white"></path>
<path d="M98.9492 51.287C99.7431 52.0789 100.537 52.8707 101.331 53.6626C106.185 48.8208 114.063 48.8208 118.917 53.6626C119.711 52.8707 120.505 52.0789 121.299 51.287C115.13 45.1335 105.118 45.1335 98.9492 51.287Z" fill="white"></path>
<path d="M78.9323 31.0156H75.9628H60.467H57.4975H39.0625V34.3765H42.032H57.4975H60.467H75.9628H78.9323H94.422H97.3915V31.0156H78.9323Z" fill="white"></path>
<path d="M77.0045 32.6875V44.1906V51.4322V62.6149H59.418V65.9757H80.374V51.4322V44.1906V32.6875H77.0045Z" fill="white"></path>
<path d="M59.4209 47.38V33.5859H56.0514V47.38V51.4299V62.6126H38.4648V65.9735H56.0514H59.4209V63.1023V47.38Z" fill="white"></path>
<path d="M101.332 65.7969H97.9624V78.0918H97.0352V79.7722H102.265V78.0918H101.332V65.7969Z" fill="white"></path>
<path d="M122.287 78.0836V65.9579V65.7886V63.0866V47.3643V33.5703H118.918V47.3643V51.4143V63.0866V65.7886V65.9579V78.0836H117.984V79.764H123.22V78.0836H122.287Z" fill="white"></path>
<path d="M113.482 20.4133L110.155 10.1191L109.24 3.36719H107.998L107.331 8.31781H29.1251L28.4585 3.36719H27.2162L26.3071 10.1191L22.9801 20.4133L0 34.4793H136.463L113.482 20.4133ZM26.0162 22.7949L29.5251 11.9265H106.931L110.44 22.7949L123.627 30.8646H12.8293L26.0162 22.7949Z" fill="white"></path>
<path d="M59.7148 25.2908H76.7681L68.2415 17.0156L59.7148 25.2908ZM65.2053 23.0664L68.2415 20.1166L71.2776 23.0664H65.2053Z" fill="white"></path>
<path d="M86.5737 23.1694L71.7385 8.35984L69.6659 6.29255L68.8175 0H67.5752L66.7207 6.36508L64.7208 8.35984L49.8856 23.1694L34.0625 31.8194L36.4502 36.1655L38.4622 35.0654V34.3763H39.7227L52.8975 27.171L68.2296 11.8658L83.5618 27.171L96.9427 34.4911H97.9608V35.0472L100.009 36.1655L102.391 31.8194L86.5737 23.1694Z" fill="white"></path>
<path d="M35.0954 33.5725V34.4792V41.1828V47.3666V51.4165V62.5992H17.5392V44.175V32.6719H14.1758V44.175V51.4165V65.9601H35.0954H38.4649V63.0889V51.4165V41.1828V34.4792V33.5725H35.0954Z" fill="white"></path>
<path d="M97.9616 32.6875V34.4828V41.1864V44.1785V51.4201V62.6028H80.375V65.9636H101.331V51.4201V44.1785V41.1864V34.4828V32.6875H97.9616Z" fill="white"></path>
</svg>