<svg width="101" height="101" viewBox="0 0 101 101" fill="none" xmlns="http://www.w3.org/2000/svg">
<path d="M94.5179 35.0512C93.7684 34.1827 92.956 33.379 92.0962 32.6366C92.1785 31.5072 92.1837 30.3691 92.0997 29.2292C91.6899 23.7066 89.3208 18.5131 85.4247 14.6032L85.1516 14.3318C80.2836 9.53235 73.705 7.31561 67.2419 7.77787C66.5625 7.01444 65.8323 6.29303 65.0513 5.62066C60.8558 2.00488 55.5081 0.00875492 49.9906 0C49.861 0 49.7314 0 49.6036 0C42.7675 0.0472766 36.5478 3.13251 32.3033 8.03001C31.2842 7.97048 30.2563 7.97748 29.2302 8.05277C23.7074 8.4625 18.5138 10.8316 14.6072 14.724C14.5162 14.8151 14.4234 14.9079 14.3323 15.0007C9.53269 19.8667 7.31586 26.4469 7.77814 32.9097C7.01468 33.5891 6.29325 34.3193 5.62085 35.1002C2.00495 39.2973 0.00875522 44.6448 0 50.1622C0 50.29 0 50.4196 0 50.5491C0.0472782 57.2274 2.99429 63.3173 7.69934 67.5512C7.34738 73.8968 9.57471 80.3246 14.2973 85.1136C14.4058 85.2239 14.5162 85.3342 14.6265 85.4445C18.5418 89.3457 23.7442 91.7183 29.2757 92.1245C29.8448 92.1665 30.4139 92.1875 30.983 92.1875C31.405 92.1875 31.827 92.1718 32.2472 92.149C36.4918 97.0308 42.7115 100.104 49.5546 100.151C49.6736 100.151 49.7927 100.151 49.9118 100.151H50.0186C55.5449 100.14 60.9013 98.1391 65.1003 94.5163C65.855 93.865 66.5625 93.1681 67.2208 92.4327C67.7637 92.4712 68.3083 92.4939 68.8511 92.4939C74.7661 92.4939 80.6514 90.2544 85.113 85.856C85.2233 85.7474 85.3336 85.6371 85.444 85.5268C89.3453 81.6116 91.718 76.4094 92.1242 70.8781C92.1977 69.8853 92.203 68.8924 92.1505 67.9066C97.0306 63.6623 100.104 57.4445 100.151 50.6017C100.151 50.4476 100.151 50.2917 100.151 50.1377C100.14 44.6116 98.139 39.2553 94.5161 35.0547L94.5179 35.0512ZM96.05 50.5684C96.0168 55.2645 94.2517 59.6017 91.3362 62.9391C90.5868 60.2426 89.3576 57.6826 87.6766 55.3976C86.351 53.5959 84.9939 51.8239 83.6159 50.0711C82.7491 51.1777 81.8736 52.2756 80.9823 53.3647C82.1292 54.8355 83.2622 56.3186 84.3706 57.8262C86.1724 60.2759 87.3456 63.1089 87.8306 66.0769C85.3442 67.8068 82.4234 68.9712 79.2435 69.3617C77.573 69.5666 75.899 69.7469 74.2233 69.915C74.0849 71.3036 73.9309 72.6938 73.7627 74.0824C75.7572 73.888 77.7499 73.6761 79.7408 73.4327C82.7176 73.0685 85.507 72.1423 88.0128 70.7765C87.6345 75.2538 85.6979 79.4561 82.5355 82.6289C82.4357 82.7305 82.3341 82.8303 82.2326 82.9301C78.8898 86.2272 74.5735 88.0447 70.1521 88.3441C71.5284 85.9085 72.4687 83.2277 72.8977 80.4244C73.2199 78.311 73.5071 76.1958 73.7627 74.0824C72.3707 74.2172 70.9786 74.3415 69.5848 74.4536C69.3606 76.2378 69.1155 78.0221 68.8423 79.8063C68.3835 82.8128 67.2103 85.6459 65.4558 88.0867C62.4738 87.5527 59.5845 86.3095 57.0613 84.3379C55.734 83.2995 54.4225 82.2419 53.1162 81.1773C52.0358 82.0616 50.9431 82.9353 49.8435 83.7986C51.3932 85.0733 52.9533 86.334 54.5345 87.5702C56.8967 89.4175 59.5215 90.7377 62.2584 91.5432C58.8263 94.441 54.4855 96.0414 50.0098 96.0484C49.868 96.0484 49.7244 96.0484 49.5808 96.0484C44.8863 96.0152 40.5489 94.2502 37.2114 91.3348C39.9081 90.5854 42.4663 89.3544 44.7514 87.6752C46.4745 86.4093 48.1677 85.1118 49.8435 83.7986C48.7631 82.9091 47.6897 82.0126 46.6268 81.1056C45.2067 82.2087 43.7761 83.3013 42.3227 84.3711C39.873 86.1729 37.0398 87.3461 34.0718 87.8311C32.3418 85.3447 31.1773 82.424 30.7869 79.2443C30.589 77.6264 30.4139 76.0067 30.2493 74.3853C28.8607 74.2697 27.4756 74.1419 26.0888 74.0018C26.2762 75.9174 26.481 77.8312 26.7139 79.7433C27.0782 82.72 28.0045 85.5093 29.3703 88.0149C24.8928 87.6367 20.6903 85.7001 17.5175 82.5396C17.4159 82.4398 17.3161 82.3382 17.2163 82.2367C14.0119 78.9886 12.2048 74.8195 11.8318 70.5296C14.4146 71.9899 17.3073 72.9827 20.4032 73.368C22.296 73.6043 24.1907 73.811 26.0888 74.0018C25.9522 72.615 25.8279 71.2283 25.7158 69.8415C24.1136 69.6751 22.5114 69.4983 20.911 69.2987C17.5945 68.8854 14.5582 67.6335 12.0034 65.7792C12.5042 62.6852 13.7667 59.6788 15.8102 57.0663C16.8135 55.7828 17.8361 54.5134 18.8658 53.2492C17.9657 52.1863 17.0762 51.1147 16.1954 50.0361C14.9732 51.5244 13.765 53.0215 12.5778 54.5379C10.6709 56.977 9.32781 59.698 8.53109 62.5346C5.7837 59.248 4.13071 55.0509 4.0992 50.5264V50.1727C4.10445 45.6656 5.72942 41.2952 8.66942 37.8545C9.47315 40.586 10.7864 43.209 12.6233 45.5693C13.7947 47.0752 14.9889 48.56 16.1954 50.0379C17.0797 48.961 17.971 47.8929 18.8745 46.8318C17.8589 45.5798 16.8521 44.3226 15.861 43.0497C13.9033 40.5335 12.6653 37.6567 12.126 34.6905C14.5424 32.9675 17.3406 31.8084 20.3104 31.3426C22.1157 31.0589 23.9245 30.8015 25.7386 30.5704C25.8524 29.1766 25.9802 27.7829 26.1186 26.3908C23.9648 26.6552 21.8163 26.9529 19.6747 27.2908C16.9081 27.7251 14.2623 28.6548 11.8546 30.0101C12.1365 25.5696 13.9506 21.2359 17.2513 17.888C17.3336 17.804 17.4159 17.7217 17.4999 17.6377C20.6921 14.4561 24.9296 12.5143 29.4421 12.1588C28.0798 14.6592 27.1534 17.4415 26.7822 20.4112C26.5336 22.4021 26.3164 24.3965 26.1186 26.3926C27.5072 26.2227 28.8975 26.0669 30.2896 25.9268C30.4612 24.2564 30.645 22.5877 30.8534 20.9208C31.2474 17.7567 32.4066 14.8483 34.1226 12.3707C37.0504 12.861 39.8485 14.0201 42.2772 15.7886C43.7533 16.8637 45.2085 17.9686 46.6531 19.0857C47.7212 18.1805 48.7964 17.284 49.8803 16.3962C48.1712 15.0602 46.4447 13.7487 44.6919 12.4723C42.4278 10.8228 39.8993 9.6094 37.2395 8.86523C40.5805 5.92533 44.9266 4.14283 49.6281 4.10956C49.7454 4.10956 49.8627 4.10956 49.9801 4.10956C54.4873 4.11656 58.8579 5.73972 62.2987 8.67962C59.567 9.48333 56.944 10.7966 54.5836 12.6333C52.9989 13.866 51.4334 15.125 49.882 16.3962C50.9834 17.2577 52.0778 18.1279 53.1635 19.0139C54.468 17.9546 55.7778 16.9022 57.1051 15.8709C59.6213 13.9133 62.4983 12.6754 65.4645 12.1378C67.1876 14.5542 68.3468 17.3522 68.8126 20.3202C69.105 22.1762 69.3676 24.0375 69.604 25.904C70.9996 26.0406 72.3969 26.193 73.7925 26.3611C73.5211 24.1303 73.2129 21.9048 72.8645 19.6846C72.4302 16.918 71.5004 14.2723 70.1468 11.8647C74.5875 12.1483 78.9213 13.9606 82.2676 17.2612L82.518 17.5098C85.7206 20.7211 87.6695 24.9935 88.0057 29.5391C88.0127 29.6336 88.0145 29.7282 88.0198 29.8245C85.6716 28.5463 83.1046 27.669 80.4255 27.2611C78.2157 26.9231 76.0041 26.6255 73.7925 26.3611C73.9624 27.7548 74.1165 29.1504 74.2565 30.5477C76.1074 30.777 77.9565 31.0327 79.8074 31.3163C82.6686 31.7523 85.3757 32.8362 87.7343 34.4541C87.2143 37.2644 86.0743 39.9487 84.3688 42.288C83.2622 43.8079 82.1257 45.3049 80.9735 46.7915C81.8648 47.8771 82.7439 48.975 83.6141 50.0799C85.001 48.3096 86.3615 46.5201 87.6853 44.7026C89.2788 42.5156 90.4642 40.0818 91.2137 37.5218C91.2784 37.5954 91.345 37.6654 91.4098 37.7389C94.3918 41.1954 96.0395 45.6026 96.0483 50.1482C96.0483 50.29 96.0483 50.4336 96.0483 50.5772L96.05 50.5684Z" fill="white"></path>
<path d="M80.519 46.7276C78.5727 44.3226 76.5742 41.9688 74.5304 39.6681C74.3701 36.5492 74.1401 33.4374 73.8351 30.3362C73.6957 28.9261 73.5424 27.5177 73.3734 26.1111C71.9847 25.9432 70.5943 25.7895 69.2056 25.6499C66.1442 25.3442 63.0828 25.1109 60.0266 24.9484C57.6814 22.8049 55.2891 20.718 52.848 18.6965C51.7694 17.8023 50.6804 16.9241 49.5827 16.0547C48.5042 16.9506 47.4343 17.8536 46.3715 18.7689C44.0314 20.7834 41.7297 22.842 39.4664 24.9448C36.3318 25.1109 33.2042 25.353 30.087 25.6729C28.7018 25.8142 27.3184 25.9715 25.9367 26.1429C25.799 27.5477 25.6718 28.9543 25.5586 30.3609C25.3094 33.4374 25.1177 36.5156 24.9853 39.5992C22.8544 41.9476 20.7687 44.3385 18.7284 46.77C17.831 47.8408 16.9424 48.9187 16.0625 50.0055C16.9389 51.094 17.8241 52.1755 18.7197 53.2481C20.753 55.6849 22.8317 58.0828 24.9574 60.4365C25.0881 63.6261 25.2798 66.8121 25.5342 69.9946C25.6457 71.3959 25.7694 72.7955 25.9053 74.1932C27.2835 74.3346 28.6635 74.4636 30.0452 74.5802C33.1833 74.8453 36.3248 75.0503 39.4681 75.1898C41.7193 77.2909 44.0105 79.3495 46.3401 81.364C47.3995 82.2794 48.4676 83.1841 49.5409 84.0818C50.6369 83.2106 51.7224 82.3288 52.7974 81.4365C55.2333 79.4149 57.6152 77.3421 59.943 75.2181C63.0271 75.0891 66.1076 74.9018 69.1847 74.6527C70.5716 74.5413 71.9568 74.4141 73.342 74.278C73.5093 72.8767 73.6609 71.4737 73.8003 70.0724C74.1174 66.8634 74.3579 63.6544 74.5216 60.4471C76.5777 58.1323 78.5814 55.775 80.5242 53.37C81.4111 52.2727 82.2823 51.1629 83.1448 50.0461C82.2788 48.9293 81.4041 47.8214 80.5172 46.7276H80.519ZM74.7569 53.9178C73.3734 55.5576 71.9568 57.171 70.5176 58.7649C70.4218 60.9225 70.2928 63.0818 70.1273 65.243C69.9949 66.98 69.8398 68.7188 69.6604 70.4576C67.9755 70.599 66.2888 70.728 64.6004 70.834C62.5026 70.9648 60.4013 71.0637 58.3017 71.1379C56.7422 72.5816 55.1636 74.0059 53.5536 75.4037C52.2538 76.5328 50.9313 77.6408 49.5984 78.7381C48.3125 77.6337 47.0353 76.5205 45.7738 75.3878C44.2092 73.9847 42.6654 72.5569 41.1373 71.1132C39.0499 71.0337 36.9625 70.9294 34.8769 70.7934C33.138 70.6803 31.3991 70.5424 29.6619 70.3905C29.5155 68.6287 29.3849 66.8652 29.2786 65.0998C29.1496 62.9847 29.0538 60.8677 28.9806 58.7508C27.5606 57.1975 26.1562 55.6266 24.7762 54.0362C23.6245 52.7091 22.4919 51.3661 21.3698 50.0126C22.4954 48.6625 23.6315 47.3213 24.7867 45.996C26.1701 44.4092 27.578 42.8418 29.0033 41.2921C29.0817 39.1751 29.1845 37.0581 29.3169 34.943C29.4232 33.2519 29.5521 31.5625 29.695 29.8732C31.3904 29.693 33.0892 29.5339 34.7915 29.3979C36.905 29.23 39.0238 29.101 41.1443 29.0056C42.6863 27.553 44.2458 26.1199 45.8279 24.7098C47.0841 23.5877 48.3561 22.4833 49.6367 21.3895C50.9644 22.4798 52.2852 23.5824 53.585 24.7116C55.2019 26.1146 56.7928 27.5513 58.3661 29.0109C60.4936 29.1081 62.6228 29.2388 64.7538 29.4067C66.3968 29.5357 68.0399 29.6877 69.683 29.8591C69.8538 31.5272 70.0071 33.1971 70.1343 34.8705C70.2998 37.0263 70.4287 39.1875 70.5228 41.3521C71.9568 42.9443 73.3717 44.5576 74.7586 46.1992C75.8284 47.4662 76.8791 48.7526 77.9193 50.0514C76.8791 51.352 75.8284 52.6437 74.7551 53.9178H74.7569Z" fill="#CDCDCD"></path>
</svg>