<svg width="150" height="117" viewBox="0 0 150 117" fill="none" xmlns="http://www.w3.org/2000/svg">
<path d="M81.2942 64.101L74.6562 57.5234L68.0183 64.101L74.6562 70.6785L81.2942 64.101Z" fill="white"></path>
<path d="M34.8255 64.101L28.1875 57.5234L21.5495 64.101L28.1875 70.6785L34.8255 64.101Z" fill="white"></path>
<path d="M62.0234 5.22335C61.8881 6.16151 61.457 7.07035 60.73 7.79492C58.9336 9.57491 56.0214 9.57491 54.2251 7.79492C52.4287 6.01493 52.4287 3.12925 54.2251 1.34926C54.9563 0.624696 55.8693 0.201687 56.8203 0.0676642C54.9436 -0.208758 52.9655 0.360839 51.5242 1.79321C49.1065 4.18886 49.1065 8.07553 51.5242 10.4754C53.9419 12.871 57.8643 12.871 60.2862 10.4754C61.7317 9.043 62.3066 7.08711 62.0276 5.22754L62.0234 5.22335Z" fill="white"></path>
<path d="M114.658 103.446L108.02 110.023L114.658 116.601L121.296 110.023L114.658 103.446Z" fill="white"></path>
<path d="M31.6793 76.1484V93.94H17.8875L24.4262 76.1484H11.0951L0 106.354H13.3311H31.6793H44.2073V93.94V76.1484H37.9433H31.6793Z" fill="white"></path>
<path d="M138.208 76.1395H114.652H105.096H94.043L98.6036 88.5492H129.438L131.416 93.931H90.9744H89.0216L88.5229 92.5699L82.4871 76.1395H69.156L75.6905 93.931H62.1608V64.0984L57.1564 59.1396L62.1608 54.1849V21.2069L55.8968 15L49.637 21.2069H49.6328V54.1849L54.6373 59.1396L49.6328 64.0984V93.931V106.345H62.1608H80.2512H93.5822H107.547L112.56 101.373L114.652 99.3003L116.745 101.373L121.762 106.345H135.972H149.303L138.208 76.1395Z" fill="white"></path>
</svg>