<svg width="106" height="106" viewBox="0 0 106 106" fill="none" xmlns="http://www.w3.org/2000/svg">
<path d="M52.6593 104.565C53.5749 96.2328 54.9625 86.6573 58.5802 82.0328C54.8389 75.4672 53.3221 61.5485 52.6593 50.3359C51.9964 61.5542 50.4796 75.4672 46.7383 82.0328C50.3616 86.6573 51.7492 96.2272 52.6593 104.565Z" fill="white"></path>
<path d="M16.043 89.3936C22.5763 84.1502 30.3117 78.3611 36.1372 77.6578C38.1258 70.3665 46.8837 59.4521 54.3327 51.0469C45.9456 58.5069 35.0474 67.2779 27.7613 69.2695C27.0591 75.1036 21.2786 82.8562 16.043 89.3936Z" fill="white"></path>
<path d="M0.875 52.7189C9.1947 53.6359 18.7559 55.0255 23.3736 58.6487C29.9293 54.9017 43.8273 53.3827 55.0233 52.7189C43.8217 52.055 29.9293 50.536 23.3736 46.7891C18.7559 50.4178 9.20031 51.8074 0.875 52.7189Z" fill="white"></path>
<path d="M16.0391 16.0391C21.2747 22.5821 27.0552 30.3291 27.7574 36.1632C35.0379 38.1548 45.936 46.9258 54.3288 54.3858C46.8798 45.9862 38.1219 35.0718 36.1333 27.7749C30.3078 27.0716 22.5667 21.2825 16.0391 16.0391Z" fill="white"></path>
<path d="M52.6553 0.84375C51.7397 9.17584 50.3521 18.7513 46.7344 23.3758C50.4757 29.9414 51.9925 43.8601 52.6553 55.0727C53.3182 43.8545 54.835 29.9414 58.5763 23.3758C54.953 18.7513 53.5654 9.18147 52.6553 0.84375Z" fill="white"></path>
<path d="M89.2663 16.0391C82.733 21.2825 74.9975 27.0716 69.172 27.7749C67.1834 35.0662 58.4255 45.9806 50.9766 54.3858C59.3637 46.9258 70.2619 38.1548 77.5479 36.1632C78.2501 30.3291 84.0307 22.5765 89.2663 16.0391Z" fill="white"></path>
<path d="M104.433 52.7189C96.1137 51.8018 86.5525 50.4122 81.9348 46.7891C75.3791 50.536 61.4811 52.055 50.2852 52.7189C61.4867 53.3827 75.3791 54.9017 81.9348 58.6487C86.5525 55.0199 96.1081 53.6303 104.433 52.7189Z" fill="white"></path>
<path d="M89.2702 89.3936C84.0346 82.8506 78.254 75.1036 77.5518 69.2695C70.2714 67.2779 59.3732 58.5069 50.9805 51.0469C58.4294 59.4465 67.1873 70.3609 69.1759 77.6578C75.0014 78.3611 82.7425 84.1502 89.2702 89.3936Z" fill="white"></path>
<path d="M52.6594 61.2111C57.3318 61.2111 61.1195 57.4177 61.1195 52.7384C61.1195 48.059 57.3318 44.2656 52.6594 44.2656C47.987 44.2656 44.1992 48.059 44.1992 52.7384C44.1992 57.4177 47.987 61.2111 52.6594 61.2111Z" fill="#A6A6A6"></path>
<path d="M52.6596 105.468C51.1878 105.468 49.716 105.406 48.2778 105.288C35.9022 104.269 24.2344 98.8459 15.426 90.0187C6.61194 81.1971 1.19655 69.5119 0.179764 57.1179C0.0617938 55.6833 0 54.2036 0 52.7296C0 51.2556 0.0617938 49.7816 0.179764 48.3413C1.19655 35.9473 6.61194 24.2565 15.426 15.4349C24.2344 6.61898 35.9022 1.19552 48.2778 0.177219C51.1484 -0.0590729 54.1651 -0.0590729 57.0357 0.177219C69.4113 1.19552 81.0791 6.61898 89.8932 15.4405C98.7016 24.2621 104.117 35.9529 105.134 48.347C105.252 49.7816 105.314 51.2612 105.314 52.7352C105.314 54.2092 105.252 55.6833 105.134 57.1235C104.117 69.5176 98.7016 81.2028 89.8932 90.0243C81.0791 98.8515 69.4113 104.275 57.0357 105.293C55.5976 105.411 54.1258 105.473 52.654 105.473L52.6596 105.468ZM52.6596 3.06335C51.272 3.06335 49.8845 3.11961 48.5306 3.23213C36.8797 4.19418 25.8916 9.29695 17.5944 17.6065C9.29716 25.9161 4.19636 36.9206 3.23575 48.5945C3.1234 49.9504 3.06722 51.34 3.06722 52.7296C3.06722 54.1192 3.1234 55.5089 3.23575 56.8647C4.19636 68.5387 9.29155 79.5375 17.5944 87.847C25.8916 96.1623 36.8797 101.265 48.5306 102.227C51.2383 102.452 54.0808 102.452 56.7829 102.227C68.4339 101.265 79.4219 96.1566 87.7248 87.847C96.022 79.5375 101.123 68.533 102.078 56.8647C102.19 55.5089 102.246 54.1192 102.246 52.7296C102.246 51.34 102.19 49.9504 102.078 48.5945C101.117 36.9206 96.022 25.9161 87.7248 17.6065C79.4276 9.29695 68.4395 4.18855 56.7829 3.23213C55.4291 3.11961 54.0415 3.06335 52.654 3.06335H52.6596Z" fill="white"></path>
</svg>