<svg width="102" height="103" viewBox="0 0 102 103" fill="none" xmlns="http://www.w3.org/2000/svg">
<g clip-path="url(#clip0_1165_18847)">
<path d="M0 27.3656L101.143 0L69.0238 51.0658L0 27.3656Z" fill="url(#paint0_linear_1165_18847)"></path>
<path d="M69.0237 51.0659L74.0401 102.134L0 27.3657L69.0237 51.0659Z" fill="url(#paint1_linear_1165_18847)"></path>
<path d="M101.142 0L74.0398 102.134L69.0234 51.0658L101.142 0Z" fill="url(#paint2_linear_1165_18847)"></path>
<path d="M86.2992 10.8774L18.0352 29.3494L64.6197 45.3441L86.2992 10.8774Z" fill="url(#paint3_linear_1165_18847)"></path>
<path d="M64.6197 45.3443L18.0352 29.3496L24.351 35.7273L65.0469 49.702L64.6197 45.3443Z" fill="url(#paint4_linear_1165_18847)"></path>
<path d="M64.6211 45.3441L65.0483 49.7018L69.026 51.0657L80.4605 32.8857L86.3005 10.8774L64.6211 45.3441Z" fill="url(#paint5_linear_1165_18847)"></path>
<path d="M24.3516 35.7271L68.0072 79.8132L65.0475 49.7018L24.3516 35.7271Z" fill="url(#paint6_linear_1165_18847)"></path>
<path d="M65.0469 49.7017L68.0065 79.8131L70.8102 69.2482L69.0246 51.0655L65.0469 49.7017Z" fill="url(#paint7_linear_1165_18847)"></path>
<path d="M70.809 69.2484L80.4579 32.8857L69.0234 51.0658L70.809 69.2484Z" fill="url(#paint8_linear_1165_18847)"></path>
</g>
<defs>
<linearGradient id="paint0_linear_1165_18847" x1="16.3766" y1="43.1976" x2="128.336" y2="14.9672" gradientUnits="userSpaceOnUse">
<stop stop-color="#EAEAEA"></stop>
<stop offset="0.26" stop-color="#C4C4C4"></stop>
<stop offset="0.49" stop-color="#EAEAEA"></stop>
<stop offset="0.72" stop-color="#C4C4C4"></stop>
<stop offset="1" stop-color="#EAEAEA"></stop>
</linearGradient>
<linearGradient id="paint1_linear_1165_18847" x1="71.8504" y1="79.6146" x2="0.0747547" y2="3.45749" gradientUnits="userSpaceOnUse">
<stop stop-color="#EAEAEA"></stop>
<stop offset="0.26" stop-color="#C4C4C4"></stop>
<stop offset="0.49" stop-color="#EAEAEA"></stop>
<stop offset="0.72" stop-color="#C4C4C4"></stop>
<stop offset="1" stop-color="#EAEAEA"></stop>
</linearGradient>
<linearGradient id="paint2_linear_1165_18847" x1="87.6946" y1="21.582" x2="58.5213" y2="118.968" gradientUnits="userSpaceOnUse">
<stop stop-color="#EAEAEA"></stop>
<stop offset="0.26" stop-color="#C4C4C4"></stop>
<stop offset="0.49" stop-color="#EAEAEA"></stop>
<stop offset="0.72" stop-color="#C4C4C4"></stop>
<stop offset="1" stop-color="#EAEAEA"></stop>
</linearGradient>
<linearGradient id="paint3_linear_1165_18847" x1="21.6625" y1="41.4332" x2="88.5135" y2="25.1978" gradientUnits="userSpaceOnUse">
<stop stop-color="#C4C4C4"></stop>
<stop offset="0.35" stop-color="#8C8C8C"></stop>
<stop offset="0.7" stop-color="#C4C4C4"></stop>
<stop offset="1" stop-color="#8C8C8C"></stop>
</linearGradient>
<linearGradient id="paint4_linear_1165_18847" x1="34.2122" y1="29.9566" x2="73.7069" y2="70.1859" gradientUnits="userSpaceOnUse">
<stop stop-color="#8C8C8C"></stop>
<stop offset="0.34" stop-color="#C4C4C4"></stop>
<stop offset="0.68" stop-color="#8C8C8C"></stop>
<stop offset="1" stop-color="#C4C4C4"></stop>
</linearGradient>
<linearGradient id="paint5_linear_1165_18847" x1="77.373" y1="24.0307" x2="58.0439" y2="83.2108" gradientUnits="userSpaceOnUse">
<stop stop-color="#C4C4C4"></stop>
<stop offset="0.35" stop-color="#8C8C8C"></stop>
<stop offset="0.7" stop-color="#C4C4C4"></stop>
<stop offset="1" stop-color="#8C8C8C"></stop>
</linearGradient>
<linearGradient id="paint6_linear_1165_18847" x1="35.1056" y1="32.1623" x2="107.249" y2="109.98" gradientUnits="userSpaceOnUse">
<stop stop-color="#8C8C8C"></stop>
<stop offset="0.34" stop-color="#C4C4C4"></stop>
<stop offset="0.68" stop-color="#8C8C8C"></stop>
<stop offset="1" stop-color="#C4C4C4"></stop>
</linearGradient>
<linearGradient id="paint7_linear_1165_18847" x1="71.9562" y1="47.8056" x2="51.4164" y2="110.693" gradientUnits="userSpaceOnUse">
<stop stop-color="#C4C4C4"></stop>
<stop offset="0.35" stop-color="#8C8C8C"></stop>
<stop offset="0.7" stop-color="#C4C4C4"></stop>
<stop offset="1" stop-color="#8C8C8C"></stop>
</linearGradient>
<linearGradient id="paint8_linear_1165_18847" x1="88.2676" y1="2.8595" x2="69.1104" y2="61.5187" gradientUnits="userSpaceOnUse">
<stop stop-color="#C4C4C4"></stop>
<stop offset="0.35" stop-color="#8C8C8C"></stop>
<stop offset="0.7" stop-color="#C4C4C4"></stop>
<stop offset="1" stop-color="#8C8C8C"></stop>
</linearGradient>
<clipPath id="clip0_1165_18847">
<rect width="101.143" height="102.134" fill="white"></rect>
</clipPath>
</defs>
</svg>