<svg width="183" height="80" viewBox="0 0 183 80" fill="none" xmlns="http://www.w3.org/2000/svg">
<path d="M176.467 7.25781L162.43 9.33808C148.651 4.40255 144.664 11.6767 144.664 11.6767C141.976 8.55628 140.33 7.25781 140.33 7.25781C138.248 9.85474 142.412 19.2091 142.412 19.2091C145.569 19.012 139.016 49.4953 123.292 63.2006C119.999 66.0695 116.073 63.4793 113.446 60.6377C97.3476 43.2545 85.0864 29.1958 78.9899 22.4587C76.2546 19.4403 71.1242 16.6054 64.0002 17.9583C35.2321 23.424 15.2006 49.9508 0 77.4293C40.7027 43.173 63.347 31.3712 69.117 32.4793C69.117 32.4793 53.8688 50.4063 69.4368 49.8012C85.0116 49.203 86.7262 70.6923 75.8667 77.4293C96.0276 79.292 115.358 79.6728 133.41 77.7421C134.383 77.7421 150.985 70.971 162.94 30.6846C166.063 29.1754 176.201 20.2493 176.201 20.2493L180.624 20.5076C186.864 15.5721 176.467 7.25781 176.467 7.25781Z" fill="white"></path>
<path d="M109.913 24.5553C116.7 24.5553 122.202 19.0584 122.202 12.2776C122.202 5.49688 116.7 0 109.913 0C103.127 0 97.625 5.49688 97.625 12.2776C97.625 19.0584 103.127 24.5553 109.913 24.5553Z" fill="white"></path>
</svg>