<svg width="77" height="113" viewBox="0 0 77 113" fill="none" xmlns="http://www.w3.org/2000/svg">
<path d="M72.9 72.9689C70.4231 75.311 67.5523 77.2551 64.3272 78.2122C64.3272 78.2122 68.6589 75.4244 72.6854 68.0081C72.079 51.0921 72.7582 34.1762 74.7193 17.2582C71.8643 20.4042 68.3754 23.1602 64.3272 24.3621C64.3272 24.3621 71.8269 19.5366 76.259 5.69106C76.2709 5.60549 76.2827 5.51993 76.2965 5.43436C76.7296 2.5749 74.5382 0 71.6753 0H38.1736L4.67393 0.00397976C1.81304 0.00397976 -0.378398 2.57888 0.0547708 5.43834C1.13769 12.5939 1.98828 19.7515 2.61244 26.9072C6.8949 35.8795 12.024 39.1807 12.024 39.1807C8.65908 38.1818 5.68006 36.1084 3.13224 33.629C4.19941 49.548 4.12853 65.469 2.92156 81.3881C7.13708 89.8829 12.024 93.0269 12.024 93.0269C8.3598 91.9384 5.15435 89.5784 2.4628 86.8065C1.85439 93.4089 1.05303 100.013 0.0547708 106.616C-0.378398 109.473 1.81304 112.05 4.6759 112.05H16.0466C18.5235 112.05 20.6303 110.227 21.0142 107.756L23.5384 91.5066C23.7393 90.2191 25.0132 89.2003 26.3914 89.2003H27.8189L28.2679 86.315C28.4037 85.4434 29.2661 84.753 30.1994 84.753H46.1538C47.0871 84.753 47.9495 85.4415 48.0853 86.315L48.5343 89.2003H49.9617C51.34 89.2003 52.6139 90.2191 52.8148 91.5066L55.3389 107.756C55.7229 110.227 57.8316 112.05 60.3066 112.05H71.6773C74.5382 112.05 76.7296 109.475 76.2984 106.616C74.6012 95.3988 73.471 84.1819 72.902 72.9649L72.9 72.9689ZM53.5571 41.29C51.9957 51.7349 47.0103 60.4784 40.5324 65.5665L38.6501 67.0172C37.4944 58.1562 38.7486 48.4416 39.8394 39.1967C35.1808 50.8892 36.2342 58.399 36.4449 65.0452C36.4784 65.3317 36.7658 71.0646 38.9652 74.7976L38.5103 79.5454C38.5103 79.5454 32.4676 64.8183 30.0301 57.5493C29.8666 57.0777 29.7131 56.6001 29.5674 56.1166C29.5339 56.0052 29.5004 55.8977 29.4689 55.7942L29.4729 55.7982C27.8465 50.2285 27.3464 43.8589 28.3053 37.4376C28.386 36.8983 28.4785 36.3651 28.577 35.8357C28.8113 38.1659 29.6008 41.288 31.9498 43.7913C31.9498 43.7913 29.5634 37.2267 30.7645 28.0772C33.8636 20.05 39.1128 13.7978 45.2245 10.6399C47.5852 12.9641 49.5443 15.9131 51.0171 19.2998C51.8893 29.098 48.8099 34.1026 48.8099 34.1026C51.596 31.462 52.675 28.0931 53.0924 25.7311C54.1595 30.5188 54.3761 35.8238 53.559 41.292L53.5571 41.29Z" fill="white"></path>
</svg>