<svg width="100" height="98" viewBox="0 0 100 98" fill="none" xmlns="http://www.w3.org/2000/svg">
<path d="M90.2336 46.3996C88.7947 45.8236 87.2489 45.5584 85.696 45.6247L76.7559 45.9912C75.0107 46.061 73.2725 45.7154 71.6911 44.9859L67.246 42.9265L71.5771 39.0381C72.9342 37.8199 73.9528 36.284 74.5334 34.5737L77.4113 26.0952C77.8316 24.856 78.4834 23.7007 79.3311 22.6954L85.639 15.2117L76.7488 18.8698C75.317 19.4597 74.0312 20.3428 72.9805 21.4632L66.9219 27.9173C65.7394 29.1773 64.2613 30.1407 62.6157 30.7166L57.9855 32.3432L58.2455 26.5943C58.3274 24.7897 57.9356 22.9991 57.1128 21.3865L53.0275 13.3966C52.4327 12.2273 52.0622 10.9638 51.934 9.66179L50.9973 0L47.3465 8.74728C46.7588 10.1574 46.4917 11.6723 46.5558 13.1942L46.9298 21.9554C47.001 23.6658 46.6484 25.3691 45.904 26.9189L43.8025 31.2751L39.8347 27.0306C38.5952 25.7008 37.0245 24.7024 35.2792 24.1335L26.6277 21.3132C25.3633 20.9013 24.1844 20.2625 23.1586 19.4318L15.5222 13.2501L19.2549 21.9659C19.8568 23.3691 20.7579 24.6257 21.9013 25.6588L28.487 31.5927C29.7763 32.7516 30.7558 34.2002 31.3435 35.8128L33.0033 40.3505L27.1371 40.0957C25.2956 40.0189 23.4684 40.3993 21.8229 41.2057L13.67 45.2093C12.4804 45.7922 11.1875 46.1552 9.85895 46.2809L0 47.2024L8.92577 50.7767C10.3647 51.3526 11.9105 51.6179 13.4635 51.5516L22.4035 51.1886C24.1487 51.1152 25.8869 51.4608 27.4683 52.1938L31.9134 54.2497L27.5823 58.1382C26.2252 59.3564 25.2066 60.8922 24.626 62.6026L21.7481 71.081C21.3278 72.3202 20.676 73.4755 19.8283 74.4808L13.5204 81.9645L22.4142 78.3065C23.846 77.7166 25.1282 76.8334 26.1825 75.713L32.2375 69.259C33.42 67.9989 34.8981 67.0355 36.5437 66.4596L41.174 64.833L40.9139 70.5854C40.8356 72.3865 41.2238 74.1771 42.0466 75.7898L46.1319 83.7796C46.7267 84.9489 47.0972 86.2125 47.2254 87.5145L48.1657 97.1762L51.8129 88.429C52.4006 87.0188 52.6713 85.5039 52.6036 83.9821L52.2332 75.2208C52.1584 73.5104 52.511 71.8071 53.259 70.2573L55.3569 65.9011L59.3247 70.1456C60.5677 71.4755 62.1349 72.4738 63.8802 73.0427L72.5317 75.8631C73.7997 76.275 74.9751 76.9137 76.0008 77.7445L83.6373 83.9262L79.9045 75.2139C79.3026 73.8107 78.4015 72.5506 77.2581 71.5209L70.6724 65.5835C69.3867 64.4246 68.4072 62.9761 67.8159 61.3634L66.1597 56.8258L72.0259 57.0806C73.8638 57.1573 75.691 56.7769 77.3365 55.9706L85.4894 51.9669C86.6826 51.384 87.9719 51.021 89.3005 50.8954L99.1594 49.9739L90.2336 46.3996ZM49.5797 64.0372C40.8712 64.0372 33.8154 57.1225 33.8154 48.5881C33.8154 40.0538 40.8712 33.1391 49.5797 33.1391C58.2882 33.1391 65.3476 40.0538 65.3476 48.5881C65.3476 57.1225 58.2882 64.0372 49.5797 64.0372Z" fill="white"></path>
</svg>