<svg width="101" height="100" viewBox="0 0 101 100" fill="none" xmlns="http://www.w3.org/2000/svg">
<path d="M68.2753 31.4714C67.0263 13.9932 52.0207 0 34.1824 0H31.7861V31.566C14.1331 32.7967 0 47.6597 0 65.3154V67.688H31.8817C33.1247 85.1662 48.1363 99.1594 65.9685 99.1594H68.3649V67.5934C86.0179 66.3627 100.151 51.4997 100.151 33.844V31.4714H68.2693H68.2753ZM68.3709 62.8481V47.2278L65.0961 47.1804C58.8631 46.784 53.7716 42.1808 52.69 36.2166H95.2686C94.1093 50.3755 82.6713 61.7002 68.3709 62.8481ZM31.7921 36.3113V51.9316L35.0669 51.9849C41.2998 52.3813 46.3913 56.9846 47.473 62.9487H4.88833C6.04766 48.7898 17.4856 37.4651 31.7861 36.3172L31.7921 36.3113ZM50.0845 56.381C48.453 53.5647 46.0626 51.1979 43.2181 49.5827C46.0626 47.9674 48.453 45.6007 50.0845 42.7843C51.7159 45.6007 54.1063 47.9674 56.9508 49.5827C54.1063 51.1979 51.7159 53.5647 50.0845 56.381ZM47.712 31.4714L47.6642 34.7138C47.2638 40.885 42.6145 45.9261 36.5908 46.997V4.83993C50.8912 5.98779 62.3292 17.3125 63.4885 31.4714H47.712ZM52.4569 67.688L52.5047 64.4456C52.9051 58.2744 57.5544 53.2333 63.5782 52.1624V94.3195C49.2777 93.1716 37.8397 81.8469 36.6804 67.688H52.4569Z" fill="white"></path>
</svg>